<?xml version="1.0" encoding="UTF-8"?><svg xmlns="http://www.w3.org/2000/svg" xmlns:xlink="http://www.w3.org/1999/xlink" fill-opacity="1" color-rendering="auto" color-interpolation="auto" text-rendering="auto" stroke="black" stroke-linecap="square" width="700" stroke-miterlimit="10" shape-rendering="auto" stroke-opacity="1" fill="black" stroke-dasharray="none" font-weight="normal" stroke-width="1" height="551" font-family="'Dialog'" font-style="normal" stroke-linejoin="miter" font-size="12px" stroke-dashoffset="0" image-rendering="auto">
  <!--Generated by ySVG 2.5-->
  <defs id="genericDefs"/>
  <g>
    <defs id="defs1">
      <clipPath clipPathUnits="userSpaceOnUse" id="clipPath1">
        <path d="M0 0 L700 0 L700 551 L0 551 L0 0 Z"/>
      </clipPath>
      <clipPath clipPathUnits="userSpaceOnUse" id="clipPath2">
        <path d="M-808 -1448 L67 -1448 L67 -759.25 L-808 -759.25 L-808 -1448 Z"/>
      </clipPath>
      <clipPath clipPathUnits="userSpaceOnUse" id="clipPath3">
        <path d="M-766.483 -469.4335 L108.5171 -469.4335 L108.5171 219.3165 L-766.483 219.3165 L-766.483 -469.4335 Z"/>
      </clipPath>
      <clipPath clipPathUnits="userSpaceOnUse" id="clipPath4">
        <path d="M-812.7803 -469.4335 L62.2197 -469.4335 L62.2197 219.3165 L-812.7803 219.3165 L-812.7803 -469.4335 Z"/>
      </clipPath>
      <clipPath clipPathUnits="userSpaceOnUse" id="clipPath5">
        <path d="M-680.8242 -304.2472 L194.1758 -304.2472 L194.1758 384.5028 L-680.8242 384.5028 L-680.8242 -304.2472 Z"/>
      </clipPath>
      <clipPath clipPathUnits="userSpaceOnUse" id="clipPath6">
        <path d="M-727.1216 -304.2472 L147.8784 -304.2472 L147.8784 384.5028 L-727.1216 384.5028 L-727.1216 -304.2472 Z"/>
      </clipPath>
      <clipPath clipPathUnits="userSpaceOnUse" id="clipPath7">
        <path d="M-579.61 -469.82 L295.39 -469.82 L295.39 218.9299 L-579.61 218.9299 L-579.61 -469.82 Z"/>
      </clipPath>
      <clipPath clipPathUnits="userSpaceOnUse" id="clipPath8">
        <path d="M-579.61 -599.8201 L295.39 -599.8201 L295.39 88.93 L-579.61 88.93 L-579.61 -599.8201 Z"/>
      </clipPath>
      <clipPath clipPathUnits="userSpaceOnUse" id="clipPath9">
        <path d="M468.7008 -710.2737 L481.8623 164.6273 L-206.8098 174.9874 L-219.9713 -699.9136 L468.7008 -710.2737 Z"/>
      </clipPath>
    </defs>
    <g fill="white" text-rendering="geometricPrecision" shape-rendering="geometricPrecision" transform="scale(0.8,0.8) translate(808,1448)" stroke="white">
      <rect x="-809" width="876" height="689" y="-1448" clip-path="url(#clipPath2)" stroke="none"/>
    </g>
    <g fill="rgb(219,235,219)" text-rendering="geometricPrecision" shape-rendering="geometricPrecision" transform="matrix(0.8,0,0,0.8,646.4,1158.4)" stroke="rgb(219,235,219)">
      <rect x="-233.3899" y="-1277.8977" clip-path="url(#clipPath2)" width="60" rx="16" ry="16" height="32" stroke="none"/>
    </g>
    <g text-rendering="geometricPrecision" stroke-miterlimit="1.45" shape-rendering="geometricPrecision" transform="matrix(0.8,0,0,0.8,646.4,1158.4)" stroke-linecap="butt">
      <rect x="-233.3899" y="-1277.8977" clip-path="url(#clipPath2)" fill="none" width="60" rx="16" ry="16" height="32"/>
      <text x="-221.7034" font-size="14px" y="-1256.6067" clip-path="url(#clipPath2)" font-family="sans-serif" stroke="none" xml:space="preserve">cAMP</text>
    </g>
    <g fill="rgb(200,216,235)" text-rendering="geometricPrecision" shape-rendering="geometricPrecision" transform="matrix(0.8,0,0,0.8,646.4,1158.4)" stroke="rgb(200,216,235)">
      <path d="M-28.3899 -1009.2463 Q-38.3899 -1009.2463 -38.3899 -999.2463 L-38.3899 -979.2463 Q-38.3899 -971.2463 -31.9899 -969.6464 L-31.9899 -969.6464 Q-30.3899 -963.2463 -22.3899 -963.2463 L37.6101 -963.2463 Q47.6101 -963.2463 47.6101 -973.2463 L47.6101 -993.2463 Q47.6101 -1001.2463 41.2101 -1002.8464 L41.2101 -1002.8464 Q39.6101 -1009.2463 31.6101 -1009.2463 Z" stroke="none" clip-path="url(#clipPath2)"/>
    </g>
    <g text-rendering="geometricPrecision" stroke-miterlimit="1.45" shape-rendering="geometricPrecision" transform="matrix(0.8,0,0,0.8,646.4,1158.4)" stroke-linecap="butt">
      <path fill="none" d="M41.2101 -1002.8464 Q41.6101 -1001.2463 41.6101 -999.2463 L41.6101 -979.2463 Q41.6101 -969.2463 31.6101 -969.2463 L-28.3899 -969.2463 Q-30.3899 -969.2463 -31.9899 -969.6464 L-31.9899 -969.6464 Q-30.3899 -963.2463 -22.3899 -963.2463 L37.6101 -963.2463 Q47.6101 -963.2463 47.6101 -973.2463 L47.6101 -993.2463 Q47.6101 -1001.2463 41.2101 -1002.8464 Z" clip-path="url(#clipPath2)"/>
      <path fill="none" d="M-28.3899 -1009.2463 Q-38.3899 -1009.2463 -38.3899 -999.2463 L-38.3899 -979.2463 Q-38.3899 -969.2463 -28.3899 -969.2463 L31.6101 -969.2463 Q41.6101 -969.2463 41.6101 -979.2463 L41.6101 -999.2463 Q41.6101 -1009.2463 31.6101 -1009.2463 Z" clip-path="url(#clipPath2)"/>
      <text x="-25.0023" font-size="14px" y="-983.9553" clip-path="url(#clipPath2)" font-family="sans-serif" stroke="none" xml:space="preserve">PKA reg</text>
    </g>
    <g fill="white" text-rendering="geometricPrecision" shape-rendering="geometricPrecision" transform="matrix(0.8,0,0,0.8,646.4,1158.4)" stroke="white">
      <rect x="-10.8274" width="24.875" height="15.7773" y="-1017.135" clip-path="url(#clipPath2)" stroke="none"/>
      <rect x="-10.8274" y="-1017.135" clip-path="url(#clipPath2)" fill="none" width="24.875" height="15.7773" stroke="black" stroke-miterlimit="1.6"/>
    </g>
    <g font-size="10px" stroke-linecap="butt" transform="matrix(0.8,0,0,0.8,646.4,1158.4)" text-rendering="geometricPrecision" font-family="sans-serif" shape-rendering="geometricPrecision" stroke-miterlimit="1.45">
      <text x="-6.8274" xml:space="preserve" y="-1005.467" clip-path="url(#clipPath2)" stroke="none">N:2</text>
    </g>
    <g fill="white" text-rendering="geometricPrecision" shape-rendering="geometricPrecision" transform="matrix(0.8,0,0,0.8,646.4,1158.4) translate(-41.5171,-978.5665)" stroke="white">
      <rect x="0" y="0" clip-path="url(#clipPath3)" width="40" rx="9" ry="9" height="18" stroke="none"/>
    </g>
    <g text-rendering="geometricPrecision" stroke-miterlimit="1.45" shape-rendering="geometricPrecision" transform="matrix(0.8,0,0,0.8,646.4,1158.4) translate(-41.5171,-978.5665)" stroke-linecap="butt">
      <rect x="0" y="0" clip-path="url(#clipPath3)" fill="none" width="40" rx="9" ry="9" height="18"/>
      <text x="6.9189" font-size="10px" y="12.7793" clip-path="url(#clipPath3)" font-family="sans-serif" stroke="none" xml:space="preserve">cAMP</text>
    </g>
    <g fill="white" text-rendering="geometricPrecision" shape-rendering="geometricPrecision" transform="matrix(0.8,0,0,0.8,646.4,1158.4) translate(4.7803,-978.5665)" stroke="white">
      <rect x="0" y="0" clip-path="url(#clipPath4)" width="40" rx="9" ry="9" height="18" stroke="none"/>
    </g>
    <g text-rendering="geometricPrecision" stroke-miterlimit="1.45" shape-rendering="geometricPrecision" transform="matrix(0.8,0,0,0.8,646.4,1158.4) translate(4.7803,-978.5665)" stroke-linecap="butt">
      <rect x="0" y="0" clip-path="url(#clipPath4)" fill="none" width="40" rx="9" ry="9" height="18"/>
      <text x="6.9189" font-size="10px" y="12.7793" clip-path="url(#clipPath4)" font-family="sans-serif" stroke="none" xml:space="preserve">cAMP</text>
    </g>
    <g fill="white" text-rendering="geometricPrecision" shape-rendering="geometricPrecision" transform="matrix(0.8,0,0,0.8,646.4,1158.4)" stroke="white">
      <rect x="-93.0487" width="18" height="18" y="-1241.9598" clip-path="url(#clipPath2)" stroke="none"/>
    </g>
    <g text-rendering="geometricPrecision" stroke-miterlimit="1.45" shape-rendering="geometricPrecision" transform="matrix(0.8,0,0,0.8,646.4,1158.4)" stroke-linecap="butt">
      <rect fill="none" x="-93.0487" width="18" height="18" y="-1241.9598" clip-path="url(#clipPath2)"/>
    </g>
    <g text-rendering="geometricPrecision" stroke-miterlimit="1.45" shape-rendering="geometricPrecision" transform="matrix(0.8,0,0,0.8,646.4,1158.4)" stroke-linecap="butt">
      <path fill="none" d="M-173.409 -1261.8977 L-94.0487 -1261.8977 L-89.6737 -1261.2751 L-86.5487 -1259.4073 L-84.6737 -1256.2943 L-84.0487 -1251.9362 L-84.0487 -1241.9746" clip-path="url(#clipPath2)"/>
    </g>
    <g stroke-linecap="butt" transform="matrix(0.8,0,0,0.8,646.4,1158.4)" fill="white" text-rendering="geometricPrecision" shape-rendering="geometricPrecision" stroke="white" stroke-miterlimit="1.45">
      <rect x="-142.2075" width="11.5879" height="18.1328" y="-1259.8977" clip-path="url(#clipPath2)" stroke="none"/>
    </g>
    <g text-rendering="geometricPrecision" stroke-miterlimit="1.6" shape-rendering="geometricPrecision" transform="matrix(0.8,0,0,0.8,646.4,1158.4)">
      <rect fill="none" x="-142.2075" width="11.5879" height="18.1328" y="-1259.8977" clip-path="url(#clipPath2)"/>
      <text stroke-linecap="butt" x="-140.2075" y="-1246.2961" clip-path="url(#clipPath2)" font-family="sans-serif" stroke="none" stroke-miterlimit="1.45" xml:space="preserve">4</text>
    </g>
    <g fill="white" text-rendering="geometricPrecision" shape-rendering="geometricPrecision" transform="matrix(0.8,0,0,0.8,646.4,1158.4)" stroke="white">
      <path d="M-122.0487 -1428.8181 L-40.0487 -1428.8181 L-28.0487 -1416.8181 L-28.0487 -1296.0472 L-40.0487 -1284.0472 L-122.0487 -1284.0472 L-134.0487 -1296.0472 L-134.0487 -1416.8181 Z" stroke="none" clip-path="url(#clipPath2)"/>
    </g>
    <g text-rendering="geometricPrecision" stroke-miterlimit="1.45" shape-rendering="geometricPrecision" transform="matrix(0.8,0,0,0.8,646.4,1158.4)" stroke-linecap="butt">
      <path fill="none" d="M-122.0487 -1428.8181 L-40.0487 -1428.8181 L-28.0487 -1416.8181 L-28.0487 -1296.0472 L-40.0487 -1284.0472 L-122.0487 -1284.0472 L-134.0487 -1296.0472 L-134.0487 -1416.8181 Z" clip-path="url(#clipPath2)"/>
    </g>
    <g fill="rgb(200,216,235)" text-rendering="geometricPrecision" shape-rendering="geometricPrecision" transform="matrix(0.8,0,0,0.8,646.4,1158.4)" stroke="rgb(200,216,235)">
      <path d="M-114.0487 -1404.9192 Q-124.0487 -1404.9192 -124.0487 -1394.9192 L-124.0487 -1374.9192 Q-124.0487 -1366.9192 -117.6487 -1365.3192 L-117.6487 -1365.3192 Q-116.0487 -1358.9192 -108.0487 -1358.9192 L-48.0487 -1358.9192 Q-38.0487 -1358.9192 -38.0487 -1368.9192 L-38.0487 -1388.9192 Q-38.0487 -1396.9192 -44.4487 -1398.5193 L-44.4487 -1398.5193 Q-46.0487 -1404.9192 -54.0487 -1404.9192 Z" stroke="none" clip-path="url(#clipPath2)"/>
    </g>
    <g text-rendering="geometricPrecision" stroke-miterlimit="1.45" shape-rendering="geometricPrecision" transform="matrix(0.8,0,0,0.8,646.4,1158.4)" stroke-linecap="butt">
      <path fill="none" d="M-44.4487 -1398.5193 Q-44.0487 -1396.9192 -44.0487 -1394.9192 L-44.0487 -1374.9192 Q-44.0487 -1364.9192 -54.0487 -1364.9192 L-114.0487 -1364.9192 Q-116.0487 -1364.9192 -117.6487 -1365.3192 L-117.6487 -1365.3192 Q-116.0487 -1358.9192 -108.0487 -1358.9192 L-48.0487 -1358.9192 Q-38.0487 -1358.9192 -38.0487 -1368.9192 L-38.0487 -1388.9192 Q-38.0487 -1396.9192 -44.4487 -1398.5193 Z" clip-path="url(#clipPath2)"/>
      <path fill="none" d="M-114.0487 -1404.9192 Q-124.0487 -1404.9192 -124.0487 -1394.9192 L-124.0487 -1374.9192 Q-124.0487 -1364.9192 -114.0487 -1364.9192 L-54.0487 -1364.9192 Q-44.0487 -1364.9192 -44.0487 -1374.9192 L-44.0487 -1394.9192 Q-44.0487 -1404.9192 -54.0487 -1404.9192 Z" clip-path="url(#clipPath2)"/>
      <text x="-110.661" font-size="14px" y="-1379.6282" clip-path="url(#clipPath2)" font-family="sans-serif" stroke="none" xml:space="preserve">PKA reg</text>
    </g>
    <g fill="white" text-rendering="geometricPrecision" shape-rendering="geometricPrecision" transform="matrix(0.8,0,0,0.8,646.4,1158.4)" stroke="white">
      <rect x="-96.4862" width="24.875" height="15.7773" y="-1412.8079" clip-path="url(#clipPath2)" stroke="none"/>
      <rect x="-96.4862" y="-1412.8079" clip-path="url(#clipPath2)" fill="none" width="24.875" height="15.7773" stroke="black" stroke-miterlimit="1.6"/>
    </g>
    <g font-size="10px" stroke-linecap="butt" transform="matrix(0.8,0,0,0.8,646.4,1158.4)" text-rendering="geometricPrecision" font-family="sans-serif" shape-rendering="geometricPrecision" stroke-miterlimit="1.45">
      <text x="-92.4862" xml:space="preserve" y="-1401.1399" clip-path="url(#clipPath2)" stroke="none">N:2</text>
    </g>
    <g fill="rgb(200,216,235)" text-rendering="geometricPrecision" shape-rendering="geometricPrecision" transform="matrix(0.8,0,0,0.8,646.4,1158.4)" stroke="rgb(200,216,235)">
      <path d="M-114.0487 -1345.0472 Q-124.0487 -1345.0472 -124.0487 -1335.0472 L-124.0487 -1315.0472 Q-124.0487 -1307.0472 -117.6487 -1305.4473 L-117.6487 -1305.4473 Q-116.0487 -1299.0472 -108.0487 -1299.0472 L-48.0487 -1299.0472 Q-38.0487 -1299.0472 -38.0487 -1309.0472 L-38.0487 -1329.0472 Q-38.0487 -1337.0472 -44.4487 -1338.6472 L-44.4487 -1338.6472 Q-46.0487 -1345.0472 -54.0487 -1345.0472 Z" stroke="none" clip-path="url(#clipPath2)"/>
    </g>
    <g text-rendering="geometricPrecision" stroke-miterlimit="1.45" shape-rendering="geometricPrecision" transform="matrix(0.8,0,0,0.8,646.4,1158.4)" stroke-linecap="butt">
      <path fill="none" d="M-44.4487 -1338.6472 Q-44.0487 -1337.0472 -44.0487 -1335.0472 L-44.0487 -1315.0472 Q-44.0487 -1305.0472 -54.0487 -1305.0472 L-114.0487 -1305.0472 Q-116.0487 -1305.0472 -117.6487 -1305.4473 L-117.6487 -1305.4473 Q-116.0487 -1299.0472 -108.0487 -1299.0472 L-48.0487 -1299.0472 Q-38.0487 -1299.0472 -38.0487 -1309.0472 L-38.0487 -1329.0472 Q-38.0487 -1337.0472 -44.4487 -1338.6472 Z" clip-path="url(#clipPath2)"/>
      <path fill="none" d="M-114.0487 -1345.0472 Q-124.0487 -1345.0472 -124.0487 -1335.0472 L-124.0487 -1315.0472 Q-124.0487 -1305.0472 -114.0487 -1305.0472 L-54.0487 -1305.0472 Q-44.0487 -1305.0472 -44.0487 -1315.0472 L-44.0487 -1335.0472 Q-44.0487 -1345.0472 -54.0487 -1345.0472 Z" clip-path="url(#clipPath2)"/>
      <text x="-109.6014" font-size="14px" y="-1319.7562" clip-path="url(#clipPath2)" font-family="sans-serif" stroke="none" xml:space="preserve">PKA cat</text>
    </g>
    <g fill="white" text-rendering="geometricPrecision" shape-rendering="geometricPrecision" transform="matrix(0.8,0,0,0.8,646.4,1158.4)" stroke="white">
      <rect x="-96.4862" width="24.875" height="15.7773" y="-1352.9359" clip-path="url(#clipPath2)" stroke="none"/>
      <rect x="-96.4862" y="-1352.9359" clip-path="url(#clipPath2)" fill="none" width="24.875" height="15.7773" stroke="black" stroke-miterlimit="1.6"/>
    </g>
    <g font-size="10px" stroke-linecap="butt" transform="matrix(0.8,0,0,0.8,646.4,1158.4)" text-rendering="geometricPrecision" font-family="sans-serif" shape-rendering="geometricPrecision" stroke-miterlimit="1.45">
      <text x="-92.4862" xml:space="preserve" y="-1341.2679" clip-path="url(#clipPath2)" stroke="none">N:2</text>
    </g>
    <g fill="white" text-rendering="geometricPrecision" shape-rendering="geometricPrecision" transform="matrix(0.8,0,0,0.8,646.4,1158.4)" stroke="white">
      <rect x="-93.0487" width="18" height="18" y="-1022.4044" clip-path="url(#clipPath2)" stroke="none"/>
    </g>
    <g text-rendering="geometricPrecision" stroke-miterlimit="1.45" shape-rendering="geometricPrecision" transform="matrix(0.8,0,0,0.8,646.4,1158.4)" stroke-linecap="butt">
      <rect fill="none" x="-93.0487" width="18" height="18" y="-1022.4044" clip-path="url(#clipPath2)"/>
    </g>
    <g text-rendering="geometricPrecision" stroke-miterlimit="1.45" shape-rendering="geometricPrecision" transform="matrix(0.8,0,0,0.8,646.4,1158.4)" stroke-linecap="butt">
      <path fill="none" d="M-82.8072 -1284.0552 L-83.8293 -1241.9913" clip-path="url(#clipPath2)"/>
      <path fill="none" d="M-84.0487 -1004.3923 L-84.0487 -996.8193 L-83.4237 -993.5062 L-81.5487 -991.1396 L-78.4237 -989.7197 L-74.0487 -989.2463 L-49.417 -989.2463" clip-path="url(#clipPath2)"/>
      <path d="M-38.417 -989.2463 L-50.417 -995.2463 L-50.417 -983.2463 Z" clip-path="url(#clipPath2)" stroke="none"/>
    </g>
    <g fill="white" text-rendering="geometricPrecision" shape-rendering="geometricPrecision" transform="matrix(0.8,0,0,0.8,646.4,1158.4)" stroke="white">
      <path d="M-125.1758 -1198.0336 L-40.0487 -1198.0336 L-28.0487 -1186.0336 L-28.0487 -1064.4044 L-40.0487 -1052.4044 L-125.1758 -1052.4044 L-137.1758 -1064.4044 L-137.1758 -1186.0336 Z" stroke="none" clip-path="url(#clipPath2)"/>
    </g>
    <g text-rendering="geometricPrecision" stroke-miterlimit="1.45" shape-rendering="geometricPrecision" transform="matrix(0.8,0,0,0.8,646.4,1158.4)" stroke-linecap="butt">
      <path fill="none" d="M-125.1758 -1198.0336 L-40.0487 -1198.0336 L-28.0487 -1186.0336 L-28.0487 -1064.4044 L-40.0487 -1052.4044 L-125.1758 -1052.4044 L-137.1758 -1064.4044 L-137.1758 -1186.0336 Z" clip-path="url(#clipPath2)"/>
    </g>
    <g fill="rgb(200,216,235)" text-rendering="geometricPrecision" shape-rendering="geometricPrecision" transform="matrix(0.8,0,0,0.8,646.4,1158.4)" stroke="rgb(200,216,235)">
      <path d="M-114.0487 -1113.4044 Q-124.0487 -1113.4044 -124.0487 -1103.4044 L-124.0487 -1083.4044 Q-124.0487 -1075.4044 -117.6487 -1073.8044 L-117.6487 -1073.8044 Q-116.0487 -1067.4044 -108.0487 -1067.4044 L-48.0487 -1067.4044 Q-38.0487 -1067.4044 -38.0487 -1077.4044 L-38.0487 -1097.4044 Q-38.0487 -1105.4044 -44.4487 -1107.0044 L-44.4487 -1107.0044 Q-46.0487 -1113.4044 -54.0487 -1113.4044 Z" stroke="none" clip-path="url(#clipPath2)"/>
    </g>
    <g text-rendering="geometricPrecision" stroke-miterlimit="1.45" shape-rendering="geometricPrecision" transform="matrix(0.8,0,0,0.8,646.4,1158.4)" stroke-linecap="butt">
      <path fill="none" d="M-44.4487 -1107.0044 Q-44.0487 -1105.4044 -44.0487 -1103.4044 L-44.0487 -1083.4044 Q-44.0487 -1073.4044 -54.0487 -1073.4044 L-114.0487 -1073.4044 Q-116.0487 -1073.4044 -117.6487 -1073.8044 L-117.6487 -1073.8044 Q-116.0487 -1067.4044 -108.0487 -1067.4044 L-48.0487 -1067.4044 Q-38.0487 -1067.4044 -38.0487 -1077.4044 L-38.0487 -1097.4044 Q-38.0487 -1105.4044 -44.4487 -1107.0044 Z" clip-path="url(#clipPath2)"/>
      <path fill="none" d="M-114.0487 -1113.4044 Q-124.0487 -1113.4044 -124.0487 -1103.4044 L-124.0487 -1083.4044 Q-124.0487 -1073.4044 -114.0487 -1073.4044 L-54.0487 -1073.4044 Q-44.0487 -1073.4044 -44.0487 -1083.4044 L-44.0487 -1103.4044 Q-44.0487 -1113.4044 -54.0487 -1113.4044 Z" clip-path="url(#clipPath2)"/>
      <text x="-109.6014" font-size="14px" y="-1088.1134" clip-path="url(#clipPath2)" font-family="sans-serif" stroke="none" xml:space="preserve">PKA cat</text>
    </g>
    <g fill="white" text-rendering="geometricPrecision" shape-rendering="geometricPrecision" transform="matrix(0.8,0,0,0.8,646.4,1158.4)" stroke="white">
      <rect x="-96.4862" width="24.875" height="15.7773" y="-1121.2931" clip-path="url(#clipPath2)" stroke="none"/>
      <rect x="-96.4862" y="-1121.2931" clip-path="url(#clipPath2)" fill="none" width="24.875" height="15.7773" stroke="black" stroke-miterlimit="1.6"/>
    </g>
    <g font-size="10px" stroke-linecap="butt" transform="matrix(0.8,0,0,0.8,646.4,1158.4)" text-rendering="geometricPrecision" font-family="sans-serif" shape-rendering="geometricPrecision" stroke-miterlimit="1.45">
      <text x="-92.4862" xml:space="preserve" y="-1109.6251" clip-path="url(#clipPath2)" stroke="none">N:2</text>
    </g>
    <g fill="rgb(200,216,235)" text-rendering="geometricPrecision" shape-rendering="geometricPrecision" transform="matrix(0.8,0,0,0.8,646.4,1158.4)" stroke="rgb(200,216,235)">
      <path d="M-114.0487 -1174.4327 Q-124.0487 -1174.4327 -124.0487 -1164.4327 L-124.0487 -1144.4327 Q-124.0487 -1136.4327 -117.6487 -1134.8326 L-117.6487 -1134.8326 Q-116.0487 -1128.4327 -108.0487 -1128.4327 L-48.0487 -1128.4327 Q-38.0487 -1128.4327 -38.0487 -1138.4327 L-38.0487 -1158.4327 Q-38.0487 -1166.4327 -44.4487 -1168.0327 L-44.4487 -1168.0327 Q-46.0487 -1174.4327 -54.0487 -1174.4327 Z" stroke="none" clip-path="url(#clipPath2)"/>
    </g>
    <g text-rendering="geometricPrecision" stroke-miterlimit="1.45" shape-rendering="geometricPrecision" transform="matrix(0.8,0,0,0.8,646.4,1158.4)" stroke-linecap="butt">
      <path fill="none" d="M-44.4487 -1168.0327 Q-44.0487 -1166.4327 -44.0487 -1164.4327 L-44.0487 -1144.4327 Q-44.0487 -1134.4327 -54.0487 -1134.4327 L-114.0487 -1134.4327 Q-116.0487 -1134.4327 -117.6487 -1134.8326 L-117.6487 -1134.8326 Q-116.0487 -1128.4327 -108.0487 -1128.4327 L-48.0487 -1128.4327 Q-38.0487 -1128.4327 -38.0487 -1138.4327 L-38.0487 -1158.4327 Q-38.0487 -1166.4327 -44.4487 -1168.0327 Z" clip-path="url(#clipPath2)"/>
      <path fill="none" d="M-114.0487 -1174.4327 Q-124.0487 -1174.4327 -124.0487 -1164.4327 L-124.0487 -1144.4327 Q-124.0487 -1134.4327 -114.0487 -1134.4327 L-54.0487 -1134.4327 Q-44.0487 -1134.4327 -44.0487 -1144.4327 L-44.0487 -1164.4327 Q-44.0487 -1174.4327 -54.0487 -1174.4327 Z" clip-path="url(#clipPath2)"/>
      <text x="-110.661" font-size="14px" y="-1149.1417" clip-path="url(#clipPath2)" font-family="sans-serif" stroke="none" xml:space="preserve">PKA reg</text>
    </g>
    <g fill="white" text-rendering="geometricPrecision" shape-rendering="geometricPrecision" transform="matrix(0.8,0,0,0.8,646.4,1158.4)" stroke="white">
      <rect x="-96.4862" width="24.875" height="15.7773" y="-1182.3214" clip-path="url(#clipPath2)" stroke="none"/>
      <rect x="-96.4862" y="-1182.3214" clip-path="url(#clipPath2)" fill="none" width="24.875" height="15.7773" stroke="black" stroke-miterlimit="1.6"/>
    </g>
    <g font-size="10px" stroke-linecap="butt" transform="matrix(0.8,0,0,0.8,646.4,1158.4)" text-rendering="geometricPrecision" font-family="sans-serif" shape-rendering="geometricPrecision" stroke-miterlimit="1.45">
      <text x="-92.4862" xml:space="preserve" y="-1170.6534" clip-path="url(#clipPath2)" stroke="none">N:2</text>
    </g>
    <g fill="white" text-rendering="geometricPrecision" shape-rendering="geometricPrecision" transform="matrix(0.8,0,0,0.8,646.4,1158.4) translate(-127.1758,-1143.7528)" stroke="white">
      <rect x="0" y="0" clip-path="url(#clipPath5)" width="40" rx="9" ry="9" height="18" stroke="none"/>
    </g>
    <g text-rendering="geometricPrecision" stroke-miterlimit="1.45" shape-rendering="geometricPrecision" transform="matrix(0.8,0,0,0.8,646.4,1158.4) translate(-127.1758,-1143.7528)" stroke-linecap="butt">
      <rect x="0" y="0" clip-path="url(#clipPath5)" fill="none" width="40" rx="9" ry="9" height="18"/>
      <text x="6.9189" font-size="10px" y="12.7793" clip-path="url(#clipPath5)" font-family="sans-serif" stroke="none" xml:space="preserve">cAMP</text>
    </g>
    <g fill="white" text-rendering="geometricPrecision" shape-rendering="geometricPrecision" transform="matrix(0.8,0,0,0.8,646.4,1158.4) translate(-80.8784,-1143.7528)" stroke="white">
      <rect x="0" y="0" clip-path="url(#clipPath6)" width="40" rx="9" ry="9" height="18" stroke="none"/>
    </g>
    <g text-rendering="geometricPrecision" stroke-miterlimit="1.45" shape-rendering="geometricPrecision" transform="matrix(0.8,0,0,0.8,646.4,1158.4) translate(-80.8784,-1143.7528)" stroke-linecap="butt">
      <rect x="0" y="0" clip-path="url(#clipPath6)" fill="none" width="40" rx="9" ry="9" height="18"/>
      <text x="6.9189" font-size="10px" y="12.7793" clip-path="url(#clipPath6)" font-family="sans-serif" stroke="none" xml:space="preserve">cAMP</text>
    </g>
    <g fill="rgb(200,216,235)" text-rendering="geometricPrecision" shape-rendering="geometricPrecision" transform="matrix(0.8,0,0,0.8,646.4,1158.4)" stroke="rgb(200,216,235)">
      <path d="M-125.3899 -934.2463 Q-125.3899 -944.2463 -115.3899 -944.2463 L-55.3899 -944.2463 Q-45.3899 -944.2463 -45.3899 -934.2463 L-45.3899 -914.2463 Q-45.3899 -904.2463 -55.3899 -904.2463 L-115.3899 -904.2463 Q-125.3899 -904.2463 -125.3899 -914.2463 Z" stroke="none" clip-path="url(#clipPath2)"/>
    </g>
    <g text-rendering="geometricPrecision" stroke-miterlimit="1.45" shape-rendering="geometricPrecision" transform="matrix(0.8,0,0,0.8,646.4,1158.4)" stroke-linecap="butt">
      <path fill="none" d="M-125.3899 -934.2463 Q-125.3899 -944.2463 -115.3899 -944.2463 L-55.3899 -944.2463 Q-45.3899 -944.2463 -45.3899 -934.2463 L-45.3899 -914.2463 Q-45.3899 -904.2463 -55.3899 -904.2463 L-115.3899 -904.2463 Q-125.3899 -904.2463 -125.3899 -914.2463 Z" clip-path="url(#clipPath2)"/>
      <text x="-110.6795" font-size="14px" y="-919.3928" clip-path="url(#clipPath2)" font-family="'Arial'" stroke="none" xml:space="preserve">PKA cat</text>
    </g>
    <g fill="rgb(219,235,219)" text-rendering="geometricPrecision" shape-rendering="geometricPrecision" transform="matrix(0.8,0,0,0.8,646.4,1158.4)" stroke="rgb(219,235,219)">
      <rect x="-713.1218" y="-1070.2464" clip-path="url(#clipPath2)" width="140" rx="16" ry="16" height="32" stroke="none"/>
    </g>
    <g text-rendering="geometricPrecision" stroke-miterlimit="1.45" shape-rendering="geometricPrecision" transform="matrix(0.8,0,0,0.8,646.4,1158.4)" stroke-linecap="butt">
      <rect x="-713.1218" y="-1070.2464" clip-path="url(#clipPath2)" fill="none" width="140" rx="16" ry="16" height="32"/>
      <text x="-691.9065" font-size="14px" y="-1049.3928" clip-path="url(#clipPath2)" font-family="'Arial'" stroke="none" xml:space="preserve">α-D-glucose-6P</text>
    </g>
    <g fill="rgb(219,235,219)" text-rendering="geometricPrecision" shape-rendering="geometricPrecision" transform="matrix(0.8,0,0,0.8,646.4,1158.4)" stroke="rgb(219,235,219)">
      <rect x="-713.1218" y="-940.2464" clip-path="url(#clipPath2)" width="140" rx="16" ry="16" height="32" stroke="none"/>
    </g>
    <g text-rendering="geometricPrecision" stroke-miterlimit="1.45" shape-rendering="geometricPrecision" transform="matrix(0.8,0,0,0.8,646.4,1158.4)" stroke-linecap="butt">
      <rect x="-713.1218" y="-940.2464" clip-path="url(#clipPath2)" fill="none" width="140" rx="16" ry="16" height="32"/>
      <text x="-692.6584" font-size="14px" y="-919.3928" clip-path="url(#clipPath2)" font-family="'Arial'" stroke="none" xml:space="preserve">β-D-fructose-6P</text>
    </g>
    <g fill="rgb(200,216,235)" text-rendering="geometricPrecision" shape-rendering="geometricPrecision" transform="matrix(0.8,0,0,0.8,646.4,1158.4)" stroke="rgb(200,216,235)">
      <path d="M-788.1218 -999.2463 Q-788.1218 -1009.2463 -778.1218 -1009.2463 L-718.1218 -1009.2463 Q-708.1218 -1009.2463 -708.1218 -999.2463 L-708.1218 -979.2463 Q-708.1218 -969.2463 -718.1218 -969.2463 L-778.1218 -969.2463 Q-788.1218 -969.2463 -788.1218 -979.2463 Z" stroke="none" clip-path="url(#clipPath2)"/>
    </g>
    <g text-rendering="geometricPrecision" stroke-miterlimit="1.45" shape-rendering="geometricPrecision" transform="matrix(0.8,0,0,0.8,646.4,1158.4)" stroke-linecap="butt">
      <path fill="none" d="M-788.1218 -999.2463 Q-788.1218 -1009.2463 -778.1218 -1009.2463 L-718.1218 -1009.2463 Q-708.1218 -1009.2463 -708.1218 -999.2463 L-708.1218 -979.2463 Q-708.1218 -969.2463 -718.1218 -969.2463 L-778.1218 -969.2463 Q-788.1218 -969.2463 -788.1218 -979.2463 Z" clip-path="url(#clipPath2)"/>
      <text x="-760.1804" font-size="14px" y="-984.3928" clip-path="url(#clipPath2)" font-family="'Arial'" stroke="none" xml:space="preserve">GPI</text>
    </g>
    <g fill="white" text-rendering="geometricPrecision" shape-rendering="geometricPrecision" transform="matrix(0.8,0,0,0.8,646.4,1158.4)" stroke="white">
      <rect x="-652.1218" width="18" height="18" y="-998.2464" clip-path="url(#clipPath2)" stroke="none"/>
    </g>
    <g text-rendering="geometricPrecision" stroke-miterlimit="1.45" shape-rendering="geometricPrecision" transform="matrix(0.8,0,0,0.8,646.4,1158.4)" stroke-linecap="butt">
      <rect fill="none" x="-652.1218" width="18" height="18" y="-998.2464" clip-path="url(#clipPath2)"/>
    </g>
    <g fill="white" text-rendering="geometricPrecision" shape-rendering="geometricPrecision" transform="matrix(0.8,0,0,0.8,646.4,1158.4)" stroke="white">
      <rect x="-634.1218" width="18" height="18" y="-868.2464" clip-path="url(#clipPath2)" stroke="none"/>
    </g>
    <g text-rendering="geometricPrecision" stroke-miterlimit="1.45" shape-rendering="geometricPrecision" transform="matrix(0.8,0,0,0.8,646.4,1158.4)" stroke-linecap="butt">
      <rect fill="none" x="-634.1218" width="18" height="18" y="-868.2464" clip-path="url(#clipPath2)"/>
    </g>
    <g fill="white" text-rendering="geometricPrecision" shape-rendering="geometricPrecision" transform="matrix(0.8,0,0,0.8,646.4,1158.4)" stroke="white">
      <rect x="-670.1218" width="18" height="18" y="-868.2464" clip-path="url(#clipPath2)" stroke="none"/>
    </g>
    <g text-rendering="geometricPrecision" stroke-miterlimit="1.45" shape-rendering="geometricPrecision" transform="matrix(0.8,0,0,0.8,646.4,1158.4)" stroke-linecap="butt">
      <rect fill="none" x="-670.1218" width="18" height="18" y="-868.2464" clip-path="url(#clipPath2)"/>
    </g>
    <g fill="rgb(219,235,219)" text-rendering="geometricPrecision" shape-rendering="geometricPrecision" transform="matrix(0.8,0,0,0.8,646.4,1158.4)" stroke="rgb(219,235,219)">
      <rect x="-713.1218" y="-810.2464" clip-path="url(#clipPath2)" width="140" rx="16" ry="16" height="32" stroke="none"/>
    </g>
    <g text-rendering="geometricPrecision" stroke-miterlimit="1.45" shape-rendering="geometricPrecision" transform="matrix(0.8,0,0,0.8,646.4,1158.4)" stroke-linecap="butt">
      <rect x="-713.1218" y="-810.2464" clip-path="url(#clipPath2)" fill="none" width="140" rx="16" ry="16" height="32"/>
      <text x="-702.3894" font-size="14px" y="-789.3928" clip-path="url(#clipPath2)" font-family="'Arial'" stroke="none" xml:space="preserve">β-D-fructose-1,6P2</text>
    </g>
    <g fill="rgb(200,216,235)" text-rendering="geometricPrecision" shape-rendering="geometricPrecision" transform="matrix(0.8,0,0,0.8,646.4,1158.4)" stroke="rgb(200,216,235)">
      <path d="M-788.1218 -869.2463 Q-788.1218 -879.2463 -778.1218 -879.2463 L-718.1218 -879.2463 Q-708.1218 -879.2463 -708.1218 -869.2463 L-708.1218 -849.2463 Q-708.1218 -839.2463 -718.1218 -839.2463 L-778.1218 -839.2463 Q-788.1218 -839.2463 -788.1218 -849.2463 Z" stroke="none" clip-path="url(#clipPath2)"/>
    </g>
    <g text-rendering="geometricPrecision" stroke-miterlimit="1.45" shape-rendering="geometricPrecision" transform="matrix(0.8,0,0,0.8,646.4,1158.4)" stroke-linecap="butt">
      <path fill="none" d="M-788.1218 -869.2463 Q-788.1218 -879.2463 -778.1218 -879.2463 L-718.1218 -879.2463 Q-708.1218 -879.2463 -708.1218 -869.2463 L-708.1218 -849.2463 Q-708.1218 -839.2463 -718.1218 -839.2463 L-778.1218 -839.2463 Q-788.1218 -839.2463 -788.1218 -849.2463 Z" clip-path="url(#clipPath2)"/>
      <text x="-771.4666" font-size="14px" y="-854.3928" clip-path="url(#clipPath2)" font-family="'Arial'" stroke="none" xml:space="preserve">F1,6BP</text>
    </g>
    <g fill="rgb(200,216,235)" text-rendering="geometricPrecision" shape-rendering="geometricPrecision" transform="matrix(0.8,0,0,0.8,646.4,1158.4)" stroke="rgb(200,216,235)">
      <path d="M-578.1218 -869.2463 Q-578.1218 -879.2463 -568.1218 -879.2463 L-508.1218 -879.2463 Q-498.1218 -879.2463 -498.1218 -869.2463 L-498.1218 -849.2463 Q-498.1218 -839.2463 -508.1218 -839.2463 L-568.1218 -839.2463 Q-578.1218 -839.2463 -578.1218 -849.2463 Z" stroke="none" clip-path="url(#clipPath2)"/>
    </g>
    <g text-rendering="geometricPrecision" stroke-miterlimit="1.45" shape-rendering="geometricPrecision" transform="matrix(0.8,0,0,0.8,646.4,1158.4)" stroke-linecap="butt">
      <path fill="none" d="M-578.1218 -869.2463 Q-578.1218 -879.2463 -568.1218 -879.2463 L-508.1218 -879.2463 Q-498.1218 -879.2463 -498.1218 -869.2463 L-498.1218 -849.2463 Q-498.1218 -839.2463 -508.1218 -839.2463 L-568.1218 -839.2463 Q-578.1218 -839.2463 -578.1218 -849.2463 Z" clip-path="url(#clipPath2)"/>
      <text x="-555.6287" font-size="14px" y="-854.3928" clip-path="url(#clipPath2)" font-family="'Arial'" stroke="none" xml:space="preserve">PFK1</text>
    </g>
    <g fill="rgb(219,235,219)" text-rendering="geometricPrecision" shape-rendering="geometricPrecision" transform="matrix(0.8,0,0,0.8,646.4,1158.4)" stroke="rgb(219,235,219)">
      <rect x="-424.6218" y="-940.2464" clip-path="url(#clipPath2)" width="140" rx="16" ry="16" height="32" stroke="none"/>
    </g>
    <g text-rendering="geometricPrecision" stroke-miterlimit="1.45" shape-rendering="geometricPrecision" transform="matrix(0.8,0,0,0.8,646.4,1158.4)" stroke-linecap="butt">
      <rect x="-424.6218" y="-940.2464" clip-path="url(#clipPath2)" fill="none" width="140" rx="16" ry="16" height="32"/>
      <text x="-413.8894" font-size="14px" y="-919.3928" clip-path="url(#clipPath2)" font-family="'Arial'" stroke="none" xml:space="preserve">β-D-fructose-2,6P2</text>
    </g>
    <g fill="white" text-rendering="geometricPrecision" shape-rendering="geometricPrecision" transform="matrix(0.8,0,0,0.8,646.4,1158.4)" stroke="white">
      <rect x="-488.4153" width="18" height="18" y="-947.7365" clip-path="url(#clipPath2)" stroke="none"/>
    </g>
    <g text-rendering="geometricPrecision" stroke-miterlimit="1.45" shape-rendering="geometricPrecision" transform="matrix(0.8,0,0,0.8,646.4,1158.4)" stroke-linecap="butt">
      <rect fill="none" x="-488.4153" width="18" height="18" y="-947.7365" clip-path="url(#clipPath2)"/>
    </g>
    <g fill="white" text-rendering="geometricPrecision" shape-rendering="geometricPrecision" transform="matrix(0.8,0,0,0.8,646.4,1158.4)" stroke="white">
      <rect x="-488.4153" width="18" height="18" y="-922.1711" clip-path="url(#clipPath2)" stroke="none"/>
    </g>
    <g text-rendering="geometricPrecision" stroke-miterlimit="1.45" shape-rendering="geometricPrecision" transform="matrix(0.8,0,0,0.8,646.4,1158.4)" stroke-linecap="butt">
      <rect fill="none" x="-488.4153" width="18" height="18" y="-922.1711" clip-path="url(#clipPath2)"/>
    </g>
    <g fill="rgb(226,172,163)" text-rendering="geometricPrecision" shape-rendering="geometricPrecision" transform="matrix(0.8,0,0,0.8,646.4,1158.4)" stroke="rgb(226,172,163)">
      <path d="M-243.3899 -999.2463 Q-243.3899 -1009.2463 -233.3899 -1009.2463 L-173.3899 -1009.2463 Q-163.3899 -1009.2463 -163.3899 -999.2463 L-163.3899 -979.2463 Q-163.3899 -969.2463 -173.3899 -969.2463 L-233.3899 -969.2463 Q-243.3899 -969.2463 -243.3899 -979.2463 Z" stroke="none" clip-path="url(#clipPath2)"/>
    </g>
    <g text-rendering="geometricPrecision" stroke-miterlimit="1.45" shape-rendering="geometricPrecision" transform="matrix(0.8,0,0,0.8,646.4,1158.4)" stroke-linecap="butt">
      <path fill="none" d="M-243.3899 -999.2463 Q-243.3899 -1009.2463 -233.3899 -1009.2463 L-173.3899 -1009.2463 Q-163.3899 -1009.2463 -163.3899 -999.2463 L-163.3899 -979.2463 Q-163.3899 -969.2463 -173.3899 -969.2463 L-233.3899 -969.2463 Q-243.3899 -969.2463 -243.3899 -979.2463 Z" clip-path="url(#clipPath2)"/>
      <text x="-229.8416" font-size="14px" y="-984.3928" clip-path="url(#clipPath2)" font-family="'Arial'" stroke="none" xml:space="preserve">PFKFB2</text>
    </g>
    <g fill="white" text-rendering="geometricPrecision" shape-rendering="geometricPrecision" transform="matrix(0.8,0,0,0.8,646.4,1158.4) translate(-228.3899,-978.18)" stroke="white">
      <rect x="0" y="0" clip-path="url(#clipPath7)" width="50" rx="9" ry="9" height="18" stroke="none"/>
    </g>
    <g text-rendering="geometricPrecision" stroke-miterlimit="1.45" shape-rendering="geometricPrecision" transform="matrix(0.8,0,0,0.8,646.4,1158.4) translate(-228.3899,-978.18)" stroke-linecap="butt">
      <rect x="0" y="0" clip-path="url(#clipPath7)" fill="none" width="50" rx="9" ry="9" height="18"/>
      <text x="12.0605" xml:space="preserve" y="13.5352" clip-path="url(#clipPath7)" font-family="sans-serif" stroke="none">@S36</text>
    </g>
    <g fill="white" text-rendering="geometricPrecision" shape-rendering="geometricPrecision" transform="matrix(0.8,0,0,0.8,646.4,1158.4)" stroke="white">
      <rect x="-212.3899" width="18" height="18" y="-933.2464" clip-path="url(#clipPath2)" stroke="none"/>
    </g>
    <g text-rendering="geometricPrecision" stroke-miterlimit="1.45" shape-rendering="geometricPrecision" transform="matrix(0.8,0,0,0.8,646.4,1158.4)" stroke-linecap="butt">
      <rect fill="none" x="-212.3899" width="18" height="18" y="-933.2464" clip-path="url(#clipPath2)"/>
    </g>
    <g fill="rgb(226,172,163)" text-rendering="geometricPrecision" shape-rendering="geometricPrecision" transform="matrix(0.8,0,0,0.8,646.4,1158.4)" stroke="rgb(226,172,163)">
      <path d="M-243.3899 -869.2463 Q-243.3899 -879.2463 -233.3899 -879.2463 L-173.3899 -879.2463 Q-163.3899 -879.2463 -163.3899 -869.2463 L-163.3899 -849.2463 Q-163.3899 -839.2463 -173.3899 -839.2463 L-233.3899 -839.2463 Q-243.3899 -839.2463 -243.3899 -849.2463 Z" stroke="none" clip-path="url(#clipPath2)"/>
    </g>
    <g text-rendering="geometricPrecision" stroke-miterlimit="1.45" shape-rendering="geometricPrecision" transform="matrix(0.8,0,0,0.8,646.4,1158.4)" stroke-linecap="butt">
      <path fill="none" d="M-243.3899 -869.2463 Q-243.3899 -879.2463 -233.3899 -879.2463 L-173.3899 -879.2463 Q-163.3899 -879.2463 -163.3899 -869.2463 L-163.3899 -849.2463 Q-163.3899 -839.2463 -173.3899 -839.2463 L-233.3899 -839.2463 Q-243.3899 -839.2463 -243.3899 -849.2463 Z" clip-path="url(#clipPath2)"/>
      <text x="-229.8416" font-size="14px" y="-854.3928" clip-path="url(#clipPath2)" font-family="'Arial'" stroke="none" xml:space="preserve">PFKFB2</text>
    </g>
    <g fill="white" text-rendering="geometricPrecision" shape-rendering="geometricPrecision" transform="matrix(0.8,0,0,0.8,646.4,1158.4) translate(-228.3899,-848.18)" stroke="white">
      <rect x="0" y="0" clip-path="url(#clipPath8)" width="50" rx="9" ry="9" height="18" stroke="none"/>
    </g>
    <g text-rendering="geometricPrecision" stroke-miterlimit="1.45" shape-rendering="geometricPrecision" transform="matrix(0.8,0,0,0.8,646.4,1158.4) translate(-228.3899,-848.18)" stroke-linecap="butt">
      <rect x="0" y="0" clip-path="url(#clipPath8)" fill="none" width="50" rx="9" ry="9" height="18"/>
      <text x="5.4277" xml:space="preserve" y="13.5352" clip-path="url(#clipPath8)" font-family="sans-serif" stroke="none">P@S36</text>
    </g>
    <g fill="rgb(219,235,219)" text-rendering="geometricPrecision" shape-rendering="geometricPrecision" transform="matrix(0.8,0,0,0.8,646.4,1158.4)" stroke="rgb(219,235,219)">
      <rect x="-399.5909" y="-1277.8977" clip-path="url(#clipPath2)" width="60" rx="16" ry="16" height="32" stroke="none"/>
    </g>
    <g text-rendering="geometricPrecision" stroke-miterlimit="1.45" shape-rendering="geometricPrecision" transform="matrix(0.8,0,0,0.8,646.4,1158.4)" stroke-linecap="butt">
      <rect x="-399.5909" y="-1277.8977" clip-path="url(#clipPath2)" fill="none" width="60" rx="16" ry="16" height="32"/>
      <text x="-382.7159" font-size="14px" y="-1256.6067" clip-path="url(#clipPath2)" font-family="sans-serif" stroke="none" xml:space="preserve">ATP</text>
    </g>
    <g fill="white" text-rendering="geometricPrecision" shape-rendering="geometricPrecision" transform="matrix(0.8,0,0,0.8,646.4,1158.4)" stroke="white">
      <rect x="-295.4904" width="18" height="18" y="-1270.8977" clip-path="url(#clipPath2)" stroke="none"/>
    </g>
    <g text-rendering="geometricPrecision" stroke-miterlimit="1.45" shape-rendering="geometricPrecision" transform="matrix(0.8,0,0,0.8,646.4,1158.4)" stroke-linecap="butt">
      <rect fill="none" x="-295.4904" width="18" height="18" y="-1270.8977" clip-path="url(#clipPath2)"/>
    </g>
    <g fill="rgb(200,216,235)" text-rendering="geometricPrecision" shape-rendering="geometricPrecision" transform="matrix(0.8,0,0,0.8,646.4,1158.4)" stroke="rgb(200,216,235)">
      <path d="M-326.4904 -1356.4327 Q-326.4904 -1366.4327 -316.4904 -1366.4327 L-256.4904 -1366.4327 Q-246.4904 -1366.4327 -246.4904 -1356.4327 L-246.4904 -1336.4327 Q-246.4904 -1326.4327 -256.4904 -1326.4327 L-316.4904 -1326.4327 Q-326.4904 -1326.4327 -326.4904 -1336.4327 Z" stroke="none" clip-path="url(#clipPath2)"/>
    </g>
    <g text-rendering="geometricPrecision" stroke-miterlimit="1.45" shape-rendering="geometricPrecision" transform="matrix(0.8,0,0,0.8,646.4,1158.4)" stroke-linecap="butt">
      <path fill="none" d="M-326.4904 -1356.4327 Q-326.4904 -1366.4327 -316.4904 -1366.4327 L-256.4904 -1366.4327 Q-246.4904 -1366.4327 -246.4904 -1356.4327 L-246.4904 -1336.4327 Q-246.4904 -1326.4327 -256.4904 -1326.4327 L-316.4904 -1326.4327 Q-326.4904 -1326.4327 -326.4904 -1336.4327 Z" clip-path="url(#clipPath2)"/>
      <text x="-305.9387" font-size="14px" y="-1341.5792" clip-path="url(#clipPath2)" font-family="'Arial'" stroke="none" xml:space="preserve">ADCY</text>
    </g>
    <g fill="rgb(219,235,219)" text-rendering="geometricPrecision" shape-rendering="geometricPrecision" transform="matrix(0.8,0,0,0.8,646.4,1158.4)" stroke="rgb(219,235,219)">
      <rect x="-293.3899" y="-1215.8977" clip-path="url(#clipPath2)" width="60" rx="16" ry="16" height="32" stroke="none"/>
    </g>
    <g text-rendering="geometricPrecision" stroke-miterlimit="1.45" shape-rendering="geometricPrecision" transform="matrix(0.8,0,0,0.8,646.4,1158.4)" stroke-linecap="butt">
      <rect x="-293.3899" y="-1215.8977" clip-path="url(#clipPath2)" fill="none" width="60" rx="16" ry="16" height="32"/>
      <text x="-273.1517" font-size="14px" y="-1194.6067" clip-path="url(#clipPath2)" font-family="sans-serif" stroke="none" xml:space="preserve">PPi</text>
    </g>
    <g text-rendering="geometricPrecision" stroke-miterlimit="1.45" shape-rendering="geometricPrecision" transform="matrix(0.8,0,0,0.8,646.4,1158.4)" stroke-linecap="butt">
      <path fill="none" d="M-83.9284 -1223.9376 L-83.7299 -1209.0519" clip-path="url(#clipPath2)"/>
      <path d="M-83.5833 -1198.0529 L-77.7438 -1210.1318 L-89.7427 -1209.9718 Z" clip-path="url(#clipPath2)" stroke="none"/>
      <path fill="none" d="M-83.5476 -1052.4139 L-83.9327 -1022.433" clip-path="url(#clipPath2)"/>
      <path fill="none" d="M-84.1843 -1004.3928 L-84.9237 -955.2426" clip-path="url(#clipPath2)"/>
      <path d="M-85.0891 -944.2438 L-78.9093 -956.1522 L-90.9079 -956.3327 Z" clip-path="url(#clipPath2)" stroke="none"/>
    </g>
    <g stroke-linecap="butt" transform="matrix(0.012,-0.7999,0.7999,0.012,562.5146,383.4652)" fill="white" text-rendering="geometricPrecision" shape-rendering="geometricPrecision" stroke="white" stroke-miterlimit="1.45">
      <rect x="0" width="11.5879" height="18.1328" y="0" clip-path="url(#clipPath9)" stroke="none"/>
    </g>
    <g text-rendering="geometricPrecision" stroke-miterlimit="1.6" shape-rendering="geometricPrecision" transform="matrix(0.012,-0.7999,0.7999,0.012,562.5146,383.4652)">
      <rect fill="none" x="0" width="11.5879" height="18.1328" y="0" clip-path="url(#clipPath9)"/>
      <text stroke-linecap="butt" x="2" y="13.6016" clip-path="url(#clipPath9)" font-family="sans-serif" stroke="none" stroke-miterlimit="1.45" xml:space="preserve">2</text>
    </g>
    <g text-rendering="geometricPrecision" stroke-miterlimit="1.45" shape-rendering="geometricPrecision" transform="matrix(0.8,0,0,0.8,646.4,1158.4)" stroke-linecap="butt">
      <path fill="none" d="M-708.0872 -989.2463 L-665.1218 -989.2463" clip-path="url(#clipPath2)"/>
      <path fill="white" d="M-657.1218 -989.2463 C-657.1218 -987.0372 -658.9127 -985.2463 -661.1218 -985.2463 C-663.331 -985.2463 -665.1218 -987.0372 -665.1218 -989.2463 C-665.1218 -991.4555 -663.331 -993.2463 -661.1218 -993.2463 C-658.9127 -993.2463 -657.1218 -991.4555 -657.1218 -989.2463 Z" clip-path="url(#clipPath2)" stroke="none"/>
      <path fill="none" d="M-657.1218 -989.2463 C-657.1218 -987.0372 -658.9127 -985.2463 -661.1218 -985.2463 C-663.331 -985.2463 -665.1218 -987.0372 -665.1218 -989.2463 C-665.1218 -991.4555 -663.331 -993.2463 -661.1218 -993.2463 C-658.9127 -993.2463 -657.1218 -991.4555 -657.1218 -989.2463 Z" clip-path="url(#clipPath2)"/>
      <path fill="none" d="M-643.1218 -980.2644 L-643.1218 -951.2476" clip-path="url(#clipPath2)"/>
      <path d="M-643.1218 -940.2476 L-637.1218 -952.2476 L-649.1218 -952.2476 Z" clip-path="url(#clipPath2)" stroke="none"/>
      <path fill="none" d="M-643.1218 -998.2283 L-643.1218 -1027.2451" clip-path="url(#clipPath2)"/>
      <path d="M-643.1218 -1038.2451 L-649.1218 -1026.2451 L-637.1218 -1026.2451 Z" clip-path="url(#clipPath2)" stroke="none"/>
      <path fill="none" d="M-625.1218 -908.2185 L-625.1218 -868.2852" clip-path="url(#clipPath2)"/>
      <path fill="none" d="M-661.1218 -868.2283 L-661.1218 -897.2451" clip-path="url(#clipPath2)"/>
      <path d="M-661.1218 -908.2451 L-667.1218 -896.2451 L-655.1218 -896.2451 Z" clip-path="url(#clipPath2)" stroke="none"/>
      <path fill="none" d="M-625.1218 -850.2644 L-625.1218 -821.2476" clip-path="url(#clipPath2)"/>
      <path d="M-625.1218 -810.2476 L-619.1218 -822.2476 L-631.1218 -822.2476 Z" clip-path="url(#clipPath2)" stroke="none"/>
      <path fill="none" d="M-661.1218 -810.2742 L-661.1218 -850.2075" clip-path="url(#clipPath2)"/>
      <path fill="none" d="M-708.093 -859.2463 L-683.1218 -859.2463" clip-path="url(#clipPath2)"/>
      <path fill="white" d="M-675.1218 -859.2463 C-675.1218 -857.0372 -676.9127 -855.2463 -679.1218 -855.2463 C-681.331 -855.2463 -683.1218 -857.0372 -683.1218 -859.2463 C-683.1218 -861.4555 -681.331 -863.2463 -679.1218 -863.2463 C-676.9127 -863.2463 -675.1218 -861.4555 -675.1218 -859.2463 Z" clip-path="url(#clipPath2)" stroke="none"/>
      <path fill="none" d="M-675.1218 -859.2463 C-675.1218 -857.0372 -676.9127 -855.2463 -679.1218 -855.2463 C-681.331 -855.2463 -683.1218 -857.0372 -683.1218 -859.2463 C-683.1218 -861.4555 -681.331 -863.2463 -679.1218 -863.2463 C-676.9127 -863.2463 -675.1218 -861.4555 -675.1218 -859.2463 Z" clip-path="url(#clipPath2)"/>
      <path fill="none" d="M-578.1506 -859.2463 L-603.1218 -859.2463" clip-path="url(#clipPath2)"/>
      <path fill="white" d="M-611.1218 -859.2463 C-611.1218 -861.4555 -609.331 -863.2463 -607.1218 -863.2463 C-604.9127 -863.2463 -603.1218 -861.4555 -603.1218 -859.2463 C-603.1218 -857.0372 -604.9127 -855.2463 -607.1218 -855.2463 C-609.331 -855.2463 -611.1218 -857.0372 -611.1218 -859.2463 Z" clip-path="url(#clipPath2)" stroke="none"/>
      <path fill="none" d="M-611.1218 -859.2463 C-611.1218 -861.4555 -609.331 -863.2463 -607.1218 -863.2463 C-604.9127 -863.2463 -603.1218 -861.4555 -603.1218 -859.2463 C-603.1218 -857.0372 -604.9127 -855.2463 -607.1218 -855.2463 C-609.331 -855.2463 -611.1218 -857.0372 -611.1218 -859.2463 Z" clip-path="url(#clipPath2)"/>
      <path fill="none" d="M-582.3342 -938.7365 L-488.4358 -938.7365" clip-path="url(#clipPath2)"/>
      <path fill="none" d="M-470.3937 -938.7365 L-430.6219 -938.7365" clip-path="url(#clipPath2)"/>
      <path d="M-419.6219 -938.7365 L-431.6219 -944.7365 L-431.6219 -932.7365 Z" clip-path="url(#clipPath2)" stroke="none"/>
      <path fill="none" d="M-420.14 -913.1711 L-470.414 -913.1711" clip-path="url(#clipPath2)"/>
      <path fill="none" d="M-488.428 -913.1711 L-566.5525 -913.1711" clip-path="url(#clipPath2)"/>
      <path d="M-577.5525 -913.1711 L-565.5525 -907.1711 L-565.5525 -919.1711 Z" clip-path="url(#clipPath2)" stroke="none"/>
      <path fill="none" d="M-243.3853 -989.2463 L-469.4153 -989.2463 L-473.7903 -988.6213 L-476.9153 -986.7463 L-478.7903 -983.6213 L-479.4153 -979.2463 L-479.4153 -960.7365" clip-path="url(#clipPath2)"/>
      <path fill="white" d="M-479.4153 -952.7365 C-481.6244 -952.7365 -483.4153 -954.5273 -483.4153 -956.7365 C-483.4153 -958.9457 -481.6244 -960.7365 -479.4153 -960.7365 C-477.2061 -960.7365 -475.4153 -958.9457 -475.4153 -956.7365 C-475.4153 -954.5273 -477.2061 -952.7365 -479.4153 -952.7365 Z" clip-path="url(#clipPath2)" stroke="none"/>
      <path fill="none" d="M-479.4153 -952.7365 C-481.6244 -952.7365 -483.4153 -954.5273 -483.4153 -956.7365 C-483.4153 -958.9457 -481.6244 -960.7365 -479.4153 -960.7365 C-477.2061 -960.7365 -475.4153 -958.9457 -475.4153 -956.7365 C-475.4153 -954.5273 -477.2061 -952.7365 -479.4153 -952.7365 Z" clip-path="url(#clipPath2)"/>
      <path fill="none" d="M-203.3899 -958.8019 L-203.3899 -933.2565" clip-path="url(#clipPath2)"/>
      <path fill="none" d="M-125.4037 -924.2463 L-182.5192 -924.2463" clip-path="url(#clipPath2)"/>
      <path fill="white" d="M-190.5192 -924.2463 C-190.5192 -926.4555 -188.7284 -928.2463 -186.5192 -928.2463 C-184.3101 -928.2463 -182.5192 -926.4555 -182.5192 -924.2463 C-182.5192 -922.0372 -184.3101 -920.2463 -186.5192 -920.2463 C-188.7284 -920.2463 -190.5192 -922.0372 -190.5192 -924.2463 Z" clip-path="url(#clipPath2)" stroke="none"/>
      <path fill="none" d="M-190.5192 -924.2463 C-190.5192 -926.4555 -188.7284 -928.2463 -186.5192 -928.2463 C-184.3101 -928.2463 -182.5192 -926.4555 -182.5192 -924.2463 C-182.5192 -922.0372 -184.3101 -920.2463 -186.5192 -920.2463 C-188.7284 -920.2463 -190.5192 -922.0372 -190.5192 -924.2463 Z" clip-path="url(#clipPath2)"/>
      <path fill="none" d="M-203.3899 -915.2644 L-203.3899 -890.2411" clip-path="url(#clipPath2)"/>
      <path d="M-203.3899 -879.2411 L-197.3899 -891.2411 L-209.3899 -891.2411 Z" clip-path="url(#clipPath2)" stroke="none"/>
      <path fill="none" d="M-243.3853 -859.2463 L-469.4153 -859.2463 L-473.7903 -859.8713 L-476.9153 -861.7463 L-478.7903 -864.8713 L-479.4153 -869.2463 L-479.4153 -891.1711" clip-path="url(#clipPath2)"/>
      <path fill="white" d="M-479.4153 -899.1711 C-477.2061 -899.1711 -475.4153 -897.3803 -475.4153 -895.1711 C-475.4153 -892.962 -477.2061 -891.1711 -479.4153 -891.1711 C-481.6244 -891.1711 -483.4153 -892.962 -483.4153 -895.1711 C-483.4153 -897.3803 -481.6244 -899.1711 -479.4153 -899.1711 Z" clip-path="url(#clipPath2)" stroke="none"/>
      <path fill="none" d="M-479.4153 -899.1711 C-477.2061 -899.1711 -475.4153 -897.3803 -475.4153 -895.1711 C-475.4153 -892.962 -477.2061 -891.1711 -479.4153 -891.1711 C-481.6244 -891.1711 -483.4153 -892.962 -483.4153 -895.1711 C-483.4153 -897.3803 -481.6244 -899.1711 -479.4153 -899.1711 Z" clip-path="url(#clipPath2)"/>
      <path fill="none" d="M-339.6049 -1261.8977 L-295.4898 -1261.8977" clip-path="url(#clipPath2)"/>
      <path fill="none" d="M-277.523 -1261.8977 L-244.3979 -1261.8977" clip-path="url(#clipPath2)"/>
      <path d="M-233.3979 -1261.8977 L-245.3979 -1267.8977 L-245.3979 -1255.8977 Z" clip-path="url(#clipPath2)" stroke="none"/>
      <path fill="none" d="M-286.4904 -1326.4225 L-286.4904 -1283.8977" clip-path="url(#clipPath2)"/>
      <path fill="white" d="M-286.4904 -1275.8977 C-288.6996 -1275.8977 -290.4904 -1277.6886 -290.4904 -1279.8977 C-290.4904 -1282.1068 -288.6996 -1283.8977 -286.4904 -1283.8977 C-284.2813 -1283.8977 -282.4904 -1282.1068 -282.4904 -1279.8977 C-282.4904 -1277.6886 -284.2813 -1275.8977 -286.4904 -1275.8977 Z" clip-path="url(#clipPath2)" stroke="none"/>
      <path fill="none" d="M-286.4904 -1275.8977 C-288.6996 -1275.8977 -290.4904 -1277.6886 -290.4904 -1279.8977 C-290.4904 -1282.1068 -288.6996 -1283.8977 -286.4904 -1283.8977 C-284.2813 -1283.8977 -282.4904 -1282.1068 -282.4904 -1279.8977 C-282.4904 -1277.6886 -284.2813 -1275.8977 -286.4904 -1275.8977 Z" clip-path="url(#clipPath2)"/>
      <path fill="none" d="M-277.5119 -1261.8977 L-270.4509 -1261.8977 L-267.3618 -1261.2727 L-265.1552 -1259.3977 L-263.8313 -1256.2727 L-263.39 -1251.8977 L-263.39 -1226.9124" clip-path="url(#clipPath2)"/>
      <path d="M-263.39 -1215.9124 L-257.39 -1227.9124 L-269.39 -1227.9124 Z" clip-path="url(#clipPath2)" stroke="none"/>
    </g>
  </g>
</svg>
