<?xml version="1.0" encoding="UTF-8"?><svg xmlns="http://www.w3.org/2000/svg" xmlns:xlink="http://www.w3.org/1999/xlink" fill-opacity="1" color-rendering="auto" color-interpolation="auto" text-rendering="auto" stroke="black" stroke-linecap="square" width="625" stroke-miterlimit="10" shape-rendering="auto" stroke-opacity="1" fill="black" stroke-dasharray="none" font-weight="normal" stroke-width="1" height="378" font-family="'Dialog'" font-style="normal" stroke-linejoin="miter" font-size="12px" stroke-dashoffset="0" image-rendering="auto">
  <!--Generated by ySVG 2.5-->
  <defs id="genericDefs"/>
  <g>
    <defs id="defs1">
      <clipPath clipPathUnits="userSpaceOnUse" id="clipPath1">
        <path d="M0 0 L625 0 L625 378 L0 378 L0 0 Z"/>
      </clipPath>
      <clipPath clipPathUnits="userSpaceOnUse" id="clipPath2">
        <path d="M-808 -1232 L-26.75 -1232 L-26.75 -759.5 L-808 -759.5 L-808 -1232 Z"/>
      </clipPath>
      <clipPath clipPathUnits="userSpaceOnUse" id="clipPath3">
        <path d="M-697.61 -318.1096 L83.6399 -318.1096 L83.6399 154.3905 L-697.61 154.3905 L-697.61 -318.1096 Z"/>
      </clipPath>
      <clipPath clipPathUnits="userSpaceOnUse" id="clipPath4">
        <path d="M-579.61 -253.8201 L201.6399 -253.8201 L201.6399 218.6799 L-579.61 218.6799 L-579.61 -253.8201 Z"/>
      </clipPath>
      <clipPath clipPathUnits="userSpaceOnUse" id="clipPath5">
        <path d="M-579.61 -383.82 L201.6399 -383.82 L201.6399 88.68 L-579.61 88.68 L-579.61 -383.82 Z"/>
      </clipPath>
      <clipPath clipPathUnits="userSpaceOnUse" id="clipPath6">
        <path d="M-697.61 -71.1529 L83.6399 -71.1529 L83.6399 401.3471 L-697.61 401.3471 L-697.61 -71.1529 Z"/>
      </clipPath>
    </defs>
    <g fill="white" text-rendering="geometricPrecision" shape-rendering="geometricPrecision" transform="scale(0.8,0.8) translate(808,1232)" stroke="white">
      <rect x="-809" width="783" height="473" y="-1232" clip-path="url(#clipPath2)" stroke="none"/>
    </g>
    <g fill="rgb(219,235,219)" text-rendering="geometricPrecision" shape-rendering="geometricPrecision" transform="matrix(0.8,0,0,0.8,646.4,985.6)" stroke="rgb(219,235,219)">
      <rect x="-233.3899" y="-1124.2464" clip-path="url(#clipPath2)" width="60" rx="16" ry="16" height="32" stroke="none"/>
    </g>
    <g text-rendering="geometricPrecision" stroke-miterlimit="1.45" shape-rendering="geometricPrecision" transform="matrix(0.8,0,0,0.8,646.4,985.6)" stroke-linecap="butt">
      <rect x="-233.3899" y="-1124.2464" clip-path="url(#clipPath2)" fill="none" width="60" rx="16" ry="16" height="32"/>
      <text x="-221.7034" font-size="14px" y="-1102.9553" clip-path="url(#clipPath2)" font-family="sans-serif" stroke="none" xml:space="preserve">cAMP</text>
    </g>
    <g fill="rgb(200,216,235)" text-rendering="geometricPrecision" shape-rendering="geometricPrecision" transform="matrix(0.8,0,0,0.8,646.4,985.6)" stroke="rgb(200,216,235)">
      <path d="M-125.3899 -934.2463 Q-125.3899 -944.2463 -115.3899 -944.2463 L-55.3899 -944.2463 Q-45.3899 -944.2463 -45.3899 -934.2463 L-45.3899 -914.2463 Q-45.3899 -904.2463 -55.3899 -904.2463 L-115.3899 -904.2463 Q-125.3899 -904.2463 -125.3899 -914.2463 Z" stroke="none" clip-path="url(#clipPath2)"/>
    </g>
    <g text-rendering="geometricPrecision" stroke-miterlimit="1.45" shape-rendering="geometricPrecision" transform="matrix(0.8,0,0,0.8,646.4,985.6)" stroke-linecap="butt">
      <path fill="none" d="M-125.3899 -934.2463 Q-125.3899 -944.2463 -115.3899 -944.2463 L-55.3899 -944.2463 Q-45.3899 -944.2463 -45.3899 -934.2463 L-45.3899 -914.2463 Q-45.3899 -904.2463 -55.3899 -904.2463 L-115.3899 -904.2463 Q-125.3899 -904.2463 -125.3899 -914.2463 Z" clip-path="url(#clipPath2)"/>
      <text x="-99.3968" font-size="14px" y="-919.3928" clip-path="url(#clipPath2)" font-family="'Arial'" stroke="none" xml:space="preserve">PKA</text>
    </g>
    <g fill="white" text-rendering="geometricPrecision" shape-rendering="geometricPrecision" transform="matrix(0.8,0,0,0.8,646.4,985.6) translate(-110.3899,-913.8905)" stroke="white">
      <rect x="0" y="0" clip-path="url(#clipPath3)" width="50" rx="9" ry="9" height="18" stroke="none"/>
    </g>
    <g text-rendering="geometricPrecision" stroke-miterlimit="1.45" shape-rendering="geometricPrecision" transform="matrix(0.8,0,0,0.8,646.4,985.6) translate(-110.3899,-913.8905)" stroke-linecap="butt">
      <rect x="0" y="0" clip-path="url(#clipPath3)" fill="none" width="50" rx="9" ry="9" height="18"/>
      <text x="8.1865" xml:space="preserve" y="13.5352" clip-path="url(#clipPath3)" font-family="sans-serif" stroke="none">active</text>
    </g>
    <g fill="rgb(219,235,219)" text-rendering="geometricPrecision" shape-rendering="geometricPrecision" transform="matrix(0.8,0,0,0.8,646.4,985.6)" stroke="rgb(219,235,219)">
      <rect x="-713.1218" y="-1070.2464" clip-path="url(#clipPath2)" width="140" rx="16" ry="16" height="32" stroke="none"/>
    </g>
    <g text-rendering="geometricPrecision" stroke-miterlimit="1.45" shape-rendering="geometricPrecision" transform="matrix(0.8,0,0,0.8,646.4,985.6)" stroke-linecap="butt">
      <rect x="-713.1218" y="-1070.2464" clip-path="url(#clipPath2)" fill="none" width="140" rx="16" ry="16" height="32"/>
      <text x="-691.9065" font-size="14px" y="-1049.3928" clip-path="url(#clipPath2)" font-family="'Arial'" stroke="none" xml:space="preserve">α-D-glucose-6P</text>
    </g>
    <g fill="rgb(219,235,219)" text-rendering="geometricPrecision" shape-rendering="geometricPrecision" transform="matrix(0.8,0,0,0.8,646.4,985.6)" stroke="rgb(219,235,219)">
      <rect x="-713.1218" y="-940.2464" clip-path="url(#clipPath2)" width="140" rx="16" ry="16" height="32" stroke="none"/>
    </g>
    <g text-rendering="geometricPrecision" stroke-miterlimit="1.45" shape-rendering="geometricPrecision" transform="matrix(0.8,0,0,0.8,646.4,985.6)" stroke-linecap="butt">
      <rect x="-713.1218" y="-940.2464" clip-path="url(#clipPath2)" fill="none" width="140" rx="16" ry="16" height="32"/>
      <text x="-692.6584" font-size="14px" y="-919.3928" clip-path="url(#clipPath2)" font-family="'Arial'" stroke="none" xml:space="preserve">β-D-fructose-6P</text>
    </g>
    <g fill="rgb(200,216,235)" text-rendering="geometricPrecision" shape-rendering="geometricPrecision" transform="matrix(0.8,0,0,0.8,646.4,985.6)" stroke="rgb(200,216,235)">
      <path d="M-788.1218 -999.2463 Q-788.1218 -1009.2463 -778.1218 -1009.2463 L-718.1218 -1009.2463 Q-708.1218 -1009.2463 -708.1218 -999.2463 L-708.1218 -979.2463 Q-708.1218 -969.2463 -718.1218 -969.2463 L-778.1218 -969.2463 Q-788.1218 -969.2463 -788.1218 -979.2463 Z" stroke="none" clip-path="url(#clipPath2)"/>
    </g>
    <g text-rendering="geometricPrecision" stroke-miterlimit="1.45" shape-rendering="geometricPrecision" transform="matrix(0.8,0,0,0.8,646.4,985.6)" stroke-linecap="butt">
      <path fill="none" d="M-788.1218 -999.2463 Q-788.1218 -1009.2463 -778.1218 -1009.2463 L-718.1218 -1009.2463 Q-708.1218 -1009.2463 -708.1218 -999.2463 L-708.1218 -979.2463 Q-708.1218 -969.2463 -718.1218 -969.2463 L-778.1218 -969.2463 Q-788.1218 -969.2463 -788.1218 -979.2463 Z" clip-path="url(#clipPath2)"/>
      <text x="-760.1804" font-size="14px" y="-984.3928" clip-path="url(#clipPath2)" font-family="'Arial'" stroke="none" xml:space="preserve">GPI</text>
    </g>
    <g fill="white" text-rendering="geometricPrecision" shape-rendering="geometricPrecision" transform="matrix(0.8,0,0,0.8,646.4,985.6)" stroke="white">
      <rect x="-652.1218" width="18" height="18" y="-998.2464" clip-path="url(#clipPath2)" stroke="none"/>
    </g>
    <g text-rendering="geometricPrecision" stroke-miterlimit="1.45" shape-rendering="geometricPrecision" transform="matrix(0.8,0,0,0.8,646.4,985.6)" stroke-linecap="butt">
      <rect fill="none" x="-652.1218" width="18" height="18" y="-998.2464" clip-path="url(#clipPath2)"/>
    </g>
    <g fill="white" text-rendering="geometricPrecision" shape-rendering="geometricPrecision" transform="matrix(0.8,0,0,0.8,646.4,985.6)" stroke="white">
      <rect x="-634.1218" width="18" height="18" y="-868.2464" clip-path="url(#clipPath2)" stroke="none"/>
    </g>
    <g text-rendering="geometricPrecision" stroke-miterlimit="1.45" shape-rendering="geometricPrecision" transform="matrix(0.8,0,0,0.8,646.4,985.6)" stroke-linecap="butt">
      <rect fill="none" x="-634.1218" width="18" height="18" y="-868.2464" clip-path="url(#clipPath2)"/>
    </g>
    <g fill="white" text-rendering="geometricPrecision" shape-rendering="geometricPrecision" transform="matrix(0.8,0,0,0.8,646.4,985.6)" stroke="white">
      <rect x="-670.1218" width="18" height="18" y="-868.2464" clip-path="url(#clipPath2)" stroke="none"/>
    </g>
    <g text-rendering="geometricPrecision" stroke-miterlimit="1.45" shape-rendering="geometricPrecision" transform="matrix(0.8,0,0,0.8,646.4,985.6)" stroke-linecap="butt">
      <rect fill="none" x="-670.1218" width="18" height="18" y="-868.2464" clip-path="url(#clipPath2)"/>
    </g>
    <g fill="rgb(219,235,219)" text-rendering="geometricPrecision" shape-rendering="geometricPrecision" transform="matrix(0.8,0,0,0.8,646.4,985.6)" stroke="rgb(219,235,219)">
      <rect x="-713.1218" y="-810.2464" clip-path="url(#clipPath2)" width="140" rx="16" ry="16" height="32" stroke="none"/>
    </g>
    <g text-rendering="geometricPrecision" stroke-miterlimit="1.45" shape-rendering="geometricPrecision" transform="matrix(0.8,0,0,0.8,646.4,985.6)" stroke-linecap="butt">
      <rect x="-713.1218" y="-810.2464" clip-path="url(#clipPath2)" fill="none" width="140" rx="16" ry="16" height="32"/>
      <text x="-702.3894" font-size="14px" y="-789.3928" clip-path="url(#clipPath2)" font-family="'Arial'" stroke="none" xml:space="preserve">β-D-fructose-1,6P2</text>
    </g>
    <g fill="rgb(200,216,235)" text-rendering="geometricPrecision" shape-rendering="geometricPrecision" transform="matrix(0.8,0,0,0.8,646.4,985.6)" stroke="rgb(200,216,235)">
      <path d="M-788.1218 -869.2463 Q-788.1218 -879.2463 -778.1218 -879.2463 L-718.1218 -879.2463 Q-708.1218 -879.2463 -708.1218 -869.2463 L-708.1218 -849.2463 Q-708.1218 -839.2463 -718.1218 -839.2463 L-778.1218 -839.2463 Q-788.1218 -839.2463 -788.1218 -849.2463 Z" stroke="none" clip-path="url(#clipPath2)"/>
    </g>
    <g text-rendering="geometricPrecision" stroke-miterlimit="1.45" shape-rendering="geometricPrecision" transform="matrix(0.8,0,0,0.8,646.4,985.6)" stroke-linecap="butt">
      <path fill="none" d="M-788.1218 -869.2463 Q-788.1218 -879.2463 -778.1218 -879.2463 L-718.1218 -879.2463 Q-708.1218 -879.2463 -708.1218 -869.2463 L-708.1218 -849.2463 Q-708.1218 -839.2463 -718.1218 -839.2463 L-778.1218 -839.2463 Q-788.1218 -839.2463 -788.1218 -849.2463 Z" clip-path="url(#clipPath2)"/>
      <text x="-771.4666" font-size="14px" y="-854.3928" clip-path="url(#clipPath2)" font-family="'Arial'" stroke="none" xml:space="preserve">F1,6BP</text>
    </g>
    <g fill="rgb(200,216,235)" text-rendering="geometricPrecision" shape-rendering="geometricPrecision" transform="matrix(0.8,0,0,0.8,646.4,985.6)" stroke="rgb(200,216,235)">
      <path d="M-578.1218 -869.2463 Q-578.1218 -879.2463 -568.1218 -879.2463 L-508.1218 -879.2463 Q-498.1218 -879.2463 -498.1218 -869.2463 L-498.1218 -849.2463 Q-498.1218 -839.2463 -508.1218 -839.2463 L-568.1218 -839.2463 Q-578.1218 -839.2463 -578.1218 -849.2463 Z" stroke="none" clip-path="url(#clipPath2)"/>
    </g>
    <g text-rendering="geometricPrecision" stroke-miterlimit="1.45" shape-rendering="geometricPrecision" transform="matrix(0.8,0,0,0.8,646.4,985.6)" stroke-linecap="butt">
      <path fill="none" d="M-578.1218 -869.2463 Q-578.1218 -879.2463 -568.1218 -879.2463 L-508.1218 -879.2463 Q-498.1218 -879.2463 -498.1218 -869.2463 L-498.1218 -849.2463 Q-498.1218 -839.2463 -508.1218 -839.2463 L-568.1218 -839.2463 Q-578.1218 -839.2463 -578.1218 -849.2463 Z" clip-path="url(#clipPath2)"/>
      <text x="-555.6287" font-size="14px" y="-854.3928" clip-path="url(#clipPath2)" font-family="'Arial'" stroke="none" xml:space="preserve">PFK1</text>
    </g>
    <g fill="rgb(219,235,219)" text-rendering="geometricPrecision" shape-rendering="geometricPrecision" transform="matrix(0.8,0,0,0.8,646.4,985.6)" stroke="rgb(219,235,219)">
      <rect x="-424.6218" y="-940.2464" clip-path="url(#clipPath2)" width="140" rx="16" ry="16" height="32" stroke="none"/>
    </g>
    <g text-rendering="geometricPrecision" stroke-miterlimit="1.45" shape-rendering="geometricPrecision" transform="matrix(0.8,0,0,0.8,646.4,985.6)" stroke-linecap="butt">
      <rect x="-424.6218" y="-940.2464" clip-path="url(#clipPath2)" fill="none" width="140" rx="16" ry="16" height="32"/>
      <text x="-413.8894" font-size="14px" y="-919.3928" clip-path="url(#clipPath2)" font-family="'Arial'" stroke="none" xml:space="preserve">β-D-fructose-2,6P2</text>
    </g>
    <g fill="white" text-rendering="geometricPrecision" shape-rendering="geometricPrecision" transform="matrix(0.8,0,0,0.8,646.4,985.6)" stroke="white">
      <rect x="-488.4153" width="18" height="18" y="-947.7365" clip-path="url(#clipPath2)" stroke="none"/>
    </g>
    <g text-rendering="geometricPrecision" stroke-miterlimit="1.45" shape-rendering="geometricPrecision" transform="matrix(0.8,0,0,0.8,646.4,985.6)" stroke-linecap="butt">
      <rect fill="none" x="-488.4153" width="18" height="18" y="-947.7365" clip-path="url(#clipPath2)"/>
    </g>
    <g fill="white" text-rendering="geometricPrecision" shape-rendering="geometricPrecision" transform="matrix(0.8,0,0,0.8,646.4,985.6)" stroke="white">
      <rect x="-488.4153" width="18" height="18" y="-922.1711" clip-path="url(#clipPath2)" stroke="none"/>
    </g>
    <g text-rendering="geometricPrecision" stroke-miterlimit="1.45" shape-rendering="geometricPrecision" transform="matrix(0.8,0,0,0.8,646.4,985.6)" stroke-linecap="butt">
      <rect fill="none" x="-488.4153" width="18" height="18" y="-922.1711" clip-path="url(#clipPath2)"/>
    </g>
    <g fill="rgb(226,172,163)" text-rendering="geometricPrecision" shape-rendering="geometricPrecision" transform="matrix(0.8,0,0,0.8,646.4,985.6)" stroke="rgb(226,172,163)">
      <path d="M-243.3899 -999.2463 Q-243.3899 -1009.2463 -233.3899 -1009.2463 L-173.3899 -1009.2463 Q-163.3899 -1009.2463 -163.3899 -999.2463 L-163.3899 -979.2463 Q-163.3899 -969.2463 -173.3899 -969.2463 L-233.3899 -969.2463 Q-243.3899 -969.2463 -243.3899 -979.2463 Z" stroke="none" clip-path="url(#clipPath2)"/>
    </g>
    <g text-rendering="geometricPrecision" stroke-miterlimit="1.45" shape-rendering="geometricPrecision" transform="matrix(0.8,0,0,0.8,646.4,985.6)" stroke-linecap="butt">
      <path fill="none" d="M-243.3899 -999.2463 Q-243.3899 -1009.2463 -233.3899 -1009.2463 L-173.3899 -1009.2463 Q-163.3899 -1009.2463 -163.3899 -999.2463 L-163.3899 -979.2463 Q-163.3899 -969.2463 -173.3899 -969.2463 L-233.3899 -969.2463 Q-243.3899 -969.2463 -243.3899 -979.2463 Z" clip-path="url(#clipPath2)"/>
      <text x="-229.8416" font-size="14px" y="-984.3928" clip-path="url(#clipPath2)" font-family="'Arial'" stroke="none" xml:space="preserve">PFKFB2</text>
    </g>
    <g fill="white" text-rendering="geometricPrecision" shape-rendering="geometricPrecision" transform="matrix(0.8,0,0,0.8,646.4,985.6) translate(-228.3899,-978.18)" stroke="white">
      <rect x="0" y="0" clip-path="url(#clipPath4)" width="50" rx="9" ry="9" height="18" stroke="none"/>
    </g>
    <g text-rendering="geometricPrecision" stroke-miterlimit="1.45" shape-rendering="geometricPrecision" transform="matrix(0.8,0,0,0.8,646.4,985.6) translate(-228.3899,-978.18)" stroke-linecap="butt">
      <rect x="0" y="0" clip-path="url(#clipPath4)" fill="none" width="50" rx="9" ry="9" height="18"/>
      <text x="12.0605" xml:space="preserve" y="13.5352" clip-path="url(#clipPath4)" font-family="sans-serif" stroke="none">@S36</text>
    </g>
    <g fill="white" text-rendering="geometricPrecision" shape-rendering="geometricPrecision" transform="matrix(0.8,0,0,0.8,646.4,985.6)" stroke="white">
      <rect x="-212.3899" width="18" height="18" y="-933.2464" clip-path="url(#clipPath2)" stroke="none"/>
    </g>
    <g text-rendering="geometricPrecision" stroke-miterlimit="1.45" shape-rendering="geometricPrecision" transform="matrix(0.8,0,0,0.8,646.4,985.6)" stroke-linecap="butt">
      <rect fill="none" x="-212.3899" width="18" height="18" y="-933.2464" clip-path="url(#clipPath2)"/>
    </g>
    <g fill="rgb(226,172,163)" text-rendering="geometricPrecision" shape-rendering="geometricPrecision" transform="matrix(0.8,0,0,0.8,646.4,985.6)" stroke="rgb(226,172,163)">
      <path d="M-243.3899 -869.2463 Q-243.3899 -879.2463 -233.3899 -879.2463 L-173.3899 -879.2463 Q-163.3899 -879.2463 -163.3899 -869.2463 L-163.3899 -849.2463 Q-163.3899 -839.2463 -173.3899 -839.2463 L-233.3899 -839.2463 Q-243.3899 -839.2463 -243.3899 -849.2463 Z" stroke="none" clip-path="url(#clipPath2)"/>
    </g>
    <g text-rendering="geometricPrecision" stroke-miterlimit="1.45" shape-rendering="geometricPrecision" transform="matrix(0.8,0,0,0.8,646.4,985.6)" stroke-linecap="butt">
      <path fill="none" d="M-243.3899 -869.2463 Q-243.3899 -879.2463 -233.3899 -879.2463 L-173.3899 -879.2463 Q-163.3899 -879.2463 -163.3899 -869.2463 L-163.3899 -849.2463 Q-163.3899 -839.2463 -173.3899 -839.2463 L-233.3899 -839.2463 Q-243.3899 -839.2463 -243.3899 -849.2463 Z" clip-path="url(#clipPath2)"/>
      <text x="-229.8416" font-size="14px" y="-854.3928" clip-path="url(#clipPath2)" font-family="'Arial'" stroke="none" xml:space="preserve">PFKFB2</text>
    </g>
    <g fill="white" text-rendering="geometricPrecision" shape-rendering="geometricPrecision" transform="matrix(0.8,0,0,0.8,646.4,985.6) translate(-228.3899,-848.18)" stroke="white">
      <rect x="0" y="0" clip-path="url(#clipPath5)" width="50" rx="9" ry="9" height="18" stroke="none"/>
    </g>
    <g text-rendering="geometricPrecision" stroke-miterlimit="1.45" shape-rendering="geometricPrecision" transform="matrix(0.8,0,0,0.8,646.4,985.6) translate(-228.3899,-848.18)" stroke-linecap="butt">
      <rect x="0" y="0" clip-path="url(#clipPath5)" fill="none" width="50" rx="9" ry="9" height="18"/>
      <text x="5.4277" xml:space="preserve" y="13.5352" clip-path="url(#clipPath5)" font-family="sans-serif" stroke="none">P@S36</text>
    </g>
    <g fill="rgb(219,235,219)" text-rendering="geometricPrecision" shape-rendering="geometricPrecision" transform="matrix(0.8,0,0,0.8,646.4,985.6)" stroke="rgb(219,235,219)">
      <rect x="-399.5909" y="-1124.2464" clip-path="url(#clipPath2)" width="60" rx="16" ry="16" height="32" stroke="none"/>
    </g>
    <g text-rendering="geometricPrecision" stroke-miterlimit="1.45" shape-rendering="geometricPrecision" transform="matrix(0.8,0,0,0.8,646.4,985.6)" stroke-linecap="butt">
      <rect x="-399.5909" y="-1124.2464" clip-path="url(#clipPath2)" fill="none" width="60" rx="16" ry="16" height="32"/>
      <text x="-382.7159" font-size="14px" y="-1102.9553" clip-path="url(#clipPath2)" font-family="sans-serif" stroke="none" xml:space="preserve">ATP</text>
    </g>
    <g fill="white" text-rendering="geometricPrecision" shape-rendering="geometricPrecision" transform="matrix(0.8,0,0,0.8,646.4,985.6)" stroke="white">
      <rect x="-295.4904" width="18" height="18" y="-1117.2464" clip-path="url(#clipPath2)" stroke="none"/>
    </g>
    <g text-rendering="geometricPrecision" stroke-miterlimit="1.45" shape-rendering="geometricPrecision" transform="matrix(0.8,0,0,0.8,646.4,985.6)" stroke-linecap="butt">
      <rect fill="none" x="-295.4904" width="18" height="18" y="-1117.2464" clip-path="url(#clipPath2)"/>
    </g>
    <g fill="rgb(200,216,235)" text-rendering="geometricPrecision" shape-rendering="geometricPrecision" transform="matrix(0.8,0,0,0.8,646.4,985.6)" stroke="rgb(200,216,235)">
      <path d="M-326.4904 -1202.7814 Q-326.4904 -1212.7814 -316.4904 -1212.7814 L-256.4904 -1212.7814 Q-246.4904 -1212.7814 -246.4904 -1202.7814 L-246.4904 -1182.7814 Q-246.4904 -1172.7814 -256.4904 -1172.7814 L-316.4904 -1172.7814 Q-326.4904 -1172.7814 -326.4904 -1182.7814 Z" stroke="none" clip-path="url(#clipPath2)"/>
    </g>
    <g text-rendering="geometricPrecision" stroke-miterlimit="1.45" shape-rendering="geometricPrecision" transform="matrix(0.8,0,0,0.8,646.4,985.6)" stroke-linecap="butt">
      <path fill="none" d="M-326.4904 -1202.7814 Q-326.4904 -1212.7814 -316.4904 -1212.7814 L-256.4904 -1212.7814 Q-246.4904 -1212.7814 -246.4904 -1202.7814 L-246.4904 -1182.7814 Q-246.4904 -1172.7814 -256.4904 -1172.7814 L-316.4904 -1172.7814 Q-326.4904 -1172.7814 -326.4904 -1182.7814 Z" clip-path="url(#clipPath2)"/>
      <text x="-305.9387" font-size="14px" y="-1187.9279" clip-path="url(#clipPath2)" font-family="'Arial'" stroke="none" xml:space="preserve">ADCY</text>
    </g>
    <g fill="rgb(200,216,235)" text-rendering="geometricPrecision" shape-rendering="geometricPrecision" transform="matrix(0.8,0,0,0.8,646.4,985.6)" stroke="rgb(200,216,235)">
      <path d="M-125.3899 -1181.203 Q-125.3899 -1191.203 -115.3899 -1191.203 L-55.3899 -1191.203 Q-45.3899 -1191.203 -45.3899 -1181.203 L-45.3899 -1161.203 Q-45.3899 -1151.203 -55.3899 -1151.203 L-115.3899 -1151.203 Q-125.3899 -1151.203 -125.3899 -1161.203 Z" stroke="none" clip-path="url(#clipPath2)"/>
    </g>
    <g text-rendering="geometricPrecision" stroke-miterlimit="1.45" shape-rendering="geometricPrecision" transform="matrix(0.8,0,0,0.8,646.4,985.6)" stroke-linecap="butt">
      <path fill="none" d="M-125.3899 -1181.203 Q-125.3899 -1191.203 -115.3899 -1191.203 L-55.3899 -1191.203 Q-45.3899 -1191.203 -45.3899 -1181.203 L-45.3899 -1161.203 Q-45.3899 -1151.203 -55.3899 -1151.203 L-115.3899 -1151.203 Q-125.3899 -1151.203 -125.3899 -1161.203 Z" clip-path="url(#clipPath2)"/>
      <text x="-99.3968" font-size="14px" y="-1166.3495" clip-path="url(#clipPath2)" font-family="'Arial'" stroke="none" xml:space="preserve">PKA</text>
    </g>
    <g fill="white" text-rendering="geometricPrecision" shape-rendering="geometricPrecision" transform="matrix(0.8,0,0,0.8,646.4,985.6) translate(-110.3899,-1160.8471)" stroke="white">
      <rect x="0" y="0" clip-path="url(#clipPath6)" width="50" rx="9" ry="9" height="18" stroke="none"/>
    </g>
    <g text-rendering="geometricPrecision" stroke-miterlimit="1.45" shape-rendering="geometricPrecision" transform="matrix(0.8,0,0,0.8,646.4,985.6) translate(-110.3899,-1160.8471)" stroke-linecap="butt">
      <rect x="0" y="0" clip-path="url(#clipPath6)" fill="none" width="50" rx="9" ry="9" height="18"/>
      <text x="2.7285" xml:space="preserve" y="13.5352" clip-path="url(#clipPath6)" font-family="sans-serif" stroke="none">inactive</text>
    </g>
    <g fill="white" text-rendering="geometricPrecision" shape-rendering="geometricPrecision" transform="matrix(0.8,0,0,0.8,646.4,985.6)" stroke="white">
      <rect x="-94.3899" width="18" height="18" y="-1117.2464" clip-path="url(#clipPath2)" stroke="none"/>
    </g>
    <g text-rendering="geometricPrecision" stroke-miterlimit="1.45" shape-rendering="geometricPrecision" transform="matrix(0.8,0,0,0.8,646.4,985.6)" stroke-linecap="butt">
      <rect fill="none" x="-94.3899" width="18" height="18" y="-1117.2464" clip-path="url(#clipPath2)"/>
    </g>
    <g text-rendering="geometricPrecision" stroke-miterlimit="1.45" shape-rendering="geometricPrecision" transform="matrix(0.8,0,0,0.8,646.4,985.6)" stroke-linecap="butt">
      <path fill="none" d="M-708.0872 -989.2463 L-665.1218 -989.2463" clip-path="url(#clipPath2)"/>
    </g>
    <g stroke-linecap="butt" transform="matrix(0.8,0,0,0.8,646.4,985.6)" fill="white" text-rendering="geometricPrecision" shape-rendering="geometricPrecision" stroke="white" stroke-miterlimit="1.45">
      <path d="M-657.1218 -989.2463 C-657.1218 -987.0372 -658.9127 -985.2463 -661.1218 -985.2463 C-663.331 -985.2463 -665.1218 -987.0372 -665.1218 -989.2463 C-665.1218 -991.4555 -663.331 -993.2463 -661.1218 -993.2463 C-658.9127 -993.2463 -657.1218 -991.4555 -657.1218 -989.2463 Z" stroke="none" clip-path="url(#clipPath2)"/>
      <path fill="none" d="M-657.1218 -989.2463 C-657.1218 -987.0372 -658.9127 -985.2463 -661.1218 -985.2463 C-663.331 -985.2463 -665.1218 -987.0372 -665.1218 -989.2463 C-665.1218 -991.4555 -663.331 -993.2463 -661.1218 -993.2463 C-658.9127 -993.2463 -657.1218 -991.4555 -657.1218 -989.2463 Z" clip-path="url(#clipPath2)" stroke="black"/>
      <path fill="none" d="M-643.1218 -980.2644 L-643.1218 -951.2476" clip-path="url(#clipPath2)" stroke="black"/>
      <path fill="black" d="M-643.1218 -940.2476 L-637.1218 -952.2476 L-649.1218 -952.2476 Z" clip-path="url(#clipPath2)" stroke="none"/>
      <path fill="none" d="M-643.1218 -998.2283 L-643.1218 -1027.2451" clip-path="url(#clipPath2)" stroke="black"/>
      <path fill="black" d="M-643.1218 -1038.2451 L-649.1218 -1026.2451 L-637.1218 -1026.2451 Z" clip-path="url(#clipPath2)" stroke="none"/>
      <path fill="none" d="M-625.1218 -908.2185 L-625.1218 -868.2852" clip-path="url(#clipPath2)" stroke="black"/>
      <path fill="none" d="M-661.1218 -868.2283 L-661.1218 -897.2451" clip-path="url(#clipPath2)" stroke="black"/>
      <path fill="black" d="M-661.1218 -908.2451 L-667.1218 -896.2451 L-655.1218 -896.2451 Z" clip-path="url(#clipPath2)" stroke="none"/>
      <path fill="none" d="M-625.1218 -850.2644 L-625.1218 -821.2476" clip-path="url(#clipPath2)" stroke="black"/>
      <path fill="black" d="M-625.1218 -810.2476 L-619.1218 -822.2476 L-631.1218 -822.2476 Z" clip-path="url(#clipPath2)" stroke="none"/>
      <path fill="none" d="M-661.1218 -810.2742 L-661.1218 -850.2075" clip-path="url(#clipPath2)" stroke="black"/>
      <path fill="none" d="M-708.093 -859.2463 L-683.1218 -859.2463" clip-path="url(#clipPath2)" stroke="black"/>
      <path d="M-675.1218 -859.2463 C-675.1218 -857.0372 -676.9127 -855.2463 -679.1218 -855.2463 C-681.331 -855.2463 -683.1218 -857.0372 -683.1218 -859.2463 C-683.1218 -861.4555 -681.331 -863.2463 -679.1218 -863.2463 C-676.9127 -863.2463 -675.1218 -861.4555 -675.1218 -859.2463 Z" clip-path="url(#clipPath2)" stroke="none"/>
      <path fill="none" d="M-675.1218 -859.2463 C-675.1218 -857.0372 -676.9127 -855.2463 -679.1218 -855.2463 C-681.331 -855.2463 -683.1218 -857.0372 -683.1218 -859.2463 C-683.1218 -861.4555 -681.331 -863.2463 -679.1218 -863.2463 C-676.9127 -863.2463 -675.1218 -861.4555 -675.1218 -859.2463 Z" clip-path="url(#clipPath2)" stroke="black"/>
      <path fill="none" d="M-578.1506 -859.2463 L-603.1218 -859.2463" clip-path="url(#clipPath2)" stroke="black"/>
      <path d="M-611.1218 -859.2463 C-611.1218 -861.4555 -609.331 -863.2463 -607.1218 -863.2463 C-604.9127 -863.2463 -603.1218 -861.4555 -603.1218 -859.2463 C-603.1218 -857.0372 -604.9127 -855.2463 -607.1218 -855.2463 C-609.331 -855.2463 -611.1218 -857.0372 -611.1218 -859.2463 Z" clip-path="url(#clipPath2)" stroke="none"/>
      <path fill="none" d="M-611.1218 -859.2463 C-611.1218 -861.4555 -609.331 -863.2463 -607.1218 -863.2463 C-604.9127 -863.2463 -603.1218 -861.4555 -603.1218 -859.2463 C-603.1218 -857.0372 -604.9127 -855.2463 -607.1218 -855.2463 C-609.331 -855.2463 -611.1218 -857.0372 -611.1218 -859.2463 Z" clip-path="url(#clipPath2)" stroke="black"/>
      <path fill="none" d="M-582.3342 -938.7365 L-488.4358 -938.7365" clip-path="url(#clipPath2)" stroke="black"/>
      <path fill="none" d="M-470.3937 -938.7365 L-430.6219 -938.7365" clip-path="url(#clipPath2)" stroke="black"/>
      <path fill="black" d="M-419.6219 -938.7365 L-431.6219 -944.7365 L-431.6219 -932.7365 Z" clip-path="url(#clipPath2)" stroke="none"/>
      <path fill="none" d="M-420.14 -913.1711 L-470.414 -913.1711" clip-path="url(#clipPath2)" stroke="black"/>
      <path fill="none" d="M-488.428 -913.1711 L-566.5525 -913.1711" clip-path="url(#clipPath2)" stroke="black"/>
      <path fill="black" d="M-577.5525 -913.1711 L-565.5525 -907.1711 L-565.5525 -919.1711 Z" clip-path="url(#clipPath2)" stroke="none"/>
      <path fill="none" d="M-243.3853 -989.2463 L-469.4153 -989.2463 L-473.7903 -988.6213 L-476.9153 -986.7463 L-478.7903 -983.6213 L-479.4153 -979.2463 L-479.4153 -960.7365" clip-path="url(#clipPath2)" stroke="black"/>
      <path d="M-479.4153 -952.7365 C-481.6244 -952.7365 -483.4153 -954.5273 -483.4153 -956.7365 C-483.4153 -958.9457 -481.6244 -960.7365 -479.4153 -960.7365 C-477.2061 -960.7365 -475.4153 -958.9457 -475.4153 -956.7365 C-475.4153 -954.5273 -477.2061 -952.7365 -479.4153 -952.7365 Z" clip-path="url(#clipPath2)" stroke="none"/>
      <path fill="none" d="M-479.4153 -952.7365 C-481.6244 -952.7365 -483.4153 -954.5273 -483.4153 -956.7365 C-483.4153 -958.9457 -481.6244 -960.7365 -479.4153 -960.7365 C-477.2061 -960.7365 -475.4153 -958.9457 -475.4153 -956.7365 C-475.4153 -954.5273 -477.2061 -952.7365 -479.4153 -952.7365 Z" clip-path="url(#clipPath2)" stroke="black"/>
      <path fill="none" d="M-203.3899 -958.8019 L-203.3899 -933.2565" clip-path="url(#clipPath2)" stroke="black"/>
      <path fill="none" d="M-125.4037 -924.2463 L-182.5192 -924.2463" clip-path="url(#clipPath2)" stroke="black"/>
      <path d="M-190.5192 -924.2463 C-190.5192 -926.4555 -188.7284 -928.2463 -186.5192 -928.2463 C-184.3101 -928.2463 -182.5192 -926.4555 -182.5192 -924.2463 C-182.5192 -922.0372 -184.3101 -920.2463 -186.5192 -920.2463 C-188.7284 -920.2463 -190.5192 -922.0372 -190.5192 -924.2463 Z" clip-path="url(#clipPath2)" stroke="none"/>
      <path fill="none" d="M-190.5192 -924.2463 C-190.5192 -926.4555 -188.7284 -928.2463 -186.5192 -928.2463 C-184.3101 -928.2463 -182.5192 -926.4555 -182.5192 -924.2463 C-182.5192 -922.0372 -184.3101 -920.2463 -186.5192 -920.2463 C-188.7284 -920.2463 -190.5192 -922.0372 -190.5192 -924.2463 Z" clip-path="url(#clipPath2)" stroke="black"/>
      <path fill="none" d="M-203.3899 -915.2644 L-203.3899 -890.2411" clip-path="url(#clipPath2)" stroke="black"/>
      <path fill="black" d="M-203.3899 -879.2411 L-197.3899 -891.2411 L-209.3899 -891.2411 Z" clip-path="url(#clipPath2)" stroke="none"/>
      <path fill="none" d="M-243.3853 -859.2463 L-469.4153 -859.2463 L-473.7903 -859.8713 L-476.9153 -861.7463 L-478.7903 -864.8713 L-479.4153 -869.2463 L-479.4153 -891.1711" clip-path="url(#clipPath2)" stroke="black"/>
      <path d="M-479.4153 -899.1711 C-477.2061 -899.1711 -475.4153 -897.3803 -475.4153 -895.1711 C-475.4153 -892.962 -477.2061 -891.1711 -479.4153 -891.1711 C-481.6244 -891.1711 -483.4153 -892.962 -483.4153 -895.1711 C-483.4153 -897.3803 -481.6244 -899.1711 -479.4153 -899.1711 Z" clip-path="url(#clipPath2)" stroke="none"/>
      <path fill="none" d="M-479.4153 -899.1711 C-477.2061 -899.1711 -475.4153 -897.3803 -475.4153 -895.1711 C-475.4153 -892.962 -477.2061 -891.1711 -479.4153 -891.1711 C-481.6244 -891.1711 -483.4153 -892.962 -483.4153 -895.1711 C-483.4153 -897.3803 -481.6244 -899.1711 -479.4153 -899.1711 Z" clip-path="url(#clipPath2)" stroke="black"/>
      <path fill="none" d="M-339.6049 -1108.2463 L-295.4898 -1108.2463" clip-path="url(#clipPath2)" stroke="black"/>
      <path fill="none" d="M-277.523 -1108.2463 L-244.3979 -1108.2463" clip-path="url(#clipPath2)" stroke="black"/>
      <path fill="black" d="M-233.3979 -1108.2463 L-245.3979 -1114.2463 L-245.3979 -1102.2463 Z" clip-path="url(#clipPath2)" stroke="none"/>
      <path fill="none" d="M-286.4904 -1172.7711 L-286.4904 -1130.2463" clip-path="url(#clipPath2)" stroke="black"/>
      <path d="M-286.4904 -1122.2463 C-288.6996 -1122.2463 -290.4904 -1124.0372 -290.4904 -1126.2463 C-290.4904 -1128.4554 -288.6996 -1130.2463 -286.4904 -1130.2463 C-284.2813 -1130.2463 -282.4904 -1128.4554 -282.4904 -1126.2463 C-282.4904 -1124.0372 -284.2813 -1122.2463 -286.4904 -1122.2463 Z" clip-path="url(#clipPath2)" stroke="none"/>
      <path fill="none" d="M-286.4904 -1122.2463 C-288.6996 -1122.2463 -290.4904 -1124.0372 -290.4904 -1126.2463 C-290.4904 -1128.4554 -288.6996 -1130.2463 -286.4904 -1130.2463 C-284.2813 -1130.2463 -282.4904 -1128.4554 -282.4904 -1126.2463 C-282.4904 -1124.0372 -284.2813 -1122.2463 -286.4904 -1122.2463 Z" clip-path="url(#clipPath2)" stroke="black"/>
      <path fill="none" d="M-85.3899 -1143.203 L-85.3899 -1117.2245" clip-path="url(#clipPath2)" stroke="black"/>
      <path fill="none" d="M-173.4002 -1108.2463 L-109.3715 -1108.2463" clip-path="url(#clipPath2)" stroke="black"/>
      <path d="M-94.3715 -1108.2463 L-110.3715 -1114.2463 L-110.3715 -1102.2463 Z" clip-path="url(#clipPath2)" stroke="none"/>
      <path fill="none" d="M-94.3715 -1108.2463 L-110.3715 -1114.2463 L-110.3715 -1102.2463 Z" clip-path="url(#clipPath2)" stroke="black"/>
      <path fill="none" d="M-85.3899 -1099.217 L-85.3899 -955.2808" clip-path="url(#clipPath2)" stroke="black"/>
      <path fill="black" d="M-85.3899 -944.2808 L-79.3899 -956.2808 L-91.3899 -956.2808 Z" clip-path="url(#clipPath2)" stroke="none"/>
    </g>
  </g>
</svg>
