<?xml version="1.0" encoding="UTF-8"?><svg xmlns="http://www.w3.org/2000/svg" xmlns:xlink="http://www.w3.org/1999/xlink" fill-opacity="1" color-rendering="auto" color-interpolation="auto" text-rendering="auto" stroke="black" stroke-linecap="square" width="765" stroke-miterlimit="10" shape-rendering="auto" stroke-opacity="1" fill="black" stroke-dasharray="none" font-weight="normal" stroke-width="1" height="321" font-family="'Dialog'" font-style="normal" stroke-linejoin="miter" font-size="12px" stroke-dashoffset="0" image-rendering="auto">
  <!--Generated by ySVG 2.5-->
  <defs id="genericDefs"/>
  <g>
    <defs id="defs1">
      <clipPath clipPathUnits="userSpaceOnUse" id="clipPath1">
        <path d="M0 0 L765 0 L765 321 L0 321 L0 0 Z"/>
      </clipPath>
      <clipPath clipPathUnits="userSpaceOnUse" id="clipPath2">
        <path d="M-131 -159 L634 -159 L634 162 L-131 162 L-131 -159 Z"/>
      </clipPath>
      <clipPath clipPathUnits="userSpaceOnUse" id="clipPath3">
        <path d="M-574.7572 -235.4847 L190.2428 -235.4847 L190.2428 85.5153 L-574.7572 85.5153 L-574.7572 -235.4847 Z"/>
      </clipPath>
      <clipPath clipPathUnits="userSpaceOnUse" id="clipPath4">
        <path d="M-574.7572 -105.9783 L190.2428 -105.9783 L190.2428 215.0217 L-574.7572 215.0217 L-574.7572 -105.9783 Z"/>
      </clipPath>
    </defs>
    <g fill="white" text-rendering="geometricPrecision" shape-rendering="geometricPrecision" transform="translate(131,159)" stroke="white">
      <rect x="-131" width="765" height="321" y="-159" clip-path="url(#clipPath2)" stroke="none"/>
    </g>
    <g fill="rgb(219,235,219)" text-rendering="geometricPrecision" shape-rendering="geometricPrecision" transform="matrix(1,0,0,1,131,159)" stroke="rgb(219,235,219)">
      <rect x="-40.9747" y="-143.9444" clip-path="url(#clipPath2)" width="140" rx="15" ry="15" height="30" stroke="none"/>
    </g>
    <g text-rendering="geometricPrecision" stroke-miterlimit="1.45" shape-rendering="geometricPrecision" transform="matrix(1,0,0,1,131,159)" stroke-linecap="butt">
      <rect x="-40.9747" y="-143.9444" clip-path="url(#clipPath2)" fill="none" width="140" rx="15" ry="15" height="30"/>
      <text x="-19.7593" font-size="14px" y="-124.0909" clip-path="url(#clipPath2)" font-family="'Arial'" stroke="none" xml:space="preserve">α-D-glucose-6P</text>
    </g>
    <g fill="rgb(219,235,219)" text-rendering="geometricPrecision" shape-rendering="geometricPrecision" transform="matrix(1,0,0,1,131,159)" stroke="rgb(219,235,219)">
      <rect x="-40.9747" y="-13.9444" clip-path="url(#clipPath2)" width="140" rx="15" ry="15" height="30" stroke="none"/>
    </g>
    <g text-rendering="geometricPrecision" stroke-miterlimit="1.45" shape-rendering="geometricPrecision" transform="matrix(1,0,0,1,131,159)" stroke-linecap="butt">
      <rect x="-40.9747" y="-13.9444" clip-path="url(#clipPath2)" fill="none" width="140" rx="15" ry="15" height="30"/>
      <text x="-20.5113" font-size="14px" y="5.9091" clip-path="url(#clipPath2)" font-family="'Arial'" stroke="none" xml:space="preserve">β-D-fructose-6P</text>
    </g>
    <g fill="rgb(200,216,235)" text-rendering="geometricPrecision" shape-rendering="geometricPrecision" transform="matrix(1,0,0,1,131,159)" stroke="rgb(200,216,235)">
      <path d="M-115.9747 -73.9445 Q-115.9747 -83.9445 -105.9747 -83.9445 L-45.9747 -83.9445 Q-35.9747 -83.9445 -35.9747 -73.9445 L-35.9747 -53.9444 Q-35.9747 -43.9444 -45.9747 -43.9444 L-105.9747 -43.9444 Q-115.9747 -43.9444 -115.9747 -53.9444 Z" stroke="none" clip-path="url(#clipPath2)"/>
    </g>
    <g text-rendering="geometricPrecision" stroke-miterlimit="1.45" shape-rendering="geometricPrecision" transform="matrix(1,0,0,1,131,159)" stroke-linecap="butt">
      <path fill="none" d="M-115.9747 -73.9445 Q-115.9747 -83.9445 -105.9747 -83.9445 L-45.9747 -83.9445 Q-35.9747 -83.9445 -35.9747 -73.9445 L-35.9747 -53.9444 Q-35.9747 -43.9444 -45.9747 -43.9444 L-105.9747 -43.9444 Q-115.9747 -43.9444 -115.9747 -53.9444 Z" clip-path="url(#clipPath2)"/>
      <text x="-88.0333" font-size="14px" y="-59.0909" clip-path="url(#clipPath2)" font-family="'Arial'" stroke="none" xml:space="preserve">GPI</text>
    </g>
    <g fill="white" text-rendering="geometricPrecision" shape-rendering="geometricPrecision" transform="matrix(1,0,0,1,131,159)" stroke="white">
      <rect x="20.0253" width="18" height="18" y="-72.9444" clip-path="url(#clipPath2)" stroke="none"/>
    </g>
    <g text-rendering="geometricPrecision" stroke-miterlimit="1.45" shape-rendering="geometricPrecision" transform="matrix(1,0,0,1,131,159)" stroke-linecap="butt">
      <rect fill="none" x="20.0253" width="18" height="18" y="-72.9444" clip-path="url(#clipPath2)"/>
    </g>
    <g fill="white" text-rendering="geometricPrecision" shape-rendering="geometricPrecision" transform="matrix(1,0,0,1,131,159)" stroke="white">
      <rect x="38.0253" width="18" height="18" y="57.0556" clip-path="url(#clipPath2)" stroke="none"/>
    </g>
    <g text-rendering="geometricPrecision" stroke-miterlimit="1.45" shape-rendering="geometricPrecision" transform="matrix(1,0,0,1,131,159)" stroke-linecap="butt">
      <rect fill="none" x="38.0253" width="18" height="18" y="57.0556" clip-path="url(#clipPath2)"/>
    </g>
    <g fill="white" text-rendering="geometricPrecision" shape-rendering="geometricPrecision" transform="matrix(1,0,0,1,131,159)" stroke="white">
      <rect x="2.0253" width="18" height="18" y="57.0556" clip-path="url(#clipPath2)" stroke="none"/>
    </g>
    <g text-rendering="geometricPrecision" stroke-miterlimit="1.45" shape-rendering="geometricPrecision" transform="matrix(1,0,0,1,131,159)" stroke-linecap="butt">
      <rect fill="none" x="2.0253" width="18" height="18" y="57.0556" clip-path="url(#clipPath2)"/>
    </g>
    <g fill="rgb(219,235,219)" text-rendering="geometricPrecision" shape-rendering="geometricPrecision" transform="matrix(1,0,0,1,131,159)" stroke="rgb(219,235,219)">
      <rect x="-40.9747" y="116.0556" clip-path="url(#clipPath2)" width="140" rx="15" ry="15" height="30" stroke="none"/>
    </g>
    <g text-rendering="geometricPrecision" stroke-miterlimit="1.45" shape-rendering="geometricPrecision" transform="matrix(1,0,0,1,131,159)" stroke-linecap="butt">
      <rect x="-40.9747" y="116.0556" clip-path="url(#clipPath2)" fill="none" width="140" rx="15" ry="15" height="30"/>
      <text x="-30.2422" font-size="14px" y="135.9091" clip-path="url(#clipPath2)" font-family="'Arial'" stroke="none" xml:space="preserve">β-D-fructose-1,6P2</text>
    </g>
    <g fill="rgb(200,216,235)" text-rendering="geometricPrecision" shape-rendering="geometricPrecision" transform="matrix(1,0,0,1,131,159)" stroke="rgb(200,216,235)">
      <path d="M-115.9747 56.0556 Q-115.9747 46.0556 -105.9747 46.0556 L-45.9747 46.0556 Q-35.9747 46.0556 -35.9747 56.0556 L-35.9747 76.0555 Q-35.9747 86.0555 -45.9747 86.0555 L-105.9747 86.0555 Q-115.9747 86.0555 -115.9747 76.0555 Z" stroke="none" clip-path="url(#clipPath2)"/>
    </g>
    <g text-rendering="geometricPrecision" stroke-miterlimit="1.45" shape-rendering="geometricPrecision" transform="matrix(1,0,0,1,131,159)" stroke-linecap="butt">
      <path fill="none" d="M-115.9747 56.0556 Q-115.9747 46.0556 -105.9747 46.0556 L-45.9747 46.0556 Q-35.9747 46.0556 -35.9747 56.0556 L-35.9747 76.0555 Q-35.9747 86.0555 -45.9747 86.0555 L-105.9747 86.0555 Q-115.9747 86.0555 -115.9747 76.0555 Z" clip-path="url(#clipPath2)"/>
      <text x="-99.3194" font-size="14px" y="70.9091" clip-path="url(#clipPath2)" font-family="'Arial'" stroke="none" xml:space="preserve">F1,6BP</text>
    </g>
    <g fill="rgb(200,216,235)" text-rendering="geometricPrecision" shape-rendering="geometricPrecision" transform="matrix(1,0,0,1,131,159)" stroke="rgb(200,216,235)">
      <path d="M94.0253 56.0556 Q94.0253 46.0556 104.0253 46.0556 L164.0253 46.0556 Q174.0253 46.0556 174.0253 56.0556 L174.0253 76.0555 Q174.0253 86.0555 164.0253 86.0555 L104.0253 86.0555 Q94.0253 86.0555 94.0253 76.0555 Z" stroke="none" clip-path="url(#clipPath2)"/>
    </g>
    <g text-rendering="geometricPrecision" stroke-miterlimit="1.45" shape-rendering="geometricPrecision" transform="matrix(1,0,0,1,131,159)" stroke-linecap="butt">
      <path fill="none" d="M94.0253 56.0556 Q94.0253 46.0556 104.0253 46.0556 L164.0253 46.0556 Q174.0253 46.0556 174.0253 56.0556 L174.0253 76.0555 Q174.0253 86.0555 164.0253 86.0555 L104.0253 86.0555 Q94.0253 86.0555 94.0253 76.0555 Z" clip-path="url(#clipPath2)"/>
      <text x="116.5185" font-size="14px" y="70.9091" clip-path="url(#clipPath2)" font-family="'Arial'" stroke="none" xml:space="preserve">PFK1</text>
    </g>
    <g fill="rgb(219,235,219)" text-rendering="geometricPrecision" shape-rendering="geometricPrecision" transform="matrix(1,0,0,1,131,159)" stroke="rgb(219,235,219)">
      <rect x="247.5253" y="-13.9444" clip-path="url(#clipPath2)" width="140" rx="15" ry="15" height="30" stroke="none"/>
    </g>
    <g text-rendering="geometricPrecision" stroke-miterlimit="1.45" shape-rendering="geometricPrecision" transform="matrix(1,0,0,1,131,159)" stroke-linecap="butt">
      <rect x="247.5253" y="-13.9444" clip-path="url(#clipPath2)" fill="none" width="140" rx="15" ry="15" height="30"/>
      <text x="258.2578" font-size="14px" y="5.9091" clip-path="url(#clipPath2)" font-family="'Arial'" stroke="none" xml:space="preserve">β-D-fructose-2,6P2</text>
    </g>
    <g fill="white" text-rendering="geometricPrecision" shape-rendering="geometricPrecision" transform="matrix(1,0,0,1,131,159)" stroke="white">
      <rect x="183.7319" width="18" height="18" y="-22.4346" clip-path="url(#clipPath2)" stroke="none"/>
    </g>
    <g text-rendering="geometricPrecision" stroke-miterlimit="1.45" shape-rendering="geometricPrecision" transform="matrix(1,0,0,1,131,159)" stroke-linecap="butt">
      <rect fill="none" x="183.7319" width="18" height="18" y="-22.4346" clip-path="url(#clipPath2)"/>
    </g>
    <g fill="white" text-rendering="geometricPrecision" shape-rendering="geometricPrecision" transform="matrix(1,0,0,1,131,159)" stroke="white">
      <rect x="183.7319" width="18" height="18" y="3.1308" clip-path="url(#clipPath2)" stroke="none"/>
    </g>
    <g text-rendering="geometricPrecision" stroke-miterlimit="1.45" shape-rendering="geometricPrecision" transform="matrix(1,0,0,1,131,159)" stroke-linecap="butt">
      <rect fill="none" x="183.7319" width="18" height="18" y="3.1308" clip-path="url(#clipPath2)"/>
    </g>
    <g fill="rgb(226,172,163)" text-rendering="geometricPrecision" shape-rendering="geometricPrecision" transform="matrix(1,0,0,1,131,159)" stroke="rgb(226,172,163)">
      <path d="M428.7572 -73.9445 Q428.7572 -83.9445 438.7572 -83.9445 L498.7572 -83.9445 Q508.7572 -83.9445 508.7572 -73.9445 L508.7572 -53.9444 Q508.7572 -43.9444 498.7572 -43.9444 L438.7572 -43.9444 Q428.7572 -43.9444 428.7572 -53.9444 Z" stroke="none" clip-path="url(#clipPath2)"/>
    </g>
    <g text-rendering="geometricPrecision" stroke-miterlimit="1.45" shape-rendering="geometricPrecision" transform="matrix(1,0,0,1,131,159)" stroke-linecap="butt">
      <path fill="none" d="M428.7572 -73.9445 Q428.7572 -83.9445 438.7572 -83.9445 L498.7572 -83.9445 Q508.7572 -83.9445 508.7572 -73.9445 L508.7572 -53.9444 Q508.7572 -43.9444 498.7572 -43.9444 L438.7572 -43.9444 Q428.7572 -43.9444 428.7572 -53.9444 Z" clip-path="url(#clipPath2)"/>
      <text x="442.3056" font-size="14px" y="-59.0909" clip-path="url(#clipPath2)" font-family="'Arial'" stroke="none" xml:space="preserve">PFKFB2</text>
    </g>
    <g fill="white" text-rendering="geometricPrecision" shape-rendering="geometricPrecision" transform="matrix(1,0,0,1,131,159)" stroke="white">
      <rect x="459.7572" width="18" height="18" y="-7.9444" clip-path="url(#clipPath2)" stroke="none"/>
    </g>
    <g text-rendering="geometricPrecision" stroke-miterlimit="1.45" shape-rendering="geometricPrecision" transform="matrix(1,0,0,1,131,159)" stroke-linecap="butt">
      <rect fill="none" x="459.7572" width="18" height="18" y="-7.9444" clip-path="url(#clipPath2)"/>
    </g>
    <g fill="rgb(226,172,163)" text-rendering="geometricPrecision" shape-rendering="geometricPrecision" transform="matrix(1,0,0,1,131,159)" stroke="rgb(226,172,163)">
      <path d="M428.7572 56.0556 Q428.7572 46.0556 438.7572 46.0556 L498.7572 46.0556 Q508.7572 46.0556 508.7572 56.0556 L508.7572 76.0555 Q508.7572 86.0555 498.7572 86.0555 L438.7572 86.0555 Q428.7572 86.0555 428.7572 76.0555 Z" stroke="none" clip-path="url(#clipPath2)"/>
    </g>
    <g text-rendering="geometricPrecision" stroke-miterlimit="1.45" shape-rendering="geometricPrecision" transform="matrix(1,0,0,1,131,159)" stroke-linecap="butt">
      <path fill="none" d="M428.7572 56.0556 Q428.7572 46.0556 438.7572 46.0556 L498.7572 46.0556 Q508.7572 46.0556 508.7572 56.0556 L508.7572 76.0555 Q508.7572 86.0555 498.7572 86.0555 L438.7572 86.0555 Q428.7572 86.0555 428.7572 76.0555 Z" clip-path="url(#clipPath2)"/>
      <text x="442.3056" font-size="14px" y="70.9091" clip-path="url(#clipPath2)" font-family="'Arial'" stroke="none" xml:space="preserve">PFKFB2</text>
    </g>
    <g fill="white" text-rendering="geometricPrecision" shape-rendering="geometricPrecision" transform="matrix(1,0,0,1,131,159) translate(443.7572,76.4847)" stroke="white">
      <rect x="0" y="0" clip-path="url(#clipPath3)" width="50" rx="9" ry="9" height="18" stroke="none"/>
    </g>
    <g text-rendering="geometricPrecision" stroke-miterlimit="1.45" shape-rendering="geometricPrecision" transform="matrix(1,0,0,1,131,159) translate(443.7572,76.4847)" stroke-linecap="butt">
      <rect x="0" y="0" clip-path="url(#clipPath3)" fill="none" width="50" rx="9" ry="9" height="18"/>
      <text x="5.4277" xml:space="preserve" y="13.5352" clip-path="url(#clipPath3)" font-family="sans-serif" stroke="none">P@S36</text>
    </g>
    <g fill="rgb(200,216,235)" text-rendering="geometricPrecision" shape-rendering="geometricPrecision" transform="matrix(1,0,0,1,131,159)" stroke="rgb(200,216,235)">
      <path d="M538.7572 -8.9444 Q538.7572 -18.9444 548.7572 -18.9444 L608.7572 -18.9444 Q618.7572 -18.9444 618.7572 -8.9444 L618.7572 11.0556 Q618.7572 21.0556 608.7572 21.0556 L548.7572 21.0556 Q538.7572 21.0556 538.7572 11.0556 Z" stroke="none" clip-path="url(#clipPath2)"/>
    </g>
    <g text-rendering="geometricPrecision" stroke-miterlimit="1.45" shape-rendering="geometricPrecision" transform="matrix(1,0,0,1,131,159)" stroke-linecap="butt">
      <path fill="none" d="M538.7572 -8.9444 Q538.7572 -18.9444 548.7572 -18.9444 L608.7572 -18.9444 Q618.7572 -18.9444 618.7572 -8.9444 L618.7572 11.0556 Q618.7572 21.0556 608.7572 21.0556 L548.7572 21.0556 Q538.7572 21.0556 538.7572 11.0556 Z" clip-path="url(#clipPath2)"/>
      <text x="564.7504" font-size="14px" y="5.9091" clip-path="url(#clipPath2)" font-family="'Arial'" stroke="none" xml:space="preserve">PKA</text>
    </g>
    <g text-rendering="geometricPrecision" stroke-miterlimit="1.45" shape-rendering="geometricPrecision" transform="matrix(1,0,0,1,131,159)" stroke-linecap="butt">
      <path fill="none" d="M-35.94 -63.9444 L7.0253 -63.9444" clip-path="url(#clipPath2)"/>
    </g>
    <g stroke-linecap="butt" transform="matrix(1,0,0,1,131,159)" fill="white" text-rendering="geometricPrecision" shape-rendering="geometricPrecision" stroke="white" stroke-miterlimit="1.45">
      <path d="M15.0253 -63.9444 C15.0253 -61.7353 13.2345 -59.9444 11.0253 -59.9444 C8.8162 -59.9444 7.0253 -61.7353 7.0253 -63.9444 C7.0253 -66.1536 8.8162 -67.9444 11.0253 -67.9444 C13.2345 -67.9444 15.0253 -66.1536 15.0253 -63.9444 Z" stroke="none" clip-path="url(#clipPath2)"/>
      <path fill="none" d="M15.0253 -63.9444 C15.0253 -61.7353 13.2345 -59.9444 11.0253 -59.9444 C8.8162 -59.9444 7.0253 -61.7353 7.0253 -63.9444 C7.0253 -66.1536 8.8162 -67.9444 11.0253 -67.9444 C13.2345 -67.9444 15.0253 -66.1536 15.0253 -63.9444 Z" clip-path="url(#clipPath2)" stroke="black"/>
      <path fill="none" d="M29.0253 -54.9625 L29.0253 -24.961" clip-path="url(#clipPath2)" stroke="black"/>
      <path fill="black" d="M29.0253 -13.961 L35.0253 -25.961 L23.0253 -25.961 Z" clip-path="url(#clipPath2)" stroke="none"/>
      <path fill="none" d="M29.0253 -72.9264 L29.0253 -102.9279" clip-path="url(#clipPath2)" stroke="black"/>
      <path fill="black" d="M29.0253 -113.9279 L23.0253 -101.9279 L35.0253 -101.9279 Z" clip-path="url(#clipPath2)" stroke="none"/>
      <path fill="none" d="M47.0253 16.0678 L47.0253 57.0246" clip-path="url(#clipPath2)" stroke="black"/>
      <path fill="none" d="M11.0253 57.0736 L11.0253 27.0721" clip-path="url(#clipPath2)" stroke="black"/>
      <path fill="black" d="M11.0253 16.0721 L5.0253 28.0721 L17.0253 28.0721 Z" clip-path="url(#clipPath2)" stroke="none"/>
      <path fill="none" d="M47.0253 75.0375 L47.0253 105.039" clip-path="url(#clipPath2)" stroke="black"/>
      <path fill="black" d="M47.0253 116.039 L53.0253 104.039 L41.0253 104.039 Z" clip-path="url(#clipPath2)" stroke="none"/>
      <path fill="none" d="M11.0253 116.0433 L11.0253 75.0865" clip-path="url(#clipPath2)" stroke="black"/>
      <path fill="none" d="M-35.9459 66.0555 L-10.9747 66.0555" clip-path="url(#clipPath2)" stroke="black"/>
      <path d="M-2.9747 66.0555 C-2.9747 68.2647 -4.7655 70.0555 -6.9747 70.0555 C-9.1838 70.0555 -10.9747 68.2647 -10.9747 66.0555 C-10.9747 63.8464 -9.1838 62.0555 -6.9747 62.0555 C-4.7655 62.0555 -2.9747 63.8464 -2.9747 66.0555 Z" clip-path="url(#clipPath2)" stroke="none"/>
      <path fill="none" d="M-2.9747 66.0555 C-2.9747 68.2647 -4.7655 70.0555 -6.9747 70.0555 C-9.1838 70.0555 -10.9747 68.2647 -10.9747 66.0555 C-10.9747 63.8464 -9.1838 62.0555 -6.9747 62.0555 C-4.7655 62.0555 -2.9747 63.8464 -2.9747 66.0555 Z" clip-path="url(#clipPath2)" stroke="black"/>
      <path fill="none" d="M93.9965 66.0555 L69.0253 66.0555" clip-path="url(#clipPath2)" stroke="black"/>
      <path d="M61.0253 66.0555 C61.0253 63.8464 62.8162 62.0555 65.0253 62.0555 C67.2345 62.0555 69.0253 63.8464 69.0253 66.0555 C69.0253 68.2647 67.2345 70.0555 65.0253 70.0555 C62.8162 70.0555 61.0253 68.2647 61.0253 66.0555 Z" clip-path="url(#clipPath2)" stroke="none"/>
      <path fill="none" d="M61.0253 66.0555 C61.0253 63.8464 62.8162 62.0555 65.0253 62.0555 C67.2345 62.0555 69.0253 63.8464 69.0253 66.0555 C69.0253 68.2647 67.2345 70.0555 65.0253 70.0555 C62.8162 70.0555 61.0253 68.2647 61.0253 66.0555 Z" clip-path="url(#clipPath2)" stroke="black"/>
      <path fill="none" d="M87.941 -13.4346 L183.752 -13.4346" clip-path="url(#clipPath2)" stroke="black"/>
      <path fill="none" d="M201.7535 -13.4346 L241.5253 -13.4346" clip-path="url(#clipPath2)" stroke="black"/>
      <path fill="black" d="M252.5253 -13.4346 L240.5253 -19.4346 L240.5253 -7.4346 Z" clip-path="url(#clipPath2)" stroke="none"/>
      <path fill="none" d="M252.3858 12.1308 L201.7324 12.1308" clip-path="url(#clipPath2)" stroke="black"/>
      <path fill="none" d="M183.7191 12.1308 L105.1567 12.1308" clip-path="url(#clipPath2)" stroke="black"/>
      <path fill="black" d="M94.1567 12.1308 L106.1567 18.1308 L106.1567 6.1308 Z" clip-path="url(#clipPath2)" stroke="none"/>
      <path fill="none" d="M428.7618 -63.9444 L202.7319 -63.9444 L198.3569 -63.3194 L195.2319 -61.4444 L193.3569 -58.3194 L192.7319 -53.9444 L192.7319 -35.4346" clip-path="url(#clipPath2)" stroke="black"/>
      <path d="M192.7319 -27.4346 C190.5228 -27.4346 188.7319 -29.2255 188.7319 -31.4346 C188.7319 -33.6438 190.5228 -35.4346 192.7319 -35.4346 C194.941 -35.4346 196.7319 -33.6438 196.7319 -31.4346 C196.7319 -29.2255 194.941 -27.4346 192.7319 -27.4346 Z" clip-path="url(#clipPath2)" stroke="none"/>
      <path fill="none" d="M192.7319 -27.4346 C190.5228 -27.4346 188.7319 -29.2255 188.7319 -31.4346 C188.7319 -33.6438 190.5228 -35.4346 192.7319 -35.4346 C194.941 -35.4346 196.7319 -33.6438 196.7319 -31.4346 C196.7319 -29.2255 194.941 -27.4346 192.7319 -27.4346 Z" clip-path="url(#clipPath2)" stroke="black"/>
      <path fill="none" d="M468.7572 -43.9176 L468.7572 -7.9479" clip-path="url(#clipPath2)" stroke="black"/>
    </g>
    <g stroke-linecap="butt" transform="matrix(1,0,0,1,131,159) translate(443.7572,-53.0217)" fill="white" text-rendering="geometricPrecision" shape-rendering="geometricPrecision" stroke="white" stroke-miterlimit="1.45">
      <rect x="0" y="0" clip-path="url(#clipPath4)" width="50" rx="9" ry="9" height="18" stroke="none"/>
      <rect x="0" y="0" clip-path="url(#clipPath4)" fill="none" width="50" rx="9" ry="9" height="18" stroke="black"/>
      <text x="12.0605" y="13.5352" clip-path="url(#clipPath4)" fill="black" font-family="sans-serif" stroke="none" xml:space="preserve">@S36</text>
    </g>
    <g text-rendering="geometricPrecision" stroke-miterlimit="1.45" shape-rendering="geometricPrecision" transform="matrix(1,0,0,1,131,159)" stroke-linecap="butt">
      <path fill="none" d="M468.7572 10.0375 L468.7572 35.0608" clip-path="url(#clipPath2)"/>
    </g>
    <g text-rendering="geometricPrecision" stroke-miterlimit="1.45" shape-rendering="geometricPrecision" transform="matrix(1,0,0,1,131,159)" stroke-linecap="butt">
      <path d="M468.7572 46.0608 L474.7572 34.0608 L462.7572 34.0608 Z" stroke="none" clip-path="url(#clipPath2)"/>
      <path fill="none" d="M428.7618 66.0555 L202.7319 66.0555 L198.3569 65.4305 L195.2319 63.5555 L193.3569 60.4305 L192.7319 56.0555 L192.7319 34.1308" clip-path="url(#clipPath2)"/>
      <path fill="white" d="M192.7319 26.1308 C194.941 26.1308 196.7319 27.9216 196.7319 30.1308 C196.7319 32.3399 194.941 34.1308 192.7319 34.1308 C190.5228 34.1308 188.7319 32.3399 188.7319 30.1308 C188.7319 27.9216 190.5228 26.1308 192.7319 26.1308 Z" clip-path="url(#clipPath2)" stroke="none"/>
      <path fill="none" d="M192.7319 26.1308 C194.941 26.1308 196.7319 27.9216 196.7319 30.1308 C196.7319 32.3399 194.941 34.1308 192.7319 34.1308 C190.5228 34.1308 188.7319 32.3399 188.7319 30.1308 C188.7319 27.9216 190.5228 26.1308 192.7319 26.1308 Z" clip-path="url(#clipPath2)"/>
      <path fill="none" d="M538.7728 1.0556 L490.7572 1.0556" clip-path="url(#clipPath2)"/>
      <path fill="white" d="M482.7572 1.0556 C482.7572 -1.1536 484.5481 -2.9444 486.7572 -2.9444 C488.9664 -2.9444 490.7572 -1.1536 490.7572 1.0556 C490.7572 3.2647 488.9664 5.0556 486.7572 5.0556 C484.5481 5.0556 482.7572 3.2647 482.7572 1.0556 Z" clip-path="url(#clipPath2)" stroke="none"/>
      <path fill="none" d="M482.7572 1.0556 C482.7572 -1.1536 484.5481 -2.9444 486.7572 -2.9444 C488.9664 -2.9444 490.7572 -1.1536 490.7572 1.0556 C490.7572 3.2647 488.9664 5.0556 486.7572 5.0556 C484.5481 5.0556 482.7572 3.2647 482.7572 1.0556 Z" clip-path="url(#clipPath2)"/>
    </g>
  </g>
</svg>
