<?xml version="1.0" encoding="UTF-8"?><svg xmlns="http://www.w3.org/2000/svg" xmlns:xlink="http://www.w3.org/1999/xlink" fill-opacity="1" color-rendering="auto" color-interpolation="auto" text-rendering="auto" stroke="black" stroke-linecap="square" width="664" stroke-miterlimit="10" shape-rendering="auto" stroke-opacity="1" fill="black" stroke-dasharray="none" font-weight="normal" stroke-width="1" height="552" font-family="'Dialog'" font-style="normal" stroke-linejoin="miter" font-size="12px" stroke-dashoffset="0" image-rendering="auto">
  <!--Generated by ySVG 2.5-->
  <defs id="genericDefs"/>
  <g>
    <defs id="defs1">
      <clipPath clipPathUnits="userSpaceOnUse" id="clipPath1">
        <path d="M0 0 L664 0 L664 552 L0 552 L0 0 Z"/>
      </clipPath>
      <clipPath clipPathUnits="userSpaceOnUse" id="clipPath2">
        <path d="M260 -328 L924 -328 L924 224 L260 224 L260 -328 Z"/>
      </clipPath>
      <clipPath clipPathUnits="userSpaceOnUse" id="clipPath3">
        <path d="M-443.2681 -371.8552 L220.7319 -371.8552 L220.7319 180.1448 L-443.2681 180.1448 L-443.2681 -371.8552 Z"/>
      </clipPath>
      <clipPath clipPathUnits="userSpaceOnUse" id="clipPath4">
        <path d="M-479.2681 -371.8552 L184.7319 -371.8552 L184.7319 180.1448 L-479.2681 180.1448 L-479.2681 -371.8552 Z"/>
      </clipPath>
      <clipPath clipPathUnits="userSpaceOnUse" id="clipPath5">
        <path d="M-278 -371.8552 L386 -371.8552 L386 180.1448 L-278 180.1448 L-278 -371.8552 Z"/>
      </clipPath>
      <clipPath clipPathUnits="userSpaceOnUse" id="clipPath6">
        <path d="M-314 -371.8552 L350 -371.8552 L350 180.1448 L-314 180.1448 L-314 -371.8552 Z"/>
      </clipPath>
      <clipPath clipPathUnits="userSpaceOnUse" id="clipPath7">
        <path d="M-195.366 -263.8552 L468.6341 -263.8552 L468.6341 288.1448 L-195.366 288.1448 L-195.366 -263.8552 Z"/>
      </clipPath>
      <clipPath clipPathUnits="userSpaceOnUse" id="clipPath8">
        <path d="M-231.366 -263.8552 L432.6341 -263.8552 L432.6341 288.1448 L-231.366 288.1448 L-231.366 -263.8552 Z"/>
      </clipPath>
      <clipPath clipPathUnits="userSpaceOnUse" id="clipPath9">
        <path d="M-314 -155.8552 L350 -155.8552 L350 396.1448 L-314 396.1448 L-314 -155.8552 Z"/>
      </clipPath>
      <clipPath clipPathUnits="userSpaceOnUse" id="clipPath10">
        <path d="M-148.7319 -155.8552 L515.2681 -155.8552 L515.2681 396.1448 L-148.7319 396.1448 L-148.7319 -155.8552 Z"/>
      </clipPath>
      <clipPath clipPathUnits="userSpaceOnUse" id="clipPath11">
        <path d="M-360.6341 -263.8552 L303.3659 -263.8552 L303.3659 288.1448 L-360.6341 288.1448 L-360.6341 -263.8552 Z"/>
      </clipPath>
      <clipPath clipPathUnits="userSpaceOnUse" id="clipPath12">
        <path d="M-396.6341 -263.8552 L267.3659 -263.8552 L267.3659 288.1448 L-396.6341 288.1448 L-396.6341 -263.8552 Z"/>
      </clipPath>
      <clipPath clipPathUnits="userSpaceOnUse" id="clipPath13">
        <path d="M-231.366 -47.8552 L432.6341 -47.8552 L432.6341 504.1448 L-231.366 504.1448 L-231.366 -47.8552 Z"/>
      </clipPath>
      <clipPath clipPathUnits="userSpaceOnUse" id="clipPath14">
        <path d="M-66.0978 -47.8552 L597.9022 -47.8552 L597.9022 504.1448 L-66.0978 504.1448 L-66.0978 -47.8552 Z"/>
      </clipPath>
    </defs>
    <g fill="white" text-rendering="geometricPrecision" shape-rendering="geometricPrecision" transform="translate(-260,328)" stroke="white">
      <rect x="260" width="664" height="552" y="-328" clip-path="url(#clipPath2)" stroke="none"/>
    </g>
    <g fill="rgb(219,235,219)" text-rendering="geometricPrecision" shape-rendering="geometricPrecision" transform="matrix(1,0,0,1,-260,328)" stroke="rgb(219,235,219)">
      <rect x="768.4187" y="-37.5383" clip-path="url(#clipPath2)" width="140" rx="15" ry="15" height="30" stroke="none"/>
    </g>
    <g text-rendering="geometricPrecision" stroke-miterlimit="1.45" shape-rendering="geometricPrecision" transform="matrix(1,0,0,1,-260,328)" stroke-linecap="butt">
      <rect x="768.4187" y="-37.5383" clip-path="url(#clipPath2)" fill="none" width="140" rx="15" ry="15" height="30"/>
      <text x="776.1536" font-size="14px" y="-17.6848" clip-path="url(#clipPath2)" font-family="'Arial'" stroke="none" xml:space="preserve">Phosphatidylcholine</text>
    </g>
    <g fill="white" text-rendering="geometricPrecision" shape-rendering="geometricPrecision" transform="matrix(1,0,0,1,-260,328)" stroke="white">
      <rect x="829.4187" width="18" height="18" y="22.4617" clip-path="url(#clipPath2)" stroke="none"/>
    </g>
    <g text-rendering="geometricPrecision" stroke-miterlimit="1.45" shape-rendering="geometricPrecision" transform="matrix(1,0,0,1,-260,328)" stroke-linecap="butt">
      <rect fill="none" x="829.4187" width="18" height="18" y="22.4617" clip-path="url(#clipPath2)"/>
    </g>
    <g fill="rgb(226,172,163)" text-rendering="geometricPrecision" shape-rendering="geometricPrecision" transform="matrix(1,0,0,1,-260,328)" stroke="rgb(226,172,163)">
      <path d="M688.4188 21.4617 Q688.4188 11.4617 698.4188 11.4617 L758.4188 11.4617 Q768.4188 11.4617 768.4188 21.4617 L768.4188 41.4617 Q768.4188 51.4617 758.4188 51.4617 L698.4188 51.4617 Q688.4188 51.4617 688.4188 41.4617 Z" stroke="none" clip-path="url(#clipPath2)"/>
    </g>
    <g text-rendering="geometricPrecision" stroke-miterlimit="1.45" shape-rendering="geometricPrecision" transform="matrix(1,0,0,1,-260,328)" stroke-linecap="butt">
      <path fill="none" d="M688.4188 21.4617 Q688.4188 11.4617 698.4188 11.4617 L758.4188 11.4617 Q768.4188 11.4617 768.4188 21.4617 L768.4188 41.4617 Q768.4188 51.4617 758.4188 51.4617 L698.4188 51.4617 Q688.4188 51.4617 688.4188 41.4617 Z" clip-path="url(#clipPath2)"/>
      <text x="707.7947" font-size="14px" y="36.3152" clip-path="url(#clipPath2)" font-family="'Arial'" stroke="none" xml:space="preserve">cPLA2</text>
    </g>
    <g fill="white" text-rendering="geometricPrecision" shape-rendering="geometricPrecision" transform="matrix(1,0,0,1,-260,328) translate(703.2681,43.8552)" stroke="white">
      <rect x="0" y="0" clip-path="url(#clipPath3)" width="18" rx="9" ry="9" height="18" stroke="none"/>
    </g>
    <g text-rendering="geometricPrecision" stroke-miterlimit="1.45" shape-rendering="geometricPrecision" transform="matrix(1,0,0,1,-260,328) translate(703.2681,43.8552)" stroke-linecap="butt">
      <rect x="0" y="0" clip-path="url(#clipPath3)" fill="none" width="18" rx="9" ry="9" height="18"/>
      <text x="5.6836" xml:space="preserve" y="13.5352" clip-path="url(#clipPath3)" font-family="sans-serif" stroke="none">P</text>
    </g>
    <g fill="white" text-rendering="geometricPrecision" shape-rendering="geometricPrecision" transform="matrix(1,0,0,1,-260,328) translate(739.2681,43.8552)" stroke="white">
      <rect x="0" y="0" clip-path="url(#clipPath4)" width="18" rx="9" ry="9" height="18" stroke="none"/>
    </g>
    <g text-rendering="geometricPrecision" stroke-miterlimit="1.45" shape-rendering="geometricPrecision" transform="matrix(1,0,0,1,-260,328) translate(739.2681,43.8552)" stroke-linecap="butt">
      <rect x="0" y="0" clip-path="url(#clipPath4)" fill="none" width="18" rx="9" ry="9" height="18"/>
      <text x="5.6836" xml:space="preserve" y="13.5352" clip-path="url(#clipPath4)" font-family="sans-serif" stroke="none">P</text>
    </g>
    <g fill="rgb(219,235,219)" text-rendering="geometricPrecision" shape-rendering="geometricPrecision" transform="matrix(1,0,0,1,-260,328)" stroke="rgb(219,235,219)">
      <rect x="768.4187" y="70.4617" clip-path="url(#clipPath2)" width="140" rx="15" ry="15" height="30" stroke="none"/>
    </g>
    <g text-rendering="geometricPrecision" stroke-miterlimit="1.45" shape-rendering="geometricPrecision" transform="matrix(1,0,0,1,-260,328)" stroke-linecap="butt">
      <rect x="768.4187" y="70.4617" clip-path="url(#clipPath2)" fill="none" width="140" rx="15" ry="15" height="30"/>
      <text x="787.0569" font-size="14px" y="90.3152" clip-path="url(#clipPath2)" font-family="'Arial'" stroke="none" xml:space="preserve">Arachidonic acid</text>
    </g>
    <g fill="rgb(219,235,219)" text-rendering="geometricPrecision" shape-rendering="geometricPrecision" transform="matrix(1,0,0,1,-260,328)" stroke="rgb(219,235,219)">
      <rect x="768.4187" y="178.4617" clip-path="url(#clipPath2)" width="140" rx="15" ry="15" height="30" stroke="none"/>
    </g>
    <g text-rendering="geometricPrecision" stroke-miterlimit="1.45" shape-rendering="geometricPrecision" transform="matrix(1,0,0,1,-260,328)" stroke-linecap="butt">
      <rect x="768.4187" y="178.4617" clip-path="url(#clipPath2)" fill="none" width="140" rx="15" ry="15" height="30"/>
      <text x="818.9671" font-size="14px" y="198.3152" clip-path="url(#clipPath2)" font-family="'Arial'" stroke="none" xml:space="preserve">PGG2</text>
    </g>
    <g fill="white" text-rendering="geometricPrecision" shape-rendering="geometricPrecision" transform="matrix(1,0,0,1,-260,328)" stroke="white">
      <rect x="829.4187" width="18" height="18" y="130.4617" clip-path="url(#clipPath2)" stroke="none"/>
    </g>
    <g text-rendering="geometricPrecision" stroke-miterlimit="1.45" shape-rendering="geometricPrecision" transform="matrix(1,0,0,1,-260,328)" stroke-linecap="butt">
      <rect fill="none" x="829.4187" width="18" height="18" y="130.4617" clip-path="url(#clipPath2)"/>
    </g>
    <g fill="rgb(200,216,235)" text-rendering="geometricPrecision" shape-rendering="geometricPrecision" transform="matrix(1,0,0,1,-260,328)" stroke="rgb(200,216,235)">
      <path d="M693.4188 129.4617 Q693.4188 119.4617 703.4188 119.4617 L763.4188 119.4617 Q773.4188 119.4617 773.4188 129.4617 L773.4188 149.4617 Q773.4188 159.4617 763.4188 159.4617 L703.4188 159.4617 Q693.4188 159.4617 693.4188 149.4617 Z" stroke="none" clip-path="url(#clipPath2)"/>
    </g>
    <g text-rendering="geometricPrecision" stroke-miterlimit="1.45" shape-rendering="geometricPrecision" transform="matrix(1,0,0,1,-260,328)" stroke-linecap="butt">
      <path fill="none" d="M693.4188 129.4617 Q693.4188 119.4617 703.4188 119.4617 L763.4188 119.4617 Q773.4188 119.4617 773.4188 129.4617 L773.4188 149.4617 Q773.4188 159.4617 763.4188 159.4617 L703.4188 159.4617 Q693.4188 159.4617 693.4188 149.4617 Z" clip-path="url(#clipPath2)"/>
      <text x="708.5189" font-size="14px" y="144.3152" clip-path="url(#clipPath2)" font-family="'Arial'" stroke="none" xml:space="preserve">COX1/2</text>
    </g>
    <g fill="rgb(226,172,163)" text-rendering="geometricPrecision" shape-rendering="geometricPrecision" transform="matrix(1,0,0,1,-260,328)" stroke="rgb(226,172,163)">
      <path d="M523.1506 21.4617 Q523.1506 11.4617 533.1506 11.4617 L593.1506 11.4617 Q603.1506 11.4617 603.1506 21.4617 L603.1506 41.4617 Q603.1506 51.4617 593.1506 51.4617 L533.1506 51.4617 Q523.1506 51.4617 523.1506 41.4617 Z" stroke="none" clip-path="url(#clipPath2)"/>
    </g>
    <g text-rendering="geometricPrecision" stroke-miterlimit="1.45" shape-rendering="geometricPrecision" transform="matrix(1,0,0,1,-260,328)" stroke-linecap="butt">
      <path fill="none" d="M523.1506 21.4617 Q523.1506 11.4617 533.1506 11.4617 L593.1506 11.4617 Q603.1506 11.4617 603.1506 21.4617 L603.1506 41.4617 Q603.1506 51.4617 593.1506 51.4617 L533.1506 51.4617 Q523.1506 51.4617 523.1506 41.4617 Z" clip-path="url(#clipPath2)"/>
      <text x="542.5266" font-size="14px" y="36.3152" clip-path="url(#clipPath2)" font-family="'Arial'" stroke="none" xml:space="preserve">cPLA2</text>
    </g>
    <g fill="white" text-rendering="geometricPrecision" shape-rendering="geometricPrecision" transform="matrix(1,0,0,1,-260,328) translate(538,43.8552)" stroke="white">
      <rect x="0" y="0" clip-path="url(#clipPath5)" width="18" rx="9" ry="9" height="18" stroke="none"/>
    </g>
    <g text-rendering="geometricPrecision" stroke-miterlimit="1.45" shape-rendering="geometricPrecision" transform="matrix(1,0,0,1,-260,328) translate(538,43.8552)" stroke-linecap="butt">
      <rect x="0" y="0" clip-path="url(#clipPath5)" fill="none" width="18" rx="9" ry="9" height="18"/>
    </g>
    <g fill="white" text-rendering="geometricPrecision" shape-rendering="geometricPrecision" transform="matrix(1,0,0,1,-260,328) translate(574,43.8552)" stroke="white">
      <rect x="0" y="0" clip-path="url(#clipPath6)" width="18" rx="9" ry="9" height="18" stroke="none"/>
    </g>
    <g text-rendering="geometricPrecision" stroke-miterlimit="1.45" shape-rendering="geometricPrecision" transform="matrix(1,0,0,1,-260,328) translate(574,43.8552)" stroke-linecap="butt">
      <rect x="0" y="0" clip-path="url(#clipPath6)" fill="none" width="18" rx="9" ry="9" height="18"/>
      <text x="5.6836" xml:space="preserve" y="13.5352" clip-path="url(#clipPath6)" font-family="sans-serif" stroke="none">P</text>
    </g>
    <g fill="rgb(200,216,235)" text-rendering="geometricPrecision" shape-rendering="geometricPrecision" transform="matrix(1,0,0,1,-260,328)" stroke="rgb(200,216,235)">
      <path d="M440.5166 -86.5383 Q440.5166 -96.5383 450.5166 -96.5383 L510.5166 -96.5383 Q520.5166 -96.5383 520.5166 -86.5383 L520.5166 -66.5383 Q520.5166 -56.5383 510.5166 -56.5383 L450.5166 -56.5383 Q440.5166 -56.5383 440.5166 -66.5383 Z" stroke="none" clip-path="url(#clipPath2)"/>
    </g>
    <g text-rendering="geometricPrecision" stroke-miterlimit="1.45" shape-rendering="geometricPrecision" transform="matrix(1,0,0,1,-260,328)" stroke-linecap="butt">
      <path fill="none" d="M440.5166 -86.5383 Q440.5166 -96.5383 450.5166 -96.5383 L510.5166 -96.5383 Q520.5166 -96.5383 520.5166 -86.5383 L520.5166 -66.5383 Q520.5166 -56.5383 510.5166 -56.5383 L450.5166 -56.5383 Q440.5166 -56.5383 440.5166 -66.5383 Z" clip-path="url(#clipPath2)"/>
      <text x="456.3925" font-size="14px" y="-71.6848" clip-path="url(#clipPath2)" font-family="'Arial'" stroke="none" xml:space="preserve">ERK1/2</text>
    </g>
    <g fill="white" text-rendering="geometricPrecision" shape-rendering="geometricPrecision" transform="matrix(1,0,0,1,-260,328) translate(455.3659,-64.1448)" stroke="white">
      <rect x="0" y="0" clip-path="url(#clipPath7)" width="18" rx="9" ry="9" height="18" stroke="none"/>
    </g>
    <g text-rendering="geometricPrecision" stroke-miterlimit="1.45" shape-rendering="geometricPrecision" transform="matrix(1,0,0,1,-260,328) translate(455.3659,-64.1448)" stroke-linecap="butt">
      <rect x="0" y="0" clip-path="url(#clipPath7)" fill="none" width="18" rx="9" ry="9" height="18"/>
    </g>
    <g fill="white" text-rendering="geometricPrecision" shape-rendering="geometricPrecision" transform="matrix(1,0,0,1,-260,328) translate(491.3659,-64.1448)" stroke="white">
      <rect x="0" y="0" clip-path="url(#clipPath8)" width="18" rx="9" ry="9" height="18" stroke="none"/>
    </g>
    <g text-rendering="geometricPrecision" stroke-miterlimit="1.45" shape-rendering="geometricPrecision" transform="matrix(1,0,0,1,-260,328) translate(491.3659,-64.1448)" stroke-linecap="butt">
      <rect x="0" y="0" clip-path="url(#clipPath8)" fill="none" width="18" rx="9" ry="9" height="18"/>
    </g>
    <g fill="rgb(200,216,235)" text-rendering="geometricPrecision" shape-rendering="geometricPrecision" transform="matrix(1,0,0,1,-260,328)" stroke="rgb(200,216,235)">
      <path d="M523.1506 -194.5383 Q523.1506 -204.5383 533.1506 -204.5383 L593.1506 -204.5383 Q603.1506 -204.5383 603.1506 -194.5383 L603.1506 -174.5383 Q603.1506 -164.5383 593.1506 -164.5383 L533.1506 -164.5383 Q523.1506 -164.5383 523.1506 -174.5383 Z" stroke="none" clip-path="url(#clipPath2)"/>
    </g>
    <g text-rendering="geometricPrecision" stroke-miterlimit="1.45" shape-rendering="geometricPrecision" transform="matrix(1,0,0,1,-260,328)" stroke-linecap="butt">
      <path fill="none" d="M523.1506 -194.5383 Q523.1506 -204.5383 533.1506 -204.5383 L593.1506 -204.5383 Q603.1506 -204.5383 603.1506 -194.5383 L603.1506 -174.5383 Q603.1506 -164.5383 593.1506 -164.5383 L533.1506 -164.5383 Q523.1506 -164.5383 523.1506 -174.5383 Z" clip-path="url(#clipPath2)"/>
      <text x="538.2507" font-size="14px" y="-179.6848" clip-path="url(#clipPath2)" font-family="'Arial'" stroke="none" xml:space="preserve">MEK1/2</text>
    </g>
    <g fill="white" text-rendering="geometricPrecision" shape-rendering="geometricPrecision" transform="matrix(1,0,0,1,-260,328) translate(574,-172.1448)" stroke="white">
      <rect x="0" y="0" clip-path="url(#clipPath9)" width="18" rx="9" ry="9" height="18" stroke="none"/>
    </g>
    <g text-rendering="geometricPrecision" stroke-miterlimit="1.45" shape-rendering="geometricPrecision" transform="matrix(1,0,0,1,-260,328) translate(574,-172.1448)" stroke-linecap="butt">
      <rect x="0" y="0" clip-path="url(#clipPath9)" fill="none" width="18" rx="9" ry="9" height="18"/>
      <text x="5.6836" xml:space="preserve" y="13.5352" clip-path="url(#clipPath9)" font-family="sans-serif" stroke="none">P</text>
    </g>
    <g fill="rgb(200,216,235)" text-rendering="geometricPrecision" shape-rendering="geometricPrecision" transform="matrix(1,0,0,1,-260,328)" stroke="rgb(200,216,235)">
      <path d="M357.8825 -194.5383 Q357.8825 -204.5383 367.8825 -204.5383 L427.8825 -204.5383 Q437.8825 -204.5383 437.8825 -194.5383 L437.8825 -174.5383 Q437.8825 -164.5383 427.8825 -164.5383 L367.8825 -164.5383 Q357.8825 -164.5383 357.8825 -174.5383 Z" stroke="none" clip-path="url(#clipPath2)"/>
    </g>
    <g text-rendering="geometricPrecision" stroke-miterlimit="1.45" shape-rendering="geometricPrecision" transform="matrix(1,0,0,1,-260,328)" stroke-linecap="butt">
      <path fill="none" d="M357.8825 -194.5383 Q357.8825 -204.5383 367.8825 -204.5383 L427.8825 -204.5383 Q437.8825 -204.5383 437.8825 -194.5383 L437.8825 -174.5383 Q437.8825 -164.5383 427.8825 -164.5383 L367.8825 -164.5383 Q357.8825 -164.5383 357.8825 -174.5383 Z" clip-path="url(#clipPath2)"/>
      <text x="372.9826" font-size="14px" y="-179.6848" clip-path="url(#clipPath2)" font-family="'Arial'" stroke="none" xml:space="preserve">MEK1/2</text>
    </g>
    <g fill="white" text-rendering="geometricPrecision" shape-rendering="geometricPrecision" transform="matrix(1,0,0,1,-260,328) translate(408.7319,-172.1448)" stroke="white">
      <rect x="0" y="0" clip-path="url(#clipPath10)" width="18" rx="9" ry="9" height="18" stroke="none"/>
    </g>
    <g text-rendering="geometricPrecision" stroke-miterlimit="1.45" shape-rendering="geometricPrecision" transform="matrix(1,0,0,1,-260,328) translate(408.7319,-172.1448)" stroke-linecap="butt">
      <rect x="0" y="0" clip-path="url(#clipPath10)" fill="none" width="18" rx="9" ry="9" height="18"/>
    </g>
    <g fill="white" text-rendering="geometricPrecision" shape-rendering="geometricPrecision" transform="matrix(1,0,0,1,-260,328)" stroke="white">
      <rect x="636.7847" width="18" height="18" y="22.4617" clip-path="url(#clipPath2)" stroke="none"/>
    </g>
    <g text-rendering="geometricPrecision" stroke-miterlimit="1.45" shape-rendering="geometricPrecision" transform="matrix(1,0,0,1,-260,328)" stroke-linecap="butt">
      <rect fill="none" x="636.7847" width="18" height="18" y="22.4617" clip-path="url(#clipPath2)"/>
    </g>
    <g fill="rgb(200,216,235)" text-rendering="geometricPrecision" shape-rendering="geometricPrecision" transform="matrix(1,0,0,1,-260,328)" stroke="rgb(200,216,235)">
      <path d="M605.7847 -86.5383 Q605.7847 -96.5383 615.7847 -96.5383 L675.7847 -96.5383 Q685.7847 -96.5383 685.7847 -86.5383 L685.7847 -66.5383 Q685.7847 -56.5383 675.7847 -56.5383 L615.7847 -56.5383 Q605.7847 -56.5383 605.7847 -66.5383 Z" stroke="none" clip-path="url(#clipPath2)"/>
    </g>
    <g text-rendering="geometricPrecision" stroke-miterlimit="1.45" shape-rendering="geometricPrecision" transform="matrix(1,0,0,1,-260,328)" stroke-linecap="butt">
      <path fill="none" d="M605.7847 -86.5383 Q605.7847 -96.5383 615.7847 -96.5383 L675.7847 -96.5383 Q685.7847 -96.5383 685.7847 -86.5383 L685.7847 -66.5383 Q685.7847 -56.5383 675.7847 -56.5383 L615.7847 -56.5383 Q605.7847 -56.5383 605.7847 -66.5383 Z" clip-path="url(#clipPath2)"/>
      <text x="621.6606" font-size="14px" y="-71.6848" clip-path="url(#clipPath2)" font-family="'Arial'" stroke="none" xml:space="preserve">ERK1/2</text>
    </g>
    <g fill="white" text-rendering="geometricPrecision" shape-rendering="geometricPrecision" transform="matrix(1,0,0,1,-260,328) translate(620.6341,-64.1448)" stroke="white">
      <rect x="0" y="0" clip-path="url(#clipPath11)" width="18" rx="9" ry="9" height="18" stroke="none"/>
    </g>
    <g text-rendering="geometricPrecision" stroke-miterlimit="1.45" shape-rendering="geometricPrecision" transform="matrix(1,0,0,1,-260,328) translate(620.6341,-64.1448)" stroke-linecap="butt">
      <rect x="0" y="0" clip-path="url(#clipPath11)" fill="none" width="18" rx="9" ry="9" height="18"/>
      <text x="5.6836" xml:space="preserve" y="13.5352" clip-path="url(#clipPath11)" font-family="sans-serif" stroke="none">P</text>
    </g>
    <g fill="white" text-rendering="geometricPrecision" shape-rendering="geometricPrecision" transform="matrix(1,0,0,1,-260,328) translate(656.6341,-64.1448)" stroke="white">
      <rect x="0" y="0" clip-path="url(#clipPath12)" width="18" rx="9" ry="9" height="18" stroke="none"/>
    </g>
    <g text-rendering="geometricPrecision" stroke-miterlimit="1.45" shape-rendering="geometricPrecision" transform="matrix(1,0,0,1,-260,328) translate(656.6341,-64.1448)" stroke-linecap="butt">
      <rect x="0" y="0" clip-path="url(#clipPath12)" fill="none" width="18" rx="9" ry="9" height="18"/>
      <text x="5.6836" xml:space="preserve" y="13.5352" clip-path="url(#clipPath12)" font-family="sans-serif" stroke="none">P</text>
    </g>
    <g fill="white" text-rendering="geometricPrecision" shape-rendering="geometricPrecision" transform="matrix(1,0,0,1,-260,328)" stroke="white">
      <rect x="554.1506" width="18" height="18" y="-85.5383" clip-path="url(#clipPath2)" stroke="none"/>
    </g>
    <g text-rendering="geometricPrecision" stroke-miterlimit="1.45" shape-rendering="geometricPrecision" transform="matrix(1,0,0,1,-260,328)" stroke-linecap="butt">
      <rect fill="none" x="554.1506" width="18" height="18" y="-85.5383" clip-path="url(#clipPath2)"/>
    </g>
    <g fill="white" text-rendering="geometricPrecision" shape-rendering="geometricPrecision" transform="matrix(1,0,0,1,-260,328)" stroke="white">
      <rect x="471.5166" width="18" height="18" y="-193.5383" clip-path="url(#clipPath2)" stroke="none"/>
    </g>
    <g text-rendering="geometricPrecision" stroke-miterlimit="1.45" shape-rendering="geometricPrecision" transform="matrix(1,0,0,1,-260,328)" stroke-linecap="butt">
      <rect fill="none" x="471.5166" width="18" height="18" y="-193.5383" clip-path="url(#clipPath2)"/>
    </g>
    <g fill="rgb(200,216,235)" text-rendering="geometricPrecision" shape-rendering="geometricPrecision" transform="matrix(1,0,0,1,-260,328)" stroke="rgb(200,216,235)">
      <path d="M440.5166 -302.5383 Q440.5166 -312.5383 450.5166 -312.5383 L510.5166 -312.5383 Q520.5166 -312.5383 520.5166 -302.5383 L520.5166 -282.5383 Q520.5166 -272.5383 510.5166 -272.5383 L450.5166 -272.5383 Q440.5166 -272.5383 440.5166 -282.5383 Z" stroke="none" clip-path="url(#clipPath2)"/>
    </g>
    <g text-rendering="geometricPrecision" stroke-miterlimit="1.45" shape-rendering="geometricPrecision" transform="matrix(1,0,0,1,-260,328)" stroke-linecap="butt">
      <path fill="none" d="M440.5166 -302.5383 Q440.5166 -312.5383 450.5166 -312.5383 L510.5166 -312.5383 Q520.5166 -312.5383 520.5166 -302.5383 L520.5166 -282.5383 Q520.5166 -272.5383 510.5166 -272.5383 L450.5166 -272.5383 Q440.5166 -272.5383 440.5166 -282.5383 Z" clip-path="url(#clipPath2)"/>
      <text x="462.6235" font-size="14px" y="-287.6848" clip-path="url(#clipPath2)" font-family="'Arial'" stroke="none" xml:space="preserve">RAF1</text>
    </g>
    <g fill="white" text-rendering="geometricPrecision" shape-rendering="geometricPrecision" transform="matrix(1,0,0,1,-260,328) translate(491.3659,-280.1448)" stroke="white">
      <rect x="0" y="0" clip-path="url(#clipPath13)" width="18" rx="9" ry="9" height="18" stroke="none"/>
    </g>
    <g text-rendering="geometricPrecision" stroke-miterlimit="1.45" shape-rendering="geometricPrecision" transform="matrix(1,0,0,1,-260,328) translate(491.3659,-280.1448)" stroke-linecap="butt">
      <rect x="0" y="0" clip-path="url(#clipPath13)" fill="none" width="18" rx="9" ry="9" height="18"/>
      <text x="5.6836" xml:space="preserve" y="13.5352" clip-path="url(#clipPath13)" font-family="sans-serif" stroke="none">P</text>
    </g>
    <g fill="rgb(200,216,235)" text-rendering="geometricPrecision" shape-rendering="geometricPrecision" transform="matrix(1,0,0,1,-260,328)" stroke="rgb(200,216,235)">
      <path d="M275.2485 -302.5383 Q275.2485 -312.5383 285.2485 -312.5383 L345.2485 -312.5383 Q355.2485 -312.5383 355.2485 -302.5383 L355.2485 -282.5383 Q355.2485 -272.5383 345.2485 -272.5383 L285.2485 -272.5383 Q275.2485 -272.5383 275.2485 -282.5383 Z" stroke="none" clip-path="url(#clipPath2)"/>
    </g>
    <g text-rendering="geometricPrecision" stroke-miterlimit="1.45" shape-rendering="geometricPrecision" transform="matrix(1,0,0,1,-260,328)" stroke-linecap="butt">
      <path fill="none" d="M275.2485 -302.5383 Q275.2485 -312.5383 285.2485 -312.5383 L345.2485 -312.5383 Q355.2485 -312.5383 355.2485 -302.5383 L355.2485 -282.5383 Q355.2485 -272.5383 345.2485 -272.5383 L285.2485 -272.5383 Q275.2485 -272.5383 275.2485 -282.5383 Z" clip-path="url(#clipPath2)"/>
      <text x="297.3554" font-size="14px" y="-287.6848" clip-path="url(#clipPath2)" font-family="'Arial'" stroke="none" xml:space="preserve">RAF1</text>
    </g>
    <g fill="white" text-rendering="geometricPrecision" shape-rendering="geometricPrecision" transform="matrix(1,0,0,1,-260,328) translate(326.0978,-280.1448)" stroke="white">
      <rect x="0" y="0" clip-path="url(#clipPath14)" width="18" rx="9" ry="9" height="18" stroke="none"/>
    </g>
    <g text-rendering="geometricPrecision" stroke-miterlimit="1.45" shape-rendering="geometricPrecision" transform="matrix(1,0,0,1,-260,328) translate(326.0978,-280.1448)" stroke-linecap="butt">
      <rect x="0" y="0" clip-path="url(#clipPath14)" fill="none" width="18" rx="9" ry="9" height="18"/>
    </g>
    <g fill="white" text-rendering="geometricPrecision" shape-rendering="geometricPrecision" transform="matrix(1,0,0,1,-260,328)" stroke="white">
      <rect x="388.8825" width="18" height="18" y="-301.5383" clip-path="url(#clipPath2)" stroke="none"/>
    </g>
    <g text-rendering="geometricPrecision" stroke-miterlimit="1.45" shape-rendering="geometricPrecision" transform="matrix(1,0,0,1,-260,328)" stroke-linecap="butt">
      <rect fill="none" x="388.8825" width="18" height="18" y="-301.5383" clip-path="url(#clipPath2)"/>
    </g>
    <g text-rendering="geometricPrecision" stroke-miterlimit="1.45" shape-rendering="geometricPrecision" transform="matrix(1,0,0,1,-260,328)" stroke-linecap="butt">
      <path fill="none" d="M838.4188 -7.5353 L838.4188 22.436" clip-path="url(#clipPath2)"/>
    </g>
    <g text-rendering="geometricPrecision" stroke-miterlimit="1.45" shape-rendering="geometricPrecision" transform="matrix(1,0,0,1,-260,328)" stroke-linecap="butt">
      <path fill="none" d="M768.3748 31.4617 L818.4188 31.4617" clip-path="url(#clipPath2)"/>
      <path fill="white" d="M826.4188 31.4617 C826.4188 33.6709 824.6279 35.4617 822.4188 35.4617 C820.2096 35.4617 818.4188 33.6709 818.4188 31.4617 C818.4188 29.2526 820.2096 27.4617 822.4188 27.4617 C824.6279 27.4617 826.4188 29.2526 826.4188 31.4617 Z" clip-path="url(#clipPath2)" stroke="none"/>
      <path fill="none" d="M826.4188 31.4617 C826.4188 33.6709 824.6279 35.4617 822.4188 35.4617 C820.2096 35.4617 818.4188 33.6709 818.4188 31.4617 C818.4188 29.2526 820.2096 27.4617 822.4188 27.4617 C824.6279 27.4617 826.4188 29.2526 826.4188 31.4617 Z" clip-path="url(#clipPath2)"/>
      <path fill="none" d="M838.4188 40.4529 L838.4188 59.4735" clip-path="url(#clipPath2)"/>
      <path d="M838.4188 70.4734 L844.4188 58.4734 L832.4188 58.4734 Z" clip-path="url(#clipPath2)" stroke="none"/>
      <path fill="none" d="M838.4188 100.4647 L838.4188 130.4361" clip-path="url(#clipPath2)"/>
      <path fill="none" d="M838.4188 148.4529 L838.4188 167.4734" clip-path="url(#clipPath2)"/>
      <path d="M838.4188 178.4734 L844.4188 166.4734 L832.4188 166.4734 Z" clip-path="url(#clipPath2)" stroke="none"/>
      <path fill="none" d="M773.4251 139.4617 L818.4188 139.4617" clip-path="url(#clipPath2)"/>
      <path fill="white" d="M826.4188 139.4617 C826.4188 141.6709 824.6279 143.4617 822.4188 143.4617 C820.2096 143.4617 818.4188 141.6709 818.4188 139.4617 C818.4188 137.2526 820.2096 135.4617 822.4188 135.4617 C824.6279 135.4617 826.4188 137.2526 826.4188 139.4617 Z" clip-path="url(#clipPath2)" stroke="none"/>
      <path fill="none" d="M826.4188 139.4617 C826.4188 141.6709 824.6279 143.4617 822.4188 143.4617 C820.2096 143.4617 818.4188 141.6709 818.4188 139.4617 C818.4188 137.2526 820.2096 135.4617 822.4188 135.4617 C824.6279 135.4617 826.4188 137.2526 826.4188 139.4617 Z" clip-path="url(#clipPath2)"/>
      <path fill="none" d="M603.1362 31.4617 L636.7469 31.4617" clip-path="url(#clipPath2)"/>
      <path fill="none" d="M654.7824 31.4617 L677.4006 31.4617" clip-path="url(#clipPath2)"/>
      <path d="M688.4006 31.4617 L676.4006 25.4617 L676.4006 37.4617 Z" clip-path="url(#clipPath2)" stroke="none"/>
      <path fill="none" d="M645.7847 -56.5226 L645.7847 11.4617" clip-path="url(#clipPath2)"/>
      <path fill="white" d="M645.7847 19.4617 C643.5755 19.4617 641.7847 17.6709 641.7847 15.4617 C641.7847 13.2526 643.5755 11.4617 645.7847 11.4617 C647.9938 11.4617 649.7847 13.2526 649.7847 15.4617 C649.7847 17.6709 647.9938 19.4617 645.7847 19.4617 Z" clip-path="url(#clipPath2)" stroke="none"/>
      <path fill="none" d="M645.7847 19.4617 C643.5755 19.4617 641.7847 17.6709 641.7847 15.4617 C641.7847 13.2526 643.5755 11.4617 645.7847 11.4617 C647.9938 11.4617 649.7847 13.2526 649.7847 15.4617 C649.7847 17.6709 647.9938 19.4617 645.7847 19.4617 Z" clip-path="url(#clipPath2)"/>
      <path fill="none" d="M520.5021 -76.5383 L554.1128 -76.5383" clip-path="url(#clipPath2)"/>
      <path fill="none" d="M563.1506 -164.5226 L563.1506 -96.5383" clip-path="url(#clipPath2)"/>
      <path fill="white" d="M563.1506 -88.5383 C560.9415 -88.5383 559.1506 -90.3291 559.1506 -92.5383 C559.1506 -94.7474 560.9415 -96.5383 563.1506 -96.5383 C565.3598 -96.5383 567.1506 -94.7474 567.1506 -92.5383 C567.1506 -90.3291 565.3598 -88.5383 563.1506 -88.5383 Z" clip-path="url(#clipPath2)" stroke="none"/>
      <path fill="none" d="M563.1506 -88.5383 C560.9415 -88.5383 559.1506 -90.3291 559.1506 -92.5383 C559.1506 -94.7474 560.9415 -96.5383 563.1506 -96.5383 C565.3598 -96.5383 567.1506 -94.7474 567.1506 -92.5383 C567.1506 -90.3291 565.3598 -88.5383 563.1506 -88.5383 Z" clip-path="url(#clipPath2)"/>
      <path fill="none" d="M572.1484 -76.5383 L594.7665 -76.5383" clip-path="url(#clipPath2)"/>
      <path d="M605.7665 -76.5383 L593.7665 -82.5383 L593.7665 -70.5383 Z" clip-path="url(#clipPath2)" stroke="none"/>
      <path fill="none" d="M437.868 -184.5383 L471.4788 -184.5383" clip-path="url(#clipPath2)"/>
      <path fill="none" d="M489.5143 -184.5383 L512.1324 -184.5383" clip-path="url(#clipPath2)"/>
      <path d="M523.1324 -184.5383 L511.1324 -190.5383 L511.1324 -178.5383 Z" clip-path="url(#clipPath2)" stroke="none"/>
      <path fill="none" d="M480.5166 -272.5226 L480.5166 -204.5383" clip-path="url(#clipPath2)"/>
      <path fill="white" d="M480.5166 -196.5383 C478.3074 -196.5383 476.5166 -198.3291 476.5166 -200.5383 C476.5166 -202.7474 478.3074 -204.5383 480.5166 -204.5383 C482.7257 -204.5383 484.5166 -202.7474 484.5166 -200.5383 C484.5166 -198.3291 482.7257 -196.5383 480.5166 -196.5383 Z" clip-path="url(#clipPath2)" stroke="none"/>
      <path fill="none" d="M480.5166 -196.5383 C478.3074 -196.5383 476.5166 -198.3291 476.5166 -200.5383 C476.5166 -202.7474 478.3074 -204.5383 480.5166 -204.5383 C482.7257 -204.5383 484.5166 -202.7474 484.5166 -200.5383 C484.5166 -198.3291 482.7257 -196.5383 480.5166 -196.5383 Z" clip-path="url(#clipPath2)"/>
      <path fill="none" d="M355.234 -292.5383 L388.8447 -292.5383" clip-path="url(#clipPath2)"/>
      <path fill="none" d="M406.8803 -292.5383 L429.4984 -292.5383" clip-path="url(#clipPath2)"/>
      <path d="M440.4984 -292.5383 L428.4984 -298.5383 L428.4984 -286.5383 Z" clip-path="url(#clipPath2)" stroke="none"/>
    </g>
  </g>
</svg>
