<?xml version="1.0" encoding="UTF-8"?><svg xmlns="http://www.w3.org/2000/svg" xmlns:xlink="http://www.w3.org/1999/xlink" fill-opacity="1" color-rendering="auto" color-interpolation="auto" text-rendering="auto" stroke="black" stroke-linecap="square" width="917" stroke-miterlimit="10" shape-rendering="auto" stroke-opacity="1" fill="black" stroke-dasharray="none" font-weight="normal" stroke-width="1" height="409" font-family="'Dialog'" font-style="normal" stroke-linejoin="miter" font-size="12px" stroke-dashoffset="0" image-rendering="auto">
  <!--Generated by ySVG 2.5-->
  <defs id="genericDefs"/>
  <g>
    <defs id="defs1">
      <clipPath clipPathUnits="userSpaceOnUse" id="clipPath1">
        <path d="M0 0 L917 0 L917 409 L0 409 L0 0 Z"/>
      </clipPath>
      <clipPath clipPathUnits="userSpaceOnUse" id="clipPath2">
        <path d="M-217 -140 L700 -140 L700 269 L-217 269 L-217 -140 Z"/>
      </clipPath>
      <clipPath clipPathUnits="userSpaceOnUse" id="clipPath3">
        <path d="M-281.4403 -291.9266 L635.5597 -291.9266 L635.5597 117.0734 L-281.4403 117.0734 L-281.4403 -291.9266 Z"/>
      </clipPath>
      <clipPath clipPathUnits="userSpaceOnUse" id="clipPath4">
        <path d="M-267.0028 -332.2038 L649.9972 -332.2038 L649.9972 76.7962 L-267.0028 76.7962 L-267.0028 -332.2038 Z"/>
      </clipPath>
      <clipPath clipPathUnits="userSpaceOnUse" id="clipPath5">
        <path d="M-422.9962 -158.3391 L494.0038 -158.3391 L494.0038 250.6609 L-422.9962 250.6609 L-422.9962 -158.3391 Z"/>
      </clipPath>
      <clipPath clipPathUnits="userSpaceOnUse" id="clipPath6">
        <path d="M-370.1351 -97.6774 L546.8649 -97.6774 L546.8649 311.3226 L-370.1351 311.3226 L-370.1351 -97.6774 Z"/>
      </clipPath>
      <clipPath clipPathUnits="userSpaceOnUse" id="clipPath7">
        <path d="M-81.5526 -96.8065 L835.4474 -96.8065 L835.4474 312.1935 L-81.5526 312.1935 L-81.5526 -96.8065 Z"/>
      </clipPath>
      <clipPath clipPathUnits="userSpaceOnUse" id="clipPath8">
        <path d="M-134.4137 -157.4682 L782.5863 -157.4682 L782.5863 251.5318 L-134.4137 251.5318 L-134.4137 -157.4682 Z"/>
      </clipPath>
      <clipPath clipPathUnits="userSpaceOnUse" id="clipPath9">
        <path d="M-703.5914 -16.2744 L213.4087 -16.2744 L213.4087 392.7256 L-703.5914 392.7256 L-703.5914 -16.2744 Z"/>
      </clipPath>
      <clipPath clipPathUnits="userSpaceOnUse" id="clipPath10">
        <path d="M-487.7049 -291.9266 L429.2951 -291.9266 L429.2951 117.0734 L-487.7049 117.0734 L-487.7049 -291.9266 Z"/>
      </clipPath>
      <clipPath clipPathUnits="userSpaceOnUse" id="clipPath11">
        <path d="M-473.2674 -332.2038 L443.7326 -332.2038 L443.7326 76.7962 L-473.2674 76.7962 L-473.2674 -332.2038 Z"/>
      </clipPath>
    </defs>
    <g fill="white" text-rendering="geometricPrecision" shape-rendering="geometricPrecision" transform="translate(217,140)" stroke="white">
      <rect x="-217" width="917" height="409" y="-140" clip-path="url(#clipPath2)" stroke="none"/>
    </g>
    <g fill="rgb(226,172,163)" text-rendering="geometricPrecision" shape-rendering="geometricPrecision" transform="matrix(1,0,0,1,217,140)" stroke="rgb(226,172,163)">
      <path d="M48.5028 161.2195 Q38.5028 161.2195 38.5028 171.2195 L38.5028 191.2195 Q38.5028 199.2195 44.9028 200.8195 L44.9028 200.8195 Q46.5028 207.2195 54.5028 207.2195 L114.5028 207.2195 Q124.5028 207.2195 124.5028 197.2195 L124.5028 177.2195 Q124.5028 169.2195 118.1028 167.6195 L118.1028 167.6195 Q116.5028 161.2195 108.5028 161.2195 Z" stroke="none" clip-path="url(#clipPath2)"/>
    </g>
    <g text-rendering="geometricPrecision" stroke-miterlimit="1.45" shape-rendering="geometricPrecision" transform="matrix(1,0,0,1,217,140)" stroke-linecap="butt">
      <path fill="none" d="M118.1028 167.6195 Q118.5028 169.2195 118.5028 171.2195 L118.5028 191.2195 Q118.5028 201.2195 108.5028 201.2195 L48.5028 201.2195 Q46.5028 201.2195 44.9028 200.8195 L44.9028 200.8195 Q46.5028 207.2195 54.5028 207.2195 L114.5028 207.2195 Q124.5028 207.2195 124.5028 197.2195 L124.5028 177.2195 Q124.5028 169.2195 118.1028 167.6195 Z" clip-path="url(#clipPath2)"/>
      <path fill="none" d="M48.5028 161.2195 Q38.5028 161.2195 38.5028 171.2195 L38.5028 191.2195 Q38.5028 201.2195 48.5028 201.2195 L108.5028 201.2195 Q118.5028 201.2195 118.5028 191.2195 L118.5028 171.2195 Q118.5028 161.2195 108.5028 161.2195 Z" clip-path="url(#clipPath2)"/>
      <text x="52.0614" font-size="14px" y="186.073" clip-path="url(#clipPath2)" font-family="'Arial'" stroke="none" xml:space="preserve">HMGCR</text>
    </g>
    <g fill="white" text-rendering="geometricPrecision" shape-rendering="geometricPrecision" transform="matrix(1,0,0,1,217,140) translate(64.4403,151.9266)" stroke="white">
      <rect x="0" width="28" height="15.7773" y="0" clip-path="url(#clipPath3)" stroke="none"/>
    </g>
    <g text-rendering="geometricPrecision" stroke-miterlimit="1.45" shape-rendering="geometricPrecision" font-family="sans-serif" transform="matrix(1,0,0,1,217,140) translate(64.4403,151.9266)" stroke-linecap="butt">
      <text x="3.875" xml:space="preserve" y="12.4238" clip-path="url(#clipPath3)" stroke="none">N:4</text>
      <rect fill="none" x="0" width="28" height="15.7773" y="0" clip-path="url(#clipPath3)"/>
    </g>
    <g fill="white" text-rendering="geometricPrecision" shape-rendering="geometricPrecision" transform="matrix(1,0,0,1,217,140) translate(50.0028,192.2038)" stroke="white">
      <rect x="0" y="0" clip-path="url(#clipPath4)" width="57.3331" rx="9" ry="9" height="18" stroke="none"/>
    </g>
    <g text-rendering="geometricPrecision" stroke-miterlimit="1.45" shape-rendering="geometricPrecision" transform="matrix(1,0,0,1,217,140) translate(50.0028,192.2038)" stroke-linecap="butt">
      <rect x="0" y="0" clip-path="url(#clipPath4)" fill="none" width="57.3331" rx="9" ry="9" height="18"/>
      <text x="5.5865" xml:space="preserve" y="13.5352" clip-path="url(#clipPath4)" font-family="sans-serif" stroke="none">P@S872</text>
    </g>
    <g fill="white" text-rendering="geometricPrecision" shape-rendering="geometricPrecision" transform="matrix(1,0,0,1,217,140)" stroke="white">
      <path d="M99.274 -86.9974 L263.9962 -86.9974 L275.9962 -74.9974 L275.9962 39.2727 L263.9962 51.2727 L99.274 51.2727 L87.274 39.2727 L87.274 -74.9974 Z" stroke="none" clip-path="url(#clipPath2)"/>
    </g>
    <g text-rendering="geometricPrecision" stroke-miterlimit="1.45" shape-rendering="geometricPrecision" transform="matrix(1,0,0,1,217,140)" stroke-linecap="butt">
      <path fill="none" d="M99.274 -86.9974 L263.9962 -86.9974 L275.9962 -74.9974 L275.9962 39.2727 L263.9962 51.2727 L99.274 51.2727 L87.274 39.2727 L87.274 -74.9974 Z" clip-path="url(#clipPath2)"/>
    </g>
    <g fill="rgb(200,216,235)" text-rendering="geometricPrecision" shape-rendering="geometricPrecision" transform="matrix(1,0,0,1,217,140)" stroke="rgb(200,216,235)">
      <path d="M97.274 -3.2627 Q97.274 -13.2627 107.274 -13.2627 L167.274 -13.2627 Q177.274 -13.2627 177.274 -3.2627 L177.274 16.7373 Q177.274 26.7373 167.274 26.7373 L107.274 26.7373 Q97.274 26.7373 97.274 16.7373 Z" stroke="none" clip-path="url(#clipPath2)"/>
    </g>
    <g text-rendering="geometricPrecision" stroke-miterlimit="1.45" shape-rendering="geometricPrecision" transform="matrix(1,0,0,1,217,140)" stroke-linecap="butt">
      <path fill="none" d="M97.274 -3.2627 Q97.274 -13.2627 107.274 -13.2627 L167.274 -13.2627 Q177.274 -13.2627 177.274 -3.2627 L177.274 16.7373 Q177.274 26.7373 167.274 26.7373 L107.274 26.7373 Q97.274 26.7373 97.274 16.7373 Z" clip-path="url(#clipPath2)"/>
      <text x="113.4098" font-size="14px" y="11.5908" clip-path="url(#clipPath2)" font-family="'Arial'" stroke="none" xml:space="preserve">AMPKβ</text>
    </g>
    <g fill="rgb(200,216,235)" text-rendering="geometricPrecision" shape-rendering="geometricPrecision" transform="matrix(1,0,0,1,217,140)" stroke="rgb(200,216,235)">
      <path d="M185.9962 -3.2627 Q185.9962 -13.2627 195.9962 -13.2627 L255.9962 -13.2627 Q265.9962 -13.2627 265.9962 -3.2627 L265.9962 16.7373 Q265.9962 26.7373 255.9962 26.7373 L195.9962 26.7373 Q185.9962 26.7373 185.9962 16.7373 Z" stroke="none" clip-path="url(#clipPath2)"/>
    </g>
    <g text-rendering="geometricPrecision" stroke-miterlimit="1.45" shape-rendering="geometricPrecision" transform="matrix(1,0,0,1,217,140)" stroke-linecap="butt">
      <path fill="none" d="M185.9962 -3.2627 Q185.9962 -13.2627 195.9962 -13.2627 L255.9962 -13.2627 Q265.9962 -13.2627 265.9962 -3.2627 L265.9962 16.7373 Q265.9962 26.7373 255.9962 26.7373 L195.9962 26.7373 Q185.9962 26.7373 185.9962 16.7373 Z" clip-path="url(#clipPath2)"/>
      <text x="202.6583" font-size="14px" y="11.5908" clip-path="url(#clipPath2)" font-family="'Arial'" stroke="none" xml:space="preserve">AMPKγ</text>
    </g>
    <g fill="white" text-rendering="geometricPrecision" shape-rendering="geometricPrecision" transform="matrix(1,0,0,1,217,140) translate(205.9962,18.3391)" stroke="white">
      <rect x="0" y="0" clip-path="url(#clipPath5)" width="40" rx="9" ry="9" height="18" stroke="none"/>
    </g>
    <g text-rendering="geometricPrecision" stroke-miterlimit="1.45" shape-rendering="geometricPrecision" transform="matrix(1,0,0,1,217,140) translate(205.9962,18.3391)" stroke-linecap="butt">
      <rect x="0" y="0" clip-path="url(#clipPath5)" fill="none" width="40" rx="9" ry="9" height="18"/>
      <text x="7.376" xml:space="preserve" y="13.5352" clip-path="url(#clipPath5)" font-family="sans-serif" stroke="none">AMP</text>
    </g>
    <g fill="rgb(200,216,235)" text-rendering="geometricPrecision" shape-rendering="geometricPrecision" transform="matrix(1,0,0,1,217,140)" stroke="rgb(200,216,235)">
      <path d="M141.6351 -64.0521 Q141.6351 -74.0521 151.6351 -74.0521 L211.6351 -74.0521 Q221.6351 -74.0521 221.6351 -64.0521 L221.6351 -44.0521 Q221.6351 -34.0521 211.6351 -34.0521 L151.6351 -34.0521 Q141.6351 -34.0521 141.6351 -44.0521 Z" stroke="none" clip-path="url(#clipPath2)"/>
    </g>
    <g text-rendering="geometricPrecision" stroke-miterlimit="1.45" shape-rendering="geometricPrecision" transform="matrix(1,0,0,1,217,140)" stroke-linecap="butt">
      <path fill="none" d="M141.6351 -64.0521 Q141.6351 -74.0521 151.6351 -74.0521 L211.6351 -74.0521 Q221.6351 -74.0521 221.6351 -64.0521 L221.6351 -44.0521 Q221.6351 -34.0521 211.6351 -34.0521 L151.6351 -34.0521 Q141.6351 -34.0521 141.6351 -44.0521 Z" clip-path="url(#clipPath2)"/>
      <text x="157.7504" font-size="14px" y="-49.1986" clip-path="url(#clipPath2)" font-family="'Arial'" stroke="none" xml:space="preserve">AMPKα</text>
    </g>
    <g fill="white" text-rendering="geometricPrecision" shape-rendering="geometricPrecision" transform="matrix(1,0,0,1,217,140) translate(153.1351,-42.3226)" stroke="white">
      <rect x="0" y="0" clip-path="url(#clipPath6)" width="57.3331" rx="9" ry="9" height="18" stroke="none"/>
    </g>
    <g text-rendering="geometricPrecision" stroke-miterlimit="1.45" shape-rendering="geometricPrecision" transform="matrix(1,0,0,1,217,140) translate(153.1351,-42.3226)" stroke-linecap="butt">
      <rect x="0" y="0" clip-path="url(#clipPath6)" fill="none" width="57.3331" rx="9" ry="9" height="18"/>
      <text x="5.173" xml:space="preserve" y="13.5352" clip-path="url(#clipPath6)" font-family="sans-serif" stroke="none">P@S171</text>
    </g>
    <g fill="white" text-rendering="geometricPrecision" shape-rendering="geometricPrecision" transform="matrix(1,0,0,1,217,140)" stroke="white">
      <rect x="28.3439" width="18" height="18" y="-27.7332" clip-path="url(#clipPath2)" stroke="none"/>
    </g>
    <g text-rendering="geometricPrecision" stroke-miterlimit="1.45" shape-rendering="geometricPrecision" transform="matrix(1,0,0,1,217,140)" stroke-linecap="butt">
      <rect fill="none" x="28.3439" width="18" height="18" y="-27.7332" clip-path="url(#clipPath2)"/>
    </g>
    <g text-rendering="geometricPrecision" stroke-miterlimit="1.45" shape-rendering="geometricPrecision" transform="matrix(1,0,0,1,217,140)" stroke-linecap="butt">
      <path fill="none" d="M46.3268 -18.679 L76.2565 -18.4983" clip-path="url(#clipPath2)"/>
    </g>
    <g text-rendering="geometricPrecision" stroke-miterlimit="1.45" shape-rendering="geometricPrecision" transform="matrix(1,0,0,1,217,140)" stroke-linecap="butt">
      <path d="M87.2563 -18.432 L75.2927 -24.5043 L75.2203 -12.5045 Z" stroke="none" clip-path="url(#clipPath2)"/>
    </g>
    <g fill="white" text-rendering="geometricPrecision" shape-rendering="geometricPrecision" transform="matrix(1,0,0,1,217,140)" stroke="white">
      <path d="M-189.3085 -87.8682 L-24.5863 -87.8682 L-12.5863 -75.8682 L-12.5863 38.4018 L-24.5863 50.4018 L-189.3085 50.4018 L-201.3085 38.4018 L-201.3085 -75.8682 Z" stroke="none" clip-path="url(#clipPath2)"/>
    </g>
    <g text-rendering="geometricPrecision" stroke-miterlimit="1.45" shape-rendering="geometricPrecision" transform="matrix(1,0,0,1,217,140)" stroke-linecap="butt">
      <path fill="none" d="M-189.3085 -87.8682 L-24.5863 -87.8682 L-12.5863 -75.8682 L-12.5863 38.4018 L-24.5863 50.4018 L-189.3085 50.4018 L-201.3085 38.4018 L-201.3085 -75.8682 Z" clip-path="url(#clipPath2)"/>
    </g>
    <g fill="rgb(200,216,235)" text-rendering="geometricPrecision" shape-rendering="geometricPrecision" transform="matrix(1,0,0,1,217,140)" stroke="rgb(200,216,235)">
      <path d="M-191.3085 -4.1335 Q-191.3085 -14.1335 -181.3085 -14.1335 L-121.3085 -14.1335 Q-111.3085 -14.1335 -111.3085 -4.1335 L-111.3085 15.8665 Q-111.3085 25.8665 -121.3085 25.8665 L-181.3085 25.8665 Q-191.3085 25.8665 -191.3085 15.8665 Z" stroke="none" clip-path="url(#clipPath2)"/>
    </g>
    <g text-rendering="geometricPrecision" stroke-miterlimit="1.45" shape-rendering="geometricPrecision" transform="matrix(1,0,0,1,217,140)" stroke-linecap="butt">
      <path fill="none" d="M-191.3085 -4.1335 Q-191.3085 -14.1335 -181.3085 -14.1335 L-121.3085 -14.1335 Q-111.3085 -14.1335 -111.3085 -4.1335 L-111.3085 15.8665 Q-111.3085 25.8665 -121.3085 25.8665 L-181.3085 25.8665 Q-191.3085 25.8665 -191.3085 15.8665 Z" clip-path="url(#clipPath2)"/>
      <text x="-175.1727" font-size="14px" y="10.72" clip-path="url(#clipPath2)" font-family="'Arial'" stroke="none" xml:space="preserve">AMPKβ</text>
    </g>
    <g fill="rgb(200,216,235)" text-rendering="geometricPrecision" shape-rendering="geometricPrecision" transform="matrix(1,0,0,1,217,140)" stroke="rgb(200,216,235)">
      <path d="M-146.9474 -64.923 Q-146.9474 -74.923 -136.9474 -74.923 L-76.9474 -74.923 Q-66.9474 -74.923 -66.9474 -64.923 L-66.9474 -44.923 Q-66.9474 -34.923 -76.9474 -34.923 L-136.9474 -34.923 Q-146.9474 -34.923 -146.9474 -44.923 Z" stroke="none" clip-path="url(#clipPath2)"/>
    </g>
    <g text-rendering="geometricPrecision" stroke-miterlimit="1.45" shape-rendering="geometricPrecision" transform="matrix(1,0,0,1,217,140)" stroke-linecap="butt">
      <path fill="none" d="M-146.9474 -64.923 Q-146.9474 -74.923 -136.9474 -74.923 L-76.9474 -74.923 Q-66.9474 -74.923 -66.9474 -64.923 L-66.9474 -44.923 Q-66.9474 -34.923 -76.9474 -34.923 L-136.9474 -34.923 Q-146.9474 -34.923 -146.9474 -44.923 Z" clip-path="url(#clipPath2)"/>
      <text x="-130.8321" font-size="14px" y="-50.0695" clip-path="url(#clipPath2)" font-family="'Arial'" stroke="none" xml:space="preserve">AMPKα</text>
    </g>
    <g fill="white" text-rendering="geometricPrecision" shape-rendering="geometricPrecision" transform="matrix(1,0,0,1,217,140) translate(-135.4474,-43.1935)" stroke="white">
      <rect x="0" y="0" clip-path="url(#clipPath7)" width="57.3331" rx="9" ry="9" height="18" stroke="none"/>
    </g>
    <g text-rendering="geometricPrecision" stroke-miterlimit="1.45" shape-rendering="geometricPrecision" transform="matrix(1,0,0,1,217,140) translate(-135.4474,-43.1935)" stroke-linecap="butt">
      <rect x="0" y="0" clip-path="url(#clipPath7)" fill="none" width="57.3331" rx="9" ry="9" height="18"/>
      <text x="5.173" xml:space="preserve" y="13.5352" clip-path="url(#clipPath7)" font-family="sans-serif" stroke="none">P@S171</text>
    </g>
    <g fill="rgb(200,216,235)" text-rendering="geometricPrecision" shape-rendering="geometricPrecision" transform="matrix(1,0,0,1,217,140)" stroke="rgb(200,216,235)">
      <path d="M-102.5863 -4.1335 Q-102.5863 -14.1335 -92.5863 -14.1335 L-32.5863 -14.1335 Q-22.5863 -14.1335 -22.5863 -4.1335 L-22.5863 15.8665 Q-22.5863 25.8665 -32.5863 25.8665 L-92.5863 25.8665 Q-102.5863 25.8665 -102.5863 15.8665 Z" stroke="none" clip-path="url(#clipPath2)"/>
    </g>
    <g text-rendering="geometricPrecision" stroke-miterlimit="1.45" shape-rendering="geometricPrecision" transform="matrix(1,0,0,1,217,140)" stroke-linecap="butt">
      <path fill="none" d="M-102.5863 -4.1335 Q-102.5863 -14.1335 -92.5863 -14.1335 L-32.5863 -14.1335 Q-22.5863 -14.1335 -22.5863 -4.1335 L-22.5863 15.8665 Q-22.5863 25.8665 -32.5863 25.8665 L-92.5863 25.8665 Q-102.5863 25.8665 -102.5863 15.8665 Z" clip-path="url(#clipPath2)"/>
      <text x="-85.9242" font-size="14px" y="10.72" clip-path="url(#clipPath2)" font-family="'Arial'" stroke="none" xml:space="preserve">AMPKγ</text>
    </g>
    <g fill="white" text-rendering="geometricPrecision" shape-rendering="geometricPrecision" transform="matrix(1,0,0,1,217,140) translate(-82.5863,17.4682)" stroke="white">
      <rect x="0" y="0" clip-path="url(#clipPath8)" width="40" rx="9" ry="9" height="18" stroke="none"/>
    </g>
    <g text-rendering="geometricPrecision" stroke-miterlimit="1.45" shape-rendering="geometricPrecision" transform="matrix(1,0,0,1,217,140) translate(-82.5863,17.4682)" stroke-linecap="butt">
      <rect x="0" y="0" clip-path="url(#clipPath8)" fill="none" width="40" rx="9" ry="9" height="18"/>
      <text x="8.75" xml:space="preserve" y="13.5352" clip-path="url(#clipPath8)" font-family="sans-serif" stroke="none">ATP</text>
    </g>
    <g fill="rgb(200,216,235)" text-rendering="geometricPrecision" shape-rendering="geometricPrecision" transform="matrix(1,0,0,1,217,140)" stroke="rgb(200,216,235)">
      <path d="M470.6538 -114.4326 Q460.6538 -114.4326 460.6538 -104.4326 L460.6538 -84.4326 Q460.6538 -76.4326 467.0538 -74.8326 L467.0538 -74.8326 Q468.6538 -68.4326 476.6538 -68.4326 L536.6539 -68.4326 Q546.6539 -68.4326 546.6539 -78.4326 L546.6539 -98.4326 Q546.6539 -106.4326 540.2538 -108.0326 L540.2538 -108.0326 Q538.6539 -114.4326 530.6539 -114.4326 Z" stroke="none" clip-path="url(#clipPath2)"/>
    </g>
    <g text-rendering="geometricPrecision" stroke-miterlimit="1.45" shape-rendering="geometricPrecision" transform="matrix(1,0,0,1,217,140)" stroke-linecap="butt">
      <path fill="none" d="M540.2538 -108.0326 Q540.6539 -106.4326 540.6539 -104.4326 L540.6539 -84.4326 Q540.6539 -74.4326 530.6539 -74.4326 L470.6538 -74.4326 Q468.6538 -74.4326 467.0538 -74.8326 L467.0538 -74.8326 Q468.6538 -68.4326 476.6538 -68.4326 L536.6539 -68.4326 Q546.6539 -68.4326 546.6539 -78.4326 L546.6539 -98.4326 Q546.6539 -106.4326 540.2538 -108.0326 Z" clip-path="url(#clipPath2)"/>
      <path fill="none" d="M470.6538 -114.4326 Q460.6538 -114.4326 460.6538 -104.4326 L460.6538 -84.4326 Q460.6538 -74.4326 470.6538 -74.4326 L530.6539 -74.4326 Q540.6539 -74.4326 540.6539 -84.4326 L540.6539 -104.4326 Q540.6539 -114.4326 530.6539 -114.4326 Z" clip-path="url(#clipPath2)"/>
      <text x="472.2539" font-size="14px" y="-89.5791" clip-path="url(#clipPath2)" font-family="'Arial'" stroke="none" xml:space="preserve">ACAT1/2</text>
    </g>
    <g fill="white" text-rendering="geometricPrecision" shape-rendering="geometricPrecision" transform="matrix(1,0,0,1,217,140) translate(486.5913,-123.7256)" stroke="white">
      <rect x="0" width="28" height="15.7773" y="0" clip-path="url(#clipPath9)" stroke="none"/>
    </g>
    <g text-rendering="geometricPrecision" stroke-miterlimit="1.45" shape-rendering="geometricPrecision" font-family="sans-serif" transform="matrix(1,0,0,1,217,140) translate(486.5913,-123.7256)" stroke-linecap="butt">
      <text x="3.875" xml:space="preserve" y="12.4238" clip-path="url(#clipPath9)" stroke="none">N:4</text>
      <rect fill="none" x="0" width="28" height="15.7773" y="0" clip-path="url(#clipPath9)"/>
    </g>
    <g fill="rgb(226,172,163)" text-rendering="geometricPrecision" shape-rendering="geometricPrecision" transform="matrix(1,0,0,1,217,140)" stroke="rgb(226,172,163)">
      <path d="M254.7674 161.2195 Q244.7674 161.2195 244.7674 171.2195 L244.7674 191.2195 Q244.7674 199.2195 251.1674 200.8195 L251.1674 200.8195 Q252.7674 207.2195 260.7674 207.2195 L320.7674 207.2195 Q330.7674 207.2195 330.7674 197.2195 L330.7674 177.2195 Q330.7674 169.2195 324.3674 167.6195 L324.3674 167.6195 Q322.7674 161.2195 314.7674 161.2195 Z" stroke="none" clip-path="url(#clipPath2)"/>
    </g>
    <g text-rendering="geometricPrecision" stroke-miterlimit="1.45" shape-rendering="geometricPrecision" transform="matrix(1,0,0,1,217,140)" stroke-linecap="butt">
      <path fill="none" d="M324.3674 167.6195 Q324.7674 169.2195 324.7674 171.2195 L324.7674 191.2195 Q324.7674 201.2195 314.7674 201.2195 L254.7674 201.2195 Q252.7674 201.2195 251.1674 200.8195 L251.1674 200.8195 Q252.7674 207.2195 260.7674 207.2195 L320.7674 207.2195 Q330.7674 207.2195 330.7674 197.2195 L330.7674 177.2195 Q330.7674 169.2195 324.3674 167.6195 Z" clip-path="url(#clipPath2)"/>
      <path fill="none" d="M254.7674 161.2195 Q244.7674 161.2195 244.7674 171.2195 L244.7674 191.2195 Q244.7674 201.2195 254.7674 201.2195 L314.7674 201.2195 Q324.7674 201.2195 324.7674 191.2195 L324.7674 171.2195 Q324.7674 161.2195 314.7674 161.2195 Z" clip-path="url(#clipPath2)"/>
      <text x="258.326" font-size="14px" y="186.073" clip-path="url(#clipPath2)" font-family="'Arial'" stroke="none" xml:space="preserve">HMGCR</text>
    </g>
    <g fill="white" text-rendering="geometricPrecision" shape-rendering="geometricPrecision" transform="matrix(1,0,0,1,217,140) translate(270.7049,151.9266)" stroke="white">
      <rect x="0" width="28" height="15.7773" y="0" clip-path="url(#clipPath10)" stroke="none"/>
    </g>
    <g text-rendering="geometricPrecision" stroke-miterlimit="1.45" shape-rendering="geometricPrecision" font-family="sans-serif" transform="matrix(1,0,0,1,217,140) translate(270.7049,151.9266)" stroke-linecap="butt">
      <text x="3.875" xml:space="preserve" y="12.4238" clip-path="url(#clipPath10)" stroke="none">N:4</text>
      <rect fill="none" x="0" width="28" height="15.7773" y="0" clip-path="url(#clipPath10)"/>
    </g>
    <g fill="white" text-rendering="geometricPrecision" shape-rendering="geometricPrecision" transform="matrix(1,0,0,1,217,140) translate(256.2674,192.2038)" stroke="white">
      <rect x="0" y="0" clip-path="url(#clipPath11)" width="57.3331" rx="9" ry="9" height="18" stroke="none"/>
    </g>
    <g text-rendering="geometricPrecision" stroke-miterlimit="1.45" shape-rendering="geometricPrecision" transform="matrix(1,0,0,1,217,140) translate(256.2674,192.2038)" stroke-linecap="butt">
      <rect x="0" y="0" clip-path="url(#clipPath11)" fill="none" width="57.3331" rx="9" ry="9" height="18"/>
      <text x="5.106" xml:space="preserve" y="13.5352" clip-path="url(#clipPath11)" font-family="sans-serif" stroke="none">  @S872</text>
    </g>
    <g fill="white" text-rendering="geometricPrecision" shape-rendering="geometricPrecision" transform="matrix(1,0,0,1,217,140)" stroke="white">
      <circle r="15" clip-path="url(#clipPath2)" cx="181.6351" cy="106.2461" stroke="none"/>
    </g>
    <g text-rendering="geometricPrecision" stroke-miterlimit="1.45" shape-rendering="geometricPrecision" transform="matrix(1,0,0,1,217,140)" stroke-linecap="butt">
      <circle fill="none" r="15" clip-path="url(#clipPath2)" cx="181.6351" cy="106.2461"/>
      <text x="172.6351" xml:space="preserve" y="110.4063" clip-path="url(#clipPath2)" font-family="'Arial'" stroke="none">OR</text>
    </g>
    <g fill="white" text-rendering="geometricPrecision" shape-rendering="geometricPrecision" transform="matrix(1,0,0,1,217,140)" stroke="white">
      <rect x="172.6351" width="18" height="18" y="161.2195" clip-path="url(#clipPath2)" stroke="none"/>
    </g>
    <g text-rendering="geometricPrecision" stroke-miterlimit="1.45" shape-rendering="geometricPrecision" transform="matrix(1,0,0,1,217,140)" stroke-linecap="butt">
      <rect fill="none" x="172.6351" width="18" height="18" y="161.2195" clip-path="url(#clipPath2)"/>
    </g>
    <g fill="white" text-rendering="geometricPrecision" shape-rendering="geometricPrecision" transform="matrix(1,0,0,1,217,140)" stroke="white">
      <rect x="172.6351" width="18" height="18" y="190.8863" clip-path="url(#clipPath2)" stroke="none"/>
    </g>
    <g text-rendering="geometricPrecision" stroke-miterlimit="1.45" shape-rendering="geometricPrecision" transform="matrix(1,0,0,1,217,140)" stroke-linecap="butt">
      <rect fill="none" x="172.6351" width="18" height="18" y="190.8863" clip-path="url(#clipPath2)"/>
    </g>
    <g fill="rgb(219,235,219)" text-rendering="geometricPrecision" shape-rendering="geometricPrecision" transform="matrix(1,0,0,1,217,140)" stroke="rgb(219,235,219)">
      <rect x="316.9264" y="-23.7269" clip-path="url(#clipPath2)" width="130" rx="15" ry="15" height="30" stroke="none"/>
    </g>
    <g text-rendering="geometricPrecision" stroke-miterlimit="1.45" shape-rendering="geometricPrecision" transform="matrix(1,0,0,1,217,140)" stroke-linecap="butt">
      <rect x="316.9264" y="-23.7269" clip-path="url(#clipPath2)" fill="none" width="130" rx="15" ry="15" height="30"/>
      <text x="346.9161" font-size="14px" y="-3.8734" clip-path="url(#clipPath2)" font-family="'Arial'" stroke="none" xml:space="preserve">Acetyl-CoA</text>
    </g>
    <g fill="rgb(219,235,219)" text-rendering="geometricPrecision" shape-rendering="geometricPrecision" transform="matrix(1,0,0,1,217,140)" stroke="rgb(219,235,219)">
      <rect x="554.3813" y="-23.7269" clip-path="url(#clipPath2)" width="130" rx="15" ry="15" height="30" stroke="none"/>
    </g>
    <g text-rendering="geometricPrecision" stroke-miterlimit="1.45" shape-rendering="geometricPrecision" transform="matrix(1,0,0,1,217,140)" stroke-linecap="butt">
      <rect x="554.3813" y="-23.7269" clip-path="url(#clipPath2)" fill="none" width="130" rx="15" ry="15" height="30"/>
      <text x="567.2471" font-size="14px" y="-3.8734" clip-path="url(#clipPath2)" font-family="'Arial'" stroke="none" xml:space="preserve">Acetoacetyl-CoA</text>
    </g>
    <g fill="white" text-rendering="geometricPrecision" shape-rendering="geometricPrecision" transform="matrix(1,0,0,1,217,140)" stroke="white">
      <rect x="491.6538" width="18" height="18" y="172.2195" clip-path="url(#clipPath2)" stroke="none"/>
    </g>
    <g text-rendering="geometricPrecision" stroke-miterlimit="1.45" shape-rendering="geometricPrecision" transform="matrix(1,0,0,1,217,140)" stroke-linecap="butt">
      <rect fill="none" x="491.6538" width="18" height="18" y="172.2195" clip-path="url(#clipPath2)"/>
    </g>
    <g fill="rgb(219,235,219)" text-rendering="geometricPrecision" shape-rendering="geometricPrecision" transform="matrix(1,0,0,1,217,140)" stroke="rgb(219,235,219)">
      <rect x="435.6538" y="108.5992" clip-path="url(#clipPath2)" width="130" rx="15" ry="15" height="30" stroke="none"/>
    </g>
    <g text-rendering="geometricPrecision" stroke-miterlimit="1.45" shape-rendering="geometricPrecision" transform="matrix(1,0,0,1,217,140)" stroke-linecap="butt">
      <rect x="435.6538" y="108.5992" clip-path="url(#clipPath2)" fill="none" width="130" rx="15" ry="15" height="30"/>
      <text x="468.7608" font-size="14px" y="128.4527" clip-path="url(#clipPath2)" font-family="'Arial'" stroke="none" xml:space="preserve">HMG CoA</text>
    </g>
    <g fill="rgb(219,235,219)" text-rendering="geometricPrecision" shape-rendering="geometricPrecision" transform="matrix(1,0,0,1,217,140)" stroke="rgb(219,235,219)">
      <rect x="435.6538" y="223.8398" clip-path="url(#clipPath2)" width="130" rx="15" ry="15" height="30" stroke="none"/>
    </g>
    <g text-rendering="geometricPrecision" stroke-miterlimit="1.45" shape-rendering="geometricPrecision" transform="matrix(1,0,0,1,217,140)" stroke-linecap="butt">
      <rect x="435.6538" y="223.8398" clip-path="url(#clipPath2)" fill="none" width="130" rx="15" ry="15" height="30"/>
      <text x="464.4644" font-size="14px" y="243.6934" clip-path="url(#clipPath2)" font-family="'Arial'" stroke="none" xml:space="preserve">Mevalonate</text>
    </g>
    <g fill="white" text-rendering="geometricPrecision" shape-rendering="geometricPrecision" transform="matrix(1,0,0,1,217,140)" stroke="white">
      <rect x="491.6538" width="18" height="18" y="56.9789" clip-path="url(#clipPath2)" stroke="none"/>
    </g>
    <g text-rendering="geometricPrecision" stroke-miterlimit="1.45" shape-rendering="geometricPrecision" transform="matrix(1,0,0,1,217,140)" stroke-linecap="butt">
      <rect fill="none" x="491.6538" width="18" height="18" y="56.9789" clip-path="url(#clipPath2)"/>
    </g>
    <g fill="white" text-rendering="geometricPrecision" shape-rendering="geometricPrecision" transform="matrix(1,0,0,1,217,140)" stroke="white">
      <rect x="491.6538" width="18" height="18" y="-17.7269" clip-path="url(#clipPath2)" stroke="none"/>
    </g>
    <g text-rendering="geometricPrecision" stroke-miterlimit="1.45" shape-rendering="geometricPrecision" transform="matrix(1,0,0,1,217,140)" stroke-linecap="butt">
      <rect fill="none" x="491.6538" width="18" height="18" y="-17.7269" clip-path="url(#clipPath2)"/>
    </g>
    <g fill="rgb(200,216,235)" text-rendering="geometricPrecision" shape-rendering="geometricPrecision" transform="matrix(1,0,0,1,217,140)" stroke="rgb(200,216,235)">
      <path d="M355.6538 55.9789 Q355.6538 45.9789 365.6538 45.9789 L425.6538 45.9789 Q435.6538 45.9789 435.6538 55.9789 L435.6538 75.9789 Q435.6538 85.9789 425.6538 85.9789 L365.6538 85.9789 Q355.6538 85.9789 355.6538 75.9789 Z" stroke="none" clip-path="url(#clipPath2)"/>
    </g>
    <g text-rendering="geometricPrecision" stroke-miterlimit="1.45" shape-rendering="geometricPrecision" transform="matrix(1,0,0,1,217,140)" stroke-linecap="butt">
      <path fill="none" d="M355.6538 55.9789 Q355.6538 45.9789 365.6538 45.9789 L425.6538 45.9789 Q435.6538 45.9789 435.6538 55.9789 L435.6538 75.9789 Q435.6538 85.9789 425.6538 85.9789 L365.6538 85.9789 Q355.6538 85.9789 355.6538 75.9789 Z" clip-path="url(#clipPath2)"/>
      <text x="365.7056" font-size="14px" y="70.8324" clip-path="url(#clipPath2)" font-family="'Arial'" stroke="none" xml:space="preserve">HMGCS2</text>
    </g>
    <g text-rendering="geometricPrecision" stroke-miterlimit="1.45" shape-rendering="geometricPrecision" transform="matrix(1,0,0,1,217,140)" stroke-linecap="butt">
      <path fill="none" d="M-12.5733 -18.7332 L28.3256 -18.7332" clip-path="url(#clipPath2)"/>
      <path fill="none" d="M181.6351 51.2518 L181.6351 91.2354" clip-path="url(#clipPath2)"/>
      <path fill="none" d="M-106.9374 50.4225 L-96.739 79.5057 L181.6351 79.5057 L181.6351 91.2307" clip-path="url(#clipPath2)"/>
      <path fill="none" d="M181.6351 121.2443 L181.6351 150.2195" clip-path="url(#clipPath2)"/>
      <path fill="white" d="M181.6351 158.2195 C179.426 158.2195 177.6351 156.4287 177.6351 154.2195 C177.6351 152.0104 179.426 150.2195 181.6351 150.2195 C183.8443 150.2195 185.6351 152.0104 185.6351 154.2195 C185.6351 156.4287 183.8443 158.2195 181.6351 158.2195 Z" clip-path="url(#clipPath2)" stroke="none"/>
      <path fill="none" d="M181.6351 158.2195 C179.426 158.2195 177.6351 156.4287 177.6351 154.2195 C177.6351 152.0104 179.426 150.2195 181.6351 150.2195 C183.8443 150.2195 185.6351 152.0104 185.6351 154.2195 C185.6351 156.4287 183.8443 158.2195 181.6351 158.2195 Z" clip-path="url(#clipPath2)"/>
      <path fill="none" d="M244.771 170.2195 L190.6061 170.2195" clip-path="url(#clipPath2)"/>
      <path fill="none" d="M172.6498 170.2195 L133.465 170.2195" clip-path="url(#clipPath2)"/>
      <path d="M122.465 170.2195 L134.465 176.2195 L134.465 164.2195 Z" clip-path="url(#clipPath2)" stroke="none"/>
      <path fill="none" d="M124.3218 199.8863 L172.6519 199.8863" clip-path="url(#clipPath2)"/>
      <path fill="none" d="M190.6512 199.8863 L237.7806 199.8863" clip-path="url(#clipPath2)"/>
      <path d="M248.7806 199.8863 L236.7806 193.8863 L236.7806 205.8863 Z" clip-path="url(#clipPath2)" stroke="none"/>
      <path fill="none" d="M330.7539 181.2195 L483.6528 181.2195" clip-path="url(#clipPath2)"/>
      <path fill="white" d="M491.6528 181.2195 C491.6528 183.4287 489.8619 185.2195 487.6528 185.2195 C485.4437 185.2195 483.6528 183.4287 483.6528 181.2195 C483.6528 179.0104 485.4437 177.2195 487.6528 177.2195 C489.8619 177.2195 491.6528 179.0104 491.6528 181.2195 Z" clip-path="url(#clipPath2)" stroke="none"/>
      <path fill="none" d="M491.6528 181.2195 C491.6528 183.4287 489.8619 185.2195 487.6528 185.2195 C485.4437 185.2195 483.6528 183.4287 483.6528 181.2195 C483.6528 179.0104 485.4437 177.2195 487.6528 177.2195 C489.8619 177.2195 491.6528 179.0104 491.6528 181.2195 Z" clip-path="url(#clipPath2)"/>
      <path fill="none" d="M500.6538 138.5951 L500.6538 172.1868" clip-path="url(#clipPath2)"/>
      <path fill="none" d="M500.6538 190.1946 L500.6538 212.8757" clip-path="url(#clipPath2)"/>
      <path d="M500.6538 223.8757 L506.6538 211.8757 L494.6538 211.8757 Z" clip-path="url(#clipPath2)" stroke="none"/>
      <path fill="none" d="M417.2605 6.2625 L500.6538 41.6395 L500.6538 56.9942" clip-path="url(#clipPath2)"/>
      <path fill="none" d="M584.0472 6.2625 L500.6538 41.6395 L500.6538 56.9942" clip-path="url(#clipPath2)"/>
      <path fill="none" d="M500.6538 74.9539 L500.6538 97.6351" clip-path="url(#clipPath2)"/>
      <path d="M500.6538 108.6351 L506.6538 96.6351 L494.6538 96.6351 Z" clip-path="url(#clipPath2)" stroke="none"/>
      <path fill="none" d="M446.9424 -8.7269 L491.6582 -8.7269" clip-path="url(#clipPath2)"/>
      <path fill="none" d="M500.6538 -68.4447 L500.6538 -25.737" clip-path="url(#clipPath2)"/>
      <path fill="white" d="M500.6538 -17.737 C498.4447 -17.737 496.6538 -19.5279 496.6538 -21.737 C496.6538 -23.9462 498.4447 -25.737 500.6538 -25.737 C502.863 -25.737 504.6538 -23.9462 504.6538 -21.737 C504.6538 -19.5279 502.863 -17.737 500.6538 -17.737 Z" clip-path="url(#clipPath2)" stroke="none"/>
      <path fill="none" d="M500.6538 -17.737 C498.4447 -17.737 496.6538 -19.5279 496.6538 -21.737 C496.6538 -23.9462 498.4447 -25.737 500.6538 -25.737 C502.863 -25.737 504.6538 -23.9462 504.6538 -21.737 C504.6538 -19.5279 502.863 -17.737 500.6538 -17.737 Z" clip-path="url(#clipPath2)"/>
      <path fill="none" d="M509.6685 -8.7269 L543.3733 -8.7269" clip-path="url(#clipPath2)"/>
      <path d="M554.3733 -8.7269 L542.3733 -14.7269 L542.3733 -2.7269 Z" clip-path="url(#clipPath2)" stroke="none"/>
      <path fill="none" d="M435.6697 65.9789 L483.6741 65.9789" clip-path="url(#clipPath2)"/>
      <path fill="white" d="M491.6741 65.9789 C491.6741 68.188 489.8832 69.9789 487.6741 69.9789 C485.465 69.9789 483.6741 68.188 483.6741 65.9789 C483.6741 63.7697 485.465 61.9789 487.6741 61.9789 C489.8832 61.9789 491.6741 63.7697 491.6741 65.9789 Z" clip-path="url(#clipPath2)" stroke="none"/>
      <path fill="none" d="M491.6741 65.9789 C491.6741 68.188 489.8832 69.9789 487.6741 69.9789 C485.465 69.9789 483.6741 68.188 483.6741 65.9789 C483.6741 63.7697 485.465 61.9789 487.6741 61.9789 C489.8832 61.9789 491.6741 63.7697 491.6741 65.9789 Z" clip-path="url(#clipPath2)"/>
    </g>
  </g>
</svg>
