<?xml version="1.0" encoding="UTF-8"?><svg xmlns="http://www.w3.org/2000/svg" xmlns:xlink="http://www.w3.org/1999/xlink" fill-opacity="1" color-rendering="auto" color-interpolation="auto" text-rendering="auto" stroke="black" stroke-linecap="square" width="1092" stroke-miterlimit="10" shape-rendering="auto" stroke-opacity="1" fill="black" stroke-dasharray="none" font-weight="normal" stroke-width="1" height="702" font-family="'Dialog'" font-style="normal" stroke-linejoin="miter" font-size="12px" stroke-dashoffset="0" image-rendering="auto">
  <!--Generated by ySVG 2.5-->
  <defs id="genericDefs"/>
  <g>
    <defs id="defs1">
      <clipPath clipPathUnits="userSpaceOnUse" id="clipPath1">
        <path d="M0 0 L1092 0 L1092 702 L0 702 L0 0 Z"/>
      </clipPath>
      <clipPath clipPathUnits="userSpaceOnUse" id="clipPath2">
        <path d="M-115 -182 L1250 -182 L1250 695.5 L-115 695.5 L-115 -182 Z"/>
      </clipPath>
      <clipPath clipPathUnits="userSpaceOnUse" id="clipPath3">
        <path d="M-368.3751 -438.7516 L996.6249 -438.7516 L996.6249 438.7484 L-368.3751 438.7484 L-368.3751 -438.7516 Z"/>
      </clipPath>
      <clipPath clipPathUnits="userSpaceOnUse" id="clipPath4">
        <path d="M-421.8902 -438.8247 L943.1098 -438.8247 L943.1098 438.6753 L-421.8902 438.6753 L-421.8902 -438.8247 Z"/>
      </clipPath>
      <clipPath clipPathUnits="userSpaceOnUse" id="clipPath5">
        <path d="M-754.3311 -519.8696 L610.6689 -519.8696 L610.6689 357.6304 L-754.3311 357.6304 L-754.3311 -519.8696 Z"/>
      </clipPath>
      <clipPath clipPathUnits="userSpaceOnUse" id="clipPath6">
        <path d="M-757.8311 -559.6749 L607.1689 -559.6749 L607.1689 317.8251 L-757.8311 317.8251 L-757.8311 -559.6749 Z"/>
      </clipPath>
      <clipPath clipPathUnits="userSpaceOnUse" id="clipPath7">
        <path d="M-587.534 -559.6749 L777.466 -559.6749 L777.466 317.8251 L-587.534 317.8251 L-587.534 -559.6749 Z"/>
      </clipPath>
      <clipPath clipPathUnits="userSpaceOnUse" id="clipPath8">
        <path d="M-584.034 -519.8696 L780.966 -519.8696 L780.966 357.6304 L-584.034 357.6304 L-584.034 -519.8696 Z"/>
      </clipPath>
      <clipPath clipPathUnits="userSpaceOnUse" id="clipPath9">
        <path d="M-222.7394 -559.6749 L1142.2606 -559.6749 L1142.2606 317.8251 L-222.7394 317.8251 L-222.7394 -559.6749 Z"/>
      </clipPath>
      <clipPath clipPathUnits="userSpaceOnUse" id="clipPath10">
        <path d="M-50.3027 -559.6749 L1314.6973 -559.6749 L1314.6973 317.8251 L-50.3027 317.8251 L-50.3027 -559.6749 Z"/>
      </clipPath>
      <clipPath clipPathUnits="userSpaceOnUse" id="clipPath11">
        <path d="M-423.5612 -603.4521 L941.4388 -603.4521 L941.4388 274.0479 L-423.5612 274.0479 L-423.5612 -603.4521 Z"/>
      </clipPath>
      <clipPath clipPathUnits="userSpaceOnUse" id="clipPath12">
        <path d="M-366.0571 -603.5251 L998.9429 -603.5251 L998.9429 273.9749 L-366.0571 273.9749 L-366.0571 -603.5251 Z"/>
      </clipPath>
      <clipPath clipPathUnits="userSpaceOnUse" id="clipPath13">
        <path d="M-1193.7111 -180.9866 L171.2889 -180.9866 L171.2889 696.5134 L-1193.7111 696.5134 L-1193.7111 -180.9866 Z"/>
      </clipPath>
      <clipPath clipPathUnits="userSpaceOnUse" id="clipPath14">
        <path d="M-1272.5917 -180.9866 L92.4083 -180.9866 L92.4083 696.5134 L-1272.5917 696.5134 L-1272.5917 -180.9866 Z"/>
      </clipPath>
      <clipPath clipPathUnits="userSpaceOnUse" id="clipPath15">
        <path d="M-1193.7111 -239.9468 L171.2889 -239.9468 L171.2889 637.5532 L-1193.7111 637.5532 L-1193.7111 -239.9468 Z"/>
      </clipPath>
      <clipPath clipPathUnits="userSpaceOnUse" id="clipPath16">
        <path d="M-798.5142 -354.1942 L566.4858 -354.1942 L566.4858 523.3058 L-798.5142 523.3058 L-798.5142 -354.1942 Z"/>
      </clipPath>
      <clipPath clipPathUnits="userSpaceOnUse" id="clipPath17">
        <path d="M-876.6902 -354.1942 L488.3098 -354.1942 L488.3098 523.3058 L-876.6902 523.3058 L-876.6902 -354.1942 Z"/>
      </clipPath>
      <clipPath clipPathUnits="userSpaceOnUse" id="clipPath18">
        <path d="M-798.5142 -413.1544 L566.4858 -413.1544 L566.4858 464.3456 L-798.5142 464.3456 L-798.5142 -413.1544 Z"/>
      </clipPath>
      <clipPath clipPathUnits="userSpaceOnUse" id="clipPath19">
        <path d="M-805.9537 -19.3125 L559.0463 -19.3125 L559.0463 858.1875 L-805.9537 858.1875 L-805.9537 -19.3125 Z"/>
      </clipPath>
      <clipPath clipPathUnits="userSpaceOnUse" id="clipPath20">
        <path d="M-913.03 -180.9866 L451.97 -180.9866 L451.97 696.5134 L-913.03 696.5134 L-913.03 -180.9866 Z"/>
      </clipPath>
      <clipPath clipPathUnits="userSpaceOnUse" id="clipPath21">
        <path d="M-913.03 -239.9468 L451.97 -239.9468 L451.97 637.5532 L-913.03 637.5532 L-913.03 -239.9468 Z"/>
      </clipPath>
      <clipPath clipPathUnits="userSpaceOnUse" id="clipPath22">
        <path d="M-991.9106 -180.9866 L373.0894 -180.9866 L373.0894 696.5134 L-991.9106 696.5134 L-991.9106 -180.9866 Z"/>
      </clipPath>
      <clipPath clipPathUnits="userSpaceOnUse" id="clipPath23">
        <path d="M-626.7863 -184.0315 L738.2137 -184.0315 L738.2137 693.4685 L-626.7863 693.4685 L-626.7863 -184.0315 Z"/>
      </clipPath>
      <clipPath clipPathUnits="userSpaceOnUse" id="clipPath24">
        <path d="M-704.9622 -184.0315 L660.0378 -184.0315 L660.0378 693.4685 L-704.9622 693.4685 L-704.9622 -184.0315 Z"/>
      </clipPath>
      <clipPath clipPathUnits="userSpaceOnUse" id="clipPath25">
        <path d="M-626.7863 -242.9917 L738.2137 -242.9917 L738.2137 634.5082 L-626.7863 634.5082 L-626.7863 -242.9917 Z"/>
      </clipPath>
    </defs>
    <g fill="white" text-rendering="geometricPrecision" shape-rendering="geometricPrecision" transform="scale(0.8,0.8) translate(115,182)" stroke="white">
      <rect x="-115" width="1365" height="878" y="-182" clip-path="url(#clipPath2)" stroke="none"/>
    </g>
    <g fill="rgb(219,235,219)" text-rendering="geometricPrecision" shape-rendering="geometricPrecision" transform="matrix(0.8,0,0,0.8,92,145.6)" stroke="rgb(219,235,219)">
      <path d="M267.5612 264.8247 C257.0677 264.8247 248.5612 273.3313 248.5612 283.8247 C248.5612 290.6077 252.1156 296.5606 257.4636 299.9223 L257.4636 299.9223 C260.8252 305.2702 266.7781 308.8247 273.5612 308.8247 L335.5612 308.8247 C346.0546 308.8247 354.5612 300.3181 354.5612 289.8247 C354.5612 283.0416 351.0067 277.0887 345.6588 273.7271 L345.6588 273.7271 C342.2971 268.3791 336.3442 264.8247 329.5612 264.8247 Z" stroke="none" clip-path="url(#clipPath2)"/>
    </g>
    <g text-rendering="geometricPrecision" stroke-miterlimit="1.45" shape-rendering="geometricPrecision" transform="matrix(0.8,0,0,0.8,92,145.6)" stroke-linecap="butt">
      <path fill="none" d="M345.6588 273.7271 C347.4976 276.6524 348.5612 280.1143 348.5612 283.8247 C348.5612 294.3181 340.0546 302.8247 329.5612 302.8247 L267.5612 302.8247 C263.8508 302.8247 260.3889 301.7611 257.4636 299.9223 L257.4636 299.9223 C260.8252 305.2702 266.7781 308.8247 273.5612 308.8247 L335.5612 308.8247 C346.0546 308.8247 354.5612 300.3181 354.5612 289.8247 C354.5612 283.0416 351.0067 277.0887 345.6588 273.7271 Z" clip-path="url(#clipPath2)"/>
      <path fill="none" d="M267.5612 264.8247 C257.0677 264.8247 248.5612 273.3313 248.5612 283.8247 C248.5612 294.3181 257.0677 302.8247 267.5612 302.8247 L329.5612 302.8247 C340.0546 302.8247 348.5612 294.3181 348.5612 283.8247 C348.5612 273.3313 340.0546 264.8247 329.5612 264.8247 Z" clip-path="url(#clipPath2)"/>
      <text x="272.4752" font-size="14px" y="289.1157" clip-path="url(#clipPath2)" font-family="sans-serif" stroke="none" xml:space="preserve">glucose</text>
    </g>
    <g fill="white" text-rendering="geometricPrecision" shape-rendering="geometricPrecision" transform="matrix(0.8,0,0,0.8,92,145.6) translate(253.3751,256.7517)" stroke="white">
      <rect x="0" width="50" height="16" y="0" clip-path="url(#clipPath3)" stroke="none"/>
    </g>
    <g text-rendering="geometricPrecision" stroke-miterlimit="1.45" shape-rendering="geometricPrecision" transform="matrix(0.8,0,0,0.8,92,145.6) translate(253.3751,256.7517)" stroke-linecap="butt">
      <rect fill="none" x="0" width="50" height="16" y="0" clip-path="url(#clipPath3)"/>
      <text x="3.186" font-size="10px" y="11.7793" clip-path="url(#clipPath3)" font-family="sans-serif" stroke="none" xml:space="preserve">glycogen</text>
    </g>
    <g fill="white" text-rendering="geometricPrecision" shape-rendering="geometricPrecision" transform="matrix(0.8,0,0,0.8,92,145.6) translate(306.8902,256.8247)" stroke="white">
      <rect x="0" width="36" height="16" y="0" clip-path="url(#clipPath4)" stroke="none"/>
    </g>
    <g text-rendering="geometricPrecision" stroke-miterlimit="1.45" shape-rendering="geometricPrecision" transform="matrix(0.8,0,0,0.8,92,145.6) translate(306.8902,256.8247)" stroke-linecap="butt">
      <rect fill="none" x="0" width="36" height="16" y="0" clip-path="url(#clipPath4)"/>
      <text x="2.4849" font-size="10px" y="11.7793" clip-path="url(#clipPath4)" font-family="sans-serif" stroke="none" xml:space="preserve">N:n+1</text>
    </g>
    <g fill="rgb(219,235,219)" text-rendering="geometricPrecision" shape-rendering="geometricPrecision" transform="matrix(0.8,0,0,0.8,92,145.6)" stroke="rgb(219,235,219)">
      <path d="M267.5612 429.5251 C257.0677 429.5251 248.5612 438.0317 248.5612 448.5251 C248.5612 455.3082 252.1156 461.261 257.4636 464.6227 L257.4636 464.6227 C260.8252 469.9706 266.7781 473.5251 273.5612 473.5251 L335.5612 473.5251 C346.0546 473.5251 354.5612 465.0185 354.5612 454.5251 C354.5612 447.742 351.0067 441.7892 345.6588 438.4275 L345.6588 438.4275 C342.2971 433.0796 336.3442 429.5251 329.5612 429.5251 Z" stroke="none" clip-path="url(#clipPath2)"/>
    </g>
    <g text-rendering="geometricPrecision" stroke-miterlimit="1.45" shape-rendering="geometricPrecision" transform="matrix(0.8,0,0,0.8,92,145.6)" stroke-linecap="butt">
      <path fill="none" d="M345.6588 438.4275 C347.4976 441.3528 348.5612 444.8148 348.5612 448.5251 C348.5612 459.0185 340.0546 467.5251 329.5612 467.5251 L267.5612 467.5251 C263.8508 467.5251 260.3889 466.4616 257.4636 464.6227 L257.4636 464.6227 C260.8252 469.9706 266.7781 473.5251 273.5612 473.5251 L335.5612 473.5251 C346.0546 473.5251 354.5612 465.0185 354.5612 454.5251 C354.5612 447.742 351.0067 441.7892 345.6588 438.4275 Z" clip-path="url(#clipPath2)"/>
      <path fill="none" d="M267.5612 429.5251 C257.0677 429.5251 248.5612 438.0317 248.5612 448.5251 C248.5612 459.0185 257.0677 467.5251 267.5612 467.5251 L329.5612 467.5251 C340.0546 467.5251 348.5612 459.0185 348.5612 448.5251 C348.5612 438.0317 340.0546 429.5251 329.5612 429.5251 Z" clip-path="url(#clipPath2)"/>
      <text x="272.4752" font-size="14px" y="453.8161" clip-path="url(#clipPath2)" font-family="sans-serif" stroke="none" xml:space="preserve">glucose</text>
    </g>
    <g fill="white" text-rendering="geometricPrecision" shape-rendering="geometricPrecision" transform="matrix(0.8,0,0,0.8,92,145.6)" stroke="white">
      <rect x="304.8493" width="18" height="18" y="357.1749" clip-path="url(#clipPath2)" stroke="none"/>
    </g>
    <g text-rendering="geometricPrecision" stroke-miterlimit="1.45" shape-rendering="geometricPrecision" transform="matrix(0.8,0,0,0.8,92,145.6)" stroke-linecap="butt">
      <rect fill="none" x="304.8493" width="18" height="18" y="357.1749" clip-path="url(#clipPath2)"/>
    </g>
    <g fill="white" text-rendering="geometricPrecision" shape-rendering="geometricPrecision" transform="matrix(0.8,0,0,0.8,92,145.6)" stroke="white">
      <rect x="273.5951" width="18" height="18" y="357.1749" clip-path="url(#clipPath2)" stroke="none"/>
    </g>
    <g text-rendering="geometricPrecision" stroke-miterlimit="1.45" shape-rendering="geometricPrecision" transform="matrix(0.8,0,0,0.8,92,145.6)" stroke-linecap="butt">
      <rect fill="none" x="273.5951" width="18" height="18" y="357.1749" clip-path="url(#clipPath2)"/>
    </g>
    <g fill="rgb(226,172,163)" text-rendering="geometricPrecision" shape-rendering="geometricPrecision" transform="matrix(0.8,0,0,0.8,92,145.6)" stroke="rgb(226,172,163)">
      <path d="M621.8311 346.1749 Q611.8311 346.1749 611.8311 356.1749 L611.8311 376.1749 Q611.8311 384.1749 618.231 385.7749 L618.231 385.7749 Q619.8311 392.1749 627.8311 392.1749 L687.8311 392.1749 Q697.8311 392.1749 697.8311 382.1749 L697.8311 362.1749 Q697.8311 354.1749 691.431 352.5749 L691.431 352.5749 Q689.8311 346.1749 681.8311 346.1749 Z" stroke="none" clip-path="url(#clipPath2)"/>
    </g>
    <g text-rendering="geometricPrecision" stroke-miterlimit="1.45" shape-rendering="geometricPrecision" transform="matrix(0.8,0,0,0.8,92,145.6)" stroke-linecap="butt">
      <path fill="none" d="M691.431 352.5749 Q691.8311 354.1749 691.8311 356.1749 L691.8311 376.1749 Q691.8311 386.1749 681.8311 386.1749 L621.8311 386.1749 Q619.8311 386.1749 618.231 385.7749 L618.231 385.7749 Q619.8311 392.1749 627.8311 392.1749 L687.8311 392.1749 Q697.8311 392.1749 697.8311 382.1749 L697.8311 362.1749 Q697.8311 354.1749 691.431 352.5749 Z" clip-path="url(#clipPath2)"/>
      <path fill="none" d="M621.8311 346.1749 Q611.8311 346.1749 611.8311 356.1749 L611.8311 376.1749 Q611.8311 386.1749 621.8311 386.1749 L681.8311 386.1749 Q691.8311 386.1749 691.8311 376.1749 L691.8311 356.1749 Q691.8311 346.1749 681.8311 346.1749 Z" clip-path="url(#clipPath2)"/>
      <text x="632.5127" font-size="14px" y="371.4659" clip-path="url(#clipPath2)" font-family="sans-serif" stroke="none" xml:space="preserve">PYGM</text>
    </g>
    <g fill="white" text-rendering="geometricPrecision" shape-rendering="geometricPrecision" transform="matrix(0.8,0,0,0.8,92,145.6) translate(639.331,337.8696)" stroke="white">
      <rect x="0" width="25" height="16" y="0" clip-path="url(#clipPath5)" stroke="none"/>
    </g>
    <g text-rendering="geometricPrecision" stroke-miterlimit="1.45" shape-rendering="geometricPrecision" transform="matrix(0.8,0,0,0.8,92,145.6) translate(639.331,337.8696)" stroke-linecap="butt">
      <rect fill="none" x="0" width="25" height="16" y="0" clip-path="url(#clipPath5)"/>
      <text x="4.0625" font-size="10px" y="11.7793" clip-path="url(#clipPath5)" font-family="sans-serif" stroke="none" xml:space="preserve">N:2</text>
    </g>
    <g fill="white" text-rendering="geometricPrecision" shape-rendering="geometricPrecision" transform="matrix(0.8,0,0,0.8,92,145.6) translate(642.831,377.6749)" stroke="white">
      <rect x="0" y="0" clip-path="url(#clipPath6)" width="18" rx="8.5" ry="8.5" height="17" stroke="none"/>
    </g>
    <g text-rendering="geometricPrecision" stroke-miterlimit="1.45" shape-rendering="geometricPrecision" transform="matrix(0.8,0,0,0.8,92,145.6) translate(642.831,377.6749)" stroke-linecap="butt">
      <rect x="0" y="0" clip-path="url(#clipPath6)" fill="none" width="18" rx="8.5" ry="8.5" height="17"/>
    </g>
    <g fill="rgb(226,172,163)" text-rendering="geometricPrecision" shape-rendering="geometricPrecision" transform="matrix(0.8,0,0,0.8,92,145.6)" stroke="rgb(226,172,163)">
      <path d="M451.534 346.1749 Q441.534 346.1749 441.534 356.1749 L441.534 376.1749 Q441.534 384.1749 447.934 385.7749 L447.934 385.7749 Q449.534 392.1749 457.534 392.1749 L517.534 392.1749 Q527.534 392.1749 527.534 382.1749 L527.534 362.1749 Q527.534 354.1749 521.134 352.5749 L521.134 352.5749 Q519.534 346.1749 511.534 346.1749 Z" stroke="none" clip-path="url(#clipPath2)"/>
    </g>
    <g text-rendering="geometricPrecision" stroke-miterlimit="1.45" shape-rendering="geometricPrecision" transform="matrix(0.8,0,0,0.8,92,145.6)" stroke-linecap="butt">
      <path fill="none" d="M521.134 352.5749 Q521.534 354.1749 521.534 356.1749 L521.534 376.1749 Q521.534 386.1749 511.534 386.1749 L451.534 386.1749 Q449.534 386.1749 447.934 385.7749 L447.934 385.7749 Q449.534 392.1749 457.534 392.1749 L517.534 392.1749 Q527.534 392.1749 527.534 382.1749 L527.534 362.1749 Q527.534 354.1749 521.134 352.5749 Z" clip-path="url(#clipPath2)"/>
      <path fill="none" d="M451.534 346.1749 Q441.534 346.1749 441.534 356.1749 L441.534 376.1749 Q441.534 386.1749 451.534 386.1749 L511.534 386.1749 Q521.534 386.1749 521.534 376.1749 L521.534 356.1749 Q521.534 346.1749 511.534 346.1749 Z" clip-path="url(#clipPath2)"/>
      <text x="462.2156" font-size="14px" y="371.4659" clip-path="url(#clipPath2)" font-family="sans-serif" stroke="none" xml:space="preserve">PYGM</text>
    </g>
    <g fill="white" text-rendering="geometricPrecision" shape-rendering="geometricPrecision" transform="matrix(0.8,0,0,0.8,92,145.6) translate(472.534,377.6749)" stroke="white">
      <rect x="0" y="0" clip-path="url(#clipPath7)" width="18" rx="8.5" ry="8.5" height="17" stroke="none"/>
    </g>
    <g text-rendering="geometricPrecision" stroke-miterlimit="1.45" shape-rendering="geometricPrecision" transform="matrix(0.8,0,0,0.8,92,145.6) translate(472.534,377.6749)" stroke-linecap="butt">
      <rect x="0" y="0" clip-path="url(#clipPath7)" fill="none" width="18" rx="8.5" ry="8.5" height="17"/>
      <text x="6.2363" font-size="10px" y="12.2793" clip-path="url(#clipPath7)" font-family="sans-serif" stroke="none" xml:space="preserve">P</text>
    </g>
    <g fill="white" text-rendering="geometricPrecision" shape-rendering="geometricPrecision" transform="matrix(0.8,0,0,0.8,92,145.6) translate(469.034,337.8696)" stroke="white">
      <rect x="0" width="25" height="16" y="0" clip-path="url(#clipPath8)" stroke="none"/>
    </g>
    <g text-rendering="geometricPrecision" stroke-miterlimit="1.45" shape-rendering="geometricPrecision" transform="matrix(0.8,0,0,0.8,92,145.6) translate(469.034,337.8696)" stroke-linecap="butt">
      <rect fill="none" x="0" width="25" height="16" y="0" clip-path="url(#clipPath8)"/>
      <text x="4.0625" font-size="10px" y="11.7793" clip-path="url(#clipPath8)" font-family="sans-serif" stroke="none" xml:space="preserve">N:4</text>
    </g>
    <g fill="white" text-rendering="geometricPrecision" shape-rendering="geometricPrecision" transform="matrix(0.8,0,0,0.8,92,145.6)" stroke="white">
      <rect x="557.6825" width="18" height="18" y="371.5468" clip-path="url(#clipPath2)" stroke="none"/>
    </g>
    <g text-rendering="geometricPrecision" stroke-miterlimit="1.45" shape-rendering="geometricPrecision" transform="matrix(0.8,0,0,0.8,92,145.6)" stroke-linecap="butt">
      <rect fill="none" x="557.6825" width="18" height="18" y="371.5468" clip-path="url(#clipPath2)"/>
    </g>
    <g fill="white" text-rendering="geometricPrecision" shape-rendering="geometricPrecision" transform="matrix(0.8,0,0,0.8,92,145.6)" stroke="white">
      <rect x="557.6825" width="18" height="18" y="342.0255" clip-path="url(#clipPath2)" stroke="none"/>
    </g>
    <g text-rendering="geometricPrecision" stroke-miterlimit="1.45" shape-rendering="geometricPrecision" transform="matrix(0.8,0,0,0.8,92,145.6)" stroke-linecap="butt">
      <rect fill="none" x="557.6825" width="18" height="18" y="342.0255" clip-path="url(#clipPath2)"/>
    </g>
    <g fill="rgb(226,172,163)" text-rendering="geometricPrecision" shape-rendering="geometricPrecision" transform="matrix(0.8,0,0,0.8,92,145.6)" stroke="rgb(226,172,163)">
      <path d="M76.7394 356.1749 Q76.7394 346.1749 86.7394 346.1749 L146.7394 346.1749 Q156.7394 346.1749 156.7394 356.1749 L156.7394 376.1749 Q156.7394 386.1749 146.7394 386.1749 L86.7394 386.1749 Q76.7394 386.1749 76.7394 376.1749 Z" stroke="none" clip-path="url(#clipPath2)"/>
    </g>
    <g text-rendering="geometricPrecision" stroke-miterlimit="1.45" shape-rendering="geometricPrecision" transform="matrix(0.8,0,0,0.8,92,145.6)" stroke-linecap="butt">
      <path fill="none" d="M76.7394 356.1749 Q76.7394 346.1749 86.7394 346.1749 L146.7394 346.1749 Q156.7394 346.1749 156.7394 356.1749 L156.7394 376.1749 Q156.7394 386.1749 146.7394 386.1749 L86.7394 386.1749 Q76.7394 386.1749 76.7394 376.1749 Z" clip-path="url(#clipPath2)"/>
      <text x="91.026" font-size="14px" y="371.4659" clip-path="url(#clipPath2)" font-family="sans-serif" stroke="none" xml:space="preserve">GYS1/2</text>
    </g>
    <g fill="white" text-rendering="geometricPrecision" shape-rendering="geometricPrecision" transform="matrix(0.8,0,0,0.8,92,145.6) translate(107.7394,377.6749)" stroke="white">
      <rect x="0" y="0" clip-path="url(#clipPath9)" width="18" rx="8.5" ry="8.5" height="17" stroke="none"/>
    </g>
    <g text-rendering="geometricPrecision" stroke-miterlimit="1.45" shape-rendering="geometricPrecision" transform="matrix(0.8,0,0,0.8,92,145.6) translate(107.7394,377.6749)" stroke-linecap="butt">
      <rect x="0" y="0" clip-path="url(#clipPath9)" fill="none" width="18" rx="8.5" ry="8.5" height="17"/>
    </g>
    <g fill="rgb(226,172,163)" text-rendering="geometricPrecision" shape-rendering="geometricPrecision" transform="matrix(0.8,0,0,0.8,92,145.6)" stroke="rgb(226,172,163)">
      <path d="M-95.6973 356.1749 Q-95.6973 346.1749 -85.6973 346.1749 L-25.6973 346.1749 Q-15.6973 346.1749 -15.6973 356.1749 L-15.6973 376.1749 Q-15.6973 386.1749 -25.6973 386.1749 L-85.6973 386.1749 Q-95.6973 386.1749 -95.6973 376.1749 Z" stroke="none" clip-path="url(#clipPath2)"/>
    </g>
    <g text-rendering="geometricPrecision" stroke-miterlimit="1.45" shape-rendering="geometricPrecision" transform="matrix(0.8,0,0,0.8,92,145.6)" stroke-linecap="butt">
      <path fill="none" d="M-95.6973 356.1749 Q-95.6973 346.1749 -85.6973 346.1749 L-25.6973 346.1749 Q-15.6973 346.1749 -15.6973 356.1749 L-15.6973 376.1749 Q-15.6973 386.1749 -25.6973 386.1749 L-85.6973 386.1749 Q-95.6973 386.1749 -95.6973 376.1749 Z" clip-path="url(#clipPath2)"/>
      <text x="-81.4107" font-size="14px" y="371.4659" clip-path="url(#clipPath2)" font-family="sans-serif" stroke="none" xml:space="preserve">GYS1/2</text>
    </g>
    <g fill="white" text-rendering="geometricPrecision" shape-rendering="geometricPrecision" transform="matrix(0.8,0,0,0.8,92,145.6) translate(-64.6973,377.6749)" stroke="white">
      <rect x="0" y="0" clip-path="url(#clipPath10)" width="18" rx="8.5" ry="8.5" height="17" stroke="none"/>
    </g>
    <g text-rendering="geometricPrecision" stroke-miterlimit="1.45" shape-rendering="geometricPrecision" transform="matrix(0.8,0,0,0.8,92,145.6) translate(-64.6973,377.6749)" stroke-linecap="butt">
      <rect x="0" y="0" clip-path="url(#clipPath10)" fill="none" width="18" rx="8.5" ry="8.5" height="17"/>
      <text x="6.2363" font-size="10px" y="12.2793" clip-path="url(#clipPath10)" font-family="sans-serif" stroke="none" xml:space="preserve">P</text>
    </g>
    <g fill="white" text-rendering="geometricPrecision" shape-rendering="geometricPrecision" transform="matrix(0.8,0,0,0.8,92,145.6)" stroke="white">
      <rect x="21.5211" width="18" height="18" y="371.5468" clip-path="url(#clipPath2)" stroke="none"/>
    </g>
    <g text-rendering="geometricPrecision" stroke-miterlimit="1.45" shape-rendering="geometricPrecision" transform="matrix(0.8,0,0,0.8,92,145.6)" stroke-linecap="butt">
      <rect fill="none" x="21.5211" width="18" height="18" y="371.5468" clip-path="url(#clipPath2)"/>
    </g>
    <g fill="white" text-rendering="geometricPrecision" shape-rendering="geometricPrecision" transform="matrix(0.8,0,0,0.8,92,145.6)" stroke="white">
      <rect x="21.5211" width="18" height="18" y="342.0255" clip-path="url(#clipPath2)" stroke="none"/>
    </g>
    <g text-rendering="geometricPrecision" stroke-miterlimit="1.45" shape-rendering="geometricPrecision" transform="matrix(0.8,0,0,0.8,92,145.6)" stroke-linecap="butt">
      <rect fill="none" x="21.5211" width="18" height="18" y="342.0255" clip-path="url(#clipPath2)"/>
    </g>
    <g fill="rgb(200,216,235)" text-rendering="geometricPrecision" shape-rendering="geometricPrecision" transform="matrix(0.8,0,0,0.8,92,145.6)" stroke="rgb(200,216,235)">
      <path d="M526.6825 209.6544 Q526.6825 199.6544 536.6825 199.6544 L596.6825 199.6544 Q606.6825 199.6544 606.6825 209.6544 L606.6825 229.6544 Q606.6825 239.6544 596.6825 239.6544 L536.6825 239.6544 Q526.6825 239.6544 526.6825 229.6544 Z" stroke="none" clip-path="url(#clipPath2)"/>
    </g>
    <g text-rendering="geometricPrecision" stroke-miterlimit="1.45" shape-rendering="geometricPrecision" transform="matrix(0.8,0,0,0.8,92,145.6)" stroke-linecap="butt">
      <path fill="none" d="M526.6825 209.6544 Q526.6825 199.6544 536.6825 199.6544 L596.6825 199.6544 Q606.6825 199.6544 606.6825 209.6544 L606.6825 229.6544 Q606.6825 239.6544 596.6825 239.6544 L536.6825 239.6544 Q526.6825 239.6544 526.6825 229.6544 Z" clip-path="url(#clipPath2)"/>
      <text x="543.6146" font-size="14px" y="224.9454" clip-path="url(#clipPath2)" font-family="sans-serif" stroke="none" xml:space="preserve">PHKG1</text>
    </g>
    <g text-rendering="geometricPrecision" stroke-miterlimit="1.45" shape-rendering="geometricPrecision" transform="matrix(0.8,0,0,0.8,92,145.6)" stroke-linecap="butt">
      <path fill="none" d="M313.8493 308.8094 L313.8493 357.1835" clip-path="url(#clipPath2)"/>
    </g>
    <g text-rendering="geometricPrecision" stroke-miterlimit="1.45" shape-rendering="geometricPrecision" transform="matrix(0.8,0,0,0.8,92,145.6)" stroke-linecap="butt">
      <path fill="none" d="M313.8493 375.1879 L313.8493 410.941" clip-path="url(#clipPath2)"/>
      <path d="M313.8493 421.941 L319.8493 409.941 L307.8493 409.941 Z" clip-path="url(#clipPath2)" stroke="none"/>
    </g>
    <g stroke-linecap="butt" transform="matrix(0.8,0,0,0.8,92,145.6) translate(308.5612,421.4521)" fill="white" text-rendering="geometricPrecision" shape-rendering="geometricPrecision" stroke="white" stroke-miterlimit="1.45">
      <rect x="0" width="36" height="16" y="0" clip-path="url(#clipPath11)" stroke="none"/>
      <rect x="0" y="0" clip-path="url(#clipPath11)" fill="none" width="36" height="16" stroke="black"/>
    </g>
    <g font-size="10px" stroke-linecap="butt" transform="matrix(0.8,0,0,0.8,92,145.6) translate(308.5612,421.4521)" text-rendering="geometricPrecision" font-family="sans-serif" shape-rendering="geometricPrecision" stroke-miterlimit="1.45">
      <text x="9.6211" xml:space="preserve" y="11.7793" clip-path="url(#clipPath11)" stroke="none">N:n</text>
    </g>
    <g text-rendering="geometricPrecision" stroke-miterlimit="1.45" shape-rendering="geometricPrecision" transform="matrix(0.8,0,0,0.8,92,145.6)" stroke-linecap="butt">
      <path fill="none" d="M282.5951 421.9896 L282.5951 375.1957" clip-path="url(#clipPath2)"/>
    </g>
    <g stroke-linecap="butt" transform="matrix(0.8,0,0,0.8,92,145.6) translate(251.0571,421.5251)" fill="white" text-rendering="geometricPrecision" shape-rendering="geometricPrecision" stroke="white" stroke-miterlimit="1.45">
      <rect x="0" width="50" height="16" y="0" clip-path="url(#clipPath12)" stroke="none"/>
      <rect x="0" y="0" clip-path="url(#clipPath12)" fill="none" width="50" height="16" stroke="black"/>
    </g>
    <g font-size="10px" stroke-linecap="butt" transform="matrix(0.8,0,0,0.8,92,145.6) translate(251.0571,421.5251)" text-rendering="geometricPrecision" font-family="sans-serif" shape-rendering="geometricPrecision" stroke-miterlimit="1.45">
      <text x="3.186" xml:space="preserve" y="11.7793" clip-path="url(#clipPath12)" stroke="none">glycogen</text>
    </g>
    <g text-rendering="geometricPrecision" stroke-miterlimit="1.45" shape-rendering="geometricPrecision" transform="matrix(0.8,0,0,0.8,92,145.6)" stroke-linecap="butt">
      <path fill="none" d="M282.5951 357.1881 L282.5951 319.8569" clip-path="url(#clipPath2)"/>
    </g>
    <g text-rendering="geometricPrecision" stroke-miterlimit="1.45" shape-rendering="geometricPrecision" transform="matrix(0.8,0,0,0.8,92,145.6)" stroke-linecap="butt">
      <path d="M282.5951 308.8569 L276.5951 320.8569 L288.5951 320.8569 Z" stroke="none" clip-path="url(#clipPath2)"/>
      <path fill="none" d="M441.4978 366.1749 L333.5034 366.1749" clip-path="url(#clipPath2)"/>
      <path fill="white" d="M325.5034 366.1749 C325.5034 363.9658 327.2943 362.1749 329.5034 362.1749 C331.7125 362.1749 333.5034 363.9658 333.5034 366.1749 C333.5034 368.384 331.7125 370.1749 329.5034 370.1749 C327.2943 370.1749 325.5034 368.384 325.5034 366.1749 Z" clip-path="url(#clipPath2)" stroke="none"/>
      <path fill="none" d="M325.5034 366.1749 C325.5034 363.9658 327.2943 362.1749 329.5034 362.1749 C331.7125 362.1749 333.5034 363.9658 333.5034 366.1749 C333.5034 368.384 331.7125 370.1749 329.5034 370.1749 C327.2943 370.1749 325.5034 368.384 325.5034 366.1749 Z" clip-path="url(#clipPath2)"/>
      <path fill="none" d="M527.5598 380.5468 L557.7042 380.5468" clip-path="url(#clipPath2)"/>
      <path fill="none" d="M575.6685 380.5468 L601.4261 380.5468" clip-path="url(#clipPath2)"/>
      <path d="M612.4261 380.5468 L600.4261 374.5468 L600.4261 386.5468 Z" clip-path="url(#clipPath2)" stroke="none"/>
      <path fill="none" d="M612.7248 351.0255 L575.7201 351.0255" clip-path="url(#clipPath2)"/>
      <path fill="none" d="M557.6382 351.0255 L531.6424 351.0255" clip-path="url(#clipPath2)"/>
      <path d="M520.6424 351.0255 L532.6424 357.0255 L532.6424 345.0255 Z" clip-path="url(#clipPath2)" stroke="none"/>
      <path fill="none" d="M156.76 366.1749 L262.9487 366.1749" clip-path="url(#clipPath2)"/>
      <path fill="white" d="M270.9487 366.1749 C270.9487 368.384 269.1578 370.1749 266.9487 370.1749 C264.7396 370.1749 262.9487 368.384 262.9487 366.1749 C262.9487 363.9658 264.7396 362.1749 266.9487 362.1749 C269.1578 362.1749 270.9487 363.9658 270.9487 366.1749 Z" clip-path="url(#clipPath2)" stroke="none"/>
      <path fill="none" d="M270.9487 366.1749 C270.9487 368.384 269.1578 370.1749 266.9487 370.1749 C264.7396 370.1749 262.9487 368.384 262.9487 366.1749 C262.9487 363.9658 264.7396 362.1749 266.9487 362.1749 C269.1578 362.1749 270.9487 363.9658 270.9487 366.1749 Z" clip-path="url(#clipPath2)"/>
      <path fill="none" d="M77.3543 380.5468 L39.531 380.5468" clip-path="url(#clipPath2)"/>
      <path fill="none" d="M21.5131 380.5468 L-5.302 380.5468" clip-path="url(#clipPath2)"/>
      <path d="M-16.302 380.5468 L-4.302 386.5468 L-4.302 374.5468 Z" clip-path="url(#clipPath2)" stroke="none"/>
      <path fill="none" d="M-16.6054 351.0255 L21.5468 351.0255" clip-path="url(#clipPath2)"/>
      <path fill="none" d="M39.4997 351.0255 L66.633 351.0255" clip-path="url(#clipPath2)"/>
      <path d="M77.633 351.0255 L65.633 345.0255 L65.633 357.0255 Z" clip-path="url(#clipPath2)" stroke="none"/>
      <path fill="none" d="M566.6825 239.6762 L566.6825 329.3152" clip-path="url(#clipPath2)"/>
      <path fill="white" d="M566.6825 337.3152 C564.4733 337.3152 562.6825 335.5243 562.6825 333.3152 C562.6825 331.106 564.4733 329.3152 566.6825 329.3152 C568.8917 329.3152 570.6825 331.106 570.6825 333.3152 C570.6825 335.5243 568.8917 337.3152 566.6825 337.3152 Z" clip-path="url(#clipPath2)" stroke="none"/>
      <path fill="none" d="M566.6825 337.3152 C564.4733 337.3152 562.6825 335.5243 562.6825 333.3152 C562.6825 331.106 564.4733 329.3152 566.6825 329.3152 C568.8917 329.3152 570.6825 331.106 570.6825 333.3152 C570.6825 335.5243 568.8917 337.3152 566.6825 337.3152 Z" clip-path="url(#clipPath2)"/>
    </g>
    <g fill="white" text-rendering="geometricPrecision" shape-rendering="geometricPrecision" transform="matrix(0.8,0,0,0.8,92,145.6)" stroke="white">
      <path d="M1047.9183 -53.8865 L1219.8904 -53.8865 L1231.8904 -41.8865 L1231.8904 77.9468 L1219.8904 89.9468 L1047.9183 89.9468 L1035.9183 77.9468 L1035.9183 -41.8865 Z" stroke="none" clip-path="url(#clipPath2)"/>
    </g>
    <g text-rendering="geometricPrecision" stroke-miterlimit="1.45" shape-rendering="geometricPrecision" transform="matrix(0.8,0,0,0.8,92,145.6)" stroke-linecap="butt">
      <path fill="none" d="M1047.9183 -53.8865 L1219.8904 -53.8865 L1231.8904 -41.8865 L1231.8904 77.9468 L1219.8904 89.9468 L1047.9183 89.9468 L1035.9183 77.9468 L1035.9183 -41.8865 Z" clip-path="url(#clipPath2)"/>
    </g>
    <g fill="rgb(200,216,235)" text-rendering="geometricPrecision" shape-rendering="geometricPrecision" transform="matrix(0.8,0,0,0.8,92,145.6)" stroke="rgb(200,216,235)">
      <path d="M1047.7111 -22.5134 Q1047.7111 -32.5134 1057.7111 -32.5134 L1117.7111 -32.5134 Q1127.7111 -32.5134 1127.7111 -22.5134 L1127.7111 -2.5134 Q1127.7111 7.4866 1117.7111 7.4866 L1057.7111 7.4866 Q1047.7111 7.4866 1047.7111 -2.5134 Z" stroke="none" clip-path="url(#clipPath2)"/>
    </g>
    <g text-rendering="geometricPrecision" stroke-miterlimit="1.45" shape-rendering="geometricPrecision" transform="matrix(0.8,0,0,0.8,92,145.6)" stroke-linecap="butt">
      <path fill="none" d="M1047.7111 -22.5134 Q1047.7111 -32.5134 1057.7111 -32.5134 L1117.7111 -32.5134 Q1127.7111 -32.5134 1127.7111 -22.5134 L1127.7111 -2.5134 Q1127.7111 7.4866 1117.7111 7.4866 L1057.7111 7.4866 Q1047.7111 7.4866 1047.7111 -2.5134 Z" clip-path="url(#clipPath2)"/>
      <text x="1064.8722" font-size="14px" y="-7.2224" clip-path="url(#clipPath2)" font-family="sans-serif" stroke="none" xml:space="preserve">PHKA1</text>
    </g>
    <g fill="white" text-rendering="geometricPrecision" shape-rendering="geometricPrecision" transform="matrix(0.8,0,0,0.8,92,145.6) translate(1078.7111,-1.0134)" stroke="white">
      <rect x="0" y="0" clip-path="url(#clipPath13)" width="18" rx="8.5" ry="8.5" height="17" stroke="none"/>
    </g>
    <g text-rendering="geometricPrecision" stroke-miterlimit="1.45" shape-rendering="geometricPrecision" transform="matrix(0.8,0,0,0.8,92,145.6) translate(1078.7111,-1.0134)" stroke-linecap="butt">
      <rect x="0" y="0" clip-path="url(#clipPath13)" fill="none" width="18" rx="8.5" ry="8.5" height="17"/>
    </g>
    <g fill="rgb(200,216,235)" text-rendering="geometricPrecision" shape-rendering="geometricPrecision" transform="matrix(0.8,0,0,0.8,92,145.6)" stroke="rgb(200,216,235)">
      <path d="M1137.5917 -22.5134 Q1137.5917 -32.5134 1147.5917 -32.5134 L1207.5917 -32.5134 Q1217.5917 -32.5134 1217.5917 -22.5134 L1217.5917 -2.5134 Q1217.5917 7.4866 1207.5917 7.4866 L1147.5917 7.4866 Q1137.5917 7.4866 1137.5917 -2.5134 Z" stroke="none" clip-path="url(#clipPath2)"/>
    </g>
    <g text-rendering="geometricPrecision" stroke-miterlimit="1.45" shape-rendering="geometricPrecision" transform="matrix(0.8,0,0,0.8,92,145.6)" stroke-linecap="butt">
      <path fill="none" d="M1137.5917 -22.5134 Q1137.5917 -32.5134 1147.5917 -32.5134 L1207.5917 -32.5134 Q1217.5917 -32.5134 1217.5917 -22.5134 L1217.5917 -2.5134 Q1217.5917 7.4866 1207.5917 7.4866 L1147.5917 7.4866 Q1137.5917 7.4866 1137.5917 -2.5134 Z" clip-path="url(#clipPath2)"/>
      <text x="1138.8832" font-size="14px" y="-7.2224" clip-path="url(#clipPath2)" font-family="sans-serif" stroke="none" xml:space="preserve">Calmodulin</text>
    </g>
    <g fill="white" text-rendering="geometricPrecision" shape-rendering="geometricPrecision" transform="matrix(0.8,0,0,0.8,92,145.6) translate(1157.5917,-1.0134)" stroke="white">
      <rect x="0" y="0" clip-path="url(#clipPath14)" width="40" rx="8.5" ry="8.5" height="17" stroke="none"/>
    </g>
    <g text-rendering="geometricPrecision" stroke-miterlimit="1.45" shape-rendering="geometricPrecision" transform="matrix(0.8,0,0,0.8,92,145.6) translate(1157.5917,-1.0134)" stroke-linecap="butt">
      <rect x="0" y="0" clip-path="url(#clipPath14)" fill="none" width="40" rx="8.5" ry="8.5" height="17"/>
    </g>
    <g fill="rgb(200,216,235)" text-rendering="geometricPrecision" shape-rendering="geometricPrecision" transform="matrix(0.8,0,0,0.8,92,145.6)" stroke="rgb(200,216,235)">
      <path d="M1047.7111 36.4468 Q1047.7111 26.4468 1057.7111 26.4468 L1117.7111 26.4468 Q1127.7111 26.4468 1127.7111 36.4468 L1127.7111 56.4468 Q1127.7111 66.4468 1117.7111 66.4468 L1057.7111 66.4468 Q1047.7111 66.4468 1047.7111 56.4468 Z" stroke="none" clip-path="url(#clipPath2)"/>
    </g>
    <g text-rendering="geometricPrecision" stroke-miterlimit="1.45" shape-rendering="geometricPrecision" transform="matrix(0.8,0,0,0.8,92,145.6)" stroke-linecap="butt">
      <path fill="none" d="M1047.7111 36.4468 Q1047.7111 26.4468 1057.7111 26.4468 L1117.7111 26.4468 Q1127.7111 26.4468 1127.7111 36.4468 L1127.7111 56.4468 Q1127.7111 66.4468 1117.7111 66.4468 L1057.7111 66.4468 Q1047.7111 66.4468 1047.7111 56.4468 Z" clip-path="url(#clipPath2)"/>
      <text x="1070.1017" font-size="14px" y="51.7378" clip-path="url(#clipPath2)" font-family="sans-serif" stroke="none" xml:space="preserve">PHKB</text>
    </g>
    <g fill="white" text-rendering="geometricPrecision" shape-rendering="geometricPrecision" transform="matrix(0.8,0,0,0.8,92,145.6) translate(1078.7111,57.9468)" stroke="white">
      <rect x="0" y="0" clip-path="url(#clipPath15)" width="18" rx="8.5" ry="8.5" height="17" stroke="none"/>
    </g>
    <g text-rendering="geometricPrecision" stroke-miterlimit="1.45" shape-rendering="geometricPrecision" transform="matrix(0.8,0,0,0.8,92,145.6) translate(1078.7111,57.9468)" stroke-linecap="butt">
      <rect x="0" y="0" clip-path="url(#clipPath15)" fill="none" width="18" rx="8.5" ry="8.5" height="17"/>
    </g>
    <g fill="rgb(200,216,235)" text-rendering="geometricPrecision" shape-rendering="geometricPrecision" transform="matrix(0.8,0,0,0.8,92,145.6)" stroke="rgb(200,216,235)">
      <path d="M1137.5917 36.4468 Q1137.5917 26.4468 1147.5917 26.4468 L1207.5917 26.4468 Q1217.5917 26.4468 1217.5917 36.4468 L1217.5917 56.4468 Q1217.5917 66.4468 1207.5917 66.4468 L1147.5917 66.4468 Q1137.5917 66.4468 1137.5917 56.4468 Z" stroke="none" clip-path="url(#clipPath2)"/>
    </g>
    <g text-rendering="geometricPrecision" stroke-miterlimit="1.45" shape-rendering="geometricPrecision" transform="matrix(0.8,0,0,0.8,92,145.6)" stroke-linecap="butt">
      <path fill="none" d="M1137.5917 36.4468 Q1137.5917 26.4468 1147.5917 26.4468 L1207.5917 26.4468 Q1217.5917 26.4468 1217.5917 36.4468 L1217.5917 56.4468 Q1217.5917 66.4468 1207.5917 66.4468 L1147.5917 66.4468 Q1137.5917 66.4468 1137.5917 56.4468 Z" clip-path="url(#clipPath2)"/>
      <text x="1154.5238" font-size="14px" y="51.7378" clip-path="url(#clipPath2)" font-family="sans-serif" stroke="none" xml:space="preserve">PHKG1</text>
    </g>
    <g fill="white" text-rendering="geometricPrecision" shape-rendering="geometricPrecision" transform="matrix(0.8,0,0,0.8,92,145.6)" stroke="white">
      <path d="M654.2162 120.4468 L820.3987 120.4468 L832.3987 132.4468 L832.3987 251.1544 L820.3987 263.1544 L654.2162 263.1544 L642.2162 251.1544 L642.2162 132.4468 Z" stroke="none" clip-path="url(#clipPath2)"/>
    </g>
    <g text-rendering="geometricPrecision" stroke-miterlimit="1.45" shape-rendering="geometricPrecision" transform="matrix(0.8,0,0,0.8,92,145.6)" stroke-linecap="butt">
      <path fill="none" d="M654.2162 120.4468 L820.3987 120.4468 L832.3987 132.4468 L832.3987 251.1544 L820.3987 263.1544 L654.2162 263.1544 L642.2162 251.1544 L642.2162 132.4468 Z" clip-path="url(#clipPath2)"/>
    </g>
    <g fill="rgb(200,216,235)" text-rendering="geometricPrecision" shape-rendering="geometricPrecision" transform="matrix(0.8,0,0,0.8,92,145.6)" stroke="rgb(200,216,235)">
      <path d="M652.5142 150.6941 Q652.5142 140.6941 662.5142 140.6941 L722.5142 140.6941 Q732.5142 140.6941 732.5142 150.6941 L732.5142 170.6941 Q732.5142 180.6941 722.5142 180.6941 L662.5142 180.6941 Q652.5142 180.6941 652.5142 170.6941 Z" stroke="none" clip-path="url(#clipPath2)"/>
    </g>
    <g text-rendering="geometricPrecision" stroke-miterlimit="1.45" shape-rendering="geometricPrecision" transform="matrix(0.8,0,0,0.8,92,145.6)" stroke-linecap="butt">
      <path fill="none" d="M652.5142 150.6941 Q652.5142 140.6941 662.5142 140.6941 L722.5142 140.6941 Q732.5142 140.6941 732.5142 150.6941 L732.5142 170.6941 Q732.5142 180.6941 722.5142 180.6941 L662.5142 180.6941 Q652.5142 180.6941 652.5142 170.6941 Z" clip-path="url(#clipPath2)"/>
      <text x="669.6754" font-size="14px" y="165.9852" clip-path="url(#clipPath2)" font-family="sans-serif" stroke="none" xml:space="preserve">PHKA1</text>
    </g>
    <g fill="white" text-rendering="geometricPrecision" shape-rendering="geometricPrecision" transform="matrix(0.8,0,0,0.8,92,145.6) translate(683.5142,172.1941)" stroke="white">
      <rect x="0" y="0" clip-path="url(#clipPath16)" width="18" rx="8.5" ry="8.5" height="17" stroke="none"/>
    </g>
    <g text-rendering="geometricPrecision" stroke-miterlimit="1.45" shape-rendering="geometricPrecision" transform="matrix(0.8,0,0,0.8,92,145.6) translate(683.5142,172.1941)" stroke-linecap="butt">
      <rect x="0" y="0" clip-path="url(#clipPath16)" fill="none" width="18" rx="8.5" ry="8.5" height="17"/>
      <text x="6.2363" font-size="10px" y="12.2793" clip-path="url(#clipPath16)" font-family="sans-serif" stroke="none" xml:space="preserve">P</text>
    </g>
    <g fill="rgb(200,216,235)" text-rendering="geometricPrecision" shape-rendering="geometricPrecision" transform="matrix(0.8,0,0,0.8,92,145.6)" stroke="rgb(200,216,235)">
      <path d="M741.6902 150.6941 Q741.6902 140.6941 751.6902 140.6941 L811.6902 140.6941 Q821.6902 140.6941 821.6902 150.6941 L821.6902 170.6941 Q821.6902 180.6941 811.6902 180.6941 L751.6902 180.6941 Q741.6902 180.6941 741.6902 170.6941 Z" stroke="none" clip-path="url(#clipPath2)"/>
    </g>
    <g text-rendering="geometricPrecision" stroke-miterlimit="1.45" shape-rendering="geometricPrecision" transform="matrix(0.8,0,0,0.8,92,145.6)" stroke-linecap="butt">
      <path fill="none" d="M741.6902 150.6941 Q741.6902 140.6941 751.6902 140.6941 L811.6902 140.6941 Q821.6902 140.6941 821.6902 150.6941 L821.6902 170.6941 Q821.6902 180.6941 811.6902 180.6941 L751.6902 180.6941 Q741.6902 180.6941 741.6902 170.6941 Z" clip-path="url(#clipPath2)"/>
      <text x="742.9817" font-size="14px" y="165.9852" clip-path="url(#clipPath2)" font-family="sans-serif" stroke="none" xml:space="preserve">Calmodulin</text>
    </g>
    <g fill="white" text-rendering="geometricPrecision" shape-rendering="geometricPrecision" transform="matrix(0.8,0,0,0.8,92,145.6) translate(761.6902,172.1941)" stroke="white">
      <rect x="0" y="0" clip-path="url(#clipPath17)" width="40" rx="8.5" ry="8.5" height="17" stroke="none"/>
    </g>
    <g text-rendering="geometricPrecision" stroke-miterlimit="1.45" shape-rendering="geometricPrecision" transform="matrix(0.8,0,0,0.8,92,145.6) translate(761.6902,172.1941)" stroke-linecap="butt">
      <rect x="0" y="0" clip-path="url(#clipPath17)" fill="none" width="40" rx="8.5" ry="8.5" height="17"/>
      <text x="6" font-size="10px" y="12.2793" clip-path="url(#clipPath17)" font-family="sans-serif" stroke="none" xml:space="preserve">Ca2+</text>
    </g>
    <g fill="rgb(200,216,235)" text-rendering="geometricPrecision" shape-rendering="geometricPrecision" transform="matrix(0.8,0,0,0.8,92,145.6)" stroke="rgb(200,216,235)">
      <path d="M652.5142 209.6544 Q652.5142 199.6544 662.5142 199.6544 L722.5142 199.6544 Q732.5142 199.6544 732.5142 209.6544 L732.5142 229.6544 Q732.5142 239.6544 722.5142 239.6544 L662.5142 239.6544 Q652.5142 239.6544 652.5142 229.6544 Z" stroke="none" clip-path="url(#clipPath2)"/>
    </g>
    <g text-rendering="geometricPrecision" stroke-miterlimit="1.45" shape-rendering="geometricPrecision" transform="matrix(0.8,0,0,0.8,92,145.6)" stroke-linecap="butt">
      <path fill="none" d="M652.5142 209.6544 Q652.5142 199.6544 662.5142 199.6544 L722.5142 199.6544 Q732.5142 199.6544 732.5142 209.6544 L732.5142 229.6544 Q732.5142 239.6544 722.5142 239.6544 L662.5142 239.6544 Q652.5142 239.6544 652.5142 229.6544 Z" clip-path="url(#clipPath2)"/>
      <text x="674.9048" font-size="14px" y="224.9454" clip-path="url(#clipPath2)" font-family="sans-serif" stroke="none" xml:space="preserve">PHKB</text>
    </g>
    <g fill="white" text-rendering="geometricPrecision" shape-rendering="geometricPrecision" transform="matrix(0.8,0,0,0.8,92,145.6) translate(683.5142,231.1544)" stroke="white">
      <rect x="0" y="0" clip-path="url(#clipPath18)" width="18" rx="8.5" ry="8.5" height="17" stroke="none"/>
    </g>
    <g text-rendering="geometricPrecision" stroke-miterlimit="1.45" shape-rendering="geometricPrecision" transform="matrix(0.8,0,0,0.8,92,145.6) translate(683.5142,231.1544)" stroke-linecap="butt">
      <rect x="0" y="0" clip-path="url(#clipPath18)" fill="none" width="18" rx="8.5" ry="8.5" height="17"/>
      <text x="6.2363" font-size="10px" y="12.2793" clip-path="url(#clipPath18)" font-family="sans-serif" stroke="none" xml:space="preserve">P</text>
    </g>
    <g fill="rgb(219,235,219)" text-rendering="geometricPrecision" shape-rendering="geometricPrecision" transform="matrix(0.8,0,0,0.8,92,145.6)" stroke="rgb(219,235,219)">
      <rect x="998.7054" y="-153.0762" clip-path="url(#clipPath2)" width="38" rx="19" ry="19" height="38" stroke="none"/>
    </g>
    <g text-rendering="geometricPrecision" stroke-miterlimit="1.45" shape-rendering="geometricPrecision" transform="matrix(0.8,0,0,0.8,92,145.6)" stroke-linecap="butt">
      <rect x="998.7054" y="-153.0762" clip-path="url(#clipPath2)" fill="none" width="38" rx="19" ry="19" height="38"/>
      <text x="999.0057" font-size="14px" y="-128.7852" clip-path="url(#clipPath2)" font-family="sans-serif" stroke="none" xml:space="preserve">Ca2+</text>
    </g>
    <g fill="rgb(200,216,235)" text-rendering="geometricPrecision" shape-rendering="geometricPrecision" transform="matrix(0.8,0,0,0.8,92,145.6)" stroke="rgb(200,216,235)">
      <path d="M673.4537 -144.0762 Q673.4537 -154.0762 683.4537 -154.0762 L743.4537 -154.0762 Q753.4537 -154.0762 753.4537 -144.0762 L753.4537 -124.0762 Q753.4537 -114.0762 743.4537 -114.0762 L683.4537 -114.0762 Q673.4537 -114.0762 673.4537 -124.0762 Z" stroke="none" clip-path="url(#clipPath2)"/>
    </g>
    <g text-rendering="geometricPrecision" stroke-miterlimit="1.45" shape-rendering="geometricPrecision" transform="matrix(0.8,0,0,0.8,92,145.6)" stroke-linecap="butt">
      <path fill="none" d="M673.4537 -144.0762 Q673.4537 -154.0762 683.4537 -154.0762 L743.4537 -154.0762 Q753.4537 -154.0762 753.4537 -144.0762 L753.4537 -124.0762 Q753.4537 -114.0762 743.4537 -114.0762 L683.4537 -114.0762 Q673.4537 -114.0762 673.4537 -124.0762 Z" clip-path="url(#clipPath2)"/>
      <text x="687.9009" font-size="14px" y="-128.7852" clip-path="url(#clipPath2)" font-family="sans-serif" stroke="none" xml:space="preserve">PKA cat</text>
    </g>
    <g fill="white" text-rendering="geometricPrecision" shape-rendering="geometricPrecision" transform="matrix(0.8,0,0,0.8,92,145.6) translate(690.9537,-162.6875)" stroke="white">
      <rect x="0" y="0" clip-path="url(#clipPath19)" width="45" rx="8.5" ry="8.5" height="17" stroke="none"/>
    </g>
    <g text-rendering="geometricPrecision" stroke-miterlimit="1.45" shape-rendering="geometricPrecision" transform="matrix(0.8,0,0,0.8,92,145.6) translate(690.9537,-162.6875)" stroke-linecap="butt">
      <rect x="0" y="0" clip-path="url(#clipPath19)" fill="none" width="45" rx="8.5" ry="8.5" height="17"/>
      <text x="8.4888" font-size="10px" y="12.2793" clip-path="url(#clipPath19)" font-family="sans-serif" stroke="none" xml:space="preserve">active</text>
    </g>
    <g fill="white" text-rendering="geometricPrecision" shape-rendering="geometricPrecision" transform="matrix(0.8,0,0,0.8,92,145.6)" stroke="white">
      <rect x="557.6825" width="18" height="18" y="132.0569" clip-path="url(#clipPath2)" stroke="none"/>
    </g>
    <g text-rendering="geometricPrecision" stroke-miterlimit="1.45" shape-rendering="geometricPrecision" transform="matrix(0.8,0,0,0.8,92,145.6)" stroke-linecap="butt">
      <rect fill="none" x="557.6825" width="18" height="18" y="132.0569" clip-path="url(#clipPath2)"/>
    </g>
    <g text-rendering="geometricPrecision" stroke-miterlimit="1.45" shape-rendering="geometricPrecision" transform="matrix(0.8,0,0,0.8,92,145.6)" stroke-linecap="butt">
      <path fill="none" d="M566.6825 150.0757 L566.6825 188.6437" clip-path="url(#clipPath2)"/>
      <path d="M566.6825 199.6437 L572.6825 187.6437 L560.6825 187.6437 Z" clip-path="url(#clipPath2)" stroke="none"/>
      <path fill="none" d="M566.6825 150.0606 L566.6825 159.8308 L567.3075 164.1032 L569.1825 167.1502 L572.3074 168.9718 L576.6824 169.5679 L631.2043 169.3874" clip-path="url(#clipPath2)"/>
      <path d="M642.2043 169.351 L630.1845 163.3908 L630.2242 175.3907 Z" clip-path="url(#clipPath2)" stroke="none"/>
    </g>
    <g fill="white" text-rendering="geometricPrecision" shape-rendering="geometricPrecision" transform="matrix(0.8,0,0,0.8,92,145.6)" stroke="white">
      <path d="M767.5204 -53.8865 L939.4924 -53.8865 L951.4924 -41.8865 L951.4924 77.9468 L939.4924 89.9468 L767.5204 89.9468 L755.5204 77.9468 L755.5204 -41.8865 Z" stroke="none" clip-path="url(#clipPath2)"/>
    </g>
    <g text-rendering="geometricPrecision" stroke-miterlimit="1.45" shape-rendering="geometricPrecision" transform="matrix(0.8,0,0,0.8,92,145.6)" stroke-linecap="butt">
      <path fill="none" d="M767.5204 -53.8865 L939.4924 -53.8865 L951.4924 -41.8865 L951.4924 77.9468 L939.4924 89.9468 L767.5204 89.9468 L755.5204 77.9468 L755.5204 -41.8865 Z" clip-path="url(#clipPath2)"/>
    </g>
    <g fill="rgb(200,216,235)" text-rendering="geometricPrecision" shape-rendering="geometricPrecision" transform="matrix(0.8,0,0,0.8,92,145.6)" stroke="rgb(200,216,235)">
      <path d="M767.03 -22.5134 Q767.03 -32.5134 777.03 -32.5134 L837.03 -32.5134 Q847.03 -32.5134 847.03 -22.5134 L847.03 -2.5134 Q847.03 7.4866 837.03 7.4866 L777.03 7.4866 Q767.03 7.4866 767.03 -2.5134 Z" stroke="none" clip-path="url(#clipPath2)"/>
    </g>
    <g text-rendering="geometricPrecision" stroke-miterlimit="1.45" shape-rendering="geometricPrecision" transform="matrix(0.8,0,0,0.8,92,145.6)" stroke-linecap="butt">
      <path fill="none" d="M767.03 -22.5134 Q767.03 -32.5134 777.03 -32.5134 L837.03 -32.5134 Q847.03 -32.5134 847.03 -22.5134 L847.03 -2.5134 Q847.03 7.4866 837.03 7.4866 L777.03 7.4866 Q767.03 7.4866 767.03 -2.5134 Z" clip-path="url(#clipPath2)"/>
      <text x="784.1911" font-size="14px" y="-7.2224" clip-path="url(#clipPath2)" font-family="sans-serif" stroke="none" xml:space="preserve">PHKA1</text>
    </g>
    <g fill="white" text-rendering="geometricPrecision" shape-rendering="geometricPrecision" transform="matrix(0.8,0,0,0.8,92,145.6) translate(798.03,-1.0134)" stroke="white">
      <rect x="0" y="0" clip-path="url(#clipPath20)" width="18" rx="8.5" ry="8.5" height="17" stroke="none"/>
    </g>
    <g text-rendering="geometricPrecision" stroke-miterlimit="1.45" shape-rendering="geometricPrecision" transform="matrix(0.8,0,0,0.8,92,145.6) translate(798.03,-1.0134)" stroke-linecap="butt">
      <rect x="0" y="0" clip-path="url(#clipPath20)" fill="none" width="18" rx="8.5" ry="8.5" height="17"/>
    </g>
    <g fill="rgb(200,216,235)" text-rendering="geometricPrecision" shape-rendering="geometricPrecision" transform="matrix(0.8,0,0,0.8,92,145.6)" stroke="rgb(200,216,235)">
      <path d="M767.03 36.4468 Q767.03 26.4468 777.03 26.4468 L837.03 26.4468 Q847.03 26.4468 847.03 36.4468 L847.03 56.4468 Q847.03 66.4468 837.03 66.4468 L777.03 66.4468 Q767.03 66.4468 767.03 56.4468 Z" stroke="none" clip-path="url(#clipPath2)"/>
    </g>
    <g text-rendering="geometricPrecision" stroke-miterlimit="1.45" shape-rendering="geometricPrecision" transform="matrix(0.8,0,0,0.8,92,145.6)" stroke-linecap="butt">
      <path fill="none" d="M767.03 36.4468 Q767.03 26.4468 777.03 26.4468 L837.03 26.4468 Q847.03 26.4468 847.03 36.4468 L847.03 56.4468 Q847.03 66.4468 837.03 66.4468 L777.03 66.4468 Q767.03 66.4468 767.03 56.4468 Z" clip-path="url(#clipPath2)"/>
      <text x="789.4206" font-size="14px" y="51.7378" clip-path="url(#clipPath2)" font-family="sans-serif" stroke="none" xml:space="preserve">PHKB</text>
    </g>
    <g fill="white" text-rendering="geometricPrecision" shape-rendering="geometricPrecision" transform="matrix(0.8,0,0,0.8,92,145.6) translate(798.03,57.9468)" stroke="white">
      <rect x="0" y="0" clip-path="url(#clipPath21)" width="18" rx="8.5" ry="8.5" height="17" stroke="none"/>
    </g>
    <g text-rendering="geometricPrecision" stroke-miterlimit="1.45" shape-rendering="geometricPrecision" transform="matrix(0.8,0,0,0.8,92,145.6) translate(798.03,57.9468)" stroke-linecap="butt">
      <rect x="0" y="0" clip-path="url(#clipPath21)" fill="none" width="18" rx="8.5" ry="8.5" height="17"/>
    </g>
    <g fill="rgb(200,216,235)" text-rendering="geometricPrecision" shape-rendering="geometricPrecision" transform="matrix(0.8,0,0,0.8,92,145.6)" stroke="rgb(200,216,235)">
      <path d="M856.9106 -22.5134 Q856.9106 -32.5134 866.9106 -32.5134 L926.9106 -32.5134 Q936.9106 -32.5134 936.9106 -22.5134 L936.9106 -2.5134 Q936.9106 7.4866 926.9106 7.4866 L866.9106 7.4866 Q856.9106 7.4866 856.9106 -2.5134 Z" stroke="none" clip-path="url(#clipPath2)"/>
    </g>
    <g text-rendering="geometricPrecision" stroke-miterlimit="1.45" shape-rendering="geometricPrecision" transform="matrix(0.8,0,0,0.8,92,145.6)" stroke-linecap="butt">
      <path fill="none" d="M856.9106 -22.5134 Q856.9106 -32.5134 866.9106 -32.5134 L926.9106 -32.5134 Q936.9106 -32.5134 936.9106 -22.5134 L936.9106 -2.5134 Q936.9106 7.4866 926.9106 7.4866 L866.9106 7.4866 Q856.9106 7.4866 856.9106 -2.5134 Z" clip-path="url(#clipPath2)"/>
      <text x="858.2021" font-size="14px" y="-7.2224" clip-path="url(#clipPath2)" font-family="sans-serif" stroke="none" xml:space="preserve">Calmodulin</text>
    </g>
    <g fill="white" text-rendering="geometricPrecision" shape-rendering="geometricPrecision" transform="matrix(0.8,0,0,0.8,92,145.6) translate(876.9106,-1.0134)" stroke="white">
      <rect x="0" y="0" clip-path="url(#clipPath22)" width="40" rx="8.5" ry="8.5" height="17" stroke="none"/>
    </g>
    <g text-rendering="geometricPrecision" stroke-miterlimit="1.45" shape-rendering="geometricPrecision" transform="matrix(0.8,0,0,0.8,92,145.6) translate(876.9106,-1.0134)" stroke-linecap="butt">
      <rect x="0" y="0" clip-path="url(#clipPath22)" fill="none" width="40" rx="8.5" ry="8.5" height="17"/>
      <text x="6" font-size="10px" y="12.2793" clip-path="url(#clipPath22)" font-family="sans-serif" stroke="none" xml:space="preserve">Ca2+</text>
    </g>
    <g fill="rgb(200,216,235)" text-rendering="geometricPrecision" shape-rendering="geometricPrecision" transform="matrix(0.8,0,0,0.8,92,145.6)" stroke="rgb(200,216,235)">
      <path d="M856.9106 36.4468 Q856.9106 26.4468 866.9106 26.4468 L926.9106 26.4468 Q936.9106 26.4468 936.9106 36.4468 L936.9106 56.4468 Q936.9106 66.4468 926.9106 66.4468 L866.9106 66.4468 Q856.9106 66.4468 856.9106 56.4468 Z" stroke="none" clip-path="url(#clipPath2)"/>
    </g>
    <g text-rendering="geometricPrecision" stroke-miterlimit="1.45" shape-rendering="geometricPrecision" transform="matrix(0.8,0,0,0.8,92,145.6)" stroke-linecap="butt">
      <path fill="none" d="M856.9106 36.4468 Q856.9106 26.4468 866.9106 26.4468 L926.9106 26.4468 Q936.9106 26.4468 936.9106 36.4468 L936.9106 56.4468 Q936.9106 66.4468 926.9106 66.4468 L866.9106 66.4468 Q856.9106 66.4468 856.9106 56.4468 Z" clip-path="url(#clipPath2)"/>
      <text x="873.8428" font-size="14px" y="51.7378" clip-path="url(#clipPath2)" font-family="sans-serif" stroke="none" xml:space="preserve">PHKG1</text>
    </g>
    <g fill="white" text-rendering="geometricPrecision" shape-rendering="geometricPrecision" transform="matrix(0.8,0,0,0.8,92,145.6)" stroke="white">
      <rect x="981.4924" width="18" height="18" y="9.2801" clip-path="url(#clipPath2)" stroke="none"/>
    </g>
    <g text-rendering="geometricPrecision" stroke-miterlimit="1.45" shape-rendering="geometricPrecision" transform="matrix(0.8,0,0,0.8,92,145.6)" stroke-linecap="butt">
      <rect fill="none" x="981.4924" width="18" height="18" y="9.2801" clip-path="url(#clipPath2)"/>
    </g>
    <g text-rendering="geometricPrecision" stroke-miterlimit="1.45" shape-rendering="geometricPrecision" transform="matrix(0.8,0,0,0.8,92,145.6)" stroke-linecap="butt">
      <path fill="none" d="M1017.6572 -115.0688 L1017.3443 8.2802 L1016.7757 12.6552 L1015.0952 15.7802 L1012.3028 17.6551 L1008.3986 18.2801 L999.4783 18.2801" clip-path="url(#clipPath2)"/>
      <path fill="none" d="M999.4907 18.2645 L1035.9491 18.2009" clip-path="url(#clipPath2)"/>
      <path fill="none" d="M981.496 18.2637 L962.4672 18.229" clip-path="url(#clipPath2)"/>
      <path d="M951.4672 18.2089 L963.4562 24.2308 L963.4781 12.2308 Z" clip-path="url(#clipPath2)" stroke="none"/>
    </g>
    <g fill="white" text-rendering="geometricPrecision" shape-rendering="geometricPrecision" transform="matrix(0.8,0,0,0.8,92,145.6)" stroke="white">
      <path d="M473.9781 -50.8416 L659.387 -50.8416 L671.387 -38.8416 L671.387 80.9917 L659.387 92.9917 L473.9781 92.9917 L461.9781 80.9917 L461.9781 -38.8416 Z" stroke="none" clip-path="url(#clipPath2)"/>
    </g>
    <g text-rendering="geometricPrecision" stroke-miterlimit="1.45" shape-rendering="geometricPrecision" transform="matrix(0.8,0,0,0.8,92,145.6)" stroke-linecap="butt">
      <path fill="none" d="M473.9781 -50.8416 L659.387 -50.8416 L671.387 -38.8416 L671.387 80.9917 L659.387 92.9917 L473.9781 92.9917 L461.9781 80.9917 L461.9781 -38.8416 Z" clip-path="url(#clipPath2)"/>
    </g>
    <g fill="rgb(200,216,235)" text-rendering="geometricPrecision" shape-rendering="geometricPrecision" transform="matrix(0.8,0,0,0.8,92,145.6)" stroke="rgb(200,216,235)">
      <path d="M480.7862 -19.4685 Q480.7862 -29.4685 490.7862 -29.4685 L550.7863 -29.4685 Q560.7863 -29.4685 560.7863 -19.4685 L560.7863 0.5315 Q560.7863 10.5315 550.7863 10.5315 L490.7862 10.5315 Q480.7862 10.5315 480.7862 0.5315 Z" stroke="none" clip-path="url(#clipPath2)"/>
    </g>
    <g text-rendering="geometricPrecision" stroke-miterlimit="1.45" shape-rendering="geometricPrecision" transform="matrix(0.8,0,0,0.8,92,145.6)" stroke-linecap="butt">
      <path fill="none" d="M480.7862 -19.4685 Q480.7862 -29.4685 490.7862 -29.4685 L550.7863 -29.4685 Q560.7863 -29.4685 560.7863 -19.4685 L560.7863 0.5315 Q560.7863 10.5315 550.7863 10.5315 L490.7862 10.5315 Q480.7862 10.5315 480.7862 0.5315 Z" clip-path="url(#clipPath2)"/>
      <text x="497.9474" font-size="14px" y="-4.1775" clip-path="url(#clipPath2)" font-family="sans-serif" stroke="none" xml:space="preserve">PHKA1</text>
    </g>
    <g fill="white" text-rendering="geometricPrecision" shape-rendering="geometricPrecision" transform="matrix(0.8,0,0,0.8,92,145.6) translate(511.7862,2.0315)" stroke="white">
      <rect x="0" y="0" clip-path="url(#clipPath23)" width="18" rx="8.5" ry="8.5" height="17" stroke="none"/>
    </g>
    <g text-rendering="geometricPrecision" stroke-miterlimit="1.45" shape-rendering="geometricPrecision" transform="matrix(0.8,0,0,0.8,92,145.6) translate(511.7862,2.0315)" stroke-linecap="butt">
      <rect x="0" y="0" clip-path="url(#clipPath23)" fill="none" width="18" rx="8.5" ry="8.5" height="17"/>
      <text x="6.2363" font-size="10px" y="12.2793" clip-path="url(#clipPath23)" font-family="sans-serif" stroke="none" xml:space="preserve">P</text>
    </g>
    <g fill="rgb(200,216,235)" text-rendering="geometricPrecision" shape-rendering="geometricPrecision" transform="matrix(0.8,0,0,0.8,92,145.6)" stroke="rgb(200,216,235)">
      <path d="M569.9622 -19.4685 Q569.9622 -29.4685 579.9622 -29.4685 L639.9622 -29.4685 Q649.9622 -29.4685 649.9622 -19.4685 L649.9622 0.5315 Q649.9622 10.5315 639.9622 10.5315 L579.9622 10.5315 Q569.9622 10.5315 569.9622 0.5315 Z" stroke="none" clip-path="url(#clipPath2)"/>
    </g>
    <g text-rendering="geometricPrecision" stroke-miterlimit="1.45" shape-rendering="geometricPrecision" transform="matrix(0.8,0,0,0.8,92,145.6)" stroke-linecap="butt">
      <path fill="none" d="M569.9622 -19.4685 Q569.9622 -29.4685 579.9622 -29.4685 L639.9622 -29.4685 Q649.9622 -29.4685 649.9622 -19.4685 L649.9622 0.5315 Q649.9622 10.5315 639.9622 10.5315 L579.9622 10.5315 Q569.9622 10.5315 569.9622 0.5315 Z" clip-path="url(#clipPath2)"/>
      <text x="571.2537" font-size="14px" y="-4.1775" clip-path="url(#clipPath2)" font-family="sans-serif" stroke="none" xml:space="preserve">Calmodulin</text>
    </g>
    <g fill="white" text-rendering="geometricPrecision" shape-rendering="geometricPrecision" transform="matrix(0.8,0,0,0.8,92,145.6) translate(589.9622,2.0315)" stroke="white">
      <rect x="0" y="0" clip-path="url(#clipPath24)" width="40" rx="8.5" ry="8.5" height="17" stroke="none"/>
    </g>
    <g text-rendering="geometricPrecision" stroke-miterlimit="1.45" shape-rendering="geometricPrecision" transform="matrix(0.8,0,0,0.8,92,145.6) translate(589.9622,2.0315)" stroke-linecap="butt">
      <rect x="0" y="0" clip-path="url(#clipPath24)" fill="none" width="40" rx="8.5" ry="8.5" height="17"/>
      <text x="6" font-size="10px" y="12.2793" clip-path="url(#clipPath24)" font-family="sans-serif" stroke="none" xml:space="preserve">Ca2+</text>
    </g>
    <g fill="rgb(200,216,235)" text-rendering="geometricPrecision" shape-rendering="geometricPrecision" transform="matrix(0.8,0,0,0.8,92,145.6)" stroke="rgb(200,216,235)">
      <path d="M480.7862 39.4917 Q480.7862 29.4917 490.7862 29.4917 L550.7863 29.4917 Q560.7863 29.4917 560.7863 39.4917 L560.7863 59.4917 Q560.7863 69.4917 550.7863 69.4917 L490.7862 69.4917 Q480.7862 69.4917 480.7862 59.4917 Z" stroke="none" clip-path="url(#clipPath2)"/>
    </g>
    <g text-rendering="geometricPrecision" stroke-miterlimit="1.45" shape-rendering="geometricPrecision" transform="matrix(0.8,0,0,0.8,92,145.6)" stroke-linecap="butt">
      <path fill="none" d="M480.7862 39.4917 Q480.7862 29.4917 490.7862 29.4917 L550.7863 29.4917 Q560.7863 29.4917 560.7863 39.4917 L560.7863 59.4917 Q560.7863 69.4917 550.7863 69.4917 L490.7862 69.4917 Q480.7862 69.4917 480.7862 59.4917 Z" clip-path="url(#clipPath2)"/>
      <text x="503.1768" font-size="14px" y="54.7828" clip-path="url(#clipPath2)" font-family="sans-serif" stroke="none" xml:space="preserve">PHKB</text>
    </g>
    <g fill="white" text-rendering="geometricPrecision" shape-rendering="geometricPrecision" transform="matrix(0.8,0,0,0.8,92,145.6) translate(511.7862,60.9917)" stroke="white">
      <rect x="0" y="0" clip-path="url(#clipPath25)" width="18" rx="8.5" ry="8.5" height="17" stroke="none"/>
    </g>
    <g text-rendering="geometricPrecision" stroke-miterlimit="1.45" shape-rendering="geometricPrecision" transform="matrix(0.8,0,0,0.8,92,145.6) translate(511.7862,60.9917)" stroke-linecap="butt">
      <rect x="0" y="0" clip-path="url(#clipPath25)" fill="none" width="18" rx="8.5" ry="8.5" height="17"/>
      <text x="6.2363" font-size="10px" y="12.2793" clip-path="url(#clipPath25)" font-family="sans-serif" stroke="none" xml:space="preserve">P</text>
    </g>
    <g fill="rgb(200,216,235)" text-rendering="geometricPrecision" shape-rendering="geometricPrecision" transform="matrix(0.8,0,0,0.8,92,145.6)" stroke="rgb(200,216,235)">
      <path d="M569.9622 39.4917 Q569.9622 29.4917 579.9622 29.4917 L639.9622 29.4917 Q649.9622 29.4917 649.9622 39.4917 L649.9622 59.4917 Q649.9622 69.4917 639.9622 69.4917 L579.9622 69.4917 Q569.9622 69.4917 569.9622 59.4917 Z" stroke="none" clip-path="url(#clipPath2)"/>
    </g>
    <g text-rendering="geometricPrecision" stroke-miterlimit="1.45" shape-rendering="geometricPrecision" transform="matrix(0.8,0,0,0.8,92,145.6)" stroke-linecap="butt">
      <path fill="none" d="M569.9622 39.4917 Q569.9622 29.4917 579.9622 29.4917 L639.9622 29.4917 Q649.9622 29.4917 649.9622 39.4917 L649.9622 59.4917 Q649.9622 69.4917 639.9622 69.4917 L579.9622 69.4917 Q569.9622 69.4917 569.9622 59.4917 Z" clip-path="url(#clipPath2)"/>
      <text x="586.8943" font-size="14px" y="54.7828" clip-path="url(#clipPath2)" font-family="sans-serif" stroke="none" xml:space="preserve">PHKG1</text>
    </g>
    <g fill="white" text-rendering="geometricPrecision" shape-rendering="geometricPrecision" transform="matrix(0.8,0,0,0.8,92,145.6)" stroke="white">
      <rect x="704.4537" width="18" height="18" y="12.3251" clip-path="url(#clipPath2)" stroke="none"/>
    </g>
    <g text-rendering="geometricPrecision" stroke-miterlimit="1.45" shape-rendering="geometricPrecision" transform="matrix(0.8,0,0,0.8,92,145.6)" stroke-linecap="butt">
      <rect fill="none" x="704.4537" width="18" height="18" y="12.3251" clip-path="url(#clipPath2)"/>
    </g>
    <g fill="rgb(219,235,219)" text-rendering="geometricPrecision" shape-rendering="geometricPrecision" transform="matrix(0.8,0,0,0.8,92,145.6)" stroke="rgb(219,235,219)">
      <rect x="371.344" y="412.8776" clip-path="url(#clipPath2)" width="120.5497" rx="19" ry="19" height="38" stroke="none"/>
    </g>
    <g text-rendering="geometricPrecision" stroke-miterlimit="1.45" shape-rendering="geometricPrecision" transform="matrix(0.8,0,0,0.8,92,145.6)" stroke-linecap="butt">
      <rect x="371.344" y="412.8776" clip-path="url(#clipPath2)" fill="none" width="120.5497" rx="19" ry="19" height="38"/>
      <text x="374.9865" font-size="14px" y="437.1686" clip-path="url(#clipPath2)" font-family="sans-serif" stroke="none" xml:space="preserve">-D-glucose-1P</text>
    </g>
    <g fill="rgb(219,235,219)" text-rendering="geometricPrecision" shape-rendering="geometricPrecision" transform="matrix(0.8,0,0,0.8,92,145.6)" stroke="rgb(219,235,219)">
      <rect x="112.8147" y="412.8776" clip-path="url(#clipPath2)" width="112.9636" rx="19" ry="19" height="38" stroke="none"/>
    </g>
    <g text-rendering="geometricPrecision" stroke-miterlimit="1.45" shape-rendering="geometricPrecision" transform="matrix(0.8,0,0,0.8,92,145.6)" stroke-linecap="butt">
      <rect x="112.8147" y="412.8776" clip-path="url(#clipPath2)" fill="none" width="112.9636" rx="19" ry="19" height="38"/>
      <text x="115.9044" font-size="14px" y="437.1686" clip-path="url(#clipPath2)" font-family="sans-serif" stroke="none" xml:space="preserve">UDP-D-glucose</text>
    </g>
    <g fill="white" text-rendering="geometricPrecision" shape-rendering="geometricPrecision" transform="matrix(0.8,0,0,0.8,92,145.6)" stroke="white">
      <rect x="290.606" width="18" height="18" y="521.8753" clip-path="url(#clipPath2)" stroke="none"/>
    </g>
    <g text-rendering="geometricPrecision" stroke-miterlimit="1.45" shape-rendering="geometricPrecision" transform="matrix(0.8,0,0,0.8,92,145.6)" stroke-linecap="butt">
      <rect fill="none" x="290.606" width="18" height="18" y="521.8753" clip-path="url(#clipPath2)"/>
    </g>
    <g fill="rgb(219,235,219)" text-rendering="geometricPrecision" shape-rendering="geometricPrecision" transform="matrix(0.8,0,0,0.8,92,145.6)" stroke="rgb(219,235,219)">
      <rect x="338.606" y="568.8753" clip-path="url(#clipPath2)" width="38" rx="19" ry="19" height="38" stroke="none"/>
    </g>
    <g text-rendering="geometricPrecision" stroke-miterlimit="1.45" shape-rendering="geometricPrecision" transform="matrix(0.8,0,0,0.8,92,145.6)" stroke-linecap="butt">
      <rect x="338.606" y="568.8753" clip-path="url(#clipPath2)" fill="none" width="38" rx="19" ry="19" height="38"/>
      <text x="344.4604" font-size="14px" y="593.1663" clip-path="url(#clipPath2)" font-family="sans-serif" stroke="none" xml:space="preserve">UTP</text>
    </g>
    <g fill="rgb(219,235,219)" text-rendering="geometricPrecision" shape-rendering="geometricPrecision" transform="matrix(0.8,0,0,0.8,92,145.6)" stroke="rgb(219,235,219)">
      <rect x="222.606" y="568.8753" clip-path="url(#clipPath2)" width="38" rx="19" ry="19" height="38" stroke="none"/>
    </g>
    <g text-rendering="geometricPrecision" stroke-miterlimit="1.45" shape-rendering="geometricPrecision" transform="matrix(0.8,0,0,0.8,92,145.6)" stroke-linecap="butt">
      <rect x="222.606" y="568.8753" clip-path="url(#clipPath2)" fill="none" width="38" rx="19" ry="19" height="38"/>
      <text x="235.7134" font-size="14px" y="593.1663" clip-path="url(#clipPath2)" font-family="sans-serif" stroke="none" xml:space="preserve">Pi</text>
    </g>
    <g fill="rgb(200,216,235)" text-rendering="geometricPrecision" shape-rendering="geometricPrecision" transform="matrix(0.8,0,0,0.8,92,145.6)" stroke="rgb(200,216,235)">
      <path d="M510.2007 508.1774 Q510.2007 498.1774 520.2007 498.1774 L613.1643 498.1774 Q623.1643 498.1774 623.1643 508.1774 L623.1643 528.1774 Q623.1643 538.1774 613.1643 538.1774 L520.2007 538.1774 Q510.2007 538.1774 510.2007 528.1774 Z" stroke="none" clip-path="url(#clipPath2)"/>
    </g>
    <g text-rendering="geometricPrecision" stroke-miterlimit="1.45" shape-rendering="geometricPrecision" transform="matrix(0.8,0,0,0.8,92,145.6)" stroke-linecap="butt">
      <path fill="none" d="M510.2007 508.1774 Q510.2007 498.1774 520.2007 498.1774 L613.1643 498.1774 Q623.1643 498.1774 623.1643 508.1774 L623.1643 528.1774 Q623.1643 538.1774 613.1643 538.1774 L520.2007 538.1774 Q510.2007 538.1774 510.2007 528.1774 Z" clip-path="url(#clipPath2)"/>
      <text x="540.5487" font-size="14px" y="515.2242" clip-path="url(#clipPath2)" font-family="sans-serif" stroke="none" xml:space="preserve">Protein </text>
      <text x="516.8553" font-size="14px" y="531.7125" clip-path="url(#clipPath2)" font-family="sans-serif" stroke="none" xml:space="preserve">phosphatase 1</text>
    </g>
    <g fill="rgb(200,216,235)" text-rendering="geometricPrecision" shape-rendering="geometricPrecision" transform="matrix(0.8,0,0,0.8,92,145.6)" stroke="rgb(200,216,235)">
      <path d="M259.606 646.8753 Q259.606 636.8753 269.606 636.8753 L329.606 636.8753 Q339.606 636.8753 339.606 646.8753 L339.606 666.8753 Q339.606 676.8753 329.606 676.8753 L269.606 676.8753 Q259.606 676.8753 259.606 666.8753 Z" stroke="none" clip-path="url(#clipPath2)"/>
    </g>
    <g text-rendering="geometricPrecision" stroke-miterlimit="1.45" shape-rendering="geometricPrecision" transform="matrix(0.8,0,0,0.8,92,145.6)" stroke-linecap="butt">
      <path fill="none" d="M259.606 646.8753 Q259.606 636.8753 269.606 636.8753 L329.606 636.8753 Q339.606 636.8753 339.606 646.8753 L339.606 666.8753 Q339.606 676.8753 329.606 676.8753 L269.606 676.8753 Q259.606 676.8753 259.606 666.8753 Z" clip-path="url(#clipPath2)"/>
      <text x="281.4019" font-size="14px" y="662.1663" clip-path="url(#clipPath2)" font-family="sans-serif" stroke="none" xml:space="preserve">UGP2</text>
    </g>
    <g text-rendering="geometricPrecision" stroke-miterlimit="1.45" shape-rendering="geometricPrecision" transform="matrix(0.8,0,0,0.8,92,145.6)" stroke-linecap="butt">
      <path fill="none" d="M566.6825 92.988 L566.6825 132.0909" clip-path="url(#clipPath2)"/>
      <path fill="none" d="M755.5447 20.3348 L722.4556 21.1133" clip-path="url(#clipPath2)"/>
      <path fill="none" d="M713.3502 -114.0418 L712.7679 -1.3201" clip-path="url(#clipPath2)"/>
      <path fill="white" d="M712.7266 6.6798 C710.5175 6.6684 708.7358 4.8683 708.7473 2.6592 C708.7587 0.4501 710.5588 -1.3315 712.7679 -1.3201 C714.977 -1.3087 716.7586 0.4914 716.7472 2.7005 C716.7358 4.9096 714.9357 6.6912 712.7266 6.6798 Z" clip-path="url(#clipPath2)" stroke="none"/>
      <path fill="none" d="M712.7266 6.6798 C710.5175 6.6684 708.7358 4.8683 708.7473 2.6592 C708.7587 0.4501 710.5588 -1.3315 712.7679 -1.3201 C714.977 -1.3087 716.7586 0.4914 716.7472 2.7005 C716.7358 4.9096 714.9357 6.6912 712.7266 6.6798 Z" clip-path="url(#clipPath2)"/>
      <path fill="none" d="M704.4597 21.3098 L682.3945 21.2722" clip-path="url(#clipPath2)"/>
      <path d="M671.3945 21.2534 L683.3842 27.2739 L683.4047 15.2739 Z" clip-path="url(#clipPath2)" stroke="none"/>
      <path fill="none" d="M313.8493 375.1895 L313.8493 385.8151 L374.767 409.6415" clip-path="url(#clipPath2)"/>
      <path d="M385.0113 413.6483 L376.0212 403.6894 L371.6502 414.865 Z" clip-path="url(#clipPath2)" stroke="none"/>
      <path fill="none" d="M213.2495 414.0081 L282.5951 385.8151 L282.5951 375.1895" clip-path="url(#clipPath2)"/>
      <path fill="none" d="M431.6188 450.8747 L431.6188 520.8753 L430.9938 525.2503 L429.1188 528.3753 L425.9938 530.2503 L421.6188 530.8753 L308.5981 530.8753" clip-path="url(#clipPath2)"/>
      <path fill="none" d="M290.6027 530.8753 L179.2965 530.8753 L174.9215 530.2503 L171.7965 528.3753 L169.9215 525.2503 L169.2965 520.8753 L169.2965 461.8747" clip-path="url(#clipPath2)"/>
      <path d="M169.2965 450.8747 L163.2965 462.8747 L175.2965 462.8747 Z" clip-path="url(#clipPath2)" stroke="none"/>
      <path fill="none" d="M346.9042 572.1502 L318.8146 530.8753 L308.5725 530.8753" clip-path="url(#clipPath2)"/>
      <path fill="none" d="M290.5857 530.8753 L280.7554 530.8753 L258.5959 563.1386" clip-path="url(#clipPath2)"/>
      <path d="M252.3682 572.2059 L264.1079 565.7112 L254.2163 558.9174 Z" clip-path="url(#clipPath2)" stroke="none"/>
      <path fill="none" d="M566.6825 498.2044 L566.6825 403.1559" clip-path="url(#clipPath2)"/>
      <path fill="white" d="M566.6825 395.1559 C568.8917 395.1559 570.6825 396.9467 570.6825 399.1559 C570.6825 401.365 568.8917 403.1559 566.6825 403.1559 C564.4733 403.1559 562.6825 401.365 562.6825 399.1559 C562.6825 396.9467 564.4733 395.1559 566.6825 395.1559 Z" clip-path="url(#clipPath2)" stroke="none"/>
      <path fill="none" d="M566.6825 395.1559 C568.8917 395.1559 570.6825 396.9467 570.6825 399.1559 C570.6825 401.365 568.8917 403.1559 566.6825 403.1559 C564.4733 403.1559 562.6825 401.365 562.6825 399.1559 C562.6825 396.9467 564.4733 395.1559 566.6825 395.1559 Z" clip-path="url(#clipPath2)"/>
      <path fill="none" d="M299.606 636.8903 L299.606 551.0245" clip-path="url(#clipPath2)"/>
      <path fill="white" d="M299.606 543.0245 C301.8151 543.0245 303.606 544.8153 303.606 547.0245 C303.606 549.2336 301.8151 551.0245 299.606 551.0245 C297.3968 551.0245 295.606 549.2336 295.606 547.0245 C295.606 544.8153 297.3968 543.0245 299.606 543.0245 Z" clip-path="url(#clipPath2)" stroke="none"/>
      <path fill="none" d="M299.606 543.0245 C301.8151 543.0245 303.606 544.8153 303.606 547.0245 C303.606 549.2336 301.8151 551.0245 299.606 551.0245 C297.3968 551.0245 295.606 549.2336 295.606 547.0245 C295.606 544.8153 297.3968 543.0245 299.606 543.0245 Z" clip-path="url(#clipPath2)"/>
    </g>
  </g>
</svg>
