<?xml version="1.0" encoding="UTF-8"?><svg xmlns="http://www.w3.org/2000/svg" xmlns:xlink="http://www.w3.org/1999/xlink" fill-opacity="1" color-rendering="auto" color-interpolation="auto" text-rendering="auto" stroke="black" stroke-linecap="square" width="603" stroke-miterlimit="10" shape-rendering="auto" stroke-opacity="1" fill="black" stroke-dasharray="none" font-weight="normal" stroke-width="1" height="939" font-family="'Dialog'" font-style="normal" stroke-linejoin="miter" font-size="12px" stroke-dashoffset="0" image-rendering="auto">
  <!--Generated by ySVG 2.5-->
  <defs id="genericDefs"/>
  <g>
    <defs id="defs1">
      <clipPath clipPathUnits="userSpaceOnUse" id="clipPath1">
        <path d="M0 0 L603 0 L603 939 L0 939 L0 0 Z"/>
      </clipPath>
      <clipPath clipPathUnits="userSpaceOnUse" id="clipPath2">
        <path d="M75 -164 L828.75 -164 L828.75 1009.75 L75 1009.75 L75 -164 Z"/>
      </clipPath>
      <clipPath clipPathUnits="userSpaceOnUse" id="clipPath3">
        <path d="M-621.0953 -119.1492 L132.6547 -119.1492 L132.6547 1054.6007 L-621.0953 1054.6007 L-621.0953 -119.1492 Z"/>
      </clipPath>
      <clipPath clipPathUnits="userSpaceOnUse" id="clipPath4">
        <path d="M-163.049 -123.2543 L590.701 -123.2543 L590.701 1050.4957 L-163.049 1050.4957 L-163.049 -123.2543 Z"/>
      </clipPath>
      <clipPath clipPathUnits="userSpaceOnUse" id="clipPath5">
        <path d="M-162.7854 -354.1034 L590.9645 -354.1034 L590.9645 819.6466 L-162.7854 819.6466 L-162.7854 -354.1034 Z"/>
      </clipPath>
      <clipPath clipPathUnits="userSpaceOnUse" id="clipPath6">
        <path d="M-162.5995 -622.2369 L591.1505 -622.2369 L591.1505 551.5131 L-162.5995 551.5131 L-162.5995 -622.2369 Z"/>
      </clipPath>
      <clipPath clipPathUnits="userSpaceOnUse" id="clipPath7">
        <path d="M-557.7427 -817.7148 L196.0073 -817.7148 L196.0073 356.0352 L-557.7427 356.0352 L-557.7427 -817.7148 Z"/>
      </clipPath>
      <clipPath clipPathUnits="userSpaceOnUse" id="clipPath8">
        <path d="M-552.1812 -968.9116 L201.5688 -968.9116 L201.5688 204.8384 L-552.1812 204.8384 L-552.1812 -968.9116 Z"/>
      </clipPath>
      <clipPath clipPathUnits="userSpaceOnUse" id="clipPath9">
        <path d="M-599.27 -641.562 L154.48 -641.562 L154.48 532.188 L-599.27 532.188 L-599.27 -641.562 Z"/>
      </clipPath>
      <clipPath clipPathUnits="userSpaceOnUse" id="clipPath10">
        <path d="M-232.4254 -968.9116 L521.3246 -968.9116 L521.3246 204.8384 L-232.4254 204.8384 L-232.4254 -968.9116 Z"/>
      </clipPath>
    </defs>
    <g fill="white" text-rendering="geometricPrecision" shape-rendering="geometricPrecision" transform="scale(0.8,0.8) translate(-75,164)" stroke="white">
      <rect x="75" width="754" height="1174" y="-164" clip-path="url(#clipPath2)" stroke="none"/>
    </g>
    <g fill="white" text-rendering="geometricPrecision" shape-rendering="geometricPrecision" transform="matrix(0.8,0,0,0.8,-60,131.2)" stroke="white">
      <rect x="394.0762" width="18" height="18" y="491.5271" clip-path="url(#clipPath2)" stroke="none"/>
    </g>
    <g text-rendering="geometricPrecision" stroke-miterlimit="1.45" shape-rendering="geometricPrecision" transform="matrix(0.8,0,0,0.8,-60,131.2)" stroke-linecap="butt">
      <rect fill="none" x="394.0762" width="18" height="18" y="491.5271" clip-path="url(#clipPath2)"/>
    </g>
    <g transform="matrix(0.8,0,0,0.8,-60,131.2)" fill-opacity="0.4471" fill="rgb(237,235,228)" text-rendering="geometricPrecision" shape-rendering="geometricPrecision" stroke="rgb(237,235,228)" stroke-opacity="0.4471">
      <path d="M403.6719 526.0131 L479.6719 526.0131 L491.6719 538.0131 L491.6719 630.2131 L479.6719 642.2131 L403.6719 642.2131 L391.6719 630.2131 L391.6719 538.0131 Z" stroke="none" clip-path="url(#clipPath2)"/>
    </g>
    <g text-rendering="geometricPrecision" stroke-miterlimit="1.45" shape-rendering="geometricPrecision" transform="matrix(0.8,0,0,0.8,-60,131.2)" stroke-linecap="butt">
      <path fill="none" d="M403.6719 526.0131 L479.6719 526.0131 L491.6719 538.0131 L491.6719 630.2131 L479.6719 642.2131 L403.6719 642.2131 L391.6719 630.2131 L391.6719 538.0131 Z" clip-path="url(#clipPath2)"/>
    </g>
    <g fill="rgb(204,204,204)" text-rendering="geometricPrecision" shape-rendering="geometricPrecision" transform="matrix(0.8,0,0,0.8,-60,131.2)" stroke="rgb(204,204,204)">
      <path d="M401.6719 597.2131 Q401.6719 587.2131 411.6719 587.2131 L471.6719 587.2131 Q481.6719 587.2131 481.6719 597.2131 L481.6719 617.2131 Q481.6719 627.2131 471.6719 627.2131 L411.6719 627.2131 Q401.6719 627.2131 401.6719 617.2131 Z" stroke="none" clip-path="url(#clipPath2)"/>
    </g>
    <g text-rendering="geometricPrecision" stroke-miterlimit="1.45" shape-rendering="geometricPrecision" transform="matrix(0.8,0,0,0.8,-60,131.2)" stroke-linecap="butt">
      <path fill="none" d="M401.6719 597.2131 Q401.6719 587.2131 411.6719 587.2131 L471.6719 587.2131 Q481.6719 587.2131 481.6719 597.2131 L481.6719 617.2131 Q481.6719 627.2131 471.6719 627.2131 L411.6719 627.2131 Q401.6719 627.2131 401.6719 617.2131 Z" clip-path="url(#clipPath2)"/>
      <text x="421.564" font-size="14px" y="612.5041" clip-path="url(#clipPath2)" font-family="sans-serif" stroke="none" xml:space="preserve">Sec23</text>
    </g>
    <g fill="rgb(204,204,204)" text-rendering="geometricPrecision" shape-rendering="geometricPrecision" transform="matrix(0.8,0,0,0.8,-60,131.2)" stroke="rgb(204,204,204)">
      <path d="M401.6719 550.0131 Q401.6719 540.0131 411.6719 540.0131 L471.6719 540.0131 Q481.6719 540.0131 481.6719 550.0131 L481.6719 570.0131 Q481.6719 580.0131 471.6719 580.0131 L411.6719 580.0131 Q401.6719 580.0131 401.6719 570.0131 Z" stroke="none" clip-path="url(#clipPath2)"/>
    </g>
    <g text-rendering="geometricPrecision" stroke-miterlimit="1.45" shape-rendering="geometricPrecision" transform="matrix(0.8,0,0,0.8,-60,131.2)" stroke-linecap="butt">
      <path fill="none" d="M401.6719 550.0131 Q401.6719 540.0131 411.6719 540.0131 L471.6719 540.0131 Q481.6719 540.0131 481.6719 550.0131 L481.6719 570.0131 Q481.6719 580.0131 471.6719 580.0131 L411.6719 580.0131 Q401.6719 580.0131 401.6719 570.0131 Z" clip-path="url(#clipPath2)"/>
      <text x="421.564" font-size="14px" y="565.3041" clip-path="url(#clipPath2)" font-family="sans-serif" stroke="none" xml:space="preserve">Sec24</text>
    </g>
    <g text-rendering="geometricPrecision" stroke-miterlimit="1.45" shape-rendering="geometricPrecision" transform="matrix(0.8,0,0,0.8,-60,131.2)" stroke-linecap="butt">
      <path fill="none" d="M412.0844 500.5271 L431.6719 500.5271 L436.0469 500.9805 L439.1719 502.3406 L441.0469 504.6075 L441.6719 507.7812 L441.6719 515.0355" clip-path="url(#clipPath2)"/>
    </g>
    <g text-rendering="geometricPrecision" stroke-miterlimit="1.45" shape-rendering="geometricPrecision" transform="matrix(0.8,0,0,0.8,-60,131.2)" stroke-linecap="butt">
      <path d="M441.6719 526.0355 L447.6719 514.0355 L435.6719 514.0355 Z" stroke="none" clip-path="url(#clipPath2)"/>
    </g>
    <g transform="matrix(0.8,0,0,0.8,-60,131.2)" fill-opacity="0.4471" fill="rgb(237,235,228)" text-rendering="geometricPrecision" shape-rendering="geometricPrecision" stroke="rgb(237,235,228)" stroke-opacity="0.4471">
      <rect x="94.9839" y="-144.5883" clip-path="url(#clipPath2)" width="714.2156" rx="4" ry="4" height="545.1424" stroke="none"/>
    </g>
    <g font-size="14px" stroke-linecap="butt" transform="matrix(0.8,0,0,0.8,-60,131.2)" text-rendering="geometricPrecision" font-family="sans-serif" shape-rendering="geometricPrecision" stroke-miterlimit="1.45">
      <text x="646.4671" xml:space="preserve" y="-126.0531" clip-path="url(#clipPath2)" stroke="none">Endoplasmic Reticulum</text>
      <rect x="94.9839" y="-144.5883" clip-path="url(#clipPath2)" fill="none" width="714.2156" rx="4" ry="4" height="545.1424" stroke-width="3"/>
    </g>
    <g fill="rgb(219,235,219)" text-rendering="geometricPrecision" shape-rendering="geometricPrecision" transform="matrix(0.8,0,0,0.8,-60,131.2)" stroke="rgb(219,235,219)">
      <rect x="406.2969" y="-93.1357" clip-path="url(#clipPath2)" width="70.75" rx="16" ry="16" height="32" stroke="none"/>
    </g>
    <g text-rendering="geometricPrecision" stroke-miterlimit="1.45" shape-rendering="geometricPrecision" transform="matrix(0.8,0,0,0.8,-60,131.2)" stroke-linecap="butt">
      <rect x="406.2969" y="-93.1357" clip-path="url(#clipPath2)" fill="none" width="70.75" rx="16" ry="16" height="32"/>
      <text x="422.1963" font-size="14px" y="-71.8447" clip-path="url(#clipPath2)" font-family="sans-serif" stroke="none" xml:space="preserve">Sterol</text>
    </g>
    <g fill="white" text-rendering="geometricPrecision" shape-rendering="geometricPrecision" transform="matrix(0.8,0,0,0.8,-60,131.2)" stroke="white">
      <rect x="463.6719" width="18" height="18" y="-26.1357" clip-path="url(#clipPath2)" stroke="none"/>
    </g>
    <g text-rendering="geometricPrecision" stroke-miterlimit="1.45" shape-rendering="geometricPrecision" transform="matrix(0.8,0,0,0.8,-60,131.2)" stroke-linecap="butt">
      <rect fill="none" x="463.6719" width="18" height="18" y="-26.1357" clip-path="url(#clipPath2)"/>
    </g>
    <g fill="rgb(204,204,204)" text-rendering="geometricPrecision" shape-rendering="geometricPrecision" transform="matrix(0.8,0,0,0.8,-60,131.2)" stroke="rgb(204,204,204)">
      <path d="M401.6719 32.8643 Q401.6719 22.8643 411.6719 22.8643 L471.6719 22.8643 Q481.6719 22.8643 481.6719 32.8643 L481.6719 52.8643 Q481.6719 62.8643 471.6719 62.8643 L411.6719 62.8643 Q401.6719 62.8643 401.6719 52.8643 Z" stroke="none" clip-path="url(#clipPath2)"/>
    </g>
    <g text-rendering="geometricPrecision" stroke-miterlimit="1.45" shape-rendering="geometricPrecision" transform="matrix(0.8,0,0,0.8,-60,131.2)" stroke-linecap="butt">
      <path fill="none" d="M401.6719 32.8643 Q401.6719 22.8643 411.6719 22.8643 L471.6719 22.8643 Q481.6719 22.8643 481.6719 32.8643 L481.6719 52.8643 Q481.6719 62.8643 471.6719 62.8643 L411.6719 62.8643 Q401.6719 62.8643 401.6719 52.8643 Z" clip-path="url(#clipPath2)"/>
      <text x="411.1152" font-size="14px" y="48.1553" clip-path="url(#clipPath2)" font-family="sans-serif" stroke="none" xml:space="preserve">INSIG1/2</text>
    </g>
    <g text-rendering="geometricPrecision" stroke-miterlimit="1.45" shape-rendering="geometricPrecision" transform="matrix(0.8,0,0,0.8,-60,131.2)" stroke-linecap="butt">
      <path fill="none" d="M441.6719 -61.1103 L441.6719 -27.1357 L442.2969 -22.7607 L444.1719 -19.6357 L447.2969 -17.7607 L451.6719 -17.1357 L463.6807 -17.1357" clip-path="url(#clipPath2)"/>
      <path fill="none" d="M441.6719 22.8545 L441.6719 -7.1357 L442.2969 -11.5107 L444.1719 -14.6357 L447.2969 -16.5107 L451.6719 -17.1357 L463.6807 -17.1357" clip-path="url(#clipPath2)"/>
    </g>
    <g transform="matrix(0.8,0,0,0.8,-60,131.2)" fill-opacity="0.4471" fill="rgb(237,235,228)" text-rendering="geometricPrecision" shape-rendering="geometricPrecision" stroke="rgb(237,235,228)" stroke-opacity="0.4471">
      <path d="M587.5201 -93.5549 L771.3488 -93.5549 L783.3488 -81.5549 L783.3488 56.2835 L771.3488 68.2835 L587.5201 68.2835 L575.5201 56.2835 L575.5201 -81.5549 Z" stroke="none" clip-path="url(#clipPath2)"/>
    </g>
    <g text-rendering="geometricPrecision" stroke-miterlimit="1.45" shape-rendering="geometricPrecision" transform="matrix(0.8,0,0,0.8,-60,131.2)" stroke-linecap="butt">
      <path fill="none" d="M587.5201 -93.5549 L771.3488 -93.5549 L783.3488 -81.5549 L783.3488 56.2835 L771.3488 68.2835 L587.5201 68.2835 L575.5201 56.2835 L575.5201 -81.5549 Z" clip-path="url(#clipPath2)"/>
    </g>
    <g fill="rgb(153,204,0)" text-rendering="geometricPrecision" shape-rendering="geometricPrecision" transform="matrix(0.8,0,0,0.8,-60,131.2)" stroke="rgb(153,204,0)">
      <path d="M594.8951 -27.1357 Q594.8951 -37.1357 604.8951 -37.1357 L664.8951 -37.1357 Q674.8951 -37.1357 674.8951 -27.1357 L674.8951 -7.1357 Q674.8951 2.8643 664.8951 2.8643 L604.8951 2.8643 Q594.8951 2.8643 594.8951 -7.1357 Z" stroke="none" clip-path="url(#clipPath2)"/>
    </g>
    <g text-rendering="geometricPrecision" stroke-miterlimit="1.45" shape-rendering="geometricPrecision" transform="matrix(0.8,0,0,0.8,-60,131.2)" stroke-linecap="butt">
      <path fill="none" d="M594.8951 -27.1357 Q594.8951 -37.1357 604.8951 -37.1357 L664.8951 -37.1357 Q674.8951 -37.1357 674.8951 -27.1357 L674.8951 -7.1357 Q674.8951 2.8643 664.8951 2.8643 L604.8951 2.8643 Q594.8951 2.8643 594.8951 -7.1357 Z" clip-path="url(#clipPath2)"/>
      <text x="617.5831" font-size="14px" y="-11.8447" clip-path="url(#clipPath2)" font-family="sans-serif" stroke="none" xml:space="preserve">SCAP</text>
    </g>
    <g fill="rgb(204,204,204)" text-rendering="geometricPrecision" shape-rendering="geometricPrecision" transform="matrix(0.8,0,0,0.8,-60,131.2)" stroke="rgb(204,204,204)">
      <path d="M594.8951 23.2835 Q594.8951 13.2835 604.8951 13.2835 L664.8951 13.2835 Q674.8951 13.2835 674.8951 23.2835 L674.8951 43.2835 Q674.8951 53.2835 664.8951 53.2835 L604.8951 53.2835 Q594.8951 53.2835 594.8951 43.2835 Z" stroke="none" clip-path="url(#clipPath2)"/>
    </g>
    <g text-rendering="geometricPrecision" stroke-miterlimit="1.45" shape-rendering="geometricPrecision" transform="matrix(0.8,0,0,0.8,-60,131.2)" stroke-linecap="butt">
      <path fill="none" d="M594.8951 23.2835 Q594.8951 13.2835 604.8951 13.2835 L664.8951 13.2835 Q674.8951 13.2835 674.8951 23.2835 L674.8951 43.2835 Q674.8951 53.2835 664.8951 53.2835 L604.8951 53.2835 Q594.8951 53.2835 594.8951 43.2835 Z" clip-path="url(#clipPath2)"/>
      <text x="604.3384" font-size="14px" y="38.5745" clip-path="url(#clipPath2)" font-family="sans-serif" stroke="none" xml:space="preserve">INSIG1/2</text>
    </g>
    <g fill="rgb(219,235,219)" text-rendering="geometricPrecision" shape-rendering="geometricPrecision" transform="matrix(0.8,0,0,0.8,-60,131.2)" stroke="rgb(219,235,219)">
      <rect x="596.1451" y="-79.5549" clip-path="url(#clipPath2)" width="77.5" rx="16" ry="16" height="32" stroke="none"/>
    </g>
    <g text-rendering="geometricPrecision" stroke-miterlimit="1.45" shape-rendering="geometricPrecision" transform="matrix(0.8,0,0,0.8,-60,131.2)" stroke-linecap="butt">
      <rect x="596.1451" y="-79.5549" clip-path="url(#clipPath2)" fill="none" width="77.5" rx="16" ry="16" height="32"/>
      <text x="615.4195" font-size="14px" y="-58.2638" clip-path="url(#clipPath2)" font-family="sans-serif" stroke="none" xml:space="preserve">Sterol</text>
    </g>
    <g fill="rgb(255,153,0)" text-rendering="geometricPrecision" shape-rendering="geometricPrecision" transform="matrix(0.8,0,0,0.8,-60,131.2)" stroke="rgb(255,153,0)">
      <path d="M686.9332 -27.1357 Q686.9332 -37.1357 696.9332 -37.1357 L755.9332 -37.1357 Q765.9332 -37.1357 765.9332 -27.1357 L765.9332 -7.1357 Q765.9332 2.8643 755.9332 2.8643 L696.9332 2.8643 Q686.9332 2.8643 686.9332 -7.1357 Z" stroke="none" clip-path="url(#clipPath2)"/>
    </g>
    <g text-rendering="geometricPrecision" stroke-miterlimit="1.45" shape-rendering="geometricPrecision" transform="matrix(0.8,0,0,0.8,-60,131.2)" stroke-linecap="butt">
      <path fill="none" d="M686.9332 -27.1357 Q686.9332 -37.1357 696.9332 -37.1357 L755.9332 -37.1357 Q765.9332 -37.1357 765.9332 -27.1357 L765.9332 -7.1357 Q765.9332 2.8643 755.9332 2.8643 L696.9332 2.8643 Q686.9332 2.8643 686.9332 -7.1357 Z" clip-path="url(#clipPath2)"/>
      <text x="702.1212" font-size="14px" y="-11.8447" clip-path="url(#clipPath2)" font-family="sans-serif" stroke="none" xml:space="preserve">SREBP2</text>
    </g>
    <g fill="white" text-rendering="geometricPrecision" shape-rendering="geometricPrecision" transform="matrix(0.8,0,0,0.8,-60,131.2) translate(696.0953,-44.8508)" stroke="white">
      <rect x="0" width="59.6798" height="16" y="0" clip-path="url(#clipPath3)" stroke="none"/>
    </g>
    <g text-rendering="geometricPrecision" stroke-miterlimit="1.45" shape-rendering="geometricPrecision" transform="matrix(0.8,0,0,0.8,-60,131.2) translate(696.0953,-44.8508)" stroke-linecap="butt">
      <rect fill="none" x="0" width="59.6798" height="16" y="0" clip-path="url(#clipPath3)"/>
      <text x="6.4854" font-size="10px" y="11.7793" clip-path="url(#clipPath3)" font-family="sans-serif" stroke="none" xml:space="preserve">precursor</text>
    </g>
    <g text-rendering="geometricPrecision" stroke-miterlimit="1.45" shape-rendering="geometricPrecision" transform="matrix(0.8,0,0,0.8,-60,131.2)" stroke-linecap="butt">
      <path fill="none" d="M481.6917 -17.1137 L564.5319 -16.9114" clip-path="url(#clipPath2)"/>
      <path d="M575.5318 -16.8845 L563.5465 -22.9138 L563.5172 -10.9138 Z" clip-path="url(#clipPath2)" stroke="none"/>
    </g>
    <g transform="matrix(0.8,0,0,0.8,-60,131.2)" fill-opacity="0.4471" fill="rgb(237,235,228)" text-rendering="geometricPrecision" shape-rendering="geometricPrecision" stroke="rgb(237,235,228)" stroke-opacity="0.4471">
      <path d="M136.7919 -56.8857 L312.1141 -56.8857 L324.1141 -44.8857 L324.1141 10.6143 L312.1141 22.6143 L136.7919 22.6143 L124.7919 10.6143 L124.7919 -44.8857 Z" stroke="none" clip-path="url(#clipPath2)"/>
    </g>
    <g text-rendering="geometricPrecision" stroke-miterlimit="1.45" shape-rendering="geometricPrecision" transform="matrix(0.8,0,0,0.8,-60,131.2)" stroke-linecap="butt">
      <path fill="none" d="M136.7919 -56.8857 L312.1141 -56.8857 L324.1141 -44.8857 L324.1141 10.6143 L312.1141 22.6143 L136.7919 22.6143 L124.7919 10.6143 L124.7919 -44.8857 Z" clip-path="url(#clipPath2)"/>
    </g>
    <g fill="rgb(153,204,0)" text-rendering="geometricPrecision" shape-rendering="geometricPrecision" transform="matrix(0.8,0,0,0.8,-60,131.2)" stroke="rgb(153,204,0)">
      <path d="M139.7919 -23.0306 Q139.7919 -33.0306 149.7919 -33.0306 L209.7919 -33.0306 Q219.7919 -33.0306 219.7919 -23.0306 L219.7919 -3.0306 Q219.7919 6.9694 209.7919 6.9694 L149.7919 6.9694 Q139.7919 6.9694 139.7919 -3.0306 Z" stroke="none" clip-path="url(#clipPath2)"/>
    </g>
    <g text-rendering="geometricPrecision" stroke-miterlimit="1.45" shape-rendering="geometricPrecision" transform="matrix(0.8,0,0,0.8,-60,131.2)" stroke-linecap="butt">
      <path fill="none" d="M139.7919 -23.0306 Q139.7919 -33.0306 149.7919 -33.0306 L209.7919 -33.0306 Q219.7919 -33.0306 219.7919 -23.0306 L219.7919 -3.0306 Q219.7919 6.9694 209.7919 6.9694 L149.7919 6.9694 Q139.7919 6.9694 139.7919 -3.0306 Z" clip-path="url(#clipPath2)"/>
      <text x="162.4799" font-size="14px" y="-7.7396" clip-path="url(#clipPath2)" font-family="sans-serif" stroke="none" xml:space="preserve">SCAP</text>
    </g>
    <g fill="rgb(255,153,0)" text-rendering="geometricPrecision" shape-rendering="geometricPrecision" transform="matrix(0.8,0,0,0.8,-60,131.2)" stroke="rgb(255,153,0)">
      <path d="M228.8868 -23.0306 Q228.8868 -33.0306 238.8868 -33.0306 L297.8868 -33.0306 Q307.8868 -33.0306 307.8868 -23.0306 L307.8868 -3.0306 Q307.8868 6.9694 297.8868 6.9694 L238.8868 6.9694 Q228.8868 6.9694 228.8868 -3.0306 Z" stroke="none" clip-path="url(#clipPath2)"/>
    </g>
    <g text-rendering="geometricPrecision" stroke-miterlimit="1.45" shape-rendering="geometricPrecision" transform="matrix(0.8,0,0,0.8,-60,131.2)" stroke-linecap="butt">
      <path fill="none" d="M228.8868 -23.0306 Q228.8868 -33.0306 238.8868 -33.0306 L297.8868 -33.0306 Q307.8868 -33.0306 307.8868 -23.0306 L307.8868 -3.0306 Q307.8868 6.9694 297.8868 6.9694 L238.8868 6.9694 Q228.8868 6.9694 228.8868 -3.0306 Z" clip-path="url(#clipPath2)"/>
      <text x="244.0748" font-size="14px" y="-7.7396" clip-path="url(#clipPath2)" font-family="sans-serif" stroke="none" xml:space="preserve">SREBP2</text>
    </g>
    <g fill="white" text-rendering="geometricPrecision" shape-rendering="geometricPrecision" transform="matrix(0.8,0,0,0.8,-60,131.2) translate(238.049,-40.7457)" stroke="white">
      <rect x="0" width="59.6798" height="16" y="0" clip-path="url(#clipPath4)" stroke="none"/>
    </g>
    <g text-rendering="geometricPrecision" stroke-miterlimit="1.45" shape-rendering="geometricPrecision" transform="matrix(0.8,0,0,0.8,-60,131.2) translate(238.049,-40.7457)" stroke-linecap="butt">
      <rect fill="none" x="0" width="59.6798" height="16" y="0" clip-path="url(#clipPath4)"/>
      <text x="6.4854" font-size="10px" y="11.7793" clip-path="url(#clipPath4)" font-family="sans-serif" stroke="none" xml:space="preserve">precursor</text>
    </g>
    <g text-rendering="geometricPrecision" stroke-miterlimit="1.45" shape-rendering="geometricPrecision" transform="matrix(0.8,0,0,0.8,-60,131.2)" stroke-linecap="butt">
      <path fill="none" d="M324.1102 -17.1357 L463.6407 -17.1357" clip-path="url(#clipPath2)"/>
    </g>
    <g transform="matrix(0.8,0,0,0.8,-60,131.2)" fill-opacity="0.4471" fill="rgb(237,235,228)" text-rendering="geometricPrecision" shape-rendering="geometricPrecision" stroke="rgb(237,235,228)" stroke-opacity="0.4471">
      <path d="M135.6667 176.1034 L310.989 176.1034 L322.989 188.1034 L322.989 337.8985 L310.989 349.8985 L135.6667 349.8985 L123.6667 337.8985 L123.6667 188.1034 Z" stroke="none" clip-path="url(#clipPath2)"/>
    </g>
    <g text-rendering="geometricPrecision" stroke-miterlimit="1.45" shape-rendering="geometricPrecision" transform="matrix(0.8,0,0,0.8,-60,131.2)" stroke-linecap="butt">
      <path fill="none" d="M135.6667 176.1034 L310.989 176.1034 L322.989 188.1034 L322.989 337.8985 L310.989 349.8985 L135.6667 349.8985 L123.6667 337.8985 L123.6667 188.1034 Z" clip-path="url(#clipPath2)"/>
    </g>
    <g fill="rgb(153,204,0)" text-rendering="geometricPrecision" shape-rendering="geometricPrecision" transform="matrix(0.8,0,0,0.8,-60,131.2)" stroke="rgb(153,204,0)">
      <path d="M138.6667 207.8185 Q138.6667 197.8185 148.6667 197.8185 L208.6667 197.8185 Q218.6667 197.8185 218.6667 207.8185 L218.6667 227.8185 Q218.6667 237.8185 208.6667 237.8185 L148.6667 237.8185 Q138.6667 237.8185 138.6667 227.8185 Z" stroke="none" clip-path="url(#clipPath2)"/>
    </g>
    <g text-rendering="geometricPrecision" stroke-miterlimit="1.45" shape-rendering="geometricPrecision" transform="matrix(0.8,0,0,0.8,-60,131.2)" stroke-linecap="butt">
      <path fill="none" d="M138.6667 207.8185 Q138.6667 197.8185 148.6667 197.8185 L208.6667 197.8185 Q218.6667 197.8185 218.6667 207.8185 L218.6667 227.8185 Q218.6667 237.8185 208.6667 237.8185 L148.6667 237.8185 Q138.6667 237.8185 138.6667 227.8185 Z" clip-path="url(#clipPath2)"/>
      <text x="161.3547" font-size="14px" y="223.1095" clip-path="url(#clipPath2)" font-family="sans-serif" stroke="none" xml:space="preserve">SCAP</text>
    </g>
    <g fill="rgb(204,204,204)" text-rendering="geometricPrecision" shape-rendering="geometricPrecision" transform="matrix(0.8,0,0,0.8,-60,131.2)" stroke="rgb(204,204,204)">
      <path d="M139.1233 255.8985 Q139.1233 245.8985 149.1233 245.8985 L209.1233 245.8985 Q219.1233 245.8985 219.1233 255.8985 L219.1233 275.8985 Q219.1233 285.8985 209.1233 285.8985 L149.1233 285.8985 Q139.1233 285.8985 139.1233 275.8985 Z" stroke="none" clip-path="url(#clipPath2)"/>
    </g>
    <g text-rendering="geometricPrecision" stroke-miterlimit="1.45" shape-rendering="geometricPrecision" transform="matrix(0.8,0,0,0.8,-60,131.2)" stroke-linecap="butt">
      <path fill="none" d="M139.1233 255.8985 Q139.1233 245.8985 149.1233 245.8985 L209.1233 245.8985 Q219.1233 245.8985 219.1233 255.8985 L219.1233 275.8985 Q219.1233 285.8985 209.1233 285.8985 L149.1233 285.8985 Q139.1233 285.8985 139.1233 275.8985 Z" clip-path="url(#clipPath2)"/>
      <text x="159.0154" font-size="14px" y="271.1895" clip-path="url(#clipPath2)" font-family="sans-serif" stroke="none" xml:space="preserve">Sec23</text>
    </g>
    <g fill="rgb(204,204,204)" text-rendering="geometricPrecision" shape-rendering="geometricPrecision" transform="matrix(0.8,0,0,0.8,-60,131.2)" stroke="rgb(204,204,204)">
      <path d="M139.1233 304.8985 Q139.1233 294.8985 149.1233 294.8985 L209.1233 294.8985 Q219.1233 294.8985 219.1233 304.8985 L219.1233 324.8985 Q219.1233 334.8985 209.1233 334.8985 L149.1233 334.8985 Q139.1233 334.8985 139.1233 324.8985 Z" stroke="none" clip-path="url(#clipPath2)"/>
    </g>
    <g text-rendering="geometricPrecision" stroke-miterlimit="1.45" shape-rendering="geometricPrecision" transform="matrix(0.8,0,0,0.8,-60,131.2)" stroke-linecap="butt">
      <path fill="none" d="M139.1233 304.8985 Q139.1233 294.8985 149.1233 294.8985 L209.1233 294.8985 Q219.1233 294.8985 219.1233 304.8985 L219.1233 324.8985 Q219.1233 334.8985 209.1233 334.8985 L149.1233 334.8985 Q139.1233 334.8985 139.1233 324.8985 Z" clip-path="url(#clipPath2)"/>
      <text x="159.0154" font-size="14px" y="320.1895" clip-path="url(#clipPath2)" font-family="sans-serif" stroke="none" xml:space="preserve">Sec24</text>
    </g>
    <g fill="rgb(204,204,204)" text-rendering="geometricPrecision" shape-rendering="geometricPrecision" transform="matrix(0.8,0,0,0.8,-60,131.2)" stroke="rgb(204,204,204)">
      <path d="M228.1233 255.8985 Q228.1233 245.8985 238.1233 245.8985 L298.1233 245.8985 Q308.1233 245.8985 308.1233 255.8985 L308.1233 275.8985 Q308.1233 285.8985 298.1233 285.8985 L238.1233 285.8985 Q228.1233 285.8985 228.1233 275.8985 Z" stroke="none" clip-path="url(#clipPath2)"/>
    </g>
    <g text-rendering="geometricPrecision" stroke-miterlimit="1.45" shape-rendering="geometricPrecision" transform="matrix(0.8,0,0,0.8,-60,131.2)" stroke-linecap="butt">
      <path fill="none" d="M228.1233 255.8985 Q228.1233 245.8985 238.1233 245.8985 L298.1233 245.8985 Q308.1233 245.8985 308.1233 255.8985 L308.1233 275.8985 Q308.1233 285.8985 298.1233 285.8985 L238.1233 285.8985 Q228.1233 285.8985 228.1233 275.8985 Z" clip-path="url(#clipPath2)"/>
      <text x="253.197" font-size="14px" y="271.1895" clip-path="url(#clipPath2)" font-family="sans-serif" stroke="none" xml:space="preserve">Sar1</text>
    </g>
    <g fill="rgb(255,153,0)" text-rendering="geometricPrecision" shape-rendering="geometricPrecision" transform="matrix(0.8,0,0,0.8,-60,131.2)" stroke="rgb(255,153,0)">
      <path d="M228.6233 207.8185 Q228.6233 197.8185 238.6233 197.8185 L297.6233 197.8185 Q307.6233 197.8185 307.6233 207.8185 L307.6233 227.8185 Q307.6233 237.8185 297.6233 237.8185 L238.6233 237.8185 Q228.6233 237.8185 228.6233 227.8185 Z" stroke="none" clip-path="url(#clipPath2)"/>
    </g>
    <g text-rendering="geometricPrecision" stroke-miterlimit="1.45" shape-rendering="geometricPrecision" transform="matrix(0.8,0,0,0.8,-60,131.2)" stroke-linecap="butt">
      <path fill="none" d="M228.6233 207.8185 Q228.6233 197.8185 238.6233 197.8185 L297.6233 197.8185 Q307.6233 197.8185 307.6233 207.8185 L307.6233 227.8185 Q307.6233 237.8185 297.6233 237.8185 L238.6233 237.8185 Q228.6233 237.8185 228.6233 227.8185 Z" clip-path="url(#clipPath2)"/>
      <text x="243.8113" font-size="14px" y="223.1095" clip-path="url(#clipPath2)" font-family="sans-serif" stroke="none" xml:space="preserve">SREBP2</text>
    </g>
    <g fill="white" text-rendering="geometricPrecision" shape-rendering="geometricPrecision" transform="matrix(0.8,0,0,0.8,-60,131.2) translate(237.7855,190.1034)" stroke="white">
      <rect x="0" width="59.6798" height="16" y="0" clip-path="url(#clipPath5)" stroke="none"/>
    </g>
    <g text-rendering="geometricPrecision" stroke-miterlimit="1.45" shape-rendering="geometricPrecision" transform="matrix(0.8,0,0,0.8,-60,131.2) translate(237.7855,190.1034)" stroke-linecap="butt">
      <rect fill="none" x="0" width="59.6798" height="16" y="0" clip-path="url(#clipPath5)"/>
      <text x="6.4854" font-size="10px" y="11.7793" clip-path="url(#clipPath5)" font-family="sans-serif" stroke="none" xml:space="preserve">precursor</text>
    </g>
    <g fill="rgb(204,204,204)" text-rendering="geometricPrecision" shape-rendering="geometricPrecision" transform="matrix(0.8,0,0,0.8,-60,131.2)" stroke="rgb(204,204,204)">
      <path d="M109.9839 87.7585 Q109.9839 77.7585 119.9839 77.7585 L179.9839 77.7585 Q189.9839 77.7585 189.9839 87.7585 L189.9839 107.7585 Q189.9839 117.7585 179.9839 117.7585 L119.9839 117.7585 Q109.9839 117.7585 109.9839 107.7585 Z" stroke="none" clip-path="url(#clipPath2)"/>
    </g>
    <g text-rendering="geometricPrecision" stroke-miterlimit="1.45" shape-rendering="geometricPrecision" transform="matrix(0.8,0,0,0.8,-60,131.2)" stroke-linecap="butt">
      <path fill="none" d="M109.9839 87.7585 Q109.9839 77.7585 119.9839 77.7585 L179.9839 77.7585 Q189.9839 77.7585 189.9839 87.7585 L189.9839 107.7585 Q189.9839 117.7585 179.9839 117.7585 L119.9839 117.7585 Q109.9839 117.7585 109.9839 107.7585 Z" clip-path="url(#clipPath2)"/>
      <text x="135.0576" font-size="14px" y="103.0495" clip-path="url(#clipPath2)" font-family="sans-serif" stroke="none" xml:space="preserve">Sar1</text>
    </g>
    <g fill="white" text-rendering="geometricPrecision" shape-rendering="geometricPrecision" transform="matrix(0.8,0,0,0.8,-60,131.2)" stroke="white">
      <rect x="214.3279" width="18" height="18" y="118.7585" clip-path="url(#clipPath2)" stroke="none"/>
    </g>
    <g text-rendering="geometricPrecision" stroke-miterlimit="1.45" shape-rendering="geometricPrecision" transform="matrix(0.8,0,0,0.8,-60,131.2)" stroke-linecap="butt">
      <rect fill="none" x="214.3279" width="18" height="18" y="118.7585" clip-path="url(#clipPath2)"/>
    </g>
    <g text-rendering="geometricPrecision" stroke-miterlimit="1.45" shape-rendering="geometricPrecision" transform="matrix(0.8,0,0,0.8,-60,131.2)" stroke-linecap="butt">
      <path fill="none" d="M189.9865 97.7585 L213.3279 97.7585 L217.7029 98.3835 L220.8279 100.2585 L222.7029 103.3835 L223.3279 107.7585 L223.3279 118.7643" clip-path="url(#clipPath2)"/>
      <path fill="none" d="M223.3279 118.765 L223.3279 22.6471" clip-path="url(#clipPath2)"/>
      <path fill="none" d="M223.0749 136.7542 L222.2775 165.1147" clip-path="url(#clipPath2)"/>
      <path d="M221.9683 176.1103 L228.3032 164.2837 L216.308 163.9464 Z" clip-path="url(#clipPath2)" stroke="none"/>
    </g>
    <g transform="matrix(0.8,0,0,0.8,-60,131.2)" fill-opacity="0.4471" fill="rgb(237,235,228)" text-rendering="geometricPrecision" shape-rendering="geometricPrecision" stroke="rgb(237,235,228)" stroke-opacity="0.4471">
      <path d="M268.6719 33.7585 L344.6719 33.7585 L356.6719 45.7585 L356.6719 137.9585 L344.6719 149.9585 L268.6719 149.9585 L256.6719 137.9585 L256.6719 45.7585 Z" stroke="none" clip-path="url(#clipPath2)"/>
    </g>
    <g text-rendering="geometricPrecision" stroke-miterlimit="1.45" shape-rendering="geometricPrecision" transform="matrix(0.8,0,0,0.8,-60,131.2)" stroke-linecap="butt">
      <path fill="none" d="M268.6719 33.7585 L344.6719 33.7585 L356.6719 45.7585 L356.6719 137.9585 L344.6719 149.9585 L268.6719 149.9585 L256.6719 137.9585 L256.6719 45.7585 Z" clip-path="url(#clipPath2)"/>
    </g>
    <g fill="rgb(204,204,204)" text-rendering="geometricPrecision" shape-rendering="geometricPrecision" transform="matrix(0.8,0,0,0.8,-60,131.2)" stroke="rgb(204,204,204)">
      <path d="M266.6719 104.9585 Q266.6719 94.9585 276.6719 94.9585 L336.6719 94.9585 Q346.6719 94.9585 346.6719 104.9585 L346.6719 124.9585 Q346.6719 134.9585 336.6719 134.9585 L276.6719 134.9585 Q266.6719 134.9585 266.6719 124.9585 Z" stroke="none" clip-path="url(#clipPath2)"/>
    </g>
    <g text-rendering="geometricPrecision" stroke-miterlimit="1.45" shape-rendering="geometricPrecision" transform="matrix(0.8,0,0,0.8,-60,131.2)" stroke-linecap="butt">
      <path fill="none" d="M266.6719 104.9585 Q266.6719 94.9585 276.6719 94.9585 L336.6719 94.9585 Q346.6719 94.9585 346.6719 104.9585 L346.6719 124.9585 Q346.6719 134.9585 336.6719 134.9585 L276.6719 134.9585 Q266.6719 134.9585 266.6719 124.9585 Z" clip-path="url(#clipPath2)"/>
      <text x="286.564" font-size="14px" y="120.2495" clip-path="url(#clipPath2)" font-family="sans-serif" stroke="none" xml:space="preserve">Sec23</text>
    </g>
    <g fill="rgb(204,204,204)" text-rendering="geometricPrecision" shape-rendering="geometricPrecision" transform="matrix(0.8,0,0,0.8,-60,131.2)" stroke="rgb(204,204,204)">
      <path d="M266.6719 57.7585 Q266.6719 47.7585 276.6719 47.7585 L336.6719 47.7585 Q346.6719 47.7585 346.6719 57.7585 L346.6719 77.7585 Q346.6719 87.7585 336.6719 87.7585 L276.6719 87.7585 Q266.6719 87.7585 266.6719 77.7585 Z" stroke="none" clip-path="url(#clipPath2)"/>
    </g>
    <g text-rendering="geometricPrecision" stroke-miterlimit="1.45" shape-rendering="geometricPrecision" transform="matrix(0.8,0,0,0.8,-60,131.2)" stroke-linecap="butt">
      <path fill="none" d="M266.6719 57.7585 Q266.6719 47.7585 276.6719 47.7585 L336.6719 47.7585 Q346.6719 47.7585 346.6719 57.7585 L346.6719 77.7585 Q346.6719 87.7585 336.6719 87.7585 L276.6719 87.7585 Q266.6719 87.7585 266.6719 77.7585 Z" clip-path="url(#clipPath2)"/>
      <text x="286.564" font-size="14px" y="73.0495" clip-path="url(#clipPath2)" font-family="sans-serif" stroke="none" xml:space="preserve">Sec24</text>
    </g>
    <g fill="rgb(204,204,204)" text-rendering="geometricPrecision" shape-rendering="geometricPrecision" transform="matrix(0.8,0,0,0.8,-60,131.2)" stroke="rgb(204,204,204)">
      <path d="M401.6719 442.9941 Q401.6719 432.9941 411.6719 432.9941 L471.6719 432.9941 Q481.6719 432.9941 481.6719 442.9941 L481.6719 462.9941 Q481.6719 472.9941 471.6719 472.9941 L411.6719 472.9941 Q401.6719 472.9941 401.6719 462.9941 Z" stroke="none" clip-path="url(#clipPath2)"/>
    </g>
    <g text-rendering="geometricPrecision" stroke-miterlimit="1.45" shape-rendering="geometricPrecision" transform="matrix(0.8,0,0,0.8,-60,131.2)" stroke-linecap="butt">
      <path fill="none" d="M401.6719 442.9941 Q401.6719 432.9941 411.6719 432.9941 L471.6719 432.9941 Q481.6719 432.9941 481.6719 442.9941 L481.6719 462.9941 Q481.6719 472.9941 471.6719 472.9941 L411.6719 472.9941 Q401.6719 472.9941 401.6719 462.9941 Z" clip-path="url(#clipPath2)"/>
      <text x="426.7456" font-size="14px" y="458.2851" clip-path="url(#clipPath2)" font-family="sans-serif" stroke="none" xml:space="preserve">Sar1</text>
    </g>
    <g text-rendering="geometricPrecision" stroke-miterlimit="1.45" shape-rendering="geometricPrecision" transform="matrix(0.8,0,0,0.8,-60,131.2)" stroke-linecap="butt">
      <path fill="none" d="M256.6441 97.7585 L233.3279 97.7585 L228.9529 98.3835 L225.8279 100.2585 L223.9529 103.3835 L223.3279 107.7585 L223.3279 118.7643" clip-path="url(#clipPath2)"/>
      <path fill="none" d="M412.0844 500.5271 L431.6719 500.5271 L436.0469 500.0106 L439.1719 498.4613 L441.0469 495.879 L441.6719 492.2639 L441.6719 484.0007" clip-path="url(#clipPath2)"/>
      <path d="M441.6719 473.0007 L435.6719 485.0007 L447.6719 485.0007 Z" clip-path="url(#clipPath2)" stroke="none"/>
    </g>
    <g transform="matrix(0.8,0,0,0.8,-60,131.2)" fill-opacity="0.4471" fill="rgb(237,235,228)" text-rendering="geometricPrecision" shape-rendering="geometricPrecision" stroke="rgb(237,235,228)" stroke-opacity="0.4471">
      <rect x="94.9839" y="422.3849" clip-path="url(#clipPath2)" width="276.688" rx="4" ry="4" height="251.2975" stroke="none"/>
    </g>
    <g font-size="14px" stroke-linecap="butt" transform="matrix(0.8,0,0,0.8,-60,131.2)" text-rendering="geometricPrecision" font-family="sans-serif" shape-rendering="geometricPrecision" stroke-miterlimit="1.45">
      <text x="99.9839" xml:space="preserve" y="665.7292" clip-path="url(#clipPath2)" stroke="none">COPII-coated vesicle</text>
      <rect x="94.9839" y="422.3849" clip-path="url(#clipPath2)" fill="none" width="276.688" rx="4" ry="4" height="251.2975" stroke-width="3"/>
    </g>
    <g transform="matrix(0.8,0,0,0.8,-60,131.2)" fill-opacity="0.4471" fill="rgb(237,235,228)" text-rendering="geometricPrecision" shape-rendering="geometricPrecision" stroke="rgb(237,235,228)" stroke-opacity="0.4471">
      <path d="M135.4808 444.2369 L310.8031 444.2369 L322.8031 456.2369 L322.8031 606.032 L310.8031 618.032 L135.4808 618.032 L123.4808 606.032 L123.4808 456.2369 Z" stroke="none" clip-path="url(#clipPath2)"/>
    </g>
    <g text-rendering="geometricPrecision" stroke-miterlimit="1.45" shape-rendering="geometricPrecision" transform="matrix(0.8,0,0,0.8,-60,131.2)" stroke-linecap="butt">
      <path fill="none" d="M135.4808 444.2369 L310.8031 444.2369 L322.8031 456.2369 L322.8031 606.032 L310.8031 618.032 L135.4808 618.032 L123.4808 606.032 L123.4808 456.2369 Z" clip-path="url(#clipPath2)"/>
    </g>
    <g fill="rgb(153,204,0)" text-rendering="geometricPrecision" shape-rendering="geometricPrecision" transform="matrix(0.8,0,0,0.8,-60,131.2)" stroke="rgb(153,204,0)">
      <path d="M138.4808 475.952 Q138.4808 465.952 148.4808 465.952 L208.4808 465.952 Q218.4808 465.952 218.4808 475.952 L218.4808 495.952 Q218.4808 505.952 208.4808 505.952 L148.4808 505.952 Q138.4808 505.952 138.4808 495.952 Z" stroke="none" clip-path="url(#clipPath2)"/>
    </g>
    <g text-rendering="geometricPrecision" stroke-miterlimit="1.45" shape-rendering="geometricPrecision" transform="matrix(0.8,0,0,0.8,-60,131.2)" stroke-linecap="butt">
      <path fill="none" d="M138.4808 475.952 Q138.4808 465.952 148.4808 465.952 L208.4808 465.952 Q218.4808 465.952 218.4808 475.952 L218.4808 495.952 Q218.4808 505.952 208.4808 505.952 L148.4808 505.952 Q138.4808 505.952 138.4808 495.952 Z" clip-path="url(#clipPath2)"/>
      <text x="161.1688" font-size="14px" y="491.243" clip-path="url(#clipPath2)" font-family="sans-serif" stroke="none" xml:space="preserve">SCAP</text>
    </g>
    <g fill="rgb(204,204,204)" text-rendering="geometricPrecision" shape-rendering="geometricPrecision" transform="matrix(0.8,0,0,0.8,-60,131.2)" stroke="rgb(204,204,204)">
      <path d="M138.9373 524.032 Q138.9373 514.032 148.9373 514.032 L208.9373 514.032 Q218.9373 514.032 218.9373 524.032 L218.9373 544.032 Q218.9373 554.032 208.9373 554.032 L148.9373 554.032 Q138.9373 554.032 138.9373 544.032 Z" stroke="none" clip-path="url(#clipPath2)"/>
    </g>
    <g text-rendering="geometricPrecision" stroke-miterlimit="1.45" shape-rendering="geometricPrecision" transform="matrix(0.8,0,0,0.8,-60,131.2)" stroke-linecap="butt">
      <path fill="none" d="M138.9373 524.032 Q138.9373 514.032 148.9373 514.032 L208.9373 514.032 Q218.9373 514.032 218.9373 524.032 L218.9373 544.032 Q218.9373 554.032 208.9373 554.032 L148.9373 554.032 Q138.9373 554.032 138.9373 544.032 Z" clip-path="url(#clipPath2)"/>
      <text x="158.8294" font-size="14px" y="539.323" clip-path="url(#clipPath2)" font-family="sans-serif" stroke="none" xml:space="preserve">Sec23</text>
    </g>
    <g fill="rgb(204,204,204)" text-rendering="geometricPrecision" shape-rendering="geometricPrecision" transform="matrix(0.8,0,0,0.8,-60,131.2)" stroke="rgb(204,204,204)">
      <path d="M138.9373 573.032 Q138.9373 563.032 148.9373 563.032 L208.9373 563.032 Q218.9373 563.032 218.9373 573.032 L218.9373 593.032 Q218.9373 603.032 208.9373 603.032 L148.9373 603.032 Q138.9373 603.032 138.9373 593.032 Z" stroke="none" clip-path="url(#clipPath2)"/>
    </g>
    <g text-rendering="geometricPrecision" stroke-miterlimit="1.45" shape-rendering="geometricPrecision" transform="matrix(0.8,0,0,0.8,-60,131.2)" stroke-linecap="butt">
      <path fill="none" d="M138.9373 573.032 Q138.9373 563.032 148.9373 563.032 L208.9373 563.032 Q218.9373 563.032 218.9373 573.032 L218.9373 593.032 Q218.9373 603.032 208.9373 603.032 L148.9373 603.032 Q138.9373 603.032 138.9373 593.032 Z" clip-path="url(#clipPath2)"/>
      <text x="158.8294" font-size="14px" y="588.323" clip-path="url(#clipPath2)" font-family="sans-serif" stroke="none" xml:space="preserve">Sec24</text>
    </g>
    <g fill="rgb(204,204,204)" text-rendering="geometricPrecision" shape-rendering="geometricPrecision" transform="matrix(0.8,0,0,0.8,-60,131.2)" stroke="rgb(204,204,204)">
      <path d="M227.9373 524.032 Q227.9373 514.032 237.9373 514.032 L297.9373 514.032 Q307.9373 514.032 307.9373 524.032 L307.9373 544.032 Q307.9373 554.032 297.9373 554.032 L237.9373 554.032 Q227.9373 554.032 227.9373 544.032 Z" stroke="none" clip-path="url(#clipPath2)"/>
    </g>
    <g text-rendering="geometricPrecision" stroke-miterlimit="1.45" shape-rendering="geometricPrecision" transform="matrix(0.8,0,0,0.8,-60,131.2)" stroke-linecap="butt">
      <path fill="none" d="M227.9373 524.032 Q227.9373 514.032 237.9373 514.032 L297.9373 514.032 Q307.9373 514.032 307.9373 524.032 L307.9373 544.032 Q307.9373 554.032 297.9373 554.032 L237.9373 554.032 Q227.9373 554.032 227.9373 544.032 Z" clip-path="url(#clipPath2)"/>
      <text x="253.0111" font-size="14px" y="539.323" clip-path="url(#clipPath2)" font-family="sans-serif" stroke="none" xml:space="preserve">Sar1</text>
    </g>
    <g fill="rgb(255,153,0)" text-rendering="geometricPrecision" shape-rendering="geometricPrecision" transform="matrix(0.8,0,0,0.8,-60,131.2)" stroke="rgb(255,153,0)">
      <path d="M228.4373 475.952 Q228.4373 465.952 238.4373 465.952 L297.4373 465.952 Q307.4373 465.952 307.4373 475.952 L307.4373 495.952 Q307.4373 505.952 297.4373 505.952 L238.4373 505.952 Q228.4373 505.952 228.4373 495.952 Z" stroke="none" clip-path="url(#clipPath2)"/>
    </g>
    <g text-rendering="geometricPrecision" stroke-miterlimit="1.45" shape-rendering="geometricPrecision" transform="matrix(0.8,0,0,0.8,-60,131.2)" stroke-linecap="butt">
      <path fill="none" d="M228.4373 475.952 Q228.4373 465.952 238.4373 465.952 L297.4373 465.952 Q307.4373 465.952 307.4373 475.952 L307.4373 495.952 Q307.4373 505.952 297.4373 505.952 L238.4373 505.952 Q228.4373 505.952 228.4373 495.952 Z" clip-path="url(#clipPath2)"/>
      <text x="243.6253" font-size="14px" y="491.243" clip-path="url(#clipPath2)" font-family="sans-serif" stroke="none" xml:space="preserve">SREBP2</text>
    </g>
    <g fill="white" text-rendering="geometricPrecision" shape-rendering="geometricPrecision" transform="matrix(0.8,0,0,0.8,-60,131.2) translate(237.5995,458.2369)" stroke="white">
      <rect x="0" width="59.6798" height="16" y="0" clip-path="url(#clipPath6)" stroke="none"/>
    </g>
    <g text-rendering="geometricPrecision" stroke-miterlimit="1.45" shape-rendering="geometricPrecision" transform="matrix(0.8,0,0,0.8,-60,131.2) translate(237.5995,458.2369)" stroke-linecap="butt">
      <rect fill="none" x="0" width="59.6798" height="16" y="0" clip-path="url(#clipPath6)"/>
      <text x="6.4854" font-size="10px" y="11.7793" clip-path="url(#clipPath6)" font-family="sans-serif" stroke="none" xml:space="preserve">precursor</text>
    </g>
    <g text-rendering="geometricPrecision" stroke-miterlimit="1.45" shape-rendering="geometricPrecision" transform="matrix(0.8,0,0,0.8,-60,131.2)" stroke-linecap="butt">
      <path fill="none" d="M394.0635 500.6102 L322.7721 501.2679" clip-path="url(#clipPath2)"/>
    </g>
    <g transform="matrix(0.8,0,0,0.8,-60,131.2)" fill-opacity="0.4471" fill="rgb(237,235,228)" text-rendering="geometricPrecision" shape-rendering="geometricPrecision" stroke="rgb(237,235,228)" stroke-opacity="0.4471">
      <rect x="511.6719" y="421.3117" clip-path="url(#clipPath2)" width="297.5276" rx="4" ry="4" height="481.7668" stroke="none"/>
    </g>
    <g font-size="14px" stroke-linecap="butt" transform="matrix(0.8,0,0,0.8,-60,131.2)" text-rendering="geometricPrecision" font-family="sans-serif" shape-rendering="geometricPrecision" stroke-miterlimit="1.45">
      <text x="768.6595" xml:space="preserve" y="439.8469" clip-path="url(#clipPath2)" stroke="none">Golgi</text>
      <rect x="511.6719" y="421.3117" clip-path="url(#clipPath2)" fill="none" width="297.5276" rx="4" ry="4" height="481.7668" stroke-width="3"/>
    </g>
    <g fill="rgb(255,153,0)" text-rendering="geometricPrecision" shape-rendering="geometricPrecision" transform="matrix(0.8,0,0,0.8,-60,131.2)" stroke="rgb(255,153,0)">
      <path d="M620.1812 671.7148 Q620.1812 661.7148 630.1812 661.7148 L690.1812 661.7148 Q700.1812 661.7148 700.1812 671.7148 L700.1812 691.7148 Q700.1812 701.7148 690.1812 701.7148 L630.1812 701.7148 Q620.1812 701.7148 620.1812 691.7148 Z" stroke="none" clip-path="url(#clipPath2)"/>
    </g>
    <g text-rendering="geometricPrecision" stroke-miterlimit="1.45" shape-rendering="geometricPrecision" transform="matrix(0.8,0,0,0.8,-60,131.2)" stroke-linecap="butt">
      <path fill="none" d="M620.1812 671.7148 Q620.1812 661.7148 630.1812 661.7148 L690.1812 661.7148 Q700.1812 661.7148 700.1812 671.7148 L700.1812 691.7148 Q700.1812 701.7148 690.1812 701.7148 L630.1812 701.7148 Q620.1812 701.7148 620.1812 691.7148 Z" clip-path="url(#clipPath2)"/>
      <text x="635.8692" font-size="14px" y="687.0058" clip-path="url(#clipPath2)" font-family="sans-serif" stroke="none" xml:space="preserve">SREBP2</text>
    </g>
    <g fill="white" text-rendering="geometricPrecision" shape-rendering="geometricPrecision" transform="matrix(0.8,0,0,0.8,-60,131.2) translate(632.7427,653.7148)" stroke="white">
      <rect x="0" width="79" height="16" y="0" clip-path="url(#clipPath7)" stroke="none"/>
    </g>
    <g text-rendering="geometricPrecision" stroke-miterlimit="1.45" shape-rendering="geometricPrecision" transform="matrix(0.8,0,0,0.8,-60,131.2) translate(632.7427,653.7148)" stroke-linecap="butt">
      <rect fill="none" x="0" width="79" height="16" y="0" clip-path="url(#clipPath7)"/>
      <text x="1.6533" font-size="10px" y="11.7793" clip-path="url(#clipPath7)" font-family="sans-serif" stroke="none" xml:space="preserve">processed form</text>
    </g>
    <g fill="rgb(255,153,0)" text-rendering="geometricPrecision" shape-rendering="geometricPrecision" transform="matrix(0.8,0,0,0.8,-60,131.2)" stroke="rgb(255,153,0)">
      <path d="M620.1812 822.9116 Q620.1812 812.9116 630.1812 812.9116 L690.1812 812.9116 Q700.1812 812.9116 700.1812 822.9116 L700.1812 842.9116 Q700.1812 852.9116 690.1812 852.9116 L630.1812 852.9116 Q620.1812 852.9116 620.1812 842.9116 Z" stroke="none" clip-path="url(#clipPath2)"/>
    </g>
    <g text-rendering="geometricPrecision" stroke-miterlimit="1.45" shape-rendering="geometricPrecision" transform="matrix(0.8,0,0,0.8,-60,131.2)" stroke-linecap="butt">
      <path fill="none" d="M620.1812 822.9116 Q620.1812 812.9116 630.1812 812.9116 L690.1812 812.9116 Q700.1812 812.9116 700.1812 822.9116 L700.1812 842.9116 Q700.1812 852.9116 690.1812 852.9116 L630.1812 852.9116 Q620.1812 852.9116 620.1812 842.9116 Z" clip-path="url(#clipPath2)"/>
      <text x="635.8692" font-size="14px" y="838.2026" clip-path="url(#clipPath2)" font-family="sans-serif" stroke="none" xml:space="preserve">SREBP2</text>
    </g>
    <g fill="white" text-rendering="geometricPrecision" shape-rendering="geometricPrecision" transform="matrix(0.8,0,0,0.8,-60,131.2) translate(627.1812,804.9116)" stroke="white">
      <rect x="0" width="65.6645" height="16" y="0" clip-path="url(#clipPath8)" stroke="none"/>
    </g>
    <g text-rendering="geometricPrecision" stroke-miterlimit="1.45" shape-rendering="geometricPrecision" transform="matrix(0.8,0,0,0.8,-60,131.2) translate(627.1812,804.9116)" stroke-linecap="butt">
      <rect fill="none" x="0" width="65.6645" height="16" y="0" clip-path="url(#clipPath8)"/>
      <text x="2.3928" font-size="10px" y="11.7793" clip-path="url(#clipPath8)" font-family="sans-serif" stroke="none" xml:space="preserve">mature form</text>
    </g>
    <g fill="rgb(255,204,153)" text-rendering="geometricPrecision" shape-rendering="geometricPrecision" transform="matrix(0.8,0,0,0.8,-60,131.2)" stroke="rgb(255,204,153)">
      <path d="M530.1812 574.113 Q530.1812 564.113 540.1812 564.113 L600.1812 564.113 Q610.1812 564.113 610.1812 574.113 L610.1812 594.113 Q610.1812 604.113 600.1812 604.113 L540.1812 604.113 Q530.1812 604.113 530.1812 594.113 Z" stroke="none" clip-path="url(#clipPath2)"/>
    </g>
    <g text-rendering="geometricPrecision" stroke-miterlimit="1.45" shape-rendering="geometricPrecision" transform="matrix(0.8,0,0,0.8,-60,131.2)" stroke-linecap="butt">
      <path fill="none" d="M530.1812 574.113 Q530.1812 564.113 540.1812 564.113 L600.1812 564.113 Q610.1812 564.113 610.1812 574.113 L610.1812 594.113 Q610.1812 604.113 600.1812 604.113 L540.1812 604.113 Q530.1812 604.113 530.1812 594.113 Z" clip-path="url(#clipPath2)"/>
      <text x="558.1158" font-size="14px" y="589.4041" clip-path="url(#clipPath2)" font-family="sans-serif" stroke="none" xml:space="preserve">S1P</text>
    </g>
    <g fill="rgb(255,204,153)" text-rendering="geometricPrecision" shape-rendering="geometricPrecision" transform="matrix(0.8,0,0,0.8,-60,131.2)" stroke="rgb(255,204,153)">
      <path d="M530.1812 741.7148 Q530.1812 731.7148 540.1812 731.7148 L600.1812 731.7148 Q610.1812 731.7148 610.1812 741.7148 L610.1812 761.7148 Q610.1812 771.7148 600.1812 771.7148 L540.1812 771.7148 Q530.1812 771.7148 530.1812 761.7148 Z" stroke="none" clip-path="url(#clipPath2)"/>
    </g>
    <g text-rendering="geometricPrecision" stroke-miterlimit="1.45" shape-rendering="geometricPrecision" transform="matrix(0.8,0,0,0.8,-60,131.2)" stroke-linecap="butt">
      <path fill="none" d="M530.1812 741.7148 Q530.1812 731.7148 540.1812 731.7148 L600.1812 731.7148 Q610.1812 731.7148 610.1812 741.7148 L610.1812 761.7148 Q610.1812 771.7148 600.1812 771.7148 L540.1812 771.7148 Q530.1812 771.7148 530.1812 761.7148 Z" clip-path="url(#clipPath2)"/>
      <text x="558.1158" font-size="14px" y="757.0058" clip-path="url(#clipPath2)" font-family="sans-serif" stroke="none" xml:space="preserve">S2P</text>
    </g>
    <g fill="white" text-rendering="geometricPrecision" shape-rendering="geometricPrecision" transform="matrix(0.8,0,0,0.8,-60,131.2)" stroke="white">
      <rect x="651.1812" width="18" height="18" y="575.1131" clip-path="url(#clipPath2)" stroke="none"/>
    </g>
    <g text-rendering="geometricPrecision" stroke-miterlimit="1.45" shape-rendering="geometricPrecision" transform="matrix(0.8,0,0,0.8,-60,131.2)" stroke-linecap="butt">
      <rect fill="none" x="651.1812" width="18" height="18" y="575.1131" clip-path="url(#clipPath2)"/>
    </g>
    <g fill="white" text-rendering="geometricPrecision" shape-rendering="geometricPrecision" transform="matrix(0.8,0,0,0.8,-60,131.2)" stroke="white">
      <rect x="651.1812" width="18" height="18" y="742.7148" clip-path="url(#clipPath2)" stroke="none"/>
    </g>
    <g text-rendering="geometricPrecision" stroke-miterlimit="1.45" shape-rendering="geometricPrecision" transform="matrix(0.8,0,0,0.8,-60,131.2)" stroke-linecap="butt">
      <rect fill="none" x="651.1812" width="18" height="18" y="742.7148" clip-path="url(#clipPath2)"/>
    </g>
    <g text-rendering="geometricPrecision" stroke-miterlimit="1.45" shape-rendering="geometricPrecision" transform="matrix(0.8,0,0,0.8,-60,131.2)" stroke-linecap="butt">
      <path fill="none" d="M610.2154 584.113 L643.1542 584.113" clip-path="url(#clipPath2)"/>
      <path fill="white" d="M651.1542 584.113 C651.1542 586.3222 649.3633 588.113 647.1542 588.113 C644.945 588.113 643.1542 586.3222 643.1542 584.113 C643.1542 581.9039 644.945 580.113 647.1542 580.113 C649.3633 580.113 651.1542 581.9039 651.1542 584.113 Z" clip-path="url(#clipPath2)" stroke="none"/>
      <path fill="none" d="M651.1542 584.113 C651.1542 586.3222 649.3633 588.113 647.1542 588.113 C644.945 588.113 643.1542 586.3222 643.1542 584.113 C643.1542 581.9039 644.945 580.113 647.1542 580.113 C649.3633 580.113 651.1542 581.9039 651.1542 584.113 Z" clip-path="url(#clipPath2)"/>
      <path fill="none" d="M660.1812 593.1191 L660.1812 642.7148" clip-path="url(#clipPath2)"/>
      <path d="M660.1812 653.7148 L666.1812 641.7148 L654.1812 641.7148 Z" clip-path="url(#clipPath2)" stroke="none"/>
      <path fill="none" d="M610.2154 751.7148 L643.1542 751.7148" clip-path="url(#clipPath2)"/>
      <path fill="white" d="M651.1542 751.7148 C651.1542 753.924 649.3633 755.7148 647.1542 755.7148 C644.945 755.7148 643.1542 753.924 643.1542 751.7148 C643.1542 749.5056 644.945 747.7148 647.1542 747.7148 C649.3633 747.7148 651.1542 749.5056 651.1542 751.7148 Z" clip-path="url(#clipPath2)" stroke="none"/>
      <path fill="none" d="M651.1542 751.7148 C651.1542 753.924 649.3633 755.7148 647.1542 755.7148 C644.945 755.7148 643.1542 753.924 643.1542 751.7148 C643.1542 749.5056 644.945 747.7148 647.1542 747.7148 C649.3633 747.7148 651.1542 749.5056 651.1542 751.7148 Z" clip-path="url(#clipPath2)"/>
      <path fill="none" d="M660.1812 701.6878 L660.1812 742.6757" clip-path="url(#clipPath2)"/>
      <path fill="none" d="M660.1812 760.7281 L660.1812 793.9116" clip-path="url(#clipPath2)"/>
      <path d="M660.1812 804.9116 L666.1812 792.9116 L654.1812 792.9116 Z" clip-path="url(#clipPath2)" stroke="none"/>
    </g>
    <g transform="matrix(0.8,0,0,0.8,-60,131.2)" fill-opacity="0.4471" fill="rgb(237,235,228)" text-rendering="geometricPrecision" shape-rendering="geometricPrecision" stroke="rgb(237,235,228)" stroke-opacity="0.4471">
      <path d="M572.5201 460.7771 L747.8423 460.7771 L759.8423 472.7771 L759.8423 528.277 L747.8423 540.277 L572.5201 540.277 L560.5201 528.277 L560.5201 472.7771 Z" stroke="none" clip-path="url(#clipPath2)"/>
    </g>
    <g text-rendering="geometricPrecision" stroke-miterlimit="1.45" shape-rendering="geometricPrecision" transform="matrix(0.8,0,0,0.8,-60,131.2)" stroke-linecap="butt">
      <path fill="none" d="M572.5201 460.7771 L747.8423 460.7771 L759.8423 472.7771 L759.8423 528.277 L747.8423 540.277 L572.5201 540.277 L560.5201 528.277 L560.5201 472.7771 Z" clip-path="url(#clipPath2)"/>
    </g>
    <g fill="rgb(153,204,0)" text-rendering="geometricPrecision" shape-rendering="geometricPrecision" transform="matrix(0.8,0,0,0.8,-60,131.2)" stroke="rgb(153,204,0)">
      <path d="M575.5201 495.2771 Q575.5201 485.2771 585.5201 485.2771 L645.5201 485.2771 Q655.5201 485.2771 655.5201 495.2771 L655.5201 515.277 Q655.5201 525.277 645.5201 525.277 L585.5201 525.277 Q575.5201 525.277 575.5201 515.277 Z" stroke="none" clip-path="url(#clipPath2)"/>
    </g>
    <g text-rendering="geometricPrecision" stroke-miterlimit="1.45" shape-rendering="geometricPrecision" transform="matrix(0.8,0,0,0.8,-60,131.2)" stroke-linecap="butt">
      <path fill="none" d="M575.5201 495.2771 Q575.5201 485.2771 585.5201 485.2771 L645.5201 485.2771 Q655.5201 485.2771 655.5201 495.2771 L655.5201 515.277 Q655.5201 525.277 645.5201 525.277 L585.5201 525.277 Q575.5201 525.277 575.5201 515.277 Z" clip-path="url(#clipPath2)"/>
      <text x="598.2081" font-size="14px" y="510.5681" clip-path="url(#clipPath2)" font-family="sans-serif" stroke="none" xml:space="preserve">SCAP</text>
    </g>
    <g fill="rgb(255,153,0)" text-rendering="geometricPrecision" shape-rendering="geometricPrecision" transform="matrix(0.8,0,0,0.8,-60,131.2)" stroke="rgb(255,153,0)">
      <path d="M665.1078 495.2771 Q665.1078 485.2771 675.1078 485.2771 L734.1078 485.2771 Q744.1078 485.2771 744.1078 495.2771 L744.1078 515.277 Q744.1078 525.277 734.1078 525.277 L675.1078 525.277 Q665.1078 525.277 665.1078 515.277 Z" stroke="none" clip-path="url(#clipPath2)"/>
    </g>
    <g text-rendering="geometricPrecision" stroke-miterlimit="1.45" shape-rendering="geometricPrecision" transform="matrix(0.8,0,0,0.8,-60,131.2)" stroke-linecap="butt">
      <path fill="none" d="M665.1078 495.2771 Q665.1078 485.2771 675.1078 485.2771 L734.1078 485.2771 Q744.1078 485.2771 744.1078 495.2771 L744.1078 515.277 Q744.1078 525.277 734.1078 525.277 L675.1078 525.277 Q665.1078 525.277 665.1078 515.277 Z" clip-path="url(#clipPath2)"/>
      <text x="680.2958" font-size="14px" y="510.5681" clip-path="url(#clipPath2)" font-family="sans-serif" stroke="none" xml:space="preserve">SREBP2</text>
    </g>
    <g fill="white" text-rendering="geometricPrecision" shape-rendering="geometricPrecision" transform="matrix(0.8,0,0,0.8,-60,131.2) translate(674.27,477.562)" stroke="white">
      <rect x="0" width="59.6798" height="16" y="0" clip-path="url(#clipPath9)" stroke="none"/>
    </g>
    <g text-rendering="geometricPrecision" stroke-miterlimit="1.45" shape-rendering="geometricPrecision" transform="matrix(0.8,0,0,0.8,-60,131.2) translate(674.27,477.562)" stroke-linecap="butt">
      <rect fill="none" x="0" width="59.6798" height="16" y="0" clip-path="url(#clipPath9)"/>
      <text x="6.4854" font-size="10px" y="11.7793" clip-path="url(#clipPath9)" font-family="sans-serif" stroke="none" xml:space="preserve">precursor</text>
    </g>
    <g fill="rgb(153,204,0)" text-rendering="geometricPrecision" shape-rendering="geometricPrecision" transform="matrix(0.8,0,0,0.8,-60,131.2)" stroke="rgb(153,204,0)">
      <path d="M699.1812 604.113 Q699.1812 594.113 709.1812 594.113 L769.1812 594.113 Q779.1812 594.113 779.1812 604.113 L779.1812 624.113 Q779.1812 634.113 769.1812 634.113 L709.1812 634.113 Q699.1812 634.113 699.1812 624.113 Z" stroke="none" clip-path="url(#clipPath2)"/>
    </g>
    <g text-rendering="geometricPrecision" stroke-miterlimit="1.45" shape-rendering="geometricPrecision" transform="matrix(0.8,0,0,0.8,-60,131.2)" stroke-linecap="butt">
      <path fill="none" d="M699.1812 604.113 Q699.1812 594.113 709.1812 594.113 L769.1812 594.113 Q779.1812 594.113 779.1812 604.113 L779.1812 624.113 Q779.1812 634.113 769.1812 634.113 L709.1812 634.113 Q699.1812 634.113 699.1812 624.113 Z" clip-path="url(#clipPath2)"/>
      <text x="721.8692" font-size="14px" y="619.4041" clip-path="url(#clipPath2)" font-family="sans-serif" stroke="none" xml:space="preserve">SCAP</text>
    </g>
    <g text-rendering="geometricPrecision" stroke-miterlimit="1.45" shape-rendering="geometricPrecision" transform="matrix(0.8,0,0,0.8,-60,131.2)" stroke-linecap="butt">
      <path fill="none" d="M660.1812 575.0933 L660.1812 540.2496" clip-path="url(#clipPath2)"/>
      <path fill="none" d="M412.0836 500.5271 L549.5121 500.5271" clip-path="url(#clipPath2)"/>
      <path d="M560.5121 500.5271 L548.5121 494.5271 L548.5121 506.5271 Z" clip-path="url(#clipPath2)" stroke="none"/>
      <path fill="none" d="M660.1812 593.1072 L660.1812 604.113 L660.8062 608.488 L662.6812 611.613 L665.8062 613.488 L670.1812 614.113 L688.1797 614.113" clip-path="url(#clipPath2)"/>
      <path d="M699.1797 614.113 L687.1797 608.113 L687.1797 620.113 Z" clip-path="url(#clipPath2)" stroke="none"/>
    </g>
    <g transform="matrix(0.8,0,0,0.8,-60,131.2)" fill-opacity="0.4471" fill="rgb(237,235,228)" text-rendering="geometricPrecision" shape-rendering="geometricPrecision" stroke="rgb(237,235,228)" stroke-opacity="0.4471">
      <rect x="96.46" y="697.5875" clip-path="url(#clipPath2)" width="395.2118" rx="4" ry="4" height="205.491" stroke="none"/>
    </g>
    <g font-size="14px" stroke-linecap="butt" transform="matrix(0.8,0,0,0.8,-60,131.2)" text-rendering="geometricPrecision" font-family="sans-serif" shape-rendering="geometricPrecision" stroke-miterlimit="1.45">
      <text x="432.7979" xml:space="preserve" y="716.1226" clip-path="url(#clipPath2)" stroke="none">Nucleus</text>
      <rect x="96.46" y="697.5875" clip-path="url(#clipPath2)" fill="none" width="395.2118" rx="4" ry="4" height="205.491" stroke-width="3"/>
    </g>
    <g fill="rgb(255,153,0)" text-rendering="geometricPrecision" shape-rendering="geometricPrecision" transform="matrix(0.8,0,0,0.8,-60,131.2)" stroke="rgb(255,153,0)">
      <path d="M298.4254 822.9116 Q298.4254 812.9116 308.4254 812.9116 L367.4254 812.9116 Q377.4254 812.9116 377.4254 822.9116 L377.4254 842.9116 Q377.4254 852.9116 367.4254 852.9116 L308.4254 852.9116 Q298.4254 852.9116 298.4254 842.9116 Z" stroke="none" clip-path="url(#clipPath2)"/>
    </g>
    <g text-rendering="geometricPrecision" stroke-miterlimit="1.45" shape-rendering="geometricPrecision" transform="matrix(0.8,0,0,0.8,-60,131.2)" stroke-linecap="butt">
      <path fill="none" d="M298.4254 822.9116 Q298.4254 812.9116 308.4254 812.9116 L367.4254 812.9116 Q377.4254 812.9116 377.4254 822.9116 L377.4254 842.9116 Q377.4254 852.9116 367.4254 852.9116 L308.4254 852.9116 Q298.4254 852.9116 298.4254 842.9116 Z" clip-path="url(#clipPath2)"/>
      <text x="313.6134" font-size="14px" y="838.2026" clip-path="url(#clipPath2)" font-family="sans-serif" stroke="none" xml:space="preserve">SREBP2</text>
    </g>
    <g fill="white" text-rendering="geometricPrecision" shape-rendering="geometricPrecision" transform="matrix(0.8,0,0,0.8,-60,131.2) translate(307.4254,804.9116)" stroke="white">
      <rect x="0" width="65.6645" height="16" y="0" clip-path="url(#clipPath10)" stroke="none"/>
    </g>
    <g text-rendering="geometricPrecision" stroke-miterlimit="1.45" shape-rendering="geometricPrecision" transform="matrix(0.8,0,0,0.8,-60,131.2) translate(307.4254,804.9116)" stroke-linecap="butt">
      <rect fill="none" x="0" width="65.6645" height="16" y="0" clip-path="url(#clipPath10)"/>
      <text x="2.3928" font-size="10px" y="11.7793" clip-path="url(#clipPath10)" font-family="sans-serif" stroke="none" xml:space="preserve">mature form</text>
    </g>
    <g fill="white" text-rendering="geometricPrecision" shape-rendering="geometricPrecision" transform="matrix(0.8,0,0,0.8,-60,131.2)" stroke="white">
      <rect x="119.6333" width="130.2068" height="59.1015" y="803.3609" clip-path="url(#clipPath2)" stroke="none"/>
    </g>
    <g text-rendering="geometricPrecision" stroke-miterlimit="1.45" shape-rendering="geometricPrecision" transform="matrix(0.8,0,0,0.8,-60,131.2)" stroke-linecap="butt">
      <rect fill="none" x="119.6333" width="130.2068" height="59.1015" y="803.3609" clip-path="url(#clipPath2)"/>
      <text x="137.2885" font-size="14px" y="829.9585" clip-path="url(#clipPath2)" font-family="sans-serif" stroke="none" xml:space="preserve">Transcription </text>
      <text x="133.1254" font-size="14px" y="846.4468" clip-path="url(#clipPath2)" font-family="sans-serif" stroke="none" xml:space="preserve">of target genes</text>
    </g>
    <g fill="white" text-rendering="geometricPrecision" shape-rendering="geometricPrecision" transform="matrix(0.8,0,0,0.8,-60,131.2)" stroke="white">
      <rect x="426.0106" width="18" height="18" y="823.9116" clip-path="url(#clipPath2)" stroke="none"/>
    </g>
    <g text-rendering="geometricPrecision" stroke-miterlimit="1.45" shape-rendering="geometricPrecision" transform="matrix(0.8,0,0,0.8,-60,131.2)" stroke-linecap="butt">
      <rect fill="none" x="426.0106" width="18" height="18" y="823.9116" clip-path="url(#clipPath2)"/>
    </g>
    <g fill="rgb(253,239,181)" text-rendering="geometricPrecision" shape-rendering="geometricPrecision" transform="matrix(0.8,0,0,0.8,-60,131.2)" stroke="rgb(253,239,181)">
      <path d="M395.0107 892.9116 Q395.0107 882.9116 405.0107 882.9116 L465.0107 882.9116 Q475.0107 882.9116 475.0107 892.9116 L475.0107 912.9116 Q475.0107 922.9116 465.0107 922.9116 L405.0107 922.9116 Q395.0107 922.9116 395.0107 912.9116 Z" stroke="none" clip-path="url(#clipPath2)"/>
    </g>
    <g text-rendering="geometricPrecision" stroke-miterlimit="1.45" shape-rendering="geometricPrecision" transform="matrix(0.8,0,0,0.8,-60,131.2)" stroke-linecap="butt">
      <path fill="none" d="M395.0107 892.9116 Q395.0107 882.9116 405.0107 882.9116 L465.0107 882.9116 Q475.0107 882.9116 475.0107 892.9116 L475.0107 912.9116 Q475.0107 922.9116 465.0107 922.9116 L405.0107 922.9116 Q395.0107 922.9116 395.0107 912.9116 Z" clip-path="url(#clipPath2)"/>
      <text x="397.6352" font-size="14px" y="908.2026" clip-path="url(#clipPath2)" font-family="sans-serif" stroke="none" xml:space="preserve">Importin-</text>
    </g>
    <g fill="white" text-rendering="geometricPrecision" shape-rendering="geometricPrecision" transform="matrix(0.8,0,0,0.8,-60,131.2)" stroke="white">
      <rect x="214.3279" width="18" height="18" y="363.409" clip-path="url(#clipPath2)" stroke="none"/>
    </g>
    <g text-rendering="geometricPrecision" stroke-miterlimit="1.45" shape-rendering="geometricPrecision" transform="matrix(0.8,0,0,0.8,-60,131.2)" stroke-linecap="butt">
      <rect fill="none" x="214.3279" width="18" height="18" y="363.409" clip-path="url(#clipPath2)"/>
    </g>
    <g fill="white" text-rendering="geometricPrecision" shape-rendering="geometricPrecision" transform="matrix(0.8,0,0,0.8,-60,131.2)" stroke="white">
      <rect x="119.6333" width="130.2068" height="57.5015" y="933.0785" clip-path="url(#clipPath2)" stroke="none"/>
    </g>
    <g text-rendering="geometricPrecision" stroke-miterlimit="1.45" shape-rendering="geometricPrecision" transform="matrix(0.8,0,0,0.8,-60,131.2)" stroke-linecap="butt">
      <rect fill="none" x="119.6333" width="130.2068" height="57.5015" y="933.0785" clip-path="url(#clipPath2)"/>
      <text x="143.8373" font-size="14px" y="958.8762" clip-path="url(#clipPath2)" font-family="sans-serif" stroke="none" xml:space="preserve">Cholesterol </text>
      <text x="142.4154" font-size="14px" y="975.3644" clip-path="url(#clipPath2)" font-family="sans-serif" stroke="none" xml:space="preserve">biosynthesis</text>
    </g>
    <g text-rendering="geometricPrecision" stroke-miterlimit="1.45" shape-rendering="geometricPrecision" transform="matrix(0.8,0,0,0.8,-60,131.2)" stroke-linecap="butt">
      <path fill="none" d="M298.394 832.9116 L264.8621 832.9116" clip-path="url(#clipPath2)"/>
      <path fill="white" d="M249.8621 832.9116 L265.8621 838.9116 L265.8621 826.9116 Z" clip-path="url(#clipPath2)" stroke="none"/>
      <path fill="none" d="M249.8621 832.9116 L265.8621 838.9116 L265.8621 826.9116 Z" clip-path="url(#clipPath2)"/>
      <path fill="none" d="M620.1881 832.9116 L444.0073 832.9116" clip-path="url(#clipPath2)"/>
      <path fill="none" d="M426.0511 832.9116 L388.384 832.9116" clip-path="url(#clipPath2)"/>
      <path d="M377.384 832.9116 L389.384 838.9116 L389.384 826.9116 Z" clip-path="url(#clipPath2)" stroke="none"/>
      <path fill="none" d="M435.0107 882.9165 L435.0107 856.9457" clip-path="url(#clipPath2)"/>
      <path fill="white" d="M435.0107 841.9457 L429.0107 857.9457 L441.0107 857.9457 Z" clip-path="url(#clipPath2)" stroke="none"/>
      <path fill="none" d="M435.0107 841.9457 L429.0107 857.9457 L441.0107 857.9457 Z" clip-path="url(#clipPath2)"/>
      <path fill="none" d="M223.3279 363.4074 L223.3279 349.9251" clip-path="url(#clipPath2)"/>
      <path fill="none" d="M223.3058 381.3863 L223.1783 433.2603" clip-path="url(#clipPath2)"/>
      <path d="M223.1513 444.2603 L229.1808 432.2751 L217.1808 432.2456 Z" clip-path="url(#clipPath2)" stroke="none"/>
      <path fill="none" d="M184.7367 862.4658 L184.7367 918.0585" clip-path="url(#clipPath2)"/>
      <path fill="white" d="M184.7367 933.0585 L190.7367 917.0585 L178.7367 917.0585 Z" clip-path="url(#clipPath2)" stroke="none"/>
      <path fill="none" d="M184.7367 933.0585 L190.7367 917.0585 L178.7367 917.0585 Z" clip-path="url(#clipPath2)"/>
    </g>
  </g>
</svg>
