<?xml version="1.0" encoding="UTF-8"?><svg xmlns="http://www.w3.org/2000/svg" xmlns:xlink="http://www.w3.org/1999/xlink" fill-opacity="1" color-rendering="auto" color-interpolation="auto" text-rendering="auto" stroke="black" stroke-linecap="square" width="720" stroke-miterlimit="10" shape-rendering="auto" stroke-opacity="1" fill="black" stroke-dasharray="none" font-weight="normal" stroke-width="1" height="564" font-family="'Dialog'" font-style="normal" stroke-linejoin="miter" font-size="12px" stroke-dashoffset="0" image-rendering="auto">
  <!--Generated by ySVG 2.5-->
  <defs id="genericDefs"/>
  <g>
    <defs id="defs1">
      <clipPath clipPathUnits="userSpaceOnUse" id="clipPath1">
        <path d="M0 0 L720 0 L720 564 L0 564 L0 0 Z"/>
      </clipPath>
      <clipPath clipPathUnits="userSpaceOnUse" id="clipPath2">
        <path d="M-888 -242 L12 -242 L12 463 L-888 463 L-888 -242 Z"/>
      </clipPath>
    </defs>
    <g fill="white" text-rendering="geometricPrecision" shape-rendering="geometricPrecision" transform="scale(0.8,0.8) translate(888,242)" stroke="white">
      <rect x="-889" width="901" height="706" y="-243" clip-path="url(#clipPath2)" stroke="none"/>
    </g>
    <g id="y.node.0">
      <g fill="rgb(219,235,219)" text-rendering="geometricPrecision" shape-rendering="geometricPrecision" transform="matrix(0.8,0,0,0.8,710.4,193.6)" stroke="rgb(219,235,219)">
        <rect x="-194.0963" y="28.3672" width="100" rx="16" ry="16" height="32" stroke="none"/>
      </g>
      <g text-rendering="geometricPrecision" stroke-miterlimit="1.45" shape-rendering="geometricPrecision" transform="matrix(0.8,0,0,0.8,710.4,193.6)" stroke-linecap="butt">
        <rect x="-194.0963" y="28.3672" fill="none" width="100" rx="16" ry="16" height="32"/>
      </g>
      <g>
        <g font-size="14px" stroke-linecap="butt" transform="matrix(0.8,0,0,0.8,710.4,193.6)" text-rendering="geometricPrecision" font-family="sans-serif" shape-rendering="geometricPrecision" stroke-miterlimit="1.45">
          <text x="-165.5714" xml:space="preserve" y="49.6582" stroke="none">citrate</text>
        </g>
      </g>
    </g>
    <g id="y.node.1">
      <g fill="rgb(219,235,219)" text-rendering="geometricPrecision" shape-rendering="geometricPrecision" transform="matrix(0.8,0,0,0.8,710.4,193.6)" stroke="rgb(219,235,219)">
        <rect x="-194.0963" y="258.5486" width="100" rx="16" ry="16" height="32" stroke="none"/>
      </g>
      <g text-rendering="geometricPrecision" stroke-miterlimit="1.45" shape-rendering="geometricPrecision" transform="matrix(0.8,0,0,0.8,710.4,193.6)" stroke-linecap="butt">
        <rect x="-194.0963" y="258.5486" fill="none" width="100" rx="16" ry="16" height="32"/>
      </g>
      <g>
        <g font-size="14px" stroke-linecap="butt" transform="matrix(0.8,0,0,0.8,710.4,193.6)" text-rendering="geometricPrecision" font-family="sans-serif" shape-rendering="geometricPrecision" stroke-miterlimit="1.45">
          <text x="-181.7691" xml:space="preserve" y="279.8396" stroke="none">acetyl-CoA</text>
        </g>
      </g>
    </g>
    <g id="y.node.2">
      <g fill="rgb(219,235,219)" text-rendering="geometricPrecision" shape-rendering="geometricPrecision" transform="matrix(0.8,0,0,0.8,710.4,193.6)" stroke="rgb(219,235,219)">
        <rect x="-279.9789" y="216.173" width="100" rx="16" ry="16" height="32" stroke="none"/>
      </g>
      <g text-rendering="geometricPrecision" stroke-miterlimit="1.45" shape-rendering="geometricPrecision" transform="matrix(0.8,0,0,0.8,710.4,193.6)" stroke-linecap="butt">
        <rect x="-279.9789" y="216.173" fill="none" width="100" rx="16" ry="16" height="32"/>
      </g>
      <g>
        <g font-size="14px" stroke-linecap="butt" transform="matrix(0.8,0,0,0.8,710.4,193.6)" text-rendering="geometricPrecision" font-family="sans-serif" shape-rendering="geometricPrecision" stroke-miterlimit="1.45">
          <text x="-273.1137" xml:space="preserve" y="237.4641" stroke="none">oxaloacetate</text>
        </g>
      </g>
    </g>
    <g id="y.node.3">
      <g fill="white" text-rendering="geometricPrecision" shape-rendering="geometricPrecision" transform="matrix(0.8,0,0,0.8,710.4,193.6)" stroke="white">
        <rect x="-153.0963" width="18" height="18" y="149.9219" stroke="none"/>
      </g>
      <g text-rendering="geometricPrecision" stroke-miterlimit="1.45" shape-rendering="geometricPrecision" transform="matrix(0.8,0,0,0.8,710.4,193.6)" stroke-linecap="butt">
        <rect fill="none" x="-153.0963" width="18" height="18" y="149.9219"/>
      </g>
      <g/>
    </g>
    <g id="y.node.4">
      <g fill="rgb(226,172,163)" text-rendering="geometricPrecision" shape-rendering="geometricPrecision" transform="matrix(0.8,0,0,0.8,710.4,193.6)" stroke="rgb(226,172,163)">
        <path d="M-347.5269 148.9219 Q-347.5269 138.9219 -337.5269 138.9219 L-277.5269 138.9219 Q-267.5269 138.9219 -267.5269 148.9219 L-267.5269 168.9219 Q-267.5269 178.9219 -277.5269 178.9219 L-337.5269 178.9219 Q-347.5269 178.9219 -347.5269 168.9219 Z" stroke="none"/>
      </g>
      <g text-rendering="geometricPrecision" stroke-miterlimit="1.45" shape-rendering="geometricPrecision" transform="matrix(0.8,0,0,0.8,710.4,193.6)" stroke-linecap="butt">
        <path fill="none" d="M-347.5269 148.9219 Q-347.5269 138.9219 -337.5269 138.9219 L-277.5269 138.9219 Q-267.5269 138.9219 -267.5269 148.9219 L-267.5269 168.9219 Q-267.5269 178.9219 -277.5269 178.9219 L-337.5269 178.9219 Q-347.5269 178.9219 -347.5269 168.9219 Z"/>
      </g>
      <g>
        <g font-size="14px" stroke-linecap="butt" transform="matrix(0.8,0,0,0.8,710.4,193.6)" text-rendering="geometricPrecision" font-family="sans-serif" shape-rendering="geometricPrecision" stroke-miterlimit="1.45">
          <text x="-325.2935" xml:space="preserve" y="164.2129" stroke="none">ACLY</text>
        </g>
      </g>
      <g>
        <g fill="white" text-rendering="geometricPrecision" shape-rendering="geometricPrecision" transform="matrix(0.8,0,0,0.8,710.4,193.6) translate(-330.0269,171.3105)" stroke="white">
          <rect x="0" y="0" width="45" rx="7.5" ry="7.5" height="15" stroke="none"/>
        </g>
        <g text-rendering="geometricPrecision" stroke-miterlimit="1.45" shape-rendering="geometricPrecision" transform="matrix(0.8,0,0,0.8,710.4,193.6) translate(-330.0269,171.3105)" stroke-linecap="butt">
          <rect x="0" y="0" fill="none" width="45" rx="7.5" ry="7.5" height="15"/>
          <text x="3.2666" xml:space="preserve" font-size="10px" y="11.2793" font-family="sans-serif" stroke="none">P@S455</text>
        </g>
      </g>
    </g>
    <g id="y.node.5">
      <g fill="rgb(226,172,163)" text-rendering="geometricPrecision" shape-rendering="geometricPrecision" transform="matrix(0.8,0,0,0.8,710.4,193.6)" stroke="rgb(226,172,163)">
        <path d="M-541.4235 149.1569 Q-541.4235 139.1569 -531.4235 139.1569 L-471.4235 139.1569 Q-461.4235 139.1569 -461.4235 149.1569 L-461.4235 169.1569 Q-461.4235 179.1569 -471.4235 179.1569 L-531.4235 179.1569 Q-541.4235 179.1569 -541.4235 169.1569 Z" stroke="none"/>
      </g>
      <g text-rendering="geometricPrecision" stroke-miterlimit="1.45" shape-rendering="geometricPrecision" transform="matrix(0.8,0,0,0.8,710.4,193.6)" stroke-linecap="butt">
        <path fill="none" d="M-541.4235 149.1569 Q-541.4235 139.1569 -531.4235 139.1569 L-471.4235 139.1569 Q-461.4235 139.1569 -461.4235 149.1569 L-461.4235 169.1569 Q-461.4235 179.1569 -471.4235 179.1569 L-531.4235 179.1569 Q-541.4235 179.1569 -541.4235 169.1569 Z"/>
      </g>
      <g>
        <g font-size="14px" stroke-linecap="butt" transform="matrix(0.8,0,0,0.8,710.4,193.6)" text-rendering="geometricPrecision" font-family="sans-serif" shape-rendering="geometricPrecision" stroke-miterlimit="1.45">
          <text x="-519.1901" xml:space="preserve" y="164.4479" stroke="none">ACLY</text>
        </g>
      </g>
      <g>
        <g fill="white" text-rendering="geometricPrecision" shape-rendering="geometricPrecision" transform="matrix(0.8,0,0,0.8,710.4,193.6) translate(-524.9355,170.8115)" stroke="white">
          <rect x="0" y="0" width="45" rx="7.5" ry="7.5" height="15" stroke="none"/>
        </g>
        <g text-rendering="geometricPrecision" stroke-miterlimit="1.45" shape-rendering="geometricPrecision" transform="matrix(0.8,0,0,0.8,710.4,193.6) translate(-524.9355,170.8115)" stroke-linecap="butt">
          <rect x="0" y="0" fill="none" width="45" rx="7.5" ry="7.5" height="15"/>
          <text x="6.0303" xml:space="preserve" font-size="10px" y="11.2793" font-family="sans-serif" stroke="none">@S455</text>
        </g>
      </g>
    </g>
    <g id="y.node.6">
      <g fill="white" text-rendering="geometricPrecision" shape-rendering="geometricPrecision" transform="matrix(0.8,0,0,0.8,710.4,193.6)" stroke="white">
        <rect x="-413.4752" width="18" height="18" y="150.1569" stroke="none"/>
      </g>
      <g text-rendering="geometricPrecision" stroke-miterlimit="1.45" shape-rendering="geometricPrecision" transform="matrix(0.8,0,0,0.8,710.4,193.6)" stroke-linecap="butt">
        <rect fill="none" x="-413.4752" width="18" height="18" y="150.1569"/>
      </g>
      <g/>
    </g>
    <g id="y.node.7">
      <g fill="rgb(200,216,235)" text-rendering="geometricPrecision" shape-rendering="geometricPrecision" transform="matrix(0.8,0,0,0.8,710.4,193.6)" stroke="rgb(200,216,235)">
        <path d="M-444.4752 13.6402 Q-444.4752 3.6402 -434.4752 3.6402 L-374.4752 3.6402 Q-364.4752 3.6402 -364.4752 13.6402 L-364.4752 33.6402 Q-364.4752 43.6402 -374.4752 43.6402 L-434.4752 43.6402 Q-444.4752 43.6402 -444.4752 33.6402 Z" stroke="none"/>
      </g>
      <g text-rendering="geometricPrecision" stroke-miterlimit="1.45" shape-rendering="geometricPrecision" transform="matrix(0.8,0,0,0.8,710.4,193.6)" stroke-linecap="butt">
        <path fill="none" d="M-444.4752 13.6402 Q-444.4752 3.6402 -434.4752 3.6402 L-374.4752 3.6402 Q-364.4752 3.6402 -364.4752 13.6402 L-364.4752 33.6402 Q-364.4752 43.6402 -374.4752 43.6402 L-434.4752 43.6402 Q-444.4752 43.6402 -444.4752 33.6402 Z"/>
      </g>
      <g>
        <g font-size="14px" stroke-linecap="butt" transform="matrix(0.8,0,0,0.8,710.4,193.6)" text-rendering="geometricPrecision" font-family="sans-serif" shape-rendering="geometricPrecision" stroke-miterlimit="1.45">
          <text x="-416.0142" xml:space="preserve" y="28.9312" stroke="none">Akt</text>
        </g>
      </g>
      <g>
        <g fill="white" text-rendering="geometricPrecision" shape-rendering="geometricPrecision" transform="matrix(0.8,0,0,0.8,710.4,193.6) translate(-437.9752,-3.3191)" stroke="white">
          <rect x="0" y="0" width="15" rx="7.5" ry="7.5" height="15" stroke="none"/>
        </g>
        <g text-rendering="geometricPrecision" stroke-miterlimit="1.45" shape-rendering="geometricPrecision" transform="matrix(0.8,0,0,0.8,710.4,193.6) translate(-437.9752,-3.3191)" stroke-linecap="butt">
          <rect x="0" y="0" fill="none" width="15" rx="7.5" ry="7.5" height="15"/>
          <text x="4.7363" xml:space="preserve" font-size="10px" y="11.2793" font-family="sans-serif" stroke="none">P</text>
        </g>
      </g>
    </g>
    <g id="y.node.8">
      <g fill="rgb(200,216,235)" text-rendering="geometricPrecision" shape-rendering="geometricPrecision" transform="matrix(0.8,0,0,0.8,710.4,193.6)" stroke="rgb(200,216,235)">
        <path d="M-444.4752 -132.8765 Q-444.4752 -142.8765 -434.4752 -142.8765 L-374.4752 -142.8765 Q-364.4752 -142.8765 -364.4752 -132.8765 L-364.4752 -112.8765 Q-364.4752 -102.8765 -374.4752 -102.8765 L-434.4752 -102.8765 Q-444.4752 -102.8765 -444.4752 -112.8765 Z" stroke="none"/>
      </g>
      <g text-rendering="geometricPrecision" stroke-miterlimit="1.45" shape-rendering="geometricPrecision" transform="matrix(0.8,0,0,0.8,710.4,193.6)" stroke-linecap="butt">
        <path fill="none" d="M-444.4752 -132.8765 Q-444.4752 -142.8765 -434.4752 -142.8765 L-374.4752 -142.8765 Q-364.4752 -142.8765 -364.4752 -132.8765 L-364.4752 -112.8765 Q-364.4752 -102.8765 -374.4752 -102.8765 L-434.4752 -102.8765 Q-444.4752 -102.8765 -444.4752 -112.8765 Z"/>
      </g>
      <g>
        <g font-size="14px" stroke-linecap="butt" transform="matrix(0.8,0,0,0.8,710.4,193.6)" text-rendering="geometricPrecision" font-family="sans-serif" shape-rendering="geometricPrecision" stroke-miterlimit="1.45">
          <text x="-416.0142" xml:space="preserve" y="-117.5855" stroke="none">Akt</text>
        </g>
      </g>
      <g>
        <g fill="white" text-rendering="geometricPrecision" shape-rendering="geometricPrecision" transform="matrix(0.8,0,0,0.8,710.4,193.6) translate(-437.9752,-149.5765)" stroke="white">
          <rect x="0" y="0" width="15" rx="7.5" ry="7.5" height="15" stroke="none"/>
        </g>
        <g text-rendering="geometricPrecision" stroke-miterlimit="1.45" shape-rendering="geometricPrecision" transform="matrix(0.8,0,0,0.8,710.4,193.6) translate(-437.9752,-149.5765)" stroke-linecap="butt">
          <rect x="0" y="0" fill="none" width="15" rx="7.5" ry="7.5" height="15"/>
        </g>
      </g>
    </g>
    <g id="y.node.9">
      <g fill="white" text-rendering="geometricPrecision" shape-rendering="geometricPrecision" transform="matrix(0.8,0,0,0.8,710.4,193.6)" stroke="white">
        <rect x="-413.4752" width="18" height="18" y="-59.7389" stroke="none"/>
      </g>
      <g text-rendering="geometricPrecision" stroke-miterlimit="1.45" shape-rendering="geometricPrecision" transform="matrix(0.8,0,0,0.8,710.4,193.6)" stroke-linecap="butt">
        <rect fill="none" x="-413.4752" width="18" height="18" y="-59.7389"/>
      </g>
      <g/>
    </g>
    <g id="y.node.10">
      <g fill="rgb(219,235,219)" text-rendering="geometricPrecision" shape-rendering="geometricPrecision" transform="matrix(0.8,0,0,0.8,710.4,193.6)" stroke="rgb(219,235,219)">
        <rect x="-107.0376" y="69.6707" width="100" rx="16" ry="16" height="32" stroke="none"/>
      </g>
      <g text-rendering="geometricPrecision" stroke-miterlimit="1.45" shape-rendering="geometricPrecision" transform="matrix(0.8,0,0,0.8,710.4,193.6)" stroke-linecap="butt">
        <rect x="-107.0376" y="69.6707" fill="none" width="100" rx="16" ry="16" height="32"/>
      </g>
      <g>
        <g font-size="14px" stroke-linecap="butt" transform="matrix(0.8,0,0,0.8,710.4,193.6)" text-rendering="geometricPrecision" font-family="sans-serif" shape-rendering="geometricPrecision" stroke-miterlimit="1.45">
          <text x="-70.1626" xml:space="preserve" y="90.9617" stroke="none">ATP</text>
        </g>
      </g>
    </g>
    <g id="y.node.11">
      <g fill="rgb(219,235,219)" text-rendering="geometricPrecision" shape-rendering="geometricPrecision" transform="matrix(0.8,0,0,0.8,710.4,193.6)" stroke="rgb(219,235,219)">
        <rect x="-107.0376" y="216.173" width="100" rx="16" ry="16" height="32" stroke="none"/>
      </g>
      <g text-rendering="geometricPrecision" stroke-miterlimit="1.45" shape-rendering="geometricPrecision" transform="matrix(0.8,0,0,0.8,710.4,193.6)" stroke-linecap="butt">
        <rect x="-107.0376" y="216.173" fill="none" width="100" rx="16" ry="16" height="32"/>
      </g>
      <g>
        <g font-size="14px" stroke-linecap="butt" transform="matrix(0.8,0,0,0.8,710.4,193.6)" text-rendering="geometricPrecision" font-family="sans-serif" shape-rendering="geometricPrecision" stroke-miterlimit="1.45">
          <text x="-70.9795" xml:space="preserve" y="237.4641" stroke="none">ADP</text>
        </g>
      </g>
    </g>
    <g id="y.node.12">
      <g fill="rgb(219,235,219)" text-rendering="geometricPrecision" shape-rendering="geometricPrecision" transform="matrix(0.8,0,0,0.8,710.4,193.6)" stroke="rgb(219,235,219)">
        <rect x="-107.0376" y="160.4492" width="100" rx="16" ry="16" height="32" stroke="none"/>
      </g>
      <g text-rendering="geometricPrecision" stroke-miterlimit="1.45" shape-rendering="geometricPrecision" transform="matrix(0.8,0,0,0.8,710.4,193.6)" stroke-linecap="butt">
        <rect x="-107.0376" y="160.4492" fill="none" width="100" rx="16" ry="16" height="32"/>
      </g>
      <g>
        <g font-size="14px" stroke-linecap="butt" transform="matrix(0.8,0,0,0.8,710.4,193.6)" text-rendering="geometricPrecision" font-family="sans-serif" shape-rendering="geometricPrecision" stroke-miterlimit="1.45">
          <text x="-62.9302" xml:space="preserve" y="181.7402" stroke="none">Pi</text>
        </g>
      </g>
    </g>
    <g id="y.node.13">
      <g fill="white" text-rendering="geometricPrecision" shape-rendering="geometricPrecision" transform="matrix(0.8,0,0,0.8,710.4,193.6)" stroke="white">
        <path d="M-192.6843 375.841 L-95.5083 375.841 L-78.306 410.2455 L-95.5083 444.65 L-192.6843 444.65 L-209.8866 410.2455 Z" stroke="none"/>
      </g>
      <g text-rendering="geometricPrecision" stroke-miterlimit="1.45" shape-rendering="geometricPrecision" transform="matrix(0.8,0,0,0.8,710.4,193.6)" stroke-linecap="butt">
        <path fill="none" d="M-192.6843 375.841 L-95.5083 375.841 L-78.306 410.2455 L-95.5083 444.65 L-192.6843 444.65 L-209.8866 410.2455 Z"/>
      </g>
      <g>
        <g font-size="14px" stroke-linecap="butt" transform="matrix(0.8,0,0,0.8,710.4,193.6)" text-rendering="geometricPrecision" font-family="sans-serif" shape-rendering="geometricPrecision" stroke-miterlimit="1.45">
          <text x="-172.2091" xml:space="preserve" y="407.2924" stroke="none">Histone </text>
          <text x="-180.8976" xml:space="preserve" y="423.7806" stroke="none">acetylation</text>
        </g>
      </g>
    </g>
    <g id="y.node.14">
      <g fill="rgb(200,216,235)" text-rendering="geometricPrecision" shape-rendering="geometricPrecision" transform="matrix(0.8,0,0,0.8,710.4,193.6)" stroke="rgb(200,216,235)">
        <path d="M-563.7713 -60.9015 Q-563.7713 -70.9015 -553.7713 -70.9015 L-493.7713 -70.9015 Q-483.7713 -70.9015 -483.7713 -60.9015 L-483.7713 -40.9015 Q-483.7713 -30.9015 -493.7713 -30.9015 L-553.7713 -30.9015 Q-563.7713 -30.9015 -563.7713 -40.9015 Z" stroke="none"/>
      </g>
      <g text-rendering="geometricPrecision" stroke-miterlimit="1.45" shape-rendering="geometricPrecision" transform="matrix(0.8,0,0,0.8,710.4,193.6)" stroke-linecap="butt">
        <path fill="none" d="M-563.7713 -60.9015 Q-563.7713 -70.9015 -553.7713 -70.9015 L-493.7713 -70.9015 Q-483.7713 -70.9015 -483.7713 -60.9015 L-483.7713 -40.9015 Q-483.7713 -30.9015 -493.7713 -30.9015 L-553.7713 -30.9015 Q-563.7713 -30.9015 -563.7713 -40.9015 Z"/>
      </g>
      <g>
        <g font-size="14px" stroke-linecap="butt" transform="matrix(0.8,0,0,0.8,710.4,193.6)" text-rendering="geometricPrecision" font-family="sans-serif" shape-rendering="geometricPrecision" stroke-miterlimit="1.45">
          <text x="-538.6531" xml:space="preserve" y="-45.6105" stroke="none">PI3K</text>
        </g>
      </g>
      <g>
        <g fill="white" text-rendering="geometricPrecision" shape-rendering="geometricPrecision" transform="matrix(0.8,0,0,0.8,710.4,193.6) translate(-546.2713,-78.5128)" stroke="white">
          <rect x="0" y="0" width="45" rx="7.5" ry="7.5" height="15" stroke="none"/>
        </g>
        <g text-rendering="geometricPrecision" stroke-miterlimit="1.45" shape-rendering="geometricPrecision" transform="matrix(0.8,0,0,0.8,710.4,193.6) translate(-546.2713,-78.5128)" stroke-linecap="butt">
          <rect x="0" y="0" fill="none" width="45" rx="7.5" ry="7.5" height="15"/>
          <text x="8.4888" xml:space="preserve" font-size="10px" y="11.2793" font-family="sans-serif" stroke="none">active</text>
        </g>
      </g>
    </g>
    <g id="y.node.15">
      <g fill="white" text-rendering="geometricPrecision" shape-rendering="geometricPrecision" transform="matrix(0.8,0,0,0.8,710.4,193.6)" stroke="white">
        <circle r="18" cx="-501.4235" cy="312.7836" stroke="none"/>
      </g>
      <g text-rendering="geometricPrecision" stroke-miterlimit="1.45" shape-rendering="geometricPrecision" transform="matrix(0.8,0,0,0.8,710.4,193.6)" stroke-linecap="butt">
        <circle fill="none" r="18" cx="-501.4235" cy="312.7836"/>
        <line y2="294.7836" fill="none" x1="-519.4235" x2="-483.4235" y1="330.7836"/>
      </g>
      <g/>
    </g>
    <g id="y.node.16">
      <g fill="white" text-rendering="geometricPrecision" shape-rendering="geometricPrecision" transform="matrix(0.8,0,0,0.8,710.4,193.6)" stroke="white">
        <rect x="-510.4235" width="18" height="18" y="233.2142" stroke="none"/>
      </g>
      <g text-rendering="geometricPrecision" stroke-miterlimit="1.45" shape-rendering="geometricPrecision" transform="matrix(0.8,0,0,0.8,710.4,193.6)" stroke-linecap="butt">
        <rect fill="none" x="-510.4235" width="18" height="18" y="233.2142"/>
      </g>
      <g/>
    </g>
    <g id="y.node.17">
      <g fill="white" text-rendering="geometricPrecision" shape-rendering="geometricPrecision" transform="matrix(0.8,0,0,0.8,710.4,193.6)" stroke="white">
        <path d="M-758.1054 222.2142 L-678.1054 222.2142 L-678.1054 252.2142 Q-678.1054 262.2142 -688.1054 262.2142 L-748.1054 262.2142 Q-758.1054 262.2142 -758.1054 252.2142 Z" stroke="none"/>
      </g>
      <g text-rendering="geometricPrecision" stroke-miterlimit="1.45" shape-rendering="geometricPrecision" transform="matrix(0.8,0,0,0.8,710.4,193.6)" stroke-linecap="butt">
        <path fill="none" d="M-758.1054 222.2142 L-678.1054 222.2142 L-678.1054 252.2142 Q-678.1054 262.2142 -688.1054 262.2142 L-748.1054 262.2142 Q-758.1054 262.2142 -758.1054 252.2142 Z"/>
      </g>
      <g>
        <g font-size="14px" stroke-linecap="butt" transform="matrix(0.8,0,0,0.8,710.4,193.6)" text-rendering="geometricPrecision" font-family="sans-serif" shape-rendering="geometricPrecision" stroke-miterlimit="1.45">
          <text x="-735.872" xml:space="preserve" y="247.5053" stroke="none">ACLY</text>
        </g>
      </g>
      <g>
        <g fill="white" text-rendering="geometricPrecision" shape-rendering="geometricPrecision" transform="matrix(0.8,0,0,0.8,710.4,193.6) translate(-740.6191,214.6029)" stroke="white">
          <rect x="0" width="45" height="15" y="0" stroke="none"/>
        </g>
        <g text-rendering="geometricPrecision" stroke-miterlimit="1.45" shape-rendering="geometricPrecision" transform="matrix(0.8,0,0,0.8,710.4,193.6) translate(-740.6191,214.6029)" stroke-linecap="butt">
          <rect fill="none" x="0" width="45" height="15" y="0"/>
          <text x="1.5137" xml:space="preserve" font-size="10px" y="11.2793" font-family="sans-serif" stroke="none">ct:mRNA</text>
        </g>
      </g>
    </g>
    <g id="y.node.18">
      <g fill="white" text-rendering="geometricPrecision" shape-rendering="geometricPrecision" transform="matrix(0.8,0,0,0.8,710.4,193.6)" stroke="white">
        <circle r="18" cx="-718.1054" cy="393.841" stroke="none"/>
      </g>
      <g text-rendering="geometricPrecision" stroke-miterlimit="1.45" shape-rendering="geometricPrecision" transform="matrix(0.8,0,0,0.8,710.4,193.6)" stroke-linecap="butt">
        <circle fill="none" r="18" cx="-718.1054" cy="393.841"/>
        <line y2="375.841" fill="none" x1="-736.1054" x2="-700.1054" y1="411.841"/>
      </g>
      <g/>
    </g>
    <g id="y.node.19">
      <g fill="white" text-rendering="geometricPrecision" shape-rendering="geometricPrecision" transform="matrix(0.8,0,0,0.8,710.4,193.6)" stroke="white">
        <rect x="-727.1054" width="18" height="18" y="316.2716" stroke="none"/>
      </g>
      <g text-rendering="geometricPrecision" stroke-miterlimit="1.45" shape-rendering="geometricPrecision" transform="matrix(0.8,0,0,0.8,710.4,193.6)" stroke-linecap="butt">
        <rect fill="none" x="-727.1054" width="18" height="18" y="316.2716"/>
      </g>
      <g/>
    </g>
    <g id="y.node.20">
      <g fill="white" text-rendering="geometricPrecision" shape-rendering="geometricPrecision" transform="matrix(0.8,0,0,0.8,710.4,193.6)" stroke="white">
        <path d="M-648.1054 305.2716 L-568.1054 305.2716 L-568.1054 335.2716 Q-568.1054 345.2716 -578.1054 345.2716 L-638.1054 345.2716 Q-648.1054 345.2716 -648.1054 335.2716 Z" stroke="none"/>
      </g>
      <g text-rendering="geometricPrecision" stroke-miterlimit="1.45" shape-rendering="geometricPrecision" transform="matrix(0.8,0,0,0.8,710.4,193.6)" stroke-linecap="butt">
        <path fill="none" d="M-648.1054 305.2716 L-568.1054 305.2716 L-568.1054 335.2716 Q-568.1054 345.2716 -578.1054 345.2716 L-638.1054 345.2716 Q-648.1054 345.2716 -648.1054 335.2716 Z"/>
      </g>
      <g>
        <g font-size="14px" stroke-linecap="butt" transform="matrix(0.8,0,0,0.8,710.4,193.6)" text-rendering="geometricPrecision" font-family="sans-serif" shape-rendering="geometricPrecision" stroke-miterlimit="1.45">
          <text x="-625.872" xml:space="preserve" y="330.5626" stroke="none">ACLY</text>
        </g>
      </g>
      <g>
        <g fill="white" text-rendering="geometricPrecision" shape-rendering="geometricPrecision" transform="matrix(0.8,0,0,0.8,710.4,193.6) translate(-633.3388,297.6603)" stroke="white">
          <rect x="0" width="45" height="15" y="0" stroke="none"/>
        </g>
        <g text-rendering="geometricPrecision" stroke-miterlimit="1.45" shape-rendering="geometricPrecision" transform="matrix(0.8,0,0,0.8,710.4,193.6) translate(-633.3388,297.6603)" stroke-linecap="butt">
          <rect fill="none" x="0" width="45" height="15" y="0"/>
          <text x="4.6948" xml:space="preserve" font-size="10px" y="11.2793" font-family="sans-serif" stroke="none">ct:gene</text>
        </g>
      </g>
    </g>
    <g id="y.node.21">
      <g fill="rgb(200,216,235)" text-rendering="geometricPrecision" shape-rendering="geometricPrecision" transform="matrix(0.8,0,0,0.8,710.4,193.6)" stroke="rgb(200,216,235)">
        <path d="M-868.1054 314.2397 Q-868.1054 304.2397 -858.1054 304.2397 L-798.1054 304.2397 Q-788.1054 304.2397 -788.1054 314.2397 L-788.1054 334.2397 Q-788.1054 344.2397 -798.1054 344.2397 L-858.1054 344.2397 Q-868.1054 344.2397 -868.1054 334.2397 Z" stroke="none"/>
      </g>
      <g text-rendering="geometricPrecision" stroke-miterlimit="1.45" shape-rendering="geometricPrecision" transform="matrix(0.8,0,0,0.8,710.4,193.6)" stroke-linecap="butt">
        <path fill="none" d="M-868.1054 314.2397 Q-868.1054 304.2397 -858.1054 304.2397 L-798.1054 304.2397 Q-788.1054 304.2397 -788.1054 314.2397 L-788.1054 334.2397 Q-788.1054 344.2397 -798.1054 344.2397 L-858.1054 344.2397 Q-868.1054 344.2397 -868.1054 334.2397 Z"/>
      </g>
      <g>
        <g font-size="14px" stroke-linecap="butt" transform="matrix(0.8,0,0,0.8,710.4,193.6)" text-rendering="geometricPrecision" font-family="sans-serif" shape-rendering="geometricPrecision" stroke-miterlimit="1.45">
          <text x="-856.4677" xml:space="preserve" y="329.5308" stroke="none">SREBP-1</text>
        </g>
      </g>
      <g>
        <g fill="white" text-rendering="geometricPrecision" shape-rendering="geometricPrecision" transform="matrix(0.8,0,0,0.8,710.4,193.6) translate(-853.3154,336.6053)" stroke="white">
          <rect x="0" y="0" width="45" rx="7.5" ry="7.5" height="15" stroke="none"/>
        </g>
        <g text-rendering="geometricPrecision" stroke-miterlimit="1.45" shape-rendering="geometricPrecision" transform="matrix(0.8,0,0,0.8,710.4,193.6) translate(-853.3154,336.6053)" stroke-linecap="butt">
          <rect x="0" y="0" fill="none" width="45" rx="7.5" ry="7.5" height="15"/>
          <text x="8.4888" xml:space="preserve" font-size="10px" y="11.2793" font-family="sans-serif" stroke="none">active</text>
        </g>
      </g>
    </g>
    <g id="y.node.22">
      <g fill="rgb(200,216,235)" text-rendering="geometricPrecision" shape-rendering="geometricPrecision" transform="matrix(0.8,0,0,0.8,710.4,193.6)" stroke="rgb(200,216,235)">
        <path d="M-691.6991 -140.4051 Q-691.6991 -150.4051 -681.6991 -150.4051 L-621.6991 -150.4051 Q-611.6991 -150.4051 -611.6991 -140.4051 L-611.6991 -120.4051 Q-611.6991 -110.4051 -621.6991 -110.4051 L-681.6991 -110.4051 Q-691.6991 -110.4051 -691.6991 -120.4051 Z" stroke="none"/>
      </g>
      <g text-rendering="geometricPrecision" stroke-miterlimit="1.45" shape-rendering="geometricPrecision" transform="matrix(0.8,0,0,0.8,710.4,193.6)" stroke-linecap="butt">
        <path fill="none" d="M-691.6991 -140.4051 Q-691.6991 -150.4051 -681.6991 -150.4051 L-621.6991 -150.4051 Q-611.6991 -150.4051 -611.6991 -140.4051 L-611.6991 -120.4051 Q-611.6991 -110.4051 -621.6991 -110.4051 L-681.6991 -110.4051 Q-691.6991 -110.4051 -691.6991 -120.4051 Z"/>
      </g>
      <g>
        <g font-size="14px" stroke-linecap="butt" transform="matrix(0.8,0,0,0.8,710.4,193.6)" text-rendering="geometricPrecision" font-family="sans-serif" shape-rendering="geometricPrecision" stroke-miterlimit="1.45">
          <text x="-665.1215" xml:space="preserve" y="-125.1141" stroke="none">RTK</text>
        </g>
      </g>
      <g>
        <g fill="white" text-rendering="geometricPrecision" shape-rendering="geometricPrecision" transform="matrix(0.8,0,0,0.8,710.4,193.6) translate(-674.1991,-158.0164)" stroke="white">
          <rect x="0" y="0" width="45" rx="7.5" ry="7.5" height="15" stroke="none"/>
        </g>
        <g text-rendering="geometricPrecision" stroke-miterlimit="1.45" shape-rendering="geometricPrecision" transform="matrix(0.8,0,0,0.8,710.4,193.6) translate(-674.1991,-158.0164)" stroke-linecap="butt">
          <rect x="0" y="0" fill="none" width="45" rx="7.5" ry="7.5" height="15"/>
          <text x="8.4888" xml:space="preserve" font-size="10px" y="11.2793" font-family="sans-serif" stroke="none">active</text>
        </g>
      </g>
    </g>
    <g id="y.node.23">
      <g fill="rgb(200,216,235)" text-rendering="geometricPrecision" shape-rendering="geometricPrecision" transform="matrix(0.8,0,0,0.8,710.4,193.6)" stroke="rgb(200,216,235)">
        <path d="M-563.7713 -204.8516 Q-563.7713 -214.8516 -553.7713 -214.8516 L-493.7713 -214.8516 Q-483.7713 -214.8516 -483.7713 -204.8516 L-483.7713 -184.8516 Q-483.7713 -174.8516 -493.7713 -174.8516 L-553.7713 -174.8516 Q-563.7713 -174.8516 -563.7713 -184.8516 Z" stroke="none"/>
      </g>
      <g text-rendering="geometricPrecision" stroke-miterlimit="1.45" shape-rendering="geometricPrecision" transform="matrix(0.8,0,0,0.8,710.4,193.6)" stroke-linecap="butt">
        <path fill="none" d="M-563.7713 -204.8516 Q-563.7713 -214.8516 -553.7713 -214.8516 L-493.7713 -214.8516 Q-483.7713 -214.8516 -483.7713 -204.8516 L-483.7713 -184.8516 Q-483.7713 -174.8516 -493.7713 -174.8516 L-553.7713 -174.8516 Q-563.7713 -174.8516 -563.7713 -184.8516 Z"/>
      </g>
      <g>
        <g font-size="14px" stroke-linecap="butt" transform="matrix(0.8,0,0,0.8,710.4,193.6)" text-rendering="geometricPrecision" font-family="sans-serif" shape-rendering="geometricPrecision" stroke-miterlimit="1.45">
          <text x="-538.6531" xml:space="preserve" y="-189.5606" stroke="none">PI3K</text>
        </g>
      </g>
      <g>
        <g fill="white" text-rendering="geometricPrecision" shape-rendering="geometricPrecision" transform="matrix(0.8,0,0,0.8,710.4,193.6) translate(-546.2713,-222.4629)" stroke="white">
          <rect x="0" y="0" width="45" rx="7.5" ry="7.5" height="15" stroke="none"/>
        </g>
        <g text-rendering="geometricPrecision" stroke-miterlimit="1.45" shape-rendering="geometricPrecision" transform="matrix(0.8,0,0,0.8,710.4,193.6) translate(-546.2713,-222.4629)" stroke-linecap="butt">
          <rect x="0" y="0" fill="none" width="45" rx="7.5" ry="7.5" height="15"/>
          <text x="3.9404" xml:space="preserve" font-size="10px" y="11.2793" font-family="sans-serif" stroke="none">inactive</text>
        </g>
      </g>
    </g>
    <g id="y.node.24">
      <g fill="white" text-rendering="geometricPrecision" shape-rendering="geometricPrecision" transform="matrix(0.8,0,0,0.8,710.4,193.6)" stroke="white">
        <rect x="-532.7713" width="18" height="18" y="-139.4051" stroke="none"/>
      </g>
      <g text-rendering="geometricPrecision" stroke-miterlimit="1.45" shape-rendering="geometricPrecision" transform="matrix(0.8,0,0,0.8,710.4,193.6)" stroke-linecap="butt">
        <rect fill="none" x="-532.7713" width="18" height="18" y="-139.4051"/>
      </g>
      <g/>
    </g>
    <g id="y.node.25">
      <g fill="white" text-rendering="geometricPrecision" shape-rendering="geometricPrecision" transform="matrix(0.8,0,0,0.8,710.4,193.6)" stroke="white">
        <rect x="-837.1504" width="18" height="18" y="14.6402" stroke="none"/>
      </g>
      <g text-rendering="geometricPrecision" stroke-miterlimit="1.45" shape-rendering="geometricPrecision" transform="matrix(0.8,0,0,0.8,710.4,193.6)" stroke-linecap="butt">
        <rect fill="none" x="-837.1504" width="18" height="18" y="14.6402"/>
      </g>
      <g/>
    </g>
    <g id="y.node.26">
      <g fill="rgb(200,216,235)" text-rendering="geometricPrecision" shape-rendering="geometricPrecision" transform="matrix(0.8,0,0,0.8,710.4,193.6)" stroke="rgb(200,216,235)">
        <path d="M-867.8975 -60.7765 Q-867.8975 -70.7765 -857.8975 -70.7765 L-797.8975 -70.7765 Q-787.8975 -70.7765 -787.8975 -60.7765 L-787.8975 -40.7765 Q-787.8975 -30.7765 -797.8975 -30.7765 L-857.8975 -30.7765 Q-867.8975 -30.7765 -867.8975 -40.7765 Z" stroke="none"/>
      </g>
      <g text-rendering="geometricPrecision" stroke-miterlimit="1.45" shape-rendering="geometricPrecision" transform="matrix(0.8,0,0,0.8,710.4,193.6)" stroke-linecap="butt">
        <path fill="none" d="M-867.8975 -60.7765 Q-867.8975 -70.7765 -857.8975 -70.7765 L-797.8975 -70.7765 Q-787.8975 -70.7765 -787.8975 -60.7765 L-787.8975 -40.7765 Q-787.8975 -30.7765 -797.8975 -30.7765 L-857.8975 -30.7765 Q-867.8975 -30.7765 -867.8975 -40.7765 Z"/>
      </g>
      <g>
        <g font-size="14px" stroke-linecap="butt" transform="matrix(0.8,0,0,0.8,710.4,193.6)" text-rendering="geometricPrecision" font-family="sans-serif" shape-rendering="geometricPrecision" stroke-miterlimit="1.45">
          <text x="-856.2598" xml:space="preserve" y="-45.4855" stroke="none">SREBP-1</text>
        </g>
      </g>
      <g>
        <g fill="white" text-rendering="geometricPrecision" shape-rendering="geometricPrecision" transform="matrix(0.8,0,0,0.8,710.4,193.6) translate(-850.3975,-38.3878)" stroke="white">
          <rect x="0" y="0" width="45" rx="7.5" ry="7.5" height="15" stroke="none"/>
        </g>
        <g text-rendering="geometricPrecision" stroke-miterlimit="1.45" shape-rendering="geometricPrecision" transform="matrix(0.8,0,0,0.8,710.4,193.6) translate(-850.3975,-38.3878)" stroke-linecap="butt">
          <rect x="0" y="0" fill="none" width="45" rx="7.5" ry="7.5" height="15"/>
          <text x="3.9404" xml:space="preserve" font-size="10px" y="11.2793" font-family="sans-serif" stroke="none">inactive</text>
        </g>
      </g>
    </g>
    <g id="y.node.27">
      <g fill="rgb(219,235,219)" text-rendering="geometricPrecision" shape-rendering="geometricPrecision" transform="matrix(0.8,0,0,0.8,710.4,193.6)" stroke="rgb(219,235,219)">
        <rect x="-279.9789" y="69.6707" width="100" rx="16" ry="16" height="32" stroke="none"/>
      </g>
      <g text-rendering="geometricPrecision" stroke-miterlimit="1.45" shape-rendering="geometricPrecision" transform="matrix(0.8,0,0,0.8,710.4,193.6)" stroke-linecap="butt">
        <rect x="-279.9789" y="69.6707" fill="none" width="100" rx="16" ry="16" height="32"/>
      </g>
      <g>
        <g font-size="14px" stroke-linecap="butt" transform="matrix(0.8,0,0,0.8,710.4,193.6)" text-rendering="geometricPrecision" font-family="sans-serif" shape-rendering="geometricPrecision" stroke-miterlimit="1.45">
          <text x="-243.9516" xml:space="preserve" y="90.9617" stroke="none">CoA</text>
        </g>
      </g>
    </g>
    <g id="y.edge.0">
      <g text-rendering="geometricPrecision" stroke-miterlimit="1.45" shape-rendering="geometricPrecision" transform="matrix(0.8,0,0,0.8,710.4,193.6)" stroke-linecap="butt">
        <path fill="none" d="M-144.0963 60.3925 L-144.0963 149.9253"/>
      </g>
    </g>
    <g id="y.edge.3">
      <g text-rendering="geometricPrecision" stroke-miterlimit="1.45" shape-rendering="geometricPrecision" transform="matrix(0.8,0,0,0.8,710.4,193.6)" stroke-linecap="butt">
        <path fill="none" d="M-144.0963 167.9177 L-144.0963 178.1933 L-179.0898 211.346"/>
      </g>
      <g text-rendering="geometricPrecision" stroke-miterlimit="1.45" shape-rendering="geometricPrecision" transform="matrix(0.8,0,0,0.8,710.4,193.6)" stroke-linecap="butt">
        <path d="M-187.0751 218.9113 L-174.2373 215.0139 L-182.4903 206.3026 Z" stroke="none"/>
      </g>
      <g/>
    </g>
    <g id="y.edge.4">
      <g text-rendering="geometricPrecision" stroke-miterlimit="1.45" shape-rendering="geometricPrecision" transform="matrix(0.8,0,0,0.8,710.4,193.6)" stroke-linecap="butt">
        <path fill="none" d="M-144.0963 167.927 L-144.0963 247.5398"/>
        <path d="M-144.0963 258.5398 L-138.0963 246.5398 L-150.0963 246.5398 Z" stroke="none"/>
      </g>
    </g>
    <g id="y.edge.5">
      <g text-rendering="geometricPrecision" stroke-miterlimit="1.45" shape-rendering="geometricPrecision" transform="matrix(0.8,0,0,0.8,710.4,193.6)" stroke-linecap="butt">
        <path fill="none" d="M-267.5186 158.9219 L-166.4151 158.9219"/>
        <path fill="white" d="M-158.4151 158.9219 C-158.4151 161.131 -160.206 162.9219 -162.4151 162.9219 C-164.6243 162.9219 -166.4151 161.131 -166.4151 158.9219 C-166.4151 156.7127 -164.6243 154.9219 -162.4151 154.9219 C-160.206 154.9219 -158.4151 156.7127 -158.4151 158.9219 Z" stroke="none"/>
        <path fill="none" d="M-158.4151 158.9219 C-158.4151 161.131 -160.206 162.9219 -162.4151 162.9219 C-164.6243 162.9219 -166.4151 161.131 -166.4151 158.9219 C-166.4151 156.7127 -164.6243 154.9219 -162.4151 154.9219 C-160.206 154.9219 -158.4151 156.7127 -158.4151 158.9219 Z"/>
      </g>
    </g>
    <g id="y.edge.7">
      <g text-rendering="geometricPrecision" stroke-miterlimit="1.45" shape-rendering="geometricPrecision" transform="matrix(0.8,0,0,0.8,710.4,193.6)" stroke-linecap="butt">
        <path fill="none" d="M-461.4228 159.1569 L-413.4567 159.1569"/>
      </g>
    </g>
    <g id="y.edge.6">
      <g text-rendering="geometricPrecision" stroke-miterlimit="1.45" shape-rendering="geometricPrecision" transform="matrix(0.8,0,0,0.8,710.4,193.6)" stroke-linecap="butt">
        <path fill="none" d="M-395.4336 159.135 L-358.4884 159.0454"/>
        <path d="M-347.4884 159.0187 L-359.5029 153.0479 L-359.4738 165.0478 Z" stroke="none"/>
      </g>
    </g>
    <g id="y.edge.25">
      <a target="_blank" xlink:type="simple" xlink:href="doi: 10.1074/jbc.M204681200" xlink:show="new">
        <g text-rendering="geometricPrecision" stroke-miterlimit="1.45" shape-rendering="geometricPrecision" transform="matrix(0.8,0,0,0.8,710.4,193.6)" stroke-linecap="butt">
          <path fill="none" d="M-404.4752 43.6332 L-404.4752 139.1569"/>
          <path fill="white" d="M-404.4752 147.1569 C-406.6843 147.1569 -408.4752 145.366 -408.4752 143.1569 C-408.4752 140.9477 -406.6843 139.1569 -404.4752 139.1569 C-402.266 139.1569 -400.4752 140.9477 -400.4752 143.1569 C-400.4752 145.366 -402.266 147.1569 -404.4752 147.1569 Z" stroke="none"/>
          <path fill="none" d="M-404.4752 147.1569 C-406.6843 147.1569 -408.4752 145.366 -408.4752 143.1569 C-408.4752 140.9477 -406.6843 139.1569 -404.4752 139.1569 C-402.266 139.1569 -400.4752 140.9477 -400.4752 143.1569 C-400.4752 145.366 -402.266 147.1569 -404.4752 147.1569 Z"/>
        </g>
      </a>
    </g>
    <g id="y.edge.8">
      <g text-rendering="geometricPrecision" stroke-miterlimit="1.45" shape-rendering="geometricPrecision" transform="matrix(0.8,0,0,0.8,710.4,193.6)" stroke-linecap="butt">
        <path fill="none" d="M-404.4752 -102.9048 L-404.4752 -59.7304"/>
      </g>
    </g>
    <g id="y.edge.9">
      <g text-rendering="geometricPrecision" stroke-miterlimit="1.45" shape-rendering="geometricPrecision" transform="matrix(0.8,0,0,0.8,710.4,193.6)" stroke-linecap="butt">
        <path fill="none" d="M-404.4752 -41.7684 L-404.4752 -7.3848"/>
        <path d="M-404.4752 3.6152 L-398.4752 -8.3848 L-410.4752 -8.3848 Z" stroke="none"/>
      </g>
    </g>
    <g id="y.edge.26">
      <g text-rendering="geometricPrecision" stroke-miterlimit="1.45" shape-rendering="geometricPrecision" transform="matrix(0.8,0,0,0.8,710.4,193.6)" stroke-linecap="butt">
        <path fill="none" d="M-102.5664 96.7163 L-144.3116 137.7425 L-144.1875 149.9455"/>
      </g>
      <g/>
    </g>
    <g id="y.edge.1">
      <g text-rendering="geometricPrecision" stroke-miterlimit="1.45" shape-rendering="geometricPrecision" transform="matrix(0.8,0,0,0.8,710.4,193.6)" stroke-linecap="butt">
        <path fill="none" d="M-144.0963 167.9177 L-144.0963 178.1933 L-110.6609 213.7142"/>
        <path d="M-103.1214 221.7239 L-106.9773 208.8736 L-115.7152 217.0984 Z" stroke="none"/>
      </g>
      <g/>
    </g>
    <g id="y.edge.2">
      <g text-rendering="geometricPrecision" stroke-miterlimit="1.45" shape-rendering="geometricPrecision" transform="matrix(0.8,0,0,0.8,710.4,193.6)" stroke-linecap="butt">
        <path fill="none" d="M-144.0963 167.9177 L-144.0963 178.1933 L-117.9441 178.1933"/>
        <path d="M-106.9441 178.1933 L-118.9441 172.1933 L-118.9441 184.1933 Z" stroke="none"/>
      </g>
      <g/>
    </g>
    <g id="y.edge.10">
      <a target="_blank" xlink:type="simple" xlink:href="doi: 10.1016/j.cmet.2014.06.004" xlink:show="new">
        <g text-rendering="geometricPrecision" stroke-miterlimit="1.45" shape-rendering="geometricPrecision" transform="matrix(0.8,0,0,0.8,710.4,193.6)" stroke-linecap="butt">
          <path fill="none" d="M-144.0963 290.55 L-144.0963 360.8506"/>
          <path fill="white" d="M-144.0963 375.8506 L-138.0963 359.8506 L-150.0963 359.8506 Z" stroke="none"/>
          <path fill="none" d="M-144.0963 375.8506 L-138.0963 359.8506 L-150.0963 359.8506 Z"/>
        </g>
      </a>
    </g>
    <g id="y.edge.11">
      <g text-rendering="geometricPrecision" stroke-miterlimit="1.45" shape-rendering="geometricPrecision" transform="matrix(0.8,0,0,0.8,710.4,193.6)" stroke-linecap="butt">
        <path fill="none" d="M-483.7827 -50.847 L-428.4979 -50.7716"/>
        <path fill="white" d="M-413.4979 -50.7512 L-429.4897 -56.773 L-429.5061 -44.773 Z" stroke="none"/>
        <path fill="none" d="M-413.4979 -50.7512 L-429.4897 -56.773 L-429.5061 -44.773 Z"/>
      </g>
    </g>
    <g id="y.edge.12">
      <g text-rendering="geometricPrecision" stroke-miterlimit="1.45" shape-rendering="geometricPrecision" transform="matrix(0.8,0,0,0.8,710.4,193.6)" stroke-linecap="butt">
        <path fill="none" d="M-501.4235 294.7622 L-501.4235 251.2203"/>
      </g>
    </g>
    <g id="y.edge.13">
      <g text-rendering="geometricPrecision" stroke-miterlimit="1.45" shape-rendering="geometricPrecision" transform="matrix(0.8,0,0,0.8,710.4,193.6)" stroke-linecap="butt">
        <path fill="none" d="M-501.4235 233.2257 L-501.4235 197.2614"/>
        <path d="M-501.4235 186.2614 L-507.4235 198.2614 L-495.4235 198.2614 Z" stroke="none"/>
      </g>
    </g>
    <g id="y.edge.14">
      <g text-rendering="geometricPrecision" stroke-miterlimit="1.45" shape-rendering="geometricPrecision" transform="matrix(0.8,0,0,0.8,710.4,193.6)" stroke-linecap="butt">
        <path fill="none" d="M-678.0859 242.2142 L-510.4377 242.2142"/>
        <path fill="white" d="M0 0 L-16 -6 L-16 6 Z" transform="matrix(1,0,0,1,-510.4377,242.2142)" stroke="none"/>
        <path fill="none" d="M0 0 L-16 -6 L-16 6 Z" transform="matrix(1,0,0,1,-510.4377,242.2142)"/>
        <line y2="8" fill="none" x1="-21" x2="-21" transform="matrix(1,0,0,1,-510.4377,242.2142)" y1="-8"/>
      </g>
    </g>
    <g id="y.edge.15">
      <g text-rendering="geometricPrecision" stroke-miterlimit="1.45" shape-rendering="geometricPrecision" transform="matrix(0.8,0,0,0.8,710.4,193.6)" stroke-linecap="butt">
        <path fill="none" d="M-718.1054 375.8616 L-718.1054 334.3126"/>
      </g>
    </g>
    <g id="y.edge.16">
      <g text-rendering="geometricPrecision" stroke-miterlimit="1.45" shape-rendering="geometricPrecision" transform="matrix(0.8,0,0,0.8,710.4,193.6)" stroke-linecap="butt">
        <path fill="none" d="M-718.1054 316.3089 L-718.1054 273.2213"/>
      </g>
      <g text-rendering="geometricPrecision" stroke-miterlimit="1.45" shape-rendering="geometricPrecision" transform="matrix(0.8,0,0,0.8,710.4,193.6)" stroke-linecap="butt">
        <path d="M-718.1054 262.2213 L-724.1054 274.2213 L-712.1054 274.2213 Z" stroke="none"/>
      </g>
    </g>
    <g id="y.edge.17">
      <g text-rendering="geometricPrecision" stroke-miterlimit="1.45" shape-rendering="geometricPrecision" transform="matrix(0.8,0,0,0.8,710.4,193.6)" stroke-linecap="butt">
        <path fill="none" d="M-648.0932 325.2716 L-709.1146 325.2716"/>
        <path fill="white" d="M0 0 L-16 -6 L-16 6 Z" transform="matrix(-1,0,0,-1,-709.1146,325.2716)" stroke="none"/>
        <path fill="none" d="M0 0 L-16 -6 L-16 6 Z" transform="matrix(-1,0,0,-1,-709.1146,325.2716)"/>
        <line y2="8" fill="none" x1="-21" x2="-21" transform="matrix(-1,0,0,-1,-709.1146,325.2716)" y1="-8"/>
      </g>
    </g>
    <g id="y.edge.18">
      <a target="_blank" xlink:type="simple" xlink:href="doi: 10.1074/jbc.275.17.12497 " xlink:show="new">
        <g text-rendering="geometricPrecision" stroke-miterlimit="1.45" shape-rendering="geometricPrecision" transform="matrix(0.8,0,0,0.8,710.4,193.6)" stroke-linecap="butt">
          <path fill="none" d="M-788.1176 324.6149 L-742.0956 325.0466"/>
        </g>
        <g stroke-linecap="butt" transform="matrix(0.8,0,0,0.8,710.4,193.6)" fill="white" text-rendering="geometricPrecision" shape-rendering="geometricPrecision" stroke="white" stroke-miterlimit="1.45">
          <path d="M-727.0963 325.1873 L-743.0392 319.0374 L-743.1519 331.0369 Z" stroke="none"/>
          <path fill="none" d="M-727.0963 325.1873 L-743.0392 319.0374 L-743.1519 331.0369 Z" stroke="black"/>
        </g>
      </a>
    </g>
    <g id="y.edge.19">
      <g text-rendering="geometricPrecision" stroke-miterlimit="1.45" shape-rendering="geometricPrecision" transform="matrix(0.8,0,0,0.8,710.4,193.6)" stroke-linecap="butt">
        <path fill="none" d="M-523.7713 -174.8694 L-523.7713 -139.3935"/>
      </g>
    </g>
    <g id="y.edge.21">
      <g text-rendering="geometricPrecision" stroke-miterlimit="1.45" shape-rendering="geometricPrecision" transform="matrix(0.8,0,0,0.8,710.4,193.6)" stroke-linecap="butt">
        <path fill="none" d="M-611.6904 -130.4051 L-547.7435 -130.4051"/>
        <path fill="white" d="M-532.7435 -130.4051 L-548.7435 -136.4051 L-548.7435 -124.4051 Z" stroke="none"/>
        <path fill="none" d="M-532.7435 -130.4051 L-548.7435 -136.4051 L-548.7435 -124.4051 Z"/>
      </g>
    </g>
    <g id="y.edge.20">
      <g text-rendering="geometricPrecision" stroke-miterlimit="1.45" shape-rendering="geometricPrecision" transform="matrix(0.8,0,0,0.8,710.4,193.6)" stroke-linecap="butt">
        <path fill="none" d="M-523.7713 -121.3859 L-523.7713 -90.3793"/>
        <path d="M-523.7713 -79.3793 L-517.7713 -91.3793 L-529.7713 -91.3793 Z" stroke="none"/>
      </g>
    </g>
    <g id="y.edge.24">
      <a target="_blank" xlink:type="simple" xlink:href="doi: 10.1016/j.tem.2010.01.001" xlink:show="new">
        <g text-rendering="geometricPrecision" stroke-miterlimit="1.45" shape-rendering="geometricPrecision" transform="matrix(0.8,0,0,0.8,710.4,193.6)" stroke-linecap="butt">
          <path fill="none" d="M-444.4792 23.6402 L-804.1113 23.6402"/>
          <path fill="white" d="M-819.1113 23.6402 L-803.1113 29.6402 L-803.1113 17.6402 Z" stroke="none"/>
          <path fill="none" d="M-819.1113 23.6402 L-803.1113 29.6402 L-803.1113 17.6402 Z"/>
        </g>
      </a>
    </g>
    <g id="y.edge.23">
      <g text-rendering="geometricPrecision" stroke-miterlimit="1.45" shape-rendering="geometricPrecision" transform="matrix(0.8,0,0,0.8,710.4,193.6)" stroke-linecap="butt">
        <path fill="none" d="M-828.149 32.6303 L-828.11 293.2699"/>
        <path d="M-828.1084 304.2699 L-822.1102 292.269 L-834.1102 292.2708 Z" stroke="none"/>
      </g>
    </g>
    <g id="y.edge.22">
      <g text-rendering="geometricPrecision" stroke-miterlimit="1.45" shape-rendering="geometricPrecision" transform="matrix(0.8,0,0,0.8,710.4,193.6)" stroke-linecap="butt">
        <path fill="none" d="M-828.1504 -23.4915 L-828.1504 14.6649"/>
      </g>
    </g>
    <g id="y.edge.27">
      <g text-rendering="geometricPrecision" stroke-miterlimit="1.45" shape-rendering="geometricPrecision" transform="matrix(0.8,0,0,0.8,710.4,193.6)" stroke-linecap="butt">
        <path fill="none" d="M-184.7422 97.0204 L-144.3116 137.7425 L-144.1875 149.9455"/>
      </g>
      <g/>
    </g>
  </g>
</svg>
