<?xml version="1.0" encoding="UTF-8"?><svg xmlns="http://www.w3.org/2000/svg" xmlns:xlink="http://www.w3.org/1999/xlink" fill-opacity="1" color-rendering="auto" color-interpolation="auto" text-rendering="auto" stroke="black" stroke-linecap="square" width="455" stroke-miterlimit="10" shape-rendering="auto" stroke-opacity="1" fill="black" stroke-dasharray="none" font-weight="normal" stroke-width="1" height="381" font-family="'Dialog'" font-style="normal" stroke-linejoin="miter" font-size="12px" stroke-dashoffset="0" image-rendering="auto">
  <!--Generated by ySVG 2.5-->
  <defs id="genericDefs"/>
  <g>
    <defs id="defs1">
      <clipPath clipPathUnits="userSpaceOnUse" id="clipPath1">
        <path d="M0 0 L455 0 L455 381 L0 381 L0 0 Z"/>
      </clipPath>
      <clipPath clipPathUnits="userSpaceOnUse" id="clipPath2">
        <path d="M237 18 L805.75 18 L805.75 494.25 L237 494.25 L237 18 Z"/>
      </clipPath>
      <clipPath clipPathUnits="userSpaceOnUse" id="clipPath3">
        <path d="M-167.4964 -184.7627 L401.2536 -184.7627 L401.2536 291.4873 L-167.4964 291.4873 L-167.4964 -184.7627 Z"/>
      </clipPath>
      <clipPath clipPathUnits="userSpaceOnUse" id="clipPath4">
        <path d="M-166.7605 -51.9549 L401.9895 -51.9549 L401.9895 424.2951 L-166.7605 424.2951 L-166.7605 -51.9549 Z"/>
      </clipPath>
    </defs>
    <g fill="white" text-rendering="geometricPrecision" shape-rendering="geometricPrecision" transform="scale(0.8,0.8) translate(-237,-18)" stroke="white">
      <rect x="237" width="569" height="477" y="18" clip-path="url(#clipPath2)" stroke="none"/>
    </g>
    <g fill="rgb(207,220,229)" text-rendering="geometricPrecision" shape-rendering="geometricPrecision" transform="matrix(0.8,0,0,0.8,-189.6,-14.4)" stroke="rgb(207,220,229)">
      <rect x="518.1307" y="116.6387" clip-path="url(#clipPath2)" width="90" rx="17.5" ry="17.5" height="35" stroke="none"/>
    </g>
    <g stroke-linecap="butt" transform="matrix(0.8,0,0,0.8,-189.6,-14.4)" fill="rgb(51,51,51)" text-rendering="geometricPrecision" shape-rendering="geometricPrecision" stroke="rgb(51,51,51)" stroke-miterlimit="1.45">
      <rect x="518.1307" y="116.6387" clip-path="url(#clipPath2)" fill="none" width="90" rx="17.5" ry="17.5" height="35"/>
    </g>
    <g font-size="14px" stroke-linecap="butt" transform="matrix(0.8,0,0,0.8,-189.6,-14.4)" text-rendering="geometricPrecision" font-family="sans-serif" shape-rendering="geometricPrecision" stroke-miterlimit="1.45">
      <text x="533.3295" xml:space="preserve" y="139.4297" clip-path="url(#clipPath2)" stroke="none">PI(4,5)P2</text>
    </g>
    <g fill="rgb(207,220,229)" text-rendering="geometricPrecision" shape-rendering="geometricPrecision" transform="matrix(0.8,0,0,0.8,-189.6,-14.4)" stroke="rgb(207,220,229)">
      <rect x="518.1307" y="230.8213" clip-path="url(#clipPath2)" width="90" rx="17.5" ry="17.5" height="35" stroke="none"/>
    </g>
    <g stroke-linecap="butt" transform="matrix(0.8,0,0,0.8,-189.6,-14.4)" fill="rgb(51,51,51)" text-rendering="geometricPrecision" shape-rendering="geometricPrecision" stroke="rgb(51,51,51)" stroke-miterlimit="1.45">
      <rect x="518.1307" y="230.8213" clip-path="url(#clipPath2)" fill="none" width="90" rx="17.5" ry="17.5" height="35"/>
    </g>
    <g font-size="14px" stroke-linecap="butt" transform="matrix(0.8,0,0,0.8,-189.6,-14.4)" text-rendering="geometricPrecision" font-family="sans-serif" shape-rendering="geometricPrecision" stroke-miterlimit="1.45">
      <text x="526.6884" xml:space="preserve" y="253.6123" clip-path="url(#clipPath2)" stroke="none">PI(3,4,5)P3</text>
    </g>
    <g fill="rgb(249,227,227)" text-rendering="geometricPrecision" shape-rendering="geometricPrecision" transform="matrix(0.8,0,0,0.8,-189.6,-14.4)" stroke="rgb(249,227,227)">
      <path d="M278.0491 214.1877 Q278.0491 204.1877 288.0491 204.1877 L348.0491 204.1877 Q358.0491 204.1877 358.0491 214.1877 L358.0491 234.1877 Q358.0491 244.1877 348.0491 244.1877 L288.0491 244.1877 Q278.0491 244.1877 278.0491 234.1877 Z" stroke="none" clip-path="url(#clipPath2)"/>
    </g>
    <g stroke-linecap="butt" transform="matrix(0.8,0,0,0.8,-189.6,-14.4)" fill="rgb(51,51,51)" text-rendering="geometricPrecision" shape-rendering="geometricPrecision" stroke="rgb(51,51,51)" stroke-miterlimit="1.45">
      <path fill="none" d="M278.0491 214.1877 Q278.0491 204.1877 288.0491 204.1877 L348.0491 204.1877 Q358.0491 204.1877 358.0491 214.1877 L358.0491 234.1877 Q358.0491 244.1877 348.0491 244.1877 L288.0491 244.1877 Q278.0491 244.1877 278.0491 234.1877 Z" clip-path="url(#clipPath2)"/>
    </g>
    <g font-size="14px" stroke-linecap="butt" transform="matrix(0.8,0,0,0.8,-189.6,-14.4)" text-rendering="geometricPrecision" font-family="sans-serif" shape-rendering="geometricPrecision" stroke-miterlimit="1.45">
      <text x="290.7259" xml:space="preserve" y="229.4787" clip-path="url(#clipPath2)" stroke="none">SHIP1/2</text>
    </g>
    <g fill="rgb(207,220,229)" text-rendering="geometricPrecision" shape-rendering="geometricPrecision" transform="matrix(0.8,0,0,0.8,-189.6,-14.4)" stroke="rgb(207,220,229)">
      <rect x="464.7605" y="440.0756" clip-path="url(#clipPath2)" width="90" rx="17.5" ry="17.5" height="35" stroke="none"/>
    </g>
    <g stroke-linecap="butt" transform="matrix(0.8,0,0,0.8,-189.6,-14.4)" fill="rgb(51,51,51)" text-rendering="geometricPrecision" shape-rendering="geometricPrecision" stroke="rgb(51,51,51)" stroke-miterlimit="1.45">
      <rect x="464.7605" y="440.0756" clip-path="url(#clipPath2)" fill="none" width="90" rx="17.5" ry="17.5" height="35"/>
    </g>
    <g font-size="14px" stroke-linecap="butt" transform="matrix(0.8,0,0,0.8,-189.6,-14.4)" text-rendering="geometricPrecision" font-family="sans-serif" shape-rendering="geometricPrecision" stroke-miterlimit="1.45">
      <text x="495.5794" xml:space="preserve" y="462.8666" clip-path="url(#clipPath2)" stroke="none">PI3P</text>
    </g>
    <g fill="rgb(207,220,229)" text-rendering="geometricPrecision" shape-rendering="geometricPrecision" transform="matrix(0.8,0,0,0.8,-189.6,-14.4)" stroke="rgb(207,220,229)">
      <rect x="572.7605" y="439.9699" clip-path="url(#clipPath2)" width="90" rx="17.5" ry="17.5" height="35" stroke="none"/>
    </g>
    <g stroke-linecap="butt" transform="matrix(0.8,0,0,0.8,-189.6,-14.4)" fill="rgb(51,51,51)" text-rendering="geometricPrecision" shape-rendering="geometricPrecision" stroke="rgb(51,51,51)" stroke-miterlimit="1.45">
      <rect x="572.7605" y="439.9699" clip-path="url(#clipPath2)" fill="none" width="90" rx="17.5" ry="17.5" height="35"/>
    </g>
    <g font-size="14px" stroke-linecap="butt" transform="matrix(0.8,0,0,0.8,-189.6,-14.4)" text-rendering="geometricPrecision" font-family="sans-serif" shape-rendering="geometricPrecision" stroke-miterlimit="1.45">
      <text x="603.5794" xml:space="preserve" y="462.761" clip-path="url(#clipPath2)" stroke="none">PI4P</text>
    </g>
    <g fill="white" text-rendering="geometricPrecision" shape-rendering="geometricPrecision" transform="matrix(0.8,0,0,0.8,-189.6,-14.4)" stroke="white">
      <rect x="570.1307" width="16" height="16" y="183.8213" clip-path="url(#clipPath2)" stroke="none"/>
    </g>
    <g stroke-linecap="butt" transform="matrix(0.8,0,0,0.8,-189.6,-14.4)" fill="rgb(51,51,51)" text-rendering="geometricPrecision" shape-rendering="geometricPrecision" stroke="rgb(51,51,51)" stroke-miterlimit="1.45">
      <rect fill="none" x="570.1307" width="16" height="16" y="183.8213" clip-path="url(#clipPath2)"/>
    </g>
    <g font-size="14px" stroke-linecap="butt" transform="matrix(0.8,0,0,0.8,-189.6,-14.4)" text-rendering="geometricPrecision" font-family="sans-serif" shape-rendering="geometricPrecision" stroke-miterlimit="1.45">
      <text x="575.9159" xml:space="preserve" y="197.1123" clip-path="url(#clipPath2)" stroke="none"> </text>
    </g>
    <g fill="white" text-rendering="geometricPrecision" shape-rendering="geometricPrecision" transform="matrix(0.8,0,0,0.8,-189.6,-14.4)" stroke="white">
      <rect x="540.1307" width="16" height="16" y="183.8213" clip-path="url(#clipPath2)" stroke="none"/>
    </g>
    <g stroke-linecap="butt" transform="matrix(0.8,0,0,0.8,-189.6,-14.4)" fill="rgb(51,51,51)" text-rendering="geometricPrecision" shape-rendering="geometricPrecision" stroke="rgb(51,51,51)" stroke-miterlimit="1.45">
      <rect fill="none" x="540.1307" width="16" height="16" y="183.8213" clip-path="url(#clipPath2)"/>
    </g>
    <g font-size="14px" stroke-linecap="butt" transform="matrix(0.8,0,0,0.8,-189.6,-14.4)" text-rendering="geometricPrecision" font-family="sans-serif" shape-rendering="geometricPrecision" stroke-miterlimit="1.45">
      <text x="545.9159" xml:space="preserve" y="197.1123" clip-path="url(#clipPath2)" stroke="none"> </text>
    </g>
    <g fill="rgb(207,220,229)" text-rendering="geometricPrecision" shape-rendering="geometricPrecision" transform="matrix(0.8,0,0,0.8,-189.6,-14.4)" stroke="rgb(207,220,229)">
      <rect x="518.7605" y="335.4484" clip-path="url(#clipPath2)" width="90" rx="17.5" ry="17.5" height="35" stroke="none"/>
    </g>
    <g stroke-linecap="butt" transform="matrix(0.8,0,0,0.8,-189.6,-14.4)" fill="rgb(51,51,51)" text-rendering="geometricPrecision" shape-rendering="geometricPrecision" stroke="rgb(51,51,51)" stroke-miterlimit="1.45">
      <rect x="518.7605" y="335.4484" clip-path="url(#clipPath2)" fill="none" width="90" rx="17.5" ry="17.5" height="35"/>
    </g>
    <g font-size="14px" stroke-linecap="butt" transform="matrix(0.8,0,0,0.8,-189.6,-14.4)" text-rendering="geometricPrecision" font-family="sans-serif" shape-rendering="geometricPrecision" stroke-miterlimit="1.45">
      <text x="533.9593" xml:space="preserve" y="358.2394" clip-path="url(#clipPath2)" stroke="none">PI(3,4)P2</text>
    </g>
    <g fill="white" text-rendering="geometricPrecision" shape-rendering="geometricPrecision" transform="matrix(0.8,0,0,0.8,-189.6,-14.4)" stroke="white">
      <rect x="555.7605" width="16" height="16" y="291.3833" clip-path="url(#clipPath2)" stroke="none"/>
    </g>
    <g stroke-linecap="butt" transform="matrix(0.8,0,0,0.8,-189.6,-14.4)" fill="rgb(51,51,51)" text-rendering="geometricPrecision" shape-rendering="geometricPrecision" stroke="rgb(51,51,51)" stroke-miterlimit="1.45">
      <rect fill="none" x="555.7605" width="16" height="16" y="291.3833" clip-path="url(#clipPath2)"/>
    </g>
    <g font-size="14px" stroke-linecap="butt" transform="matrix(0.8,0,0,0.8,-189.6,-14.4)" text-rendering="geometricPrecision" font-family="sans-serif" shape-rendering="geometricPrecision" stroke-miterlimit="1.45">
      <text x="561.5457" xml:space="preserve" y="304.6743" clip-path="url(#clipPath2)" stroke="none"> </text>
    </g>
    <g fill="white" text-rendering="geometricPrecision" shape-rendering="geometricPrecision" transform="matrix(0.8,0,0,0.8,-189.6,-14.4)" stroke="white">
      <rect x="609.7605" width="16" height="16" y="392.4677" clip-path="url(#clipPath2)" stroke="none"/>
    </g>
    <g stroke-linecap="butt" transform="matrix(0.8,0,0,0.8,-189.6,-14.4)" fill="rgb(51,51,51)" text-rendering="geometricPrecision" shape-rendering="geometricPrecision" stroke="rgb(51,51,51)" stroke-miterlimit="1.45">
      <rect fill="none" x="609.7605" width="16" height="16" y="392.4677" clip-path="url(#clipPath2)"/>
    </g>
    <g font-size="14px" stroke-linecap="butt" transform="matrix(0.8,0,0,0.8,-189.6,-14.4)" text-rendering="geometricPrecision" font-family="sans-serif" shape-rendering="geometricPrecision" stroke-miterlimit="1.45">
      <text x="615.5457" xml:space="preserve" y="405.7588" clip-path="url(#clipPath2)" stroke="none"> </text>
    </g>
    <g fill="rgb(249,227,227)" text-rendering="geometricPrecision" shape-rendering="geometricPrecision" transform="matrix(0.8,0,0,0.8,-189.6,-14.4)" stroke="rgb(249,227,227)">
      <path d="M277.0491 262.1877 Q277.0491 252.1877 287.0491 252.1877 L347.0491 252.1877 Q357.0491 252.1877 357.0491 262.1877 L357.0491 282.1877 Q357.0491 292.1877 347.0491 292.1877 L287.0491 292.1877 Q277.0491 292.1877 277.0491 282.1877 Z" stroke="none" clip-path="url(#clipPath2)"/>
    </g>
    <g stroke-linecap="butt" transform="matrix(0.8,0,0,0.8,-189.6,-14.4)" fill="rgb(51,51,51)" text-rendering="geometricPrecision" shape-rendering="geometricPrecision" stroke="rgb(51,51,51)" stroke-miterlimit="1.45">
      <path fill="none" d="M277.0491 262.1877 Q277.0491 252.1877 287.0491 252.1877 L347.0491 252.1877 Q357.0491 252.1877 357.0491 262.1877 L357.0491 282.1877 Q357.0491 292.1877 347.0491 292.1877 L287.0491 292.1877 Q277.0491 292.1877 277.0491 282.1877 Z" clip-path="url(#clipPath2)"/>
    </g>
    <g font-size="14px" stroke-linecap="butt" transform="matrix(0.8,0,0,0.8,-189.6,-14.4)" text-rendering="geometricPrecision" font-family="sans-serif" shape-rendering="geometricPrecision" stroke-miterlimit="1.45">
      <text x="289.0457" xml:space="preserve" y="277.4787" clip-path="url(#clipPath2)" stroke="none">SYNJ1/2</text>
    </g>
    <g fill="rgb(249,227,227)" text-rendering="geometricPrecision" shape-rendering="geometricPrecision" transform="matrix(0.8,0,0,0.8,-189.6,-14.4)" stroke="rgb(249,227,227)">
      <path d="M276.0491 310.1877 Q276.0491 300.1877 286.0491 300.1877 L346.0491 300.1877 Q356.0491 300.1877 356.0491 310.1877 L356.0491 330.1877 Q356.0491 340.1877 346.0491 340.1877 L286.0491 340.1877 Q276.0491 340.1877 276.0491 330.1877 Z" stroke="none" clip-path="url(#clipPath2)"/>
    </g>
    <g stroke-linecap="butt" transform="matrix(0.8,0,0,0.8,-189.6,-14.4)" fill="rgb(51,51,51)" text-rendering="geometricPrecision" shape-rendering="geometricPrecision" stroke="rgb(51,51,51)" stroke-miterlimit="1.45">
      <path fill="none" d="M276.0491 310.1877 Q276.0491 300.1877 286.0491 300.1877 L346.0491 300.1877 Q356.0491 300.1877 356.0491 310.1877 L356.0491 330.1877 Q356.0491 340.1877 346.0491 340.1877 L286.0491 340.1877 Q276.0491 340.1877 276.0491 330.1877 Z" clip-path="url(#clipPath2)"/>
    </g>
    <g font-size="14px" stroke-linecap="butt" transform="matrix(0.8,0,0,0.8,-189.6,-14.4)" text-rendering="geometricPrecision" font-family="sans-serif" shape-rendering="geometricPrecision" stroke-miterlimit="1.45">
      <text x="292.6702" xml:space="preserve" y="325.4787" clip-path="url(#clipPath2)" stroke="none">INPP5B</text>
    </g>
    <g fill="rgb(249,227,227)" text-rendering="geometricPrecision" shape-rendering="geometricPrecision" transform="matrix(0.8,0,0,0.8,-189.6,-14.4)" stroke="rgb(249,227,227)">
      <path d="M275.0491 358.1877 Q275.0491 348.1877 285.0491 348.1877 L345.0491 348.1877 Q355.0491 348.1877 355.0491 358.1877 L355.0491 378.1877 Q355.0491 388.1877 345.0491 388.1877 L285.0491 388.1877 Q275.0491 388.1877 275.0491 378.1877 Z" stroke="none" clip-path="url(#clipPath2)"/>
    </g>
    <g stroke-linecap="butt" transform="matrix(0.8,0,0,0.8,-189.6,-14.4)" fill="rgb(51,51,51)" text-rendering="geometricPrecision" shape-rendering="geometricPrecision" stroke="rgb(51,51,51)" stroke-miterlimit="1.45">
      <path fill="none" d="M275.0491 358.1877 Q275.0491 348.1877 285.0491 348.1877 L345.0491 348.1877 Q355.0491 348.1877 355.0491 358.1877 L355.0491 378.1877 Q355.0491 388.1877 345.0491 388.1877 L285.0491 388.1877 Q275.0491 388.1877 275.0491 378.1877 Z" clip-path="url(#clipPath2)"/>
    </g>
    <g font-size="14px" stroke-linecap="butt" transform="matrix(0.8,0,0,0.8,-189.6,-14.4)" text-rendering="geometricPrecision" font-family="sans-serif" shape-rendering="geometricPrecision" stroke-miterlimit="1.45">
      <text x="291.9437" xml:space="preserve" y="373.4787" clip-path="url(#clipPath2)" stroke="none">INPP5F</text>
    </g>
    <g transform="matrix(0.8,0,0,0.8,-189.6,-14.4)" fill-opacity="0.498" fill="rgb(255,255,255)" text-rendering="geometricPrecision" shape-rendering="geometricPrecision" stroke="rgb(255,255,255)" stroke-opacity="0.498">
      <circle r="12.5" clip-path="url(#clipPath2)" cx="430.7605" cy="298.2468" stroke="none"/>
    </g>
    <g stroke-linecap="butt" transform="matrix(0.8,0,0,0.8,-189.6,-14.4)" fill="rgb(51,51,51)" text-rendering="geometricPrecision" shape-rendering="geometricPrecision" stroke="rgb(51,51,51)" stroke-miterlimit="1.45">
      <circle fill="none" r="12.5" clip-path="url(#clipPath2)" cx="430.7605" cy="298.2468"/>
    </g>
    <g font-size="14px" stroke-linecap="butt" transform="matrix(0.8,0,0,0.8,-189.6,-14.4)" text-rendering="geometricPrecision" font-family="sans-serif" shape-rendering="geometricPrecision" stroke-miterlimit="1.45">
      <text x="420.8963" xml:space="preserve" y="303.5379" clip-path="url(#clipPath2)" stroke="none">OR</text>
    </g>
    <g fill="rgb(249,227,227)" text-rendering="geometricPrecision" shape-rendering="geometricPrecision" transform="matrix(0.8,0,0,0.8,-189.6,-14.4)" stroke="rgb(249,227,227)">
      <path d="M706.1586 289.3833 Q706.1586 279.3833 716.1586 279.3833 L776.1586 279.3833 Q786.1586 279.3833 786.1586 289.3833 L786.1586 309.3833 Q786.1586 319.3833 776.1586 319.3833 L716.1586 319.3833 Q706.1586 319.3833 706.1586 309.3833 Z" stroke="none" clip-path="url(#clipPath2)"/>
    </g>
    <g stroke-linecap="butt" transform="matrix(0.8,0,0,0.8,-189.6,-14.4)" fill="rgb(51,51,51)" text-rendering="geometricPrecision" shape-rendering="geometricPrecision" stroke="rgb(51,51,51)" stroke-miterlimit="1.45">
      <path fill="none" d="M706.1586 289.3833 Q706.1586 279.3833 716.1586 279.3833 L776.1586 279.3833 Q786.1586 279.3833 786.1586 289.3833 L786.1586 309.3833 Q786.1586 319.3833 776.1586 319.3833 L716.1586 319.3833 Q706.1586 319.3833 706.1586 309.3833 Z" clip-path="url(#clipPath2)"/>
    </g>
    <g font-size="14px" stroke-linecap="butt" transform="matrix(0.8,0,0,0.8,-189.6,-14.4)" text-rendering="geometricPrecision" font-family="sans-serif" shape-rendering="geometricPrecision" stroke-miterlimit="1.45">
      <text x="728.8979" xml:space="preserve" y="304.6743" clip-path="url(#clipPath2)" stroke="none">PTEN</text>
    </g>
    <g fill="rgb(249,227,227)" text-rendering="geometricPrecision" shape-rendering="geometricPrecision" transform="matrix(0.8,0,0,0.8,-189.6,-14.4)" stroke="rgb(249,227,227)">
      <path d="M389.7605 391.0756 Q389.7605 381.0756 399.7605 381.0756 L459.7605 381.0756 Q469.7605 381.0756 469.7605 391.0756 L469.7605 411.0756 Q469.7605 421.0756 459.7605 421.0756 L399.7605 421.0756 Q389.7605 421.0756 389.7605 411.0756 Z" stroke="none" clip-path="url(#clipPath2)"/>
    </g>
    <g stroke-linecap="butt" transform="matrix(0.8,0,0,0.8,-189.6,-14.4)" fill="rgb(51,51,51)" text-rendering="geometricPrecision" shape-rendering="geometricPrecision" stroke="rgb(51,51,51)" stroke-miterlimit="1.45">
      <path fill="none" d="M389.7605 391.0756 Q389.7605 381.0756 399.7605 381.0756 L459.7605 381.0756 Q469.7605 381.0756 469.7605 391.0756 L469.7605 411.0756 Q469.7605 421.0756 459.7605 421.0756 L399.7605 421.0756 Q389.7605 421.0756 389.7605 411.0756 Z" clip-path="url(#clipPath2)"/>
    </g>
    <g font-size="14px" stroke-linecap="butt" transform="matrix(0.8,0,0,0.8,-189.6,-14.4)" text-rendering="geometricPrecision" font-family="sans-serif" shape-rendering="geometricPrecision" stroke-miterlimit="1.45">
      <text x="397.8811" xml:space="preserve" y="406.3666" clip-path="url(#clipPath2)" stroke="none">INPP4A/B</text>
    </g>
    <g fill="rgb(249,227,227)" text-rendering="geometricPrecision" shape-rendering="geometricPrecision" transform="matrix(0.8,0,0,0.8,-189.6,-14.4)" stroke="rgb(249,227,227)">
      <path d="M390.7605 181.8213 Q390.7605 171.8213 400.7605 171.8213 L460.7605 171.8213 Q470.7605 171.8213 470.7605 181.8213 L470.7605 201.8213 Q470.7605 211.8213 460.7605 211.8213 L400.7605 211.8213 Q390.7605 211.8213 390.7605 201.8213 Z" stroke="none" clip-path="url(#clipPath2)"/>
    </g>
    <g stroke-linecap="butt" transform="matrix(0.8,0,0,0.8,-189.6,-14.4)" fill="rgb(51,51,51)" text-rendering="geometricPrecision" shape-rendering="geometricPrecision" stroke="rgb(51,51,51)" stroke-miterlimit="1.45">
      <path fill="none" d="M390.7605 181.8213 Q390.7605 171.8213 400.7605 171.8213 L460.7605 171.8213 Q470.7605 171.8213 470.7605 181.8213 L470.7605 201.8213 Q470.7605 211.8213 460.7605 211.8213 L400.7605 211.8213 Q390.7605 211.8213 390.7605 201.8213 Z" clip-path="url(#clipPath2)"/>
    </g>
    <g font-size="14px" stroke-linecap="butt" transform="matrix(0.8,0,0,0.8,-189.6,-14.4)" text-rendering="geometricPrecision" font-family="sans-serif" shape-rendering="geometricPrecision" stroke-miterlimit="1.45">
      <text x="409.0052" xml:space="preserve" y="197.1123" clip-path="url(#clipPath2)" stroke="none">PI3KIα</text>
    </g>
    <g fill="white" text-rendering="geometricPrecision" shape-rendering="geometricPrecision" transform="matrix(0.8,0,0,0.8,-189.6,-14.4) translate(404.4964,202.7627)" stroke="white">
      <rect x="0" y="0" clip-path="url(#clipPath3)" width="52" rx="8" ry="8" height="16" stroke="none"/>
    </g>
    <g text-rendering="geometricPrecision" stroke-miterlimit="1.45" shape-rendering="geometricPrecision" transform="matrix(0.8,0,0,0.8,-189.6,-14.4) translate(404.4964,202.7627)" stroke-linecap="butt">
      <rect x="0" y="0" clip-path="url(#clipPath3)" fill="none" width="52" rx="8" ry="8" height="16"/>
      <text x="9.1865" xml:space="preserve" y="12.5352" clip-path="url(#clipPath3)" font-family="sans-serif" stroke="none">active</text>
    </g>
    <g fill="rgb(249,227,227)" text-rendering="geometricPrecision" shape-rendering="geometricPrecision" transform="matrix(0.8,0,0,0.8,-189.6,-14.4)" stroke="rgb(249,227,227)">
      <path d="M389.7605 47.8885 Q389.7605 37.8885 399.7605 37.8885 L459.7605 37.8885 Q469.7605 37.8885 469.7605 47.8885 L469.7605 67.8885 Q469.7605 77.8885 459.7605 77.8885 L399.7605 77.8885 Q389.7605 77.8885 389.7605 67.8885 Z" stroke="none" clip-path="url(#clipPath2)"/>
    </g>
    <g stroke-linecap="butt" transform="matrix(0.8,0,0,0.8,-189.6,-14.4)" fill="rgb(51,51,51)" text-rendering="geometricPrecision" shape-rendering="geometricPrecision" stroke="rgb(51,51,51)" stroke-miterlimit="1.45">
      <path fill="none" d="M389.7605 47.8885 Q389.7605 37.8885 399.7605 37.8885 L459.7605 37.8885 Q469.7605 37.8885 469.7605 47.8885 L469.7605 67.8885 Q469.7605 77.8885 459.7605 77.8885 L399.7605 77.8885 Q389.7605 77.8885 389.7605 67.8885 Z" clip-path="url(#clipPath2)"/>
    </g>
    <g font-size="14px" stroke-linecap="butt" transform="matrix(0.8,0,0,0.8,-189.6,-14.4)" text-rendering="geometricPrecision" font-family="sans-serif" shape-rendering="geometricPrecision" stroke-miterlimit="1.45">
      <text x="408.0052" xml:space="preserve" y="63.1795" clip-path="url(#clipPath2)" stroke="none">PI3KIα</text>
    </g>
    <g fill="white" text-rendering="geometricPrecision" shape-rendering="geometricPrecision" transform="matrix(0.8,0,0,0.8,-189.6,-14.4) translate(403.7605,69.9549)" stroke="white">
      <rect x="0" y="0" clip-path="url(#clipPath4)" width="52" rx="8" ry="8" height="16" stroke="none"/>
    </g>
    <g text-rendering="geometricPrecision" stroke-miterlimit="1.45" shape-rendering="geometricPrecision" transform="matrix(0.8,0,0,0.8,-189.6,-14.4) translate(403.7605,69.9549)" stroke-linecap="butt">
      <rect x="0" y="0" clip-path="url(#clipPath4)" fill="none" width="52" rx="8" ry="8" height="16"/>
      <text x="3.7285" xml:space="preserve" y="12.5352" clip-path="url(#clipPath4)" font-family="sans-serif" stroke="none">inactive</text>
    </g>
    <g fill="white" text-rendering="geometricPrecision" shape-rendering="geometricPrecision" transform="matrix(0.8,0,0,0.8,-189.6,-14.4)" stroke="white">
      <rect x="422.266" width="16" height="16" y="114.0044" clip-path="url(#clipPath2)" stroke="none"/>
    </g>
    <g stroke-linecap="butt" transform="matrix(0.8,0,0,0.8,-189.6,-14.4)" fill="rgb(51,51,51)" text-rendering="geometricPrecision" shape-rendering="geometricPrecision" stroke="rgb(51,51,51)" stroke-miterlimit="1.45">
      <rect fill="none" x="422.266" width="16" height="16" y="114.0044" clip-path="url(#clipPath2)"/>
    </g>
    <g font-size="14px" stroke-linecap="butt" transform="matrix(0.8,0,0,0.8,-189.6,-14.4)" text-rendering="geometricPrecision" font-family="sans-serif" shape-rendering="geometricPrecision" stroke-miterlimit="1.45">
      <text x="428.0512" xml:space="preserve" y="127.2954" clip-path="url(#clipPath2)" stroke="none"> </text>
    </g>
    <g text-rendering="geometricPrecision" stroke-miterlimit="1.45" shape-rendering="geometricPrecision" transform="matrix(0.8,0,0,0.8,-189.6,-14.4)" stroke-linecap="butt">
      <path fill="none" d="M578.1307 230.8414 L578.1307 199.7854" clip-path="url(#clipPath2)"/>
    </g>
    <g text-rendering="geometricPrecision" stroke-miterlimit="1.45" shape-rendering="geometricPrecision" transform="matrix(0.8,0,0,0.8,-189.6,-14.4)" stroke-linecap="butt">
      <path fill="none" d="M578.1307 183.7942 L578.1307 162.6442" clip-path="url(#clipPath2)"/>
      <path d="M578.1307 151.6442 L572.1307 163.6442 L584.1307 163.6442 Z" clip-path="url(#clipPath2)" stroke="none"/>
      <path fill="none" d="M548.1307 151.6293 L548.1307 183.8536" clip-path="url(#clipPath2)"/>
      <path fill="none" d="M548.1307 199.8195 L548.1307 219.7905" clip-path="url(#clipPath2)"/>
      <path d="M548.1307 230.7905 L554.1307 218.7905 L542.1307 218.7905 Z" clip-path="url(#clipPath2)" stroke="none"/>
      <path fill="none" d="M563.3466 265.824 L563.6615 291.354" clip-path="url(#clipPath2)"/>
      <path fill="none" d="M563.7606 307.3606 L563.7606 324.4523" clip-path="url(#clipPath2)"/>
      <path d="M563.7606 335.4523 L569.7606 323.4523 L557.7606 323.4523 Z" clip-path="url(#clipPath2)" stroke="none"/>
      <path fill="none" d="M595.1639 369.99 L617.7606 382.2525 L617.7606 392.463" clip-path="url(#clipPath2)"/>
      <path fill="none" d="M617.7605 408.4323 L617.7605 428.9907" clip-path="url(#clipPath2)"/>
      <path d="M617.7606 439.9907 L623.7605 427.9907 L611.7605 427.9908 Z" clip-path="url(#clipPath2)" stroke="none"/>
      <path fill="none" d="M354.5025 242.5487 L409.1801 298.2469 L418.2422 298.2469" clip-path="url(#clipPath2)"/>
      <path fill="none" d="M357.0509 279.6292 L409.1801 298.2469 L418.2422 298.2469" clip-path="url(#clipPath2)"/>
      <path fill="none" d="M356.0809 313.5243 L409.1801 298.2469 L418.2422 298.2469" clip-path="url(#clipPath2)"/>
      <path fill="none" d="M352.4828 350.5924 L409.1801 298.2469 L418.2422 298.2469" clip-path="url(#clipPath2)"/>
      <path fill="none" d="M443.2618 298.2954 L545.5552 298.693" clip-path="url(#clipPath2)"/>
      <path fill="white" d="M553.5551 298.724 C553.5465 300.9332 551.7487 302.717 549.5396 302.7085 C547.3305 302.6999 545.5466 300.9021 545.5552 298.693 C545.5638 296.4838 547.3616 294.7 549.5707 294.7085 C551.7798 294.7171 553.5637 296.5149 553.5551 298.724 Z" clip-path="url(#clipPath2)" stroke="none"/>
      <path fill="none" d="M553.5551 298.724 C553.5465 300.9332 551.7487 302.717 549.5396 302.7085 C547.3305 302.6999 545.5466 300.9021 545.5552 298.693 C545.5638 296.4838 547.3616 294.7 549.5707 294.7085 C551.7798 294.7171 553.5637 296.5149 553.5551 298.724 Z" clip-path="url(#clipPath2)"/>
      <path fill="none" d="M717.5242 279.3989 L596.1282 194.6746" clip-path="url(#clipPath2)"/>
      <path fill="white" d="M589.5679 190.0961 C590.8323 188.2845 593.3257 187.8409 595.1373 189.1052 C596.9489 190.3695 597.3925 192.863 596.1282 194.6746 C594.8639 196.4861 592.3704 196.9298 590.5588 195.6655 C588.7473 194.4011 588.3036 191.9076 589.5679 190.0961 Z" clip-path="url(#clipPath2)" stroke="none"/>
      <path fill="none" d="M589.5679 190.0961 C590.8323 188.2845 593.3257 187.8409 595.1373 189.1052 C596.9489 190.3695 597.3925 192.863 596.1282 194.6746 C594.8639 196.4861 592.3704 196.9298 590.5588 195.6655 C588.7473 194.4011 588.3036 191.9076 589.5679 190.0961 Z" clip-path="url(#clipPath2)"/>
      <path fill="none" d="M723.4756 319.3606 L635.5883 396.7643" clip-path="url(#clipPath2)"/>
      <path fill="white" d="M629.5847 402.0518 C628.1246 400.394 628.2849 397.8664 629.9427 396.4063 C631.6006 394.9462 634.1282 395.1065 635.5883 396.7643 C637.0483 398.4222 636.888 400.9498 635.2302 402.4099 C633.5723 403.87 631.0447 403.7096 629.5847 402.0518 Z" clip-path="url(#clipPath2)" stroke="none"/>
      <path fill="none" d="M629.5847 402.0518 C628.1246 400.394 628.2849 397.8664 629.9427 396.4063 C631.6006 394.9462 634.1282 395.1065 635.5883 396.7643 C637.0483 398.4222 636.888 400.9498 635.2302 402.4099 C633.5723 403.87 631.0447 403.7096 629.5847 402.0518 Z" clip-path="url(#clipPath2)"/>
      <path fill="none" d="M470.7414 191.7197 L529.8644 191.5694" clip-path="url(#clipPath2)"/>
      <path fill="white" d="M537.8644 191.5491 C537.87 193.7582 536.0837 195.5536 533.8746 195.5592 C531.6654 195.5648 529.87 193.7785 529.8644 191.5694 C529.8588 189.3603 531.6451 187.5649 533.8542 187.5593 C536.0634 187.5536 537.8588 189.34 537.8644 191.5491 Z" clip-path="url(#clipPath2)" stroke="none"/>
      <path fill="none" d="M537.8644 191.5491 C537.87 193.7582 536.0837 195.5536 533.8746 195.5592 C531.6654 195.5648 529.87 193.7785 529.8644 191.5694 C529.8588 189.3603 531.6451 187.5649 533.8542 187.5593 C536.0634 187.5536 537.8588 189.34 537.8644 191.5491 Z" clip-path="url(#clipPath2)"/>
      <path fill="none" d="M430.266 85.6604 L430.266 114.0255" clip-path="url(#clipPath2)"/>
      <path fill="none" d="M430.2701 130.0216 L430.5145 160.8152" clip-path="url(#clipPath2)"/>
      <path d="M430.6018 171.8149 L436.5063 159.7676 L424.5067 159.8629 Z" clip-path="url(#clipPath2)" stroke="none"/>
    </g>
    <g fill="rgb(253,255,204)" text-rendering="geometricPrecision" shape-rendering="geometricPrecision" transform="matrix(0.8,0,0,0.8,-189.6,-14.4)" stroke="rgb(253,255,204)">
      <path d="M271.3954 63.876 L342.0491 63.876 L357.0491 75.876 L357.0491 168.1327 L342.0491 180.1327 L271.3954 180.1327 L256.3954 168.1327 L256.3954 75.876 Z" stroke="none" clip-path="url(#clipPath2)"/>
    </g>
    <g stroke-linecap="butt" transform="matrix(0.8,0,0,0.8,-189.6,-14.4)" fill="rgb(51,51,51)" text-rendering="geometricPrecision" shape-rendering="geometricPrecision" stroke="rgb(51,51,51)" stroke-miterlimit="1.45">
      <path fill="none" d="M271.3954 63.876 L342.0491 63.876 L357.0491 75.876 L357.0491 168.1327 L342.0491 180.1327 L271.3954 180.1327 L256.3954 168.1327 L256.3954 75.876 Z" clip-path="url(#clipPath2)"/>
    </g>
    <g fill="rgb(249,227,227)" text-rendering="geometricPrecision" shape-rendering="geometricPrecision" transform="matrix(0.8,0,0,0.8,-189.6,-14.4)" stroke="rgb(249,227,227)">
      <path d="M266.3954 135.1327 Q266.3954 125.1327 276.3954 125.1327 L336.3954 125.1327 Q346.3954 125.1327 346.3954 135.1327 L346.3954 155.1327 Q346.3954 165.1327 336.3954 165.1327 L276.3954 165.1327 Q266.3954 165.1327 266.3954 155.1327 Z" stroke="none" clip-path="url(#clipPath2)"/>
    </g>
    <g stroke-linecap="butt" transform="matrix(0.8,0,0,0.8,-189.6,-14.4)" fill="rgb(51,51,51)" text-rendering="geometricPrecision" shape-rendering="geometricPrecision" stroke="rgb(51,51,51)" stroke-miterlimit="1.45">
      <path fill="none" d="M266.3954 135.1327 Q266.3954 125.1327 276.3954 125.1327 L336.3954 125.1327 Q346.3954 125.1327 346.3954 135.1327 L346.3954 155.1327 Q346.3954 165.1327 336.3954 165.1327 L276.3954 165.1327 Q266.3954 165.1327 266.3954 155.1327 Z" clip-path="url(#clipPath2)"/>
    </g>
    <g font-size="14px" stroke-linecap="butt" transform="matrix(0.8,0,0,0.8,-189.6,-14.4)" text-rendering="geometricPrecision" font-family="sans-serif" shape-rendering="geometricPrecision" stroke-miterlimit="1.45">
      <text x="289.3637" xml:space="preserve" y="150.4237" clip-path="url(#clipPath2)" stroke="none">EGFR</text>
    </g>
    <g fill="rgb(249,227,227)" text-rendering="geometricPrecision" shape-rendering="geometricPrecision" transform="matrix(0.8,0,0,0.8,-189.6,-14.4)" stroke="rgb(249,227,227)">
      <path d="M267.0491 87.876 Q267.0491 77.876 277.0491 77.876 L337.0491 77.876 Q347.0491 77.876 347.0491 87.876 L347.0491 107.876 Q347.0491 117.876 337.0491 117.876 L277.0491 117.876 Q267.0491 117.876 267.0491 107.876 Z" stroke="none" clip-path="url(#clipPath2)"/>
    </g>
    <g stroke-linecap="butt" transform="matrix(0.8,0,0,0.8,-189.6,-14.4)" fill="rgb(51,51,51)" text-rendering="geometricPrecision" shape-rendering="geometricPrecision" stroke="rgb(51,51,51)" stroke-miterlimit="1.45">
      <path fill="none" d="M267.0491 87.876 Q267.0491 77.876 277.0491 77.876 L337.0491 77.876 Q347.0491 77.876 347.0491 87.876 L347.0491 107.876 Q347.0491 117.876 337.0491 117.876 L277.0491 117.876 Q267.0491 117.876 267.0491 107.876 Z" clip-path="url(#clipPath2)"/>
    </g>
    <g font-size="14px" stroke-linecap="butt" transform="matrix(0.8,0,0,0.8,-189.6,-14.4)" text-rendering="geometricPrecision" font-family="sans-serif" shape-rendering="geometricPrecision" stroke-miterlimit="1.45">
      <text x="294.4437" xml:space="preserve" y="103.167" clip-path="url(#clipPath2)" stroke="none">EGF</text>
    </g>
    <g fill="white" text-rendering="geometricPrecision" shape-rendering="geometricPrecision" transform="matrix(0.8,0,0,0.8,-189.6,-14.4)" stroke="white">
      <rect x="501.7605" width="16" height="16" y="393.0756" clip-path="url(#clipPath2)" stroke="none"/>
    </g>
    <g stroke-linecap="butt" transform="matrix(0.8,0,0,0.8,-189.6,-14.4)" fill="rgb(51,51,51)" text-rendering="geometricPrecision" shape-rendering="geometricPrecision" stroke="rgb(51,51,51)" stroke-miterlimit="1.45">
      <rect fill="none" x="501.7605" width="16" height="16" y="393.0756" clip-path="url(#clipPath2)"/>
    </g>
    <g font-size="14px" stroke-linecap="butt" transform="matrix(0.8,0,0,0.8,-189.6,-14.4)" text-rendering="geometricPrecision" font-family="sans-serif" shape-rendering="geometricPrecision" stroke-miterlimit="1.45">
      <text x="507.5457" xml:space="preserve" y="406.3666" clip-path="url(#clipPath2)" stroke="none"> </text>
    </g>
    <g text-rendering="geometricPrecision" stroke-miterlimit="1.45" shape-rendering="geometricPrecision" transform="matrix(0.8,0,0,0.8,-189.6,-14.4)" stroke-linecap="butt">
      <path fill="none" d="M357.0627 122.0044 L407.2952 122.0044" clip-path="url(#clipPath2)"/>
      <path fill="white" d="M422.2952 122.0044 L406.2952 116.0044 L406.2952 128.0044 Z" clip-path="url(#clipPath2)" stroke="none"/>
      <path fill="none" d="M422.2952 122.0044 L406.2952 116.0044 L406.2952 128.0044 Z" clip-path="url(#clipPath2)"/>
      <path fill="none" d="M533.2537 370.1833 L509.7605 383.4557 L509.7605 393.0572" clip-path="url(#clipPath2)"/>
      <path fill="none" d="M469.7687 401.0756 L490.3269 401.0756" clip-path="url(#clipPath2)"/>
      <path fill="white" d="M498.3269 401.0756 C498.3269 403.2847 496.536 405.0756 494.3269 405.0756 C492.1177 405.0756 490.3269 403.2847 490.3269 401.0756 C490.3269 398.8664 492.1177 397.0756 494.3269 397.0756 C496.536 397.0756 498.3269 398.8664 498.3269 401.0756 Z" clip-path="url(#clipPath2)" stroke="none"/>
      <path fill="none" d="M498.3269 401.0756 C498.3269 403.2847 496.536 405.0756 494.3269 405.0756 C492.1177 405.0756 490.3269 403.2847 490.3269 401.0756 C490.3269 398.8664 492.1177 397.0756 494.3269 397.0756 C496.536 397.0756 498.3269 398.8664 498.3269 401.0756 Z" clip-path="url(#clipPath2)"/>
      <path fill="none" d="M509.7606 409.1019 L509.7606 429.108" clip-path="url(#clipPath2)"/>
      <path d="M509.7606 440.108 L515.7606 428.108 L503.7606 428.108 Z" clip-path="url(#clipPath2)" stroke="none"/>
    </g>
  </g>
</svg>
