<?xml version="1.0" encoding="UTF-8"?><svg xmlns="http://www.w3.org/2000/svg" xmlns:xlink="http://www.w3.org/1999/xlink" fill-opacity="1" color-rendering="auto" color-interpolation="auto" text-rendering="auto" stroke="black" stroke-linecap="square" width="602" stroke-miterlimit="10" shape-rendering="auto" stroke-opacity="1" fill="black" stroke-dasharray="none" font-weight="normal" stroke-width="1" height="590" font-family="'Dialog'" font-style="normal" stroke-linejoin="miter" font-size="12px" stroke-dashoffset="0" image-rendering="auto">
  <!--Generated by ySVG 2.5-->
  <defs id="genericDefs"/>
  <g>
    <defs id="defs1">
      <clipPath clipPathUnits="userSpaceOnUse" id="clipPath1">
        <path d="M0 0 L602 0 L602 590 L0 590 L0 0 Z"/>
      </clipPath>
      <clipPath clipPathUnits="userSpaceOnUse" id="clipPath2">
        <path d="M617 -2 L1369.5 -2 L1369.5 735.5 L617 735.5 L617 -2 Z"/>
      </clipPath>
      <clipPath clipPathUnits="userSpaceOnUse" id="clipPath3">
        <path d="M-154.348 -19.3911 L598.152 -19.3911 L598.152 718.1088 L-154.348 718.1088 L-154.348 -19.3911 Z"/>
      </clipPath>
      <clipPath clipPathUnits="userSpaceOnUse" id="clipPath4">
        <path d="M-154.348 -153.2062 L598.152 -153.2062 L598.152 584.2938 L-154.348 584.2938 L-154.348 -153.2062 Z"/>
      </clipPath>
      <clipPath clipPathUnits="userSpaceOnUse" id="clipPath5">
        <path d="M-430.8133 -388.2416 L321.6867 -388.2416 L321.6867 349.2584 L-430.8133 349.2584 L-430.8133 -388.2416 Z"/>
      </clipPath>
      <clipPath clipPathUnits="userSpaceOnUse" id="clipPath6">
        <path d="M-407.1467 -505.0833 L345.3533 -505.0833 L345.3533 232.4167 L-407.1467 232.4167 L-407.1467 -505.0833 Z"/>
      </clipPath>
      <clipPath clipPathUnits="userSpaceOnUse" id="clipPath7">
        <path d="M-240.949 -505.3012 L511.5511 -505.3012 L511.5511 232.1988 L-240.949 232.1988 L-240.949 -505.3012 Z"/>
      </clipPath>
      <clipPath clipPathUnits="userSpaceOnUse" id="clipPath8">
        <path d="M-640.3622 -384.261 L112.1377 -384.261 L112.1377 353.239 L-640.3622 353.239 L-640.3622 -384.261 Z"/>
      </clipPath>
      <clipPath clipPathUnits="userSpaceOnUse" id="clipPath9">
        <path d="M-532.1696 -479.1946 L220.3304 -479.1946 L220.3304 258.3054 L-532.1696 258.3054 L-532.1696 -479.1946 Z"/>
      </clipPath>
      <clipPath clipPathUnits="userSpaceOnUse" id="clipPath10">
        <path d="M-530.1696 -612.3813 L222.3304 -612.3813 L222.3304 125.1187 L-530.1696 125.1187 L-530.1696 -612.3813 Z"/>
      </clipPath>
      <clipPath clipPathUnits="userSpaceOnUse" id="clipPath11">
        <path d="M-224.9834 -374.2271 L527.5166 -374.2271 L527.5166 363.2729 L-224.9834 363.2729 L-224.9834 -374.2271 Z"/>
      </clipPath>
    </defs>
    <g fill="white" text-rendering="geometricPrecision" shape-rendering="geometricPrecision" transform="scale(0.8,0.8) translate(-617,2)" stroke="white">
      <rect x="617" width="753" height="738" y="-2" clip-path="url(#clipPath2)" stroke="none"/>
    </g>
    <g fill="white" text-rendering="geometricPrecision" shape-rendering="geometricPrecision" transform="matrix(0.8,0,0,0.8,-493.6,1.6)" stroke="white">
      <rect x="1167.6696" width="18" height="18" y="351.2487" clip-path="url(#clipPath2)" stroke="none"/>
    </g>
    <g text-rendering="geometricPrecision" stroke-miterlimit="1.45" shape-rendering="geometricPrecision" transform="matrix(0.8,0,0,0.8,-493.6,1.6)" stroke-linecap="butt">
      <rect fill="none" x="1167.6696" width="18" height="18" y="351.2487" clip-path="url(#clipPath2)"/>
    </g>
    <g fill="rgb(200,216,235)" text-rendering="geometricPrecision" shape-rendering="geometricPrecision" transform="matrix(0.8,0,0,0.8,-493.6,1.6)" stroke="rgb(200,216,235)">
      <path d="M753.848 170.3176 Q753.848 160.3176 763.848 160.3176 L823.848 160.3176 Q833.848 160.3176 833.848 170.3176 L833.848 190.3176 Q833.848 200.3176 823.848 200.3176 L763.848 200.3176 Q753.848 200.3176 753.848 190.3176 Z" stroke="none" clip-path="url(#clipPath2)"/>
    </g>
    <g text-rendering="geometricPrecision" stroke-miterlimit="1.45" shape-rendering="geometricPrecision" transform="matrix(0.8,0,0,0.8,-493.6,1.6)" stroke-linecap="butt">
      <path fill="none" d="M753.848 170.3176 Q753.848 160.3176 763.848 160.3176 L823.848 160.3176 Q833.848 160.3176 833.848 170.3176 L833.848 190.3176 Q833.848 200.3176 823.848 200.3176 L763.848 200.3176 Q753.848 200.3176 753.848 190.3176 Z" clip-path="url(#clipPath2)"/>
      <text x="778.9661" font-size="14px" y="185.6086" clip-path="url(#clipPath2)" font-family="sans-serif" stroke="none" xml:space="preserve">PI3K</text>
    </g>
    <g fill="rgb(200,216,235)" text-rendering="geometricPrecision" shape-rendering="geometricPrecision" transform="matrix(0.8,0,0,0.8,-493.6,1.6)" stroke="rgb(200,216,235)">
      <path d="M753.848 36.5025 Q753.848 26.5025 763.848 26.5025 L823.848 26.5025 Q833.848 26.5025 833.848 36.5025 L833.848 56.5025 Q833.848 66.5025 823.848 66.5025 L763.848 66.5025 Q753.848 66.5025 753.848 56.5025 Z" stroke="none" clip-path="url(#clipPath2)"/>
    </g>
    <g text-rendering="geometricPrecision" stroke-miterlimit="1.45" shape-rendering="geometricPrecision" transform="matrix(0.8,0,0,0.8,-493.6,1.6)" stroke-linecap="butt">
      <path fill="none" d="M753.848 36.5025 Q753.848 26.5025 763.848 26.5025 L823.848 26.5025 Q833.848 26.5025 833.848 36.5025 L833.848 56.5025 Q833.848 66.5025 823.848 66.5025 L763.848 66.5025 Q753.848 66.5025 753.848 56.5025 Z" clip-path="url(#clipPath2)"/>
      <text x="778.9661" font-size="14px" y="51.7935" clip-path="url(#clipPath2)" font-family="sans-serif" stroke="none" xml:space="preserve">PI3K</text>
    </g>
    <g fill="white" text-rendering="geometricPrecision" shape-rendering="geometricPrecision" transform="matrix(0.8,0,0,0.8,-493.6,1.6) translate(771.348,17.3911)" stroke="white">
      <rect x="0" y="0" clip-path="url(#clipPath3)" width="45" rx="9" ry="9" height="18" stroke="none"/>
    </g>
    <g text-rendering="geometricPrecision" stroke-miterlimit="1.45" shape-rendering="geometricPrecision" transform="matrix(0.8,0,0,0.8,-493.6,1.6) translate(771.348,17.3911)" stroke-linecap="butt">
      <rect x="0" y="0" clip-path="url(#clipPath3)" fill="none" width="45" rx="9" ry="9" height="18"/>
      <text x="3.9404" font-size="10px" y="12.7793" clip-path="url(#clipPath3)" font-family="sans-serif" stroke="none" xml:space="preserve">inactive</text>
    </g>
    <g fill="white" text-rendering="geometricPrecision" shape-rendering="geometricPrecision" transform="matrix(0.8,0,0,0.8,-493.6,1.6)" stroke="white">
      <rect x="784.848" width="18" height="18" y="96.5025" clip-path="url(#clipPath2)" stroke="none"/>
    </g>
    <g text-rendering="geometricPrecision" stroke-miterlimit="1.45" shape-rendering="geometricPrecision" transform="matrix(0.8,0,0,0.8,-493.6,1.6)" stroke-linecap="butt">
      <rect fill="none" x="784.848" width="18" height="18" y="96.5025" clip-path="url(#clipPath2)"/>
    </g>
    <g fill="rgb(219,235,219)" text-rendering="geometricPrecision" shape-rendering="geometricPrecision" transform="matrix(0.8,0,0,0.8,-493.6,1.6)" stroke="rgb(219,235,219)">
      <rect x="636.9162" y="266.6465" clip-path="url(#clipPath2)" width="110" rx="14.5" ry="14.5" height="29" stroke="none"/>
    </g>
    <g text-rendering="geometricPrecision" stroke-miterlimit="1.45" shape-rendering="geometricPrecision" transform="matrix(0.8,0,0,0.8,-493.6,1.6)" stroke-linecap="butt">
      <rect x="636.9162" y="266.6465" clip-path="url(#clipPath2)" fill="none" width="110" rx="14.5" ry="14.5" height="29"/>
      <text x="644.9636" font-size="14px" y="286.4375" clip-path="url(#clipPath2)" font-family="sans-serif" stroke="none" xml:space="preserve">PtdIns(4,5)P2 </text>
    </g>
    <g fill="rgb(219,235,219)" text-rendering="geometricPrecision" shape-rendering="geometricPrecision" transform="matrix(0.8,0,0,0.8,-493.6,1.6)" stroke="rgb(219,235,219)">
      <rect x="848.848" y="266.8725" clip-path="url(#clipPath2)" width="110" rx="14.5" ry="14.5" height="29" stroke="none"/>
    </g>
    <g text-rendering="geometricPrecision" stroke-miterlimit="1.45" shape-rendering="geometricPrecision" transform="matrix(0.8,0,0,0.8,-493.6,1.6)" stroke-linecap="butt">
      <rect x="848.848" y="266.8725" clip-path="url(#clipPath2)" fill="none" width="110" rx="14.5" ry="14.5" height="29"/>
      <text x="850.2542" font-size="14px" y="286.6635" clip-path="url(#clipPath2)" font-family="sans-serif" stroke="none" xml:space="preserve">PtdIns(3,4,5)P3 </text>
    </g>
    <g fill="white" text-rendering="geometricPrecision" shape-rendering="geometricPrecision" transform="matrix(0.8,0,0,0.8,-493.6,1.6)" stroke="white">
      <rect x="784.848" width="18" height="18" y="271.6345" clip-path="url(#clipPath2)" stroke="none"/>
    </g>
    <g text-rendering="geometricPrecision" stroke-miterlimit="1.45" shape-rendering="geometricPrecision" transform="matrix(0.8,0,0,0.8,-493.6,1.6)" stroke-linecap="butt">
      <rect fill="none" x="784.848" width="18" height="18" y="271.6345" clip-path="url(#clipPath2)"/>
    </g>
    <g fill="white" text-rendering="geometricPrecision" shape-rendering="geometricPrecision" transform="matrix(0.8,0,0,0.8,-493.6,1.6)" stroke="white">
      <rect x="954.5478" width="18" height="18" y="352.2272" clip-path="url(#clipPath2)" stroke="none"/>
    </g>
    <g text-rendering="geometricPrecision" stroke-miterlimit="1.45" shape-rendering="geometricPrecision" transform="matrix(0.8,0,0,0.8,-493.6,1.6)" stroke-linecap="butt">
      <rect fill="none" x="954.5478" width="18" height="18" y="352.2272" clip-path="url(#clipPath2)"/>
    </g>
    <g text-rendering="geometricPrecision" stroke-miterlimit="1.45" shape-rendering="geometricPrecision" transform="matrix(0.8,0,0,0.8,-493.6,1.6)" stroke-linecap="butt">
      <path fill="none" d="M793.848 66.5244 L793.848 96.4812" clip-path="url(#clipPath2)"/>
    </g>
    <g text-rendering="geometricPrecision" stroke-miterlimit="1.45" shape-rendering="geometricPrecision" transform="matrix(0.8,0,0,0.8,-493.6,1.6)" stroke-linecap="butt">
      <path fill="none" d="M793.848 114.4622 L793.848 141.5525" clip-path="url(#clipPath2)"/>
      <path d="M793.848 152.5525 L799.848 140.5525 L787.848 140.5525 Z" clip-path="url(#clipPath2)" stroke="none"/>
    </g>
    <g stroke-linecap="butt" transform="matrix(0.8,0,0,0.8,-493.6,1.6) translate(771.348,151.2062)" fill="white" text-rendering="geometricPrecision" shape-rendering="geometricPrecision" stroke="white" stroke-miterlimit="1.45">
      <rect x="0" y="0" clip-path="url(#clipPath4)" width="45" rx="9" ry="9" height="18" stroke="none"/>
      <rect x="0" y="0" clip-path="url(#clipPath4)" fill="none" width="45" rx="9" ry="9" height="18" stroke="black"/>
    </g>
    <g font-size="10px" stroke-linecap="butt" transform="matrix(0.8,0,0,0.8,-493.6,1.6) translate(771.348,151.2062)" text-rendering="geometricPrecision" font-family="sans-serif" shape-rendering="geometricPrecision" stroke-miterlimit="1.45">
      <text x="8.4888" xml:space="preserve" y="12.7793" clip-path="url(#clipPath4)" stroke="none">active</text>
    </g>
    <g text-rendering="geometricPrecision" stroke-miterlimit="1.45" shape-rendering="geometricPrecision" transform="matrix(0.8,0,0,0.8,-493.6,1.6)" stroke-linecap="butt">
      <path fill="none" d="M746.9136 280.8703 L784.8186 280.6799" clip-path="url(#clipPath2)"/>
    </g>
    <g text-rendering="geometricPrecision" stroke-miterlimit="1.45" shape-rendering="geometricPrecision" transform="matrix(0.8,0,0,0.8,-493.6,1.6)" stroke-linecap="butt">
      <path fill="none" d="M793.848 200.3515 L793.848 263.6576" clip-path="url(#clipPath2)"/>
      <path fill="white" d="M793.848 271.6576 C791.6388 271.6576 789.848 269.8667 789.848 267.6576 C789.848 265.4484 791.6388 263.6576 793.848 263.6576 C796.0571 263.6576 797.848 265.4484 797.848 267.6576 C797.848 269.8667 796.0571 271.6576 793.848 271.6576 Z" clip-path="url(#clipPath2)" stroke="none"/>
      <path fill="none" d="M793.848 271.6576 C791.6388 271.6576 789.848 269.8667 789.848 267.6576 C789.848 265.4484 791.6388 263.6576 793.848 263.6576 C796.0571 263.6576 797.848 265.4484 797.848 267.6576 C797.848 269.8667 796.0571 271.6576 793.848 271.6576 Z" clip-path="url(#clipPath2)"/>
      <path fill="none" d="M802.8445 280.6949 L837.8586 280.9298" clip-path="url(#clipPath2)"/>
      <path d="M848.8583 281.0036 L836.8989 274.9232 L836.8184 286.9229 Z" clip-path="url(#clipPath2)" stroke="none"/>
      <path fill="none" d="M910.0526 295.8384 L938.099 361.2271 L954.5513 361.2271" clip-path="url(#clipPath2)"/>
    </g>
    <g fill="white" text-rendering="geometricPrecision" shape-rendering="geometricPrecision" transform="matrix(0.8,0,0,0.8,-493.6,1.6)" stroke="white">
      <path d="M1018.7195 301.2558 L1125.907 301.2558 L1137.907 313.2558 L1137.907 407.2416 L1125.907 419.2416 L1018.7195 419.2416 L1006.7195 407.2416 L1006.7195 313.2558 Z" stroke="none" clip-path="url(#clipPath2)"/>
    </g>
    <g text-rendering="geometricPrecision" stroke-miterlimit="1.45" shape-rendering="geometricPrecision" transform="matrix(0.8,0,0,0.8,-493.6,1.6)" stroke-linecap="butt">
      <path fill="none" d="M1018.7195 301.2558 L1125.907 301.2558 L1137.907 313.2558 L1137.907 407.2416 L1125.907 419.2416 L1018.7195 419.2416 L1006.7195 407.2416 L1006.7195 313.2558 Z" clip-path="url(#clipPath2)"/>
    </g>
    <g fill="rgb(219,235,219)" text-rendering="geometricPrecision" shape-rendering="geometricPrecision" transform="matrix(0.8,0,0,0.8,-493.6,1.6)" stroke="rgb(219,235,219)">
      <rect x="1017.3133" y="315.2558" clip-path="url(#clipPath2)" width="110" rx="14.5" ry="14.5" height="29" stroke="none"/>
    </g>
    <g text-rendering="geometricPrecision" stroke-miterlimit="1.45" shape-rendering="geometricPrecision" transform="matrix(0.8,0,0,0.8,-493.6,1.6)" stroke-linecap="butt">
      <rect x="1017.3133" y="315.2558" clip-path="url(#clipPath2)" fill="none" width="110" rx="14.5" ry="14.5" height="29"/>
      <text x="1018.7195" font-size="14px" y="335.0468" clip-path="url(#clipPath2)" font-family="sans-serif" stroke="none" xml:space="preserve">PtdIns(3,4,5)P3 </text>
    </g>
    <g fill="rgb(200,216,235)" text-rendering="geometricPrecision" shape-rendering="geometricPrecision" transform="matrix(0.8,0,0,0.8,-493.6,1.6)" stroke="rgb(200,216,235)">
      <path d="M1032.3132 365.2416 Q1032.3132 355.2416 1042.3132 355.2416 L1102.3132 355.2416 Q1112.3132 355.2416 1112.3132 365.2416 L1112.3132 385.2416 Q1112.3132 395.2416 1102.3132 395.2416 L1042.3132 395.2416 Q1032.3132 395.2416 1032.3132 385.2416 Z" stroke="none" clip-path="url(#clipPath2)"/>
    </g>
    <g text-rendering="geometricPrecision" stroke-miterlimit="1.45" shape-rendering="geometricPrecision" transform="matrix(0.8,0,0,0.8,-493.6,1.6)" stroke-linecap="butt">
      <path fill="none" d="M1032.3132 365.2416 Q1032.3132 355.2416 1042.3132 355.2416 L1102.3132 355.2416 Q1112.3132 355.2416 1112.3132 365.2416 L1112.3132 385.2416 Q1112.3132 395.2416 1102.3132 395.2416 L1042.3132 395.2416 Q1032.3132 395.2416 1032.3132 385.2416 Z" clip-path="url(#clipPath2)"/>
      <text x="1058.4875" font-size="14px" y="380.5326" clip-path="url(#clipPath2)" font-family="sans-serif" stroke="none" xml:space="preserve">AKT</text>
    </g>
    <g fill="white" text-rendering="geometricPrecision" shape-rendering="geometricPrecision" transform="matrix(0.8,0,0,0.8,-493.6,1.6) translate(1047.8133,386.2416)" stroke="white">
      <rect x="0" y="0" clip-path="url(#clipPath5)" width="18" rx="9" ry="9" height="18" stroke="none"/>
    </g>
    <g text-rendering="geometricPrecision" stroke-miterlimit="1.45" shape-rendering="geometricPrecision" transform="matrix(0.8,0,0,0.8,-493.6,1.6) translate(1047.8133,386.2416)" stroke-linecap="butt">
      <rect x="0" y="0" clip-path="url(#clipPath5)" fill="none" width="18" rx="9" ry="9" height="18"/>
    </g>
    <g fill="rgb(200,216,235)" text-rendering="geometricPrecision" shape-rendering="geometricPrecision" transform="matrix(0.8,0,0,0.8,-493.6,1.6)" stroke="rgb(200,216,235)">
      <path d="M863.848 130.3176 Q863.848 120.3176 873.848 120.3176 L933.848 120.3176 Q943.848 120.3176 943.848 130.3176 L943.848 150.3176 Q943.848 160.3176 933.848 160.3176 L873.848 160.3176 Q863.848 160.3176 863.848 150.3176 Z" stroke="none" clip-path="url(#clipPath2)"/>
    </g>
    <g text-rendering="geometricPrecision" stroke-miterlimit="1.45" shape-rendering="geometricPrecision" transform="matrix(0.8,0,0,0.8,-493.6,1.6)" stroke-linecap="butt">
      <path fill="none" d="M863.848 130.3176 Q863.848 120.3176 873.848 120.3176 L933.848 120.3176 Q943.848 120.3176 943.848 130.3176 L943.848 150.3176 Q943.848 160.3176 933.848 160.3176 L873.848 160.3176 Q863.848 160.3176 863.848 150.3176 Z" clip-path="url(#clipPath2)"/>
      <text x="885.7396" font-size="14px" y="145.6086" clip-path="url(#clipPath2)" font-family="sans-serif" stroke="none" xml:space="preserve">PDK1</text>
    </g>
    <g fill="white" text-rendering="geometricPrecision" shape-rendering="geometricPrecision" transform="matrix(0.8,0,0,0.8,-493.6,1.6)" stroke="white">
      <rect x="954.5478" width="18" height="18" y="203.6371" clip-path="url(#clipPath2)" stroke="none"/>
    </g>
    <g text-rendering="geometricPrecision" stroke-miterlimit="1.45" shape-rendering="geometricPrecision" transform="matrix(0.8,0,0,0.8,-493.6,1.6)" stroke-linecap="butt">
      <rect fill="none" x="954.5478" width="18" height="18" y="203.6371" clip-path="url(#clipPath2)"/>
    </g>
    <g text-rendering="geometricPrecision" stroke-miterlimit="1.45" shape-rendering="geometricPrecision" transform="matrix(0.8,0,0,0.8,-493.6,1.6)" stroke-linecap="butt">
      <path fill="none" d="M972.5612 361.2271 L995.7362 361.2271" clip-path="url(#clipPath2)"/>
      <path d="M1006.7362 361.2271 L994.7362 355.2271 L994.7362 367.2271 Z" clip-path="url(#clipPath2)" stroke="none"/>
      <path fill="none" d="M1167.676 360.2487 L1137.9218 360.2487" clip-path="url(#clipPath2)"/>
      <path fill="none" d="M914.09 160.3396 L940.8423 212.6371 L954.5455 212.6371" clip-path="url(#clipPath2)"/>
      <path fill="none" d="M911.6695 266.8401 L940.8423 212.6371 L954.5455 212.6371" clip-path="url(#clipPath2)"/>
    </g>
    <g fill="white" text-rendering="geometricPrecision" shape-rendering="geometricPrecision" transform="matrix(0.8,0,0,0.8,-493.6,1.6)" stroke="white">
      <path d="M1123.4908 154.0184 L1230.6783 154.0184 L1242.6783 166.0184 L1242.6783 259.2558 L1230.6783 271.2558 L1123.4908 271.2558 L1111.4908 259.2558 L1111.4908 166.0184 Z" stroke="none" clip-path="url(#clipPath2)"/>
    </g>
    <g text-rendering="geometricPrecision" stroke-miterlimit="1.45" shape-rendering="geometricPrecision" transform="matrix(0.8,0,0,0.8,-493.6,1.6)" stroke-linecap="butt">
      <path fill="none" d="M1123.4908 154.0184 L1230.6783 154.0184 L1242.6783 166.0184 L1242.6783 259.2558 L1230.6783 271.2558 L1123.4908 271.2558 L1111.4908 259.2558 L1111.4908 166.0184 Z" clip-path="url(#clipPath2)"/>
    </g>
    <g fill="rgb(200,216,235)" text-rendering="geometricPrecision" shape-rendering="geometricPrecision" transform="matrix(0.8,0,0,0.8,-493.6,1.6)" stroke="rgb(200,216,235)">
      <path d="M1137.7971 226.2558 Q1137.7971 216.2558 1147.7971 216.2558 L1207.7971 216.2558 Q1217.7971 216.2558 1217.7971 226.2558 L1217.7971 246.2558 Q1217.7971 256.2558 1207.7971 256.2558 L1147.7971 256.2558 Q1137.7971 256.2558 1137.7971 246.2558 Z" stroke="none" clip-path="url(#clipPath2)"/>
    </g>
    <g text-rendering="geometricPrecision" stroke-miterlimit="1.45" shape-rendering="geometricPrecision" transform="matrix(0.8,0,0,0.8,-493.6,1.6)" stroke-linecap="butt">
      <path fill="none" d="M1137.7971 226.2558 Q1137.7971 216.2558 1147.7971 216.2558 L1207.7971 216.2558 Q1217.7971 216.2558 1217.7971 226.2558 L1217.7971 246.2558 Q1217.7971 256.2558 1207.7971 256.2558 L1147.7971 256.2558 Q1137.7971 256.2558 1137.7971 246.2558 Z" clip-path="url(#clipPath2)"/>
      <text x="1159.6887" font-size="14px" y="241.5468" clip-path="url(#clipPath2)" font-family="sans-serif" stroke="none" xml:space="preserve">PDK1</text>
    </g>
    <g fill="rgb(219,235,219)" text-rendering="geometricPrecision" shape-rendering="geometricPrecision" transform="matrix(0.8,0,0,0.8,-493.6,1.6)" stroke="rgb(219,235,219)">
      <rect x="1122.0846" y="178.9533" clip-path="url(#clipPath2)" width="110" rx="14.5" ry="14.5" height="29" stroke="none"/>
    </g>
    <g text-rendering="geometricPrecision" stroke-miterlimit="1.45" shape-rendering="geometricPrecision" transform="matrix(0.8,0,0,0.8,-493.6,1.6)" stroke-linecap="butt">
      <rect x="1122.0846" y="178.9533" clip-path="url(#clipPath2)" fill="none" width="110" rx="14.5" ry="14.5" height="29"/>
      <text x="1123.4908" font-size="14px" y="198.7443" clip-path="url(#clipPath2)" font-family="sans-serif" stroke="none" xml:space="preserve">PtdIns(3,4,5)P3 </text>
    </g>
    <g fill="rgb(200,216,235)" text-rendering="geometricPrecision" shape-rendering="geometricPrecision" transform="matrix(0.8,0,0,0.8,-493.6,1.6)" stroke="rgb(200,216,235)">
      <path d="M1006.6467 522.1946 Q1006.6467 512.1946 1016.6467 512.1946 L1076.6467 512.1946 Q1086.6467 512.1946 1086.6467 522.1946 L1086.6467 542.1946 Q1086.6467 552.1946 1076.6467 552.1946 L1016.6467 552.1946 Q1006.6467 552.1946 1006.6467 542.1946 Z" stroke="none" clip-path="url(#clipPath2)"/>
    </g>
    <g text-rendering="geometricPrecision" stroke-miterlimit="1.45" shape-rendering="geometricPrecision" transform="matrix(0.8,0,0,0.8,-493.6,1.6)" stroke-linecap="butt">
      <path fill="none" d="M1006.6467 522.1946 Q1006.6467 512.1946 1016.6467 512.1946 L1076.6467 512.1946 Q1086.6467 512.1946 1086.6467 522.1946 L1086.6467 542.1946 Q1086.6467 552.1946 1076.6467 552.1946 L1016.6467 552.1946 Q1006.6467 552.1946 1006.6467 542.1946 Z" clip-path="url(#clipPath2)"/>
      <text x="1033.3782" font-size="14px" y="537.4857" clip-path="url(#clipPath2)" font-family="sans-serif" stroke="none" xml:space="preserve">PKA</text>
    </g>
    <g fill="white" text-rendering="geometricPrecision" shape-rendering="geometricPrecision" transform="matrix(0.8,0,0,0.8,-493.6,1.6) translate(1024.1467,503.0833)" stroke="white">
      <rect x="0" y="0" clip-path="url(#clipPath6)" width="45" rx="9" ry="9" height="18" stroke="none"/>
    </g>
    <g text-rendering="geometricPrecision" stroke-miterlimit="1.45" shape-rendering="geometricPrecision" transform="matrix(0.8,0,0,0.8,-493.6,1.6) translate(1024.1467,503.0833)" stroke-linecap="butt">
      <rect x="0" y="0" clip-path="url(#clipPath6)" fill="none" width="45" rx="9" ry="9" height="18"/>
      <text x="8.4888" font-size="10px" y="12.7793" clip-path="url(#clipPath6)" font-family="sans-serif" stroke="none" xml:space="preserve">active</text>
    </g>
    <g fill="rgb(200,216,235)" text-rendering="geometricPrecision" shape-rendering="geometricPrecision" transform="matrix(0.8,0,0,0.8,-493.6,1.6)" stroke="rgb(200,216,235)">
      <path d="M840.449 522.4125 Q840.449 512.4125 850.449 512.4125 L910.449 512.4125 Q920.449 512.4125 920.449 522.4125 L920.449 542.4125 Q920.449 552.4125 910.449 552.4125 L850.449 552.4125 Q840.449 552.4125 840.449 542.4125 Z" stroke="none" clip-path="url(#clipPath2)"/>
    </g>
    <g text-rendering="geometricPrecision" stroke-miterlimit="1.45" shape-rendering="geometricPrecision" transform="matrix(0.8,0,0,0.8,-493.6,1.6)" stroke-linecap="butt">
      <path fill="none" d="M840.449 522.4125 Q840.449 512.4125 850.449 512.4125 L910.449 512.4125 Q920.449 512.4125 920.449 522.4125 L920.449 542.4125 Q920.449 552.4125 910.449 552.4125 L850.449 552.4125 Q840.449 552.4125 840.449 542.4125 Z" clip-path="url(#clipPath2)"/>
      <text x="867.1804" font-size="14px" y="537.7035" clip-path="url(#clipPath2)" font-family="sans-serif" stroke="none" xml:space="preserve">PKA</text>
    </g>
    <g fill="white" text-rendering="geometricPrecision" shape-rendering="geometricPrecision" transform="matrix(0.8,0,0,0.8,-493.6,1.6) translate(857.949,503.3012)" stroke="white">
      <rect x="0" y="0" clip-path="url(#clipPath7)" width="45" rx="9" ry="9" height="18" stroke="none"/>
    </g>
    <g text-rendering="geometricPrecision" stroke-miterlimit="1.45" shape-rendering="geometricPrecision" transform="matrix(0.8,0,0,0.8,-493.6,1.6) translate(857.949,503.3012)" stroke-linecap="butt">
      <rect x="0" y="0" clip-path="url(#clipPath7)" fill="none" width="45" rx="9" ry="9" height="18"/>
      <text x="3.9404" font-size="10px" y="12.7793" clip-path="url(#clipPath7)" font-family="sans-serif" stroke="none" xml:space="preserve">inactive</text>
    </g>
    <g fill="white" text-rendering="geometricPrecision" shape-rendering="geometricPrecision" transform="matrix(0.8,0,0,0.8,-493.6,1.6)" stroke="white">
      <rect x="954.5478" width="18" height="18" y="523.3282" clip-path="url(#clipPath2)" stroke="none"/>
    </g>
    <g text-rendering="geometricPrecision" stroke-miterlimit="1.45" shape-rendering="geometricPrecision" transform="matrix(0.8,0,0,0.8,-493.6,1.6)" stroke-linecap="butt">
      <rect fill="none" x="954.5478" width="18" height="18" y="523.3282" clip-path="url(#clipPath2)"/>
    </g>
    <g text-rendering="geometricPrecision" stroke-miterlimit="1.45" shape-rendering="geometricPrecision" transform="matrix(0.8,0,0,0.8,-493.6,1.6)" stroke-linecap="butt">
      <path fill="none" d="M972.5408 212.6371 L1100.5167 212.6371" clip-path="url(#clipPath2)"/>
      <path d="M1111.5167 212.6371 L1099.5167 206.6371 L1099.5167 218.6371 Z" clip-path="url(#clipPath2)" stroke="none"/>
      <path fill="none" d="M1177.2043 271.271 L1177.7378 343.2177" clip-path="url(#clipPath2)"/>
      <path fill="white" d="M1177.7971 351.2175 C1175.588 351.2339 1173.7839 349.4563 1173.7676 347.2473 C1173.7512 345.0382 1175.5287 343.2341 1177.7378 343.2177 C1179.9469 343.2013 1181.751 344.9789 1181.7673 347.1879 C1181.7837 349.397 1180.0062 351.2011 1177.7971 351.2175 Z" clip-path="url(#clipPath2)" stroke="none"/>
      <path fill="none" d="M1177.7971 351.2175 C1175.588 351.2339 1173.7839 349.4563 1173.7676 347.2473 C1173.7512 345.0382 1175.5287 343.2341 1177.7378 343.2177 C1179.9469 343.2013 1181.751 344.9789 1181.7673 347.1879 C1181.7837 349.397 1180.0062 351.2011 1177.7971 351.2175 Z" clip-path="url(#clipPath2)"/>
      <path fill="none" d="M920.4271 532.4125 L954.5441 532.4125" clip-path="url(#clipPath2)"/>
      <path fill="none" d="M972.5511 532.405 L995.6667 532.405" clip-path="url(#clipPath2)"/>
      <path d="M1006.6667 532.405 L994.6667 526.405 L994.6667 538.405 Z" clip-path="url(#clipPath2)" stroke="none"/>
    </g>
    <g fill="white" text-rendering="geometricPrecision" shape-rendering="geometricPrecision" transform="matrix(0.8,0,0,0.8,-493.6,1.6)" stroke="white">
      <path d="M1231.7686 297.9572 L1338.9561 297.9572 L1350.9561 309.9572 L1350.9561 403.1946 L1338.9561 415.1946 L1231.7686 415.1946 L1219.7686 403.1946 L1219.7686 309.9572 Z" stroke="none" clip-path="url(#clipPath2)"/>
    </g>
    <g text-rendering="geometricPrecision" stroke-miterlimit="1.45" shape-rendering="geometricPrecision" transform="matrix(0.8,0,0,0.8,-493.6,1.6)" stroke-linecap="butt">
      <path fill="none" d="M1231.7686 297.9572 L1338.9561 297.9572 L1350.9561 309.9572 L1350.9561 403.1946 L1338.9561 415.1946 L1231.7686 415.1946 L1219.7686 403.1946 L1219.7686 309.9572 Z" clip-path="url(#clipPath2)"/>
    </g>
    <g fill="rgb(219,235,219)" text-rendering="geometricPrecision" shape-rendering="geometricPrecision" transform="matrix(0.8,0,0,0.8,-493.6,1.6)" stroke="rgb(219,235,219)">
      <rect x="1230.3622" y="311.9572" clip-path="url(#clipPath2)" width="110" rx="14.5" ry="14.5" height="29" stroke="none"/>
    </g>
    <g text-rendering="geometricPrecision" stroke-miterlimit="1.45" shape-rendering="geometricPrecision" transform="matrix(0.8,0,0,0.8,-493.6,1.6)" stroke-linecap="butt">
      <rect x="1230.3622" y="311.9572" clip-path="url(#clipPath2)" fill="none" width="110" rx="14.5" ry="14.5" height="29"/>
      <text x="1231.7686" font-size="14px" y="331.7482" clip-path="url(#clipPath2)" font-family="sans-serif" stroke="none" xml:space="preserve">PtdIns(3,4,5)P3 </text>
    </g>
    <g fill="rgb(200,216,235)" text-rendering="geometricPrecision" shape-rendering="geometricPrecision" transform="matrix(0.8,0,0,0.8,-493.6,1.6)" stroke="rgb(200,216,235)">
      <path d="M1245.3623 361.8743 Q1245.3623 351.8743 1255.3623 351.8743 L1315.3623 351.8743 Q1325.3623 351.8743 1325.3623 361.8743 L1325.3623 381.8743 Q1325.3623 391.8743 1315.3623 391.8743 L1255.3623 391.8743 Q1245.3623 391.8743 1245.3623 381.8743 Z" stroke="none" clip-path="url(#clipPath2)"/>
    </g>
    <g text-rendering="geometricPrecision" stroke-miterlimit="1.45" shape-rendering="geometricPrecision" transform="matrix(0.8,0,0,0.8,-493.6,1.6)" stroke-linecap="butt">
      <path fill="none" d="M1245.3623 361.8743 Q1245.3623 351.8743 1255.3623 351.8743 L1315.3623 351.8743 Q1325.3623 351.8743 1325.3623 361.8743 L1325.3623 381.8743 Q1325.3623 391.8743 1315.3623 391.8743 L1255.3623 391.8743 Q1245.3623 391.8743 1245.3623 381.8743 Z" clip-path="url(#clipPath2)"/>
      <text x="1271.5366" font-size="14px" y="377.1653" clip-path="url(#clipPath2)" font-family="sans-serif" stroke="none" xml:space="preserve">AKT</text>
    </g>
    <g fill="white" text-rendering="geometricPrecision" shape-rendering="geometricPrecision" transform="matrix(0.8,0,0,0.8,-493.6,1.6) translate(1257.3622,382.261)" stroke="white">
      <rect x="0" y="0" clip-path="url(#clipPath8)" width="18" rx="9" ry="9" height="18" stroke="none"/>
    </g>
    <g text-rendering="geometricPrecision" stroke-miterlimit="1.45" shape-rendering="geometricPrecision" transform="matrix(0.8,0,0,0.8,-493.6,1.6) translate(1257.3622,382.261)" stroke-linecap="butt">
      <rect x="0" y="0" clip-path="url(#clipPath8)" fill="none" width="18" rx="9" ry="9" height="18"/>
      <text x="5.6836" xml:space="preserve" y="13.5352" clip-path="url(#clipPath8)" font-family="sans-serif" stroke="none">P</text>
    </g>
    <g fill="rgb(226,172,163)" text-rendering="geometricPrecision" shape-rendering="geometricPrecision" transform="matrix(0.8,0,0,0.8,-493.6,1.6)" stroke="rgb(226,172,163)">
      <path d="M1136.6696 455.1946 Q1136.6696 445.1946 1146.6696 445.1946 L1206.6696 445.1946 Q1216.6696 445.1946 1216.6696 455.1946 L1216.6696 475.1946 Q1216.6696 485.1946 1206.6696 485.1946 L1146.6696 485.1946 Q1136.6696 485.1946 1136.6696 475.1946 Z" stroke="none" clip-path="url(#clipPath2)"/>
    </g>
    <g text-rendering="geometricPrecision" stroke-miterlimit="1.45" shape-rendering="geometricPrecision" transform="matrix(0.8,0,0,0.8,-493.6,1.6)" stroke-linecap="butt">
      <path fill="none" d="M1136.6696 455.1946 Q1136.6696 445.1946 1146.6696 445.1946 L1206.6696 445.1946 Q1216.6696 445.1946 1216.6696 455.1946 L1216.6696 475.1946 Q1216.6696 485.1946 1206.6696 485.1946 L1146.6696 485.1946 Q1136.6696 485.1946 1136.6696 475.1946 Z" clip-path="url(#clipPath2)"/>
      <text x="1155.3107" font-size="14px" y="470.4856" clip-path="url(#clipPath2)" font-family="sans-serif" stroke="none" xml:space="preserve">PDE3B</text>
    </g>
    <g fill="white" text-rendering="geometricPrecision" shape-rendering="geometricPrecision" transform="matrix(0.8,0,0,0.8,-493.6,1.6) translate(1149.1696,477.1946)" stroke="white">
      <rect x="0" y="0" clip-path="url(#clipPath9)" width="18" rx="9" ry="9" height="18" stroke="none"/>
    </g>
    <g text-rendering="geometricPrecision" stroke-miterlimit="1.45" shape-rendering="geometricPrecision" transform="matrix(0.8,0,0,0.8,-493.6,1.6) translate(1149.1696,477.1946)" stroke-linecap="butt">
      <rect x="0" y="0" clip-path="url(#clipPath9)" fill="none" width="18" rx="9" ry="9" height="18"/>
    </g>
    <g fill="rgb(226,172,163)" text-rendering="geometricPrecision" shape-rendering="geometricPrecision" transform="matrix(0.8,0,0,0.8,-493.6,1.6)" stroke="rgb(226,172,163)">
      <path d="M1136.6696 589.1946 Q1136.6696 579.1946 1146.6696 579.1946 L1206.6696 579.1946 Q1216.6696 579.1946 1216.6696 589.1946 L1216.6696 609.1946 Q1216.6696 619.1946 1206.6696 619.1946 L1146.6696 619.1946 Q1136.6696 619.1946 1136.6696 609.1946 Z" stroke="none" clip-path="url(#clipPath2)"/>
    </g>
    <g text-rendering="geometricPrecision" stroke-miterlimit="1.45" shape-rendering="geometricPrecision" transform="matrix(0.8,0,0,0.8,-493.6,1.6)" stroke-linecap="butt">
      <path fill="none" d="M1136.6696 589.1946 Q1136.6696 579.1946 1146.6696 579.1946 L1206.6696 579.1946 Q1216.6696 579.1946 1216.6696 589.1946 L1216.6696 609.1946 Q1216.6696 619.1946 1206.6696 619.1946 L1146.6696 619.1946 Q1136.6696 619.1946 1136.6696 609.1946 Z" clip-path="url(#clipPath2)"/>
      <text x="1155.3107" font-size="14px" y="604.4857" clip-path="url(#clipPath2)" font-family="sans-serif" stroke="none" xml:space="preserve">PDE3B</text>
    </g>
    <g fill="white" text-rendering="geometricPrecision" shape-rendering="geometricPrecision" transform="matrix(0.8,0,0,0.8,-493.6,1.6) translate(1147.1696,610.3813)" stroke="white">
      <rect x="0" y="0" clip-path="url(#clipPath10)" width="18" rx="9" ry="9" height="18" stroke="none"/>
    </g>
    <g text-rendering="geometricPrecision" stroke-miterlimit="1.45" shape-rendering="geometricPrecision" transform="matrix(0.8,0,0,0.8,-493.6,1.6) translate(1147.1696,610.3813)" stroke-linecap="butt">
      <rect x="0" y="0" clip-path="url(#clipPath10)" fill="none" width="18" rx="9" ry="9" height="18"/>
      <text x="5.6836" xml:space="preserve" y="13.5352" clip-path="url(#clipPath10)" font-family="sans-serif" stroke="none">P</text>
    </g>
    <g fill="white" text-rendering="geometricPrecision" shape-rendering="geometricPrecision" transform="matrix(0.8,0,0,0.8,-493.6,1.6)" stroke="white">
      <rect x="1167.6696" width="18" height="18" y="523.1946" clip-path="url(#clipPath2)" stroke="none"/>
    </g>
    <g text-rendering="geometricPrecision" stroke-miterlimit="1.45" shape-rendering="geometricPrecision" transform="matrix(0.8,0,0,0.8,-493.6,1.6)" stroke-linecap="butt">
      <rect fill="none" x="1167.6696" width="18" height="18" y="523.1946" clip-path="url(#clipPath2)"/>
    </g>
    <g fill="rgb(219,235,219)" text-rendering="geometricPrecision" shape-rendering="geometricPrecision" transform="matrix(0.8,0,0,0.8,-493.6,1.6)" stroke="rgb(219,235,219)">
      <rect x="1028.7946" y="687.5696" clip-path="url(#clipPath2)" width="94.75" rx="14.5" ry="14.5" height="29" stroke="none"/>
    </g>
    <g text-rendering="geometricPrecision" stroke-miterlimit="1.45" shape-rendering="geometricPrecision" transform="matrix(0.8,0,0,0.8,-493.6,1.6)" stroke-linecap="butt">
      <rect x="1028.7946" y="687.5696" clip-path="url(#clipPath2)" fill="none" width="94.75" rx="14.5" ry="14.5" height="29"/>
      <text x="1057.8561" font-size="14px" y="707.3607" clip-path="url(#clipPath2)" font-family="sans-serif" stroke="none" xml:space="preserve">cAMP</text>
    </g>
    <g fill="rgb(219,235,219)" text-rendering="geometricPrecision" shape-rendering="geometricPrecision" transform="matrix(0.8,0,0,0.8,-493.6,1.6)" stroke="rgb(219,235,219)">
      <rect x="1229.7946" y="687.5696" clip-path="url(#clipPath2)" width="94.75" rx="14.5" ry="14.5" height="29" stroke="none"/>
    </g>
    <g text-rendering="geometricPrecision" stroke-miterlimit="1.45" shape-rendering="geometricPrecision" transform="matrix(0.8,0,0,0.8,-493.6,1.6)" stroke-linecap="butt">
      <rect x="1229.7946" y="687.5696" clip-path="url(#clipPath2)" fill="none" width="94.75" rx="14.5" ry="14.5" height="29"/>
      <text x="1262.4415" font-size="14px" y="707.3607" clip-path="url(#clipPath2)" font-family="sans-serif" stroke="none" xml:space="preserve">AMP</text>
    </g>
    <g fill="white" text-rendering="geometricPrecision" shape-rendering="geometricPrecision" transform="matrix(0.8,0,0,0.8,-493.6,1.6)" stroke="white">
      <rect x="1167.6696" width="18" height="18" y="693.0696" clip-path="url(#clipPath2)" stroke="none"/>
    </g>
    <g text-rendering="geometricPrecision" stroke-miterlimit="1.45" shape-rendering="geometricPrecision" transform="matrix(0.8,0,0,0.8,-493.6,1.6)" stroke-linecap="butt">
      <rect fill="none" x="1167.6696" width="18" height="18" y="693.0696" clip-path="url(#clipPath2)"/>
    </g>
    <g fill="rgb(200,216,235)" text-rendering="geometricPrecision" shape-rendering="geometricPrecision" transform="matrix(0.8,0,0,0.8,-493.6,1.6)" stroke="rgb(200,216,235)">
      <path d="M826.4834 351.2271 Q826.4834 341.2271 836.4834 341.2271 L896.4834 341.2271 Q906.4834 341.2271 906.4834 351.2271 L906.4834 371.2271 Q906.4834 381.2271 896.4834 381.2271 L836.4834 381.2271 Q826.4834 381.2271 826.4834 371.2271 Z" stroke="none" clip-path="url(#clipPath2)"/>
    </g>
    <g text-rendering="geometricPrecision" stroke-miterlimit="1.45" shape-rendering="geometricPrecision" transform="matrix(0.8,0,0,0.8,-493.6,1.6)" stroke-linecap="butt">
      <path fill="none" d="M826.4834 351.2271 Q826.4834 341.2271 836.4834 341.2271 L896.4834 341.2271 Q906.4834 341.2271 906.4834 351.2271 L906.4834 371.2271 Q906.4834 381.2271 896.4834 381.2271 L836.4834 381.2271 Q826.4834 381.2271 826.4834 371.2271 Z" clip-path="url(#clipPath2)"/>
      <text x="852.6577" font-size="14px" y="366.5182" clip-path="url(#clipPath2)" font-family="sans-serif" stroke="none" xml:space="preserve">AKT</text>
    </g>
    <g fill="white" text-rendering="geometricPrecision" shape-rendering="geometricPrecision" transform="matrix(0.8,0,0,0.8,-493.6,1.6) translate(841.9834,372.2272)" stroke="white">
      <rect x="0" y="0" clip-path="url(#clipPath11)" width="18" rx="9" ry="9" height="18" stroke="none"/>
    </g>
    <g text-rendering="geometricPrecision" stroke-miterlimit="1.45" shape-rendering="geometricPrecision" transform="matrix(0.8,0,0,0.8,-493.6,1.6) translate(841.9834,372.2272)" stroke-linecap="butt">
      <rect x="0" y="0" clip-path="url(#clipPath11)" fill="none" width="18" rx="9" ry="9" height="18"/>
    </g>
    <g text-rendering="geometricPrecision" stroke-miterlimit="1.45" shape-rendering="geometricPrecision" transform="matrix(0.8,0,0,0.8,-493.6,1.6)" stroke-linecap="butt">
      <path fill="none" d="M1185.6708 360.2487 L1208.7893 360.2487" clip-path="url(#clipPath2)"/>
      <path d="M1219.7893 360.2487 L1207.7893 354.2487 L1207.7893 366.2487 Z" clip-path="url(#clipPath2)" stroke="none"/>
      <path fill="none" d="M1176.6696 485.1834 L1176.6696 523.1505" clip-path="url(#clipPath2)"/>
      <path fill="none" d="M1287.527 415.2003 L1287.527 522.1946 L1286.902 526.5696 L1285.027 529.6946 L1281.902 531.5696 L1277.527 532.1946 L1193.6821 532.1946" clip-path="url(#clipPath2)"/>
      <path fill="white" d="M1185.6821 532.1946 C1185.6821 529.9855 1187.473 528.1946 1189.6821 528.1946 C1191.8912 528.1946 1193.6821 529.9855 1193.6821 532.1946 C1193.6821 534.4038 1191.8912 536.1946 1189.6821 536.1946 C1187.473 536.1946 1185.6821 534.4038 1185.6821 532.1946 Z" clip-path="url(#clipPath2)" stroke="none"/>
      <path fill="none" d="M1185.6821 532.1946 C1185.6821 529.9855 1187.473 528.1946 1189.6821 528.1946 C1191.8912 528.1946 1193.6821 529.9855 1193.6821 532.1946 C1193.6821 534.4038 1191.8912 536.1946 1189.6821 536.1946 C1187.473 536.1946 1185.6821 534.4038 1185.6821 532.1946 Z" clip-path="url(#clipPath2)"/>
      <path fill="none" d="M1086.6758 532.1946 L1159.6615 532.1946" clip-path="url(#clipPath2)"/>
      <path fill="white" d="M1167.6615 532.1946 C1167.6615 534.4038 1165.8706 536.1946 1163.6615 536.1946 C1161.4524 536.1946 1159.6615 534.4038 1159.6615 532.1946 C1159.6615 529.9855 1161.4524 528.1946 1163.6615 528.1946 C1165.8706 528.1946 1167.6615 529.9855 1167.6615 532.1946 Z" clip-path="url(#clipPath2)" stroke="none"/>
      <path fill="none" d="M1167.6615 532.1946 C1167.6615 534.4038 1165.8706 536.1946 1163.6615 536.1946 C1161.4524 536.1946 1159.6615 534.4038 1159.6615 532.1946 C1159.6615 529.9855 1161.4524 528.1946 1163.6615 528.1946 C1165.8706 528.1946 1167.6615 529.9855 1167.6615 532.1946 Z" clip-path="url(#clipPath2)"/>
      <path fill="none" d="M1176.6696 541.1912 L1176.6696 568.171" clip-path="url(#clipPath2)"/>
      <path d="M1176.6696 579.171 L1182.6696 567.171 L1170.6696 567.171 Z" clip-path="url(#clipPath2)" stroke="none"/>
      <path fill="none" d="M1028.7948 702.0696 L973.5479 702.0696 L969.1729 701.4446 L966.0479 699.5696 L964.1729 696.4446 L963.5479 692.0696 L963.5479 556.3208" clip-path="url(#clipPath2)"/>
      <path fill="white" d="M963.5479 541.3208 L957.5479 557.3208 L969.5479 557.3208 Z" clip-path="url(#clipPath2)" stroke="none"/>
      <path fill="none" d="M963.5479 541.3208 L957.5479 557.3208 L969.5479 557.3208 Z" clip-path="url(#clipPath2)"/>
      <path fill="none" d="M1176.6696 619.1633 L1176.6696 680.2922" clip-path="url(#clipPath2)"/>
      <path fill="white" d="M1176.6696 688.2922 C1174.4604 688.2922 1172.6696 686.5013 1172.6696 684.2922 C1172.6696 682.083 1174.4604 680.2922 1176.6696 680.2922 C1178.8787 680.2922 1180.6696 682.083 1180.6696 684.2922 C1180.6696 686.5013 1178.8787 688.2922 1176.6696 688.2922 Z" clip-path="url(#clipPath2)" stroke="none"/>
      <path fill="none" d="M1176.6696 688.2922 C1174.4604 688.2922 1172.6696 686.5013 1172.6696 684.2922 C1172.6696 682.083 1174.4604 680.2922 1176.6696 680.2922 C1178.8787 680.2922 1180.6696 682.083 1180.6696 684.2922 C1180.6696 686.5013 1178.8787 688.2922 1176.6696 688.2922 Z" clip-path="url(#clipPath2)"/>
      <path fill="none" d="M1123.5243 702.0696 L1167.665 702.0696" clip-path="url(#clipPath2)"/>
      <path fill="none" d="M1185.6498 702.0696 L1218.7563 702.0696" clip-path="url(#clipPath2)"/>
      <path d="M1229.7563 702.0696 L1217.7563 696.0696 L1217.7563 708.0696 Z" clip-path="url(#clipPath2)" stroke="none"/>
      <path fill="none" d="M906.4525 361.2271 L938.099 361.2271 L954.5513 361.2271" clip-path="url(#clipPath2)"/>
    </g>
  </g>
</svg>
