<?xml version="1.0" encoding="UTF-8"?><svg xmlns="http://www.w3.org/2000/svg" xmlns:xlink="http://www.w3.org/1999/xlink" fill-opacity="1" color-rendering="auto" color-interpolation="auto" text-rendering="auto" stroke="black" stroke-linecap="square" width="518" stroke-miterlimit="10" shape-rendering="auto" stroke-opacity="1" fill="black" stroke-dasharray="none" font-weight="normal" stroke-width="1" height="341" font-family="'Dialog'" font-style="normal" stroke-linejoin="miter" font-size="12px" stroke-dashoffset="0" image-rendering="auto">
  <!--Generated by ySVG 2.5-->
  <defs id="genericDefs"/>
  <g>
    <defs id="defs1">
      <clipPath clipPathUnits="userSpaceOnUse" id="clipPath1">
        <path d="M0 0 L518 0 L518 341 L0 341 L0 0 Z"/>
      </clipPath>
      <clipPath clipPathUnits="userSpaceOnUse" id="clipPath2">
        <path d="M232 -48 L750 -48 L750 293 L232 293 L232 -48 Z"/>
      </clipPath>
      <clipPath clipPathUnits="userSpaceOnUse" id="clipPath3">
        <path d="M-123 -232.5 L395 -232.5 L395 108.5 L-123 108.5 L-123 -232.5 Z"/>
      </clipPath>
      <clipPath clipPathUnits="userSpaceOnUse" id="clipPath4">
        <path d="M-223 -132.8867 L295 -132.8867 L295 208.1133 L-223 208.1133 L-223 -132.8867 Z"/>
      </clipPath>
      <clipPath clipPathUnits="userSpaceOnUse" id="clipPath5">
        <path d="M-27 -133.5 L491 -133.5 L491 207.5 L-27 207.5 L-27 -133.5 Z"/>
      </clipPath>
      <clipPath clipPathUnits="userSpaceOnUse" id="clipPath6">
        <path d="M-322 -229.6867 L196 -229.6867 L196 111.3133 L-322 111.3133 L-322 -229.6867 Z"/>
      </clipPath>
    </defs>
    <g fill="white" text-rendering="geometricPrecision" shape-rendering="geometricPrecision" transform="translate(-232,48)" stroke="white">
      <rect x="232" width="518" height="341" y="-48" clip-path="url(#clipPath2)" stroke="none"/>
    </g>
    <g fill="rgb(226,172,163)" text-rendering="geometricPrecision" shape-rendering="geometricPrecision" transform="matrix(1,0,0,1,-232,48)" stroke="rgb(226,172,163)">
      <path d="M346 161 Q346 151 356 151 L416 151 Q426 151 426 161 L426 181 Q426 191 416 191 L356 191 Q346 191 346 181 Z" stroke="none" clip-path="url(#clipPath2)"/>
    </g>
    <g text-rendering="geometricPrecision" stroke-miterlimit="1.45" shape-rendering="geometricPrecision" transform="matrix(1,0,0,1,-232,48)" stroke-linecap="butt">
      <path fill="none" d="M346 161 Q346 151 356 151 L416 151 Q426 151 426 161 L426 181 Q426 191 416 191 L356 191 Q346 191 346 181 Z" clip-path="url(#clipPath2)"/>
      <text x="364.6411" font-size="14px" y="176.291" clip-path="url(#clipPath2)" font-family="sans-serif" stroke="none" xml:space="preserve">PDE3B</text>
    </g>
    <g fill="white" text-rendering="geometricPrecision" shape-rendering="geometricPrecision" transform="matrix(1,0,0,1,-232,48) translate(355,184.5)" stroke="white">
      <rect x="0" y="0" clip-path="url(#clipPath3)" width="25" rx="7.5" ry="7.5" height="15" stroke="none"/>
    </g>
    <g text-rendering="geometricPrecision" stroke-miterlimit="1.45" shape-rendering="geometricPrecision" transform="matrix(1,0,0,1,-232,48) translate(355,184.5)" stroke-linecap="butt">
      <rect x="0" y="0" clip-path="url(#clipPath3)" fill="none" width="25" rx="7.5" ry="7.5" height="15"/>
    </g>
    <g fill="rgb(200,216,235)" text-rendering="geometricPrecision" shape-rendering="geometricPrecision" transform="matrix(1,0,0,1,-232,48)" stroke="rgb(200,216,235)">
      <path d="M346.75 -23 Q346.75 -33 356.75 -33 L416.75 -33 Q426.75 -33 426.75 -23 L426.75 -3 Q426.75 7 416.75 7 L356.75 7 Q346.75 7 346.75 -3 Z" stroke="none" clip-path="url(#clipPath2)"/>
    </g>
    <g text-rendering="geometricPrecision" stroke-miterlimit="1.45" shape-rendering="geometricPrecision" transform="matrix(1,0,0,1,-232,48)" stroke-linecap="butt">
      <path fill="none" d="M346.75 -23 Q346.75 -33 356.75 -33 L416.75 -33 Q426.75 -33 426.75 -23 L426.75 -3 Q426.75 7 416.75 7 L356.75 7 Q346.75 7 346.75 -3 Z" clip-path="url(#clipPath2)"/>
      <text x="373.0679" font-size="14px" y="-7.709" clip-path="url(#clipPath2)" font-family="sans-serif" stroke="none" xml:space="preserve">PDK</text>
    </g>
    <g fill="rgb(200,216,235)" text-rendering="geometricPrecision" shape-rendering="geometricPrecision" transform="matrix(1,0,0,1,-232,48)" stroke="rgb(200,216,235)">
      <path d="M446.5 63 Q446.5 53 456.5 53 L516.5 53 Q526.5 53 526.5 63 L526.5 83 Q526.5 93 516.5 93 L456.5 93 Q446.5 93 446.5 83 Z" stroke="none" clip-path="url(#clipPath2)"/>
    </g>
    <g text-rendering="geometricPrecision" stroke-miterlimit="1.45" shape-rendering="geometricPrecision" transform="matrix(1,0,0,1,-232,48)" stroke-linecap="butt">
      <path fill="none" d="M446.5 63 Q446.5 53 456.5 53 L516.5 53 Q526.5 53 526.5 63 L526.5 83 Q526.5 93 516.5 93 L456.5 93 Q446.5 93 446.5 83 Z" clip-path="url(#clipPath2)"/>
      <text x="472.6743" font-size="14px" y="78.291" clip-path="url(#clipPath2)" font-family="sans-serif" stroke="none" xml:space="preserve">AKT</text>
    </g>
    <g fill="white" text-rendering="geometricPrecision" shape-rendering="geometricPrecision" transform="matrix(1,0,0,1,-232,48) translate(455,84.8867)" stroke="white">
      <rect x="0" y="0" clip-path="url(#clipPath4)" width="25" rx="7.5" ry="7.5" height="15" stroke="none"/>
    </g>
    <g text-rendering="geometricPrecision" stroke-miterlimit="1.45" shape-rendering="geometricPrecision" transform="matrix(1,0,0,1,-232,48) translate(455,84.8867)" stroke-linecap="butt">
      <rect x="0" y="0" clip-path="url(#clipPath4)" fill="none" width="25" rx="7.5" ry="7.5" height="15"/>
      <text x="9.1836" xml:space="preserve" y="12.0352" clip-path="url(#clipPath4)" font-family="sans-serif" stroke="none">P</text>
    </g>
    <g fill="rgb(200,216,235)" text-rendering="geometricPrecision" shape-rendering="geometricPrecision" transform="matrix(1,0,0,1,-232,48)" stroke="rgb(200,216,235)">
      <path d="M247 63 Q247 53 257 53 L317 53 Q327 53 327 63 L327 83 Q327 93 317 93 L257 93 Q247 93 247 83 Z" stroke="none" clip-path="url(#clipPath2)"/>
    </g>
    <g text-rendering="geometricPrecision" stroke-miterlimit="1.45" shape-rendering="geometricPrecision" transform="matrix(1,0,0,1,-232,48)" stroke-linecap="butt">
      <path fill="none" d="M247 63 Q247 53 257 53 L317 53 Q327 53 327 63 L327 83 Q327 93 317 93 L257 93 Q247 93 247 83 Z" clip-path="url(#clipPath2)"/>
      <text x="273.1743" font-size="14px" y="78.291" clip-path="url(#clipPath2)" font-family="sans-serif" stroke="none" xml:space="preserve">AKT</text>
    </g>
    <g fill="white" text-rendering="geometricPrecision" shape-rendering="geometricPrecision" transform="matrix(1,0,0,1,-232,48) translate(259,85.5)" stroke="white">
      <rect x="0" y="0" clip-path="url(#clipPath5)" width="25" rx="7.5" ry="7.5" height="15" stroke="none"/>
    </g>
    <g text-rendering="geometricPrecision" stroke-miterlimit="1.45" shape-rendering="geometricPrecision" transform="matrix(1,0,0,1,-232,48) translate(259,85.5)" stroke-linecap="butt">
      <rect x="0" y="0" clip-path="url(#clipPath5)" fill="none" width="25" rx="7.5" ry="7.5" height="15"/>
    </g>
    <g fill="white" text-rendering="geometricPrecision" shape-rendering="geometricPrecision" transform="matrix(1,0,0,1,-232,48)" stroke="white">
      <rect x="377.75" width="18" height="18" y="64" clip-path="url(#clipPath2)" stroke="none"/>
    </g>
    <g text-rendering="geometricPrecision" stroke-miterlimit="1.45" shape-rendering="geometricPrecision" transform="matrix(1,0,0,1,-232,48)" stroke-linecap="butt">
      <rect fill="none" x="377.75" width="18" height="18" y="64" clip-path="url(#clipPath2)"/>
    </g>
    <g fill="rgb(226,172,163)" text-rendering="geometricPrecision" shape-rendering="geometricPrecision" transform="matrix(1,0,0,1,-232,48)" stroke="rgb(226,172,163)">
      <path d="M547 161 Q547 151 557 151 L617 151 Q627 151 627 161 L627 181 Q627 191 617 191 L557 191 Q547 191 547 181 Z" stroke="none" clip-path="url(#clipPath2)"/>
    </g>
    <g text-rendering="geometricPrecision" stroke-miterlimit="1.45" shape-rendering="geometricPrecision" transform="matrix(1,0,0,1,-232,48)" stroke-linecap="butt">
      <path fill="none" d="M547 161 Q547 151 557 151 L617 151 Q627 151 627 161 L627 181 Q627 191 617 191 L557 191 Q547 191 547 181 Z" clip-path="url(#clipPath2)"/>
      <text x="565.6411" font-size="14px" y="176.291" clip-path="url(#clipPath2)" font-family="sans-serif" stroke="none" xml:space="preserve">PDE3B</text>
    </g>
    <g fill="white" text-rendering="geometricPrecision" shape-rendering="geometricPrecision" transform="matrix(1,0,0,1,-232,48) translate(554,181.6867)" stroke="white">
      <rect x="0" y="0" clip-path="url(#clipPath6)" width="25" rx="7.5" ry="7.5" height="15" stroke="none"/>
    </g>
    <g text-rendering="geometricPrecision" stroke-miterlimit="1.45" shape-rendering="geometricPrecision" transform="matrix(1,0,0,1,-232,48) translate(554,181.6867)" stroke-linecap="butt">
      <rect x="0" y="0" clip-path="url(#clipPath6)" fill="none" width="25" rx="7.5" ry="7.5" height="15"/>
      <text x="9.1836" xml:space="preserve" y="12.0352" clip-path="url(#clipPath6)" font-family="sans-serif" stroke="none">P</text>
    </g>
    <g fill="white" text-rendering="geometricPrecision" shape-rendering="geometricPrecision" transform="matrix(1,0,0,1,-232,48)" stroke="white">
      <rect x="477.5" width="18" height="18" y="162" clip-path="url(#clipPath2)" stroke="none"/>
    </g>
    <g text-rendering="geometricPrecision" stroke-miterlimit="1.45" shape-rendering="geometricPrecision" transform="matrix(1,0,0,1,-232,48)" stroke-linecap="butt">
      <rect fill="none" x="477.5" width="18" height="18" y="162" clip-path="url(#clipPath2)"/>
    </g>
    <g fill="rgb(219,235,219)" text-rendering="geometricPrecision" shape-rendering="geometricPrecision" transform="matrix(1,0,0,1,-232,48)" stroke="rgb(219,235,219)">
      <rect x="439.125" y="249" clip-path="url(#clipPath2)" width="94.75" rx="14.5" ry="14.5" height="29" stroke="none"/>
    </g>
    <g text-rendering="geometricPrecision" stroke-miterlimit="1.45" shape-rendering="geometricPrecision" transform="matrix(1,0,0,1,-232,48)" stroke-linecap="butt">
      <rect x="439.125" y="249" clip-path="url(#clipPath2)" fill="none" width="94.75" rx="14.5" ry="14.5" height="29"/>
      <text x="468.1865" font-size="14px" y="268.791" clip-path="url(#clipPath2)" font-family="sans-serif" stroke="none" xml:space="preserve">cAMP</text>
    </g>
    <g fill="rgb(219,235,219)" text-rendering="geometricPrecision" shape-rendering="geometricPrecision" transform="matrix(1,0,0,1,-232,48)" stroke="rgb(219,235,219)">
      <rect x="640.125" y="249" clip-path="url(#clipPath2)" width="94.75" rx="14.5" ry="14.5" height="29" stroke="none"/>
    </g>
    <g text-rendering="geometricPrecision" stroke-miterlimit="1.45" shape-rendering="geometricPrecision" transform="matrix(1,0,0,1,-232,48)" stroke-linecap="butt">
      <rect x="640.125" y="249" clip-path="url(#clipPath2)" fill="none" width="94.75" rx="14.5" ry="14.5" height="29"/>
      <text x="672.772" font-size="14px" y="268.791" clip-path="url(#clipPath2)" font-family="sans-serif" stroke="none" xml:space="preserve">AMP</text>
    </g>
    <g fill="white" text-rendering="geometricPrecision" shape-rendering="geometricPrecision" transform="matrix(1,0,0,1,-232,48)" stroke="white">
      <rect x="578" width="18" height="18" y="254.5" clip-path="url(#clipPath2)" stroke="none"/>
    </g>
    <g text-rendering="geometricPrecision" stroke-miterlimit="1.45" shape-rendering="geometricPrecision" transform="matrix(1,0,0,1,-232,48)" stroke-linecap="butt">
      <rect fill="none" x="578" width="18" height="18" y="254.5" clip-path="url(#clipPath2)"/>
    </g>
    <g text-rendering="geometricPrecision" stroke-miterlimit="1.45" shape-rendering="geometricPrecision" transform="matrix(1,0,0,1,-232,48)" stroke-linecap="butt">
      <path fill="none" d="M326.9877 73 L377.7331 73" clip-path="url(#clipPath2)"/>
    </g>
    <g text-rendering="geometricPrecision" stroke-miterlimit="1.45" shape-rendering="geometricPrecision" transform="matrix(1,0,0,1,-232,48)" stroke-linecap="butt">
      <path fill="none" d="M386.75 6.9719 L386.75 51.3938" clip-path="url(#clipPath2)"/>
      <path fill="white" d="M386.75 59.3938 C384.5409 59.3938 382.75 57.6029 382.75 55.3938 C382.75 53.1846 384.5409 51.3938 386.75 51.3938 C388.9591 51.3938 390.75 53.1846 390.75 55.3938 C390.75 57.6029 388.9591 59.3938 386.75 59.3938 Z" clip-path="url(#clipPath2)" stroke="none"/>
      <path fill="none" d="M386.75 59.3938 C384.5409 59.3938 382.75 57.6029 382.75 55.3938 C382.75 53.1846 384.5409 51.3938 386.75 51.3938 C388.9591 51.3938 390.75 53.1846 390.75 55.3938 C390.75 57.6029 388.9591 59.3938 386.75 59.3938 Z" clip-path="url(#clipPath2)"/>
      <path fill="none" d="M395.7606 73 L435.4914 73" clip-path="url(#clipPath2)"/>
      <path d="M446.4914 73 L434.4914 67 L434.4914 79 Z" clip-path="url(#clipPath2)" stroke="none"/>
      <path fill="none" d="M425.9939 171 L477.4891 171" clip-path="url(#clipPath2)"/>
      <path fill="none" d="M486.5 93.0048 L486.5 149.8238" clip-path="url(#clipPath2)"/>
      <path fill="white" d="M486.5 157.8238 C484.2909 157.8238 482.5 156.0329 482.5 153.8238 C482.5 151.6146 484.2909 149.8238 486.5 149.8238 C488.7091 149.8238 490.5 151.6146 490.5 153.8238 C490.5 156.0329 488.7091 157.8238 486.5 157.8238 Z" clip-path="url(#clipPath2)" stroke="none"/>
      <path fill="none" d="M486.5 157.8238 C484.2909 157.8238 482.5 156.0329 482.5 153.8238 C482.5 151.6146 484.2909 149.8238 486.5 149.8238 C488.7091 149.8238 490.5 151.6146 490.5 153.8238 C490.5 156.0329 488.7091 157.8238 486.5 157.8238 Z" clip-path="url(#clipPath2)"/>
      <path fill="none" d="M495.4802 171 L536.0048 171" clip-path="url(#clipPath2)"/>
      <path d="M547.0048 171 L535.0048 165 L535.0048 177 Z" clip-path="url(#clipPath2)" stroke="none"/>
      <path fill="none" d="M587 191.0266 L587 241.7225" clip-path="url(#clipPath2)"/>
      <path fill="white" d="M587 249.7225 C584.7908 249.7225 583 247.9317 583 245.7225 C583 243.5134 584.7908 241.7225 587 241.7225 C589.2092 241.7225 591 243.5134 591 245.7225 C591 247.9317 589.2092 249.7225 587 249.7225 Z" clip-path="url(#clipPath2)" stroke="none"/>
      <path fill="none" d="M587 249.7225 C584.7908 249.7225 583 247.9317 583 245.7225 C583 243.5134 584.7908 241.7225 587 241.7225 C589.2092 241.7225 591 243.5134 591 245.7225 C591 247.9317 589.2092 249.7225 587 249.7225 Z" clip-path="url(#clipPath2)"/>
      <path fill="none" d="M533.8547 263.5 L577.9954 263.5" clip-path="url(#clipPath2)"/>
      <path fill="none" d="M595.9802 263.5 L629.0867 263.5" clip-path="url(#clipPath2)"/>
      <path d="M640.0867 263.5 L628.0867 257.5 L628.0867 269.5 Z" clip-path="url(#clipPath2)" stroke="none"/>
    </g>
  </g>
</svg>
