<?xml version="1.0" encoding="UTF-8"?><svg xmlns="http://www.w3.org/2000/svg" xmlns:xlink="http://www.w3.org/1999/xlink" fill-opacity="1" color-rendering="auto" color-interpolation="auto" text-rendering="auto" stroke="black" stroke-linecap="square" width="461" stroke-miterlimit="10" shape-rendering="auto" stroke-opacity="1" fill="black" stroke-dasharray="none" font-weight="normal" stroke-width="1" height="225" font-family="'Dialog'" font-style="normal" stroke-linejoin="miter" font-size="12px" stroke-dashoffset="0" image-rendering="auto">
  <!--Generated by ySVG 2.5-->
  <defs id="genericDefs"/>
  <g>
    <defs id="defs1">
      <clipPath clipPathUnits="userSpaceOnUse" id="clipPath1">
        <path d="M0 0 L461 0 L461 225 L0 225 L0 0 Z"/>
      </clipPath>
      <clipPath clipPathUnits="userSpaceOnUse" id="clipPath2">
        <path d="M-240 -308 L221 -308 L221 -83 L-240 -83 L-240 -308 Z"/>
      </clipPath>
      <clipPath clipPathUnits="userSpaceOnUse" id="clipPath3">
        <path d="M-184.1365 -134.1018 L276.8635 -134.1018 L276.8635 90.8982 L-184.1365 90.8982 L-184.1365 -134.1018 Z"/>
      </clipPath>
      <clipPath clipPathUnits="userSpaceOnUse" id="clipPath4">
        <path d="M-375.3781 -134.4324 L85.6219 -134.4324 L85.6219 90.5676 L-375.3781 90.5676 L-375.3781 -134.4324 Z"/>
      </clipPath>
    </defs>
    <g fill="white" text-rendering="geometricPrecision" shape-rendering="geometricPrecision" transform="translate(240,308)" stroke="white">
      <rect x="-240" width="461" height="225" y="-308" clip-path="url(#clipPath2)" stroke="none"/>
    </g>
    <g fill="rgb(200,216,235)" text-rendering="geometricPrecision" shape-rendering="geometricPrecision" transform="matrix(1,0,0,1,240,308)" stroke="rgb(200,216,235)">
      <path d="M29.9288 -282.7107 Q29.9288 -292.7107 39.9288 -292.7107 L99.9288 -292.7107 Q109.9288 -292.7107 109.9288 -282.7107 L109.9288 -262.7107 Q109.9288 -252.7107 99.9288 -252.7107 L39.9288 -252.7107 Q29.9288 -252.7107 29.9288 -262.7107 Z" stroke="none" clip-path="url(#clipPath2)"/>
    </g>
    <g text-rendering="geometricPrecision" stroke-miterlimit="1.45" shape-rendering="geometricPrecision" transform="matrix(1,0,0,1,240,308)" stroke-linecap="butt">
      <path fill="none" d="M29.9288 -282.7107 Q29.9288 -292.7107 39.9288 -292.7107 L99.9288 -292.7107 Q109.9288 -292.7107 109.9288 -282.7107 L109.9288 -262.7107 Q109.9288 -252.7107 99.9288 -252.7107 L39.9288 -252.7107 Q29.9288 -252.7107 29.9288 -262.7107 Z" clip-path="url(#clipPath2)"/>
      <text x="50.6309" font-size="14px" y="-267.4197" clip-path="url(#clipPath2)" font-family="sans-serif" stroke="none" xml:space="preserve">AMPK</text>
    </g>
    <g fill="rgb(226,172,163)" text-rendering="geometricPrecision" shape-rendering="geometricPrecision" transform="matrix(1,0,0,1,240,308)" stroke="rgb(226,172,163)">
      <path d="M-65.5057 -193.7107 Q-65.5057 -203.7107 -55.5057 -203.7107 L4.4943 -203.7107 Q14.4943 -203.7107 14.4943 -193.7107 L14.4943 -173.7107 Q14.4943 -163.7107 4.4943 -163.7107 L-55.5057 -163.7107 Q-65.5057 -163.7107 -65.5057 -173.7107 Z" stroke="none" clip-path="url(#clipPath2)"/>
    </g>
    <g text-rendering="geometricPrecision" stroke-miterlimit="1.45" shape-rendering="geometricPrecision" transform="matrix(1,0,0,1,240,308)" stroke-linecap="butt">
      <path fill="none" d="M-65.5057 -193.7107 Q-65.5057 -203.7107 -55.5057 -203.7107 L4.4943 -203.7107 Q14.4943 -203.7107 14.4943 -193.7107 L14.4943 -173.7107 Q14.4943 -163.7107 4.4943 -163.7107 L-55.5057 -163.7107 Q-65.5057 -163.7107 -65.5057 -173.7107 Z" clip-path="url(#clipPath2)"/>
      <text x="-48.8778" font-size="14px" y="-178.4197" clip-path="url(#clipPath2)" font-family="sans-serif" stroke="none" xml:space="preserve">ACACB</text>
    </g>
    <g fill="white" text-rendering="geometricPrecision" shape-rendering="geometricPrecision" transform="matrix(1,0,0,1,240,308) translate(-55.8635,-173.8982)" stroke="white">
      <circle r="9" clip-path="url(#clipPath3)" cx="9" cy="9" stroke="none"/>
    </g>
    <g text-rendering="geometricPrecision" stroke-miterlimit="1.45" shape-rendering="geometricPrecision" transform="matrix(1,0,0,1,240,308) translate(-55.8635,-173.8982)" stroke-linecap="butt">
      <circle fill="none" r="9" clip-path="url(#clipPath3)" cx="9" cy="9"/>
    </g>
    <g fill="rgb(226,172,163)" text-rendering="geometricPrecision" shape-rendering="geometricPrecision" transform="matrix(1,0,0,1,240,308)" stroke="rgb(226,172,163)">
      <path d="M125.3632 -193.7107 Q125.3632 -203.7107 135.3632 -203.7107 L195.3632 -203.7107 Q205.3632 -203.7107 205.3632 -193.7107 L205.3632 -173.7107 Q205.3632 -163.7107 195.3632 -163.7107 L135.3632 -163.7107 Q125.3632 -163.7107 125.3632 -173.7107 Z" stroke="none" clip-path="url(#clipPath2)"/>
    </g>
    <g text-rendering="geometricPrecision" stroke-miterlimit="1.45" shape-rendering="geometricPrecision" transform="matrix(1,0,0,1,240,308)" stroke-linecap="butt">
      <path fill="none" d="M125.3632 -193.7107 Q125.3632 -203.7107 135.3632 -203.7107 L195.3632 -203.7107 Q205.3632 -203.7107 205.3632 -193.7107 L205.3632 -173.7107 Q205.3632 -163.7107 195.3632 -163.7107 L135.3632 -163.7107 Q125.3632 -163.7107 125.3632 -173.7107 Z" clip-path="url(#clipPath2)"/>
      <text x="141.9911" font-size="14px" y="-178.4197" clip-path="url(#clipPath2)" font-family="sans-serif" stroke="none" xml:space="preserve">ACACB</text>
    </g>
    <g fill="white" text-rendering="geometricPrecision" shape-rendering="geometricPrecision" transform="matrix(1,0,0,1,240,308) translate(135.3781,-173.5675)" stroke="white">
      <circle r="9" clip-path="url(#clipPath4)" cx="9" cy="9" stroke="none"/>
    </g>
    <g text-rendering="geometricPrecision" stroke-miterlimit="1.45" shape-rendering="geometricPrecision" transform="matrix(1,0,0,1,240,308) translate(135.3781,-173.5675)" stroke-linecap="butt">
      <circle fill="none" r="9" clip-path="url(#clipPath4)" cx="9" cy="9"/>
      <text x="5.3877" xml:space="preserve" y="13.1543" clip-path="url(#clipPath4)" font-family="monospace" stroke="none">P</text>
    </g>
    <g fill="white" text-rendering="geometricPrecision" shape-rendering="geometricPrecision" transform="matrix(1,0,0,1,240,308)" stroke="white">
      <rect x="60.9288" width="18" height="18" y="-192.7107" clip-path="url(#clipPath2)" stroke="none"/>
    </g>
    <g text-rendering="geometricPrecision" stroke-miterlimit="1.45" shape-rendering="geometricPrecision" transform="matrix(1,0,0,1,240,308)" stroke-linecap="butt">
      <rect fill="none" x="60.9288" width="18" height="18" y="-192.7107" clip-path="url(#clipPath2)"/>
    </g>
    <g fill="rgb(219,235,219)" text-rendering="geometricPrecision" shape-rendering="geometricPrecision" transform="matrix(1,0,0,1,240,308)" stroke="rgb(219,235,219)">
      <rect x="-224.9839" y="-268.5962" clip-path="url(#clipPath2)" width="120" rx="18" ry="18" height="36" stroke="none"/>
    </g>
    <g text-rendering="geometricPrecision" stroke-miterlimit="1.45" shape-rendering="geometricPrecision" transform="matrix(1,0,0,1,240,308)" stroke-linecap="butt">
      <rect x="-224.9839" y="-268.5962" clip-path="url(#clipPath2)" fill="none" width="120" rx="18" ry="18" height="36"/>
      <text x="-203.6206" font-size="14px" y="-245.3052" clip-path="url(#clipPath2)" font-family="sans-serif" stroke="none" xml:space="preserve">Acetyl-CoA</text>
    </g>
    <g fill="rgb(219,235,219)" text-rendering="geometricPrecision" shape-rendering="geometricPrecision" transform="matrix(1,0,0,1,240,308)" stroke="rgb(219,235,219)">
      <rect x="-224.9839" y="-134.8252" clip-path="url(#clipPath2)" width="120" rx="18" ry="18" height="36" stroke="none"/>
    </g>
    <g text-rendering="geometricPrecision" stroke-miterlimit="1.45" shape-rendering="geometricPrecision" transform="matrix(1,0,0,1,240,308)" stroke-linecap="butt">
      <rect x="-224.9839" y="-134.8252" clip-path="url(#clipPath2)" fill="none" width="120" rx="18" ry="18" height="36"/>
      <text x="-209.25" font-size="14px" y="-111.5342" clip-path="url(#clipPath2)" font-family="sans-serif" stroke="none" xml:space="preserve">Malonyl-CoA</text>
    </g>
    <g fill="white" text-rendering="geometricPrecision" shape-rendering="geometricPrecision" transform="matrix(1,0,0,1,240,308)" stroke="white">
      <rect x="-173.9839" width="18" height="18" y="-192.7107" clip-path="url(#clipPath2)" stroke="none"/>
    </g>
    <g text-rendering="geometricPrecision" stroke-miterlimit="1.45" shape-rendering="geometricPrecision" transform="matrix(1,0,0,1,240,308)" stroke-linecap="butt">
      <rect fill="none" x="-173.9839" width="18" height="18" y="-192.7107" clip-path="url(#clipPath2)"/>
    </g>
    <g text-rendering="geometricPrecision" stroke-miterlimit="1.45" shape-rendering="geometricPrecision" transform="matrix(1,0,0,1,240,308)" stroke-linecap="butt">
      <path fill="none" d="M69.9288 -252.6967 L69.9288 -204.6649" clip-path="url(#clipPath2)"/>
    </g>
    <g stroke-linecap="butt" transform="matrix(1,0,0,1,240,308)" fill="white" text-rendering="geometricPrecision" shape-rendering="geometricPrecision" stroke="white" stroke-miterlimit="1.45">
      <path d="M69.9288 -196.6649 C67.7196 -196.6649 65.9288 -198.4557 65.9288 -200.6649 C65.9288 -202.874 67.7196 -204.6649 69.9288 -204.6649 C72.1379 -204.6649 73.9288 -202.874 73.9288 -200.6649 C73.9288 -198.4557 72.1379 -196.6649 69.9288 -196.6649 Z" stroke="none" clip-path="url(#clipPath2)"/>
      <path fill="none" d="M69.9288 -196.6649 C67.7196 -196.6649 65.9288 -198.4557 65.9288 -200.6649 C65.9288 -202.874 67.7196 -204.6649 69.9288 -204.6649 C72.1379 -204.6649 73.9288 -202.874 73.9288 -200.6649 C73.9288 -198.4557 72.1379 -196.6649 69.9288 -196.6649 Z" clip-path="url(#clipPath2)" stroke="black"/>
      <path fill="none" d="M14.523 -183.7107 L60.8961 -183.7107" clip-path="url(#clipPath2)" stroke="black"/>
      <path fill="none" d="M78.9223 -183.7107 L114.3928 -183.7107" clip-path="url(#clipPath2)" stroke="black"/>
      <path fill="black" d="M125.3928 -183.7107 L113.3928 -189.7107 L113.3928 -177.7107 Z" clip-path="url(#clipPath2)" stroke="none"/>
      <path fill="none" d="M-164.9839 -232.6011 L-164.9839 -192.7344" clip-path="url(#clipPath2)" stroke="black"/>
      <path fill="none" d="M-65.5242 -183.7107 L-142.9195 -183.7107" clip-path="url(#clipPath2)" stroke="black"/>
      <path d="M-150.9195 -183.7107 C-150.9195 -185.9198 -149.1286 -187.7107 -146.9195 -187.7107 C-144.7104 -187.7107 -142.9195 -185.9198 -142.9195 -183.7107 C-142.9195 -181.5016 -144.7104 -179.7107 -146.9195 -179.7107 C-149.1286 -179.7107 -150.9195 -181.5016 -150.9195 -183.7107 Z" clip-path="url(#clipPath2)" stroke="none"/>
      <path fill="none" d="M-150.9195 -183.7107 C-150.9195 -185.9198 -149.1286 -187.7107 -146.9195 -187.7107 C-144.7104 -187.7107 -142.9195 -185.9198 -142.9195 -183.7107 C-142.9195 -181.5016 -144.7104 -179.7107 -146.9195 -179.7107 C-149.1286 -179.7107 -150.9195 -181.5016 -150.9195 -183.7107 Z" clip-path="url(#clipPath2)" stroke="black"/>
      <path fill="none" d="M-164.9839 -174.7295 L-164.9839 -145.8355" clip-path="url(#clipPath2)" stroke="black"/>
      <path fill="black" d="M-164.9839 -134.8355 L-158.9839 -146.8355 L-170.9839 -146.8355 Z" clip-path="url(#clipPath2)" stroke="none"/>
    </g>
  </g>
</svg>
