<?xml version="1.0" encoding="UTF-8"?><svg xmlns="http://www.w3.org/2000/svg" xmlns:xlink="http://www.w3.org/1999/xlink" fill-opacity="1" color-rendering="auto" color-interpolation="auto" text-rendering="auto" stroke="black" stroke-linecap="square" width="800" stroke-miterlimit="10" shape-rendering="auto" stroke-opacity="1" fill="black" stroke-dasharray="none" font-weight="normal" stroke-width="1" height="998" font-family="'Dialog'" font-style="normal" stroke-linejoin="miter" font-size="12px" stroke-dashoffset="0" image-rendering="auto">
  <!--Generated by ySVG 2.5-->
  <defs id="genericDefs"/>
  <g>
    <defs id="defs1">
      <clipPath clipPathUnits="userSpaceOnUse" id="clipPath1">
        <path d="M0 0 L800 0 L800 998 L0 998 L0 0 Z"/>
      </clipPath>
      <clipPath clipPathUnits="userSpaceOnUse" id="clipPath2">
        <path d="M-2005 -1428 L-1005 -1428 L-1005 -180.5 L-2005 -180.5 L-2005 -1428 Z"/>
      </clipPath>
      <clipPath clipPathUnits="userSpaceOnUse" id="clipPath3">
        <path d="M-237.9289 -119.0996 L762.0711 -119.0996 L762.0711 1128.4004 L-237.9289 1128.4004 L-237.9289 -119.0996 Z"/>
      </clipPath>
      <clipPath clipPathUnits="userSpaceOnUse" id="clipPath4">
        <path d="M-50.9994 -119.3174 L949.0005 -119.3174 L949.0005 1128.1826 L-50.9994 1128.1826 L-50.9994 -119.3174 Z"/>
      </clipPath>
      <clipPath clipPathUnits="userSpaceOnUse" id="clipPath5">
        <path d="M-359.3555 -92.6517 L640.6445 -92.6517 L640.6445 1154.8483 L-359.3555 1154.8483 L-359.3555 -92.6517 Z"/>
      </clipPath>
      <clipPath clipPathUnits="userSpaceOnUse" id="clipPath6">
        <path d="M-359.5 -228.4107 L640.5 -228.4107 L640.5 1019.0893 L-359.5 1019.0893 L-359.5 -228.4107 Z"/>
      </clipPath>
      <clipPath clipPathUnits="userSpaceOnUse" id="clipPath7">
        <path d="M-439.9286 -869.1584 L560.0714 -869.1584 L560.0714 378.3416 L-439.9286 378.3416 L-439.9286 -869.1584 Z"/>
      </clipPath>
      <clipPath clipPathUnits="userSpaceOnUse" id="clipPath8">
        <path d="M-642.7976 -869.1584 L357.2024 -869.1584 L357.2024 378.3416 L-642.7976 378.3416 L-642.7976 -869.1584 Z"/>
      </clipPath>
      <clipPath clipPathUnits="userSpaceOnUse" id="clipPath9">
        <path d="M-512.5316 -341.3253 L487.4684 -341.3253 L487.4684 906.1747 L-512.5316 906.1747 L-512.5316 -341.3253 Z"/>
      </clipPath>
      <clipPath clipPathUnits="userSpaceOnUse" id="clipPath10">
        <path d="M-591.1945 -341.6401 L408.8055 -341.6401 L408.8055 905.8599 L-591.1945 905.8599 L-591.1945 -341.6401 Z"/>
      </clipPath>
      <clipPath clipPathUnits="userSpaceOnUse" id="clipPath11">
        <path d="M-512.5316 -762.7147 L487.4684 -762.7147 L487.4684 484.7853 L-512.5316 484.7853 L-512.5316 -762.7147 Z"/>
      </clipPath>
      <clipPath clipPathUnits="userSpaceOnUse" id="clipPath12">
        <path d="M-591.1945 -763.0295 L408.8055 -763.0295 L408.8055 484.4705 L-591.1945 484.4705 L-591.1945 -763.0295 Z"/>
      </clipPath>
      <clipPath clipPathUnits="userSpaceOnUse" id="clipPath13">
        <path d="M-831.6178 -341.3253 L168.3822 -341.3253 L168.3822 906.1747 L-831.6178 906.1747 L-831.6178 -341.3253 Z"/>
      </clipPath>
      <clipPath clipPathUnits="userSpaceOnUse" id="clipPath14">
        <path d="M-910.2807 -341.6401 L89.7193 -341.6401 L89.7193 905.8599 L-910.2807 905.8599 L-910.2807 -341.6401 Z"/>
      </clipPath>
      <clipPath clipPathUnits="userSpaceOnUse" id="clipPath15">
        <path d="M-403.432 -581.6409 L596.568 -581.6409 L596.568 665.8591 L-403.432 665.8591 L-403.432 -581.6409 Z"/>
      </clipPath>
      <clipPath clipPathUnits="userSpaceOnUse" id="clipPath16">
        <path d="M-359.5 -369.3898 L640.5 -369.3898 L640.5 878.1102 L-359.5 878.1102 L-359.5 -369.3898 Z"/>
      </clipPath>
    </defs>
    <g fill="white" text-rendering="geometricPrecision" shape-rendering="geometricPrecision" transform="scale(0.8,0.8) translate(2005,1428)" stroke="white">
      <rect x="-2005" width="1000" height="1248" y="-1428" clip-path="url(#clipPath2)" stroke="none"/>
    </g>
    <g transform="matrix(0.8,0,0,0.8,1604,1142.4)" fill-opacity="0.4471" fill="rgb(237,235,228)" text-rendering="geometricPrecision" shape-rendering="geometricPrecision" stroke="rgb(237,235,228)" stroke-opacity="0.4471">
      <rect x="-1985.0006" y="-1408.4919" clip-path="url(#clipPath2)" width="420.0006" rx="4" ry="4" height="241.9025" stroke="none"/>
    </g>
    <g text-rendering="geometricPrecision" stroke-miterlimit="1.45" shape-rendering="geometricPrecision" font-family="sans-serif" transform="matrix(0.8,0,0,0.8,1604,1142.4)" stroke-linecap="butt">
      <text x="-1801.5813" xml:space="preserve" y="-1394.8903" clip-path="url(#clipPath2)" stroke="none">NUCLEUS</text>
      <rect x="-1985.0006" y="-1408.4919" clip-path="url(#clipPath2)" fill="none" width="420.0006" rx="4" ry="4" height="241.9025" stroke-width="3"/>
    </g>
    <g fill="rgb(219,235,219)" text-rendering="geometricPrecision" shape-rendering="geometricPrecision" transform="matrix(0.8,0,0,0.8,1604,1142.4)" stroke="rgb(219,235,219)">
      <rect x="-1870.0683" y="-1375.359" clip-path="url(#clipPath2)" width="60" rx="16" ry="16" height="32" stroke="none"/>
    </g>
    <g text-rendering="geometricPrecision" stroke-miterlimit="1.45" shape-rendering="geometricPrecision" transform="matrix(0.8,0,0,0.8,1604,1142.4)" stroke-linecap="butt">
      <rect x="-1870.0683" y="-1375.359" clip-path="url(#clipPath2)" fill="none" width="60" rx="16" ry="16" height="32"/>
      <text x="-1855.7656" xml:space="preserve" y="-1354.8239" clip-path="url(#clipPath2)" font-family="sans-serif" stroke="none">cAMP</text>
    </g>
    <g fill="rgb(200,216,235)" text-rendering="geometricPrecision" shape-rendering="geometricPrecision" transform="matrix(0.8,0,0,0.8,1604,1142.4)" stroke="rgb(200,216,235)">
      <path d="M-1783.0712 -1289.9004 Q-1783.0712 -1299.9004 -1773.0712 -1299.9004 L-1713.0712 -1299.9004 Q-1703.0712 -1299.9004 -1703.0712 -1289.9004 L-1703.0712 -1269.9004 Q-1703.0712 -1259.9004 -1713.0712 -1259.9004 L-1773.0712 -1259.9004 Q-1783.0712 -1259.9004 -1783.0712 -1269.9004 Z" stroke="none" clip-path="url(#clipPath2)"/>
    </g>
    <g text-rendering="geometricPrecision" stroke-miterlimit="1.45" shape-rendering="geometricPrecision" transform="matrix(0.8,0,0,0.8,1604,1142.4)" stroke-linecap="butt">
      <path fill="none" d="M-1783.0712 -1289.9004 Q-1783.0712 -1299.9004 -1773.0712 -1299.9004 L-1713.0712 -1299.9004 Q-1703.0712 -1299.9004 -1703.0712 -1289.9004 L-1703.0712 -1269.9004 Q-1703.0712 -1259.9004 -1713.0712 -1259.9004 L-1773.0712 -1259.9004 Q-1783.0712 -1259.9004 -1783.0712 -1269.9004 Z" clip-path="url(#clipPath2)"/>
      <text x="-1756.3397" font-size="14px" y="-1274.6094" clip-path="url(#clipPath2)" font-family="sans-serif" stroke="none" xml:space="preserve">PKA</text>
    </g>
    <g fill="white" text-rendering="geometricPrecision" shape-rendering="geometricPrecision" transform="matrix(0.8,0,0,0.8,1604,1142.4) translate(-1767.0711,-1308.9004)" stroke="white">
      <rect x="0" y="0" clip-path="url(#clipPath3)" width="48" rx="9" ry="9" height="18" stroke="none"/>
    </g>
    <g text-rendering="geometricPrecision" stroke-miterlimit="1.45" shape-rendering="geometricPrecision" transform="matrix(0.8,0,0,0.8,1604,1142.4) translate(-1767.0711,-1308.9004)" stroke-linecap="butt">
      <rect x="0" y="0" clip-path="url(#clipPath3)" fill="none" width="48" rx="9" ry="9" height="18"/>
      <text x="9.9888" font-size="10px" y="12.7793" clip-path="url(#clipPath3)" font-family="sans-serif" stroke="none" xml:space="preserve">active</text>
    </g>
    <g fill="rgb(200,216,235)" text-rendering="geometricPrecision" shape-rendering="geometricPrecision" transform="matrix(0.8,0,0,0.8,1604,1142.4)" stroke="rgb(200,216,235)">
      <path d="M-1970.0006 -1289.6826 Q-1970.0006 -1299.6826 -1960.0006 -1299.6826 L-1900.0006 -1299.6826 Q-1890.0006 -1299.6826 -1890.0006 -1289.6826 L-1890.0006 -1269.6826 Q-1890.0006 -1259.6826 -1900.0006 -1259.6826 L-1960.0006 -1259.6826 Q-1970.0006 -1259.6826 -1970.0006 -1269.6826 Z" stroke="none" clip-path="url(#clipPath2)"/>
    </g>
    <g text-rendering="geometricPrecision" stroke-miterlimit="1.45" shape-rendering="geometricPrecision" transform="matrix(0.8,0,0,0.8,1604,1142.4)" stroke-linecap="butt">
      <path fill="none" d="M-1970.0006 -1289.6826 Q-1970.0006 -1299.6826 -1960.0006 -1299.6826 L-1900.0006 -1299.6826 Q-1890.0006 -1299.6826 -1890.0006 -1289.6826 L-1890.0006 -1269.6826 Q-1890.0006 -1259.6826 -1900.0006 -1259.6826 L-1960.0006 -1259.6826 Q-1970.0006 -1259.6826 -1970.0006 -1269.6826 Z" clip-path="url(#clipPath2)"/>
      <text x="-1943.2692" font-size="14px" y="-1274.3916" clip-path="url(#clipPath2)" font-family="sans-serif" stroke="none" xml:space="preserve">PKA</text>
    </g>
    <g fill="white" text-rendering="geometricPrecision" shape-rendering="geometricPrecision" transform="matrix(0.8,0,0,0.8,1604,1142.4) translate(-1954.0006,-1308.6826)" stroke="white">
      <rect x="0" y="0" clip-path="url(#clipPath4)" width="48" rx="9" ry="9" height="18" stroke="none"/>
    </g>
    <g text-rendering="geometricPrecision" stroke-miterlimit="1.45" shape-rendering="geometricPrecision" transform="matrix(0.8,0,0,0.8,1604,1142.4) translate(-1954.0006,-1308.6826)" stroke-linecap="butt">
      <rect x="0" y="0" clip-path="url(#clipPath4)" fill="none" width="48" rx="9" ry="9" height="18"/>
      <text x="5.4404" font-size="10px" y="12.7793" clip-path="url(#clipPath4)" font-family="sans-serif" stroke="none" xml:space="preserve">inactive</text>
    </g>
    <g fill="white" text-rendering="geometricPrecision" shape-rendering="geometricPrecision" transform="matrix(0.8,0,0,0.8,1604,1142.4)" stroke="white">
      <rect x="-1849.2066" width="18" height="18" y="-1288.7669" clip-path="url(#clipPath2)" stroke="none"/>
    </g>
    <g text-rendering="geometricPrecision" stroke-miterlimit="1.45" shape-rendering="geometricPrecision" transform="matrix(0.8,0,0,0.8,1604,1142.4)" stroke-linecap="butt">
      <rect fill="none" x="-1849.2066" width="18" height="18" y="-1288.7669" clip-path="url(#clipPath2)"/>
    </g>
    <g fill="white" text-rendering="geometricPrecision" shape-rendering="geometricPrecision" transform="matrix(0.8,0,0,0.8,1604,1142.4)" stroke="white">
      <rect x="-1629" width="18" height="18" y="-1288.6826" clip-path="url(#clipPath2)" stroke="none"/>
    </g>
    <g text-rendering="geometricPrecision" stroke-miterlimit="1.45" shape-rendering="geometricPrecision" transform="matrix(0.8,0,0,0.8,1604,1142.4)" stroke-linecap="butt">
      <rect fill="none" x="-1629" width="18" height="18" y="-1288.6826" clip-path="url(#clipPath2)"/>
    </g>
    <g fill="rgb(200,216,235)" text-rendering="geometricPrecision" shape-rendering="geometricPrecision" transform="matrix(0.8,0,0,0.8,1604,1142.4)" stroke="rgb(200,216,235)">
      <path d="M-1660 -1355.6594 Q-1660 -1365.6594 -1650 -1365.6594 L-1590 -1365.6594 Q-1580 -1365.6594 -1580 -1355.6594 L-1580 -1335.6594 Q-1580 -1325.6594 -1590 -1325.6594 L-1650 -1325.6594 Q-1660 -1325.6594 -1660 -1335.6594 Z" stroke="none" clip-path="url(#clipPath2)"/>
    </g>
    <g text-rendering="geometricPrecision" stroke-miterlimit="1.45" shape-rendering="geometricPrecision" transform="matrix(0.8,0,0,0.8,1604,1142.4)" stroke-linecap="butt">
      <path fill="none" d="M-1660 -1355.6594 Q-1660 -1365.6594 -1650 -1365.6594 L-1590 -1365.6594 Q-1580 -1365.6594 -1580 -1355.6594 L-1580 -1335.6594 Q-1580 -1325.6594 -1590 -1325.6594 L-1650 -1325.6594 Q-1660 -1325.6594 -1660 -1335.6594 Z" clip-path="url(#clipPath2)"/>
      <text x="-1637.124" font-size="14px" y="-1340.8059" clip-path="url(#clipPath2)" font-family="'Arial'" stroke="none" xml:space="preserve">LKB1</text>
    </g>
    <g fill="white" text-rendering="geometricPrecision" shape-rendering="geometricPrecision" transform="matrix(0.8,0,0,0.8,1604,1142.4) translate(-1645.6445,-1335.3482)" stroke="white">
      <rect x="0" y="0" clip-path="url(#clipPath5)" width="50.7111" rx="9" ry="9" height="18" stroke="none"/>
    </g>
    <g text-rendering="geometricPrecision" stroke-miterlimit="1.45" shape-rendering="geometricPrecision" transform="matrix(0.8,0,0,0.8,1604,1142.4) translate(-1645.6445,-1335.3482)" stroke-linecap="butt">
      <rect x="0" y="0" clip-path="url(#clipPath5)" fill="none" width="50.7111" rx="9" ry="9" height="18"/>
      <text x="7.3038" font-size="10px" y="12.7793" clip-path="url(#clipPath5)" font-family="sans-serif" stroke="none" xml:space="preserve"> @S428</text>
    </g>
    <g fill="rgb(200,216,235)" text-rendering="geometricPrecision" shape-rendering="geometricPrecision" transform="matrix(0.8,0,0,0.8,1604,1142.4)" stroke="rgb(200,216,235)">
      <path d="M-1660 -1219.9004 Q-1660 -1229.9004 -1650 -1229.9004 L-1590 -1229.9004 Q-1580 -1229.9004 -1580 -1219.9004 L-1580 -1199.9004 Q-1580 -1189.9004 -1590 -1189.9004 L-1650 -1189.9004 Q-1660 -1189.9004 -1660 -1199.9004 Z" stroke="none" clip-path="url(#clipPath2)"/>
    </g>
    <g text-rendering="geometricPrecision" stroke-miterlimit="1.45" shape-rendering="geometricPrecision" transform="matrix(0.8,0,0,0.8,1604,1142.4)" stroke-linecap="butt">
      <path fill="none" d="M-1660 -1219.9004 Q-1660 -1229.9004 -1650 -1229.9004 L-1590 -1229.9004 Q-1580 -1229.9004 -1580 -1219.9004 L-1580 -1199.9004 Q-1580 -1189.9004 -1590 -1189.9004 L-1650 -1189.9004 Q-1660 -1189.9004 -1660 -1199.9004 Z" clip-path="url(#clipPath2)"/>
      <text x="-1637.124" font-size="14px" y="-1205.0469" clip-path="url(#clipPath2)" font-family="'Arial'" stroke="none" xml:space="preserve">LKB1</text>
    </g>
    <g fill="white" text-rendering="geometricPrecision" shape-rendering="geometricPrecision" transform="matrix(0.8,0,0,0.8,1604,1142.4) translate(-1645.5,-1199.5893)" stroke="white">
      <rect x="0" y="0" clip-path="url(#clipPath6)" width="50.7111" rx="9" ry="9" height="18" stroke="none"/>
    </g>
    <g text-rendering="geometricPrecision" stroke-miterlimit="1.45" shape-rendering="geometricPrecision" transform="matrix(0.8,0,0,0.8,1604,1142.4) translate(-1645.5,-1199.5893)" stroke-linecap="butt">
      <rect x="0" y="0" clip-path="url(#clipPath6)" fill="none" width="50.7111" rx="9" ry="9" height="18"/>
      <text x="6.1221" font-size="10px" y="12.7793" clip-path="url(#clipPath6)" font-family="sans-serif" stroke="none" xml:space="preserve">P@S428</text>
    </g>
    <g fill="rgb(226,172,163)" text-rendering="geometricPrecision" shape-rendering="geometricPrecision" transform="matrix(0.8,0,0,0.8,1604,1142.4)" stroke="rgb(226,172,163)">
      <path d="M-1582.4435 -579.8416 Q-1582.4435 -589.8416 -1572.4435 -589.8416 L-1512.4435 -589.8416 Q-1502.4435 -589.8416 -1502.4435 -579.8416 L-1502.4435 -559.8416 Q-1502.4435 -549.8416 -1512.4435 -549.8416 L-1572.4435 -549.8416 Q-1582.4435 -549.8416 -1582.4435 -559.8416 Z" stroke="none" clip-path="url(#clipPath2)"/>
    </g>
    <g text-rendering="geometricPrecision" stroke-miterlimit="1.45" shape-rendering="geometricPrecision" transform="matrix(0.8,0,0,0.8,1604,1142.4)" stroke-linecap="butt">
      <path fill="none" d="M-1582.4435 -579.8416 Q-1582.4435 -589.8416 -1572.4435 -589.8416 L-1512.4435 -589.8416 Q-1502.4435 -589.8416 -1502.4435 -579.8416 L-1502.4435 -559.8416 Q-1502.4435 -549.8416 -1512.4435 -549.8416 L-1572.4435 -549.8416 Q-1582.4435 -549.8416 -1582.4435 -559.8416 Z" clip-path="url(#clipPath2)"/>
      <text x="-1565.8156" font-size="14px" y="-564.5506" clip-path="url(#clipPath2)" font-family="sans-serif" stroke="none" xml:space="preserve">ACACB</text>
    </g>
    <g fill="white" text-rendering="geometricPrecision" shape-rendering="geometricPrecision" transform="matrix(0.8,0,0,0.8,1604,1142.4) translate(-1565.0714,-558.8416)" stroke="white">
      <rect x="0" y="0" clip-path="url(#clipPath7)" width="48" rx="9" ry="9" height="18" stroke="none"/>
    </g>
    <g text-rendering="geometricPrecision" stroke-miterlimit="1.45" shape-rendering="geometricPrecision" transform="matrix(0.8,0,0,0.8,1604,1142.4) translate(-1565.0714,-558.8416)" stroke-linecap="butt">
      <rect x="0" y="0" clip-path="url(#clipPath7)" fill="none" width="48" rx="9" ry="9" height="18"/>
      <text x="5.9482" font-size="10px" y="12.7793" clip-path="url(#clipPath7)" font-family="sans-serif" stroke="none" xml:space="preserve"> @S222</text>
    </g>
    <g fill="rgb(226,172,163)" text-rendering="geometricPrecision" shape-rendering="geometricPrecision" transform="matrix(0.8,0,0,0.8,1604,1142.4)" stroke="rgb(226,172,163)">
      <path d="M-1376.8303 -579.8416 Q-1376.8303 -589.8416 -1366.8303 -589.8416 L-1306.8303 -589.8416 Q-1296.8303 -589.8416 -1296.8303 -579.8416 L-1296.8303 -559.8416 Q-1296.8303 -549.8416 -1306.8303 -549.8416 L-1366.8303 -549.8416 Q-1376.8303 -549.8416 -1376.8303 -559.8416 Z" stroke="none" clip-path="url(#clipPath2)"/>
    </g>
    <g text-rendering="geometricPrecision" stroke-miterlimit="1.45" shape-rendering="geometricPrecision" transform="matrix(0.8,0,0,0.8,1604,1142.4)" stroke-linecap="butt">
      <path fill="none" d="M-1376.8303 -579.8416 Q-1376.8303 -589.8416 -1366.8303 -589.8416 L-1306.8303 -589.8416 Q-1296.8303 -589.8416 -1296.8303 -579.8416 L-1296.8303 -559.8416 Q-1296.8303 -549.8416 -1306.8303 -549.8416 L-1366.8303 -549.8416 Q-1376.8303 -549.8416 -1376.8303 -559.8416 Z" clip-path="url(#clipPath2)"/>
      <text x="-1360.2024" font-size="14px" y="-564.5506" clip-path="url(#clipPath2)" font-family="sans-serif" stroke="none" xml:space="preserve">ACACB</text>
    </g>
    <g fill="white" text-rendering="geometricPrecision" shape-rendering="geometricPrecision" transform="matrix(0.8,0,0,0.8,1604,1142.4) translate(-1362.2024,-558.8416)" stroke="white">
      <rect x="0" y="0" clip-path="url(#clipPath8)" width="48" rx="9" ry="9" height="18" stroke="none"/>
    </g>
    <g text-rendering="geometricPrecision" stroke-miterlimit="1.45" shape-rendering="geometricPrecision" transform="matrix(0.8,0,0,0.8,1604,1142.4) translate(-1362.2024,-558.8416)" stroke-linecap="butt">
      <rect x="0" y="0" clip-path="url(#clipPath8)" fill="none" width="48" rx="9" ry="9" height="18"/>
      <text x="4.7666" font-size="10px" y="12.7793" clip-path="url(#clipPath8)" font-family="sans-serif" stroke="none" xml:space="preserve">P@S222</text>
    </g>
    <g fill="white" text-rendering="geometricPrecision" shape-rendering="geometricPrecision" transform="matrix(0.8,0,0,0.8,1604,1142.4)" stroke="white">
      <rect x="-1448.6369" width="18" height="18" y="-578.8764" clip-path="url(#clipPath2)" stroke="none"/>
    </g>
    <g text-rendering="geometricPrecision" stroke-miterlimit="1.45" shape-rendering="geometricPrecision" transform="matrix(0.8,0,0,0.8,1604,1142.4)" stroke-linecap="butt">
      <rect fill="none" x="-1448.6369" width="18" height="18" y="-578.8764" clip-path="url(#clipPath2)"/>
    </g>
    <g fill="rgb(219,235,219)" text-rendering="geometricPrecision" shape-rendering="geometricPrecision" transform="matrix(0.8,0,0,0.8,1604,1142.4)" stroke="rgb(219,235,219)">
      <rect x="-1712.1799" y="-499.8893" clip-path="url(#clipPath2)" width="120" rx="16" ry="16" height="32" stroke="none"/>
    </g>
    <g text-rendering="geometricPrecision" stroke-miterlimit="1.45" shape-rendering="geometricPrecision" transform="matrix(0.8,0,0,0.8,1604,1142.4)" stroke-linecap="butt">
      <rect x="-1712.1799" y="-499.8893" clip-path="url(#clipPath2)" fill="none" width="120" rx="16" ry="16" height="32"/>
      <text x="-1689.8527" font-size="14px" y="-478.5983" clip-path="url(#clipPath2)" font-family="sans-serif" stroke="none" xml:space="preserve">acetyl-CoA</text>
    </g>
    <g fill="rgb(219,235,219)" text-rendering="geometricPrecision" shape-rendering="geometricPrecision" transform="matrix(0.8,0,0,0.8,1604,1142.4)" stroke="rgb(219,235,219)">
      <rect x="-1483.1177" y="-499.8893" clip-path="url(#clipPath2)" width="120" rx="16" ry="16" height="32" stroke="none"/>
    </g>
    <g text-rendering="geometricPrecision" stroke-miterlimit="1.45" shape-rendering="geometricPrecision" transform="matrix(0.8,0,0,0.8,1604,1142.4)" stroke-linecap="butt">
      <rect x="-1483.1177" y="-499.8893" clip-path="url(#clipPath2)" fill="none" width="120" rx="16" ry="16" height="32"/>
      <text x="-1467.8896" font-size="14px" y="-478.5983" clip-path="url(#clipPath2)" font-family="sans-serif" stroke="none" xml:space="preserve">malonyl-CoA</text>
    </g>
    <g fill="white" text-rendering="geometricPrecision" shape-rendering="geometricPrecision" transform="matrix(0.8,0,0,0.8,1604,1142.4)" stroke="white">
      <rect x="-1551.4435" width="18" height="18" y="-492.8893" clip-path="url(#clipPath2)" stroke="none"/>
    </g>
    <g text-rendering="geometricPrecision" stroke-miterlimit="1.45" shape-rendering="geometricPrecision" transform="matrix(0.8,0,0,0.8,1604,1142.4)" stroke-linecap="butt">
      <rect fill="none" x="-1551.4435" width="18" height="18" y="-492.8893" clip-path="url(#clipPath2)"/>
    </g>
    <g fill="white" text-rendering="geometricPrecision" shape-rendering="geometricPrecision" transform="matrix(0.8,0,0,0.8,1604,1142.4)" stroke="white">
      <rect x="-1400.9985" width="18" height="18" y="-389.2998" clip-path="url(#clipPath2)" stroke="none"/>
    </g>
    <g text-rendering="geometricPrecision" stroke-miterlimit="1.45" shape-rendering="geometricPrecision" transform="matrix(0.8,0,0,0.8,1604,1142.4)" stroke-linecap="butt">
      <rect fill="none" x="-1400.9985" width="18" height="18" y="-389.2998" clip-path="url(#clipPath2)"/>
    </g>
    <g text-rendering="geometricPrecision" stroke-miterlimit="1.45" shape-rendering="geometricPrecision" transform="matrix(0.8,0,0,0.8,1604,1142.4)" stroke-linecap="butt">
      <path fill="none" d="M-1889.9703 -1279.7201 L-1849.1971 -1279.7584" clip-path="url(#clipPath2)"/>
      <path fill="none" d="M-1840.0961 -1343.3862 L-1840.1649 -1303.7444" clip-path="url(#clipPath2)"/>
      <path fill="white" d="M-1840.191 -1288.7444 L-1834.1632 -1304.7339 L-1846.1632 -1304.7548 Z" clip-path="url(#clipPath2)" stroke="none"/>
      <path fill="none" d="M-1840.191 -1288.7444 L-1834.1632 -1304.7339 L-1846.1632 -1304.7548 Z" clip-path="url(#clipPath2)"/>
      <path fill="none" d="M-1831.2424 -1279.7792 L-1794.0668 -1279.8303" clip-path="url(#clipPath2)"/>
      <path d="M-1783.0668 -1279.8455 L-1795.0751 -1285.829 L-1795.0585 -1273.829 Z" clip-path="url(#clipPath2)" stroke="none"/>
      <path fill="none" d="M-1703.079 -1279.8296 L-1636.9651 -1279.7126" clip-path="url(#clipPath2)"/>
      <path fill="white" d="M-1628.9651 -1279.6985 C-1628.969 -1277.4894 -1630.7631 -1275.7017 -1632.9722 -1275.7056 C-1635.1813 -1275.7095 -1636.969 -1277.5035 -1636.9651 -1279.7126 C-1636.9612 -1281.9218 -1635.1671 -1283.7095 -1632.958 -1283.7056 C-1630.7489 -1283.7017 -1628.9612 -1281.9076 -1628.9651 -1279.6985 Z" clip-path="url(#clipPath2)" stroke="none"/>
      <path fill="none" d="M-1628.9651 -1279.6985 C-1628.969 -1277.4894 -1630.7631 -1275.7017 -1632.9722 -1275.7056 C-1635.1813 -1275.7095 -1636.969 -1277.5035 -1636.9651 -1279.7126 C-1636.9612 -1281.9218 -1635.1671 -1283.7095 -1632.958 -1283.7056 C-1630.7489 -1283.7017 -1628.9612 -1281.9076 -1628.9651 -1279.6985 Z" clip-path="url(#clipPath2)"/>
      <path fill="none" d="M-1620 -1317.6594 L-1620 -1288.6946" clip-path="url(#clipPath2)"/>
      <path fill="none" d="M-1620 -1270.6532 L-1620 -1240.924" clip-path="url(#clipPath2)"/>
      <path d="M-1620 -1229.924 L-1614 -1241.924 L-1626 -1241.924 Z" clip-path="url(#clipPath2)" stroke="none"/>
      <path fill="none" d="M-1502.4603 -569.8552 L-1448.6249 -569.8734" clip-path="url(#clipPath2)"/>
      <path fill="none" d="M-1430.6262 -569.8734 L-1387.8127 -569.8589" clip-path="url(#clipPath2)"/>
      <path d="M-1376.8127 -569.8552 L-1388.8107 -575.8593 L-1388.8148 -563.8593 Z" clip-path="url(#clipPath2)" stroke="none"/>
      <path fill="none" d="M-1542.4435 -541.0803 L-1542.4435 -500.9091" clip-path="url(#clipPath2)"/>
      <path fill="white" d="M-1542.4435 -492.9091 C-1544.6526 -492.9091 -1546.4435 -494.7 -1546.4435 -496.9091 C-1546.4435 -499.1183 -1544.6526 -500.9091 -1542.4435 -500.9091 C-1540.2344 -500.9091 -1538.4435 -499.1183 -1538.4435 -496.9091 C-1538.4435 -494.7 -1540.2344 -492.9091 -1542.4435 -492.9091 Z" clip-path="url(#clipPath2)" stroke="none"/>
      <path fill="none" d="M-1542.4435 -492.9091 C-1544.6526 -492.9091 -1546.4435 -494.7 -1546.4435 -496.9091 C-1546.4435 -499.1183 -1544.6526 -500.9091 -1542.4435 -500.9091 C-1540.2344 -500.9091 -1538.4435 -499.1183 -1538.4435 -496.9091 C-1538.4435 -494.7 -1540.2344 -492.9091 -1542.4435 -492.9091 Z" clip-path="url(#clipPath2)"/>
      <path fill="none" d="M-1592.1946 -483.8893 L-1551.4318 -483.8893" clip-path="url(#clipPath2)"/>
      <path fill="none" d="M-1533.4417 -483.8893 L-1494.101 -483.8893" clip-path="url(#clipPath2)"/>
      <path d="M-1483.101 -483.8893 L-1495.101 -489.8893 L-1495.101 -477.8893 Z" clip-path="url(#clipPath2)" stroke="none"/>
      <path fill="none" d="M-1423.1177 -467.877 L-1423.1177 -389.9486 L-1422.4927 -385.5807 L-1420.6178 -382.4768 L-1417.493 -380.6371 L-1413.1183 -380.0615 L-1401.0243 -380.1979" clip-path="url(#clipPath2)"/>
    </g>
    <g transform="matrix(0.8,0,0,0.8,1604,1142.4)" fill-opacity="0.6" fill="rgb(255,255,255)" text-rendering="geometricPrecision" shape-rendering="geometricPrecision" stroke="rgb(255,255,255)" stroke-opacity="0.6">
      <path d="M-1314.3677 -437.8893 L-1198.3677 -437.8893 L-1186.3677 -425.8893 L-1186.3677 -334.7103 L-1198.3677 -322.7103 L-1314.3677 -322.7103 L-1326.3677 -334.7103 L-1326.3677 -425.8893 Z" stroke="none" clip-path="url(#clipPath2)"/>
    </g>
    <g text-rendering="geometricPrecision" stroke-miterlimit="1.45" shape-rendering="geometricPrecision" transform="matrix(0.8,0,0,0.8,1604,1142.4)" stroke-linecap="butt">
      <path fill="none" d="M-1314.3677 -437.8893 L-1198.3677 -437.8893 L-1186.3677 -425.8893 L-1186.3677 -334.7103 L-1198.3677 -322.7103 L-1314.3677 -322.7103 L-1326.3677 -334.7103 L-1326.3677 -425.8893 Z" clip-path="url(#clipPath2)"/>
    </g>
    <g fill="rgb(226,172,163)" text-rendering="geometricPrecision" shape-rendering="geometricPrecision" transform="matrix(0.8,0,0,0.8,1604,1142.4)" stroke="rgb(226,172,163)">
      <path d="M-1296.3677 -367.7103 Q-1296.3677 -377.7103 -1286.3677 -377.7103 L-1226.3677 -377.7103 Q-1216.3677 -377.7103 -1216.3677 -367.7103 L-1216.3677 -347.7103 Q-1216.3677 -337.7103 -1226.3677 -337.7103 L-1286.3677 -337.7103 Q-1296.3677 -337.7103 -1296.3677 -347.7103 Z" stroke="none" clip-path="url(#clipPath2)"/>
    </g>
    <g text-rendering="geometricPrecision" stroke-miterlimit="1.45" shape-rendering="geometricPrecision" transform="matrix(0.8,0,0,0.8,1604,1142.4)" stroke-linecap="butt">
      <path fill="none" d="M-1296.3677 -367.7103 Q-1296.3677 -377.7103 -1286.3677 -377.7103 L-1226.3677 -377.7103 Q-1216.3677 -377.7103 -1216.3677 -367.7103 L-1216.3677 -347.7103 Q-1216.3677 -337.7103 -1226.3677 -337.7103 L-1286.3677 -337.7103 Q-1296.3677 -337.7103 -1296.3677 -347.7103 Z" clip-path="url(#clipPath2)"/>
      <text x="-1273.9326" font-size="14px" y="-352.4193" clip-path="url(#clipPath2)" font-family="sans-serif" stroke="none" xml:space="preserve">CPT1</text>
    </g>
    <g fill="rgb(219,235,219)" text-rendering="geometricPrecision" shape-rendering="geometricPrecision" transform="matrix(0.8,0,0,0.8,1604,1142.4)" stroke="rgb(219,235,219)">
      <rect x="-1316.3677" y="-421.2103" clip-path="url(#clipPath2)" width="120" rx="16" ry="16" height="32" stroke="none"/>
    </g>
    <g text-rendering="geometricPrecision" stroke-miterlimit="1.45" shape-rendering="geometricPrecision" transform="matrix(0.8,0,0,0.8,1604,1142.4)" stroke-linecap="butt">
      <rect x="-1316.3677" y="-421.2103" clip-path="url(#clipPath2)" fill="none" width="120" rx="16" ry="16" height="32"/>
      <text x="-1301.1396" font-size="14px" y="-399.9193" clip-path="url(#clipPath2)" font-family="sans-serif" stroke="none" xml:space="preserve">malonyl-CoA</text>
    </g>
    <g fill="rgb(219,235,219)" text-rendering="geometricPrecision" shape-rendering="geometricPrecision" transform="matrix(0.8,0,0,0.8,1604,1142.4)" stroke="rgb(219,235,219)">
      <rect x="-1292.5198" y="-1188.8856" clip-path="url(#clipPath2)" width="60" rx="16" ry="16" height="32" stroke="none"/>
    </g>
    <g text-rendering="geometricPrecision" stroke-miterlimit="1.45" shape-rendering="geometricPrecision" transform="matrix(0.8,0,0,0.8,1604,1142.4)" stroke-linecap="butt">
      <rect x="-1292.5198" y="-1188.8856" clip-path="url(#clipPath2)" fill="none" width="60" rx="16" ry="16" height="32"/>
      <text x="-1277.2478" font-size="14px" y="-1167.5946" clip-path="url(#clipPath2)" font-family="sans-serif" stroke="none" xml:space="preserve">AMP</text>
    </g>
    <g fill="white" text-rendering="geometricPrecision" shape-rendering="geometricPrecision" transform="matrix(0.8,0,0,0.8,1604,1142.4)" stroke="white">
      <rect x="-1449" width="18" height="18" y="-864.579" clip-path="url(#clipPath2)" stroke="none"/>
    </g>
    <g text-rendering="geometricPrecision" stroke-miterlimit="1.45" shape-rendering="geometricPrecision" transform="matrix(0.8,0,0,0.8,1604,1142.4)" stroke-linecap="butt">
      <rect fill="none" x="-1449" width="18" height="18" y="-864.579" clip-path="url(#clipPath2)"/>
    </g>
    <g fill="white" text-rendering="geometricPrecision" shape-rendering="geometricPrecision" transform="matrix(0.8,0,0,0.8,1604,1142.4)" stroke="white">
      <rect x="-1299.2738" width="18" height="18" y="-1125.5707" clip-path="url(#clipPath2)" stroke="none"/>
    </g>
    <g text-rendering="geometricPrecision" stroke-miterlimit="1.45" shape-rendering="geometricPrecision" transform="matrix(0.8,0,0,0.8,1604,1142.4)" stroke-linecap="butt">
      <rect fill="none" x="-1299.2738" width="18" height="18" y="-1125.5707" clip-path="url(#clipPath2)"/>
    </g>
    <g text-rendering="geometricPrecision" stroke-miterlimit="1.45" shape-rendering="geometricPrecision" transform="matrix(0.8,0,0,0.8,1604,1142.4)" stroke-linecap="butt">
      <path fill="none" d="M-1383.0249 -380.2998 L-1337.3446 -380.2998" clip-path="url(#clipPath2)"/>
      <path d="M-1326.3446 -380.2998 L-1338.3446 -386.2998 L-1338.3446 -374.2998 Z" clip-path="url(#clipPath2)" stroke="none"/>
      <path fill="none" d="M-1262.5198 -1156.9095 L-1262.5198 -1126.5707 L-1263.105 -1122.1957 L-1264.8608 -1119.0707 L-1267.7871 -1117.1957 L-1271.884 -1116.5707 L-1281.2484 -1116.5707" clip-path="url(#clipPath2)"/>
    </g>
    <g transform="matrix(0.8,0,0,0.8,1604,1142.4)" fill-opacity="0.6" fill="rgb(255,255,255)" text-rendering="geometricPrecision" shape-rendering="geometricPrecision" stroke="rgb(255,255,255)" stroke-opacity="0.6">
      <path d="M-1524.9288 -1179.7815 L-1354.345 -1179.7815 L-1342.345 -1167.7815 L-1342.345 -1065.36 L-1354.345 -1053.36 L-1524.9288 -1053.36 L-1536.9288 -1065.36 L-1536.9288 -1167.7815 Z" stroke="none" clip-path="url(#clipPath2)"/>
    </g>
    <g text-rendering="geometricPrecision" stroke-miterlimit="1.45" shape-rendering="geometricPrecision" transform="matrix(0.8,0,0,0.8,1604,1142.4)" stroke-linecap="butt">
      <path fill="none" d="M-1524.9288 -1179.7815 L-1354.345 -1179.7815 L-1342.345 -1167.7815 L-1342.345 -1065.36 L-1354.345 -1053.36 L-1524.9288 -1053.36 L-1536.9288 -1065.36 L-1536.9288 -1167.7815 Z" clip-path="url(#clipPath2)"/>
    </g>
    <g fill="rgb(200,216,235)" text-rendering="geometricPrecision" shape-rendering="geometricPrecision" transform="matrix(0.8,0,0,0.8,1604,1142.4)" stroke="rgb(200,216,235)">
      <path d="M-1479.637 -1154.9458 Q-1479.637 -1164.9458 -1469.637 -1164.9458 L-1409.637 -1164.9458 Q-1399.637 -1164.9458 -1399.637 -1154.9458 L-1399.637 -1134.9458 Q-1399.637 -1124.9458 -1409.637 -1124.9458 L-1469.637 -1124.9458 Q-1479.637 -1124.9458 -1479.637 -1134.9458 Z" stroke="none" clip-path="url(#clipPath2)"/>
    </g>
    <g text-rendering="geometricPrecision" stroke-miterlimit="1.45" shape-rendering="geometricPrecision" transform="matrix(0.8,0,0,0.8,1604,1142.4)" stroke-linecap="butt">
      <path fill="none" d="M-1479.637 -1154.9458 Q-1479.637 -1164.9458 -1469.637 -1164.9458 L-1409.637 -1164.9458 Q-1399.637 -1164.9458 -1399.637 -1154.9458 L-1399.637 -1134.9458 Q-1399.637 -1124.9458 -1409.637 -1124.9458 L-1469.637 -1124.9458 Q-1479.637 -1124.9458 -1479.637 -1134.9458 Z" clip-path="url(#clipPath2)"/>
      <text x="-1463.5012" font-size="14px" y="-1140.0923" clip-path="url(#clipPath2)" font-family="'Arial'" stroke="none" xml:space="preserve">AMPKβ</text>
    </g>
    <g fill="rgb(200,216,235)" text-rendering="geometricPrecision" shape-rendering="geometricPrecision" transform="matrix(0.8,0,0,0.8,1604,1142.4)" stroke="rgb(200,216,235)">
      <path d="M-1523.4684 -1106.6747 Q-1523.4684 -1116.6747 -1513.4684 -1116.6747 L-1453.4684 -1116.6747 Q-1443.4684 -1116.6747 -1443.4684 -1106.6747 L-1443.4684 -1086.6747 Q-1443.4684 -1076.6747 -1453.4684 -1076.6747 L-1513.4684 -1076.6747 Q-1523.4684 -1076.6747 -1523.4684 -1086.6747 Z" stroke="none" clip-path="url(#clipPath2)"/>
    </g>
    <g text-rendering="geometricPrecision" stroke-miterlimit="1.45" shape-rendering="geometricPrecision" transform="matrix(0.8,0,0,0.8,1604,1142.4)" stroke-linecap="butt">
      <path fill="none" d="M-1523.4684 -1106.6747 Q-1523.4684 -1116.6747 -1513.4684 -1116.6747 L-1453.4684 -1116.6747 Q-1443.4684 -1116.6747 -1443.4684 -1106.6747 L-1443.4684 -1086.6747 Q-1443.4684 -1076.6747 -1453.4684 -1076.6747 L-1513.4684 -1076.6747 Q-1523.4684 -1076.6747 -1523.4684 -1086.6747 Z" clip-path="url(#clipPath2)"/>
      <text x="-1507.6232" font-size="14px" y="-1091.3837" clip-path="url(#clipPath2)" font-family="sans-serif" stroke="none" xml:space="preserve">AMPKα</text>
    </g>
    <g fill="white" text-rendering="geometricPrecision" shape-rendering="geometricPrecision" transform="matrix(0.8,0,0,0.8,1604,1142.4) translate(-1492.4684,-1086.6747)" stroke="white">
      <rect x="0" y="0" clip-path="url(#clipPath9)" width="18" rx="9" ry="9" height="18" stroke="none"/>
    </g>
    <g text-rendering="geometricPrecision" stroke-miterlimit="1.45" shape-rendering="geometricPrecision" transform="matrix(0.8,0,0,0.8,1604,1142.4) translate(-1492.4684,-1086.6747)" stroke-linecap="butt">
      <rect x="0" y="0" clip-path="url(#clipPath9)" fill="none" width="18" rx="9" ry="9" height="18"/>
    </g>
    <g fill="rgb(200,216,235)" text-rendering="geometricPrecision" shape-rendering="geometricPrecision" transform="matrix(0.8,0,0,0.8,1604,1142.4)" stroke="rgb(200,216,235)">
      <path d="M-1435.8054 -1106.6747 Q-1435.8054 -1116.6747 -1425.8054 -1116.6747 L-1365.8054 -1116.6747 Q-1355.8054 -1116.6747 -1355.8054 -1106.6747 L-1355.8054 -1086.6747 Q-1355.8054 -1076.6747 -1365.8054 -1076.6747 L-1425.8054 -1076.6747 Q-1435.8054 -1076.6747 -1435.8054 -1086.6747 Z" stroke="none" clip-path="url(#clipPath2)"/>
    </g>
    <g text-rendering="geometricPrecision" stroke-miterlimit="1.45" shape-rendering="geometricPrecision" transform="matrix(0.8,0,0,0.8,1604,1142.4)" stroke-linecap="butt">
      <path fill="none" d="M-1435.8054 -1106.6747 Q-1435.8054 -1116.6747 -1425.8054 -1116.6747 L-1365.8054 -1116.6747 Q-1355.8054 -1116.6747 -1355.8054 -1106.6747 L-1355.8054 -1086.6747 Q-1355.8054 -1076.6747 -1365.8054 -1076.6747 L-1425.8054 -1076.6747 Q-1435.8054 -1076.6747 -1435.8054 -1086.6747 Z" clip-path="url(#clipPath2)"/>
      <text x="-1419.1433" font-size="14px" y="-1091.8212" clip-path="url(#clipPath2)" font-family="'Arial'" stroke="none" xml:space="preserve">AMPKγ</text>
    </g>
    <g fill="white" text-rendering="geometricPrecision" shape-rendering="geometricPrecision" transform="matrix(0.8,0,0,0.8,1604,1142.4) translate(-1413.8055,-1086.3599)" stroke="white">
      <rect x="0" y="0" clip-path="url(#clipPath10)" width="36" rx="9" ry="9" height="18" stroke="none"/>
    </g>
    <g text-rendering="geometricPrecision" stroke-miterlimit="1.45" shape-rendering="geometricPrecision" transform="matrix(0.8,0,0,0.8,1604,1142.4) translate(-1413.8055,-1086.3599)" stroke-linecap="butt">
      <rect x="0" y="0" clip-path="url(#clipPath10)" fill="none" width="36" rx="9" ry="9" height="18"/>
      <text x="7.48" font-size="10px" y="12.7793" clip-path="url(#clipPath10)" font-family="sans-serif" stroke="none" xml:space="preserve">AMP</text>
    </g>
    <g text-rendering="geometricPrecision" stroke-miterlimit="1.45" shape-rendering="geometricPrecision" transform="matrix(0.8,0,0,0.8,1604,1142.4)" stroke-linecap="butt">
      <path fill="none" d="M-1299.2809 -1116.5707 L-1331.354 -1116.5707" clip-path="url(#clipPath2)"/>
      <path d="M-1342.354 -1116.5707 L-1330.354 -1110.5707 L-1330.354 -1122.5707 Z" clip-path="url(#clipPath2)" stroke="none"/>
      <path fill="none" d="M-1439.7249 -1053.33 L-1439.9874 -864.6072" clip-path="url(#clipPath2)"/>
    </g>
    <g transform="matrix(0.8,0,0,0.8,1604,1142.4)" fill-opacity="0.6" fill="rgb(255,255,255)" text-rendering="geometricPrecision" shape-rendering="geometricPrecision" stroke="rgb(255,255,255)" stroke-opacity="0.6">
      <path d="M-1524.9288 -759.7881 L-1354.345 -759.7881 L-1342.345 -747.7881 L-1342.345 -643.9705 L-1354.345 -631.9705 L-1524.9288 -631.9705 L-1536.9288 -643.9705 L-1536.9288 -747.7881 Z" stroke="none" clip-path="url(#clipPath2)"/>
    </g>
    <g text-rendering="geometricPrecision" stroke-miterlimit="1.45" shape-rendering="geometricPrecision" transform="matrix(0.8,0,0,0.8,1604,1142.4)" stroke-linecap="butt">
      <path fill="none" d="M-1524.9288 -759.7881 L-1354.345 -759.7881 L-1342.345 -747.7881 L-1342.345 -643.9705 L-1354.345 -631.9705 L-1524.9288 -631.9705 L-1536.9288 -643.9705 L-1536.9288 -747.7881 Z" clip-path="url(#clipPath2)"/>
    </g>
    <g fill="rgb(200,216,235)" text-rendering="geometricPrecision" shape-rendering="geometricPrecision" transform="matrix(0.8,0,0,0.8,1604,1142.4)" stroke="rgb(200,216,235)">
      <path d="M-1479.637 -733.5564 Q-1479.637 -743.5564 -1469.637 -743.5564 L-1409.637 -743.5564 Q-1399.637 -743.5564 -1399.637 -733.5564 L-1399.637 -713.5564 Q-1399.637 -703.5564 -1409.637 -703.5564 L-1469.637 -703.5564 Q-1479.637 -703.5564 -1479.637 -713.5564 Z" stroke="none" clip-path="url(#clipPath2)"/>
    </g>
    <g text-rendering="geometricPrecision" stroke-miterlimit="1.45" shape-rendering="geometricPrecision" transform="matrix(0.8,0,0,0.8,1604,1142.4)" stroke-linecap="butt">
      <path fill="none" d="M-1479.637 -733.5564 Q-1479.637 -743.5564 -1469.637 -743.5564 L-1409.637 -743.5564 Q-1399.637 -743.5564 -1399.637 -733.5564 L-1399.637 -713.5564 Q-1399.637 -703.5564 -1409.637 -703.5564 L-1469.637 -703.5564 Q-1479.637 -703.5564 -1479.637 -713.5564 Z" clip-path="url(#clipPath2)"/>
      <text x="-1463.5012" font-size="14px" y="-718.7029" clip-path="url(#clipPath2)" font-family="'Arial'" stroke="none" xml:space="preserve">AMPKβ</text>
    </g>
    <g fill="rgb(200,216,235)" text-rendering="geometricPrecision" shape-rendering="geometricPrecision" transform="matrix(0.8,0,0,0.8,1604,1142.4)" stroke="rgb(200,216,235)">
      <path d="M-1523.4684 -685.2853 Q-1523.4684 -695.2853 -1513.4684 -695.2853 L-1453.4684 -695.2853 Q-1443.4684 -695.2853 -1443.4684 -685.2853 L-1443.4684 -665.2853 Q-1443.4684 -655.2853 -1453.4684 -655.2853 L-1513.4684 -655.2853 Q-1523.4684 -655.2853 -1523.4684 -665.2853 Z" stroke="none" clip-path="url(#clipPath2)"/>
    </g>
    <g text-rendering="geometricPrecision" stroke-miterlimit="1.45" shape-rendering="geometricPrecision" transform="matrix(0.8,0,0,0.8,1604,1142.4)" stroke-linecap="butt">
      <path fill="none" d="M-1523.4684 -685.2853 Q-1523.4684 -695.2853 -1513.4684 -695.2853 L-1453.4684 -695.2853 Q-1443.4684 -695.2853 -1443.4684 -685.2853 L-1443.4684 -665.2853 Q-1443.4684 -655.2853 -1453.4684 -655.2853 L-1513.4684 -655.2853 Q-1523.4684 -655.2853 -1523.4684 -665.2853 Z" clip-path="url(#clipPath2)"/>
      <text x="-1507.6232" font-size="14px" y="-669.9943" clip-path="url(#clipPath2)" font-family="sans-serif" stroke="none" xml:space="preserve">AMPKα</text>
    </g>
    <g fill="white" text-rendering="geometricPrecision" shape-rendering="geometricPrecision" transform="matrix(0.8,0,0,0.8,1604,1142.4) translate(-1492.4684,-665.2853)" stroke="white">
      <rect x="0" y="0" clip-path="url(#clipPath11)" width="18" rx="9" ry="9" height="18" stroke="none"/>
    </g>
    <g text-rendering="geometricPrecision" stroke-miterlimit="1.45" shape-rendering="geometricPrecision" transform="matrix(0.8,0,0,0.8,1604,1142.4) translate(-1492.4684,-665.2853)" stroke-linecap="butt">
      <rect x="0" y="0" clip-path="url(#clipPath11)" fill="none" width="18" rx="9" ry="9" height="18"/>
      <text x="5.3877" xml:space="preserve" y="13.1543" clip-path="url(#clipPath11)" font-family="monospace" stroke="none">P</text>
    </g>
    <g fill="rgb(200,216,235)" text-rendering="geometricPrecision" shape-rendering="geometricPrecision" transform="matrix(0.8,0,0,0.8,1604,1142.4)" stroke="rgb(200,216,235)">
      <path d="M-1435.8054 -685.2853 Q-1435.8054 -695.2853 -1425.8054 -695.2853 L-1365.8054 -695.2853 Q-1355.8054 -695.2853 -1355.8054 -685.2853 L-1355.8054 -665.2853 Q-1355.8054 -655.2853 -1365.8054 -655.2853 L-1425.8054 -655.2853 Q-1435.8054 -655.2853 -1435.8054 -665.2853 Z" stroke="none" clip-path="url(#clipPath2)"/>
    </g>
    <g text-rendering="geometricPrecision" stroke-miterlimit="1.45" shape-rendering="geometricPrecision" transform="matrix(0.8,0,0,0.8,1604,1142.4)" stroke-linecap="butt">
      <path fill="none" d="M-1435.8054 -685.2853 Q-1435.8054 -695.2853 -1425.8054 -695.2853 L-1365.8054 -695.2853 Q-1355.8054 -695.2853 -1355.8054 -685.2853 L-1355.8054 -665.2853 Q-1355.8054 -655.2853 -1365.8054 -655.2853 L-1425.8054 -655.2853 Q-1435.8054 -655.2853 -1435.8054 -665.2853 Z" clip-path="url(#clipPath2)"/>
      <text x="-1419.1433" font-size="14px" y="-670.4318" clip-path="url(#clipPath2)" font-family="'Arial'" stroke="none" xml:space="preserve">AMPKγ</text>
    </g>
    <g fill="white" text-rendering="geometricPrecision" shape-rendering="geometricPrecision" transform="matrix(0.8,0,0,0.8,1604,1142.4) translate(-1413.8055,-664.9705)" stroke="white">
      <rect x="0" y="0" clip-path="url(#clipPath12)" width="36" rx="9" ry="9" height="18" stroke="none"/>
    </g>
    <g text-rendering="geometricPrecision" stroke-miterlimit="1.45" shape-rendering="geometricPrecision" transform="matrix(0.8,0,0,0.8,1604,1142.4) translate(-1413.8055,-664.9705)" stroke-linecap="butt">
      <rect x="0" y="0" clip-path="url(#clipPath12)" fill="none" width="36" rx="9" ry="9" height="18"/>
      <text x="7.48" font-size="10px" y="12.7793" clip-path="url(#clipPath12)" font-family="sans-serif" stroke="none" xml:space="preserve">AMP</text>
    </g>
    <g text-rendering="geometricPrecision" stroke-miterlimit="1.45" shape-rendering="geometricPrecision" transform="matrix(0.8,0,0,0.8,1604,1142.4)" stroke-linecap="butt">
      <path fill="none" d="M-1439.9795 -846.5725 L-1439.8073 -770.7841" clip-path="url(#clipPath2)"/>
      <path d="M-1439.7822 -759.7841 L-1433.8096 -771.7977 L-1445.8096 -771.7704 Z" clip-path="url(#clipPath2)" stroke="none"/>
      <path fill="none" d="M-1439.637 -631.9858 L-1439.637 -586.8835" clip-path="url(#clipPath2)"/>
      <path fill="white" d="M-1439.637 -578.8835 C-1441.8461 -578.8835 -1443.637 -580.6743 -1443.637 -582.8835 C-1443.637 -585.0927 -1441.8461 -586.8835 -1439.637 -586.8835 C-1437.4279 -586.8835 -1435.637 -585.0927 -1435.637 -582.8835 C-1435.637 -580.6743 -1437.4279 -578.8835 -1439.637 -578.8835 Z" clip-path="url(#clipPath2)" stroke="none"/>
      <path fill="none" d="M-1439.637 -578.8835 C-1441.8461 -578.8835 -1443.637 -580.6743 -1443.637 -582.8835 C-1443.637 -585.0927 -1441.8461 -586.8835 -1439.637 -586.8835 C-1437.4279 -586.8835 -1435.637 -585.0927 -1435.637 -582.8835 C-1435.637 -580.6743 -1437.4279 -578.8835 -1439.637 -578.8835 Z" clip-path="url(#clipPath2)"/>
    </g>
    <g transform="matrix(0.8,0,0,0.8,1604,1142.4)" fill-opacity="0.6" fill="rgb(255,255,255)" text-rendering="geometricPrecision" shape-rendering="geometricPrecision" stroke="rgb(255,255,255)" stroke-opacity="0.6">
      <path d="M-1205.8427 -1180.816 L-1035.2588 -1180.816 L-1023.2588 -1168.816 L-1023.2588 -1065.36 L-1035.2588 -1053.36 L-1205.8427 -1053.36 L-1217.8427 -1065.36 L-1217.8427 -1168.816 Z" stroke="none" clip-path="url(#clipPath2)"/>
    </g>
    <g text-rendering="geometricPrecision" stroke-miterlimit="1.45" shape-rendering="geometricPrecision" transform="matrix(0.8,0,0,0.8,1604,1142.4)" stroke-linecap="butt">
      <path fill="none" d="M-1205.8427 -1180.816 L-1035.2588 -1180.816 L-1023.2588 -1168.816 L-1023.2588 -1065.36 L-1035.2588 -1053.36 L-1205.8427 -1053.36 L-1217.8427 -1065.36 L-1217.8427 -1168.816 Z" clip-path="url(#clipPath2)"/>
    </g>
    <g fill="rgb(200,216,235)" text-rendering="geometricPrecision" shape-rendering="geometricPrecision" transform="matrix(0.8,0,0,0.8,1604,1142.4)" stroke="rgb(200,216,235)">
      <path d="M-1160.5508 -1154.9458 Q-1160.5508 -1164.9458 -1150.5508 -1164.9458 L-1090.5508 -1164.9458 Q-1080.5508 -1164.9458 -1080.5508 -1154.9458 L-1080.5508 -1134.9458 Q-1080.5508 -1124.9458 -1090.5508 -1124.9458 L-1150.5508 -1124.9458 Q-1160.5508 -1124.9458 -1160.5508 -1134.9458 Z" stroke="none" clip-path="url(#clipPath2)"/>
    </g>
    <g text-rendering="geometricPrecision" stroke-miterlimit="1.45" shape-rendering="geometricPrecision" transform="matrix(0.8,0,0,0.8,1604,1142.4)" stroke-linecap="butt">
      <path fill="none" d="M-1160.5508 -1154.9458 Q-1160.5508 -1164.9458 -1150.5508 -1164.9458 L-1090.5508 -1164.9458 Q-1080.5508 -1164.9458 -1080.5508 -1154.9458 L-1080.5508 -1134.9458 Q-1080.5508 -1124.9458 -1090.5508 -1124.9458 L-1150.5508 -1124.9458 Q-1160.5508 -1124.9458 -1160.5508 -1134.9458 Z" clip-path="url(#clipPath2)"/>
      <text x="-1144.415" font-size="14px" y="-1140.0923" clip-path="url(#clipPath2)" font-family="'Arial'" stroke="none" xml:space="preserve">AMPKβ</text>
    </g>
    <g fill="rgb(200,216,235)" text-rendering="geometricPrecision" shape-rendering="geometricPrecision" transform="matrix(0.8,0,0,0.8,1604,1142.4)" stroke="rgb(200,216,235)">
      <path d="M-1204.3822 -1106.6747 Q-1204.3822 -1116.6747 -1194.3822 -1116.6747 L-1134.3822 -1116.6747 Q-1124.3822 -1116.6747 -1124.3822 -1106.6747 L-1124.3822 -1086.6747 Q-1124.3822 -1076.6747 -1134.3822 -1076.6747 L-1194.3822 -1076.6747 Q-1204.3822 -1076.6747 -1204.3822 -1086.6747 Z" stroke="none" clip-path="url(#clipPath2)"/>
    </g>
    <g text-rendering="geometricPrecision" stroke-miterlimit="1.45" shape-rendering="geometricPrecision" transform="matrix(0.8,0,0,0.8,1604,1142.4)" stroke-linecap="butt">
      <path fill="none" d="M-1204.3822 -1106.6747 Q-1204.3822 -1116.6747 -1194.3822 -1116.6747 L-1134.3822 -1116.6747 Q-1124.3822 -1116.6747 -1124.3822 -1106.6747 L-1124.3822 -1086.6747 Q-1124.3822 -1076.6747 -1134.3822 -1076.6747 L-1194.3822 -1076.6747 Q-1204.3822 -1076.6747 -1204.3822 -1086.6747 Z" clip-path="url(#clipPath2)"/>
      <text x="-1188.537" font-size="14px" y="-1091.3837" clip-path="url(#clipPath2)" font-family="sans-serif" stroke="none" xml:space="preserve">AMPKα</text>
    </g>
    <g fill="white" text-rendering="geometricPrecision" shape-rendering="geometricPrecision" transform="matrix(0.8,0,0,0.8,1604,1142.4) translate(-1173.3822,-1086.6747)" stroke="white">
      <rect x="0" y="0" clip-path="url(#clipPath13)" width="18" rx="9" ry="9" height="18" stroke="none"/>
    </g>
    <g text-rendering="geometricPrecision" stroke-miterlimit="1.45" shape-rendering="geometricPrecision" transform="matrix(0.8,0,0,0.8,1604,1142.4) translate(-1173.3822,-1086.6747)" stroke-linecap="butt">
      <rect x="0" y="0" clip-path="url(#clipPath13)" fill="none" width="18" rx="9" ry="9" height="18"/>
    </g>
    <g fill="rgb(200,216,235)" text-rendering="geometricPrecision" shape-rendering="geometricPrecision" transform="matrix(0.8,0,0,0.8,1604,1142.4)" stroke="rgb(200,216,235)">
      <path d="M-1116.7194 -1106.6747 Q-1116.7194 -1116.6747 -1106.7194 -1116.6747 L-1046.7194 -1116.6747 Q-1036.7194 -1116.6747 -1036.7194 -1106.6747 L-1036.7194 -1086.6747 Q-1036.7194 -1076.6747 -1046.7194 -1076.6747 L-1106.7194 -1076.6747 Q-1116.7194 -1076.6747 -1116.7194 -1086.6747 Z" stroke="none" clip-path="url(#clipPath2)"/>
    </g>
    <g text-rendering="geometricPrecision" stroke-miterlimit="1.45" shape-rendering="geometricPrecision" transform="matrix(0.8,0,0,0.8,1604,1142.4)" stroke-linecap="butt">
      <path fill="none" d="M-1116.7194 -1106.6747 Q-1116.7194 -1116.6747 -1106.7194 -1116.6747 L-1046.7194 -1116.6747 Q-1036.7194 -1116.6747 -1036.7194 -1106.6747 L-1036.7194 -1086.6747 Q-1036.7194 -1076.6747 -1046.7194 -1076.6747 L-1106.7194 -1076.6747 Q-1116.7194 -1076.6747 -1116.7194 -1086.6747 Z" clip-path="url(#clipPath2)"/>
      <text x="-1100.0573" font-size="14px" y="-1091.8212" clip-path="url(#clipPath2)" font-family="'Arial'" stroke="none" xml:space="preserve">AMPKγ</text>
    </g>
    <g fill="white" text-rendering="geometricPrecision" shape-rendering="geometricPrecision" transform="matrix(0.8,0,0,0.8,1604,1142.4) translate(-1094.7193,-1086.3599)" stroke="white">
      <rect x="0" y="0" clip-path="url(#clipPath14)" width="36" rx="9" ry="9" height="18" stroke="none"/>
    </g>
    <g text-rendering="geometricPrecision" stroke-miterlimit="1.45" shape-rendering="geometricPrecision" transform="matrix(0.8,0,0,0.8,1604,1142.4) translate(-1094.7193,-1086.3599)" stroke-linecap="butt">
      <rect x="0" y="0" clip-path="url(#clipPath14)" fill="none" width="36" rx="9" ry="9" height="18"/>
    </g>
    <g text-rendering="geometricPrecision" stroke-miterlimit="1.45" shape-rendering="geometricPrecision" transform="matrix(0.8,0,0,0.8,1604,1142.4)" stroke-linecap="butt">
      <path fill="none" d="M-1217.8018 -1116.7916 L-1281.2502 -1116.5983" clip-path="url(#clipPath2)"/>
    </g>
    <g transform="matrix(0.8,0,0,0.8,1604,1142.4)" fill-opacity="0.6" fill="rgb(255,255,255)" text-rendering="geometricPrecision" shape-rendering="geometricPrecision" stroke="rgb(255,255,255)" stroke-opacity="0.6">
      <path d="M-1704.4357 -919.4879 L-1533.8518 -919.4879 L-1521.8518 -907.4879 L-1521.8518 -803.6703 L-1533.8518 -791.6703 L-1704.4357 -791.6703 L-1716.4357 -803.6703 L-1716.4357 -907.4879 Z" stroke="none" clip-path="url(#clipPath2)"/>
    </g>
    <g text-rendering="geometricPrecision" stroke-miterlimit="1.45" shape-rendering="geometricPrecision" transform="matrix(0.8,0,0,0.8,1604,1142.4)" stroke-linecap="butt">
      <path fill="none" d="M-1704.4357 -919.4879 L-1533.8518 -919.4879 L-1521.8518 -907.4879 L-1521.8518 -803.6703 L-1533.8518 -791.6703 L-1704.4357 -791.6703 L-1716.4357 -803.6703 L-1716.4357 -907.4879 Z" clip-path="url(#clipPath2)"/>
    </g>
    <g fill="rgb(226,226,226)" text-rendering="geometricPrecision" shape-rendering="geometricPrecision" transform="matrix(0.8,0,0,0.8,1604,1142.4)" stroke="rgb(226,226,226)">
      <path d="M-1703.0331 -841.836 Q-1703.0331 -851.836 -1693.0331 -851.836 L-1633.0331 -851.836 Q-1623.0331 -851.836 -1623.0331 -841.836 L-1623.0331 -821.836 Q-1623.0331 -811.836 -1633.0331 -811.836 L-1693.0331 -811.836 Q-1703.0331 -811.836 -1703.0331 -821.836 Z" stroke="none" clip-path="url(#clipPath2)"/>
    </g>
    <g text-rendering="geometricPrecision" stroke-miterlimit="1.45" shape-rendering="geometricPrecision" transform="matrix(0.8,0,0,0.8,1604,1142.4)" stroke-linecap="butt">
      <path fill="none" d="M-1703.0331 -841.836 Q-1703.0331 -851.836 -1693.0331 -851.836 L-1633.0331 -851.836 Q-1623.0331 -851.836 -1623.0331 -841.836 L-1623.0331 -821.836 Q-1623.0331 -811.836 -1633.0331 -811.836 L-1693.0331 -811.836 Q-1703.0331 -811.836 -1703.0331 -821.836 Z" clip-path="url(#clipPath2)"/>
      <text x="-1683.3529" font-size="14px" y="-826.545" clip-path="url(#clipPath2)" font-family="sans-serif" stroke="none" xml:space="preserve">MO25</text>
    </g>
    <g fill="rgb(226,226,226)" text-rendering="geometricPrecision" shape-rendering="geometricPrecision" transform="matrix(0.8,0,0,0.8,1604,1142.4)" stroke="rgb(226,226,226)">
      <path d="M-1703.0331 -891.5045 Q-1703.0331 -901.5045 -1693.0331 -901.5045 L-1633.0331 -901.5045 Q-1623.0331 -901.5045 -1623.0331 -891.5045 L-1623.0331 -871.5045 Q-1623.0331 -861.5045 -1633.0331 -861.5045 L-1693.0331 -861.5045 Q-1703.0331 -861.5045 -1703.0331 -871.5045 Z" stroke="none" clip-path="url(#clipPath2)"/>
    </g>
    <g text-rendering="geometricPrecision" stroke-miterlimit="1.45" shape-rendering="geometricPrecision" transform="matrix(0.8,0,0,0.8,1604,1142.4)" stroke-linecap="butt">
      <path fill="none" d="M-1703.0331 -891.5045 Q-1703.0331 -901.5045 -1693.0331 -901.5045 L-1633.0331 -901.5045 Q-1623.0331 -901.5045 -1623.0331 -891.5045 L-1623.0331 -871.5045 Q-1623.0331 -861.5045 -1633.0331 -861.5045 L-1693.0331 -861.5045 Q-1703.0331 -861.5045 -1703.0331 -871.5045 Z" clip-path="url(#clipPath2)"/>
      <text x="-1686.7572" font-size="14px" y="-876.651" clip-path="url(#clipPath2)" font-family="'Arial'" stroke="none" xml:space="preserve">STRAD</text>
    </g>
    <g fill="rgb(200,216,235)" text-rendering="geometricPrecision" shape-rendering="geometricPrecision" transform="matrix(0.8,0,0,0.8,1604,1142.4)" stroke="rgb(200,216,235)">
      <path d="M-1616.068 -866.6703 Q-1616.068 -876.6703 -1606.068 -876.6703 L-1546.068 -876.6703 Q-1536.068 -876.6703 -1536.068 -866.6703 L-1536.068 -846.6703 Q-1536.068 -836.6703 -1546.068 -836.6703 L-1606.068 -836.6703 Q-1616.068 -836.6703 -1616.068 -846.6703 Z" stroke="none" clip-path="url(#clipPath2)"/>
    </g>
    <g text-rendering="geometricPrecision" stroke-miterlimit="1.45" shape-rendering="geometricPrecision" transform="matrix(0.8,0,0,0.8,1604,1142.4)" stroke-linecap="butt">
      <path fill="none" d="M-1616.068 -866.6703 Q-1616.068 -876.6703 -1606.068 -876.6703 L-1546.068 -876.6703 Q-1536.068 -876.6703 -1536.068 -866.6703 L-1536.068 -846.6703 Q-1536.068 -836.6703 -1546.068 -836.6703 L-1606.068 -836.6703 Q-1616.068 -836.6703 -1616.068 -846.6703 Z" clip-path="url(#clipPath2)"/>
      <text x="-1593.192" font-size="14px" y="-851.8168" clip-path="url(#clipPath2)" font-family="'Arial'" stroke="none" xml:space="preserve">LKB1</text>
    </g>
    <g fill="white" text-rendering="geometricPrecision" shape-rendering="geometricPrecision" transform="matrix(0.8,0,0,0.8,1604,1142.4) translate(-1601.568,-846.3591)" stroke="white">
      <rect x="0" y="0" clip-path="url(#clipPath15)" width="50.7111" rx="9" ry="9" height="18" stroke="none"/>
    </g>
    <g text-rendering="geometricPrecision" stroke-miterlimit="1.45" shape-rendering="geometricPrecision" transform="matrix(0.8,0,0,0.8,1604,1142.4) translate(-1601.568,-846.3591)" stroke-linecap="butt">
      <rect x="0" y="0" clip-path="url(#clipPath15)" fill="none" width="50.7111" rx="9" ry="9" height="18"/>
      <text x="6.1221" font-size="10px" y="12.7793" clip-path="url(#clipPath15)" font-family="sans-serif" stroke="none" xml:space="preserve">P@S428</text>
    </g>
    <g fill="rgb(226,226,226)" text-rendering="geometricPrecision" shape-rendering="geometricPrecision" transform="matrix(0.8,0,0,0.8,1604,1142.4)" stroke="rgb(226,226,226)">
      <path d="M-1750 -1008.9213 Q-1750 -1018.9213 -1740 -1018.9213 L-1680 -1018.9213 Q-1670 -1018.9213 -1670 -1008.9213 L-1670 -988.9213 Q-1670 -978.9213 -1680 -978.9213 L-1740 -978.9213 Q-1750 -978.9213 -1750 -988.9213 Z" stroke="none" clip-path="url(#clipPath2)"/>
    </g>
    <g text-rendering="geometricPrecision" stroke-miterlimit="1.45" shape-rendering="geometricPrecision" transform="matrix(0.8,0,0,0.8,1604,1142.4)" stroke-linecap="butt">
      <path fill="none" d="M-1750 -1008.9213 Q-1750 -1018.9213 -1740 -1018.9213 L-1680 -1018.9213 Q-1670 -1018.9213 -1670 -1008.9213 L-1670 -988.9213 Q-1670 -978.9213 -1680 -978.9213 L-1740 -978.9213 Q-1750 -978.9213 -1750 -988.9213 Z" clip-path="url(#clipPath2)"/>
      <text x="-1733.7241" font-size="14px" y="-994.0678" clip-path="url(#clipPath2)" font-family="'Arial'" stroke="none" xml:space="preserve">STRAD</text>
    </g>
    <g fill="rgb(226,226,226)" text-rendering="geometricPrecision" shape-rendering="geometricPrecision" transform="matrix(0.8,0,0,0.8,1604,1142.4)" stroke="rgb(226,226,226)">
      <path d="M-1570 -1008.9213 Q-1570 -1018.9213 -1560 -1018.9213 L-1500 -1018.9213 Q-1490 -1018.9213 -1490 -1008.9213 L-1490 -988.9213 Q-1490 -978.9213 -1500 -978.9213 L-1560 -978.9213 Q-1570 -978.9213 -1570 -988.9213 Z" stroke="none" clip-path="url(#clipPath2)"/>
    </g>
    <g text-rendering="geometricPrecision" stroke-miterlimit="1.45" shape-rendering="geometricPrecision" transform="matrix(0.8,0,0,0.8,1604,1142.4)" stroke-linecap="butt">
      <path fill="none" d="M-1570 -1008.9213 Q-1570 -1018.9213 -1560 -1018.9213 L-1500 -1018.9213 Q-1490 -1018.9213 -1490 -1008.9213 L-1490 -988.9213 Q-1490 -978.9213 -1500 -978.9213 L-1560 -978.9213 Q-1570 -978.9213 -1570 -988.9213 Z" clip-path="url(#clipPath2)"/>
      <text x="-1550.3198" font-size="14px" y="-993.6303" clip-path="url(#clipPath2)" font-family="sans-serif" stroke="none" xml:space="preserve">MO25</text>
    </g>
    <g fill="white" text-rendering="geometricPrecision" shape-rendering="geometricPrecision" transform="matrix(0.8,0,0,0.8,1604,1142.4)" stroke="white">
      <rect x="-1628.1437" width="18" height="18" y="-978.5524" clip-path="url(#clipPath2)" stroke="none"/>
    </g>
    <g text-rendering="geometricPrecision" stroke-miterlimit="1.45" shape-rendering="geometricPrecision" transform="matrix(0.8,0,0,0.8,1604,1142.4)" stroke-linecap="butt">
      <rect fill="none" x="-1628.1437" width="18" height="18" y="-978.5524" clip-path="url(#clipPath2)"/>
    </g>
    <g text-rendering="geometricPrecision" stroke-miterlimit="1.45" shape-rendering="geometricPrecision" transform="matrix(0.8,0,0,0.8,1604,1142.4)" stroke-linecap="butt">
      <path fill="none" d="M-1521.8306 -855.579 L-1456.9901 -855.579" clip-path="url(#clipPath2)"/>
      <path fill="white" d="M-1448.9901 -855.579 C-1448.9901 -853.3699 -1450.781 -851.579 -1452.9901 -851.579 C-1455.1992 -851.579 -1456.9901 -853.3699 -1456.9901 -855.579 C-1456.9901 -857.7882 -1455.1992 -859.579 -1452.9901 -859.579 C-1450.781 -859.579 -1448.9901 -857.7882 -1448.9901 -855.579 Z" clip-path="url(#clipPath2)" stroke="none"/>
      <path fill="none" d="M-1448.9901 -855.579 C-1448.9901 -853.3699 -1450.781 -851.579 -1452.9901 -851.579 C-1455.1992 -851.579 -1456.9901 -853.3699 -1456.9901 -855.579 C-1456.9901 -857.7882 -1455.1992 -859.579 -1452.9901 -859.579 C-1450.781 -859.579 -1448.9901 -857.7882 -1448.9901 -855.579 Z" clip-path="url(#clipPath2)"/>
      <path fill="none" d="M-1669.9658 -998.9213 L-1630 -998.9213 L-1625.6068 -998.2966 L-1622.4271 -996.4224 L-1620.4611 -993.2987 L-1619.7085 -988.9256 L-1619.4054 -978.5295" clip-path="url(#clipPath2)"/>
      <path fill="none" d="M-1569.9686 -998.9213 L-1609.0706 -998.9213 L-1613.4471 -998.2963 L-1616.5768 -996.4213 L-1618.4596 -993.2964 L-1619.0955 -988.9214 L-1619.1213 -978.5295" clip-path="url(#clipPath2)"/>
      <path fill="none" d="M-1619.1437 -960.5648 L-1619.1437 -930.4778" clip-path="url(#clipPath2)"/>
      <path d="M-1619.1437 -919.4778 L-1613.1437 -931.4778 L-1625.1437 -931.4778 Z" clip-path="url(#clipPath2)" stroke="none"/>
    </g>
    <g transform="matrix(0.8,0,0,0.8,1604,1142.4)" fill-opacity="0.4471" fill="rgb(237,235,228)" text-rendering="geometricPrecision" shape-rendering="geometricPrecision" stroke="rgb(237,235,228)" stroke-opacity="0.4471">
      <rect x="-1980.0376" y="-432.9429" clip-path="url(#clipPath2)" width="371.3054" rx="4" ry="4" height="233.1067" stroke="none"/>
    </g>
    <g text-rendering="geometricPrecision" stroke-miterlimit="1.45" shape-rendering="geometricPrecision" font-family="sans-serif" transform="matrix(0.8,0,0,0.8,1604,1142.4)" stroke-linecap="butt">
      <text x="-1846.5011" xml:space="preserve" y="-419.3414" clip-path="url(#clipPath2)" stroke="none">MITOCHONDRION</text>
      <rect x="-1980.0376" y="-432.9429" clip-path="url(#clipPath2)" fill="none" width="371.3054" rx="4" ry="4" height="233.1067" stroke-width="3"/>
    </g>
    <g fill="white" text-rendering="geometricPrecision" shape-rendering="geometricPrecision" transform="matrix(0.8,0,0,0.8,1604,1142.4)" stroke="white">
      <rect x="-1796.1361" width="18" height="18" y="-285.7103" clip-path="url(#clipPath2)" stroke="none"/>
    </g>
    <g text-rendering="geometricPrecision" stroke-miterlimit="1.45" shape-rendering="geometricPrecision" transform="matrix(0.8,0,0,0.8,1604,1142.4)" stroke-linecap="butt">
      <rect fill="none" x="-1796.1361" width="18" height="18" y="-285.7103" clip-path="url(#clipPath2)"/>
    </g>
    <g fill="rgb(219,235,219)" text-rendering="geometricPrecision" shape-rendering="geometricPrecision" transform="matrix(0.8,0,0,0.8,1604,1142.4)" stroke="rgb(219,235,219)">
      <rect x="-1965.0376" y="-339.1032" clip-path="url(#clipPath2)" width="120" rx="16" ry="16" height="32" stroke="none"/>
    </g>
    <g text-rendering="geometricPrecision" stroke-miterlimit="1.45" shape-rendering="geometricPrecision" transform="matrix(0.8,0,0,0.8,1604,1142.4)" stroke-linecap="butt">
      <rect x="-1965.0376" y="-339.1032" clip-path="url(#clipPath2)" fill="none" width="120" rx="16" ry="16" height="32"/>
      <text x="-1942.3892" font-size="14px" y="-317.8122" clip-path="url(#clipPath2)" font-family="sans-serif" stroke="none" xml:space="preserve">L-carnitine</text>
    </g>
    <g fill="rgb(219,235,219)" text-rendering="geometricPrecision" shape-rendering="geometricPrecision" transform="matrix(0.8,0,0,0.8,1604,1142.4)" stroke="rgb(219,235,219)">
      <rect x="-1743.7322" y="-292.7103" clip-path="url(#clipPath2)" width="120" rx="16" ry="16" height="32" stroke="none"/>
    </g>
    <g text-rendering="geometricPrecision" stroke-miterlimit="1.45" shape-rendering="geometricPrecision" transform="matrix(0.8,0,0,0.8,1604,1142.4)" stroke-linecap="butt">
      <rect x="-1743.7322" y="-292.7103" clip-path="url(#clipPath2)" fill="none" width="120" rx="16" ry="16" height="32"/>
      <text x="-1738.2659" font-size="14px" y="-271.4193" clip-path="url(#clipPath2)" font-family="sans-serif" stroke="none" xml:space="preserve">acyl-L-carnitine</text>
    </g>
    <g fill="rgb(219,235,219)" text-rendering="geometricPrecision" shape-rendering="geometricPrecision" transform="matrix(0.8,0,0,0.8,1604,1142.4)" stroke="rgb(219,235,219)">
      <rect x="-1965.0376" y="-246.8362" clip-path="url(#clipPath2)" width="120" rx="16" ry="16" height="32" stroke="none"/>
    </g>
    <g text-rendering="geometricPrecision" stroke-miterlimit="1.45" shape-rendering="geometricPrecision" transform="matrix(0.8,0,0,0.8,1604,1142.4)" stroke-linecap="butt">
      <rect x="-1965.0376" y="-246.8362" clip-path="url(#clipPath2)" fill="none" width="120" rx="16" ry="16" height="32"/>
      <text x="-1936.1924" font-size="14px" y="-225.5452" clip-path="url(#clipPath2)" font-family="sans-serif" stroke="none" xml:space="preserve">acyl-CoA</text>
    </g>
    <g fill="rgb(226,172,163)" text-rendering="geometricPrecision" shape-rendering="geometricPrecision" transform="matrix(0.8,0,0,0.8,1604,1142.4)" stroke="rgb(226,172,163)">
      <path d="M-1827.1361 -389.8102 Q-1827.1361 -399.8102 -1817.1361 -399.8102 L-1757.1361 -399.8102 Q-1747.1361 -399.8102 -1747.1361 -389.8102 L-1747.1361 -369.8102 Q-1747.1361 -359.8102 -1757.1361 -359.8102 L-1817.1361 -359.8102 Q-1827.1361 -359.8102 -1827.1361 -369.8102 Z" stroke="none" clip-path="url(#clipPath2)"/>
    </g>
    <g text-rendering="geometricPrecision" stroke-miterlimit="1.45" shape-rendering="geometricPrecision" transform="matrix(0.8,0,0,0.8,1604,1142.4)" stroke-linecap="butt">
      <path fill="none" d="M-1827.1361 -389.8102 Q-1827.1361 -399.8102 -1817.1361 -399.8102 L-1757.1361 -399.8102 Q-1747.1361 -399.8102 -1747.1361 -389.8102 L-1747.1361 -369.8102 Q-1747.1361 -359.8102 -1757.1361 -359.8102 L-1817.1361 -359.8102 Q-1827.1361 -359.8102 -1827.1361 -369.8102 Z" clip-path="url(#clipPath2)"/>
      <text x="-1804.701" font-size="14px" y="-374.5191" clip-path="url(#clipPath2)" font-family="sans-serif" stroke="none" xml:space="preserve">CPT1</text>
    </g>
    <g fill="rgb(200,216,235)" text-rendering="geometricPrecision" shape-rendering="geometricPrecision" transform="matrix(0.8,0,0,0.8,1604,1142.4)" stroke="rgb(200,216,235)">
      <path d="M-1660 -1078.9214 Q-1660 -1088.9214 -1650 -1088.9214 L-1590 -1088.9214 Q-1580 -1088.9214 -1580 -1078.9214 L-1580 -1058.9214 Q-1580 -1048.9214 -1590 -1048.9214 L-1650 -1048.9214 Q-1660 -1048.9214 -1660 -1058.9214 Z" stroke="none" clip-path="url(#clipPath2)"/>
    </g>
    <g text-rendering="geometricPrecision" stroke-miterlimit="1.45" shape-rendering="geometricPrecision" transform="matrix(0.8,0,0,0.8,1604,1142.4)" stroke-linecap="butt">
      <path fill="none" d="M-1660 -1078.9214 Q-1660 -1088.9214 -1650 -1088.9214 L-1590 -1088.9214 Q-1580 -1088.9214 -1580 -1078.9214 L-1580 -1058.9214 Q-1580 -1048.9214 -1590 -1048.9214 L-1650 -1048.9214 Q-1660 -1048.9214 -1660 -1058.9214 Z" clip-path="url(#clipPath2)"/>
      <text x="-1637.124" font-size="14px" y="-1064.0679" clip-path="url(#clipPath2)" font-family="'Arial'" stroke="none" xml:space="preserve">LKB1</text>
    </g>
    <g fill="white" text-rendering="geometricPrecision" shape-rendering="geometricPrecision" transform="matrix(0.8,0,0,0.8,1604,1142.4) translate(-1645.5,-1058.6102)" stroke="white">
      <rect x="0" y="0" clip-path="url(#clipPath16)" width="50.7111" rx="9" ry="9" height="18" stroke="none"/>
    </g>
    <g text-rendering="geometricPrecision" stroke-miterlimit="1.45" shape-rendering="geometricPrecision" transform="matrix(0.8,0,0,0.8,1604,1142.4) translate(-1645.5,-1058.6102)" stroke-linecap="butt">
      <rect x="0" y="0" clip-path="url(#clipPath16)" fill="none" width="50.7111" rx="9" ry="9" height="18"/>
      <text x="6.1221" font-size="10px" y="12.7793" clip-path="url(#clipPath16)" font-family="sans-serif" stroke="none" xml:space="preserve">P@S428</text>
    </g>
    <g fill="rgb(226,172,163)" text-rendering="geometricPrecision" shape-rendering="geometricPrecision" transform="matrix(0.8,0,0,0.8,1604,1142.4)" stroke="rgb(226,172,163)">
      <path d="M-1551.4435 -389.8102 Q-1551.4435 -399.8102 -1541.4435 -399.8102 L-1481.4435 -399.8102 Q-1471.4435 -399.8102 -1471.4435 -389.8102 L-1471.4435 -369.8102 Q-1471.4435 -359.8102 -1481.4435 -359.8102 L-1541.4435 -359.8102 Q-1551.4435 -359.8102 -1551.4435 -369.8102 Z" stroke="none" clip-path="url(#clipPath2)"/>
    </g>
    <g text-rendering="geometricPrecision" stroke-miterlimit="1.45" shape-rendering="geometricPrecision" transform="matrix(0.8,0,0,0.8,1604,1142.4)" stroke-linecap="butt">
      <path fill="none" d="M-1551.4435 -389.8102 Q-1551.4435 -399.8102 -1541.4435 -399.8102 L-1481.4435 -399.8102 Q-1471.4435 -399.8102 -1471.4435 -389.8102 L-1471.4435 -369.8102 Q-1471.4435 -359.8102 -1481.4435 -359.8102 L-1541.4435 -359.8102 Q-1551.4435 -359.8102 -1551.4435 -369.8102 Z" clip-path="url(#clipPath2)"/>
      <text x="-1529.0084" font-size="14px" y="-374.5191" clip-path="url(#clipPath2)" font-family="sans-serif" stroke="none" xml:space="preserve">CPT1</text>
    </g>
    <g fill="white" text-rendering="geometricPrecision" shape-rendering="geometricPrecision" transform="matrix(0.8,0,0,0.8,1604,1142.4)" stroke="white">
      <rect x="-1661.6243" width="18" height="18" y="-388.8101" clip-path="url(#clipPath2)" stroke="none"/>
    </g>
    <g text-rendering="geometricPrecision" stroke-miterlimit="1.45" shape-rendering="geometricPrecision" transform="matrix(0.8,0,0,0.8,1604,1142.4)" stroke-linecap="butt">
      <rect fill="none" x="-1661.6243" width="18" height="18" y="-388.8101" clip-path="url(#clipPath2)"/>
    </g>
    <g fill="white" text-rendering="geometricPrecision" shape-rendering="geometricPrecision" transform="matrix(0.8,0,0,0.8,1604,1142.4)" stroke="white">
      <rect x="-1629" width="18" height="18" y="-1149.1183" clip-path="url(#clipPath2)" stroke="none"/>
    </g>
    <g text-rendering="geometricPrecision" stroke-miterlimit="1.45" shape-rendering="geometricPrecision" transform="matrix(0.8,0,0,0.8,1604,1142.4)" stroke-linecap="butt">
      <rect fill="none" x="-1629" width="18" height="18" y="-1149.1183" clip-path="url(#clipPath2)"/>
    </g>
    <g text-rendering="geometricPrecision" stroke-miterlimit="1.45" shape-rendering="geometricPrecision" transform="matrix(0.8,0,0,0.8,1604,1142.4)" stroke-linecap="butt">
      <path fill="none" d="M-1850.0051 -311.5012 L-1812.3739 -276.7103 L-1796.1566 -276.7103" clip-path="url(#clipPath2)"/>
      <path fill="none" d="M-1778.1237 -276.7103 L-1754.6947 -276.7103" clip-path="url(#clipPath2)"/>
      <path d="M-1743.6947 -276.7103 L-1755.6947 -282.7103 L-1755.6947 -270.7103 Z" clip-path="url(#clipPath2)" stroke="none"/>
      <path fill="none" d="M-1850.2333 -242.63 L-1812.3739 -276.7103 L-1796.1566 -276.7103" clip-path="url(#clipPath2)"/>
      <path fill="none" d="M-1787.1361 -359.7993 L-1787.1361 -293.6765" clip-path="url(#clipPath2)"/>
      <path fill="white" d="M-1787.1361 -285.6765 C-1789.3452 -285.6765 -1791.1361 -287.4673 -1791.1361 -289.6765 C-1791.1361 -291.8856 -1789.3452 -293.6765 -1787.1361 -293.6765 C-1784.927 -293.6765 -1783.1361 -291.8856 -1783.1361 -289.6765 C-1783.1361 -287.4673 -1784.927 -285.6765 -1787.1361 -285.6765 Z" clip-path="url(#clipPath2)" stroke="none"/>
      <path fill="none" d="M-1787.1361 -285.6765 C-1789.3452 -285.6765 -1791.1361 -287.4673 -1791.1361 -289.6765 C-1791.1361 -291.8856 -1789.3452 -293.6765 -1787.1361 -293.6765 C-1784.927 -293.6765 -1783.1361 -291.8856 -1783.1361 -289.6765 C-1783.1361 -287.4673 -1784.927 -285.6765 -1787.1361 -285.6765 Z" clip-path="url(#clipPath2)"/>
      <path fill="none" d="M-1619.1437 -1040.1643 L-1619.1437 -978.5513" clip-path="url(#clipPath2)"/>
      <path fill="none" d="M-1471.4633 -379.974 L-1400.9615 -380.2631" clip-path="url(#clipPath2)"/>
      <path fill="none" d="M-1747.1044 -379.8102 L-1661.6202 -379.8102" clip-path="url(#clipPath2)"/>
      <path fill="none" d="M-1643.6282 -379.8102 L-1562.4281 -379.8102" clip-path="url(#clipPath2)"/>
      <path d="M-1551.4281 -379.8102 L-1563.4281 -385.8102 L-1563.4281 -373.8102 Z" clip-path="url(#clipPath2)" stroke="none"/>
      <path fill="none" d="M-1620 -1181.9004 L-1620 -1149.1357" clip-path="url(#clipPath2)"/>
      <path fill="none" d="M-1620 -1131.1144 L-1620 -1099.9337" clip-path="url(#clipPath2)"/>
      <path d="M-1620 -1088.9337 L-1614 -1100.9337 L-1626 -1100.9337 Z" clip-path="url(#clipPath2)" stroke="none"/>
    </g>
  </g>
</svg>
