<?xml version="1.0" encoding="UTF-8"?><svg xmlns="http://www.w3.org/2000/svg" xmlns:xlink="http://www.w3.org/1999/xlink" fill-opacity="1" color-rendering="auto" color-interpolation="auto" text-rendering="auto" stroke="black" stroke-linecap="square" width="714" stroke-miterlimit="10" shape-rendering="auto" stroke-opacity="1" fill="black" stroke-dasharray="none" font-weight="normal" stroke-width="1" height="964" font-family="'Dialog'" font-style="normal" stroke-linejoin="miter" font-size="12px" stroke-dashoffset="0" image-rendering="auto">
  <!--Generated by ySVG 2.5-->
  <defs id="genericDefs"/>
  <g>
    <defs id="defs1">
      <clipPath clipPathUnits="userSpaceOnUse" id="clipPath1">
        <path d="M0 0 L714 0 L714 964 L0 964 L0 0 Z"/>
      </clipPath>
      <clipPath clipPathUnits="userSpaceOnUse" id="clipPath2">
        <path d="M-1906 -1385 L-1013.5 -1385 L-1013.5 -180 L-1906 -180 L-1906 -1385 Z"/>
      </clipPath>
      <clipPath clipPathUnits="userSpaceOnUse" id="clipPath3">
        <path d="M-172.4789 -82.7961 L720.0211 -82.7961 L720.0211 1122.204 L-172.4789 1122.204 L-172.4789 -82.7961 Z"/>
      </clipPath>
      <clipPath clipPathUnits="userSpaceOnUse" id="clipPath4">
        <path d="M-172.6234 -210.2756 L719.8766 -210.2756 L719.8766 994.7244 L-172.6234 994.7244 L-172.6234 -210.2756 Z"/>
      </clipPath>
      <clipPath clipPathUnits="userSpaceOnUse" id="clipPath5">
        <path d="M-294.1234 -109.4617 L598.3766 -109.4617 L598.3766 1095.5382 L-294.1234 1095.5382 L-294.1234 -109.4617 Z"/>
      </clipPath>
      <clipPath clipPathUnits="userSpaceOnUse" id="clipPath6">
        <path d="M-340.9286 -826.1584 L551.5714 -826.1584 L551.5714 378.8416 L-340.9286 378.8416 L-340.9286 -826.1584 Z"/>
      </clipPath>
      <clipPath clipPathUnits="userSpaceOnUse" id="clipPath7">
        <path d="M-543.7976 -826.1584 L348.7024 -826.1584 L348.7024 378.8416 L-543.7976 378.8416 L-543.7976 -826.1584 Z"/>
      </clipPath>
      <clipPath clipPathUnits="userSpaceOnUse" id="clipPath8">
        <path d="M-413.5316 -494.1833 L478.9684 -494.1833 L478.9684 710.8167 L-413.5316 710.8167 L-413.5316 -494.1833 Z"/>
      </clipPath>
      <clipPath clipPathUnits="userSpaceOnUse" id="clipPath9">
        <path d="M-492.1945 -494.4981 L400.3055 -494.4981 L400.3055 710.5019 L-492.1945 710.5019 L-492.1945 -494.4981 Z"/>
      </clipPath>
      <clipPath clipPathUnits="userSpaceOnUse" id="clipPath10">
        <path d="M-413.5316 -720.7147 L478.9684 -720.7147 L478.9684 484.2853 L-413.5316 484.2853 L-413.5316 -720.7147 Z"/>
      </clipPath>
      <clipPath clipPathUnits="userSpaceOnUse" id="clipPath11">
        <path d="M-492.1945 -720.0295 L400.3055 -720.0295 L400.3055 484.9705 L-492.1945 484.9705 L-492.1945 -720.0295 Z"/>
      </clipPath>
      <clipPath clipPathUnits="userSpaceOnUse" id="clipPath12">
        <path d="M-723.5316 -494.7006 L168.9684 -494.7006 L168.9684 710.2994 L-723.5316 710.2994 L-723.5316 -494.7006 Z"/>
      </clipPath>
      <clipPath clipPathUnits="userSpaceOnUse" id="clipPath13">
        <path d="M-802.1945 -495.0154 L90.3055 -495.0154 L90.3055 709.9846 L-802.1945 709.9846 L-802.1945 -495.0154 Z"/>
      </clipPath>
      <clipPath clipPathUnits="userSpaceOnUse" id="clipPath14">
        <path d="M-216.5554 -583.1246 L675.9446 -583.1246 L675.9446 621.8754 L-216.5554 621.8754 L-216.5554 -583.1246 Z"/>
      </clipPath>
      <clipPath clipPathUnits="userSpaceOnUse" id="clipPath15">
        <path d="M-172.6234 -370.8735 L719.8766 -370.8735 L719.8766 834.1265 L-172.6234 834.1265 L-172.6234 -370.8735 Z"/>
      </clipPath>
      <clipPath clipPathUnits="userSpaceOnUse" id="clipPath16">
        <path d="M-684.1234 -110.4837 L208.3766 -110.4837 L208.3766 1094.5162 L-684.1234 1094.5162 L-684.1234 -110.4837 Z"/>
      </clipPath>
      <clipPath clipPathUnits="userSpaceOnUse" id="clipPath17">
        <path d="M-504.1234 -110.4837 L388.3766 -110.4837 L388.3766 1094.5162 L-504.1234 1094.5162 L-504.1234 -110.4837 Z"/>
      </clipPath>
    </defs>
    <g fill="white" text-rendering="geometricPrecision" shape-rendering="geometricPrecision" transform="scale(0.8,0.8) translate(1906,1385)" stroke="white">
      <rect x="-1907" width="894" height="1205" y="-1385" clip-path="url(#clipPath2)" stroke="none"/>
    </g>
    <g transform="matrix(0.8,0,0,0.8,1524.8,1108)" fill-opacity="0.4471" fill="rgb(237,235,228)" text-rendering="geometricPrecision" shape-rendering="geometricPrecision" stroke="rgb(237,235,228)" stroke-opacity="0.4471">
      <rect x="-1790.9097" y="-1365.6479" clip-path="url(#clipPath2)" width="347.4413" rx="4" ry="4" height="223.9235" stroke="none"/>
    </g>
    <g text-rendering="geometricPrecision" stroke-miterlimit="1.45" shape-rendering="geometricPrecision" font-family="sans-serif" transform="matrix(0.8,0,0,0.8,1524.8,1108)" stroke-linecap="butt">
      <text x="-1643.7701" xml:space="preserve" y="-1352.0464" clip-path="url(#clipPath2)" stroke="none">NUCLEUS</text>
      <rect x="-1790.9097" y="-1365.6479" clip-path="url(#clipPath2)" fill="none" width="347.4413" rx="4" ry="4" height="223.9235" stroke-width="3"/>
    </g>
    <g fill="white" text-rendering="geometricPrecision" shape-rendering="geometricPrecision" transform="matrix(0.8,0,0,0.8,1524.8,1108)" stroke="white">
      <rect x="-1716.8766" width="18" height="18" y="-1255.5383" clip-path="url(#clipPath2)" stroke="none"/>
    </g>
    <g text-rendering="geometricPrecision" stroke-miterlimit="1.45" shape-rendering="geometricPrecision" transform="matrix(0.8,0,0,0.8,1524.8,1108)" stroke-linecap="butt">
      <rect fill="none" x="-1716.8766" width="18" height="18" y="-1255.5383" clip-path="url(#clipPath2)"/>
    </g>
    <g fill="rgb(200,216,235)" text-rendering="geometricPrecision" shape-rendering="geometricPrecision" transform="matrix(0.8,0,0,0.8,1524.8,1108)" stroke="rgb(200,216,235)">
      <path d="M-1747.8766 -1322.5151 Q-1747.8766 -1332.5151 -1737.8766 -1332.5151 L-1677.8766 -1332.5151 Q-1667.8766 -1332.5151 -1667.8766 -1322.5151 L-1667.8766 -1302.5151 Q-1667.8766 -1292.5151 -1677.8766 -1292.5151 L-1737.8766 -1292.5151 Q-1747.8766 -1292.5151 -1747.8766 -1302.5151 Z" stroke="none" clip-path="url(#clipPath2)"/>
    </g>
    <g text-rendering="geometricPrecision" stroke-miterlimit="1.45" shape-rendering="geometricPrecision" transform="matrix(0.8,0,0,0.8,1524.8,1108)" stroke-linecap="butt">
      <path fill="none" d="M-1747.8766 -1322.5151 Q-1747.8766 -1332.5151 -1737.8766 -1332.5151 L-1677.8766 -1332.5151 Q-1667.8766 -1332.5151 -1667.8766 -1322.5151 L-1667.8766 -1302.5151 Q-1667.8766 -1292.5151 -1677.8766 -1292.5151 L-1737.8766 -1292.5151 Q-1747.8766 -1292.5151 -1747.8766 -1302.5151 Z" clip-path="url(#clipPath2)"/>
      <text x="-1725.0006" font-size="14px" y="-1307.6616" clip-path="url(#clipPath2)" font-family="'Arial'" stroke="none" xml:space="preserve">LKB1</text>
    </g>
    <g fill="white" text-rendering="geometricPrecision" shape-rendering="geometricPrecision" transform="matrix(0.8,0,0,0.8,1524.8,1108) translate(-1733.5211,-1302.2039)" stroke="white">
      <rect x="0" y="0" clip-path="url(#clipPath3)" width="50.7111" rx="9" ry="9" height="18" stroke="none"/>
    </g>
    <g text-rendering="geometricPrecision" stroke-miterlimit="1.45" shape-rendering="geometricPrecision" transform="matrix(0.8,0,0,0.8,1524.8,1108) translate(-1733.5211,-1302.2039)" stroke-linecap="butt">
      <rect x="0" y="0" clip-path="url(#clipPath3)" fill="none" width="50.7111" rx="9" ry="9" height="18"/>
      <text x="7.3038" font-size="10px" y="12.7793" clip-path="url(#clipPath3)" font-family="sans-serif" stroke="none" xml:space="preserve"> @S428</text>
    </g>
    <g fill="rgb(200,216,235)" text-rendering="geometricPrecision" shape-rendering="geometricPrecision" transform="matrix(0.8,0,0,0.8,1524.8,1108)" stroke="rgb(200,216,235)">
      <path d="M-1747.8766 -1195.0355 Q-1747.8766 -1205.0355 -1737.8766 -1205.0355 L-1677.8766 -1205.0355 Q-1667.8766 -1205.0355 -1667.8766 -1195.0355 L-1667.8766 -1175.0355 Q-1667.8766 -1165.0355 -1677.8766 -1165.0355 L-1737.8766 -1165.0355 Q-1747.8766 -1165.0355 -1747.8766 -1175.0355 Z" stroke="none" clip-path="url(#clipPath2)"/>
    </g>
    <g text-rendering="geometricPrecision" stroke-miterlimit="1.45" shape-rendering="geometricPrecision" transform="matrix(0.8,0,0,0.8,1524.8,1108)" stroke-linecap="butt">
      <path fill="none" d="M-1747.8766 -1195.0355 Q-1747.8766 -1205.0355 -1737.8766 -1205.0355 L-1677.8766 -1205.0355 Q-1667.8766 -1205.0355 -1667.8766 -1195.0355 L-1667.8766 -1175.0355 Q-1667.8766 -1165.0355 -1677.8766 -1165.0355 L-1737.8766 -1165.0355 Q-1747.8766 -1165.0355 -1747.8766 -1175.0355 Z" clip-path="url(#clipPath2)"/>
      <text x="-1725.0006" font-size="14px" y="-1180.182" clip-path="url(#clipPath2)" font-family="'Arial'" stroke="none" xml:space="preserve">LKB1</text>
    </g>
    <g fill="white" text-rendering="geometricPrecision" shape-rendering="geometricPrecision" transform="matrix(0.8,0,0,0.8,1524.8,1108) translate(-1733.3766,-1174.7244)" stroke="white">
      <rect x="0" y="0" clip-path="url(#clipPath4)" width="50.7111" rx="9" ry="9" height="18" stroke="none"/>
    </g>
    <g text-rendering="geometricPrecision" stroke-miterlimit="1.45" shape-rendering="geometricPrecision" transform="matrix(0.8,0,0,0.8,1524.8,1108) translate(-1733.3766,-1174.7244)" stroke-linecap="butt">
      <rect x="0" y="0" clip-path="url(#clipPath4)" fill="none" width="50.7111" rx="9" ry="9" height="18"/>
      <text x="6.1221" font-size="10px" y="12.7793" clip-path="url(#clipPath4)" font-family="sans-serif" stroke="none" xml:space="preserve">P@S428</text>
    </g>
    <g fill="rgb(200,216,235)" text-rendering="geometricPrecision" shape-rendering="geometricPrecision" transform="matrix(0.8,0,0,0.8,1524.8,1108)" stroke="rgb(200,216,235)">
      <path d="M-1627.8766 -1256.5382 Q-1627.8766 -1266.5382 -1617.8766 -1266.5382 L-1557.8766 -1266.5382 Q-1547.8766 -1266.5382 -1547.8766 -1256.5382 L-1547.8766 -1236.5382 Q-1547.8766 -1226.5382 -1557.8766 -1226.5382 L-1617.8766 -1226.5382 Q-1627.8766 -1226.5382 -1627.8766 -1236.5382 Z" stroke="none" clip-path="url(#clipPath2)"/>
    </g>
    <g text-rendering="geometricPrecision" stroke-miterlimit="1.45" shape-rendering="geometricPrecision" transform="matrix(0.8,0,0,0.8,1524.8,1108)" stroke-linecap="butt">
      <path fill="none" d="M-1627.8766 -1256.5382 Q-1627.8766 -1266.5382 -1617.8766 -1266.5382 L-1557.8766 -1266.5382 Q-1547.8766 -1266.5382 -1547.8766 -1256.5382 L-1547.8766 -1236.5382 Q-1547.8766 -1226.5382 -1557.8766 -1226.5382 L-1617.8766 -1226.5382 Q-1627.8766 -1226.5382 -1627.8766 -1236.5382 Z" clip-path="url(#clipPath2)"/>
      <text x="-1601.1451" font-size="14px" y="-1241.2472" clip-path="url(#clipPath2)" font-family="sans-serif" stroke="none" xml:space="preserve">PKA</text>
    </g>
    <g fill="white" text-rendering="geometricPrecision" shape-rendering="geometricPrecision" transform="matrix(0.8,0,0,0.8,1524.8,1108) translate(-1611.8766,-1275.5383)" stroke="white">
      <rect x="0" y="0" clip-path="url(#clipPath5)" width="48" rx="9" ry="9" height="18" stroke="none"/>
    </g>
    <g text-rendering="geometricPrecision" stroke-miterlimit="1.45" shape-rendering="geometricPrecision" transform="matrix(0.8,0,0,0.8,1524.8,1108) translate(-1611.8766,-1275.5383)" stroke-linecap="butt">
      <rect x="0" y="0" clip-path="url(#clipPath5)" fill="none" width="48" rx="9" ry="9" height="18"/>
      <text x="9.9888" font-size="10px" y="12.7793" clip-path="url(#clipPath5)" font-family="sans-serif" stroke="none" xml:space="preserve">active</text>
    </g>
    <g fill="rgb(226,172,163)" text-rendering="geometricPrecision" shape-rendering="geometricPrecision" transform="matrix(0.8,0,0,0.8,1524.8,1108)" stroke="rgb(226,172,163)">
      <path d="M-1582.4435 -579.8416 Q-1582.4435 -589.8416 -1572.4435 -589.8416 L-1512.4435 -589.8416 Q-1502.4435 -589.8416 -1502.4435 -579.8416 L-1502.4435 -559.8416 Q-1502.4435 -549.8416 -1512.4435 -549.8416 L-1572.4435 -549.8416 Q-1582.4435 -549.8416 -1582.4435 -559.8416 Z" stroke="none" clip-path="url(#clipPath2)"/>
    </g>
    <g text-rendering="geometricPrecision" stroke-miterlimit="1.45" shape-rendering="geometricPrecision" transform="matrix(0.8,0,0,0.8,1524.8,1108)" stroke-linecap="butt">
      <path fill="none" d="M-1582.4435 -579.8416 Q-1582.4435 -589.8416 -1572.4435 -589.8416 L-1512.4435 -589.8416 Q-1502.4435 -589.8416 -1502.4435 -579.8416 L-1502.4435 -559.8416 Q-1502.4435 -549.8416 -1512.4435 -549.8416 L-1572.4435 -549.8416 Q-1582.4435 -549.8416 -1582.4435 -559.8416 Z" clip-path="url(#clipPath2)"/>
      <text x="-1565.8156" font-size="14px" y="-564.5506" clip-path="url(#clipPath2)" font-family="sans-serif" stroke="none" xml:space="preserve">ACACB</text>
    </g>
    <g fill="white" text-rendering="geometricPrecision" shape-rendering="geometricPrecision" transform="matrix(0.8,0,0,0.8,1524.8,1108) translate(-1565.0714,-558.8416)" stroke="white">
      <rect x="0" y="0" clip-path="url(#clipPath6)" width="48" rx="9" ry="9" height="18" stroke="none"/>
    </g>
    <g text-rendering="geometricPrecision" stroke-miterlimit="1.45" shape-rendering="geometricPrecision" transform="matrix(0.8,0,0,0.8,1524.8,1108) translate(-1565.0714,-558.8416)" stroke-linecap="butt">
      <rect x="0" y="0" clip-path="url(#clipPath6)" fill="none" width="48" rx="9" ry="9" height="18"/>
      <text x="5.9482" font-size="10px" y="12.7793" clip-path="url(#clipPath6)" font-family="sans-serif" stroke="none" xml:space="preserve"> @S222</text>
    </g>
    <g fill="rgb(226,172,163)" text-rendering="geometricPrecision" shape-rendering="geometricPrecision" transform="matrix(0.8,0,0,0.8,1524.8,1108)" stroke="rgb(226,172,163)">
      <path d="M-1376.8303 -579.8416 Q-1376.8303 -589.8416 -1366.8303 -589.8416 L-1306.8303 -589.8416 Q-1296.8303 -589.8416 -1296.8303 -579.8416 L-1296.8303 -559.8416 Q-1296.8303 -549.8416 -1306.8303 -549.8416 L-1366.8303 -549.8416 Q-1376.8303 -549.8416 -1376.8303 -559.8416 Z" stroke="none" clip-path="url(#clipPath2)"/>
    </g>
    <g text-rendering="geometricPrecision" stroke-miterlimit="1.45" shape-rendering="geometricPrecision" transform="matrix(0.8,0,0,0.8,1524.8,1108)" stroke-linecap="butt">
      <path fill="none" d="M-1376.8303 -579.8416 Q-1376.8303 -589.8416 -1366.8303 -589.8416 L-1306.8303 -589.8416 Q-1296.8303 -589.8416 -1296.8303 -579.8416 L-1296.8303 -559.8416 Q-1296.8303 -549.8416 -1306.8303 -549.8416 L-1366.8303 -549.8416 Q-1376.8303 -549.8416 -1376.8303 -559.8416 Z" clip-path="url(#clipPath2)"/>
      <text x="-1360.2024" font-size="14px" y="-564.5506" clip-path="url(#clipPath2)" font-family="sans-serif" stroke="none" xml:space="preserve">ACACB</text>
    </g>
    <g fill="white" text-rendering="geometricPrecision" shape-rendering="geometricPrecision" transform="matrix(0.8,0,0,0.8,1524.8,1108) translate(-1362.2024,-558.8416)" stroke="white">
      <rect x="0" y="0" clip-path="url(#clipPath7)" width="48" rx="9" ry="9" height="18" stroke="none"/>
    </g>
    <g text-rendering="geometricPrecision" stroke-miterlimit="1.45" shape-rendering="geometricPrecision" transform="matrix(0.8,0,0,0.8,1524.8,1108) translate(-1362.2024,-558.8416)" stroke-linecap="butt">
      <rect x="0" y="0" clip-path="url(#clipPath7)" fill="none" width="48" rx="9" ry="9" height="18"/>
      <text x="4.7666" font-size="10px" y="12.7793" clip-path="url(#clipPath7)" font-family="sans-serif" stroke="none" xml:space="preserve">P@S222</text>
    </g>
    <g fill="white" text-rendering="geometricPrecision" shape-rendering="geometricPrecision" transform="matrix(0.8,0,0,0.8,1524.8,1108)" stroke="white">
      <rect x="-1448.6369" width="18" height="18" y="-578.8764" clip-path="url(#clipPath2)" stroke="none"/>
    </g>
    <g text-rendering="geometricPrecision" stroke-miterlimit="1.45" shape-rendering="geometricPrecision" transform="matrix(0.8,0,0,0.8,1524.8,1108)" stroke-linecap="butt">
      <rect fill="none" x="-1448.6369" width="18" height="18" y="-578.8764" clip-path="url(#clipPath2)"/>
    </g>
    <g fill="rgb(219,235,219)" text-rendering="geometricPrecision" shape-rendering="geometricPrecision" transform="matrix(0.8,0,0,0.8,1524.8,1108)" stroke="rgb(219,235,219)">
      <rect x="-1712.1799" y="-499.8893" clip-path="url(#clipPath2)" width="120" rx="16" ry="16" height="32" stroke="none"/>
    </g>
    <g text-rendering="geometricPrecision" stroke-miterlimit="1.45" shape-rendering="geometricPrecision" transform="matrix(0.8,0,0,0.8,1524.8,1108)" stroke-linecap="butt">
      <rect x="-1712.1799" y="-499.8893" clip-path="url(#clipPath2)" fill="none" width="120" rx="16" ry="16" height="32"/>
      <text x="-1689.8527" font-size="14px" y="-478.5983" clip-path="url(#clipPath2)" font-family="sans-serif" stroke="none" xml:space="preserve">acetyl-CoA</text>
    </g>
    <g fill="rgb(219,235,219)" text-rendering="geometricPrecision" shape-rendering="geometricPrecision" transform="matrix(0.8,0,0,0.8,1524.8,1108)" stroke="rgb(219,235,219)">
      <rect x="-1483.1177" y="-499.8893" clip-path="url(#clipPath2)" width="120" rx="16" ry="16" height="32" stroke="none"/>
    </g>
    <g text-rendering="geometricPrecision" stroke-miterlimit="1.45" shape-rendering="geometricPrecision" transform="matrix(0.8,0,0,0.8,1524.8,1108)" stroke-linecap="butt">
      <rect x="-1483.1177" y="-499.8893" clip-path="url(#clipPath2)" fill="none" width="120" rx="16" ry="16" height="32"/>
      <text x="-1467.8896" font-size="14px" y="-478.5983" clip-path="url(#clipPath2)" font-family="sans-serif" stroke="none" xml:space="preserve">malonyl-CoA</text>
    </g>
    <g fill="white" text-rendering="geometricPrecision" shape-rendering="geometricPrecision" transform="matrix(0.8,0,0,0.8,1524.8,1108)" stroke="white">
      <rect x="-1551.4435" width="18" height="18" y="-492.8893" clip-path="url(#clipPath2)" stroke="none"/>
    </g>
    <g text-rendering="geometricPrecision" stroke-miterlimit="1.45" shape-rendering="geometricPrecision" transform="matrix(0.8,0,0,0.8,1524.8,1108)" stroke-linecap="butt">
      <rect fill="none" x="-1551.4435" width="18" height="18" y="-492.8893" clip-path="url(#clipPath2)"/>
    </g>
    <g fill="white" text-rendering="geometricPrecision" shape-rendering="geometricPrecision" transform="matrix(0.8,0,0,0.8,1524.8,1108)" stroke="white">
      <rect x="-1400.9985" width="18" height="18" y="-389.2998" clip-path="url(#clipPath2)" stroke="none"/>
    </g>
    <g text-rendering="geometricPrecision" stroke-miterlimit="1.45" shape-rendering="geometricPrecision" transform="matrix(0.8,0,0,0.8,1524.8,1108)" stroke-linecap="butt">
      <rect fill="none" x="-1400.9985" width="18" height="18" y="-389.2998" clip-path="url(#clipPath2)"/>
    </g>
    <g text-rendering="geometricPrecision" stroke-miterlimit="1.45" shape-rendering="geometricPrecision" transform="matrix(0.8,0,0,0.8,1524.8,1108)" stroke-linecap="butt">
      <path fill="none" d="M-1707.8766 -1284.5151 L-1707.8766 -1255.5503" clip-path="url(#clipPath2)"/>
      <path fill="none" d="M-1707.8766 -1237.5591 L-1707.8766 -1216.014" clip-path="url(#clipPath2)"/>
      <path d="M-1707.8766 -1205.014 L-1701.8766 -1217.014 L-1713.8766 -1217.014 Z" clip-path="url(#clipPath2)" stroke="none"/>
      <path fill="none" d="M-1627.8767 -1247.3553 L-1690.9062 -1247.3553" clip-path="url(#clipPath2)"/>
      <path fill="white" d="M-1698.9062 -1247.3553 C-1698.9062 -1249.5645 -1697.1154 -1251.3553 -1694.9062 -1251.3553 C-1692.6971 -1251.3553 -1690.9062 -1249.5645 -1690.9062 -1247.3553 C-1690.9062 -1245.1462 -1692.6971 -1243.3553 -1694.9062 -1243.3553 C-1697.1154 -1243.3553 -1698.9062 -1245.1462 -1698.9062 -1247.3553 Z" clip-path="url(#clipPath2)" stroke="none"/>
      <path fill="none" d="M-1698.9062 -1247.3553 C-1698.9062 -1249.5645 -1697.1154 -1251.3553 -1694.9062 -1251.3553 C-1692.6971 -1251.3553 -1690.9062 -1249.5645 -1690.9062 -1247.3553 C-1690.9062 -1245.1462 -1692.6971 -1243.3553 -1694.9062 -1243.3553 C-1697.1154 -1243.3553 -1698.9062 -1245.1462 -1698.9062 -1247.3553 Z" clip-path="url(#clipPath2)"/>
      <path fill="none" d="M-1502.4603 -569.8552 L-1448.6249 -569.8734" clip-path="url(#clipPath2)"/>
      <path fill="none" d="M-1430.6262 -569.8734 L-1387.8127 -569.8589" clip-path="url(#clipPath2)"/>
      <path d="M-1376.8127 -569.8552 L-1388.8107 -575.8593 L-1388.8148 -563.8593 Z" clip-path="url(#clipPath2)" stroke="none"/>
      <path fill="none" d="M-1542.4435 -541.0803 L-1542.4435 -500.9091" clip-path="url(#clipPath2)"/>
      <path fill="white" d="M-1542.4435 -492.9091 C-1544.6526 -492.9091 -1546.4435 -494.7 -1546.4435 -496.9091 C-1546.4435 -499.1183 -1544.6526 -500.9091 -1542.4435 -500.9091 C-1540.2344 -500.9091 -1538.4435 -499.1183 -1538.4435 -496.9091 C-1538.4435 -494.7 -1540.2344 -492.9091 -1542.4435 -492.9091 Z" clip-path="url(#clipPath2)" stroke="none"/>
      <path fill="none" d="M-1542.4435 -492.9091 C-1544.6526 -492.9091 -1546.4435 -494.7 -1546.4435 -496.9091 C-1546.4435 -499.1183 -1544.6526 -500.9091 -1542.4435 -500.9091 C-1540.2344 -500.9091 -1538.4435 -499.1183 -1538.4435 -496.9091 C-1538.4435 -494.7 -1540.2344 -492.9091 -1542.4435 -492.9091 Z" clip-path="url(#clipPath2)"/>
      <path fill="none" d="M-1592.1946 -483.8893 L-1551.4318 -483.8893" clip-path="url(#clipPath2)"/>
      <path fill="none" d="M-1533.4417 -483.8893 L-1494.101 -483.8893" clip-path="url(#clipPath2)"/>
      <path d="M-1483.101 -483.8893 L-1495.101 -489.8893 L-1495.101 -477.8893 Z" clip-path="url(#clipPath2)" stroke="none"/>
      <path fill="none" d="M-1423.1177 -467.877 L-1423.1177 -389.9486 L-1422.4927 -385.5807 L-1420.6178 -382.4768 L-1417.493 -380.6371 L-1413.1183 -380.0615 L-1401.0243 -380.1979" clip-path="url(#clipPath2)"/>
    </g>
    <g transform="matrix(0.8,0,0,0.8,1524.8,1108)" fill-opacity="0.6" fill="rgb(255,255,255)" text-rendering="geometricPrecision" shape-rendering="geometricPrecision" stroke="rgb(255,255,255)" stroke-opacity="0.6">
      <path d="M-1314.3677 -437.8893 L-1198.3677 -437.8893 L-1186.3677 -425.8893 L-1186.3677 -334.7103 L-1198.3677 -322.7103 L-1314.3677 -322.7103 L-1326.3677 -334.7103 L-1326.3677 -425.8893 Z" stroke="none" clip-path="url(#clipPath2)"/>
    </g>
    <g text-rendering="geometricPrecision" stroke-miterlimit="1.45" shape-rendering="geometricPrecision" transform="matrix(0.8,0,0,0.8,1524.8,1108)" stroke-linecap="butt">
      <path fill="none" d="M-1314.3677 -437.8893 L-1198.3677 -437.8893 L-1186.3677 -425.8893 L-1186.3677 -334.7103 L-1198.3677 -322.7103 L-1314.3677 -322.7103 L-1326.3677 -334.7103 L-1326.3677 -425.8893 Z" clip-path="url(#clipPath2)"/>
    </g>
    <g fill="rgb(226,172,163)" text-rendering="geometricPrecision" shape-rendering="geometricPrecision" transform="matrix(0.8,0,0,0.8,1524.8,1108)" stroke="rgb(226,172,163)">
      <path d="M-1296.3677 -367.7103 Q-1296.3677 -377.7103 -1286.3677 -377.7103 L-1226.3677 -377.7103 Q-1216.3677 -377.7103 -1216.3677 -367.7103 L-1216.3677 -347.7103 Q-1216.3677 -337.7103 -1226.3677 -337.7103 L-1286.3677 -337.7103 Q-1296.3677 -337.7103 -1296.3677 -347.7103 Z" stroke="none" clip-path="url(#clipPath2)"/>
    </g>
    <g text-rendering="geometricPrecision" stroke-miterlimit="1.45" shape-rendering="geometricPrecision" transform="matrix(0.8,0,0,0.8,1524.8,1108)" stroke-linecap="butt">
      <path fill="none" d="M-1296.3677 -367.7103 Q-1296.3677 -377.7103 -1286.3677 -377.7103 L-1226.3677 -377.7103 Q-1216.3677 -377.7103 -1216.3677 -367.7103 L-1216.3677 -347.7103 Q-1216.3677 -337.7103 -1226.3677 -337.7103 L-1286.3677 -337.7103 Q-1296.3677 -337.7103 -1296.3677 -347.7103 Z" clip-path="url(#clipPath2)"/>
      <text x="-1273.9326" font-size="14px" y="-352.4193" clip-path="url(#clipPath2)" font-family="sans-serif" stroke="none" xml:space="preserve">CPT1</text>
    </g>
    <g fill="rgb(219,235,219)" text-rendering="geometricPrecision" shape-rendering="geometricPrecision" transform="matrix(0.8,0,0,0.8,1524.8,1108)" stroke="rgb(219,235,219)">
      <rect x="-1316.3677" y="-421.2103" clip-path="url(#clipPath2)" width="120" rx="16" ry="16" height="32" stroke="none"/>
    </g>
    <g text-rendering="geometricPrecision" stroke-miterlimit="1.45" shape-rendering="geometricPrecision" transform="matrix(0.8,0,0,0.8,1524.8,1108)" stroke-linecap="butt">
      <rect x="-1316.3677" y="-421.2103" clip-path="url(#clipPath2)" fill="none" width="120" rx="16" ry="16" height="32"/>
      <text x="-1301.1396" font-size="14px" y="-399.9193" clip-path="url(#clipPath2)" font-family="sans-serif" stroke="none" xml:space="preserve">malonyl-CoA</text>
    </g>
    <g fill="rgb(219,235,219)" text-rendering="geometricPrecision" shape-rendering="geometricPrecision" transform="matrix(0.8,0,0,0.8,1524.8,1108)" stroke="rgb(219,235,219)">
      <rect x="-1292.5198" y="-1016.4407" clip-path="url(#clipPath2)" width="60" rx="16" ry="16" height="32" stroke="none"/>
    </g>
    <g text-rendering="geometricPrecision" stroke-miterlimit="1.45" shape-rendering="geometricPrecision" transform="matrix(0.8,0,0,0.8,1524.8,1108)" stroke-linecap="butt">
      <rect x="-1292.5198" y="-1016.4407" clip-path="url(#clipPath2)" fill="none" width="60" rx="16" ry="16" height="32"/>
      <text x="-1277.2478" font-size="14px" y="-995.1497" clip-path="url(#clipPath2)" font-family="sans-serif" stroke="none" xml:space="preserve">AMP</text>
    </g>
    <g fill="white" text-rendering="geometricPrecision" shape-rendering="geometricPrecision" transform="matrix(0.8,0,0,0.8,1524.8,1108)" stroke="white">
      <rect x="-1449" width="18" height="18" y="-821.1865" clip-path="url(#clipPath2)" stroke="none"/>
    </g>
    <g text-rendering="geometricPrecision" stroke-miterlimit="1.45" shape-rendering="geometricPrecision" transform="matrix(0.8,0,0,0.8,1524.8,1108)" stroke-linecap="butt">
      <rect fill="none" x="-1449" width="18" height="18" y="-821.1865" clip-path="url(#clipPath2)"/>
    </g>
    <g fill="white" text-rendering="geometricPrecision" shape-rendering="geometricPrecision" transform="matrix(0.8,0,0,0.8,1524.8,1108)" stroke="white">
      <rect x="-1299.2738" width="18" height="18" y="-929.7127" clip-path="url(#clipPath2)" stroke="none"/>
    </g>
    <g text-rendering="geometricPrecision" stroke-miterlimit="1.45" shape-rendering="geometricPrecision" transform="matrix(0.8,0,0,0.8,1524.8,1108)" stroke-linecap="butt">
      <rect fill="none" x="-1299.2738" width="18" height="18" y="-929.7127" clip-path="url(#clipPath2)"/>
    </g>
    <g text-rendering="geometricPrecision" stroke-miterlimit="1.45" shape-rendering="geometricPrecision" transform="matrix(0.8,0,0,0.8,1524.8,1108)" stroke-linecap="butt">
      <path fill="none" d="M-1383.0249 -380.2998 L-1337.3446 -380.2998" clip-path="url(#clipPath2)"/>
      <path d="M-1326.3446 -380.2998 L-1338.3446 -386.2998 L-1338.3446 -374.2998 Z" clip-path="url(#clipPath2)" stroke="none"/>
      <path fill="none" d="M-1262.5198 -984.4406 L-1262.5198 -930.7126 L-1263.105 -926.3376 L-1264.8608 -923.2126 L-1267.7871 -921.3376 L-1271.884 -920.7126 L-1281.2484 -920.7126" clip-path="url(#clipPath2)"/>
    </g>
    <g transform="matrix(0.8,0,0,0.8,1524.8,1108)" fill-opacity="0.6" fill="rgb(255,255,255)" text-rendering="geometricPrecision" shape-rendering="geometricPrecision" stroke="rgb(255,255,255)" stroke-opacity="0.6">
      <path d="M-1524.9288 -983.9235 L-1354.345 -983.9235 L-1342.345 -971.9235 L-1342.345 -869.5019 L-1354.345 -857.5019 L-1524.9288 -857.5019 L-1536.9288 -869.5019 L-1536.9288 -971.9235 Z" stroke="none" clip-path="url(#clipPath2)"/>
    </g>
    <g text-rendering="geometricPrecision" stroke-miterlimit="1.45" shape-rendering="geometricPrecision" transform="matrix(0.8,0,0,0.8,1524.8,1108)" stroke-linecap="butt">
      <path fill="none" d="M-1524.9288 -983.9235 L-1354.345 -983.9235 L-1342.345 -971.9235 L-1342.345 -869.5019 L-1354.345 -857.5019 L-1524.9288 -857.5019 L-1536.9288 -869.5019 L-1536.9288 -971.9235 Z" clip-path="url(#clipPath2)"/>
    </g>
    <g fill="rgb(200,216,235)" text-rendering="geometricPrecision" shape-rendering="geometricPrecision" transform="matrix(0.8,0,0,0.8,1524.8,1108)" stroke="rgb(200,216,235)">
      <path d="M-1479.637 -959.0878 Q-1479.637 -969.0878 -1469.637 -969.0878 L-1409.637 -969.0878 Q-1399.637 -969.0878 -1399.637 -959.0878 L-1399.637 -939.0878 Q-1399.637 -929.0878 -1409.637 -929.0878 L-1469.637 -929.0878 Q-1479.637 -929.0878 -1479.637 -939.0878 Z" stroke="none" clip-path="url(#clipPath2)"/>
    </g>
    <g text-rendering="geometricPrecision" stroke-miterlimit="1.45" shape-rendering="geometricPrecision" transform="matrix(0.8,0,0,0.8,1524.8,1108)" stroke-linecap="butt">
      <path fill="none" d="M-1479.637 -959.0878 Q-1479.637 -969.0878 -1469.637 -969.0878 L-1409.637 -969.0878 Q-1399.637 -969.0878 -1399.637 -959.0878 L-1399.637 -939.0878 Q-1399.637 -929.0878 -1409.637 -929.0878 L-1469.637 -929.0878 Q-1479.637 -929.0878 -1479.637 -939.0878 Z" clip-path="url(#clipPath2)"/>
      <text x="-1463.5012" font-size="14px" y="-944.2343" clip-path="url(#clipPath2)" font-family="'Arial'" stroke="none" xml:space="preserve">AMPKβ</text>
    </g>
    <g fill="rgb(200,216,235)" text-rendering="geometricPrecision" shape-rendering="geometricPrecision" transform="matrix(0.8,0,0,0.8,1524.8,1108)" stroke="rgb(200,216,235)">
      <path d="M-1523.4684 -910.8167 Q-1523.4684 -920.8167 -1513.4684 -920.8167 L-1453.4684 -920.8167 Q-1443.4684 -920.8167 -1443.4684 -910.8167 L-1443.4684 -890.8167 Q-1443.4684 -880.8167 -1453.4684 -880.8167 L-1513.4684 -880.8167 Q-1523.4684 -880.8167 -1523.4684 -890.8167 Z" stroke="none" clip-path="url(#clipPath2)"/>
    </g>
    <g text-rendering="geometricPrecision" stroke-miterlimit="1.45" shape-rendering="geometricPrecision" transform="matrix(0.8,0,0,0.8,1524.8,1108)" stroke-linecap="butt">
      <path fill="none" d="M-1523.4684 -910.8167 Q-1523.4684 -920.8167 -1513.4684 -920.8167 L-1453.4684 -920.8167 Q-1443.4684 -920.8167 -1443.4684 -910.8167 L-1443.4684 -890.8167 Q-1443.4684 -880.8167 -1453.4684 -880.8167 L-1513.4684 -880.8167 Q-1523.4684 -880.8167 -1523.4684 -890.8167 Z" clip-path="url(#clipPath2)"/>
      <text x="-1507.6232" font-size="14px" y="-895.5256" clip-path="url(#clipPath2)" font-family="sans-serif" stroke="none" xml:space="preserve">AMPKα</text>
    </g>
    <g fill="white" text-rendering="geometricPrecision" shape-rendering="geometricPrecision" transform="matrix(0.8,0,0,0.8,1524.8,1108) translate(-1492.4684,-890.8167)" stroke="white">
      <rect x="0" y="0" clip-path="url(#clipPath8)" width="18" rx="9" ry="9" height="18" stroke="none"/>
    </g>
    <g text-rendering="geometricPrecision" stroke-miterlimit="1.45" shape-rendering="geometricPrecision" transform="matrix(0.8,0,0,0.8,1524.8,1108) translate(-1492.4684,-890.8167)" stroke-linecap="butt">
      <rect x="0" y="0" clip-path="url(#clipPath8)" fill="none" width="18" rx="9" ry="9" height="18"/>
    </g>
    <g fill="rgb(200,216,235)" text-rendering="geometricPrecision" shape-rendering="geometricPrecision" transform="matrix(0.8,0,0,0.8,1524.8,1108)" stroke="rgb(200,216,235)">
      <path d="M-1435.8054 -910.8167 Q-1435.8054 -920.8167 -1425.8054 -920.8167 L-1365.8054 -920.8167 Q-1355.8054 -920.8167 -1355.8054 -910.8167 L-1355.8054 -890.8167 Q-1355.8054 -880.8167 -1365.8054 -880.8167 L-1425.8054 -880.8167 Q-1435.8054 -880.8167 -1435.8054 -890.8167 Z" stroke="none" clip-path="url(#clipPath2)"/>
    </g>
    <g text-rendering="geometricPrecision" stroke-miterlimit="1.45" shape-rendering="geometricPrecision" transform="matrix(0.8,0,0,0.8,1524.8,1108)" stroke-linecap="butt">
      <path fill="none" d="M-1435.8054 -910.8167 Q-1435.8054 -920.8167 -1425.8054 -920.8167 L-1365.8054 -920.8167 Q-1355.8054 -920.8167 -1355.8054 -910.8167 L-1355.8054 -890.8167 Q-1355.8054 -880.8167 -1365.8054 -880.8167 L-1425.8054 -880.8167 Q-1435.8054 -880.8167 -1435.8054 -890.8167 Z" clip-path="url(#clipPath2)"/>
      <text x="-1419.1433" font-size="14px" y="-895.9631" clip-path="url(#clipPath2)" font-family="'Arial'" stroke="none" xml:space="preserve">AMPKγ</text>
    </g>
    <g fill="white" text-rendering="geometricPrecision" shape-rendering="geometricPrecision" transform="matrix(0.8,0,0,0.8,1524.8,1108) translate(-1413.8055,-890.5019)" stroke="white">
      <rect x="0" y="0" clip-path="url(#clipPath9)" width="36" rx="9" ry="9" height="18" stroke="none"/>
    </g>
    <g text-rendering="geometricPrecision" stroke-miterlimit="1.45" shape-rendering="geometricPrecision" transform="matrix(0.8,0,0,0.8,1524.8,1108) translate(-1413.8055,-890.5019)" stroke-linecap="butt">
      <rect x="0" y="0" clip-path="url(#clipPath9)" fill="none" width="36" rx="9" ry="9" height="18"/>
      <text x="7.48" font-size="10px" y="12.7793" clip-path="url(#clipPath9)" font-family="sans-serif" stroke="none" xml:space="preserve">AMP</text>
    </g>
    <g text-rendering="geometricPrecision" stroke-miterlimit="1.45" shape-rendering="geometricPrecision" transform="matrix(0.8,0,0,0.8,1524.8,1108)" stroke-linecap="butt">
      <path fill="none" d="M-1299.2809 -920.7126 L-1331.354 -920.7126" clip-path="url(#clipPath2)"/>
      <path d="M-1342.354 -920.7126 L-1330.354 -914.7126 L-1330.354 -926.7126 Z" clip-path="url(#clipPath2)" stroke="none"/>
      <path fill="none" d="M-1439.8484 -857.5206 L-1439.97 -821.1736" clip-path="url(#clipPath2)"/>
    </g>
    <g transform="matrix(0.8,0,0,0.8,1524.8,1108)" fill-opacity="0.6" fill="rgb(255,255,255)" text-rendering="geometricPrecision" shape-rendering="geometricPrecision" stroke="rgb(255,255,255)" stroke-opacity="0.6">
      <path d="M-1524.9288 -759.7881 L-1354.345 -759.7881 L-1342.345 -747.7881 L-1342.345 -643.2853 L-1354.345 -631.2853 L-1524.9288 -631.2853 L-1536.9288 -643.2853 L-1536.9288 -747.7881 Z" stroke="none" clip-path="url(#clipPath2)"/>
    </g>
    <g text-rendering="geometricPrecision" stroke-miterlimit="1.45" shape-rendering="geometricPrecision" transform="matrix(0.8,0,0,0.8,1524.8,1108)" stroke-linecap="butt">
      <path fill="none" d="M-1524.9288 -759.7881 L-1354.345 -759.7881 L-1342.345 -747.7881 L-1342.345 -643.2853 L-1354.345 -631.2853 L-1524.9288 -631.2853 L-1536.9288 -643.2853 L-1536.9288 -747.7881 Z" clip-path="url(#clipPath2)"/>
    </g>
    <g fill="rgb(200,216,235)" text-rendering="geometricPrecision" shape-rendering="geometricPrecision" transform="matrix(0.8,0,0,0.8,1524.8,1108)" stroke="rgb(200,216,235)">
      <path d="M-1479.637 -733.5564 Q-1479.637 -743.5564 -1469.637 -743.5564 L-1409.637 -743.5564 Q-1399.637 -743.5564 -1399.637 -733.5564 L-1399.637 -713.5564 Q-1399.637 -703.5564 -1409.637 -703.5564 L-1469.637 -703.5564 Q-1479.637 -703.5564 -1479.637 -713.5564 Z" stroke="none" clip-path="url(#clipPath2)"/>
    </g>
    <g text-rendering="geometricPrecision" stroke-miterlimit="1.45" shape-rendering="geometricPrecision" transform="matrix(0.8,0,0,0.8,1524.8,1108)" stroke-linecap="butt">
      <path fill="none" d="M-1479.637 -733.5564 Q-1479.637 -743.5564 -1469.637 -743.5564 L-1409.637 -743.5564 Q-1399.637 -743.5564 -1399.637 -733.5564 L-1399.637 -713.5564 Q-1399.637 -703.5564 -1409.637 -703.5564 L-1469.637 -703.5564 Q-1479.637 -703.5564 -1479.637 -713.5564 Z" clip-path="url(#clipPath2)"/>
      <text x="-1463.5012" font-size="14px" y="-718.7029" clip-path="url(#clipPath2)" font-family="'Arial'" stroke="none" xml:space="preserve">AMPKβ</text>
    </g>
    <g fill="rgb(200,216,235)" text-rendering="geometricPrecision" shape-rendering="geometricPrecision" transform="matrix(0.8,0,0,0.8,1524.8,1108)" stroke="rgb(200,216,235)">
      <path d="M-1523.4684 -685.2853 Q-1523.4684 -695.2853 -1513.4684 -695.2853 L-1453.4684 -695.2853 Q-1443.4684 -695.2853 -1443.4684 -685.2853 L-1443.4684 -665.2853 Q-1443.4684 -655.2853 -1453.4684 -655.2853 L-1513.4684 -655.2853 Q-1523.4684 -655.2853 -1523.4684 -665.2853 Z" stroke="none" clip-path="url(#clipPath2)"/>
    </g>
    <g text-rendering="geometricPrecision" stroke-miterlimit="1.45" shape-rendering="geometricPrecision" transform="matrix(0.8,0,0,0.8,1524.8,1108)" stroke-linecap="butt">
      <path fill="none" d="M-1523.4684 -685.2853 Q-1523.4684 -695.2853 -1513.4684 -695.2853 L-1453.4684 -695.2853 Q-1443.4684 -695.2853 -1443.4684 -685.2853 L-1443.4684 -665.2853 Q-1443.4684 -655.2853 -1453.4684 -655.2853 L-1513.4684 -655.2853 Q-1523.4684 -655.2853 -1523.4684 -665.2853 Z" clip-path="url(#clipPath2)"/>
      <text x="-1507.6232" font-size="14px" y="-669.9943" clip-path="url(#clipPath2)" font-family="sans-serif" stroke="none" xml:space="preserve">AMPKα</text>
    </g>
    <g fill="white" text-rendering="geometricPrecision" shape-rendering="geometricPrecision" transform="matrix(0.8,0,0,0.8,1524.8,1108) translate(-1492.4684,-664.2853)" stroke="white">
      <rect x="0" y="0" clip-path="url(#clipPath10)" width="18" rx="9" ry="9" height="18" stroke="none"/>
    </g>
    <g text-rendering="geometricPrecision" stroke-miterlimit="1.45" shape-rendering="geometricPrecision" transform="matrix(0.8,0,0,0.8,1524.8,1108) translate(-1492.4684,-664.2853)" stroke-linecap="butt">
      <rect x="0" y="0" clip-path="url(#clipPath10)" fill="none" width="18" rx="9" ry="9" height="18"/>
      <text x="5.9897" font-size="10px" y="12.4619" clip-path="url(#clipPath10)" font-family="monospace" stroke="none" xml:space="preserve">P</text>
    </g>
    <g fill="rgb(200,216,235)" text-rendering="geometricPrecision" shape-rendering="geometricPrecision" transform="matrix(0.8,0,0,0.8,1524.8,1108)" stroke="rgb(200,216,235)">
      <path d="M-1435.8054 -685.2853 Q-1435.8054 -695.2853 -1425.8054 -695.2853 L-1365.8054 -695.2853 Q-1355.8054 -695.2853 -1355.8054 -685.2853 L-1355.8054 -665.2853 Q-1355.8054 -655.2853 -1365.8054 -655.2853 L-1425.8054 -655.2853 Q-1435.8054 -655.2853 -1435.8054 -665.2853 Z" stroke="none" clip-path="url(#clipPath2)"/>
    </g>
    <g text-rendering="geometricPrecision" stroke-miterlimit="1.45" shape-rendering="geometricPrecision" transform="matrix(0.8,0,0,0.8,1524.8,1108)" stroke-linecap="butt">
      <path fill="none" d="M-1435.8054 -685.2853 Q-1435.8054 -695.2853 -1425.8054 -695.2853 L-1365.8054 -695.2853 Q-1355.8054 -695.2853 -1355.8054 -685.2853 L-1355.8054 -665.2853 Q-1355.8054 -655.2853 -1365.8054 -655.2853 L-1425.8054 -655.2853 Q-1435.8054 -655.2853 -1435.8054 -665.2853 Z" clip-path="url(#clipPath2)"/>
      <text x="-1419.1433" font-size="14px" y="-670.4318" clip-path="url(#clipPath2)" font-family="'Arial'" stroke="none" xml:space="preserve">AMPKγ</text>
    </g>
    <g fill="white" text-rendering="geometricPrecision" shape-rendering="geometricPrecision" transform="matrix(0.8,0,0,0.8,1524.8,1108) translate(-1413.8055,-664.9705)" stroke="white">
      <rect x="0" y="0" clip-path="url(#clipPath11)" width="36" rx="9" ry="9" height="18" stroke="none"/>
    </g>
    <g text-rendering="geometricPrecision" stroke-miterlimit="1.45" shape-rendering="geometricPrecision" transform="matrix(0.8,0,0,0.8,1524.8,1108) translate(-1413.8055,-664.9705)" stroke-linecap="butt">
      <rect x="0" y="0" clip-path="url(#clipPath11)" fill="none" width="36" rx="9" ry="9" height="18"/>
      <text x="7.48" font-size="10px" y="12.7793" clip-path="url(#clipPath11)" font-family="sans-serif" stroke="none" xml:space="preserve">AMP</text>
    </g>
    <g text-rendering="geometricPrecision" stroke-miterlimit="1.45" shape-rendering="geometricPrecision" transform="matrix(0.8,0,0,0.8,1524.8,1108)" stroke-linecap="butt">
      <path fill="none" d="M-1439.9719 -803.1587 L-1439.8711 -770.7788" clip-path="url(#clipPath2)"/>
      <path d="M-1439.8369 -759.7789 L-1433.8743 -771.7975 L-1445.8741 -771.7602 Z" clip-path="url(#clipPath2)" stroke="none"/>
      <path fill="none" d="M-1439.637 -631.2646 L-1439.637 -586.8988" clip-path="url(#clipPath2)"/>
      <path fill="white" d="M-1439.637 -578.8988 C-1441.8461 -578.8988 -1443.637 -580.6896 -1443.637 -582.8988 C-1443.637 -585.108 -1441.8461 -586.8988 -1439.637 -586.8988 C-1437.4279 -586.8988 -1435.637 -585.108 -1435.637 -582.8988 C-1435.637 -580.6896 -1437.4279 -578.8988 -1439.637 -578.8988 Z" clip-path="url(#clipPath2)" stroke="none"/>
      <path fill="none" d="M-1439.637 -578.8988 C-1441.8461 -578.8988 -1443.637 -580.6896 -1443.637 -582.8988 C-1443.637 -585.108 -1441.8461 -586.8988 -1439.637 -586.8988 C-1437.4279 -586.8988 -1435.637 -585.108 -1435.637 -582.8988 C-1435.637 -580.6896 -1437.4279 -578.8988 -1439.637 -578.8988 Z" clip-path="url(#clipPath2)"/>
    </g>
    <g transform="matrix(0.8,0,0,0.8,1524.8,1108)" fill-opacity="0.6" fill="rgb(255,255,255)" text-rendering="geometricPrecision" shape-rendering="geometricPrecision" stroke="rgb(255,255,255)" stroke-opacity="0.6">
      <path d="M-1214.9288 -984.4407 L-1044.345 -984.4407 L-1032.345 -972.4407 L-1032.345 -868.9846 L-1044.345 -856.9846 L-1214.9288 -856.9846 L-1226.9288 -868.9846 L-1226.9288 -972.4407 Z" stroke="none" clip-path="url(#clipPath2)"/>
    </g>
    <g text-rendering="geometricPrecision" stroke-miterlimit="1.45" shape-rendering="geometricPrecision" transform="matrix(0.8,0,0,0.8,1524.8,1108)" stroke-linecap="butt">
      <path fill="none" d="M-1214.9288 -984.4407 L-1044.345 -984.4407 L-1032.345 -972.4407 L-1032.345 -868.9846 L-1044.345 -856.9846 L-1214.9288 -856.9846 L-1226.9288 -868.9846 L-1226.9288 -972.4407 Z" clip-path="url(#clipPath2)"/>
    </g>
    <g fill="rgb(200,216,235)" text-rendering="geometricPrecision" shape-rendering="geometricPrecision" transform="matrix(0.8,0,0,0.8,1524.8,1108)" stroke="rgb(200,216,235)">
      <path d="M-1169.637 -958.5705 Q-1169.637 -968.5705 -1159.637 -968.5705 L-1099.637 -968.5705 Q-1089.637 -968.5705 -1089.637 -958.5705 L-1089.637 -938.5705 Q-1089.637 -928.5705 -1099.637 -928.5705 L-1159.637 -928.5705 Q-1169.637 -928.5705 -1169.637 -938.5705 Z" stroke="none" clip-path="url(#clipPath2)"/>
    </g>
    <g text-rendering="geometricPrecision" stroke-miterlimit="1.45" shape-rendering="geometricPrecision" transform="matrix(0.8,0,0,0.8,1524.8,1108)" stroke-linecap="butt">
      <path fill="none" d="M-1169.637 -958.5705 Q-1169.637 -968.5705 -1159.637 -968.5705 L-1099.637 -968.5705 Q-1089.637 -968.5705 -1089.637 -958.5705 L-1089.637 -938.5705 Q-1089.637 -928.5705 -1099.637 -928.5705 L-1159.637 -928.5705 Q-1169.637 -928.5705 -1169.637 -938.5705 Z" clip-path="url(#clipPath2)"/>
      <text x="-1153.5012" font-size="14px" y="-943.717" clip-path="url(#clipPath2)" font-family="'Arial'" stroke="none" xml:space="preserve">AMPKβ</text>
    </g>
    <g fill="rgb(200,216,235)" text-rendering="geometricPrecision" shape-rendering="geometricPrecision" transform="matrix(0.8,0,0,0.8,1524.8,1108)" stroke="rgb(200,216,235)">
      <path d="M-1213.4684 -910.2994 Q-1213.4684 -920.2994 -1203.4684 -920.2994 L-1143.4684 -920.2994 Q-1133.4684 -920.2994 -1133.4684 -910.2994 L-1133.4684 -890.2994 Q-1133.4684 -880.2994 -1143.4684 -880.2994 L-1203.4684 -880.2994 Q-1213.4684 -880.2994 -1213.4684 -890.2994 Z" stroke="none" clip-path="url(#clipPath2)"/>
    </g>
    <g text-rendering="geometricPrecision" stroke-miterlimit="1.45" shape-rendering="geometricPrecision" transform="matrix(0.8,0,0,0.8,1524.8,1108)" stroke-linecap="butt">
      <path fill="none" d="M-1213.4684 -910.2994 Q-1213.4684 -920.2994 -1203.4684 -920.2994 L-1143.4684 -920.2994 Q-1133.4684 -920.2994 -1133.4684 -910.2994 L-1133.4684 -890.2994 Q-1133.4684 -880.2994 -1143.4684 -880.2994 L-1203.4684 -880.2994 Q-1213.4684 -880.2994 -1213.4684 -890.2994 Z" clip-path="url(#clipPath2)"/>
      <text x="-1197.6232" font-size="14px" y="-895.0084" clip-path="url(#clipPath2)" font-family="sans-serif" stroke="none" xml:space="preserve">AMPKα</text>
    </g>
    <g fill="white" text-rendering="geometricPrecision" shape-rendering="geometricPrecision" transform="matrix(0.8,0,0,0.8,1524.8,1108) translate(-1182.4684,-890.2994)" stroke="white">
      <rect x="0" y="0" clip-path="url(#clipPath12)" width="18" rx="9" ry="9" height="18" stroke="none"/>
    </g>
    <g text-rendering="geometricPrecision" stroke-miterlimit="1.45" shape-rendering="geometricPrecision" transform="matrix(0.8,0,0,0.8,1524.8,1108) translate(-1182.4684,-890.2994)" stroke-linecap="butt">
      <rect x="0" y="0" clip-path="url(#clipPath12)" fill="none" width="18" rx="9" ry="9" height="18"/>
    </g>
    <g fill="rgb(200,216,235)" text-rendering="geometricPrecision" shape-rendering="geometricPrecision" transform="matrix(0.8,0,0,0.8,1524.8,1108)" stroke="rgb(200,216,235)">
      <path d="M-1125.8054 -910.2994 Q-1125.8054 -920.2994 -1115.8054 -920.2994 L-1055.8054 -920.2994 Q-1045.8054 -920.2994 -1045.8054 -910.2994 L-1045.8054 -890.2994 Q-1045.8054 -880.2994 -1055.8054 -880.2994 L-1115.8054 -880.2994 Q-1125.8054 -880.2994 -1125.8054 -890.2994 Z" stroke="none" clip-path="url(#clipPath2)"/>
    </g>
    <g text-rendering="geometricPrecision" stroke-miterlimit="1.45" shape-rendering="geometricPrecision" transform="matrix(0.8,0,0,0.8,1524.8,1108)" stroke-linecap="butt">
      <path fill="none" d="M-1125.8054 -910.2994 Q-1125.8054 -920.2994 -1115.8054 -920.2994 L-1055.8054 -920.2994 Q-1045.8054 -920.2994 -1045.8054 -910.2994 L-1045.8054 -890.2994 Q-1045.8054 -880.2994 -1055.8054 -880.2994 L-1115.8054 -880.2994 Q-1125.8054 -880.2994 -1125.8054 -890.2994 Z" clip-path="url(#clipPath2)"/>
      <text x="-1109.1433" font-size="14px" y="-895.4459" clip-path="url(#clipPath2)" font-family="'Arial'" stroke="none" xml:space="preserve">AMPKγ</text>
    </g>
    <g fill="white" text-rendering="geometricPrecision" shape-rendering="geometricPrecision" transform="matrix(0.8,0,0,0.8,1524.8,1108) translate(-1103.8055,-889.9846)" stroke="white">
      <rect x="0" y="0" clip-path="url(#clipPath13)" width="36" rx="9" ry="9" height="18" stroke="none"/>
    </g>
    <g text-rendering="geometricPrecision" stroke-miterlimit="1.45" shape-rendering="geometricPrecision" transform="matrix(0.8,0,0,0.8,1524.8,1108) translate(-1103.8055,-889.9846)" stroke-linecap="butt">
      <rect x="0" y="0" clip-path="url(#clipPath13)" fill="none" width="36" rx="9" ry="9" height="18"/>
    </g>
    <g text-rendering="geometricPrecision" stroke-miterlimit="1.45" shape-rendering="geometricPrecision" transform="matrix(0.8,0,0,0.8,1524.8,1108)" stroke-linecap="butt">
      <path fill="none" d="M-1226.9368 -920.7126 L-1281.2743 -920.7126" clip-path="url(#clipPath2)"/>
    </g>
    <g transform="matrix(0.8,0,0,0.8,1524.8,1108)" fill-opacity="0.6" fill="rgb(255,255,255)" text-rendering="geometricPrecision" shape-rendering="geometricPrecision" stroke="rgb(255,255,255)" stroke-opacity="0.6">
      <path d="M-1792.3123 -875.0041 L-1621.7284 -875.0041 L-1609.7284 -863.0041 L-1609.7284 -759.1865 L-1621.7284 -747.1865 L-1792.3123 -747.1865 L-1804.3123 -759.1865 L-1804.3123 -863.0041 Z" stroke="none" clip-path="url(#clipPath2)"/>
    </g>
    <g text-rendering="geometricPrecision" stroke-miterlimit="1.45" shape-rendering="geometricPrecision" transform="matrix(0.8,0,0,0.8,1524.8,1108)" stroke-linecap="butt">
      <path fill="none" d="M-1792.3123 -875.0041 L-1621.7284 -875.0041 L-1609.7284 -863.0041 L-1609.7284 -759.1865 L-1621.7284 -747.1865 L-1792.3123 -747.1865 L-1804.3123 -759.1865 L-1804.3123 -863.0041 Z" clip-path="url(#clipPath2)"/>
    </g>
    <g fill="rgb(226,226,226)" text-rendering="geometricPrecision" shape-rendering="geometricPrecision" transform="matrix(0.8,0,0,0.8,1524.8,1108)" stroke="rgb(226,226,226)">
      <path d="M-1790.9097 -797.3523 Q-1790.9097 -807.3523 -1780.9097 -807.3523 L-1720.9097 -807.3523 Q-1710.9097 -807.3523 -1710.9097 -797.3523 L-1710.9097 -777.3523 Q-1710.9097 -767.3523 -1720.9097 -767.3523 L-1780.9097 -767.3523 Q-1790.9097 -767.3523 -1790.9097 -777.3523 Z" stroke="none" clip-path="url(#clipPath2)"/>
    </g>
    <g text-rendering="geometricPrecision" stroke-miterlimit="1.45" shape-rendering="geometricPrecision" transform="matrix(0.8,0,0,0.8,1524.8,1108)" stroke-linecap="butt">
      <path fill="none" d="M-1790.9097 -797.3523 Q-1790.9097 -807.3523 -1780.9097 -807.3523 L-1720.9097 -807.3523 Q-1710.9097 -807.3523 -1710.9097 -797.3523 L-1710.9097 -777.3523 Q-1710.9097 -767.3523 -1720.9097 -767.3523 L-1780.9097 -767.3523 Q-1790.9097 -767.3523 -1790.9097 -777.3523 Z" clip-path="url(#clipPath2)"/>
      <text x="-1771.2295" font-size="14px" y="-782.0613" clip-path="url(#clipPath2)" font-family="sans-serif" stroke="none" xml:space="preserve">MO25</text>
    </g>
    <g fill="rgb(226,226,226)" text-rendering="geometricPrecision" shape-rendering="geometricPrecision" transform="matrix(0.8,0,0,0.8,1524.8,1108)" stroke="rgb(226,226,226)">
      <path d="M-1790.9097 -847.0208 Q-1790.9097 -857.0208 -1780.9097 -857.0208 L-1720.9097 -857.0208 Q-1710.9097 -857.0208 -1710.9097 -847.0208 L-1710.9097 -827.0208 Q-1710.9097 -817.0208 -1720.9097 -817.0208 L-1780.9097 -817.0208 Q-1790.9097 -817.0208 -1790.9097 -827.0208 Z" stroke="none" clip-path="url(#clipPath2)"/>
    </g>
    <g text-rendering="geometricPrecision" stroke-miterlimit="1.45" shape-rendering="geometricPrecision" transform="matrix(0.8,0,0,0.8,1524.8,1108)" stroke-linecap="butt">
      <path fill="none" d="M-1790.9097 -847.0208 Q-1790.9097 -857.0208 -1780.9097 -857.0208 L-1720.9097 -857.0208 Q-1710.9097 -857.0208 -1710.9097 -847.0208 L-1710.9097 -827.0208 Q-1710.9097 -817.0208 -1720.9097 -817.0208 L-1780.9097 -817.0208 Q-1790.9097 -817.0208 -1790.9097 -827.0208 Z" clip-path="url(#clipPath2)"/>
      <text x="-1774.6338" font-size="14px" y="-832.1673" clip-path="url(#clipPath2)" font-family="'Arial'" stroke="none" xml:space="preserve">STRAD</text>
    </g>
    <g fill="rgb(200,216,235)" text-rendering="geometricPrecision" shape-rendering="geometricPrecision" transform="matrix(0.8,0,0,0.8,1524.8,1108)" stroke="rgb(200,216,235)">
      <path d="M-1703.9446 -822.1865 Q-1703.9446 -832.1865 -1693.9446 -832.1865 L-1633.9446 -832.1865 Q-1623.9446 -832.1865 -1623.9446 -822.1865 L-1623.9446 -802.1865 Q-1623.9446 -792.1865 -1633.9446 -792.1865 L-1693.9446 -792.1865 Q-1703.9446 -792.1865 -1703.9446 -802.1865 Z" stroke="none" clip-path="url(#clipPath2)"/>
    </g>
    <g text-rendering="geometricPrecision" stroke-miterlimit="1.45" shape-rendering="geometricPrecision" transform="matrix(0.8,0,0,0.8,1524.8,1108)" stroke-linecap="butt">
      <path fill="none" d="M-1703.9446 -822.1865 Q-1703.9446 -832.1865 -1693.9446 -832.1865 L-1633.9446 -832.1865 Q-1623.9446 -832.1865 -1623.9446 -822.1865 L-1623.9446 -802.1865 Q-1623.9446 -792.1865 -1633.9446 -792.1865 L-1693.9446 -792.1865 Q-1703.9446 -792.1865 -1703.9446 -802.1865 Z" clip-path="url(#clipPath2)"/>
      <text x="-1681.0686" font-size="14px" y="-807.333" clip-path="url(#clipPath2)" font-family="'Arial'" stroke="none" xml:space="preserve">LKB1</text>
    </g>
    <g fill="white" text-rendering="geometricPrecision" shape-rendering="geometricPrecision" transform="matrix(0.8,0,0,0.8,1524.8,1108) translate(-1689.4446,-801.8754)" stroke="white">
      <rect x="0" y="0" clip-path="url(#clipPath14)" width="50.7111" rx="9" ry="9" height="18" stroke="none"/>
    </g>
    <g text-rendering="geometricPrecision" stroke-miterlimit="1.45" shape-rendering="geometricPrecision" transform="matrix(0.8,0,0,0.8,1524.8,1108) translate(-1689.4446,-801.8754)" stroke-linecap="butt">
      <rect x="0" y="0" clip-path="url(#clipPath14)" fill="none" width="50.7111" rx="9" ry="9" height="18"/>
      <text x="6.1221" font-size="10px" y="12.7793" clip-path="url(#clipPath14)" font-family="sans-serif" stroke="none" xml:space="preserve">P@S428</text>
    </g>
    <g fill="rgb(226,226,226)" text-rendering="geometricPrecision" shape-rendering="geometricPrecision" transform="matrix(0.8,0,0,0.8,1524.8,1108)" stroke="rgb(226,226,226)">
      <path d="M-1837.8766 -964.4376 Q-1837.8766 -974.4376 -1827.8766 -974.4376 L-1767.8766 -974.4376 Q-1757.8766 -974.4376 -1757.8766 -964.4376 L-1757.8766 -944.4376 Q-1757.8766 -934.4376 -1767.8766 -934.4376 L-1827.8766 -934.4376 Q-1837.8766 -934.4376 -1837.8766 -944.4376 Z" stroke="none" clip-path="url(#clipPath2)"/>
    </g>
    <g text-rendering="geometricPrecision" stroke-miterlimit="1.45" shape-rendering="geometricPrecision" transform="matrix(0.8,0,0,0.8,1524.8,1108)" stroke-linecap="butt">
      <path fill="none" d="M-1837.8766 -964.4376 Q-1837.8766 -974.4376 -1827.8766 -974.4376 L-1767.8766 -974.4376 Q-1757.8766 -974.4376 -1757.8766 -964.4376 L-1757.8766 -944.4376 Q-1757.8766 -934.4376 -1767.8766 -934.4376 L-1827.8766 -934.4376 Q-1837.8766 -934.4376 -1837.8766 -944.4376 Z" clip-path="url(#clipPath2)"/>
      <text x="-1821.6007" font-size="14px" y="-949.5841" clip-path="url(#clipPath2)" font-family="'Arial'" stroke="none" xml:space="preserve">STRAD</text>
    </g>
    <g fill="rgb(226,226,226)" text-rendering="geometricPrecision" shape-rendering="geometricPrecision" transform="matrix(0.8,0,0,0.8,1524.8,1108)" stroke="rgb(226,226,226)">
      <path d="M-1657.8766 -964.4376 Q-1657.8766 -974.4376 -1647.8766 -974.4376 L-1587.8766 -974.4376 Q-1577.8766 -974.4376 -1577.8766 -964.4376 L-1577.8766 -944.4376 Q-1577.8766 -934.4376 -1587.8766 -934.4376 L-1647.8766 -934.4376 Q-1657.8766 -934.4376 -1657.8766 -944.4376 Z" stroke="none" clip-path="url(#clipPath2)"/>
    </g>
    <g text-rendering="geometricPrecision" stroke-miterlimit="1.45" shape-rendering="geometricPrecision" transform="matrix(0.8,0,0,0.8,1524.8,1108)" stroke-linecap="butt">
      <path fill="none" d="M-1657.8766 -964.4376 Q-1657.8766 -974.4376 -1647.8766 -974.4376 L-1587.8766 -974.4376 Q-1577.8766 -974.4376 -1577.8766 -964.4376 L-1577.8766 -944.4376 Q-1577.8766 -934.4376 -1587.8766 -934.4376 L-1647.8766 -934.4376 Q-1657.8766 -934.4376 -1657.8766 -944.4376 Z" clip-path="url(#clipPath2)"/>
      <text x="-1638.1964" font-size="14px" y="-949.1466" clip-path="url(#clipPath2)" font-family="sans-serif" stroke="none" xml:space="preserve">MO25</text>
    </g>
    <g fill="white" text-rendering="geometricPrecision" shape-rendering="geometricPrecision" transform="matrix(0.8,0,0,0.8,1524.8,1108)" stroke="white">
      <rect x="-1716.0203" width="18" height="18" y="-934.0687" clip-path="url(#clipPath2)" stroke="none"/>
    </g>
    <g text-rendering="geometricPrecision" stroke-miterlimit="1.45" shape-rendering="geometricPrecision" transform="matrix(0.8,0,0,0.8,1524.8,1108)" stroke-linecap="butt">
      <rect fill="none" x="-1716.0203" width="18" height="18" y="-934.0687" clip-path="url(#clipPath2)"/>
    </g>
    <g text-rendering="geometricPrecision" stroke-miterlimit="1.45" shape-rendering="geometricPrecision" transform="matrix(0.8,0,0,0.8,1524.8,1108)" stroke-linecap="butt">
      <path fill="none" d="M-1609.7235 -811.4929 L-1456.9916 -812.1171" clip-path="url(#clipPath2)"/>
      <path fill="white" d="M-1448.9917 -812.1498 C-1448.9827 -809.9407 -1450.7662 -808.1425 -1452.9753 -808.1335 C-1455.1844 -808.1245 -1456.9827 -809.908 -1456.9916 -812.1171 C-1457.0006 -814.3262 -1455.2172 -816.1244 -1453.0079 -816.1334 C-1450.7988 -816.1425 -1449.0007 -814.3589 -1448.9917 -812.1498 Z" clip-path="url(#clipPath2)" stroke="none"/>
      <path fill="none" d="M-1448.9917 -812.1498 C-1448.9827 -809.9407 -1450.7662 -808.1425 -1452.9753 -808.1335 C-1455.1844 -808.1245 -1456.9827 -809.908 -1456.9916 -812.1171 C-1457.0006 -814.3262 -1455.2172 -816.1244 -1453.0079 -816.1334 C-1450.7988 -816.1425 -1449.0007 -814.3589 -1448.9917 -812.1498 Z" clip-path="url(#clipPath2)"/>
      <path fill="none" d="M-1757.8424 -954.4376 L-1717.8766 -954.4376 L-1713.4834 -953.8129 L-1710.3037 -951.9387 L-1708.3376 -948.815 L-1707.5852 -944.4419 L-1707.2821 -934.0457" clip-path="url(#clipPath2)"/>
      <path fill="none" d="M-1657.8452 -954.4376 L-1696.9471 -954.4376 L-1701.3237 -953.8126 L-1704.4534 -951.9376 L-1706.3362 -948.8127 L-1706.972 -944.4377 L-1706.9979 -934.0457" clip-path="url(#clipPath2)"/>
      <path fill="none" d="M-1707.0203 -916.0811 L-1707.0203 -885.9941" clip-path="url(#clipPath2)"/>
      <path d="M-1707.0203 -874.9941 L-1701.0203 -886.9941 L-1713.0203 -886.9941 Z" clip-path="url(#clipPath2)" stroke="none"/>
    </g>
    <g transform="matrix(0.8,0,0,0.8,1524.8,1108)" fill-opacity="0.4471" fill="rgb(237,235,228)" text-rendering="geometricPrecision" shape-rendering="geometricPrecision" stroke="rgb(237,235,228)" stroke-opacity="0.4471">
      <rect x="-1886.6243" y="-432.9429" clip-path="url(#clipPath2)" width="333.4039" rx="4" ry="4" height="233.1067" stroke="none"/>
    </g>
    <g text-rendering="geometricPrecision" stroke-miterlimit="1.45" shape-rendering="geometricPrecision" font-family="sans-serif" transform="matrix(0.8,0,0,0.8,1524.8,1108)" stroke-linecap="butt">
      <text x="-1772.0386" xml:space="preserve" y="-419.3414" clip-path="url(#clipPath2)" stroke="none">MITOCHONDRION</text>
      <rect x="-1886.6243" y="-432.9429" clip-path="url(#clipPath2)" fill="none" width="333.4039" rx="4" ry="4" height="233.1067" stroke-width="3"/>
    </g>
    <g fill="white" text-rendering="geometricPrecision" shape-rendering="geometricPrecision" transform="matrix(0.8,0,0,0.8,1524.8,1108)" stroke="white">
      <rect x="-1740.6243" width="18" height="18" y="-285.7103" clip-path="url(#clipPath2)" stroke="none"/>
    </g>
    <g text-rendering="geometricPrecision" stroke-miterlimit="1.45" shape-rendering="geometricPrecision" transform="matrix(0.8,0,0,0.8,1524.8,1108)" stroke-linecap="butt">
      <rect fill="none" x="-1740.6243" width="18" height="18" y="-285.7103" clip-path="url(#clipPath2)"/>
    </g>
    <g fill="rgb(219,235,219)" text-rendering="geometricPrecision" shape-rendering="geometricPrecision" transform="matrix(0.8,0,0,0.8,1524.8,1108)" stroke="rgb(219,235,219)">
      <rect x="-1871.6243" y="-339.1032" clip-path="url(#clipPath2)" width="120" rx="16" ry="16" height="32" stroke="none"/>
    </g>
    <g text-rendering="geometricPrecision" stroke-miterlimit="1.45" shape-rendering="geometricPrecision" transform="matrix(0.8,0,0,0.8,1524.8,1108)" stroke-linecap="butt">
      <rect x="-1871.6243" y="-339.1032" clip-path="url(#clipPath2)" fill="none" width="120" rx="16" ry="16" height="32"/>
      <text x="-1848.9758" font-size="14px" y="-317.8122" clip-path="url(#clipPath2)" font-family="sans-serif" stroke="none" xml:space="preserve">L-carnitine</text>
    </g>
    <g fill="rgb(219,235,219)" text-rendering="geometricPrecision" shape-rendering="geometricPrecision" transform="matrix(0.8,0,0,0.8,1524.8,1108)" stroke="rgb(219,235,219)">
      <rect x="-1688.2204" y="-292.7103" clip-path="url(#clipPath2)" width="120" rx="16" ry="16" height="32" stroke="none"/>
    </g>
    <g text-rendering="geometricPrecision" stroke-miterlimit="1.45" shape-rendering="geometricPrecision" transform="matrix(0.8,0,0,0.8,1524.8,1108)" stroke-linecap="butt">
      <rect x="-1688.2204" y="-292.7103" clip-path="url(#clipPath2)" fill="none" width="120" rx="16" ry="16" height="32"/>
      <text x="-1682.754" font-size="14px" y="-271.4193" clip-path="url(#clipPath2)" font-family="sans-serif" stroke="none" xml:space="preserve">acyl-L-carnitine</text>
    </g>
    <g fill="rgb(219,235,219)" text-rendering="geometricPrecision" shape-rendering="geometricPrecision" transform="matrix(0.8,0,0,0.8,1524.8,1108)" stroke="rgb(219,235,219)">
      <rect x="-1871.6243" y="-246.8362" clip-path="url(#clipPath2)" width="120" rx="16" ry="16" height="32" stroke="none"/>
    </g>
    <g text-rendering="geometricPrecision" stroke-miterlimit="1.45" shape-rendering="geometricPrecision" transform="matrix(0.8,0,0,0.8,1524.8,1108)" stroke-linecap="butt">
      <rect x="-1871.6243" y="-246.8362" clip-path="url(#clipPath2)" fill="none" width="120" rx="16" ry="16" height="32"/>
      <text x="-1842.7791" font-size="14px" y="-225.5452" clip-path="url(#clipPath2)" font-family="sans-serif" stroke="none" xml:space="preserve">acyl-CoA</text>
    </g>
    <g fill="rgb(226,172,163)" text-rendering="geometricPrecision" shape-rendering="geometricPrecision" transform="matrix(0.8,0,0,0.8,1524.8,1108)" stroke="rgb(226,172,163)">
      <path d="M-1771.6243 -389.8102 Q-1771.6243 -399.8102 -1761.6243 -399.8102 L-1701.6243 -399.8102 Q-1691.6243 -399.8102 -1691.6243 -389.8102 L-1691.6243 -369.8102 Q-1691.6243 -359.8102 -1701.6243 -359.8102 L-1761.6243 -359.8102 Q-1771.6243 -359.8102 -1771.6243 -369.8102 Z" stroke="none" clip-path="url(#clipPath2)"/>
    </g>
    <g text-rendering="geometricPrecision" stroke-miterlimit="1.45" shape-rendering="geometricPrecision" transform="matrix(0.8,0,0,0.8,1524.8,1108)" stroke-linecap="butt">
      <path fill="none" d="M-1771.6243 -389.8102 Q-1771.6243 -399.8102 -1761.6243 -399.8102 L-1701.6243 -399.8102 Q-1691.6243 -399.8102 -1691.6243 -389.8102 L-1691.6243 -369.8102 Q-1691.6243 -359.8102 -1701.6243 -359.8102 L-1761.6243 -359.8102 Q-1771.6243 -359.8102 -1771.6243 -369.8102 Z" clip-path="url(#clipPath2)"/>
      <text x="-1749.1892" font-size="14px" y="-374.5191" clip-path="url(#clipPath2)" font-family="sans-serif" stroke="none" xml:space="preserve">CPT1</text>
    </g>
    <g fill="rgb(200,216,235)" text-rendering="geometricPrecision" shape-rendering="geometricPrecision" transform="matrix(0.8,0,0,0.8,1524.8,1108)" stroke="rgb(200,216,235)">
      <path d="M-1747.8766 -1034.4376 Q-1747.8766 -1044.4376 -1737.8766 -1044.4376 L-1677.8766 -1044.4376 Q-1667.8766 -1044.4376 -1667.8766 -1034.4376 L-1667.8766 -1014.4376 Q-1667.8766 -1004.4376 -1677.8766 -1004.4376 L-1737.8766 -1004.4376 Q-1747.8766 -1004.4376 -1747.8766 -1014.4376 Z" stroke="none" clip-path="url(#clipPath2)"/>
    </g>
    <g text-rendering="geometricPrecision" stroke-miterlimit="1.45" shape-rendering="geometricPrecision" transform="matrix(0.8,0,0,0.8,1524.8,1108)" stroke-linecap="butt">
      <path fill="none" d="M-1747.8766 -1034.4376 Q-1747.8766 -1044.4376 -1737.8766 -1044.4376 L-1677.8766 -1044.4376 Q-1667.8766 -1044.4376 -1667.8766 -1034.4376 L-1667.8766 -1014.4376 Q-1667.8766 -1004.4376 -1677.8766 -1004.4376 L-1737.8766 -1004.4376 Q-1747.8766 -1004.4376 -1747.8766 -1014.4376 Z" clip-path="url(#clipPath2)"/>
      <text x="-1725.0006" font-size="14px" y="-1019.5841" clip-path="url(#clipPath2)" font-family="'Arial'" stroke="none" xml:space="preserve">LKB1</text>
    </g>
    <g fill="white" text-rendering="geometricPrecision" shape-rendering="geometricPrecision" transform="matrix(0.8,0,0,0.8,1524.8,1108) translate(-1733.3766,-1014.1265)" stroke="white">
      <rect x="0" y="0" clip-path="url(#clipPath15)" width="50.7111" rx="9" ry="9" height="18" stroke="none"/>
    </g>
    <g text-rendering="geometricPrecision" stroke-miterlimit="1.45" shape-rendering="geometricPrecision" transform="matrix(0.8,0,0,0.8,1524.8,1108) translate(-1733.3766,-1014.1265)" stroke-linecap="butt">
      <rect x="0" y="0" clip-path="url(#clipPath15)" fill="none" width="50.7111" rx="9" ry="9" height="18"/>
      <text x="6.1221" font-size="10px" y="12.7793" clip-path="url(#clipPath15)" font-family="sans-serif" stroke="none" xml:space="preserve">P@S428</text>
    </g>
    <g fill="rgb(226,172,163)" text-rendering="geometricPrecision" shape-rendering="geometricPrecision" transform="matrix(0.8,0,0,0.8,1524.8,1108)" stroke="rgb(226,172,163)">
      <path d="M-1523.4684 -389.8102 Q-1523.4684 -399.8102 -1513.4684 -399.8102 L-1453.4684 -399.8102 Q-1443.4684 -399.8102 -1443.4684 -389.8102 L-1443.4684 -369.8102 Q-1443.4684 -359.8102 -1453.4684 -359.8102 L-1513.4684 -359.8102 Q-1523.4684 -359.8102 -1523.4684 -369.8102 Z" stroke="none" clip-path="url(#clipPath2)"/>
    </g>
    <g text-rendering="geometricPrecision" stroke-miterlimit="1.45" shape-rendering="geometricPrecision" transform="matrix(0.8,0,0,0.8,1524.8,1108)" stroke-linecap="butt">
      <path fill="none" d="M-1523.4684 -389.8102 Q-1523.4684 -399.8102 -1513.4684 -399.8102 L-1453.4684 -399.8102 Q-1443.4684 -399.8102 -1443.4684 -389.8102 L-1443.4684 -369.8102 Q-1443.4684 -359.8102 -1453.4684 -359.8102 L-1513.4684 -359.8102 Q-1523.4684 -359.8102 -1523.4684 -369.8102 Z" clip-path="url(#clipPath2)"/>
      <text x="-1501.0333" font-size="14px" y="-374.5191" clip-path="url(#clipPath2)" font-family="sans-serif" stroke="none" xml:space="preserve">CPT1</text>
    </g>
    <g fill="white" text-rendering="geometricPrecision" shape-rendering="geometricPrecision" transform="matrix(0.8,0,0,0.8,1524.8,1108)" stroke="white">
      <rect x="-1618.0305" width="18" height="18" y="-388.8101" clip-path="url(#clipPath2)" stroke="none"/>
    </g>
    <g text-rendering="geometricPrecision" stroke-miterlimit="1.45" shape-rendering="geometricPrecision" transform="matrix(0.8,0,0,0.8,1524.8,1108)" stroke-linecap="butt">
      <rect fill="none" x="-1618.0305" width="18" height="18" y="-388.8101" clip-path="url(#clipPath2)"/>
    </g>
    <g fill="white" text-rendering="geometricPrecision" shape-rendering="geometricPrecision" transform="matrix(0.8,0,0,0.8,1524.8,1108)" stroke="white">
      <rect x="-1716.8766" width="18" height="18" y="-1104.6346" clip-path="url(#clipPath2)" stroke="none"/>
    </g>
    <g text-rendering="geometricPrecision" stroke-miterlimit="1.45" shape-rendering="geometricPrecision" transform="matrix(0.8,0,0,0.8,1524.8,1108)" stroke-linecap="butt">
      <rect fill="none" x="-1716.8766" width="18" height="18" y="-1104.6346" clip-path="url(#clipPath2)"/>
    </g>
    <g fill="rgb(200,216,235)" text-rendering="geometricPrecision" shape-rendering="geometricPrecision" transform="matrix(0.8,0,0,0.8,1524.8,1108)" stroke="rgb(200,216,235)">
      <path d="M-1237.8766 -1255.5162 Q-1237.8766 -1265.5162 -1227.8766 -1265.5162 L-1167.8766 -1265.5162 Q-1157.8766 -1265.5162 -1157.8766 -1255.5162 L-1157.8766 -1235.5162 Q-1157.8766 -1225.5162 -1167.8766 -1225.5162 L-1227.8766 -1225.5162 Q-1237.8766 -1225.5162 -1237.8766 -1235.5162 Z" stroke="none" clip-path="url(#clipPath2)"/>
    </g>
    <g text-rendering="geometricPrecision" stroke-miterlimit="1.45" shape-rendering="geometricPrecision" transform="matrix(0.8,0,0,0.8,1524.8,1108)" stroke-linecap="butt">
      <path fill="none" d="M-1237.8766 -1255.5162 Q-1237.8766 -1265.5162 -1227.8766 -1265.5162 L-1167.8766 -1265.5162 Q-1157.8766 -1265.5162 -1157.8766 -1255.5162 L-1157.8766 -1235.5162 Q-1157.8766 -1225.5162 -1167.8766 -1225.5162 L-1227.8766 -1225.5162 Q-1237.8766 -1225.5162 -1237.8766 -1235.5162 Z" clip-path="url(#clipPath2)"/>
      <text x="-1211.1451" font-size="14px" y="-1240.2252" clip-path="url(#clipPath2)" font-family="sans-serif" stroke="none" xml:space="preserve">PKA</text>
    </g>
    <g fill="white" text-rendering="geometricPrecision" shape-rendering="geometricPrecision" transform="matrix(0.8,0,0,0.8,1524.8,1108) translate(-1221.8766,-1274.5163)" stroke="white">
      <rect x="0" y="0" clip-path="url(#clipPath16)" width="48" rx="9" ry="9" height="18" stroke="none"/>
    </g>
    <g text-rendering="geometricPrecision" stroke-miterlimit="1.45" shape-rendering="geometricPrecision" transform="matrix(0.8,0,0,0.8,1524.8,1108) translate(-1221.8766,-1274.5163)" stroke-linecap="butt">
      <rect x="0" y="0" clip-path="url(#clipPath16)" fill="none" width="48" rx="9" ry="9" height="18"/>
      <text x="5.4404" font-size="10px" y="12.7793" clip-path="url(#clipPath16)" font-family="sans-serif" stroke="none" xml:space="preserve">inactive</text>
    </g>
    <g fill="rgb(219,235,219)" text-rendering="geometricPrecision" shape-rendering="geometricPrecision" transform="matrix(0.8,0,0,0.8,1524.8,1108)" stroke="rgb(219,235,219)">
      <rect x="-1317.8766" y="-1365.6479" clip-path="url(#clipPath2)" width="60" rx="16" ry="16" height="32" stroke="none"/>
    </g>
    <g text-rendering="geometricPrecision" stroke-miterlimit="1.45" shape-rendering="geometricPrecision" transform="matrix(0.8,0,0,0.8,1524.8,1108)" stroke-linecap="butt">
      <rect x="-1317.8766" y="-1365.6479" clip-path="url(#clipPath2)" fill="none" width="60" rx="16" ry="16" height="32"/>
      <text x="-1306.1901" font-size="14px" y="-1344.3569" clip-path="url(#clipPath2)" font-family="sans-serif" stroke="none" xml:space="preserve">cAMP</text>
    </g>
    <g fill="white" text-rendering="geometricPrecision" shape-rendering="geometricPrecision" transform="matrix(0.8,0,0,0.8,1524.8,1108)" stroke="white">
      <rect x="-1296.8766" width="18" height="18" y="-1254.5163" clip-path="url(#clipPath2)" stroke="none"/>
    </g>
    <g text-rendering="geometricPrecision" stroke-miterlimit="1.45" shape-rendering="geometricPrecision" transform="matrix(0.8,0,0,0.8,1524.8,1108)" stroke-linecap="butt">
      <rect fill="none" x="-1296.8766" width="18" height="18" y="-1254.5163" clip-path="url(#clipPath2)"/>
    </g>
    <g fill="rgb(200,216,235)" text-rendering="geometricPrecision" shape-rendering="geometricPrecision" transform="matrix(0.8,0,0,0.8,1524.8,1108)" stroke="rgb(200,216,235)">
      <path d="M-1417.8766 -1255.5162 Q-1417.8766 -1265.5162 -1407.8766 -1265.5162 L-1347.8766 -1265.5162 Q-1337.8766 -1265.5162 -1337.8766 -1255.5162 L-1337.8766 -1235.5162 Q-1337.8766 -1225.5162 -1347.8766 -1225.5162 L-1407.8766 -1225.5162 Q-1417.8766 -1225.5162 -1417.8766 -1235.5162 Z" stroke="none" clip-path="url(#clipPath2)"/>
    </g>
    <g text-rendering="geometricPrecision" stroke-miterlimit="1.45" shape-rendering="geometricPrecision" transform="matrix(0.8,0,0,0.8,1524.8,1108)" stroke-linecap="butt">
      <path fill="none" d="M-1417.8766 -1255.5162 Q-1417.8766 -1265.5162 -1407.8766 -1265.5162 L-1347.8766 -1265.5162 Q-1337.8766 -1265.5162 -1337.8766 -1255.5162 L-1337.8766 -1235.5162 Q-1337.8766 -1225.5162 -1347.8766 -1225.5162 L-1407.8766 -1225.5162 Q-1417.8766 -1225.5162 -1417.8766 -1235.5162 Z" clip-path="url(#clipPath2)"/>
      <text x="-1391.1451" font-size="14px" y="-1240.2252" clip-path="url(#clipPath2)" font-family="sans-serif" stroke="none" xml:space="preserve">PKA</text>
    </g>
    <g fill="white" text-rendering="geometricPrecision" shape-rendering="geometricPrecision" transform="matrix(0.8,0,0,0.8,1524.8,1108) translate(-1401.8766,-1274.5163)" stroke="white">
      <rect x="0" y="0" clip-path="url(#clipPath17)" width="48" rx="9" ry="9" height="18" stroke="none"/>
    </g>
    <g text-rendering="geometricPrecision" stroke-miterlimit="1.45" shape-rendering="geometricPrecision" transform="matrix(0.8,0,0,0.8,1524.8,1108) translate(-1401.8766,-1274.5163)" stroke-linecap="butt">
      <rect x="0" y="0" clip-path="url(#clipPath17)" fill="none" width="48" rx="9" ry="9" height="18"/>
      <text x="9.9888" font-size="10px" y="12.7793" clip-path="url(#clipPath17)" font-family="sans-serif" stroke="none" xml:space="preserve">active</text>
    </g>
    <g fill="white" text-rendering="geometricPrecision" shape-rendering="geometricPrecision" transform="matrix(0.8,0,0,0.8,1524.8,1108)" stroke="white">
      <rect x="-1476.8766" width="18" height="18" y="-1254.5163" clip-path="url(#clipPath2)" stroke="none"/>
    </g>
    <g text-rendering="geometricPrecision" stroke-miterlimit="1.45" shape-rendering="geometricPrecision" transform="matrix(0.8,0,0,0.8,1524.8,1108)" stroke-linecap="butt">
      <rect fill="none" x="-1476.8766" width="18" height="18" y="-1254.5163" clip-path="url(#clipPath2)"/>
    </g>
    <g text-rendering="geometricPrecision" stroke-miterlimit="1.45" shape-rendering="geometricPrecision" transform="matrix(0.8,0,0,0.8,1524.8,1108)" stroke-linecap="butt">
      <path fill="none" d="M-1792.7196 -307.0877 L-1756.8621 -276.7103 L-1740.6448 -276.7103" clip-path="url(#clipPath2)"/>
      <path fill="none" d="M-1722.6118 -276.7103 L-1699.1829 -276.7103" clip-path="url(#clipPath2)"/>
      <path d="M-1688.1829 -276.7103 L-1700.1829 -282.7103 L-1700.1829 -270.7103 Z" clip-path="url(#clipPath2)" stroke="none"/>
      <path fill="none" d="M-1792.5056 -246.8518 L-1756.8621 -276.7103 L-1740.6448 -276.7103" clip-path="url(#clipPath2)"/>
      <path fill="none" d="M-1731.6243 -359.7993 L-1731.6243 -293.6765" clip-path="url(#clipPath2)"/>
      <path fill="white" d="M-1731.6243 -285.6765 C-1733.8334 -285.6765 -1735.6243 -287.4673 -1735.6243 -289.6765 C-1735.6243 -291.8856 -1733.8334 -293.6765 -1731.6243 -293.6765 C-1729.4152 -293.6765 -1727.6243 -291.8856 -1727.6243 -289.6765 C-1727.6243 -287.4673 -1729.4152 -285.6765 -1731.6243 -285.6765 Z" clip-path="url(#clipPath2)" stroke="none"/>
      <path fill="none" d="M-1731.6243 -285.6765 C-1733.8334 -285.6765 -1735.6243 -287.4673 -1735.6243 -289.6765 C-1735.6243 -291.8856 -1733.8334 -293.6765 -1731.6243 -293.6765 C-1729.4152 -293.6765 -1727.6243 -291.8856 -1727.6243 -289.6765 C-1727.6243 -287.4673 -1729.4152 -285.6765 -1731.6243 -285.6765 Z" clip-path="url(#clipPath2)"/>
      <path fill="none" d="M-1707.0203 -995.6806 L-1707.0203 -934.0676" clip-path="url(#clipPath2)"/>
      <path fill="none" d="M-1443.495 -380.0241 L-1400.9752 -380.2517" clip-path="url(#clipPath2)"/>
      <path fill="none" d="M-1691.6078 -379.8102 L-1618.0221 -379.8102" clip-path="url(#clipPath2)"/>
      <path fill="none" d="M-1600.0487 -379.8102 L-1534.4575 -379.8102" clip-path="url(#clipPath2)"/>
      <path d="M-1523.4575 -379.8102 L-1535.4575 -385.8102 L-1535.4575 -373.8102 Z" clip-path="url(#clipPath2)" stroke="none"/>
      <path fill="none" d="M-1707.8766 -1157.0355 L-1707.8766 -1104.6588" clip-path="url(#clipPath2)"/>
      <path fill="none" d="M-1707.8766 -1086.6307 L-1707.8766 -1055.45" clip-path="url(#clipPath2)"/>
      <path d="M-1707.8766 -1044.45 L-1701.8766 -1056.45 L-1713.8766 -1056.45 Z" clip-path="url(#clipPath2)" stroke="none"/>
      <path fill="none" d="M-1237.9108 -1245.5162 L-1278.8496 -1245.5162" clip-path="url(#clipPath2)"/>
      <path fill="none" d="M-1287.8766 -1333.657 L-1287.8766 -1269.5111" clip-path="url(#clipPath2)"/>
      <path fill="white" d="M-1287.8766 -1254.5111 L-1281.8766 -1270.5111 L-1293.8766 -1270.5111 Z" clip-path="url(#clipPath2)" stroke="none"/>
      <path fill="none" d="M-1287.8766 -1254.5111 L-1281.8766 -1270.5111 L-1293.8766 -1270.5111 Z" clip-path="url(#clipPath2)"/>
      <path fill="none" d="M-1296.8689 -1245.5162 L-1330.705 -1245.5162 L-1337.8569 -1245.1749" clip-path="url(#clipPath2)"/>
      <path d="M-1337.8569 -1245.1749 L-1325.5846 -1239.7538 L-1326.1566 -1251.7401 Z" clip-path="url(#clipPath2)" stroke="none"/>
      <path fill="none" d="M-1417.9108 -1245.5162 L-1458.8496 -1245.5162" clip-path="url(#clipPath2)"/>
      <path fill="none" d="M-1476.8488 -1245.5162 L-1542.8766 -1245.5162 L-1542.8766 -1246.5382 L-1547.8424 -1246.5382" clip-path="url(#clipPath2)"/>
      <path d="M-1547.8424 -1246.5382 L-1535.8424 -1240.5382 L-1535.8424 -1252.5382 Z" clip-path="url(#clipPath2)" stroke="none"/>
    </g>
  </g>
</svg>
