<?xml version="1.0" encoding="UTF-8"?><svg xmlns="http://www.w3.org/2000/svg" xmlns:xlink="http://www.w3.org/1999/xlink" fill-opacity="1" color-rendering="auto" color-interpolation="auto" text-rendering="auto" stroke="black" stroke-linecap="square" width="390" stroke-miterlimit="10" shape-rendering="auto" stroke-opacity="1" fill="black" stroke-dasharray="none" font-weight="normal" stroke-width="1" height="286" font-family="'Dialog'" font-style="normal" stroke-linejoin="miter" font-size="12px" stroke-dashoffset="0" image-rendering="auto">
  <!--Generated by ySVG 2.5-->
  <defs id="genericDefs"/>
  <g>
    <defs id="defs1">
      <clipPath clipPathUnits="userSpaceOnUse" id="clipPath1">
        <path d="M0 0 L390 0 L390 286 L0 286 L0 0 Z"/>
      </clipPath>
      <clipPath clipPathUnits="userSpaceOnUse" id="clipPath2">
        <path d="M122 70 L512 70 L512 356 L122 356 L122 70 Z"/>
      </clipPath>
      <clipPath clipPathUnits="userSpaceOnUse" id="clipPath3">
        <path d="M-141 -48 L249 -48 L249 238 L-141 238 L-141 -48 Z"/>
      </clipPath>
      <clipPath clipPathUnits="userSpaceOnUse" id="clipPath4">
        <path d="M-142 -203.6867 L248 -203.6867 L248 82.3133 L-142 82.3133 L-142 -203.6867 Z"/>
      </clipPath>
    </defs>
    <g fill="white" text-rendering="geometricPrecision" shape-rendering="geometricPrecision" transform="translate(-122,-70)" stroke="white">
      <rect x="122" width="390" height="286" y="70" clip-path="url(#clipPath2)" stroke="none"/>
    </g>
    <g fill="rgb(200,216,235)" text-rendering="geometricPrecision" shape-rendering="geometricPrecision" transform="matrix(1,0,0,1,-122,-70)" stroke="rgb(200,216,235)">
      <path d="M137 171 Q137 161 147 161 L207 161 Q217 161 217 171 L217 191 Q217 201 207 201 L147 201 Q137 201 137 191 Z" stroke="none" clip-path="url(#clipPath2)"/>
    </g>
    <g text-rendering="geometricPrecision" stroke-miterlimit="1.45" shape-rendering="geometricPrecision" transform="matrix(1,0,0,1,-122,-70)" stroke-linecap="butt">
      <path fill="none" d="M137 171 Q137 161 147 161 L207 161 Q217 161 217 171 L217 191 Q217 201 207 201 L147 201 Q137 201 137 191 Z" clip-path="url(#clipPath2)"/>
      <text x="163.7314" font-size="14px" y="186.291" clip-path="url(#clipPath2)" font-family="sans-serif" stroke="none" xml:space="preserve">PKA</text>
    </g>
    <g fill="rgb(226,172,163)" text-rendering="geometricPrecision" shape-rendering="geometricPrecision" transform="matrix(1,0,0,1,-122,-70)" stroke="rgb(226,172,163)">
      <path d="M257 95 Q257 85 267 85 L327 85 Q337 85 337 95 L337 115 Q337 125 327 125 L267 125 Q257 125 257 115 Z" stroke="none" clip-path="url(#clipPath2)"/>
    </g>
    <g text-rendering="geometricPrecision" stroke-miterlimit="1.45" shape-rendering="geometricPrecision" transform="matrix(1,0,0,1,-122,-70)" stroke-linecap="butt">
      <path fill="none" d="M257 95 Q257 85 267 85 L327 85 Q337 85 337 95 L337 115 Q337 125 327 125 L267 125 Q257 125 257 115 Z" clip-path="url(#clipPath2)"/>
      <text x="284.3535" font-size="14px" y="110.291" clip-path="url(#clipPath2)" font-family="sans-serif" stroke="none" xml:space="preserve">HSL</text>
    </g>
    <g fill="white" text-rendering="geometricPrecision" shape-rendering="geometricPrecision" transform="matrix(1,0,0,1,-122,-70) translate(263,118)" stroke="white">
      <rect x="0" y="0" clip-path="url(#clipPath3)" width="25" rx="7.5" ry="7.5" height="15" stroke="none"/>
    </g>
    <g text-rendering="geometricPrecision" stroke-miterlimit="1.45" shape-rendering="geometricPrecision" transform="matrix(1,0,0,1,-122,-70) translate(263,118)" stroke-linecap="butt">
      <rect x="0" y="0" clip-path="url(#clipPath3)" fill="none" width="25" rx="7.5" ry="7.5" height="15"/>
    </g>
    <g fill="rgb(226,172,163)" text-rendering="geometricPrecision" shape-rendering="geometricPrecision" transform="matrix(1,0,0,1,-122,-70)" stroke="rgb(226,172,163)">
      <path d="M257 250 Q257 240 267 240 L327 240 Q337 240 337 250 L337 270 Q337 280 327 280 L267 280 Q257 280 257 270 Z" stroke="none" clip-path="url(#clipPath2)"/>
    </g>
    <g text-rendering="geometricPrecision" stroke-miterlimit="1.45" shape-rendering="geometricPrecision" transform="matrix(1,0,0,1,-122,-70)" stroke-linecap="butt">
      <path fill="none" d="M257 250 Q257 240 267 240 L327 240 Q337 240 337 250 L337 270 Q337 280 327 280 L267 280 Q257 280 257 270 Z" clip-path="url(#clipPath2)"/>
      <text x="284.3535" font-size="14px" y="265.291" clip-path="url(#clipPath2)" font-family="sans-serif" stroke="none" xml:space="preserve">HSL</text>
    </g>
    <g fill="white" text-rendering="geometricPrecision" shape-rendering="geometricPrecision" transform="matrix(1,0,0,1,-122,-70) translate(264,273.6867)" stroke="white">
      <rect x="0" y="0" clip-path="url(#clipPath4)" width="25" rx="7.5" ry="7.5" height="15" stroke="none"/>
    </g>
    <g text-rendering="geometricPrecision" stroke-miterlimit="1.45" shape-rendering="geometricPrecision" transform="matrix(1,0,0,1,-122,-70) translate(264,273.6867)" stroke-linecap="butt">
      <rect x="0" y="0" clip-path="url(#clipPath4)" fill="none" width="25" rx="7.5" ry="7.5" height="15"/>
      <text x="9.1836" xml:space="preserve" y="12.0352" clip-path="url(#clipPath4)" font-family="sans-serif" stroke="none">P</text>
    </g>
    <g fill="white" text-rendering="geometricPrecision" shape-rendering="geometricPrecision" transform="matrix(1,0,0,1,-122,-70)" stroke="white">
      <rect x="288" width="18" height="18" y="171.5625" clip-path="url(#clipPath2)" stroke="none"/>
    </g>
    <g text-rendering="geometricPrecision" stroke-miterlimit="1.45" shape-rendering="geometricPrecision" transform="matrix(1,0,0,1,-122,-70)" stroke-linecap="butt">
      <rect fill="none" x="288" width="18" height="18" y="171.5625" clip-path="url(#clipPath2)"/>
    </g>
    <g fill="white" text-rendering="geometricPrecision" shape-rendering="geometricPrecision" transform="matrix(1,0,0,1,-122,-70)" stroke="white">
      <rect x="428" width="18" height="18" y="251" clip-path="url(#clipPath2)" stroke="none"/>
    </g>
    <g text-rendering="geometricPrecision" stroke-miterlimit="1.45" shape-rendering="geometricPrecision" transform="matrix(1,0,0,1,-122,-70)" stroke-linecap="butt">
      <rect fill="none" x="428" width="18" height="18" y="251" clip-path="url(#clipPath2)"/>
    </g>
    <g fill="rgb(219,235,219)" text-rendering="geometricPrecision" shape-rendering="geometricPrecision" transform="matrix(1,0,0,1,-122,-70)" stroke="rgb(219,235,219)">
      <rect x="377" y="179" clip-path="url(#clipPath2)" width="120" rx="16" ry="16" height="32" stroke="none"/>
    </g>
    <g text-rendering="geometricPrecision" stroke-miterlimit="1.45" shape-rendering="geometricPrecision" transform="matrix(1,0,0,1,-122,-70)" stroke-linecap="butt">
      <rect x="377" y="179" clip-path="url(#clipPath2)" fill="none" width="120" rx="16" ry="16" height="32"/>
      <text x="389.644" font-size="14px" y="200.291" clip-path="url(#clipPath2)" font-family="sans-serif" stroke="none" xml:space="preserve">triacylglycerol</text>
    </g>
    <g fill="rgb(219,235,219)" text-rendering="geometricPrecision" shape-rendering="geometricPrecision" transform="matrix(1,0,0,1,-122,-70)" stroke="rgb(219,235,219)">
      <rect x="377" y="309" clip-path="url(#clipPath2)" width="120" rx="16" ry="16" height="32" stroke="none"/>
    </g>
    <g text-rendering="geometricPrecision" stroke-miterlimit="1.45" shape-rendering="geometricPrecision" transform="matrix(1,0,0,1,-122,-70)" stroke-linecap="butt">
      <rect x="377" y="309" clip-path="url(#clipPath2)" fill="none" width="120" rx="16" ry="16" height="32"/>
      <text x="410.2817" font-size="14px" y="330.291" clip-path="url(#clipPath2)" font-family="sans-serif" stroke="none" xml:space="preserve">glycerol</text>
    </g>
    <g text-rendering="geometricPrecision" stroke-miterlimit="1.45" shape-rendering="geometricPrecision" transform="matrix(1,0,0,1,-122,-70)" stroke-linecap="butt">
      <path fill="none" d="M216.9807 181 L274.1774 181" clip-path="url(#clipPath2)"/>
    </g>
    <g stroke-linecap="butt" transform="matrix(1,0,0,1,-122,-70)" fill="white" text-rendering="geometricPrecision" shape-rendering="geometricPrecision" stroke="white" stroke-miterlimit="1.45">
      <path d="M282.1774 181 C282.1774 183.2091 280.3865 185 278.1774 185 C275.9682 185 274.1774 183.2091 274.1774 181 C274.1774 178.7909 275.9682 177 278.1774 177 C280.3865 177 282.1774 178.7909 282.1774 181 Z" stroke="none" clip-path="url(#clipPath2)"/>
      <path fill="none" d="M282.1774 181 C282.1774 183.2091 280.3865 185 278.1774 185 C275.9682 185 274.1774 183.2091 274.1774 181 C274.1774 178.7909 275.9682 177 278.1774 177 C280.3865 177 282.1774 178.7909 282.1774 181 Z" clip-path="url(#clipPath2)" stroke="black"/>
      <path fill="none" d="M297 125.0344 L297 171.588" clip-path="url(#clipPath2)" stroke="black"/>
      <path fill="none" d="M297 189.6001 L297 229.0281" clip-path="url(#clipPath2)" stroke="black"/>
      <path fill="black" d="M297 240.0281 L303 228.0281 L291 228.0281 Z" clip-path="url(#clipPath2)" stroke="none"/>
      <path fill="none" d="M336.9895 260 L415.0947 260" clip-path="url(#clipPath2)" stroke="black"/>
      <path d="M423.0947 260 C423.0947 262.2091 421.3039 264 419.0947 264 C416.8856 264 415.0947 262.2091 415.0947 260 C415.0947 257.7909 416.8856 256 419.0947 256 C421.3039 256 423.0947 257.7909 423.0947 260 Z" clip-path="url(#clipPath2)" stroke="none"/>
      <path fill="none" d="M423.0947 260 C423.0947 262.2091 421.3039 264 419.0947 264 C416.8856 264 415.0947 262.2091 415.0947 260 C415.0947 257.7909 416.8856 256 419.0947 256 C421.3039 256 423.0947 257.7909 423.0947 260 Z" clip-path="url(#clipPath2)" stroke="black"/>
      <path fill="none" d="M437 211.0278 L437 250.9612" clip-path="url(#clipPath2)" stroke="black"/>
      <path fill="none" d="M437 268.9819 L437 297.9987" clip-path="url(#clipPath2)" stroke="black"/>
      <path fill="black" d="M437 308.9987 L443 296.9987 L431 296.9987 Z" clip-path="url(#clipPath2)" stroke="none"/>
    </g>
  </g>
</svg>
