<?xml version="1.0" encoding="UTF-8"?><svg xmlns="http://www.w3.org/2000/svg" xmlns:xlink="http://www.w3.org/1999/xlink" fill-opacity="1" color-rendering="auto" color-interpolation="auto" text-rendering="auto" stroke="black" stroke-linecap="square" width="558" stroke-miterlimit="10" shape-rendering="auto" stroke-opacity="1" fill="black" stroke-dasharray="none" font-weight="normal" stroke-width="1" height="471" font-family="'Dialog'" font-style="normal" stroke-linejoin="miter" font-size="12px" stroke-dashoffset="0" image-rendering="auto">
  <!--Generated by ySVG 2.5-->
  <defs id="genericDefs"/>
  <g>
    <defs id="defs1">
      <clipPath clipPathUnits="userSpaceOnUse" id="clipPath1">
        <path d="M0 0 L558 0 L558 471 L0 471 L0 0 Z"/>
      </clipPath>
      <clipPath clipPathUnits="userSpaceOnUse" id="clipPath2">
        <path d="M-9 -2 L688.5 -2 L688.5 586.75 L-9 586.75 L-9 -2 Z"/>
      </clipPath>
      <clipPath clipPathUnits="userSpaceOnUse" id="clipPath3">
        <path d="M-200 -403 L497.5 -403 L497.5 185.75 L-200 185.75 L-200 -403 Z"/>
      </clipPath>
      <clipPath clipPathUnits="userSpaceOnUse" id="clipPath4">
        <path d="M-245 -83 L452.5 -83 L452.5 505.75 L-245 505.75 L-245 -83 Z"/>
      </clipPath>
      <clipPath clipPathUnits="userSpaceOnUse" id="clipPath5">
        <path d="M-140 -178 L557.5 -178 L557.5 410.75 L-140 410.75 L-140 -178 Z"/>
      </clipPath>
      <clipPath clipPathUnits="userSpaceOnUse" id="clipPath6">
        <path d="M-485 -403 L212.5 -403 L212.5 185.75 L-485 185.75 L-485 -403 Z"/>
      </clipPath>
      <clipPath clipPathUnits="userSpaceOnUse" id="clipPath7">
        <path d="M-345.0297 -207 L352.4703 -207 L352.4703 381.75 L-345.0297 381.75 L-345.0297 -207 Z"/>
      </clipPath>
      <clipPath clipPathUnits="userSpaceOnUse" id="clipPath8">
        <path d="M172.9797 112 L-524.5203 112 L-524.5203 -476.75 L172.9797 -476.75 L172.9797 112 Z"/>
      </clipPath>
    </defs>
    <g fill="white" text-rendering="geometricPrecision" shape-rendering="geometricPrecision" transform="scale(0.8,0.8) translate(9,2)" stroke="white">
      <rect x="-9" width="698" height="589" y="-2" clip-path="url(#clipPath2)" stroke="none"/>
    </g>
    <g fill="white" text-rendering="geometricPrecision" shape-rendering="geometricPrecision" transform="matrix(0.8,0,0,0.8,7.2,1.6)" stroke="white">
      <circle r="18" clip-path="url(#clipPath2)" cx="155" cy="35" stroke="none"/>
    </g>
    <g text-rendering="geometricPrecision" stroke-miterlimit="1.45" shape-rendering="geometricPrecision" transform="matrix(0.8,0,0,0.8,7.2,1.6)" stroke-linecap="butt">
      <circle fill="none" r="18" clip-path="url(#clipPath2)" cx="155" cy="35"/>
      <line y2="17" fill="none" x1="137" clip-path="url(#clipPath2)" x2="173" y1="53"/>
    </g>
    <g fill="white" text-rendering="geometricPrecision" shape-rendering="geometricPrecision" transform="matrix(0.8,0,0,0.8,7.2,1.6)" stroke="white">
      <circle r="18" clip-path="url(#clipPath2)" cx="345" cy="130" stroke="none"/>
    </g>
    <g text-rendering="geometricPrecision" stroke-miterlimit="1.45" shape-rendering="geometricPrecision" transform="matrix(0.8,0,0,0.8,7.2,1.6)" stroke-linecap="butt">
      <circle fill="none" r="18" clip-path="url(#clipPath2)" cx="345" cy="130"/>
      <line y2="112" fill="none" x1="327" clip-path="url(#clipPath2)" x2="363" y1="148"/>
    </g>
    <g fill="rgb(226,172,163)" text-rendering="geometricPrecision" shape-rendering="geometricPrecision" transform="matrix(0.8,0,0,0.8,7.2,1.6)" stroke="rgb(226,172,163)">
      <path d="M175 380 Q175 370 185 370 L245 370 Q255 370 255 380 L255 400 Q255 410 245 410 L185 410 Q175 410 175 400 Z" stroke="none" clip-path="url(#clipPath2)"/>
    </g>
    <g text-rendering="geometricPrecision" stroke-miterlimit="1.45" shape-rendering="geometricPrecision" transform="matrix(0.8,0,0,0.8,7.2,1.6)" stroke-linecap="butt">
      <path fill="none" d="M175 380 Q175 370 185 370 L245 370 Q255 370 255 380 L255 400 Q255 410 245 410 L185 410 Q175 410 175 400 Z" clip-path="url(#clipPath2)"/>
      <text x="200.2686" font-size="14px" y="395.291" clip-path="url(#clipPath2)" font-family="sans-serif" stroke="none" xml:space="preserve">GAC</text>
    </g>
    <g fill="white" text-rendering="geometricPrecision" shape-rendering="geometricPrecision" transform="matrix(0.8,0,0,0.8,7.2,1.6) translate(191,401)" stroke="white">
      <rect x="0" y="0" clip-path="url(#clipPath3)" width="48" rx="9" ry="9" height="18" stroke="none"/>
    </g>
    <g text-rendering="geometricPrecision" stroke-miterlimit="1.45" shape-rendering="geometricPrecision" transform="matrix(0.8,0,0,0.8,7.2,1.6) translate(191,401)" stroke-linecap="butt">
      <rect x="0" y="0" clip-path="url(#clipPath3)" fill="none" width="48" rx="9" ry="9" height="18"/>
      <text x="5.9482" font-size="10px" y="12.7793" clip-path="url(#clipPath3)" font-family="sans-serif" stroke="none" xml:space="preserve"> @S314</text>
    </g>
    <g fill="white" text-rendering="geometricPrecision" shape-rendering="geometricPrecision" transform="matrix(0.8,0,0,0.8,7.2,1.6)" stroke="white">
      <path d="M220 90 L300 90 L300 118 Q300 130 288 130 L232 130 Q220 130 220 118 Z" stroke="none" clip-path="url(#clipPath2)"/>
    </g>
    <g text-rendering="geometricPrecision" stroke-miterlimit="1.45" shape-rendering="geometricPrecision" transform="matrix(0.8,0,0,0.8,7.2,1.6)" stroke-linecap="butt">
      <path fill="none" d="M220 90 L300 90 L300 118 Q300 130 288 130 L232 130 Q220 130 220 118 Z" clip-path="url(#clipPath2)"/>
      <text x="243.4707" font-size="14px" y="115.291" clip-path="url(#clipPath2)" font-family="sans-serif" stroke="none" xml:space="preserve">PKCε</text>
    </g>
    <g fill="white" text-rendering="geometricPrecision" shape-rendering="geometricPrecision" transform="matrix(0.8,0,0,0.8,7.2,1.6) translate(236,81)" stroke="white">
      <rect x="0" width="48" height="18" y="0" clip-path="url(#clipPath4)" stroke="none"/>
    </g>
    <g font-size="10px" stroke-linecap="butt" transform="matrix(0.8,0,0,0.8,7.2,1.6) translate(236,81)" text-rendering="geometricPrecision" font-family="sans-serif" shape-rendering="geometricPrecision" stroke-miterlimit="1.45">
      <text x="6.1948" xml:space="preserve" y="12.7793" clip-path="url(#clipPath4)" stroke="none">ct:gene</text>
      <rect fill="none" x="0" width="48" height="18" y="0" clip-path="url(#clipPath4)"/>
    </g>
    <g fill="white" text-rendering="geometricPrecision" shape-rendering="geometricPrecision" transform="matrix(0.8,0,0,0.8,7.2,1.6)" stroke="white">
      <path d="M115 185 L195 185 L195 213 Q195 225 183 225 L127 225 Q115 225 115 213 Z" stroke="none" clip-path="url(#clipPath2)"/>
    </g>
    <g text-rendering="geometricPrecision" stroke-miterlimit="1.45" shape-rendering="geometricPrecision" transform="matrix(0.8,0,0,0.8,7.2,1.6)" stroke-linecap="butt">
      <path fill="none" d="M115 185 L195 185 L195 213 Q195 225 183 225 L127 225 Q115 225 115 213 Z" clip-path="url(#clipPath2)"/>
      <text x="138.4707" font-size="14px" y="210.291" clip-path="url(#clipPath2)" font-family="sans-serif" stroke="none" xml:space="preserve">PKCε</text>
    </g>
    <g fill="white" text-rendering="geometricPrecision" shape-rendering="geometricPrecision" transform="matrix(0.8,0,0,0.8,7.2,1.6) translate(131,176)" stroke="white">
      <rect x="0" width="48" height="18" y="0" clip-path="url(#clipPath5)" stroke="none"/>
    </g>
    <g font-size="10px" stroke-linecap="butt" transform="matrix(0.8,0,0,0.8,7.2,1.6) translate(131,176)" text-rendering="geometricPrecision" font-family="sans-serif" shape-rendering="geometricPrecision" stroke-miterlimit="1.45">
      <text x="3.0137" xml:space="preserve" y="12.7793" clip-path="url(#clipPath5)" stroke="none">ct:mRNA</text>
      <rect fill="none" x="0" width="48" height="18" y="0" clip-path="url(#clipPath5)"/>
    </g>
    <g fill="white" text-rendering="geometricPrecision" shape-rendering="geometricPrecision" transform="matrix(0.8,0,0,0.8,7.2,1.6)" stroke="white">
      <rect x="336" width="18" height="18" y="196" clip-path="url(#clipPath2)" stroke="none"/>
    </g>
    <g text-rendering="geometricPrecision" stroke-miterlimit="1.45" shape-rendering="geometricPrecision" transform="matrix(0.8,0,0,0.8,7.2,1.6)" stroke-linecap="butt">
      <rect fill="none" x="336" width="18" height="18" y="196" clip-path="url(#clipPath2)"/>
      <text x="342.7852" font-size="14px" y="210.291" clip-path="url(#clipPath2)" font-family="sans-serif" stroke="none" xml:space="preserve"> </text>
    </g>
    <g fill="rgb(200,216,235)" text-rendering="geometricPrecision" shape-rendering="geometricPrecision" transform="matrix(0.8,0,0,0.8,7.2,1.6)" stroke="rgb(200,216,235)">
      <path d="M10 100 Q10 90 20 90 L80 90 Q90 90 90 100 L90 120 Q90 130 80 130 L20 130 Q10 130 10 120 Z" stroke="none" clip-path="url(#clipPath2)"/>
    </g>
    <g text-rendering="geometricPrecision" stroke-miterlimit="1.45" shape-rendering="geometricPrecision" transform="matrix(0.8,0,0,0.8,7.2,1.6)" stroke-linecap="butt">
      <path fill="none" d="M10 100 Q10 90 20 90 L80 90 Q90 90 90 100 L90 120 Q90 130 80 130 L20 130 Q10 130 10 120 Z" clip-path="url(#clipPath2)"/>
      <text x="29.1812" font-size="14px" y="115.291" clip-path="url(#clipPath2)" font-family="sans-serif" stroke="none" xml:space="preserve">NF-κB</text>
    </g>
    <g fill="white" text-rendering="geometricPrecision" shape-rendering="geometricPrecision" transform="matrix(0.8,0,0,0.8,7.2,1.6)" stroke="white">
      <rect x="146" width="18" height="18" y="101" clip-path="url(#clipPath2)" stroke="none"/>
    </g>
    <g text-rendering="geometricPrecision" stroke-miterlimit="1.45" shape-rendering="geometricPrecision" transform="matrix(0.8,0,0,0.8,7.2,1.6)" stroke-linecap="butt">
      <rect fill="none" x="146" width="18" height="18" y="101" clip-path="url(#clipPath2)"/>
      <text x="152.7852" font-size="14px" y="115.291" clip-path="url(#clipPath2)" font-family="sans-serif" stroke="none" xml:space="preserve"> </text>
    </g>
    <g fill="rgb(200,216,235)" text-rendering="geometricPrecision" shape-rendering="geometricPrecision" transform="matrix(0.8,0,0,0.8,7.2,1.6)" stroke="rgb(200,216,235)">
      <path d="M305 275 Q305 265 315 265 L375 265 Q385 265 385 275 L385 295 Q385 305 375 305 L315 305 Q305 305 305 295 Z" stroke="none" clip-path="url(#clipPath2)"/>
    </g>
    <g text-rendering="geometricPrecision" stroke-miterlimit="1.45" shape-rendering="geometricPrecision" transform="matrix(0.8,0,0,0.8,7.2,1.6)" stroke-linecap="butt">
      <path fill="none" d="M305 275 Q305 265 315 265 L375 265 Q385 265 385 275 L385 295 Q385 305 375 305 L315 305 Q305 305 305 295 Z" clip-path="url(#clipPath2)"/>
      <text x="328.4707" font-size="14px" y="290.291" clip-path="url(#clipPath2)" font-family="sans-serif" stroke="none" xml:space="preserve">PKCε</text>
    </g>
    <g fill="rgb(219,235,219)" text-rendering="geometricPrecision" shape-rendering="geometricPrecision" transform="matrix(0.8,0,0,0.8,7.2,1.6)" stroke="rgb(219,235,219)">
      <rect x="350" y="457" clip-path="url(#clipPath2)" width="90" rx="18" ry="18" height="36" stroke="none"/>
    </g>
    <g text-rendering="geometricPrecision" stroke-miterlimit="1.45" shape-rendering="geometricPrecision" transform="matrix(0.8,0,0,0.8,7.2,1.6)" stroke-linecap="butt">
      <rect x="350" y="457" clip-path="url(#clipPath2)" fill="none" width="90" rx="18" ry="18" height="36"/>
      <text x="360.981" font-size="14px" y="480.291" clip-path="url(#clipPath2)" font-family="sans-serif" stroke="none" xml:space="preserve">glutamine</text>
    </g>
    <g fill="rgb(219,235,219)" text-rendering="geometricPrecision" shape-rendering="geometricPrecision" transform="matrix(0.8,0,0,0.8,7.2,1.6)" stroke="rgb(219,235,219)">
      <rect x="405" y="532" clip-path="url(#clipPath2)" width="60" rx="18" ry="18" height="36" stroke="none"/>
    </g>
    <g text-rendering="geometricPrecision" stroke-miterlimit="1.45" shape-rendering="geometricPrecision" transform="matrix(0.8,0,0,0.8,7.2,1.6)" stroke-linecap="butt">
      <rect x="405" y="532" clip-path="url(#clipPath2)" fill="none" width="60" rx="18" ry="18" height="36"/>
      <text x="419.9917" font-size="14px" y="555.291" clip-path="url(#clipPath2)" font-family="sans-serif" stroke="none" xml:space="preserve">H2O</text>
    </g>
    <g fill="rgb(219,235,219)" text-rendering="geometricPrecision" shape-rendering="geometricPrecision" transform="matrix(0.8,0,0,0.8,7.2,1.6)" stroke="rgb(219,235,219)">
      <rect x="580" y="457" clip-path="url(#clipPath2)" width="90" rx="18" ry="18" height="36" stroke="none"/>
    </g>
    <g text-rendering="geometricPrecision" stroke-miterlimit="1.45" shape-rendering="geometricPrecision" transform="matrix(0.8,0,0,0.8,7.2,1.6)" stroke-linecap="butt">
      <rect x="580" y="457" clip-path="url(#clipPath2)" fill="none" width="90" rx="18" ry="18" height="36"/>
      <text x="590.8647" font-size="14px" y="480.291" clip-path="url(#clipPath2)" font-family="sans-serif" stroke="none" xml:space="preserve">glutamate</text>
    </g>
    <g fill="rgb(219,235,219)" text-rendering="geometricPrecision" shape-rendering="geometricPrecision" transform="matrix(0.8,0,0,0.8,7.2,1.6)" stroke="rgb(219,235,219)">
      <rect x="550" y="532" clip-path="url(#clipPath2)" width="60" rx="18" ry="18" height="36" stroke="none"/>
    </g>
    <g text-rendering="geometricPrecision" stroke-miterlimit="1.45" shape-rendering="geometricPrecision" transform="matrix(0.8,0,0,0.8,7.2,1.6)" stroke-linecap="butt">
      <rect x="550" y="532" clip-path="url(#clipPath2)" fill="none" width="60" rx="18" ry="18" height="36"/>
      <text x="565.2583" font-size="14px" y="555.291" clip-path="url(#clipPath2)" font-family="sans-serif" stroke="none" xml:space="preserve">NH3</text>
    </g>
    <g fill="rgb(226,172,163)" text-rendering="geometricPrecision" shape-rendering="geometricPrecision" transform="matrix(0.8,0,0,0.8,7.2,1.6)" stroke="rgb(226,172,163)">
      <path d="M460 380 Q460 370 470 370 L530 370 Q540 370 540 380 L540 400 Q540 410 530 410 L470 410 Q460 410 460 400 Z" stroke="none" clip-path="url(#clipPath2)"/>
    </g>
    <g text-rendering="geometricPrecision" stroke-miterlimit="1.45" shape-rendering="geometricPrecision" transform="matrix(0.8,0,0,0.8,7.2,1.6)" stroke-linecap="butt">
      <path fill="none" d="M460 380 Q460 370 470 370 L530 370 Q540 370 540 380 L540 400 Q540 410 530 410 L470 410 Q460 410 460 400 Z" clip-path="url(#clipPath2)"/>
      <text x="485.2686" font-size="14px" y="395.291" clip-path="url(#clipPath2)" font-family="sans-serif" stroke="none" xml:space="preserve">GAC</text>
    </g>
    <g fill="white" text-rendering="geometricPrecision" shape-rendering="geometricPrecision" transform="matrix(0.8,0,0,0.8,7.2,1.6) translate(476,401)" stroke="white">
      <rect x="0" y="0" clip-path="url(#clipPath6)" width="48" rx="9" ry="9" height="18" stroke="none"/>
    </g>
    <g text-rendering="geometricPrecision" stroke-miterlimit="1.45" shape-rendering="geometricPrecision" transform="matrix(0.8,0,0,0.8,7.2,1.6) translate(476,401)" stroke-linecap="butt">
      <rect x="0" y="0" clip-path="url(#clipPath6)" fill="none" width="48" rx="9" ry="9" height="18"/>
      <text x="4.7666" font-size="10px" y="12.7793" clip-path="url(#clipPath6)" font-family="sans-serif" stroke="none" xml:space="preserve">P@S314</text>
    </g>
    <g fill="white" text-rendering="geometricPrecision" shape-rendering="geometricPrecision" transform="matrix(0.8,0,0,0.8,7.2,1.6)" stroke="white">
      <rect x="491" width="18" height="18" y="466" clip-path="url(#clipPath2)" stroke="none"/>
    </g>
    <g text-rendering="geometricPrecision" stroke-miterlimit="1.45" shape-rendering="geometricPrecision" transform="matrix(0.8,0,0,0.8,7.2,1.6)" stroke-linecap="butt">
      <rect fill="none" x="491" width="18" height="18" y="466" clip-path="url(#clipPath2)"/>
      <text x="497.7852" font-size="14px" y="480.291" clip-path="url(#clipPath2)" font-family="sans-serif" stroke="none" xml:space="preserve"> </text>
    </g>
    <g fill="rgb(219,235,219)" text-rendering="geometricPrecision" shape-rendering="geometricPrecision" transform="matrix(0.8,0,0,0.8,7.2,1.6)" stroke="rgb(219,235,219)">
      <rect x="255" y="325" clip-path="url(#clipPath2)" width="60" rx="15" ry="15" height="30" stroke="none"/>
    </g>
    <g text-rendering="geometricPrecision" stroke-miterlimit="1.45" shape-rendering="geometricPrecision" transform="matrix(0.8,0,0,0.8,7.2,1.6)" stroke-linecap="butt">
      <rect x="255" y="325" clip-path="url(#clipPath2)" fill="none" width="60" rx="15" ry="15" height="30"/>
      <text x="271.875" font-size="14px" y="345.291" clip-path="url(#clipPath2)" font-family="sans-serif" stroke="none" xml:space="preserve">ATP</text>
    </g>
    <g fill="white" text-rendering="geometricPrecision" shape-rendering="geometricPrecision" transform="matrix(0.8,0,0,0.8,7.2,1.6)" stroke="white">
      <rect x="336" width="18" height="18" y="381" clip-path="url(#clipPath2)" stroke="none"/>
    </g>
    <g text-rendering="geometricPrecision" stroke-miterlimit="1.45" shape-rendering="geometricPrecision" transform="matrix(0.8,0,0,0.8,7.2,1.6)" stroke-linecap="butt">
      <rect fill="none" x="336" width="18" height="18" y="381" clip-path="url(#clipPath2)"/>
      <text x="342.7852" font-size="14px" y="395.291" clip-path="url(#clipPath2)" font-family="sans-serif" stroke="none" xml:space="preserve"> </text>
    </g>
    <g fill="rgb(219,235,219)" text-rendering="geometricPrecision" shape-rendering="geometricPrecision" transform="matrix(0.8,0,0,0.8,7.2,1.6)" stroke="rgb(219,235,219)">
      <rect x="380" y="325" clip-path="url(#clipPath2)" width="60" rx="15" ry="15" height="30" stroke="none"/>
    </g>
    <g text-rendering="geometricPrecision" stroke-miterlimit="1.45" shape-rendering="geometricPrecision" transform="matrix(0.8,0,0,0.8,7.2,1.6)" stroke-linecap="butt">
      <rect x="380" y="325" clip-path="url(#clipPath2)" fill="none" width="60" rx="15" ry="15" height="30"/>
      <text x="396.0581" font-size="14px" y="345.291" clip-path="url(#clipPath2)" font-family="sans-serif" stroke="none" xml:space="preserve">ADP</text>
    </g>
    <g text-rendering="geometricPrecision" stroke-miterlimit="1.45" shape-rendering="geometricPrecision" transform="matrix(0.8,0,0,0.8,7.2,1.6)" stroke-linecap="butt">
      <path fill="none" d="M345 148.0073 L345 187 L345 195.9648" clip-path="url(#clipPath2)"/>
    </g>
    <g text-rendering="geometricPrecision" stroke-miterlimit="1.45" shape-rendering="geometricPrecision" transform="matrix(0.8,0,0,0.8,7.2,1.6)" stroke-linecap="butt">
      <path fill="none" d="M195.0317 205 L336.0297 205" clip-path="url(#clipPath2)"/>
      <path fill="white" d="M0 0 L-16 -6 L-16 6 Z" clip-path="url(#clipPath7)" transform="matrix(1,0,0,1,336.0297,205)" stroke="none"/>
      <path fill="none" d="M0 0 L-16 -6 L-16 6 Z" clip-path="url(#clipPath7)" transform="matrix(1,0,0,1,336.0297,205)"/>
      <line transform="matrix(1,0,0,1,336.0297,205)" clip-path="url(#clipPath7)" fill="none" x1="-21" x2="-21" y1="-8" y2="8"/>
    </g>
    <g text-rendering="geometricPrecision" stroke-miterlimit="1.45" shape-rendering="geometricPrecision" transform="matrix(0.8,0,0,0.8,7.2,1.6)" stroke-linecap="butt">
      <path fill="none" d="M155 53.0073 L155 92 L155 100.9648" clip-path="url(#clipPath2)"/>
      <path fill="none" d="M219.9841 110 L163.9797 110" clip-path="url(#clipPath2)"/>
      <path fill="white" d="M0 0 L-16 -6 L-16 6 Z" clip-path="url(#clipPath8)" transform="matrix(-1,0,0,-1,163.9797,110)" stroke="none"/>
      <path fill="none" d="M0 0 L-16 -6 L-16 6 Z" clip-path="url(#clipPath8)" transform="matrix(-1,0,0,-1,163.9797,110)"/>
      <line transform="matrix(-1,0,0,-1,163.9797,110)" clip-path="url(#clipPath8)" fill="none" x1="-21" x2="-21" y1="-8" y2="8"/>
    </g>
    <g text-rendering="geometricPrecision" stroke-miterlimit="1.45" shape-rendering="geometricPrecision" transform="matrix(0.8,0,0,0.8,7.2,1.6)" stroke-linecap="butt">
      <path fill="none" d="M90.0159 110 L131.0203 110" clip-path="url(#clipPath2)"/>
      <path fill="white" d="M146.0203 110 L130.0203 104 L130.0203 116 Z" clip-path="url(#clipPath2)" stroke="none"/>
      <path fill="none" d="M146.0203 110 L130.0203 104 L130.0203 116 Z" clip-path="url(#clipPath2)"/>
      <path fill="none" d="M155 118.9648 L155 128 L155 165.0745" clip-path="url(#clipPath2)"/>
      <path d="M155 176.0745 L161 164.0745 L149 164.0745 Z" clip-path="url(#clipPath2)" stroke="none"/>
      <path fill="none" d="M345 213.9648 L345 223 L345 253.9893" clip-path="url(#clipPath2)"/>
      <path d="M345 264.9893 L351 252.9893 L339 252.9893 Z" clip-path="url(#clipPath2)" stroke="none"/>
      <path fill="none" d="M439.9868 475 L482 475 L490.9648 475" clip-path="url(#clipPath2)"/>
      <path fill="none" d="M446.2681 532.019 L482 475 L490.9648 475" clip-path="url(#clipPath2)"/>
      <path fill="none" d="M500 419.7999 L500 458.0246" clip-path="url(#clipPath2)"/>
      <path fill="white" d="M500 466.0246 C497.7909 466.0246 496 464.2337 496 462.0246 C496 459.8155 497.7909 458.0246 500 458.0246 C502.2091 458.0246 504 459.8155 504 462.0246 C504 464.2337 502.2091 466.0246 500 466.0246 Z" clip-path="url(#clipPath2)" stroke="none"/>
      <path fill="none" d="M500 466.0246 C497.7909 466.0246 496 464.2337 496 462.0246 C496 459.8155 497.7909 458.0246 500 458.0246 C502.2091 458.0246 504 459.8155 504 462.0246 C504 464.2337 502.2091 466.0246 500 466.0246 Z" clip-path="url(#clipPath2)"/>
      <path fill="none" d="M508.9648 475 L518 475 L568.99 475" clip-path="url(#clipPath2)"/>
      <path d="M579.99 475 L567.99 469 L567.99 481 Z" clip-path="url(#clipPath2)" stroke="none"/>
      <path fill="none" d="M508.9531 475 L524 475 L518 475 L558.3088 523.7606" clip-path="url(#clipPath2)"/>
      <path d="M565.3174 532.2388 L562.2961 519.167 L553.0472 526.8127 Z" clip-path="url(#clipPath2)" stroke="none"/>
      <path fill="none" d="M255.0039 390 L327 390 L335.9648 390" clip-path="url(#clipPath2)"/>
      <path fill="none" d="M345 305.0208 L345 365.9958" clip-path="url(#clipPath2)"/>
      <path fill="white" d="M345 380.9958 L351 364.9958 L339 364.9958 Z" clip-path="url(#clipPath2)" stroke="none"/>
      <path fill="none" d="M345 380.9958 L351 364.9958 L339 364.9958 Z" clip-path="url(#clipPath2)"/>
      <path fill="none" d="M297.6123 355.0146 L327 390 L335.9648 390" clip-path="url(#clipPath2)"/>
      <path fill="none" d="M353.9648 390 L363 390 L449.0305 390" clip-path="url(#clipPath2)"/>
      <path d="M460.0305 390 L448.0305 384 L448.0305 396 Z" clip-path="url(#clipPath2)" stroke="none"/>
      <path fill="none" d="M353.9648 390 L363 390 L388.3522 363.0295" clip-path="url(#clipPath2)"/>
      <path d="M395.8862 355.0146 L383.2955 359.6487 L392.0391 367.8676 Z" clip-path="url(#clipPath2)" stroke="none"/>
    </g>
  </g>
</svg>
