<?xml version="1.0" encoding="UTF-8"?><svg xmlns="http://www.w3.org/2000/svg" xmlns:xlink="http://www.w3.org/1999/xlink" fill-opacity="1" color-rendering="auto" color-interpolation="auto" text-rendering="auto" stroke="black" stroke-linecap="square" width="373" stroke-miterlimit="10" shape-rendering="auto" stroke-opacity="1" fill="black" stroke-dasharray="none" font-weight="normal" stroke-width="1" height="330" font-family="'Dialog'" font-style="normal" stroke-linejoin="miter" font-size="12px" stroke-dashoffset="0" image-rendering="auto">
  <!--Generated by ySVG 2.5-->
  <defs id="genericDefs"/>
  <g>
    <defs id="defs1">
      <clipPath clipPathUnits="userSpaceOnUse" id="clipPath1">
        <path d="M0 0 L373 0 L373 330 L0 330 L0 0 Z"/>
      </clipPath>
      <clipPath clipPathUnits="userSpaceOnUse" id="clipPath2">
        <path d="M156 6 L622.25 6 L622.25 418.5 L156 418.5 L156 6 Z"/>
      </clipPath>
      <clipPath clipPathUnits="userSpaceOnUse" id="clipPath3">
        <path d="M-195 -50.4579 L271.25 -50.4579 L271.25 362.0421 L-195 362.0421 L-195 -50.4579 Z"/>
      </clipPath>
      <clipPath clipPathUnits="userSpaceOnUse" id="clipPath4">
        <path d="M-195 -205 L271.25 -205 L271.25 207.5 L-195 207.5 L-195 -205 Z"/>
      </clipPath>
    </defs>
    <g fill="white" text-rendering="geometricPrecision" shape-rendering="geometricPrecision" transform="scale(0.8,0.8) translate(-156,-6)" stroke="white">
      <rect x="156" width="467" height="413" y="6" clip-path="url(#clipPath2)" stroke="none"/>
    </g>
    <g fill="rgb(226,172,163)" text-rendering="geometricPrecision" shape-rendering="geometricPrecision" transform="matrix(0.8,0,0,0.8,-124.8,-4.8)" stroke="rgb(226,172,163)">
      <path d="M335 35.4579 Q335 25.4579 345 25.4579 L405 25.4579 Q415 25.4579 415 35.4579 L415 55.4579 Q415 65.4579 405 65.4579 L345 65.4579 Q335 65.4579 335 55.4579 Z" stroke="none" clip-path="url(#clipPath2)"/>
    </g>
    <g text-rendering="geometricPrecision" stroke-miterlimit="1.45" shape-rendering="geometricPrecision" transform="matrix(0.8,0,0,0.8,-124.8,-4.8)" stroke-linecap="butt">
      <path fill="none" d="M335 35.4579 Q335 25.4579 345 25.4579 L405 25.4579 Q415 25.4579 415 35.4579 L415 55.4579 Q415 65.4579 405 65.4579 L345 65.4579 Q335 65.4579 335 55.4579 Z" clip-path="url(#clipPath2)"/>
      <text x="360.084" font-size="14px" y="50.7489" clip-path="url(#clipPath2)" font-family="sans-serif" stroke="none" xml:space="preserve">CAD</text>
    </g>
    <g fill="white" text-rendering="geometricPrecision" shape-rendering="geometricPrecision" transform="matrix(0.8,0,0,0.8,-124.8,-4.8) translate(351,56.4579)" stroke="white">
      <rect x="0" y="0" clip-path="url(#clipPath3)" width="48" rx="9" ry="9" height="18" stroke="none"/>
    </g>
    <g text-rendering="geometricPrecision" stroke-miterlimit="1.45" shape-rendering="geometricPrecision" transform="matrix(0.8,0,0,0.8,-124.8,-4.8) translate(351,56.4579)" stroke-linecap="butt">
      <rect x="0" y="0" clip-path="url(#clipPath3)" fill="none" width="48" rx="9" ry="9" height="18"/>
      <text x="5.4795" font-size="10px" y="12.7793" clip-path="url(#clipPath3)" font-family="sans-serif" stroke="none" xml:space="preserve"> @T456</text>
    </g>
    <g fill="rgb(226,172,163)" text-rendering="geometricPrecision" shape-rendering="geometricPrecision" transform="matrix(0.8,0,0,0.8,-124.8,-4.8)" stroke="rgb(226,172,163)">
      <path d="M335 190 Q335 180 345 180 L405 180 Q415 180 415 190 L415 210 Q415 220 405 220 L345 220 Q335 220 335 210 Z" stroke="none" clip-path="url(#clipPath2)"/>
    </g>
    <g text-rendering="geometricPrecision" stroke-miterlimit="1.45" shape-rendering="geometricPrecision" transform="matrix(0.8,0,0,0.8,-124.8,-4.8)" stroke-linecap="butt">
      <path fill="none" d="M335 190 Q335 180 345 180 L405 180 Q415 180 415 190 L415 210 Q415 220 405 220 L345 220 Q335 220 335 210 Z" clip-path="url(#clipPath2)"/>
      <text x="360.084" font-size="14px" y="205.291" clip-path="url(#clipPath2)" font-family="sans-serif" stroke="none" xml:space="preserve">CAD</text>
    </g>
    <g fill="white" text-rendering="geometricPrecision" shape-rendering="geometricPrecision" transform="matrix(0.8,0,0,0.8,-124.8,-4.8) translate(351,211)" stroke="white">
      <rect x="0" y="0" clip-path="url(#clipPath4)" width="48" rx="9" ry="9" height="18" stroke="none"/>
    </g>
    <g text-rendering="geometricPrecision" stroke-miterlimit="1.45" shape-rendering="geometricPrecision" transform="matrix(0.8,0,0,0.8,-124.8,-4.8) translate(351,211)" stroke-linecap="butt">
      <rect x="0" y="0" clip-path="url(#clipPath4)" fill="none" width="48" rx="9" ry="9" height="18"/>
      <text x="4.2979" font-size="10px" y="12.7793" clip-path="url(#clipPath4)" font-family="sans-serif" stroke="none" xml:space="preserve">P@T456</text>
    </g>
    <g fill="rgb(200,216,235)" text-rendering="geometricPrecision" shape-rendering="geometricPrecision" transform="matrix(0.8,0,0,0.8,-124.8,-4.8)" stroke="rgb(200,216,235)">
      <path d="M185 110 Q185 100 195 100 L255 100 Q265 100 265 110 L265 130 Q265 140 255 140 L195 140 Q185 140 185 130 Z" stroke="none" clip-path="url(#clipPath2)"/>
    </g>
    <g text-rendering="geometricPrecision" stroke-miterlimit="1.45" shape-rendering="geometricPrecision" transform="matrix(0.8,0,0,0.8,-124.8,-4.8)" stroke-linecap="butt">
      <path fill="none" d="M185 110 Q185 100 195 100 L255 100 Q265 100 265 110 L265 130 Q265 140 255 140 L195 140 Q185 140 185 130 Z" clip-path="url(#clipPath2)"/>
      <text x="199.6865" font-size="14px" y="125.291" clip-path="url(#clipPath2)" font-family="sans-serif" stroke="none" xml:space="preserve">ERK1/2</text>
    </g>
    <g fill="rgb(219,235,219)" text-rendering="geometricPrecision" shape-rendering="geometricPrecision" transform="matrix(0.8,0,0,0.8,-124.8,-4.8)" stroke="rgb(219,235,219)">
      <rect x="276" y="270" clip-path="url(#clipPath2)" width="60" rx="15" ry="15" height="30" stroke="none"/>
    </g>
    <g text-rendering="geometricPrecision" stroke-miterlimit="1.45" shape-rendering="geometricPrecision" transform="matrix(0.8,0,0,0.8,-124.8,-4.8)" stroke-linecap="butt">
      <rect x="276" y="270" clip-path="url(#clipPath2)" fill="none" width="60" rx="15" ry="15" height="30"/>
      <text x="292.875" font-size="14px" y="290.291" clip-path="url(#clipPath2)" font-family="sans-serif" stroke="none" xml:space="preserve">ATP</text>
    </g>
    <g fill="rgb(219,235,219)" text-rendering="geometricPrecision" shape-rendering="geometricPrecision" transform="matrix(0.8,0,0,0.8,-124.8,-4.8)" stroke="rgb(219,235,219)">
      <rect x="175" y="320" clip-path="url(#clipPath2)" width="100" rx="15" ry="15" height="30" stroke="none"/>
    </g>
    <g text-rendering="geometricPrecision" stroke-miterlimit="1.45" shape-rendering="geometricPrecision" transform="matrix(0.8,0,0,0.8,-124.8,-4.8)" stroke-linecap="butt">
      <rect x="175" y="320" clip-path="url(#clipPath2)" fill="none" width="100" rx="15" ry="15" height="30"/>
      <text x="190.981" font-size="14px" y="340.291" clip-path="url(#clipPath2)" font-family="sans-serif" stroke="none" xml:space="preserve">glutamine</text>
    </g>
    <g fill="rgb(219,235,219)" text-rendering="geometricPrecision" shape-rendering="geometricPrecision" transform="matrix(0.8,0,0,0.8,-124.8,-4.8)" stroke="rgb(219,235,219)">
      <rect x="276" y="370" clip-path="url(#clipPath2)" width="60" rx="15" ry="15" height="30" stroke="none"/>
    </g>
    <g text-rendering="geometricPrecision" stroke-miterlimit="1.45" shape-rendering="geometricPrecision" transform="matrix(0.8,0,0,0.8,-124.8,-4.8)" stroke-linecap="butt">
      <rect x="276" y="370" clip-path="url(#clipPath2)" fill="none" width="60" rx="15" ry="15" height="30"/>
      <text x="282.0981" font-size="14px" y="390.291" clip-path="url(#clipPath2)" font-family="sans-serif" stroke="none" xml:space="preserve">HCO3-</text>
    </g>
    <g fill="rgb(219,235,219)" text-rendering="geometricPrecision" shape-rendering="geometricPrecision" transform="matrix(0.8,0,0,0.8,-124.8,-4.8)" stroke="rgb(219,235,219)">
      <rect x="415" y="270" clip-path="url(#clipPath2)" width="60" rx="15" ry="15" height="30" stroke="none"/>
    </g>
    <g text-rendering="geometricPrecision" stroke-miterlimit="1.45" shape-rendering="geometricPrecision" transform="matrix(0.8,0,0,0.8,-124.8,-4.8)" stroke-linecap="butt">
      <rect x="415" y="270" clip-path="url(#clipPath2)" fill="none" width="60" rx="15" ry="15" height="30"/>
      <text x="431.0581" font-size="14px" y="290.291" clip-path="url(#clipPath2)" font-family="sans-serif" stroke="none" xml:space="preserve">ADP</text>
    </g>
    <g fill="rgb(219,235,219)" text-rendering="geometricPrecision" shape-rendering="geometricPrecision" transform="matrix(0.8,0,0,0.8,-124.8,-4.8)" stroke="rgb(219,235,219)">
      <rect x="504" y="270" clip-path="url(#clipPath2)" width="60" rx="15" ry="15" height="30" stroke="none"/>
    </g>
    <g text-rendering="geometricPrecision" stroke-miterlimit="1.45" shape-rendering="geometricPrecision" transform="matrix(0.8,0,0,0.8,-124.8,-4.8)" stroke-linecap="butt">
      <rect x="504" y="270" clip-path="url(#clipPath2)" fill="none" width="60" rx="15" ry="15" height="30"/>
      <text x="528.1074" font-size="14px" y="290.291" clip-path="url(#clipPath2)" font-family="sans-serif" stroke="none" xml:space="preserve">Pi</text>
    </g>
    <g fill="rgb(219,235,219)" text-rendering="geometricPrecision" shape-rendering="geometricPrecision" transform="matrix(0.8,0,0,0.8,-124.8,-4.8)" stroke="rgb(219,235,219)">
      <rect x="409.1602" y="370" clip-path="url(#clipPath2)" width="100" rx="15" ry="15" height="30" stroke="none"/>
    </g>
    <g text-rendering="geometricPrecision" stroke-miterlimit="1.45" shape-rendering="geometricPrecision" transform="matrix(0.8,0,0,0.8,-124.8,-4.8)" stroke-linecap="butt">
      <rect x="409.1602" y="370" clip-path="url(#clipPath2)" fill="none" width="100" rx="15" ry="15" height="30"/>
      <text x="425.0249" font-size="14px" y="390.291" clip-path="url(#clipPath2)" font-family="sans-serif" stroke="none" xml:space="preserve">glutamate</text>
    </g>
    <g fill="white" text-rendering="geometricPrecision" shape-rendering="geometricPrecision" transform="matrix(0.8,0,0,0.8,-124.8,-4.8)" stroke="white">
      <rect x="366" width="18" height="18" y="326" clip-path="url(#clipPath2)" stroke="none"/>
    </g>
    <g text-rendering="geometricPrecision" stroke-miterlimit="1.45" shape-rendering="geometricPrecision" transform="matrix(0.8,0,0,0.8,-124.8,-4.8)" stroke-linecap="butt">
      <rect fill="none" x="366" width="18" height="18" y="326" clip-path="url(#clipPath2)"/>
      <text x="372.7852" font-size="14px" y="340.291" clip-path="url(#clipPath2)" font-family="sans-serif" stroke="none" xml:space="preserve"> </text>
    </g>
    <g fill="rgb(219,235,219)" text-rendering="geometricPrecision" shape-rendering="geometricPrecision" transform="matrix(0.8,0,0,0.8,-124.8,-4.8)" stroke="rgb(219,235,219)">
      <rect x="504" y="320" clip-path="url(#clipPath2)" width="100" rx="15" ry="15" height="30" stroke="none"/>
    </g>
    <g text-rendering="geometricPrecision" stroke-miterlimit="1.45" shape-rendering="geometricPrecision" transform="matrix(0.8,0,0,0.8,-124.8,-4.8)" stroke-linecap="butt">
      <rect x="504" y="320" clip-path="url(#clipPath2)" fill="none" width="100" rx="15" ry="15" height="30"/>
      <text x="510.978" font-size="14px" y="340.291" clip-path="url(#clipPath2)" font-family="sans-serif" stroke="none" xml:space="preserve">carbamoyl-P</text>
    </g>
    <g fill="rgb(219,235,219)" text-rendering="geometricPrecision" shape-rendering="geometricPrecision" transform="matrix(0.8,0,0,0.8,-124.8,-4.8)" stroke="rgb(219,235,219)">
      <rect x="415" y="150" clip-path="url(#clipPath2)" width="60" rx="15" ry="15" height="30" stroke="none"/>
    </g>
    <g text-rendering="geometricPrecision" stroke-miterlimit="1.45" shape-rendering="geometricPrecision" transform="matrix(0.8,0,0,0.8,-124.8,-4.8)" stroke-linecap="butt">
      <rect x="415" y="150" clip-path="url(#clipPath2)" fill="none" width="60" rx="15" ry="15" height="30"/>
      <text x="431.0581" font-size="14px" y="170.291" clip-path="url(#clipPath2)" font-family="sans-serif" stroke="none" xml:space="preserve">ADP</text>
    </g>
    <g fill="rgb(219,235,219)" text-rendering="geometricPrecision" shape-rendering="geometricPrecision" transform="matrix(0.8,0,0,0.8,-124.8,-4.8)" stroke="rgb(219,235,219)">
      <rect x="414" y="65.4579" clip-path="url(#clipPath2)" width="60" rx="15" ry="15" height="30" stroke="none"/>
    </g>
    <g text-rendering="geometricPrecision" stroke-miterlimit="1.45" shape-rendering="geometricPrecision" transform="matrix(0.8,0,0,0.8,-124.8,-4.8)" stroke-linecap="butt">
      <rect x="414" y="65.4579" clip-path="url(#clipPath2)" fill="none" width="60" rx="15" ry="15" height="30"/>
      <text x="430.875" font-size="14px" y="85.7489" clip-path="url(#clipPath2)" font-family="sans-serif" stroke="none" xml:space="preserve">ATP</text>
    </g>
    <g fill="white" text-rendering="geometricPrecision" shape-rendering="geometricPrecision" transform="matrix(0.8,0,0,0.8,-124.8,-4.8)" stroke="white">
      <rect x="366" width="18" height="18" y="111" clip-path="url(#clipPath2)" stroke="none"/>
    </g>
    <g text-rendering="geometricPrecision" stroke-miterlimit="1.45" shape-rendering="geometricPrecision" transform="matrix(0.8,0,0,0.8,-124.8,-4.8)" stroke-linecap="butt">
      <rect fill="none" x="366" width="18" height="18" y="111" clip-path="url(#clipPath2)"/>
      <text x="372.7852" font-size="14px" y="125.291" clip-path="url(#clipPath2)" font-family="sans-serif" stroke="none" xml:space="preserve"> </text>
    </g>
    <g text-rendering="geometricPrecision" stroke-miterlimit="1.45" shape-rendering="geometricPrecision" transform="matrix(0.8,0,0,0.8,-124.8,-4.8)" stroke-linecap="butt">
      <path fill="none" d="M375 228.9105 L375 314.5301" clip-path="url(#clipPath2)"/>
    </g>
    <g stroke-linecap="butt" transform="matrix(0.8,0,0,0.8,-124.8,-4.8)" fill="white" text-rendering="geometricPrecision" shape-rendering="geometricPrecision" stroke="white" stroke-miterlimit="1.45">
      <path d="M375 322.5301 C372.7909 322.5301 371 320.7392 371 318.5301 C371 316.321 372.7909 314.5301 375 314.5301 C377.2091 314.5301 379 316.321 379 318.5301 C379 320.7392 377.2091 322.5301 375 322.5301 Z" stroke="none" clip-path="url(#clipPath2)"/>
      <path fill="none" d="M375 322.5301 C372.7909 322.5301 371 320.7392 371 318.5301 C371 316.321 372.7909 314.5301 375 314.5301 C377.2091 314.5301 379 316.321 379 318.5301 C379 320.7392 377.2091 322.5301 375 322.5301 Z" clip-path="url(#clipPath2)" stroke="black"/>
      <path fill="none" d="M321.3149 300.0146 L357 335 L365.9648 335" clip-path="url(#clipPath2)" stroke="black"/>
      <path fill="none" d="M274.9834 335 L357 335 L365.9648 335" clip-path="url(#clipPath2)" stroke="black"/>
      <path fill="none" d="M321.3149 369.9854 L357 335 L365.9648 335" clip-path="url(#clipPath2)" stroke="black"/>
      <path fill="none" d="M383.9648 335 L393 335 L415.5486 306.5315" clip-path="url(#clipPath2)" stroke="black"/>
      <path fill="black" d="M422.3784 297.9086 L410.2243 303.5901 L419.631 311.0407 Z" clip-path="url(#clipPath2)" stroke="none"/>
      <path fill="none" d="M383.9648 335 L393 335 L496.9541 298.1368" clip-path="url(#clipPath2)" stroke="black"/>
      <path fill="black" d="M507.3215 294.4604 L494.0063 292.8161 L498.0169 304.126 Z" clip-path="url(#clipPath2)" stroke="none"/>
      <path fill="none" d="M383.9648 335 L393 335 L418.7564 362.0238" clip-path="url(#clipPath2)" stroke="black"/>
      <path fill="black" d="M426.3456 369.9864 L422.4098 357.1603 L413.7232 365.4395 Z" clip-path="url(#clipPath2)" stroke="none"/>
      <path fill="none" d="M383.9648 335 L393 335 L492.9626 335" clip-path="url(#clipPath2)" stroke="black"/>
      <path fill="black" d="M503.9626 335 L491.9626 329 L491.9626 341 Z" clip-path="url(#clipPath2)" stroke="none"/>
      <path fill="none" d="M375 73.9485 L375 102 L375 110.9648" clip-path="url(#clipPath2)" stroke="black"/>
      <path fill="none" d="M264.974 120 L354.4756 120" clip-path="url(#clipPath2)" stroke="black"/>
      <path d="M362.4756 120 C362.4756 122.2091 360.6847 124 358.4756 124 C356.2664 124 354.4756 122.2091 354.4756 120 C354.4756 117.7909 356.2664 116 358.4756 116 C360.6847 116 362.4756 117.7909 362.4756 120 Z" clip-path="url(#clipPath2)" stroke="none"/>
      <path fill="none" d="M362.4756 120 C362.4756 122.2091 360.6847 124 358.4756 124 C356.2664 124 354.4756 122.2091 354.4756 120 C354.4756 117.7909 356.2664 116 358.4756 116 C360.6847 116 362.4756 117.7909 362.4756 120 Z" clip-path="url(#clipPath2)" stroke="black"/>
      <path fill="none" d="M416.6763 88.9885 L375 102 L375 110.9648" clip-path="url(#clipPath2)" stroke="black"/>
      <path fill="none" d="M375 128.9648 L375 138 L375 168.9893" clip-path="url(#clipPath2)" stroke="black"/>
      <path fill="black" d="M375 179.9893 L381 167.9893 L369 167.9893 Z" clip-path="url(#clipPath2)" stroke="none"/>
      <path fill="none" d="M375 128.9648 L375 138 L408.5895 150.956" clip-path="url(#clipPath2)" stroke="black"/>
      <path fill="black" d="M418.8525 154.9146 L409.8157 144.9981 L405.4973 156.1941 Z" clip-path="url(#clipPath2)" stroke="none"/>
    </g>
  </g>
</svg>
