<?xml version="1.0" encoding="UTF-8"?><svg xmlns="http://www.w3.org/2000/svg" xmlns:xlink="http://www.w3.org/1999/xlink" fill-opacity="1" color-rendering="auto" color-interpolation="auto" text-rendering="auto" stroke="black" stroke-linecap="square" width="754" stroke-miterlimit="10" shape-rendering="auto" stroke-opacity="1" fill="black" stroke-dasharray="none" font-weight="normal" stroke-width="1" height="298" font-family="'Dialog'" font-style="normal" stroke-linejoin="miter" font-size="12px" stroke-dashoffset="0" image-rendering="auto">
  <!--Generated by ySVG 2.5-->
  <defs id="genericDefs"/>
  <g>
    <defs id="defs1">
      <clipPath clipPathUnits="userSpaceOnUse" id="clipPath1">
        <path d="M0 0 L754 0 L754 298 L0 298 L0 0 Z"/>
      </clipPath>
      <clipPath clipPathUnits="userSpaceOnUse" id="clipPath2">
        <path d="M311 -317 L1065 -317 L1065 -19 L311 -19 L311 -317 Z"/>
      </clipPath>
      <clipPath clipPathUnits="userSpaceOnUse" id="clipPath3">
        <path d="M0 0 L0 18 L128 18 L128 0 Z"/>
      </clipPath>
      <script type="text/ecmascript"><![CDATA[      var SVGDocument = null;
      var SVGRoot = null;
      var TrueCoords = null;
      var lastElement = null;
      var initialized = null;
      var tipGroup;
      function Init(evt)
      {
         SVGDocument = evt.target.ownerDocument;
         SVGRoot = SVGDocument.documentElement;
         TrueCoords = SVGRoot.createSVGPoint();
         initialized = evt;
      };
      function GetTrueCoords(evt)
      {
         var newScale = SVGRoot.currentScale;
         var translation = SVGRoot.currentTranslate;
         TrueCoords.x = (evt.clientX - translation.x)/newScale;
         TrueCoords.y = (evt.clientY - translation.y)/newScale;
      };
      function HideTooltip( evt )
      {
         if(initialized == null) {
           Init(evt);
         }
         if(tipGroup != null) {
           tipGroup.setAttributeNS(null, 'visibility', 'hidden');
         }
      };
      function ShowTooltip( evt )
      {
         if(initialized == null) {
           Init(evt);
         }
         GetTrueCoords( evt );
         var tipScale = 1/SVGRoot.currentScale;
         var targetElement = evt.currentTarget;
         if ( lastElement != targetElement )
         {
            var targetId = targetElement.getAttributeNS(null, 'id');
            var tipId = 'tooltip.' + targetId;
            tipGroup = SVGDocument.getElementById(tipId);
            var xPos = TrueCoords.x + (10 * tipScale);
            var yPos = TrueCoords.y + (10 * tipScale);
            tipGroup.setAttributeNS(null, 'transform', 'translate(' + xPos + ',' + yPos + ') scale(' + tipScale + ')');
            tipGroup.setAttributeNS(null, 'visibility', 'visible');
         }
      };
]]></script>
    </defs>
    <g fill="white" text-rendering="geometricPrecision" shape-rendering="geometricPrecision" transform="translate(-311,317)" stroke="white">
      <rect x="311" width="754" height="298" y="-317" clip-path="url(#clipPath2)" stroke="none"/>
    </g>
    <g id="y.node.0">
      <a target="_blank" xlink:type="simple" xlink:href="http://www.uniprot.org/uniprot/P35354" xlink:show="new">
        <g fill="rgb(92,143,204)" text-rendering="geometricPrecision" shape-rendering="geometricPrecision" transform="matrix(1,0,0,1,-311,317)" stroke="rgb(92,143,204)">
          <path d="M581.1144 -252.8041 Q571.1144 -252.8041 571.1144 -242.8041 L571.1144 -222.8041 Q571.1144 -214.8041 577.5144 -213.2041 L577.5144 -213.2041 Q579.1144 -206.8041 587.1144 -206.8041 L647.1144 -206.8041 Q657.1144 -206.8041 657.1144 -216.8041 L657.1144 -236.8041 Q657.1144 -244.8041 650.7144 -246.4041 L650.7144 -246.4041 Q649.1144 -252.8041 641.1144 -252.8041 Z" stroke="none"/>
        </g>
        <g text-rendering="geometricPrecision" stroke-miterlimit="1.45" shape-rendering="geometricPrecision" transform="matrix(1,0,0,1,-311,317)" stroke-linecap="butt">
          <path fill="none" d="M650.7144 -246.4041 Q651.1144 -244.8041 651.1144 -242.8041 L651.1144 -222.8041 Q651.1144 -212.8041 641.1144 -212.8041 L581.1144 -212.8041 Q579.1144 -212.8041 577.5144 -213.2041 L577.5144 -213.2041 Q579.1144 -206.8041 587.1144 -206.8041 L647.1144 -206.8041 Q657.1144 -206.8041 657.1144 -216.8041 L657.1144 -236.8041 Q657.1144 -244.8041 650.7144 -246.4041 Z"/>
          <path fill="none" d="M581.1144 -252.8041 Q571.1144 -252.8041 571.1144 -242.8041 L571.1144 -222.8041 Q571.1144 -212.8041 581.1144 -212.8041 L641.1144 -212.8041 Q651.1144 -212.8041 651.1144 -222.8041 L651.1144 -242.8041 Q651.1144 -252.8041 641.1144 -252.8041 Z"/>
        </g>
        <g>
          <g stroke-linecap="butt" font-size="14px" transform="matrix(1,0,0,1,-311,317)" fill="white" text-rendering="geometricPrecision" font-family="'Arial'" shape-rendering="geometricPrecision" stroke="white" font-weight="bold" stroke-miterlimit="1.45">
            <text x="589.7214" xml:space="preserve" y="-227.9506" stroke="none">COX-2</text>
          </g>
        </g>
        <g>
          <g fill="white" text-rendering="geometricPrecision" shape-rendering="geometricPrecision" transform="matrix(1,0,0,1,-311,317)" stroke="white">
            <rect x="598.6769" width="24.875" height="15.7773" y="-260.6927" stroke="none"/>
            <rect x="598.6769" y="-260.6927" fill="none" width="24.875" height="15.7773" stroke="black" stroke-miterlimit="1.6"/>
          </g>
          <g font-size="10px" stroke-linecap="butt" transform="matrix(1,0,0,1,-311,317)" text-rendering="geometricPrecision" font-family="sans-serif" shape-rendering="geometricPrecision" stroke-miterlimit="1.45">
            <text x="602.6769" xml:space="preserve" y="-249.0248" stroke="none">N:2</text>
          </g>
        </g>
        <g>
          <g fill="white" text-rendering="geometricPrecision" shape-rendering="geometricPrecision" transform="matrix(1,0,0,1,-311,317) translate(585.1144,-221.9459)" stroke="white">
            <rect x="0" y="0" width="51.7937" rx="9.009" ry="9.009" height="18.018" stroke="none"/>
          </g>
          <g text-rendering="geometricPrecision" stroke-miterlimit="1.45" shape-rendering="geometricPrecision" transform="matrix(1,0,0,1,-311,317) translate(585.1144,-221.9459)" stroke-linecap="butt">
            <rect x="0" y="0" fill="none" width="51.7937" rx="9.009" ry="9.009" height="18.018"/>
            <text x="6.2631" xml:space="preserve" font-size="10px" y="12.7883" font-family="sans-serif" stroke="none">  @S516</text>
          </g>
        </g>
      </a>
    </g>
    <g id="y.node.1">
      <g fill="rgb(200,216,235)" text-rendering="geometricPrecision" shape-rendering="geometricPrecision" transform="matrix(1,0,0,1,-311,317)" stroke="rgb(200,216,235)">
        <rect x="326.4088" y="-301.5756" width="100" rx="18" ry="18" height="36" stroke="none"/>
      </g>
      <g text-rendering="geometricPrecision" stroke-miterlimit="1.45" shape-rendering="geometricPrecision" transform="matrix(1,0,0,1,-311,317)" stroke-linecap="butt">
        <rect x="326.4088" y="-301.5756" fill="none" width="100" rx="18" ry="18" height="36"/>
      </g>
      <g>
        <g font-size="14px" stroke-linecap="butt" transform="matrix(1,0,0,1,-311,317)" text-rendering="geometricPrecision" font-family="'Arial'" shape-rendering="geometricPrecision" stroke-miterlimit="1.45">
          <text x="335.9332" xml:space="preserve" y="-278.722" stroke="none">arachidonate</text>
        </g>
      </g>
    </g>
    <g onmouseout="HideTooltip(evt)" id="y.node.2" onmousemove="ShowTooltip(evt)">
      <a target="_blank" xlink:type="simple" xlink:href="http://www.uniprot.org/uniprot/P35354" xlink:show="new">
        <g fill="rgb(92,143,204)" text-rendering="geometricPrecision" shape-rendering="geometricPrecision" transform="matrix(1,0,0,1,-311,317)" stroke="rgb(92,143,204)">
          <path d="M770.1766 -252.8041 Q760.1766 -252.8041 760.1766 -242.8041 L760.1766 -222.8041 Q760.1766 -214.8041 766.5766 -213.2041 L766.5766 -213.2041 Q768.1766 -206.8041 776.1766 -206.8041 L836.1766 -206.8041 Q846.1766 -206.8041 846.1766 -216.8041 L846.1766 -236.8041 Q846.1766 -244.8041 839.7766 -246.4041 L839.7766 -246.4041 Q838.1766 -252.8041 830.1766 -252.8041 Z" stroke="none"/>
        </g>
        <g text-rendering="geometricPrecision" stroke-miterlimit="1.45" shape-rendering="geometricPrecision" transform="matrix(1,0,0,1,-311,317)" stroke-linecap="butt">
          <path fill="none" d="M839.7766 -246.4041 Q840.1766 -244.8041 840.1766 -242.8041 L840.1766 -222.8041 Q840.1766 -212.8041 830.1766 -212.8041 L770.1766 -212.8041 Q768.1766 -212.8041 766.5766 -213.2041 L766.5766 -213.2041 Q768.1766 -206.8041 776.1766 -206.8041 L836.1766 -206.8041 Q846.1766 -206.8041 846.1766 -216.8041 L846.1766 -236.8041 Q846.1766 -244.8041 839.7766 -246.4041 Z"/>
          <path fill="none" d="M770.1766 -252.8041 Q760.1766 -252.8041 760.1766 -242.8041 L760.1766 -222.8041 Q760.1766 -212.8041 770.1766 -212.8041 L830.1766 -212.8041 Q840.1766 -212.8041 840.1766 -222.8041 L840.1766 -242.8041 Q840.1766 -252.8041 830.1766 -252.8041 Z"/>
        </g>
        <g>
          <g stroke-linecap="butt" font-size="14px" transform="matrix(1,0,0,1,-311,317)" fill="white" text-rendering="geometricPrecision" font-family="'Arial'" shape-rendering="geometricPrecision" stroke="white" font-weight="bold" stroke-miterlimit="1.45">
            <text x="778.7835" xml:space="preserve" y="-227.9506" stroke="none">COX-2</text>
          </g>
        </g>
        <g>
          <g fill="white" text-rendering="geometricPrecision" shape-rendering="geometricPrecision" transform="matrix(1,0,0,1,-311,317)" stroke="white">
            <rect x="787.7391" width="24.875" height="15.7773" y="-260.6927" stroke="none"/>
            <rect x="787.7391" y="-260.6927" fill="none" width="24.875" height="15.7773" stroke="black" stroke-miterlimit="1.6"/>
          </g>
          <g font-size="10px" stroke-linecap="butt" transform="matrix(1,0,0,1,-311,317)" text-rendering="geometricPrecision" font-family="sans-serif" shape-rendering="geometricPrecision" stroke-miterlimit="1.45">
            <text x="791.7391" xml:space="preserve" y="-249.0248" stroke="none">N:2</text>
          </g>
        </g>
        <g>
          <g fill="white" text-rendering="geometricPrecision" shape-rendering="geometricPrecision" transform="matrix(1,0,0,1,-311,317) translate(774.1766,-221.9459)" stroke="white">
            <rect x="0" y="0" width="51.7937" rx="9.009" ry="9.009" height="18.018" stroke="none"/>
          </g>
          <g text-rendering="geometricPrecision" stroke-miterlimit="1.45" shape-rendering="geometricPrecision" transform="matrix(1,0,0,1,-311,317) translate(774.1766,-221.9459)" stroke-linecap="butt">
            <rect x="0" y="0" fill="none" width="51.7937" rx="9.009" ry="9.009" height="18.018"/>
            <text x="3.4164" xml:space="preserve" font-size="10px" y="12.7883" font-family="sans-serif" stroke="none">Ac@S516</text>
          </g>
        </g>
      </a>
    </g>
    <g id="y.node.3">
      <g fill="white" text-rendering="geometricPrecision" shape-rendering="geometricPrecision" transform="matrix(1,0,0,1,-311,317)" stroke="white">
        <rect x="696.6455" width="18" height="18" y="-241.8041" stroke="none"/>
      </g>
      <g text-rendering="geometricPrecision" stroke-miterlimit="1.45" shape-rendering="geometricPrecision" transform="matrix(1,0,0,1,-311,317)" stroke-linecap="butt">
        <rect fill="none" x="696.6455" width="18" height="18" y="-241.8041"/>
      </g>
      <g/>
    </g>
    <g id="y.node.4">
      <g fill="rgb(200,216,235)" text-rendering="geometricPrecision" shape-rendering="geometricPrecision" transform="matrix(1,0,0,1,-311,317)" stroke="rgb(200,216,235)">
        <rect x="326.4088" y="-191.8041" width="100" rx="18" ry="18" height="36" stroke="none"/>
      </g>
      <g text-rendering="geometricPrecision" stroke-miterlimit="1.45" shape-rendering="geometricPrecision" transform="matrix(1,0,0,1,-311,317)" stroke-linecap="butt">
        <rect x="326.4088" y="-191.8041" fill="none" width="100" rx="18" ry="18" height="36"/>
      </g>
      <g>
        <g font-size="14px" stroke-linecap="butt" transform="matrix(1,0,0,1,-311,317)" text-rendering="geometricPrecision" font-family="'Arial'" shape-rendering="geometricPrecision" stroke-miterlimit="1.45">
          <text x="356.9571" xml:space="preserve" y="-168.9506" stroke="none">PGG2</text>
        </g>
      </g>
    </g>
    <g id="y.node.5">
      <g fill="rgb(200,216,235)" text-rendering="geometricPrecision" shape-rendering="geometricPrecision" transform="matrix(1,0,0,1,-311,317)" stroke="rgb(200,216,235)">
        <rect x="326.4088" y="-81.2086" width="100" rx="18" ry="18" height="36" stroke="none"/>
      </g>
      <g text-rendering="geometricPrecision" stroke-miterlimit="1.45" shape-rendering="geometricPrecision" transform="matrix(1,0,0,1,-311,317)" stroke-linecap="butt">
        <rect x="326.4088" y="-81.2086" fill="none" width="100" rx="18" ry="18" height="36"/>
      </g>
      <g>
        <g font-size="14px" stroke-linecap="butt" transform="matrix(1,0,0,1,-311,317)" text-rendering="geometricPrecision" font-family="'Arial'" shape-rendering="geometricPrecision" stroke-miterlimit="1.45">
          <text x="357.3467" xml:space="preserve" y="-58.3551" stroke="none">PGH2</text>
        </g>
      </g>
    </g>
    <g id="y.node.6">
      <g fill="white" text-rendering="geometricPrecision" shape-rendering="geometricPrecision" transform="matrix(1,0,0,1,-311,317)" stroke="white">
        <rect x="367.4088" width="18" height="18" y="-241.8041" stroke="none"/>
      </g>
      <g text-rendering="geometricPrecision" stroke-miterlimit="1.45" shape-rendering="geometricPrecision" transform="matrix(1,0,0,1,-311,317)" stroke-linecap="butt">
        <rect fill="none" x="367.4088" width="18" height="18" y="-241.8041"/>
      </g>
      <g/>
    </g>
    <g id="y.node.7">
      <g fill="white" text-rendering="geometricPrecision" shape-rendering="geometricPrecision" transform="matrix(1,0,0,1,-311,317)" stroke="white">
        <rect x="367.4088" width="18" height="18" y="-131.2086" stroke="none"/>
      </g>
      <g text-rendering="geometricPrecision" stroke-miterlimit="1.45" shape-rendering="geometricPrecision" transform="matrix(1,0,0,1,-311,317)" stroke-linecap="butt">
        <rect fill="none" x="367.4088" width="18" height="18" y="-131.2086"/>
      </g>
      <g/>
    </g>
    <g id="y.node.8">
      <g fill="rgb(255,233,147)" text-rendering="geometricPrecision" shape-rendering="geometricPrecision" transform="matrix(1,0,0,1,-311,317)" stroke="rgb(255,233,147)">
        <rect x="586.0236" y="-168.6857" width="100" rx="18" ry="18" height="36" stroke="none"/>
      </g>
      <g text-rendering="geometricPrecision" stroke-miterlimit="1.45" shape-rendering="geometricPrecision" transform="matrix(1,0,0,1,-311,317)" stroke-linecap="butt">
        <rect x="586.0236" y="-168.6857" fill="none" width="100" rx="18" ry="18" height="36"/>
      </g>
      <g>
        <g font-size="14px" stroke-linecap="butt" transform="matrix(1,0,0,1,-311,317)" text-rendering="geometricPrecision" font-family="'Arial'" shape-rendering="geometricPrecision" stroke-miterlimit="1.45">
          <text x="615.403" xml:space="preserve" y="-145.8321" stroke="none">aspirin</text>
        </g>
      </g>
    </g>
    <g id="y.node.9">
      <g fill="white" text-rendering="geometricPrecision" shape-rendering="geometricPrecision" transform="matrix(1,0,0,1,-311,317)" stroke="white">
        <rect x="734.5331" y="-168.6857" width="100" rx="18" ry="18" height="36" stroke="none"/>
      </g>
      <g text-rendering="geometricPrecision" stroke-miterlimit="1.45" shape-rendering="geometricPrecision" transform="matrix(1,0,0,1,-311,317)" stroke-linecap="butt">
        <rect x="734.5331" y="-168.6857" fill="none" width="100" rx="18" ry="18" height="36"/>
      </g>
      <g>
        <g font-size="14px" stroke-linecap="butt" transform="matrix(1,0,0,1,-311,317)" text-rendering="geometricPrecision" font-family="'Arial'" shape-rendering="geometricPrecision" stroke-miterlimit="1.45">
          <text x="745.6332" xml:space="preserve" y="-145.8321" stroke="none">salicylic acid</text>
        </g>
      </g>
    </g>
    <g id="y.node.10">
      <g fill="rgb(200,216,235)" text-rendering="geometricPrecision" shape-rendering="geometricPrecision" transform="matrix(1,0,0,1,-311,317)" stroke="rgb(200,216,235)">
        <rect x="949.2387" y="-191.8041" width="100" rx="18" ry="18" height="36" stroke="none"/>
      </g>
      <g text-rendering="geometricPrecision" stroke-miterlimit="1.45" shape-rendering="geometricPrecision" transform="matrix(1,0,0,1,-311,317)" stroke-linecap="butt">
        <rect x="949.2387" y="-191.8041" fill="none" width="100" rx="18" ry="18" height="36"/>
      </g>
      <g>
        <g font-size="14px" stroke-linecap="butt" transform="matrix(1,0,0,1,-311,317)" text-rendering="geometricPrecision" font-family="'Arial'" shape-rendering="geometricPrecision" stroke-miterlimit="1.45">
          <text x="965.3975" xml:space="preserve" y="-168.9506" stroke="none">15R-HETE</text>
        </g>
      </g>
    </g>
    <g id="y.node.11">
      <g fill="white" text-rendering="geometricPrecision" shape-rendering="geometricPrecision" transform="matrix(1,0,0,1,-311,317)" stroke="white">
        <rect x="990.2387" width="18" height="18" y="-241.8041" stroke="none"/>
      </g>
      <g text-rendering="geometricPrecision" stroke-miterlimit="1.45" shape-rendering="geometricPrecision" transform="matrix(1,0,0,1,-311,317)" stroke-linecap="butt">
        <rect fill="none" x="990.2387" width="18" height="18" y="-241.8041"/>
      </g>
      <g/>
    </g>
    <g id="y.node.12">
      <g fill="white" text-rendering="geometricPrecision" shape-rendering="geometricPrecision" transform="matrix(1,0,0,1,-311,317)" stroke="white">
        <circle r="15" cx="441.4088" cy="-232.8041" stroke="none"/>
      </g>
      <g text-rendering="geometricPrecision" stroke-miterlimit="1.45" shape-rendering="geometricPrecision" transform="matrix(1,0,0,1,-311,317)" stroke-linecap="butt">
        <circle fill="none" r="15" cx="441.4088" cy="-232.8041"/>
      </g>
      <g>
        <g text-rendering="geometricPrecision" stroke-miterlimit="1.45" shape-rendering="geometricPrecision" font-family="'Arial'" transform="matrix(1,0,0,1,-311,317)" stroke-linecap="butt">
          <text x="432.4088" xml:space="preserve" y="-228.6439" stroke="none">OR</text>
        </g>
      </g>
    </g>
    <g id="y.node.13">
      <g fill="white" text-rendering="geometricPrecision" shape-rendering="geometricPrecision" transform="matrix(1,0,0,1,-311,317)" stroke="white">
        <circle r="15" cx="441.4088" cy="-122.2086" stroke="none"/>
      </g>
      <g text-rendering="geometricPrecision" stroke-miterlimit="1.45" shape-rendering="geometricPrecision" transform="matrix(1,0,0,1,-311,317)" stroke-linecap="butt">
        <circle fill="none" r="15" cx="441.4088" cy="-122.2086"/>
      </g>
      <g>
        <g text-rendering="geometricPrecision" stroke-miterlimit="1.45" shape-rendering="geometricPrecision" font-family="'Arial'" transform="matrix(1,0,0,1,-311,317)" stroke-linecap="butt">
          <text x="432.4088" xml:space="preserve" y="-118.0485" stroke="none">OR</text>
        </g>
      </g>
    </g>
    <g id="y.node.14">
      <g fill="rgb(92,143,204)" text-rendering="geometricPrecision" shape-rendering="geometricPrecision" transform="matrix(1,0,0,1,-311,317)" stroke="rgb(92,143,204)">
        <path d="M581.1144 -83.2086 Q571.1144 -83.2086 571.1144 -73.2086 L571.1144 -53.2086 Q571.1144 -45.2086 577.5144 -43.6086 L577.5144 -43.6086 Q579.1144 -37.2086 587.1144 -37.2086 L647.1144 -37.2086 Q657.1144 -37.2086 657.1144 -47.2086 L657.1144 -67.2086 Q657.1144 -75.2086 650.7144 -76.8086 L650.7144 -76.8086 Q649.1144 -83.2086 641.1144 -83.2086 Z" stroke="none"/>
      </g>
      <g text-rendering="geometricPrecision" stroke-miterlimit="1.45" shape-rendering="geometricPrecision" transform="matrix(1,0,0,1,-311,317)" stroke-linecap="butt">
        <path fill="none" d="M650.7144 -76.8086 Q651.1144 -75.2086 651.1144 -73.2086 L651.1144 -53.2086 Q651.1144 -43.2086 641.1144 -43.2086 L581.1144 -43.2086 Q579.1144 -43.2086 577.5144 -43.6086 L577.5144 -43.6086 Q579.1144 -37.2086 587.1144 -37.2086 L647.1144 -37.2086 Q657.1144 -37.2086 657.1144 -47.2086 L657.1144 -67.2086 Q657.1144 -75.2086 650.7144 -76.8086 Z"/>
        <path fill="none" d="M581.1144 -83.2086 Q571.1144 -83.2086 571.1144 -73.2086 L571.1144 -53.2086 Q571.1144 -43.2086 581.1144 -43.2086 L641.1144 -43.2086 Q651.1144 -43.2086 651.1144 -53.2086 L651.1144 -73.2086 Q651.1144 -83.2086 641.1144 -83.2086 Z"/>
      </g>
      <g>
        <g stroke-linecap="butt" font-size="14px" transform="matrix(1,0,0,1,-311,317)" fill="white" text-rendering="geometricPrecision" font-family="'Arial'" shape-rendering="geometricPrecision" stroke="white" font-weight="bold" stroke-miterlimit="1.45">
          <text x="589.7214" xml:space="preserve" y="-58.3551" stroke="none">COX-1</text>
        </g>
      </g>
      <g>
        <g fill="white" text-rendering="geometricPrecision" shape-rendering="geometricPrecision" transform="matrix(1,0,0,1,-311,317)" stroke="white">
          <rect x="598.6769" width="24.875" height="15.7773" y="-91.0973" stroke="none"/>
          <rect x="598.6769" y="-91.0973" fill="none" width="24.875" height="15.7773" stroke="black" stroke-miterlimit="1.6"/>
        </g>
        <g font-size="10px" stroke-linecap="butt" transform="matrix(1,0,0,1,-311,317)" text-rendering="geometricPrecision" font-family="sans-serif" shape-rendering="geometricPrecision" stroke-miterlimit="1.45">
          <text x="602.6769" xml:space="preserve" y="-79.4293" stroke="none">N:2</text>
        </g>
      </g>
      <g>
        <g fill="white" text-rendering="geometricPrecision" shape-rendering="geometricPrecision" transform="matrix(1,0,0,1,-311,317) translate(552.2425,-52.3414)" stroke="white">
          <rect x="0" y="0" width="51.7937" rx="9.009" ry="9.009" height="18.018" stroke="none"/>
        </g>
        <g text-rendering="geometricPrecision" stroke-miterlimit="1.45" shape-rendering="geometricPrecision" transform="matrix(1,0,0,1,-311,317) translate(552.2425,-52.3414)" stroke-linecap="butt">
          <rect x="0" y="0" fill="none" width="51.7937" rx="9.009" ry="9.009" height="18.018"/>
          <text x="11.8856" xml:space="preserve" font-size="10px" y="12.7883" font-family="sans-serif" stroke="none">active</text>
        </g>
      </g>
      <g>
        <g fill="white" text-rendering="geometricPrecision" shape-rendering="geometricPrecision" transform="matrix(1,0,0,1,-311,317) translate(612.4244,-52.3322)" stroke="white">
          <rect x="0" y="0" width="51.7937" rx="9.009" ry="9.009" height="18.018" stroke="none"/>
        </g>
        <g text-rendering="geometricPrecision" stroke-miterlimit="1.45" shape-rendering="geometricPrecision" transform="matrix(1,0,0,1,-311,317) translate(612.4244,-52.3322)" stroke-linecap="butt">
          <rect x="0" y="0" fill="none" width="51.7937" rx="9.009" ry="9.009" height="18.018"/>
          <text x="6.2631" xml:space="preserve" font-size="10px" y="12.7883" font-family="sans-serif" stroke="none">  @S530</text>
        </g>
      </g>
    </g>
    <g id="y.node.15">
      <g fill="rgb(92,143,204)" text-rendering="geometricPrecision" shape-rendering="geometricPrecision" transform="matrix(1,0,0,1,-311,317)" stroke="rgb(92,143,204)">
        <path d="M770.1766 -83.2086 Q760.1766 -83.2086 760.1766 -73.2086 L760.1766 -53.2086 Q760.1766 -45.2086 766.5766 -43.6086 L766.5766 -43.6086 Q768.1766 -37.2086 776.1766 -37.2086 L836.1766 -37.2086 Q846.1766 -37.2086 846.1766 -47.2086 L846.1766 -67.2086 Q846.1766 -75.2086 839.7766 -76.8086 L839.7766 -76.8086 Q838.1766 -83.2086 830.1766 -83.2086 Z" stroke="none"/>
      </g>
      <g text-rendering="geometricPrecision" stroke-miterlimit="1.45" shape-rendering="geometricPrecision" transform="matrix(1,0,0,1,-311,317)" stroke-linecap="butt">
        <path fill="none" d="M839.7766 -76.8086 Q840.1766 -75.2086 840.1766 -73.2086 L840.1766 -53.2086 Q840.1766 -43.2086 830.1766 -43.2086 L770.1766 -43.2086 Q768.1766 -43.2086 766.5766 -43.6086 L766.5766 -43.6086 Q768.1766 -37.2086 776.1766 -37.2086 L836.1766 -37.2086 Q846.1766 -37.2086 846.1766 -47.2086 L846.1766 -67.2086 Q846.1766 -75.2086 839.7766 -76.8086 Z"/>
        <path fill="none" d="M770.1766 -83.2086 Q760.1766 -83.2086 760.1766 -73.2086 L760.1766 -53.2086 Q760.1766 -43.2086 770.1766 -43.2086 L830.1766 -43.2086 Q840.1766 -43.2086 840.1766 -53.2086 L840.1766 -73.2086 Q840.1766 -83.2086 830.1766 -83.2086 Z"/>
      </g>
      <g>
        <g stroke-linecap="butt" font-size="14px" transform="matrix(1,0,0,1,-311,317)" fill="white" text-rendering="geometricPrecision" font-family="'Arial'" shape-rendering="geometricPrecision" stroke="white" font-weight="bold" stroke-miterlimit="1.45">
          <text x="778.7835" xml:space="preserve" y="-58.3551" stroke="none">COX-1</text>
        </g>
      </g>
      <g>
        <g fill="white" text-rendering="geometricPrecision" shape-rendering="geometricPrecision" transform="matrix(1,0,0,1,-311,317)" stroke="white">
          <rect x="787.7391" width="24.875" height="15.7773" y="-91.0973" stroke="none"/>
          <rect x="787.7391" y="-91.0973" fill="none" width="24.875" height="15.7773" stroke="black" stroke-miterlimit="1.6"/>
        </g>
        <g font-size="10px" stroke-linecap="butt" transform="matrix(1,0,0,1,-311,317)" text-rendering="geometricPrecision" font-family="sans-serif" shape-rendering="geometricPrecision" stroke-miterlimit="1.45">
          <text x="791.7391" xml:space="preserve" y="-79.4293" stroke="none">N:2</text>
        </g>
      </g>
      <g>
        <g fill="white" text-rendering="geometricPrecision" shape-rendering="geometricPrecision" transform="matrix(1,0,0,1,-311,317) translate(741.3047,-52.3414)" stroke="white">
          <rect x="0" y="0" width="51.7937" rx="9.009" ry="9.009" height="18.018" stroke="none"/>
        </g>
        <g text-rendering="geometricPrecision" stroke-miterlimit="1.45" shape-rendering="geometricPrecision" transform="matrix(1,0,0,1,-311,317) translate(741.3047,-52.3414)" stroke-linecap="butt">
          <rect x="0" y="0" fill="none" width="51.7937" rx="9.009" ry="9.009" height="18.018"/>
          <text x="7.3373" xml:space="preserve" font-size="10px" y="12.7883" font-family="sans-serif" stroke="none">inactive</text>
        </g>
      </g>
      <g>
        <g fill="white" text-rendering="geometricPrecision" shape-rendering="geometricPrecision" transform="matrix(1,0,0,1,-311,317) translate(801.4865,-52.3322)" stroke="white">
          <rect x="0" y="0" width="51.7937" rx="9.009" ry="9.009" height="18.018" stroke="none"/>
        </g>
        <g text-rendering="geometricPrecision" stroke-miterlimit="1.45" shape-rendering="geometricPrecision" transform="matrix(1,0,0,1,-311,317) translate(801.4865,-52.3322)" stroke-linecap="butt">
          <rect x="0" y="0" fill="none" width="51.7937" rx="9.009" ry="9.009" height="18.018"/>
          <text x="3.4164" xml:space="preserve" font-size="10px" y="12.7883" font-family="sans-serif" stroke="none">Ac@S530</text>
        </g>
      </g>
    </g>
    <g id="y.node.16">
      <g fill="white" text-rendering="geometricPrecision" shape-rendering="geometricPrecision" transform="matrix(1,0,0,1,-311,317)" stroke="white">
        <rect x="696.6455" width="18" height="18" y="-72.2086" stroke="none"/>
      </g>
      <g text-rendering="geometricPrecision" stroke-miterlimit="1.45" shape-rendering="geometricPrecision" transform="matrix(1,0,0,1,-311,317)" stroke-linecap="butt">
        <rect fill="none" x="696.6455" width="18" height="18" y="-72.2086"/>
      </g>
      <g/>
    </g>
    <g id="y.edge.1">
      <g text-rendering="geometricPrecision" stroke-miterlimit="1.45" shape-rendering="geometricPrecision" transform="matrix(1,0,0,1,-311,317)" stroke-linecap="butt">
        <path fill="none" d="M657.1337 -232.8041 L696.6917 -232.8041"/>
      </g>
    </g>
    <g id="y.edge.0">
      <g text-rendering="geometricPrecision" stroke-miterlimit="1.45" shape-rendering="geometricPrecision" transform="matrix(1,0,0,1,-311,317)" stroke-linecap="butt">
        <path fill="none" d="M714.6462 -232.8041 L749.2095 -232.8041"/>
      </g>
      <g text-rendering="geometricPrecision" stroke-miterlimit="1.45" shape-rendering="geometricPrecision" transform="matrix(1,0,0,1,-311,317)" stroke-linecap="butt">
        <path d="M760.2095 -232.8041 L748.2095 -238.8041 L748.2095 -226.8041 Z" stroke="none"/>
      </g>
    </g>
    <g id="y.edge.4">
      <g text-rendering="geometricPrecision" stroke-miterlimit="1.45" shape-rendering="geometricPrecision" transform="matrix(1,0,0,1,-311,317)" stroke-linecap="butt">
        <path fill="none" d="M376.4088 -265.5775 L376.4088 -241.7975"/>
      </g>
    </g>
    <g id="y.edge.3">
      <g text-rendering="geometricPrecision" stroke-miterlimit="1.45" shape-rendering="geometricPrecision" transform="matrix(1,0,0,1,-311,317)" stroke-linecap="butt">
        <path fill="none" d="M376.4088 -223.787 L376.4088 -202.8155"/>
        <path d="M376.4088 -191.8155 L382.4088 -203.8155 L370.4088 -203.8155 Z" stroke="none"/>
      </g>
    </g>
    <g id="y.edge.5">
      <g text-rendering="geometricPrecision" stroke-miterlimit="1.45" shape-rendering="geometricPrecision" transform="matrix(1,0,0,1,-311,317)" stroke-linecap="butt">
        <path fill="none" d="M376.4088 -155.791 L376.4088 -131.2273"/>
      </g>
    </g>
    <g id="y.edge.2">
      <g text-rendering="geometricPrecision" stroke-miterlimit="1.45" shape-rendering="geometricPrecision" transform="matrix(1,0,0,1,-311,317)" stroke-linecap="butt">
        <path fill="none" d="M376.4088 -113.1915 L376.4088 -92.2201"/>
        <path d="M376.4088 -81.2201 L382.4088 -93.2201 L370.4088 -93.2201 Z" stroke="none"/>
      </g>
    </g>
    <g id="y.edge.7">
      <g text-rendering="geometricPrecision" stroke-miterlimit="1.45" shape-rendering="geometricPrecision" transform="matrix(1,0,0,1,-311,317)" stroke-linecap="butt">
        <path fill="none" d="M647.2 -168.6891 L687.002 -232.8041 L696.6515 -232.8041"/>
      </g>
    </g>
    <g id="y.edge.6">
      <g text-rendering="geometricPrecision" stroke-miterlimit="1.45" shape-rendering="geometricPrecision" transform="matrix(1,0,0,1,-311,317)" stroke-linecap="butt">
        <path fill="none" d="M714.6735 -232.8041 L724.9857 -232.8041 L765.0205 -177.5943"/>
        <path d="M771.478 -168.6892 L769.2908 -181.9261 L759.5762 -174.8815 Z" stroke="none"/>
      </g>
    </g>
    <g id="y.edge.9">
      <g text-rendering="geometricPrecision" stroke-miterlimit="1.45" shape-rendering="geometricPrecision" transform="matrix(1,0,0,1,-311,317)" stroke-linecap="butt">
        <path fill="none" d="M426.3979 -283.5756 L989.2388 -283.5756 L993.6138 -282.9506 L996.7388 -281.0756 L998.6138 -277.9506 L999.2388 -273.5756 L999.2388 -241.7783"/>
      </g>
      <g/>
    </g>
    <g id="y.edge.11">
      <g text-rendering="geometricPrecision" stroke-miterlimit="1.45" shape-rendering="geometricPrecision" transform="matrix(1,0,0,1,-311,317)" stroke-linecap="butt">
        <path fill="none" d="M846.1965 -233.1313 L978.6237 -234.073"/>
        <path fill="white" d="M986.6235 -234.1299 C986.6392 -231.9208 984.8611 -230.1173 982.652 -230.1016 C980.4429 -230.0858 978.6394 -231.8639 978.6237 -234.073 C978.608 -236.2821 980.386 -238.0856 982.5952 -238.1013 C984.8042 -238.1171 986.6078 -236.339 986.6235 -234.1299 Z" stroke="none"/>
        <path fill="none" d="M986.6235 -234.1299 C986.6392 -231.9208 984.8611 -230.1173 982.652 -230.1016 C980.4429 -230.0858 978.6394 -231.8639 978.6237 -234.073 C978.608 -236.2821 980.386 -238.0856 982.5952 -238.1013 C984.8042 -238.1171 986.6078 -236.339 986.6235 -234.1299 Z"/>
      </g>
    </g>
    <g id="y.edge.8">
      <g text-rendering="geometricPrecision" stroke-miterlimit="1.45" shape-rendering="geometricPrecision" transform="matrix(1,0,0,1,-311,317)" stroke-linecap="butt">
        <path fill="none" d="M999.2388 -223.787 L999.2388 -202.8155"/>
        <path d="M999.2388 -191.8155 L1005.2388 -203.8155 L993.2388 -203.8155 Z" stroke="none"/>
      </g>
    </g>
    <g id="y.edge.13">
      <g text-rendering="geometricPrecision" stroke-miterlimit="1.45" shape-rendering="geometricPrecision" transform="matrix(1,0,0,1,-311,317)" stroke-linecap="butt">
        <path fill="none" d="M571.1325 -232.8041 L456.3891 -232.8041"/>
      </g>
    </g>
    <g id="y.edge.10">
      <g text-rendering="geometricPrecision" stroke-miterlimit="1.45" shape-rendering="geometricPrecision" transform="matrix(1,0,0,1,-311,317)" stroke-linecap="butt">
        <path fill="none" d="M426.3975 -233.1716 L397.9104 -233.8692"/>
        <path fill="white" d="M389.9128 -234.065 C389.9669 -236.2735 391.801 -238.0199 394.0095 -237.9659 C396.218 -237.9118 397.9644 -236.0776 397.9104 -233.8692 C397.8563 -231.6607 396.0222 -229.9142 393.8137 -229.9683 C391.6052 -230.0224 389.8587 -231.8565 389.9128 -234.065 Z" stroke="none"/>
        <path fill="none" d="M389.9128 -234.065 C389.9669 -236.2735 391.801 -238.0199 394.0095 -237.9659 C396.218 -237.9118 397.9644 -236.0776 397.9104 -233.8692 C397.8563 -231.6607 396.0222 -229.9142 393.8137 -229.9683 C391.6052 -230.0224 389.8587 -231.8565 389.9128 -234.065 Z"/>
      </g>
    </g>
    <g id="y.edge.14">
      <g text-rendering="geometricPrecision" stroke-miterlimit="1.45" shape-rendering="geometricPrecision" transform="matrix(1,0,0,1,-311,317)" stroke-linecap="butt">
        <path fill="none" d="M580.0958 -208.8543 L467.8762 -122.2086 L456.4259 -122.2086"/>
      </g>
    </g>
    <g id="y.edge.12">
      <g text-rendering="geometricPrecision" stroke-miterlimit="1.45" shape-rendering="geometricPrecision" transform="matrix(1,0,0,1,-311,317)" stroke-linecap="butt">
        <path fill="none" d="M426.429 -121.841 L397.3205 -121.1267"/>
        <path fill="white" d="M389.3229 -120.9305 C389.2687 -123.1389 391.0151 -124.9732 393.2236 -125.0274 C395.4321 -125.0816 397.2663 -123.3352 397.3205 -121.1267 C397.3747 -118.9183 395.6283 -117.084 393.4199 -117.0298 C391.2114 -116.9756 389.3771 -118.722 389.3229 -120.9305 Z" stroke="none"/>
        <path fill="none" d="M389.3229 -120.9305 C389.2687 -123.1389 391.0151 -124.9732 393.2236 -125.0274 C395.4321 -125.0816 397.2663 -123.3352 397.3205 -121.1267 C397.3747 -118.9183 395.6283 -117.084 393.4199 -117.0298 C391.2114 -116.9756 389.3771 -118.722 389.3229 -120.9305 Z"/>
      </g>
    </g>
    <g id="y.edge.19">
      <g text-rendering="geometricPrecision" stroke-miterlimit="1.45" shape-rendering="geometricPrecision" transform="matrix(1,0,0,1,-311,317)" stroke-linecap="butt">
        <path fill="none" d="M572.4023 -79.1542 L467.8762 -122.2086 L456.4259 -122.2086"/>
      </g>
    </g>
    <g id="y.edge.20">
      <g text-rendering="geometricPrecision" stroke-miterlimit="1.45" shape-rendering="geometricPrecision" transform="matrix(1,0,0,1,-311,317)" stroke-linecap="butt">
        <path fill="none" d="M594.3839 -83.228 L469.3809 -232.8041 L456.4055 -232.8041"/>
      </g>
    </g>
    <g id="y.edge.16">
      <g text-rendering="geometricPrecision" stroke-miterlimit="1.45" shape-rendering="geometricPrecision" transform="matrix(1,0,0,1,-311,317)" stroke-linecap="butt">
        <path fill="none" d="M657.1337 -63.2086 L696.6917 -63.2086"/>
      </g>
    </g>
    <g id="y.edge.17">
      <g text-rendering="geometricPrecision" stroke-miterlimit="1.45" shape-rendering="geometricPrecision" transform="matrix(1,0,0,1,-311,317)" stroke-linecap="butt">
        <path fill="none" d="M646.728 -132.7033 L688.0962 -63.2086 L696.6309 -63.2086"/>
      </g>
    </g>
    <g id="y.edge.15">
      <g text-rendering="geometricPrecision" stroke-miterlimit="1.45" shape-rendering="geometricPrecision" transform="matrix(1,0,0,1,-311,317)" stroke-linecap="butt">
        <path fill="none" d="M714.6462 -63.2086 L749.2095 -63.2086"/>
        <path d="M760.2095 -63.2086 L748.2095 -69.2086 L748.2095 -57.2086 Z" stroke="none"/>
      </g>
    </g>
    <g id="y.edge.18">
      <g text-rendering="geometricPrecision" stroke-miterlimit="1.45" shape-rendering="geometricPrecision" transform="matrix(1,0,0,1,-311,317)" stroke-linecap="butt">
        <path fill="none" d="M714.6835 -63.2086 L725.1707 -63.2086 L766.1389 -123.5799"/>
        <path d="M772.3157 -132.6819 L760.6126 -126.1215 L770.5422 -119.3833 Z" stroke="none"/>
      </g>
    </g>
    <g visibility="hidden" id="tooltip.y.node.2" pointer-events="none">
      <g fill="rgb(255,255,204)" text-rendering="geometricPrecision" font-size="11px" shape-rendering="geometricPrecision" font-family="'Lucida Grande'" stroke="rgb(255,255,204)">
        <rect x="0" width="128" height="18" y="0" clip-path="url(#clipPath3)" stroke="none"/>
        <text fill="black" x="3" xml:space="preserve" y="13" clip-path="url(#clipPath3)" stroke="none">sljvbalKJFBVASLKDJVBA</text>
      </g>
    </g>
  </g>
</svg>
